<svg xmlns="http://www.w3.org/2000/svg" viewBox="0 0 512 512"><path d="M512 224c0-141-115-256-256-256s-256 115-256 256c0 45 12 88 33 125-4 6-6 12-6 19l-3 27c0 7 5 13 12 13h1c6 0 11-5 12-11l2-21c47 63 121 104 205 104 75 0 142-32 188-83 1 6 6 11 13 11h1c7 0 12-6 11-13l-2-26c28-42 45-91 45-145zm-61 112c-2-2-5-4-9-6l-10-6c-9-5-14-14-11-26 4-21-7-42-26-52-9-4-14-14-12-24l2-11c2-14-2-28-11-38h8c8 0 15-7 15-16 0-8-7-15-15-15h-61c-8 0-15 7-15 15 0 9 7 16 15 16h18l15 13c5 6 8 13 6 21l-2 10c-3 21 7 42 26 52 9 4 15 14 12 26-4 20 6 41 24 51l11 6 7 6c-42 55-108 91-182 91-78 0-147-40-187-100l5-3c18-10 28-31 24-53-3-10 2-20 12-25 19-9 30-30 26-51l-2-11c-2-7 1-15 6-20l15-14h21c8 0 15-7 15-15 0-9-7-16-15-16h-61c-9 0-15 7-15 16 0 8 6 15 15 15h5c-9 11-14 25-11 39l2 10c2 10-3 20-12 25-20 9-30 31-26 54 3 9-2 19-11 24l-6 3c-16-31-25-66-25-103 0-124 101-225 225-225s225 101 225 225c0 41-11 79-30 112zm-297 32c0 6 4 11 11 11h182c6 0 11-5 11-11 0-57-46-103-102-103-57 0-102 46-102 103z"/></svg>