<svg xmlns="http://www.w3.org/2000/svg" viewBox="0 0 512 512"><path d="M256 480c-141 0-256-115-256-256s115-256 256-256 256 115 256 256-115 256-256 256zm0-481c-124 0-225 101-225 225s101 225 225 225 225-101 225-225-101-225-225-225zm113 372c-4 0-8-2-11-5-27-26-64-42-102-42-39-1-76 13-102 40-6 6-16 6-22 0s-6-16 0-22c33-32 77-50 124-49s91 19 124 52c6 5 6 15 0 21-3 4-7 5-11 5zm-212-181c-10 0-20-2-28-7-8-4-10-14-6-21s13-10 21-6c13 7 28 3 35-10 5-7 14-10 21-5 8 4 10 13 6 21-7 13-19 22-34 26-5 2-10 2-15 2zm196 0c-18 0-36-9-47-25-5-8-3-17 4-22 7-4 16-2 21 4 8 13 24 16 36 8 8-5 17-3 22 4 4 7 2 16-4 21-10 7-21 10-32 10z"/></svg>