<?xml version="1.0" encoding="UTF-8" standalone="no"?>
<svg width="21px" height="23px" viewBox="0 0 21 23" version="1.1" xmlns="http://www.w3.org/2000/svg" xmlns:xlink="http://www.w3.org/1999/xlink">
    <!-- Generator: Sketch 3.7.2 (28276) - http://www.bohemiancoding.com/sketch -->
    <title>account_inactive-new-ui</title>
    <desc>Created with Sketch.</desc>
    <defs></defs>
    <g id="Page-1" stroke="none" stroke-width="1" fill="none" fill-rule="evenodd">
        <g id="577-585" transform="translate(-578.000000, -275.000000)">
            <g id="account_inactive-new-ui" transform="translate(572.000000, 270.000000)">
                <rect id="Rectangle-29" x="0" y="0" width="32" height="32"></rect>
                <g id="Account_inactive" transform="translate(6.666667, 5.333333)" fill="#000000">
                    <path d="M9.83984286,12.4582881 C6.25122381,12.4582881 3.13779524,15.4085976 2.43674762,19.4732167 C2.40072381,19.6820738 2.49462857,19.8205024 2.53672381,19.8702881 C2.56950952,19.9091452 2.63710476,19.9739071 2.72412857,19.9739071 L16.9555571,19.9739071 C17.0429857,19.9739071 17.110581,19.9091452 17.1429619,19.8702881 C17.1850571,19.8205024 17.2789619,19.6820738 17.2433429,19.4732167 C16.5418905,15.4085976 13.4284619,12.4582881 9.83984286,12.4582881 M16.9555571,22.4024786 L2.72412857,22.4024786 C1.94253333,22.4024786 1.1969619,22.049931 0.679271429,21.4355024 C0.127985714,20.7805976 -0.103942857,19.9152167 0.0433904762,19.0607643 C0.946009524,13.8275976 5.06608095,10.0297167 9.83984286,10.0297167 C14.6136048,10.0297167 18.7336762,13.8275976 19.6362952,19.0607643 C19.7836286,19.9148119 19.5521048,20.7805976 19.0004143,21.4350976 C18.4827238,22.049931 17.7371524,22.4024786 16.9555571,22.4024786" id="Fill-3"></path>
                    <path d="M9.9244381,2.42857143 C8.18234286,2.42857143 6.76527143,3.84564286 6.76527143,5.5877381 C6.76527143,7.32942857 8.18234286,8.74690476 9.9244381,8.74690476 C11.6665333,8.74690476 13.0836048,7.32942857 13.0836048,5.5877381 C13.0836048,3.84564286 11.6665333,2.42857143 9.9244381,2.42857143 M9.9244381,11.1754762 C6.84339048,11.1754762 4.3367,8.66878571 4.3367,5.5877381 C4.3367,2.50628571 6.84339048,-3.02868841e-13 9.9244381,-3.02868841e-13 C13.0054857,-3.02868841e-13 15.5121762,2.50628571 15.5121762,5.5877381 C15.5121762,8.66878571 13.0054857,11.1754762 9.9244381,11.1754762" id="Fill-5"></path>
                </g>
            </g>
        </g>
    </g>
</svg>