<svg xmlns="http://www.w3.org/2000/svg" viewBox="0 0 512 512"><path d="M498 415h-47v48c0 8-7 15-16 15-8 0-15-7-15-15v-48h-48c-8 0-15-7-15-15 0-9 7-16 15-16h48v-47c0-9 7-16 15-16 9 0 16 7 16 16v47h47c9 0 16 7 16 16 1 8-5 15-16 15zm-184-121c17 3 41 10 65 17-12 7-21 17-29 27-19-5-39-10-60-15v-51c41-28 63-87 63-140 0-74-18-132-112-132s-110 58-110 132c0 54 24 112 64 140v51c-60 14-132 34-147 43-10 13-19 54-14 82h292c3 12 7 22 14 32h-323c-26-38-15-114 10-140 12-12 101-36 144-46-45-36-72-101-72-162 0-91 26-164 143-164 118 0 144 73 144 164 1 61-26 126-72 162z"/></svg>