<svg xmlns="http://www.w3.org/2000/svg" viewBox="0 0 512 512"><path d="M512 122c0-19-16-35-36-35h-91l-47-66c-3-4-7-6-12-6h-142c-4 0-9 2-12 6l-47 66h-89c-20 0-36 16-36 35v275c0 20 16 36 36 36h440c20 0 36-16 36-36zm-36 282h-440c-4 0-7-3-7-7v-275c0-3 3-6 7-6h96c5 0 9-3 12-6l48-66h126l47 65c3 4 7 7 12 7h99c4 0 7 2 7 6v275c0 4-3 7-7 7zm-220-31c71 0 129-58 129-129s-58-129-129-129-129 58-129 129 58 129 129 129zm0-230c56 0 101 45 101 101s-45 101-101 101-101-45-101-101 45-101 101-101zm-51 114h38v38c0 7 6 13 13 13s13-6 13-13v-38h38c7 0 13-6 13-13s-6-12-13-12h-38v-39c0-7-6-12-13-12s-13 5-13 12v38h-38c-7 0-13 6-13 13s6 13 13 13z"/></svg>