<?xml version="1.0" encoding="UTF-8" standalone="no"?>
<svg width="32px" height="32px" viewBox="0 0 32 32" version="1.1" xmlns="http://www.w3.org/2000/svg" xmlns:xlink="http://www.w3.org/1999/xlink">
    <!-- Generator: Sketch 3.7.2 (28276) - http://www.bohemiancoding.com/sketch -->
    <title>add-to-collections-new-ui</title>
    <desc>Created with Sketch.</desc>
    <defs>
        <polygon id="path-1" points="8.20728 13.1526316 -8.36068251e-13 13.1526316 -8.36068251e-13 0.676973684 15.2888 0.676973684 15.2888 13.1526316 8.20728 13.1526316 8.20728 2.75222684 -1.52034782e-05 2.75222684 -1.52034782e-05 13.1528637 8.20728 13.1528637"></polygon>
    </defs>
    <g id="Page-1" stroke="none" stroke-width="1" fill="none" fill-rule="evenodd">
        <g id="577-585" transform="translate(-312.000000, -52.000000)">
            <g id="add-to-collections-new-ui" transform="translate(312.000000, 52.000000)">
                <rect id="Rectangle-67" fill="#000000" x="0" y="0" width="32" height="32" rx="100"></rect>
                <g id="Page-1" transform="translate(8.533333, 8.533333)">
                    <path d="M12.1136,10.8171884 L8.488,10.8171884 C6.7376,10.8171884 5.3128,9.44003053 5.3128,7.74643579 L5.3128,3.84397263 C5.3128,2.15115158 6.7376,0.773993684 8.488,0.773993684 L12.1136,0.773993684 C13.864,0.773993684 15.2888,2.15115158 15.2888,3.84397263 L15.2888,7.74643579 C15.2888,9.44003053 13.864,10.8171884 12.1136,10.8171884" id="Fill-1" fill="#FFFFFF"></path>
                    <g id="Group-5" transform="translate(0.000000, 0.096788)">
                        <mask id="mask-2" fill="white">
                            <use xlink:href="#path-1"></use>
                        </mask>
                        <g id="Clip-4"></g>
                    </g>
                    <path d="M7.60808,11.6233674 C7.80088,11.6496726 8.00168,11.6527674 8.20728,11.63652 C8.15688,11.7610832 7.83688,11.9428989 7.30888,12.2283884 L4.55048,13.1691884 C4.32488,13.2233463 4.10008,13.2496516 3.87928,13.2496516 C2.66968,13.2496516 1.59528,12.4705516 1.29848,11.3107989 L0.07768,6.53407263 C-0.27272,5.16233053 0.59528,3.77124632 2.01288,3.43237263 L3.61848,3.07106211 C3.72808,3.04630421 4.49288,2.84901474 4.49288,2.84901474 C4.40248,2.96506737 4.19688,3.11593579 4.20808,3.42540947 L4.20808,8.49690947 C4.20808,9.86246211 5.17368,11.0508411 6.54568,11.3734674 L7.60808,11.6233674 Z" id="Fill-3" fill="#FFFFFF"></path>
                    <path d="M10.48,8.38526684 L10.48,8.38526684 C10.1664,8.38526684 9.912,8.13923526 9.912,7.83595105 L9.912,3.24800368 C9.912,2.94471947 10.1664,2.69868789 10.48,2.69868789 L10.48,2.69868789 C10.7936,2.69868789 11.048,2.94471947 11.048,3.24800368 L11.048,7.83595105 C11.048,8.13923526 10.7936,8.38526684 10.48,8.38526684" id="Fill-6" fill="#000000"></path>
                    <path d="M13.32576,5.69238158 L13.32576,5.69238158 C13.32576,5.98792895 13.07776,6.22777105 12.77216,6.22777105 L7.99936,6.22777105 C7.69376,6.22777105 7.44576,5.98792895 7.44576,5.69238158 L7.44576,5.69238158 C7.44576,5.39683421 7.69376,5.15699211 7.99936,5.15699211 L12.77216,5.15699211 C13.07776,5.15699211 13.32576,5.39683421 13.32576,5.69238158" id="Fill-8" fill="#000000"></path>
                </g>
            </g>
        </g>
    </g>
</svg>