<svg xmlns="http://www.w3.org/2000/svg" viewBox="0 0 512 512"><path d="M386 408h-363c-7 0-11-5-11-12v-279c0-7 4-12 11-12h93l42-60c5-3 7-5 12-5h114c5 0 7 2 9 5l51 63h91c7 0 12 4 12 11v114c0 7-5 12-12 12s-11-5-11-12v-102h-84c-5 0-7-2-10-5l-51-63h-104l-42 61c-3 2-7 5-10 5h-88v256h351c7 0 12 4 12 11s-5 12-12 12zm49 0c-7 0-11-5-11-12v-114c0-7 4-11 11-11s12 4 12 11v114c0 7-7 12-12 12zm54-58h-110c-7 0-11-5-11-12s4-12 11-12h110c7 0 11 5 11 12s-4 12-11 12zm-261 0c-56 0-102-47-102-103s46-102 102-102 102 46 102 102-44 103-102 103zm0-182c-42 0-79 35-79 79s35 79 79 79 79-35 79-79-35-79-79-79z"/></svg>