<?xml version="1.0" encoding="UTF-8" standalone="no"?>
<svg width="32px" height="32px" viewBox="0 0 32 32" version="1.1" xmlns="http://www.w3.org/2000/svg" xmlns:xlink="http://www.w3.org/1999/xlink">
    <!-- Generator: Sketch 3.7.2 (28276) - http://www.bohemiancoding.com/sketch -->
    <title>add-photo-new-ui</title>
    <desc>Created with Sketch.</desc>
    <defs>
        <polygon id="path-1" points="6.16061333 12.0888889 12.3211636 12.0888889 12.3211636 0.517404444 0 0.517404444 0 12.0888889 6.16061333 12.0888889 12.3212267 12.0888889 12.3212267 2.76472889 6.3030303e-05 2.76472889 6.3030303e-05 12.0888889 6.16061333 12.0888889"></polygon>
    </defs>
    <g id="Page-1" stroke="none" stroke-width="1" fill="none" fill-rule="evenodd">
        <g id="577-585" transform="translate(-52.000000, -52.000000)">
            <g id="add-photo-new-ui" transform="translate(52.000000, 52.000000)">
                <rect id="Rectangle-67" fill="#040404" x="0" y="0" width="32" height="32" rx="100"></rect>
                <g id="Page-1" transform="translate(10.000000, 9.000000)">
                    <g id="Group-3" transform="translate(0.000000, 0.087040)">
                        <mask id="mask-2" fill="white">
                            <use xlink:href="#path-1"></use>
                        </mask>
                        <g id="Clip-2"></g>
                    </g>
                    <path d="M10.4366206,12.1759289 L1.88466909,12.1759289 C0.845299394,12.1759289 6.30303039e-05,11.3411911 6.30303039e-05,10.3154489 L6.30303039e-05,4.71224889 C6.30303039e-05,3.68650667 0.845299394,2.85176889 1.88466909,2.85176889 L10.4366206,2.85176889 C11.4759903,2.85176889 12.3212267,3.68650667 12.3212267,4.71224889 L12.3212267,8.26094222 C12.3212267,8.27726222 12.3205964,8.29358222 12.3187055,8.30929778 C12.3205964,8.32440889 12.3212267,8.34072889 12.3212267,8.35704889 L12.3212267,10.3154489 C12.3212267,11.3411911 11.4759903,12.1759289 10.4366206,12.1759289" id="Fill-1" fill="#FFFFFF"></path>
                    <path d="M6.27933091,5.87767822 C5.43850667,5.87767822 4.75462788,6.50811378 4.75462788,7.283616 C4.75462788,8.05851378 5.43850667,8.68894933 6.27933091,8.68894933 C7.12015515,8.68894933 7.80466424,8.05851378 7.80466424,7.283616 C7.80466424,6.50811378 7.12015515,5.87767822 6.27933091,5.87767822 M6.27933091,9.595616 C4.91724606,9.595616 3.80917333,8.55838933 3.80917333,7.283616 C3.80917333,6.00823822 4.91724606,4.97101156 6.27933091,4.97101156 C7.64204606,4.97101156 8.75011879,6.00823822 8.75011879,7.283616 C8.75011879,8.55838933 7.64204606,9.595616 6.27933091,9.595616" id="Fill-4" fill="#020202"></path>
                    <path d="M0.947597576,4.61154844 L0.0021430303,4.61154844 L0.0021430303,1.76703289 C0.0021430303,1.12571733 0.540421818,0.604686222 1.2028703,0.604686222 L2.81770667,0.604686222 C3.47952485,0.604686222 4.01843394,1.12571733 4.01843394,1.76703289 L4.01843394,3.114944 L3.07297939,3.114944" id="Fill-6" fill="#FFFFFF"></path>
                </g>
            </g>
        </g>
    </g>
</svg>