<?xml version="1.0" encoding="UTF-8" standalone="no"?>
<svg width="30px" height="29px" viewBox="0 0 30 29" version="1.1" xmlns="http://www.w3.org/2000/svg" xmlns:xlink="http://www.w3.org/1999/xlink">
    <!-- Generator: Sketch 3.7.2 (28276) - http://www.bohemiancoding.com/sketch -->
    <title>address-book-new-ui</title>
    <desc>Created with Sketch.</desc>
    <defs></defs>
    <g id="Page-1" stroke="none" stroke-width="1" fill="none" fill-rule="evenodd">
        <g id="577-585" transform="translate(-469.000000, -158.000000)" fill="#000000">
            <g id="address-book-new-ui" transform="translate(469.000000, 157.000000)">
                <g id="Group-3" transform="translate(1.590643, 0.639280)">
                    <path d="M6.63123275,2.54200702 C4.30094035,2.54200702 2.40648421,4.43646316 2.40648421,6.76675556 L2.40648421,22.8163462 C2.40648421,25.145048 4.30094035,27.0410947 6.63123275,27.0410947 L22.0731977,27.0410947 C24.4018994,27.0410947 26.2979462,25.145048 26.2979462,22.8163462 L26.2979462,6.76675556 C26.2979462,4.43646316 24.4018994,2.54200702 22.0731977,2.54200702 L6.63123275,2.54200702 Z M22.0731977,28.631738 L6.63123275,28.631738 C3.42449591,28.631738 0.815840936,26.023083 0.815840936,22.8163462 L0.815840936,6.76675556 C0.815840936,3.56001871 3.42449591,0.951363743 6.63123275,0.951363743 L22.0731977,0.951363743 C25.2799345,0.951363743 27.8885895,3.56001871 27.8885895,6.76675556 L27.8885895,22.8163462 C27.8885895,26.023083 25.2799345,28.631738 22.0731977,28.631738 L22.0731977,28.631738 Z" id="Fill-1"></path>
                </g>
                <path d="M15.9926456,16.5807064 C13.8500491,16.5807064 11.9953591,18.174531 11.5817918,20.3696187 L11.6963181,20.4905076 L20.2905637,20.4905076 C20.338283,20.4905076 20.3685053,20.461876 20.3828211,20.4459696 C19.9899322,18.174531 18.1352421,16.5807064 15.9926456,16.5807064 M20.2905637,22.0811509 L11.6963181,22.0811509 C11.1857216,22.0811509 10.7053474,21.8536889 10.3792655,21.4608 C10.0579556,21.072683 9.92593216,20.5684491 10.0181895,20.0753497 C10.573324,17.1294784 13.0849497,14.9900632 15.9926456,14.9900632 C18.9003415,14.9900632 21.4119673,17.1294784 21.9671018,20.0753497 C22.0593591,20.5668585 21.9289263,21.072683 21.6076164,21.4608 C21.2815345,21.8536889 20.8011602,22.0811509 20.2905637,22.0811509" id="Fill-4"></path>
                <path d="M16.139462,9.50584327 C15.2836959,9.50584327 14.5885848,10.2009544 14.5885848,11.0567205 C14.5885848,11.9124865 15.2836959,12.6075977 16.139462,12.6075977 C16.9952281,12.6075977 17.6903392,11.9124865 17.6903392,11.0567205 C17.6903392,10.2009544 16.9952281,9.50584327 16.139462,9.50584327 M16.139462,14.1982409 C14.4072515,14.1982409 12.9979415,12.788931 12.9979415,11.0567205 C12.9979415,9.32450994 14.4072515,7.9152 16.139462,7.9152 C17.8716725,7.9152 19.2809825,9.32450994 19.2809825,11.0567205 C19.2809825,12.788931 17.8716725,14.1982409 16.139462,14.1982409" id="Fill-6"></path>
                <path d="M2.38596491,7.88259181 L0.795321637,7.88259181 C0.356304094,7.88259181 0,7.52628772 0,7.08727018 C0,6.64825263 0.356304094,6.29194854 0.795321637,6.29194854 L2.38596491,6.29194854 C2.82498246,6.29194854 3.18128655,6.64825263 3.18128655,7.08727018 C3.18128655,7.52628772 2.82498246,7.88259181 2.38596491,7.88259181" id="Fill-8"></path>
                <path d="M2.38596491,11.0638784 L0.795321637,11.0638784 C0.356304094,11.0638784 0,10.7075743 0,10.2685567 C0,9.82953918 0.356304094,9.47323509 0.795321637,9.47323509 L2.38596491,9.47323509 C2.82498246,9.47323509 3.18128655,9.82953918 3.18128655,10.2685567 C3.18128655,10.7075743 2.82498246,11.0638784 2.38596491,11.0638784" id="Fill-10"></path>
                <path d="M2.38596491,14.2451649 L0.795321637,14.2451649 C0.356304094,14.2451649 0,13.8888608 0,13.4498433 C0,13.0108257 0.356304094,12.6545216 0.795321637,12.6545216 L2.38596491,12.6545216 C2.82498246,12.6545216 3.18128655,13.0108257 3.18128655,13.4498433 C3.18128655,13.8888608 2.82498246,14.2451649 2.38596491,14.2451649" id="Fill-12"></path>
                <path d="M2.38596491,17.4264515 L0.795321637,17.4264515 C0.356304094,17.4264515 0,17.0701474 0,16.6311298 C0,16.1921123 0.356304094,15.8358082 0.795321637,15.8358082 L2.38596491,15.8358082 C2.82498246,15.8358082 3.18128655,16.1921123 3.18128655,16.6311298 C3.18128655,17.0701474 2.82498246,17.4264515 2.38596491,17.4264515" id="Fill-14"></path>
                <path d="M2.38596491,20.607738 L0.795321637,20.607738 C0.356304094,20.607738 0,20.2514339 0,19.8124164 C0,19.3733988 0.356304094,19.0170947 0.795321637,19.0170947 L2.38596491,19.0170947 C2.82498246,19.0170947 3.18128655,19.3733988 3.18128655,19.8124164 C3.18128655,20.2514339 2.82498246,20.607738 2.38596491,20.607738" id="Fill-16"></path>
                <path d="M2.38596491,23.7890246 L0.795321637,23.7890246 C0.356304094,23.7890246 0,23.4327205 0,22.9937029 C0,22.5546854 0.356304094,22.1983813 0.795321637,22.1983813 L2.38596491,22.1983813 C2.82498246,22.1983813 3.18128655,22.5546854 3.18128655,22.9937029 C3.18128655,23.4327205 2.82498246,23.7890246 2.38596491,23.7890246" id="Fill-18"></path>
            </g>
        </g>
    </g>
</svg>