<?xml version="1.0" encoding="UTF-8" standalone="no"?>
<svg width="25px" height="32px" viewBox="0 0 25 32" version="1.1" xmlns="http://www.w3.org/2000/svg" xmlns:xlink="http://www.w3.org/1999/xlink">
    <!-- Generator: Sketch 3.7.1 (28215) - http://www.bohemiancoding.com/sketch -->
    <title>been-here-new-fab</title>
    <desc>Created with Sketch.</desc>
    <defs></defs>
    <g id="Page-1" stroke="none" stroke-width="1" fill="none" fill-rule="evenodd">
        <g id="577-585" transform="translate(-625.000000, -52.000000)" fill="#000000">
            <g id="been-here-new-fab" transform="translate(624.500000, 52.000000)">
                <path d="M25.2706667,15.9373333 L20.8333333,8.68666667 L23.9586667,2.37466667 C24.2093333,1.87466667 24.084,1.312 23.7706667,0.874666667 C23.396,0.5 22.8333333,0.312 22.3333333,0.5 L20.396,1.06266667 C14.4586667,2.81333333 8.208,2.93733333 2.27066667,1.31333333 C1.83333333,1.188 1.396,1.43866667 1.27066667,1.876 L1.27066667,2.064 L1.27066667,2.12666667 L1.27066667,30.8146667 C1.27066667,31.252 1.64533333,31.5653333 2.08266667,31.5653333 C2.52,31.5653333 2.83333333,31.2533333 2.83333333,30.8146667 L2.83333333,18.1266667 C3.396,18.3146667 4.14533333,18.5013333 5.14533333,18.5013333 L5.14533333,18.5013333 C5.58266667,18.5013333 5.896,18.1893333 5.95733333,17.7506667 C5.95733333,17.3133333 5.58266667,16.9386667 5.20666667,16.9386667 C4.01866667,16.876 3.26933333,16.6266667 2.832,16.4386667 L2.832,3.064 C8.76933333,4.50133333 14.9573333,4.31466667 20.832,2.564 L22.332,2.12666667 L19.2066667,8.43866667 C19.144,8.62666667 19.144,8.93866667 19.2693333,9.18933333 L23.3946667,15.8773333 C21.4573333,16.3773333 19.4573333,16.6893333 17.52,16.8773333 C14.9573333,17.0653333 11.3946667,17.3146667 8.76933333,17.128 C8.332,17.0653333 7.95733333,17.44 7.95733333,17.8786667 C7.89466667,18.316 8.26933333,18.6906667 8.64533333,18.6906667 C9.33333333,18.7533333 10.0826667,18.7533333 10.896,18.7533333 C13.1466667,18.7533333 15.708,18.5653333 17.6466667,18.4413333 C20.0213333,18.2533333 22.4586667,17.7533333 24.8346667,17.0666667 C25.0853333,17.004 25.272,16.816 25.3346667,16.6293333 C25.46,16.3786667 25.3973333,16.1293333 25.272,15.9413333 L25.2706667,15.9373333 Z" id="Shape"></path>
            </g>
        </g>
    </g>
</svg>