<svg xmlns="http://www.w3.org/2000/svg" viewBox="0 0 512 512"><path d="M255 479c-4 0-8-1-12-5l-140-156c-36-38-55-89-53-145 2-54 25-108 63-145 38-38 89-59 142-59 54 0 104 21 142 59 6 5 6 15 0 21-5 6-15 6-21 0-32-32-75-50-121-50-45 0-88 18-120 50-33 33-52 78-54 125-2 49 14 93 46 124l1 3 127 140 128-144 2-2c37-39 52-95 41-152-2-8 3-16 12-18 8-2 16 3 18 12 13 68-6 136-51 182h-1l-138 155c-2 4-6 5-11 5zm-1-220c-3 0-7-1-10-4l-75-73c-6-5-6-15 0-21s15-6 22-1l63 63 182-181c6-5 15-5 21 0 6 6 6 16 0 22l-192 191c-3 3-7 4-11 4z"/></svg>