<svg xmlns="http://www.w3.org/2000/svg" viewBox="0 0 512 512"><path d="M449 63c-3-4-7-6-12-6h-231l-3-22c-4-38-41-67-84-67h-44c-9 0-16 7-16 16s7 17 16 17h44c26 0 50 17 52 37l2 19h-46c-5 0-10 2-13 5-3 4-4 9-4 13l53 391c2 8 9 14 17 14h204c8 0 15-6 16-14l53-391c1-4-1-9-4-12zm-31 27l-7 56h-196l-6-56h209zm-242 0l6 56h-29l-8-56h31zm193 357h-175l-37-269h28l24 233c1 8 9 15 17 15h2c9-1 15-10 14-18l-24-229h188zm-74-71c-9 0-16 7-16 17 0 9 7 16 16 16s16-7 16-16c0-10-7-17-16-17zm53-71c-9 0-16 8-16 17s7 16 16 16 17-7 17-16-8-17-17-17zm-54-37c0-9-8-16-17-16s-16 7-16 16 7 17 16 17 17-8 17-17zm54-51c-9 0-16 7-16 16s7 16 16 16 17-7 17-16-8-16-17-16z"/></svg>