<svg xmlns="http://www.w3.org/2000/svg" viewBox="0 0 512 512"><path d="M449 62c-3-3-7-5-12-5h-231l-3-22c-4-38-41-67-84-67h-44c-9 0-16 7-16 16s7 17 16 17h44c26 0 49 17 51 37l3 19h-47c-4 0-9 2-12 5-3 4-5 9-4 14l53 390c2 8 9 14 16 14h204c9 0 16-6 17-14l53-391c1-4-1-9-4-13zm-296 84l-8-56h31l6 56zm108 122c0-9 7-16 16-16s17 7 17 16-8 17-17 17-16-7-16-17zm34 141c-9 0-16-8-16-17s7-16 16-16 17 7 17 16c0 10-8 17-17 17zm53-71c-9 0-16-7-16-16s7-17 16-17 17 8 17 17-8 16-17 16zm0-89c-9 0-16-7-16-16s7-16 16-16 17 7 17 16-8 16-17 16zm-133-103l-6-56h209l-7 56z"/></svg>