<svg xmlns="http://www.w3.org/2000/svg" viewBox="0 0 512 512"><path d="M407 462c-56 0-102-46-102-102s46-101 102-101 101 45 101 101-45 102-101 102zm0-182c-44 0-80 36-80 80s36 80 80 80 79-36 79-80-35-80-79-80zm-302 182c-56 0-101-46-101-102s45-101 101-101 102 45 102 101-46 102-102 102zm0-182c-44 0-79 36-79 80s35 80 79 80 80-36 80-80-36-80-80-80zm302 121c-23 0-41-18-41-41s18-41 41-41 41 18 41 41-18 41-41 41zm0-61c-11 0-20 9-20 20s9 19 20 19c10 0 19-8 19-19s-8-20-19-20zm-302 61c-23 0-41-18-41-41s19-41 41-41c23 0 41 18 41 41s-18 41-41 41zm0-61c-10 0-19 9-19 20s8 19 19 19 20-8 20-19-9-20-20-20zm158 24c-4 0-7-1-11-2-10-3-19-9-25-19l-83-144c-11-20-4-45 15-56 0 0 105-60 107-61 9-5 20-6 31-4 10 3 19 10 25 20l23 40h69c22 0 41 18 41 41 0 21-18 37-43 37h-94c-21 0-28-9-34-19l-13-24-36 20 62 109c12 20 5 45-14 56-6 4-13 6-20 6zm23-265c-3 0-7 0-10 2-2 1-106 60-106 60-9 6-13 18-7 27l83 144c2 5 7 8 12 9 5 2 10 1 14-2 9-5 12-17 7-26l-73-128 73-42 24 43c4 7 5 8 15 8h94c8 0 21-3 21-15 0-11-9-20-20-20h-81l-29-50c-2-5-7-8-12-9-2-1-3-1-5-1zm76 0c-31 0-56-26-56-57s25-56 56-56 56 25 56 56-26 57-56 57zm0-91c-19 0-35 16-35 34 0 19 16 35 35 35s34-16 34-35c0-18-15-34-34-34zm45 458c-58 0-105-48-105-106 0-7 0-14 2-21-4 9-10 17-20 22-6 5-13 7-21 7-4 0-8-1-12-2-11-3-21-10-27-21l-83-144c-6-11-8-23-5-34 4-12 11-22 21-27 1-1 105-60 107-61 10-6 22-7 34-4 11 3 21 11 27 21l22 38h66c25 0 45 20 45 45 0 23-19 41-46 41h-95c-22 0-30-11-36-21l-12-21-29 17 61 105c5 9 7 19 6 28 13-42 53-73 100-73 58 0 105 47 105 105s-47 106-105 106zm0-204c-54 0-98 44-98 98s44 98 98 98 97-44 97-98-43-98-97-98zm-121-181c-6 0-13 1-18 5-2 1-103 58-107 60-9 5-15 13-17 22-3 10-2 20 3 29l83 144c6 9 13 15 23 18 3 1 6 1 10 1 6 0 12-2 18-5 17-10 23-33 13-51l-64-112 42-24 15 27c6 10 12 17 30 17h95c22 0 39-14 39-34s-17-37-38-37h-71l-24-42c-5-8-13-15-22-17-3-1-7-1-10-1zm-181 385c-58 0-105-48-105-106s47-105 105-105 105 47 105 105-47 106-105 106zm0-204c-54 0-97 44-97 98s43 98 97 98 98-44 98-98-44-98-98-98zm302 182c-46 0-84-38-84-84s38-84 84-84 83 38 83 84-37 84-83 84zm0-160c-42 0-76 34-76 76s34 76 76 76 76-34 76-76-34-76-76-76zm-302 160c-46 0-83-38-83-84s37-84 83-84 84 38 84 84-38 84-84 84zm0-160c-42 0-76 34-76 76s34 76 76 76 76-34 76-76-34-76-76-76zm302 121c-25 0-45-20-45-45s20-45 45-45 45 21 45 45c0 25-20 45-45 45zm0-82c-21 0-37 16-37 37s16 38 37 38c20 0 37-17 37-38 0-20-16-37-37-37zm-302 82c-24 0-44-20-44-45s20-45 44-45c25 0 45 21 45 45 0 25-20 45-45 45zm0-82c-20 0-37 16-37 37s17 38 37 38c21 0 37-17 38-38 0-20-17-37-38-37zm302 60c-13 0-24-10-24-23s11-23 24-23 23 10 23 23c0 12-11 23-23 23zm0-39c-9 0-16 7-16 16s7 16 16 16c8 0 15-8 15-16 0-9-7-16-15-16zm-302 39c-13 0-23-10-23-23s11-23 23-23c13 0 24 10 24 23-1 12-11 23-24 23zm0-39c-8 0-15 7-15 16s7 16 15 16c9 0 16-8 16-16 0-9-7-16-16-16zm158 2c-2 0-4 0-6-1-6-1-11-5-15-11l-83-144c-3-5-3-12-2-18 2-6 6-11 11-14 36-20 104-59 106-60 4-2 8-3 12-3 2 0 4 0 6 2 6 1 11 5 14 10l28 49h79c13 0 24 10 24 23s-13 19-25 19h-95c-11 0-13-2-17-9l-23-40-66 38 72 124c3 5 3 12 2 18-2 6-5 11-11 14-3 2-7 3-11 3zm23-244c-3 0-5 1-8 2-2 2-96 55-106 61-4 2-7 5-8 9s0 9 2 12l83 145c2 3 5 6 10 7 4 1 8 1 11-1 4-2 6-6 8-10 1-4 0-8-2-12l-75-130 79-46 26 46c4 6 4 6 11 6h95c1 0 17 0 17-11 0-9-7-16-16-16h-83l-30-53c-3-4-6-7-10-7l-1-1-3-1zm76 0c-33 0-60-26-60-60 0-33 27-59 60-59s59 26 59 59c0 34-26 60-59 60zm0-112c-29 0-52 24-52 52 0 29 23 53 52 53s52-24 52-53c0-28-24-52-52-52zm0 91c-22 0-39-18-39-39s17-38 39-38c21 0 38 17 38 38s-17 39-38 39zm0-69c-17 0-31 13-31 30s14 31 31 31 30-14 30-31-13-30-30-30z"/></svg>