<svg xmlns="http://www.w3.org/2000/svg" viewBox="0 0 512 512"><path d="M503 109h-344c-4-9-12-17-22-19l1-6c0-11-9-19-19-19h-28c-10 0-19 8-19 19 0 2 0 4 1 5h-49c-13 0-24 11-24 24 0 6 3 12 7 16-4 5-7 10-7 17 0 6 3 12 7 16-4 4-7 10-7 17 0 6 3 12 7 16-4 4-7 10-7 16 0 13 11 23 24 23h107c12 0 23-7 28-18h16v10c0 4 4 8 9 8h34v20c0 71 57 128 127 128h3c71 0 128-57 128-128v-20h27c5 0 8-4 8-8v-108c1-5-3-9-8-9zm-412-29h28c2 0 4 2 4 4s-2 4-4 4h-28c-2 0-4-2-4-4s2-4 4-4zm55 124c0 9-7 16-15 16h-107c-5 0-9-4-9-9 0-4 4-8 9-8h12c5 0 8-3 8-7v-1c0-4-3-8-8-8h-12c-5 0-9-4-9-8 0-5 4-9 9-9h12c5 0 8-3 8-7v-1c0-4-3-8-8-8h-12c-5 0-9-3-9-8s4-8 9-8h12c5 0 8-4 8-8s-3-8-8-8h-12c-5 0-9-4-9-8 0-5 4-9 9-9h107c8 1 15 8 15 17zm15-6v-71h14v71zm32 19v-90h25v90zm266 38c0 61-50 111-111 111h-3c-61 0-110-50-110-111v-128h223zm35-38h-18v-90h18zm-281-15c0 4-4 7-8 7s-7-3-7-7 3-8 7-8 8 4 8 8zm114 3c0 6-5 11-11 11s-11-5-11-11 5-11 11-11 11 5 11 11zm65 0c0 6-5 11-11 11s-12-5-12-11 6-11 12-11 11 5 11 11zm-74 63c0 1 1 3 2 4 1 2 5 2 7 0 6-6 15-8 23-8s17 3 23 8c1 1 2 1 3 1 2 0 3 0 4-1 2-3 2-6 0-8-8-7-19-11-30-11s-22 4-30 11c-1 1-1 2-2 4z"/></svg>