<svg xmlns="http://www.w3.org/2000/svg" viewBox="0 0 512 512"><path d="M454 164h-52v-52c0-25-21-45-46-45s-45 20-45 45v52h-52c-25 0-45 20-45 45s20 46 45 46h52v52c0 25 21 45 46 45 24 0 45-20 45-45v-52h52c25 0 45-20 45-45s-20-46-45-46zm-91 71v72c0 4-3 6-6 6-4 0-7-3-7-6v-72c0-10-8-19-19-19h-72c-4 0-6-3-6-6 0-4 2-7 6-7h72c10 0 19-8 19-19v-72c0-4 3-6 6-6 4 0 7 3 7 6v72c0 10 8 19 19 19h72c3 0 6 3 6 6 0 4-2 7-6 7h-72c-10 0-19 8-19 19zm-8 129c-11 0-20 9-20 20v56l-112-133-1-1c-8-7-17-11-27-11-11 0-20 4-28 11l-2 2-110 132v-433h280v29c0 11 9 20 20 20s20-9 20-20v-30c0-22-18-40-40-40h-281c-22 0-40 18-40 40v436c0 16 9 30 24 37 6 2 11 3 16 3 10 0 20-4 27-11h1l2-2 111-132 111 133 2 1c7 7 17 11 27 11 6 0 11-1 16-3 15-7 24-21 24-37v-58c0-11-9-20-20-20z"/></svg>