<?xml version="1.0" encoding="UTF-8" standalone="no"?>
<svg width="32px" height="31px" viewBox="0 0 32 31" version="1.1" xmlns="http://www.w3.org/2000/svg" xmlns:xlink="http://www.w3.org/1999/xlink">
    <!-- Generator: Sketch 3.7.2 (28276) - http://www.bohemiancoding.com/sketch -->
    <title>book--table-new-ui</title>
    <desc>Created with Sketch.</desc>
    <defs>
        <polygon id="path-1" points="31.5149474 0.165794737 31.5149474 30.4210526 0 30.4210526 0 0.165625731 31.5149474 0.165625731 0.000336842105 0.165794737 0.000336842105 30.4212216 31.5152842 30.4212216 31.5152842 0.165794737"></polygon>
    </defs>
    <g id="Page-1" stroke="none" stroke-width="1" fill="none" fill-rule="evenodd">
        <g id="577-585" transform="translate(-52.000000, -105.000000)">
            <g id="book--table-new-ui" transform="translate(52.000000, 105.000000)">
                <g id="Group-3" transform="translate(0.000000, 0.524264)">
                    <mask id="mask-2" fill="white">
                        <use xlink:href="#path-1"></use>
                    </mask>
                    <g id="Clip-2"></g>
                </g>
                <path d="M6.57886316,3.2251462 C4.34391579,3.2251462 2.52665263,5.05040936 2.52665263,7.2914269 L2.52665263,24.344117 C2.52665263,26.5851345 4.34391579,28.4103977 6.57886316,28.4103977 L24.9350737,28.4103977 C27.1700211,28.4103977 28.9889684,26.5851345 28.9889684,24.344117 L28.9889684,7.2914269 C28.9889684,5.05040936 27.1700211,3.2251462 24.9350737,3.2251462 L6.57886316,3.2251462 Z M24.9350737,30.9454854 L6.57886316,30.9454854 C2.95107368,30.9454854 0.000336842104,27.9828129 0.000336842104,24.344117 L0.000336842104,7.2914269 C0.000336842104,3.65104094 2.95107368,0.69005848 6.57886316,0.69005848 L24.9350737,0.69005848 C28.5628632,0.69005848 31.5152842,3.65104094 31.5152842,7.2914269 L31.5152842,24.344117 C31.5152842,27.9828129 28.5628632,30.9454854 24.9350737,30.9454854 L24.9350737,30.9454854 Z" id="Fill-1" fill="#000000"></path>
                <path d="M10.5825684,18.421138 L7.85751579,18.421138 C7.40109474,18.421138 7.03056842,18.0493251 7.03056842,17.5896292 L7.03056842,15.0477813 C7.03056842,14.5880854 7.40109474,14.2162725 7.85751579,14.2162725 L10.5825684,14.2162725 C11.0406737,14.2162725 11.4112,14.5880854 11.4112,15.0477813 L11.4112,17.5896292 C11.4112,18.0493251 11.0406737,18.421138 10.5825684,18.421138" id="Fill-4" fill="#000000"></path>
                <path d="M17.2087579,18.3868298 L14.4820211,18.3868298 C14.0256,18.3868298 13.6550737,18.015017 13.6550737,17.5570111 L13.6550737,15.011783 C13.6550737,14.5537772 14.0256,14.1819643 14.4820211,14.1819643 L17.2087579,14.1819643 C17.6651789,14.1819643 18.0357053,14.5537772 18.0357053,15.011783 L18.0357053,17.5570111 C18.0357053,18.015017 17.6651789,18.3868298 17.2087579,18.3868298" id="Fill-6" fill="#000000"></path>
                <path d="M23.6675368,18.4851912 L20.8801684,18.4851912 C20.4405895,18.4851912 20.0835368,18.1268988 20.0835368,17.6857936 L20.0835368,15.0797234 C20.0835368,14.6386181 20.4405895,14.2803257 20.8801684,14.2803257 L23.6675368,14.2803257 C24.1071158,14.2803257 24.4641684,14.6386181 24.4641684,15.0797234 L24.4641684,17.6857936 C24.4641684,18.1268988 24.1071158,18.4851912 23.6675368,18.4851912" id="Fill-8" fill="#000000"></path>
                <path d="M10.5362526,24.404114 L7.95267368,24.404114 C7.45583158,24.404114 7.05330526,24.0001901 7.05330526,23.5033129 L7.05330526,21.1000497 C7.05330526,20.6031725 7.45583158,20.1992485 7.95267368,20.1992485 L10.5362526,20.1992485 C11.0330947,20.1992485 11.4339368,20.6031725 11.4339368,21.1000497 L11.4339368,23.5033129 C11.4339368,24.0001901 11.0330947,24.404114 10.5362526,24.404114" id="Fill-10" fill="#000000"></path>
                <path d="M17.2737684,24.403438 L14.4661895,24.403438 C14.0316632,24.403438 13.6796632,24.0502158 13.6796632,23.6141807 L13.6796632,20.9878298 C13.6796632,20.5517947 14.0316632,20.1985725 14.4661895,20.1985725 L17.2737684,20.1985725 C17.7082947,20.1985725 18.0602947,20.5517947 18.0602947,20.9878298 L18.0602947,23.6141807 C18.0602947,24.0502158 17.7082947,24.403438 17.2737684,24.403438" id="Fill-12" fill="#000000"></path>
                <polygon id="Fill-14" fill="#000000" points="29.0485895 4.41765146 29.0485895 2.72759298 2.10122105 2.72759298 2.10122105 4.41765146 2.10122105 11.1778854 30.7328 11.1778854 30.7328 4.41765146"></polygon>
            </g>
        </g>
    </g>
</svg>