<svg xmlns="http://www.w3.org/2000/svg" viewBox="0 0 512 512"><path d="M392 65c-20-56-73-97-136-97s-116 41-136 97c-14 4-24 16-24 31v32c0 15 10 27 25 30 9 25 23 47 43 63l28 227c0 18 14 32 32 32h64c18 0 32-14 32-32l28-227c20-16 34-38 43-63 15-3 25-15 25-30v-32c0-15-10-27-24-31zm-136-65c45 0 83 26 101 64h-202c18-38 56-64 101-64zm32 432c0 9-7 16-16 16h-32c-9 0-16-7-16-16l-29-190c19 9 39 14 61 14s42-5 61-14zm-32-208c-45 0-83-26-101-64h202c-18 38-56 64-101 64zm112-96h-224c-9 0-16-7-16-16s7-16 16-16h224c9 0 16 7 16 16s-7 16-16 16z"/></svg>