<svg xmlns="http://www.w3.org/2000/svg" viewBox="0 0 512 512"><path d="M288 0c-142 0-256 114-256 256 0 141 114 256 256 256s256-114 256-256-114-256-256-256zm0 480c-49 0-94-16-132-44 7-11 19-28 37-46 13-13 29-27 44-38 15 10 32 16 51 16s36-6 51-16c15 11 31 25 44 38 18 18 30 35 37 46-38 28-83 44-132 44zm-80-248c0-58 36-104 80-104 45 0 80 46 80 104s-36 104-80 104-80-46-80-104zm235 185c-6-11-17-29-36-48-13-13-29-26-43-37 22-25 36-60 36-100 0-75-50-136-112-136s-112 61-112 136c0 40 14 75 36 100-14 11-30 24-43 37-19 19-30 37-36 48-42-41-69-98-69-161 0-124 100-224 224-224s224 100 224 224c0 63-27 120-69 161z"/></svg>