<svg xmlns="http://www.w3.org/2000/svg" viewBox="0 0 512 512"><path d="M436 13h-105v-30h-30v30h-151v-30h-30v30h-90c-17 0-30 14-30 30v391c0 17 13 31 30 31h391c17 0 30-14 30-31v-391c0-16 2-30-15-30zm-15 407c0 8-6 14-14 14h-362c-8 0-15-6-15-14v-287h391zm0-316h-391v-46c0-8 7-15 15-15h75v30h30v-30h151v30h30v-30h76c8 0 14 7 14 15zm-30 90h-90v90h90zm-30 60h-30v-30h30zm30 60h-90v91h90zm-30 60h-30v-30h30zm-90-180h-90v90h90zm-30 60h-31v-30h31zm-91 60h-90v91h90zm-30 60h-30v-30h30zm151-60h-90v91h90zm-30 60h-31v-30h31zm-91-180h-90v90h90zm-30 60h-30v-30h30z"/></svg>