<svg xmlns="http://www.w3.org/2000/svg" viewBox="0 0 512 512"><path d="M497 317h-27c-7-97-78-176-171-195 3-7 6-14 6-22 0-27-22-49-49-49s-49 22-49 49c0 8 3 15 6 22-93 19-164 98-171 195h-27c-8 0-15 6-15 15 0 8 7 15 15 15h10l42 45c3 3 7 5 11 5h352c4 0 8-2 11-5l45-45h11c8 0 15-7 15-15 0-9-7-15-15-15zm-259-217c0-10 8-18 18-18s18 8 18 18c0 9-8 17-18 17s-18-8-18-17zm18 48c96 0 175 74 183 169h-366c8-95 87-169 183-169zm168 218h-339l-18-19h376zm-168-199c-55 0-106 27-137 73-5 7-3 17 4 22 3 1 6 2 9 2 5 0 10-2 13-7 25-37 66-59 111-59 9 0 15-7 15-16 0-8-6-15-15-15z"/></svg>