<svg xmlns="http://www.w3.org/2000/svg" viewBox="0 0 512 512"><path d="M463 209h-18v-176c0-27-22-49-49-49h-280c-27 0-49 22-49 49v176h-18c-27 0-49 22-49 49v191c0 8 7 15 15 15h481c9 0 16-7 16-15v-191c0-27-22-49-49-49zm-347-194h280c10 0 18 8 18 18v85c-45-6-91-1-133 17-61 18-129 10-183-23v-79c0-10 8-18 18-18zm-18 132c35 19 75 28 116 28 26 0 51-4 76-11 0-1 2-1 2-1 38-16 81-21 122-14v60h-316zm-49 92h414c10 0 18 8 18 19v106c0 10-8 19-19 19-10 0-19-9-19-19v-55c0-28-22-50-50-50-27 0-49 22-49 50v55c0 11-9 19-19 19-11 0-19-8-19-19l-1-55c0-27-22-50-50-50-27 0-49 23-49 50v56c0 10-9 19-19 19-11 0-19-9-19-19l-1-55c0-28-22-50-49-50-28 0-50 22-50 50v55c0 10-8 19-19 19-10 0-19-9-19-19v-107c0-11 9-19 19-19zm-19 194v-24c6 3 13 4 19 4 28 0 50-22 50-50v-54c0-11 9-19 19-19 11 0 19 8 19 19v55c0 27 23 50 50 50 28 0 50-23 50-50v-56c0-10 8-19 19-19 10 0 19 9 19 19v55c0 28 22 50 50 50 27 0 50-22 50-50v-55c0-11 8-19 18-19 11 0 19 8 19 19l1 55c0 27 22 50 50 50 6 0 13-2 19-4v24h-452zm113-367c0 8-7 15-15 15s-15-7-15-15c0-9 7-15 15-15s15 6 15 15zm74 41c0 8-7 15-16 15-8 0-15-7-15-15 0-9 7-15 15-15 9 0 16 6 16 15zm34-65c0 8-7 15-15 15-9 0-16-7-16-15 0-9 7-16 16-16 8 0 15 7 15 16zm70 48c0 9-7 16-16 16-8 0-15-7-15-16 0-8 7-15 15-15 9 0 16 7 16 15zm69-41c0 9-7 16-16 16-8 0-15-7-15-16 0-8 7-15 15-15 9 0 16 7 16 15z"/></svg>