<svg xmlns="http://www.w3.org/2000/svg" viewBox="0 0 512 512"><path d="M476 433h-440c-20 0-36-16-36-35v-275c0-20 16-36 36-36h88l48-66c3-4 7-6 12-6h142c4 0 9 3 12 7l47 65h91c20 0 36 16 36 36v275c0 20-16 35-36 35zm-440-317c-4 0-7 3-7 7v275c0 3 3 6 7 6h440c4 0 7-3 7-6v-275c0-4-3-7-7-7h-99c-5 0-9-2-12-6l-47-66h-127l-47 66c-3 4-8 6-12 6zm220 259c-72 0-130-59-130-130 0-72 59-130 130-130 72 0 130 58 130 130 0 71-58 130-130 130zm0-231c-56 0-101 45-101 101 0 55 45 101 101 101s101-46 101-101c0-56-45-101-101-101z"/></svg>