<svg xmlns="http://www.w3.org/2000/svg" viewBox="0 0 512 512"><path d="M460 194v-93c0-74-73-132-165-132h-84c-92 0-165 58-165 132v93c-30 27-46 66-46 109v56c0 19 12 34 29 39v36c0 59 98 59 98 0v-34h251v34c0 29 25 45 49 45 12 0 24-4 33-11 11-8 16-21 16-35v-34c20-2 36-19 36-40v-56c0-40-19-80-52-109zm-364 240c0 13-16 13-17 13-2 0-18 0-18-13v-34h35zm349 0c0 4-1 7-4 9-4 3-9 4-14 4-2 0-17 0-17-13v-34h35zm36-75c0 4-3 8-7 9h-435c-4-1-7-4-7-9v-56c0-37 14-68 40-90l6-4v-108c0-55 60-100 134-100h83c74 0 134 45 134 100v108l6 5c30 24 46 56 46 89v56zm-76-247c0-54-58-82-116-82h-66c-57 0-115 28-115 82v66c0 18 14 33 32 33h232c18 0 32-15 32-33v-66zm-33 67l-233-1v-66c0-33 44-50 84-50h66c41 0 84 19 84 50zm-288 81c-18 0-33 15-33 33s15 33 33 33 32-15 32-33-14-33-32-33zm313 33c0 18 14 33 32 33s33-15 33-33-15-33-33-33-32 15-32 33z"/></svg>