<?xml version="1.0" encoding="UTF-8" standalone="no"?>
<svg width="28px" height="26px" viewBox="0 0 28 26" version="1.1" xmlns="http://www.w3.org/2000/svg" xmlns:xlink="http://www.w3.org/1999/xlink">
    <!-- Generator: Sketch 3.7.2 (28276) - http://www.bohemiancoding.com/sketch -->
    <title>chat-with-us-new-ui</title>
    <desc>Created with Sketch.</desc>
    <defs>
        <polygon id="path-1" points="0.000511376278 26.1105499 27.8892894 26.1105499 27.8892894 0.719576038 0.000511376278 0.719576038"></polygon>
    </defs>
    <g id="Page-1" stroke="none" stroke-width="1" fill="none" fill-rule="evenodd">
        <g id="577-585" transform="translate(-574.000000, -159.000000)">
            <g id="chat-with-us-new-ui" transform="translate(574.000000, 158.000000)">
                <g id="Group-3" transform="translate(0.000000, 0.816646)">
                    <mask id="mask-2" fill="white">
                        <use xlink:href="#path-1"></use>
                    </mask>
                    <g id="Clip-2"></g>
                    <path d="M1.64803648,24.5124307 L13.9491773,24.5754032 L14.0198294,24.5754032 C17.305151,24.5754032 20.3938754,23.4234672 22.723858,21.3254077 C25.0492329,19.2319559 26.3394012,16.4442708 26.3532245,13.4768836 C26.3839428,7.32400926 20.870009,2.28928086 14.0612991,2.25549074 L13.990647,2.25549074 C10.7037896,2.25549074 7.61660101,3.40742677 5.28661841,5.50548625 C2.96124355,7.59893799 1.67261111,10.3866232 1.65725196,13.3524745 C1.64342873,16.1800934 3.34829405,18.7174245 4.78283838,20.34703 C5.04855163,20.6511411 5.0347284,21.1088437 4.75058418,21.3960598 L1.64803648,24.5124307 Z M14.0198294,26.1113179 L13.9414978,26.1113179 L1.42686476,26.0483454 C0.849360831,26.0452736 0.334829405,25.695085 0.112121773,25.155979 C-0.113657688,24.6076574 0.00921548822,23.9825401 0.425448373,23.5647713 L3.16398429,20.8124122 C1.15807969,18.3518768 0.109049944,15.7822915 0.121337262,13.3447949 C0.138232323,9.939672 1.60810269,6.75111308 4.25909147,4.36276571 C6.89011336,1.99438524 10.3996785,0.739542929 14.0689787,0.719576038 C21.7255135,0.757973906 27.9244652,6.48539983 27.8891392,13.4845631 C27.8722441,16.889686 26.4023737,20.0797809 23.751385,22.4665923 C21.1387941,24.8180777 17.6860578,26.1113179 14.0198294,26.1113179 L14.0198294,26.1113179 Z" id="Fill-1" fill="#000000" mask="url(#mask-2)"></path>
                </g>
                <path d="M10.9753393,14.0735864 C10.9753393,14.9674888 10.2503875,15.6909046 9.3580211,15.6909046 C8.46411874,15.6909046 7.74070292,14.9674888 7.74070292,14.0735864 C7.74070292,13.1796841 8.46411874,12.4562682 9.3580211,12.4562682 C10.2503875,12.4562682 10.9753393,13.1796841 10.9753393,14.0735864" id="Fill-4" fill="#000000"></path>
                <path d="M15.6242459,14.1456208 C15.6242459,15.0395232 14.8992942,15.762939 14.0069277,15.762939 C13.1130254,15.762939 12.3896095,15.0395232 12.3896095,14.1456208 C12.3896095,13.2517185 13.1130254,12.5283026 14.0069277,12.5283026 C14.8992942,12.5283026 15.6242459,13.2517185 15.6242459,14.1456208" id="Fill-6" fill="#000000"></path>
                <path d="M20.1699391,14.1456208 C20.1699391,15.0395232 19.4449873,15.762939 18.5526209,15.762939 C17.6587185,15.762939 16.9353027,15.0395232 16.9353027,14.1456208 C16.9353027,13.2517185 17.6587185,12.5283026 18.5526209,12.5283026 C19.4449873,12.5283026 20.1699391,13.2517185 20.1699391,14.1456208" id="Fill-8" fill="#000000"></path>
            </g>
        </g>
    </g>
</svg>