<?xml version="1.0" encoding="UTF-8" standalone="no"?>
<svg width="32px" height="32px" viewBox="0 0 32 32" version="1.1" xmlns="http://www.w3.org/2000/svg" xmlns:xlink="http://www.w3.org/1999/xlink">
    <!-- Generator: Sketch 3.7.2 (28276) - http://www.bohemiancoding.com/sketch -->
    <title>check-in-here-new-ui</title>
    <desc>Created with Sketch.</desc>
    <defs></defs>
    <g id="Page-1" stroke="none" stroke-width="1" fill="none" fill-rule="evenodd">
        <g id="577-585" transform="translate(-104.000000, -52.000000)">
            <g id="check-in-here-new-ui" transform="translate(104.000000, 52.000000)">
                <rect id="Rectangle-67" fill="#000000" x="0" y="0" width="32" height="32" rx="100"></rect>
                <g id="Page-1" transform="translate(11.000000, 9.000000)">
                    <path d="M5.14559375,14.1847619 L5.13046875,14.1847619 C4.82315625,14.179873 4.53715625,14.0234286 4.36321875,13.7664127 L0.94978125,8.71060317 C0.01478125,7.32425397 -0.24921875,5.53631746 0.24440625,3.92647619 C0.71671875,2.38857143 1.81671875,1.18380952 3.26321875,0.620888889 C4.08753125,0.30031746 4.98678125,0.178793651 5.85715625,0.260507937 C7.69621875,0.433015873 9.25615625,1.58120635 10.0295937,3.33142857 C10.8380937,5.16126984 10.6208437,7.29003175 9.46240625,8.88869841 L5.90940625,13.792254 C5.73134375,14.0387937 5.44603125,14.1847619 5.14559375,14.1847619" id="Fill-1" fill="#FFFFFF"></path>
                    <path d="M5.05525625,8.51525714 L5.04838125,8.51525714 C4.90744375,8.51525714 4.77338125,8.46217778 4.67713125,8.35671746 L2.78306875,6.28801905 C2.58919375,6.07570159 2.60156875,5.74674921 2.80988125,5.54979683 C3.01888125,5.35354286 3.34475625,5.3668127 3.53863125,5.57843175 L5.06488125,7.24973333 L6.82831875,5.41570159 C7.02700625,5.20897143 7.35356875,5.20547937 7.55706875,5.40732063 C7.76125625,5.6091619 7.76469375,5.94090794 7.56600625,6.1476381 L5.42444375,8.36649524 C5.32750625,8.46776508 5.19413125,8.51525714 5.05525625,8.51525714" id="Fill-3" fill="#010101"></path>
                    <path d="M5.15796875,7.77081905 C4.83209375,7.77081905 4.59628125,7.45094603 4.59628125,7.0312 L4.60246875,1.1624381 C4.60246875,0.209803175 4.86715625,0.000279365079 5.19303125,0.000279365079 C5.51821875,0.000279365079 5.80146875,0.209803175 5.80146875,1.1624381 L5.80146875,7.01094603 C5.80146875,7.43069206 5.48384375,7.77081905 5.15796875,7.77081905" id="Fill-5" fill="#010101"></path>
                </g>
            </g>
        </g>
    </g>
</svg>