<?xml version="1.0" encoding="UTF-8" standalone="no"?>
<svg width="22px" height="32px" viewBox="0 0 22 32" version="1.1" xmlns="http://www.w3.org/2000/svg" xmlns:xlink="http://www.w3.org/1999/xlink">
    <!-- Generator: Sketch 3.7.1 (28215) - http://www.bohemiancoding.com/sketch -->
    <title>check-in-new-new-fab</title>
    <desc>Created with Sketch.</desc>
    <defs></defs>
    <g id="Page-1" stroke="none" stroke-width="1" fill="none" fill-rule="evenodd">
        <g id="577-585" transform="translate(-105.000000, -104.000000)" fill="#000000">
            <g id="check-in-new-new-fab" transform="translate(104.000000, 104.000000)">
                <path d="M11.9373333,16.812 C11.8746667,16.812 11.7493333,16.7493333 11.6866667,16.7493333 C11.5613333,16.6866667 11.4986667,16.624 11.436,16.5613333 L7.81066667,12.936 C7.49866667,12.624 7.49866667,12.124 7.81066667,11.8106667 C7.936,11.6853333 8.12266667,11.56 8.37333333,11.56 C8.56133333,11.56 8.748,11.6853333 8.87333333,11.8106667 L11.1853333,14.1226667 L11.1853333,5.43466667 C11.1853333,4.99733333 11.56,4.62266667 11.936,4.62266667 C12.3733333,4.62266667 12.748,4.99733333 12.748,5.43466667 L12.748,14.1226667 L15.1226667,11.748 C15.248,11.6226667 15.4346667,11.4973333 15.6226667,11.4973333 C15.8733333,11.4973333 16.06,11.6226667 16.1853333,11.748 C16.4973333,12.06 16.4973333,12.56 16.1853333,12.8733333 L12.4973333,16.5613333 C12.4346667,16.624 12.372,16.6866667 12.2466667,16.7493333 C12.184,16.7493333 12.0586667,16.812 11.9346667,16.812 L11.9373333,16.812 Z M11.9373333,3.43733333 C11.5626667,3.43733333 11.1866667,3.06266667 11.1866667,2.62533333 L11.1866667,1.43733333 C11.1866667,1.06266667 11.5613333,0.686666667 11.9373333,0.686666667 C12.3746667,0.686666667 12.7493333,1.06133333 12.7493333,1.43733333 L12.7493333,2.62533333 C12.7493333,3.06266667 12.3746667,3.43733333 11.9373333,3.43733333 L11.9373333,3.43733333 Z M12,31.812 C11.688,31.812 11.3746667,31.6866667 11.1253333,31.5 C9.188,29.8746667 4.31333333,25.5 2.188,20.1253333 C2,19.688 1.876,19.2506667 1.75066667,18.8133333 C1.62533333,18.376 1.5,17.9386667 1.43866667,17.5013333 C1.31333333,16.8133333 1.25066667,16.064 1.25066667,15.4386667 L1.25066667,14.564 L1.31333333,14.4386667 C1.31333333,14.1266667 1.376,13.876 1.376,13.6266667 L1.43866667,13.564 C2.00133333,10.1266667 4.25066667,7.18933333 7.376,5.68933333 C7.376,5.68933333 7.43866667,5.62666667 7.564,5.564 L7.62666667,5.564 C7.93866667,5.564 8.18933333,5.68933333 8.37733333,5.93866667 C8.50266667,6.064 8.628,6.31333333 8.56533333,6.50133333 C8.56533333,6.876 8.25333333,7.064 7.75333333,7.376 L7.69066667,7.43866667 C5.19066667,8.81333333 3.50266667,11.1266667 3.06533333,13.876 C3.00266667,14.1266667 3.00266667,14.3133333 2.94,14.564 L2.94,14.6893333 L2.94,15.44 C2.94,16.0026667 2.94,16.5653333 3.06533333,17.1906667 C3.128,17.5653333 3.25333333,17.9413333 3.37733333,18.3786667 C3.44,18.7533333 3.628,19.1293333 3.752,19.504 C5.68933333,24.4413333 10.5026667,28.7546667 12.0026667,30.004 C13.5026667,28.7533333 18.3146667,24.4413333 20.2533333,19.504 C20.3786667,19.1293333 20.5653333,18.7533333 20.628,18.3786667 C20.7533333,17.9413333 20.8786667,17.5666667 20.94,17.1906667 C21.0653333,16.5653333 21.0653333,16.0026667 21.0653333,15.44 L21.0653333,14.628 L21.0653333,14.5653333 C21.0026667,14.3773333 21.0026667,14.1906667 21.0026667,14.0026667 L20.94,13.8773333 C20.5026667,11.1266667 18.8146667,8.81466667 16.3146667,7.44 C16.252,7.37733333 16.1893333,7.31466667 16.064,7.252 C15.752,7.12666667 15.4386667,6.94 15.4386667,6.50133333 C15.4386667,6.00133333 15.876,5.564 16.376,5.564 C16.5013333,5.62666667 16.6266667,5.68933333 16.6266667,5.68933333 C19.752,7.18933333 22.0013333,10.1266667 22.6266667,13.6266667 C22.6266667,13.8773333 22.6893333,14.1266667 22.6893333,14.3773333 L22.752,14.5653333 L22.752,15.44 C22.752,16.0653333 22.6893333,16.8146667 22.564,17.5026667 C22.5013333,17.94 22.376,18.3773333 22.252,18.8146667 C22.128,19.252 22.0013333,19.6893333 21.8146667,20.1266667 C19.6893333,25.5013333 14.8146667,29.8773333 12.8773333,31.5013333 C12.6266667,31.6893333 12.3146667,31.8133333 12.0026667,31.8133333 L12,31.812 Z" id="Shape"></path>
            </g>
        </g>
    </g>
</svg>