<svg xmlns="http://www.w3.org/2000/svg" viewBox="0 0 512 512"><path d="M494-6c-12-15-29-24-47-26-18-1-37 4-51 16l-354 287c-1 0-3 1-4 2-4 3-6 7-6 12 0 4 1 8 4 12l3 3c14 16 30 30 48 41l-7 7c-3 0-7-1-11-1-37 0-66 30-66 67 0 36 29 66 66 66 36 0 66-30 66-66 0-21-10-40-25-52l6-6c18 7 37 12 56 14 8 1 15 1 22 1 40 0 78-11 111-33 1 0 1 1 1 1l33 19v1c-18 12-29 32-29 55 0 36 29 66 66 66 36 0 66-30 66-66 0-37-30-67-66-67l-3 1-13-13-3-3-25-15c36-33 59-78 65-128 5-49-7-97-35-137l54-44c16-13 40-10 54 6 6 8 9 17 8 27s-6 20-14 26c-7 6-8 16-2 22 5 7 15 8 22 2 14-11 23-28 25-46 2-19-3-37-15-51zm-425 454c-19 0-35-15-35-34s16-35 35-35c4 0 7 1 11 2 14 4 24 17 24 33-1 19-16 34-35 34zm341-34c0 19-15 34-34 34s-35-15-35-34 16-35 35-35 34 15 34 35zm-45-228c-5 46-28 87-63 116-36 28-81 41-127 37-40-5-76-22-104-51l266-215c23 33 32 72 28 113zm26 228c0 8-7 15-15 15-9 0-15-7-15-15 0-9 6-16 15-16 8 0 15 7 15 16zm-307 0c0 8-7 15-15 15-9 0-16-7-16-15 0-9 7-16 16-16 8 0 15 7 15 16z"/></svg>