<svg xmlns="http://www.w3.org/2000/svg" viewBox="0 0 512 512"><path d="M335 71c-39 0-76-2-103-5-37-4-60-11-60-30 0-9 7-16 16-16 6 0 11 4 14 8 32 15 235 15 266 0 3-4 8-8 14-8 9 0 16 7 16 16 0 13 0 35-163 35zm-147 285c-56 0-102-46-102-102 0-57 46-102 102-102s102 45 102 102c0 56-46 102-102 102zm0-173c-39 0-71 32-71 71s32 70 71 70 70-31 70-70-31-71-70-71zm292 127c-5 0-9 3-12 6-14 6-60 9-110 9h-12c9-19 14-41 15-63 134-2 134-18 134-31 0-9-7-16-15-16-5 0-10 2-13 6-14 5-58 8-107 9-3-24-12-47-24-67 159 0 159-22 159-35 0-8-7-16-16-16-5 0-11 4-13 9-8 3-24 5-45 7h-113c-31-30-73-48-120-48-96 0-174 78-174 174s78 174 174 174c57 0 108-28 140-71h31c137-2 137-18 137-31 0-9-7-16-16-16zm-292 86c-79 0-142-64-142-142 0-79 63-143 142-143 78 0 142 64 142 143 0 78-64 142-142 142z"/></svg>