<?xml version="1.0" encoding="UTF-8" standalone="no"?>
<svg width="24px" height="22px" viewBox="0 0 24 22" version="1.1" xmlns="http://www.w3.org/2000/svg" xmlns:xlink="http://www.w3.org/1999/xlink">
    <!-- Generator: Sketch 3.7.2 (28276) - http://www.bohemiancoding.com/sketch -->
    <title>collections_inactive-new-ui</title>
    <desc>Created with Sketch.</desc>
    <defs>
        <polygon id="path-1" points="18.0778153 18.8369088 18.0778153 0.319510847 0.334202758 0.319510847 0.334202758 18.8369088"></polygon>
    </defs>
    <g id="Page-1" stroke="none" stroke-width="1" fill="none" fill-rule="evenodd">
        <g id="577-585" transform="translate(-472.000000, -275.000000)">
            <g id="collections_inactive-new-ui" transform="translate(468.000000, 271.000000)">
                <rect id="Rectangle-50" x="0.570310059" y="0" width="30.72" height="30.72"></rect>
                <g id="Page-1" transform="translate(4.551111, 3.840000)">
                    <g id="Group-3" transform="translate(5.155859, 0.025975)">
                        <mask id="mask-2" fill="white">
                            <use xlink:href="#path-1"></use>
                        </mask>
                        <g id="Clip-2"></g>
                        <path d="M5.30616912,3.08277882 C4.08079338,3.08277882 3.08399404,4.0844885 3.08399404,5.31590057 L3.08399404,13.84045 C3.08399404,15.071862 4.08079338,16.0735717 5.30616912,16.0735717 L13.1059521,16.0735717 C14.3313278,16.0735717 15.3281272,15.071862 15.3281272,13.84045 L15.3281272,5.31590057 C15.3281272,4.0844885 14.3313278,3.08277882 13.1059521,3.08277882 L5.30616912,3.08277882 Z M13.1059521,18.8369088 L5.30616912,18.8369088 C2.56462721,18.8369088 0.334202758,16.595497 0.334202758,13.84045 L0.334202758,5.31590057 C0.334202758,2.56085353 2.56462721,0.319441763 5.30616912,0.319441763 L13.1059521,0.319441763 C15.847494,0.319441763 18.0779185,2.56085353 18.0779185,5.31590057 L18.0779185,13.84045 C18.0779185,16.595497 15.847494,18.8369088 13.1059521,18.8369088 L13.1059521,18.8369088 Z" id="Fill-1" fill="#000000" mask="url(#mask-2)"></path>
                    </g>
                    <path d="M7.00076237,21.4418375 C6.10639276,21.4418375 5.22611582,21.1976276 4.44070669,20.7212974 C3.30366799,20.0318448 2.50210383,18.9382542 2.18312804,17.6425945 L0.147251323,9.36743628 C-0.171380742,8.07177662 0.0310726415,6.72879481 0.717489291,5.58650035 C1.40356222,4.44351507 2.49144839,3.63800231 3.78075678,3.31780063 L5.66642615,2.849415 C6.40268277,2.66461684 7.14890738,3.11780411 7.33108105,3.85906928 C7.51359845,4.59964361 7.06366385,5.34850795 6.32637606,5.53157903 L4.44070669,6.00031008 C3.86428169,6.14365819 3.37825608,6.50358284 3.07131063,7.01410936 C2.7647089,7.5249813 2.67430951,8.12497086 2.81695494,8.70423539 L4.85248793,16.9793936 C4.99513336,17.5586581 5.35329367,18.0474234 5.86166133,18.35519 C6.3528428,18.6529396 6.9278929,18.7475839 7.48610054,18.6249608 L12.0132882,17.0204982 C12.7296088,16.7659258 13.5146742,17.1448484 13.7673113,17.8643523 C14.0196046,18.5838562 13.6439144,19.3731343 12.9279375,19.6266705 L8.33063018,21.2556577 C8.28869587,21.2705106 8.24641783,21.2832911 8.20345234,21.2936536 C7.8047326,21.3927883 7.40120073,21.4418375 7.00076237,21.4418375" id="Fill-4" fill="#000000"></path>
                </g>
            </g>
        </g>
    </g>
</svg>