<?xml version="1.0" encoding="UTF-8" standalone="no"?>
<svg width="32px" height="29px" viewBox="0 0 32 29" version="1.1" xmlns="http://www.w3.org/2000/svg" xmlns:xlink="http://www.w3.org/1999/xlink">
    <!-- Generator: Sketch 3.7.2 (28276) - http://www.bohemiancoding.com/sketch -->
    <title>comment-new-ui</title>
    <desc>Created with Sketch.</desc>
    <defs>
        <polygon id="path-1" points="0 28.4053663 31.5378737 28.4053663 31.5378737 -0.000261333343 0 -0.000261333343"></polygon>
    </defs>
    <g id="Page-1" stroke="none" stroke-width="1" fill="none" fill-rule="evenodd">
        <g id="577-585" transform="translate(-520.000000, -53.000000)">
            <g id="comment-new-ui" transform="translate(520.000000, 53.000000)">
                <mask id="mask-2" fill="white">
                    <use xlink:href="#path-1"></use>
                </mask>
                <g id="Clip-2"></g>
                <path d="M3.44993197,25.7920329 L15.8041131,25.7920329 C23.0159178,25.7920329 28.8830588,20.5928061 28.8830588,14.2032058 C28.8830588,7.81229894 23.0159178,2.61307209 15.8041131,2.61307209 C8.59363586,2.61307209 2.72649491,7.81229894 2.72649491,14.2032058 C2.72649491,17.1079259 4.54769794,19.738246 6.07421651,21.4316861 C6.53880912,21.9452061 6.5175706,22.7252861 6.02775725,23.2152861 L3.44993197,25.7920329 Z M15.8041131,28.4053663 L2.05880896,28.4053663 C1.23050671,28.4053663 0.487158536,27.9153663 0.163271117,27.156193 C-0.163271117,26.3865663 0.00796444472,25.5058729 0.601315577,24.9152595 L3.29064308,22.2274461 C1.18006523,19.5918994 0.0716800025,16.8374459 0.0716800025,14.2032058 C0.0716800025,6.37104556 7.12817803,-0.000261333343 15.8041131,-0.000261333343 C24.4800483,-0.000261333343 31.5378737,6.37104556 31.5378737,14.2032058 C31.5378737,22.0340594 24.4800483,28.4053663 15.8041131,28.4053663 L15.8041131,28.4053663 Z" id="Fill-1" fill="#000000" mask="url(#mask-2)"></path>
            </g>
        </g>
    </g>
</svg>