<svg xmlns="http://www.w3.org/2000/svg" viewBox="0 0 512 512"><path d="M281 481h-19c-3 0-5-1-6-1h-5c-4 0-9 1-15 1-35 0-64-4-86-12-50-17-60-49-60-73v-146c0-8 7-16 15-16h301c9 0 16 8 16 16v146c0 24-10 56-57 73-21 8-50 12-84 12zm-25-32h25c31 0 55-3 74-10 32-12 35-30 35-43v-130h-269v130c0 13 4 31 39 43 19 7 45 10 76 10h20zm234-183h-468c-9 0-16-7-16-16 0-8 7-16 16-16h468c9 0 16 8 16 16 0 9-7 16-16 16zm-141 123c-9 0-16-7-16-16v-114c0-9 7-16 16-16s16 7 16 16v114c0 9-7 16-16 16zm147-67h-34c-9 0-16-7-16-16s7-16 16-16h34c9 0 16 7 16 16s-7 16-16 16zm-446 0h-34c-9 0-16-7-16-16s7-16 16-16h34c9 0 16 7 16 16s-7 16-16 16zm206-119c-5 0-9-2-12-6-19-24-25-48-21-74 3-19 13-36 21-52 3-5 6-10 8-14v-1c18-31-8-63-8-63-5-7-4-17 2-22 7-6 17-5 23 2 1 2 39 49 11 99l-8 14c-8 15-15 28-18 43-2 10-2 27 15 49 5 7 4 17-3 22-3 2-6 3-10 3zm-85-2c-4 0-7-1-10-4-19-19-26-39-22-60 4-16 14-30 22-42l8-11v-1c16-21-7-43-8-44-5-5-6-14 0-20 5-5 14-6 19 0 15 14 36 48 12 81-3 3-5 7-8 11-7 11-15 22-17 32-2 8-2 19 14 34 5 6 5 15-1 20-2 3-6 4-9 4zm171 0c-4 0-7-1-10-4-19-19-26-39-21-60 3-16 13-30 22-42l7-11v-1c16-20-5-42-8-44-5-5-5-14 0-20 5-5 14-6 19 0 15 14 36 48 12 81-3 3-5 7-8 11-7 10-15 21-17 32-2 7-2 18 14 34 5 6 5 14-1 20-2 3-5 4-9 4z"/></svg>