<svg xmlns="http://www.w3.org/2000/svg" viewBox="0 0 512 512"><path d="M320 236c14-28 23-60 23-94 0-96-65-174-145-174-79 0-144 78-144 174 0 34 8 66 23 94-36 7-62 38-62 75v92c0 42 34 77 77 77h213c42 0 77-35 77-77v-92c0-37-27-68-62-75zm-122-237c63 0 114 64 114 143s-51 143-114 143-114-64-114-143 51-143 114-143zm153 404c0 26-21 46-46 46h-213c-26 0-47-20-47-46v-92c0-25 21-46 47-46l3-1c27 32 63 52 103 52s77-20 103-52c1 0 2 1 4 1 25 0 46 21 46 46v92zm92-165c15-29 23-62 23-96 0-96-64-174-144-174-8 0-15 7-15 15 0 9 7 16 15 16 63 0 114 64 114 143 0 37-11 72-32 98-3 5-4 11-1 17 3 5 8 9 14 8h3c26 0 47 21 47 46v92c0 26-21 46-47 46-8 0-15 7-15 16 0 8 7 15 15 15 43 0 77-35 77-77v-92c0-35-23-64-54-73z"/></svg>