<svg xmlns="http://www.w3.org/2000/svg" viewBox="0 0 512 512"><path d="M398-18c-1-8-7-14-15-14h-253c-8 0-15 6-16 14l-59 481c-1 8 5 16 14 17h1c8 0 15-6 16-14l7-58h326l6 58c1 9 9 15 18 14 8-1 14-9 13-17zm-301 395l46-378h227l45 378zm25 67v16c0 8 7 15 15 15 9 0 16-7 16-15v-40h-31zm233 0v16c0 8 7 15 15 15 9 0 16-7 16-15v-40h-31zm-22-367h-158c-8 0-15 7-15 15 0 9 7 16 15 16h158c8 0 15-7 15-16 0-8-7-15-15-15zm0 100h-158c-8 0-15 7-15 15s7 15 15 15h158c8 0 15-7 15-15s-7-15-15-15zm0 99h-158c-8 0-15 7-15 16 0 8 7 15 15 15h158c8 0 15-7 15-15 0-9-7-16-15-16z"/></svg>