<svg xmlns="http://www.w3.org/2000/svg" viewBox="0 0 512 512"><path d="M511 328v-124c0-4-2-8-6-9-2-1-50-24-86-37l-62-102c-2-3-10-17-29-23-3-1-6-2-9-2h-194c-5 0-10 2-15 4-7 4-21 13-30 27-10 16-67 101-78 117v1h-1v2h-1v147c0 6 5 11 10 11 2 0 3-1 4-1l4 1h33l3-1v3c0 42 34 76 75 76 21 0 39-8 54-22 14-15 22-33 22-54v-2h90c2 0 3-1 4-1-1 1-1 2-1 3 0 42 34 76 76 76 20 0 38-8 53-22 14-15 22-33 22-54v-2h52c5 0 10-5 10-11v-1zm-343 53c-10 10-24 16-39 16-30 0-54-25-54-55 0-14 6-28 16-38s24-16 38-16c31 0 55 24 55 54 0 15-6 29-16 39zm244 0c-10 10-24 16-38 16-31 0-55-25-55-55 0-14 6-28 16-38s24-16 39-16c30 0 54 24 54 54 0 15-6 29-16 39zm-38-114c-20 0-39 8-54 22-9 9-15 20-18 32-2-1-4-2-6-2h-95c-10-30-38-52-72-52-20 0-38 8-53 22-9 9-15 20-19 32-1-1-3-2-6-2h-30v-131c14-21 66-100 76-114 7-11 18-18 23-21 2-1 4-1 5-1h196c12 4 17 13 18 13v1l64 106c1 0 1 1 1 1l1 1c1 0 1 1 1 1h1c0 1 1 1 1 1h1c28 10 67 27 81 34v109h-45c-10-30-38-52-71-52zm-37-109h-37v-53c0-6-4-11-10-11s-10 5-10 11v65c0 5 5 9 10 9h47c6 0 10-5 10-10 0-6-4-11-10-11z"/></svg>