<svg xmlns="http://www.w3.org/2000/svg" viewBox="0 0 512 512"><path d="M403 293h-294c-4 0-7-2-7-6v-92c0-2 0-3 2-4l59-80c1-1 2-2 5-2h130c3 0 4 1 5 2l46 68 55 26c3 1 4 4 4 6v76c2 4-2 6-5 6zm-288-13h282v-65l-53-24c-1 0-2-2-2-3l-46-66h-124l-57 75zm104 14c0 22-17 39-39 39-21 0-38-17-38-39 0-21 17-38 38-38 22 0 39 17 39 38zm-39 45c-24 0-44-20-44-45 0-24 20-44 44-44 25 0 45 20 45 44 0 25-20 45-45 45zm0-77c-17 0-32 14-32 32s15 32 32 32c18 0 32-14 32-32s-15-32-32-32zm184 32c0 22-18 39-39 39s-38-17-38-39c0-21 17-38 38-38s39 17 39 38zm-39 45c-24 0-45-20-45-45 0-24 21-44 45-44s45 20 45 44c0 25-21 45-45 45zm0-77c-18 0-32 14-32 32s14 32 32 32 32-14 32-32-14-32-32-32zm-49-62c-3 0-6-3-6-7v-46c0-4 3-6 6-6 4 0 7 2 7 6v46c0 4-4 7-7 7zm31 0h-31c-3 0-6-3-6-7s3-6 6-6h31c4 0 7 2 7 6s-4 7-7 7z"/></svg>