<svg xmlns="http://www.w3.org/2000/svg" viewBox="0 0 512 512"><path d="M67 214c-8 0-15 7-15 15 0 97 83 176 188 183v37h-51c-9 0-16 7-16 16 0 8 7 15 16 15h134c9 0 16-7 16-15 0-9-7-16-16-16h-52v-37c106-7 189-86 189-183 0-8-7-15-15-15zm187-21c-5-27-23-49-48-60-13-8-31-7-31-7h-2l-6 1-47-148c-3-8-11-13-19-10-9 2-13 11-11 19l47 146c-23 12-41 33-46 59zm168 0c-7-38-41-67-81-67h-3c-17-1-30 7-30 7-25 11-43 33-48 60zm-84-87c-5-26-22-48-45-59 3-6 5-12 5-19 0-22-18-40-41-40-22 0-41 18-41 41 0 6 2 13 5 18-24 11-41 33-46 59 0 0 62 3 79 53 0 1 22-56 84-53zm-82-68c-5 0-9-4-9-9 0-6 4-10 9-10 6 0 10 5 10 10s-4 9-10 9z"/></svg>