<svg xmlns="http://www.w3.org/2000/svg" viewBox="0 0 512 512"><path d="M353 479c-67 0-123-22-166-66-98-100-95-278-95-285 0-88 72-159 159-159 88 0 159 71 159 159 0 44-9 74-17 99-14 42-23 72 19 152 10 20 10 44-1 65-10 19-29 32-50 35h-8zm-102-482c-72 0-131 59-131 131 0 2-3 174 87 265 38 39 87 58 146 58h5c12-1 23-9 28-20 7-13 7-27 1-39-48-91-36-129-22-173 8-25 17-51 17-91 1-72-58-131-131-131zm3 183c-26 0-47-21-47-47 0-27 21-48 47-48 27 0 47 22 47 48s-21 47-47 47zm0-67c-11 0-19 9-19 19 0 11 8 20 19 20s20-9 20-20c0-10-9-19-20-19zm99 322c-55 0-99-17-134-53-85-86-83-248-83-254 0-64 52-115 115-115 64 0 115 51 115 115 0 38-8 62-16 86-15 47-28 89 23 186 3 7 3 16-1 23-3 7-9 11-16 12h-3zm-102-404c-53 0-97 43-97 97 0 2-2 161 78 242 31 32 70 47 121 47h1s1 0 2-2c2-2 2-5 1-6-55-104-40-151-24-200 7-23 15-46 15-81 0-54-43-97-97-97z"/></svg>