<svg xmlns="http://www.w3.org/2000/svg" viewBox="0 0 512 512"><path d="M256-32c-141 0-256 115-256 256s115 256 256 256 256-115 256-256-115-256-256-256zm0 481c-124 0-225-101-225-225s101-225 225-225 225 101 225 225-101 225-225 225zm119-363l-175 74-2 1c-1 1-2 2-2 3-1 0-2 1-3 2l-1 2-75 175c-2 5-1 12 4 16 2 3 6 5 10 5 2 0 4 0 6-1l175-75c1 0 1-1 1-1l3-3c1 0 2-1 2-2l2-2 74-174c3-6 2-13-3-17-4-5-11-6-16-3zm-214 233l50-118 68 68zm140-72l-68-68 118-50zm-28 167c0 9-8 16-17 16s-17-7-17-16 8-17 17-17 17 8 17 17zm0-374c0 10-8 17-17 17s-17-7-17-17c0-9 8-16 17-16s17 7 17 16zm-187 187c0 9-7 17-17 17-9 0-16-8-16-17s7-17 16-17c10 0 17 8 17 17zm373 0c0 9-7 17-16 17-10 0-17-8-17-17s7-17 17-17c9 0 16 8 16 17z"/></svg>