<?xml version="1.0" encoding="UTF-8" standalone="no"?>
<svg width="22px" height="28px" viewBox="0 0 22 28" version="1.1" xmlns="http://www.w3.org/2000/svg" xmlns:xlink="http://www.w3.org/1999/xlink">
    <!-- Generator: Sketch 3.7.2 (28276) - http://www.bohemiancoding.com/sketch -->
    <title>distance-new-ui</title>
    <desc>Created with Sketch.</desc>
    <defs>
        <polygon id="path-1" points="-2.07335885e-13 0.670407986 20.5131858 0.670407986 20.5131858 27.5954861 -2.07335885e-13 27.5954861 -2.07335885e-13 0.670570312 -0.000543584547 27.5956484 20.5128551 27.5956484 20.5128551 0.670570312 -2.07335885e-13 0.670570312"></polygon>
    </defs>
    <g id="Page-1" stroke="none" stroke-width="1" fill="none" fill-rule="evenodd">
        <g id="577-585" transform="translate(-213.000000, -271.000000)">
            <g id="distance-new-ui" transform="translate(213.000000, 271.000000)">
                <g id="Group-3" transform="translate(0.937500, 0.015194)">
                    <mask id="mask-2" fill="white">
                        <use xlink:href="#path-1"></use>
                    </mask>
                    <g id="Clip-2"></g>
                </g>
                <path d="M11.3013906,1.49739583 L11.3176233,1.49739583 L11.3013906,1.49739583 Z M11.3273628,2.30902778 L11.3030139,2.30902778 C10.1180312,2.31227431 8.95902083,2.5281684 7.85844792,2.95184028 C5.50958507,3.85924479 3.72237153,5.79904514 2.95781424,8.27614583 C2.14618229,10.9009635 2.5909566,13.8147222 4.14442014,16.0678125 L10.9686215,25.9648524 L18.1061128,16.3324045 C20.0150712,13.7254427 20.3640729,10.2549045 19.0151406,7.27621528 C17.7425017,4.45822917 15.1939774,2.61582465 12.1990556,2.34798611 C11.9117378,2.32201389 11.6211736,2.30902778 11.3273628,2.30902778 L11.3273628,2.30902778 Z M11.0108264,27.610842 L10.9864774,27.610842 C10.4459306,27.6027257 9.94109549,27.3332639 9.63267535,26.8884896 L2.80847396,16.9882031 C0.974185764,14.3292969 0.449871528,10.8944705 1.40597396,7.79728299 C2.31987153,4.84294271 4.45933333,2.52329861 7.27569618,1.43733507 C8.56132118,0.942239583 9.91512326,0.689010417 11.2997674,0.685763889 C11.604941,0.689010417 12.0010174,0.700373264 12.3451493,0.731215278 C15.9309392,1.05262153 18.9778056,3.25052083 20.4955573,6.60580729 C22.0831094,10.1185503 21.6691771,14.2124219 19.4160868,17.2901302 L12.3613819,26.9242014 C12.0464687,27.3559896 11.5416337,27.610842 11.0108264,27.610842 L11.0108264,27.610842 Z" id="Fill-1" fill="#000000"></path>
                <path d="M11.4671259,8.43912153 C10.1230634,8.43912153 9.03060677,9.53157812 9.03060677,10.8756406 C9.03060677,12.2197031 10.1230634,13.3121597 11.4671259,13.3121597 C12.8111884,13.3121597 13.903645,12.2197031 13.903645,10.8756406 C13.903645,9.53157812 12.8111884,8.43912153 11.4671259,8.43912153 M11.4671259,14.9354236 C9.22864497,14.9354236 7.40734288,13.1141215 7.40734288,10.8756406 C7.40734288,8.63715972 9.22864497,6.81585764 11.4671259,6.81585764 C13.7056068,6.81585764 15.5269089,8.63715972 15.5269089,10.8756406 C15.5269089,13.1141215 13.7056068,14.9354236 11.4671259,14.9354236" id="Fill-4" fill="#000000"></path>
            </g>
        </g>
    </g>
</svg>