<?xml version="1.0" encoding="UTF-8" standalone="no"?>
<svg width="22px" height="29px" viewBox="0 0 22 29" version="1.1" xmlns="http://www.w3.org/2000/svg" xmlns:xlink="http://www.w3.org/1999/xlink">
    <!-- Generator: Sketch 3.7.2 (28276) - http://www.bohemiancoding.com/sketch -->
    <title>distance-active-new-ui</title>
    <desc>Created with Sketch.</desc>
    <defs>
        <polygon id="path-1" points="21.3071856 28.7379604 21.3071856 0.439827964 0.000170063394 0.439827964 0.000170063394 28.7379604 21.3071856 28.7379604"></polygon>
    </defs>
    <g id="Page-1" stroke="none" stroke-width="1" fill="none" fill-rule="evenodd">
        <g id="577-585" transform="translate(-265.000000, -271.000000)">
            <g id="distance-active-new-ui" transform="translate(265.000000, 271.000000)">
                <g id="Group-3" transform="translate(0.000000, 0.144910)">
                    <mask id="mask-2" fill="white">
                        <use xlink:href="#path-1"></use>
                    </mask>
                    <g id="Clip-2"></g>
                    <path d="M10.7643785,2.92411199 C9.62894685,2.9257681 8.51946794,3.13775069 7.46838266,3.55177918 C5.23644848,4.4311757 3.53816717,6.31417729 2.81149092,8.72051088 C2.03777537,11.279207 2.46112916,14.1161302 3.94367846,16.3121373 L10.4805206,25.9904674 L17.2330947,16.5721472 C19.0546514,14.0333245 19.3871707,10.6515398 18.1008889,7.74837198 C16.8892211,5.01247171 14.4675076,3.22386862 11.6224404,2.96220261 C11.3402045,2.93570479 11.070945,2.94232924 10.7643785,2.92411199 M10.4707883,28.7379604 L10.4399694,28.7379604 C9.76844273,28.7280237 9.14071124,28.3852082 8.75953063,27.8188172 L1.94045266,17.7231464 C0.0394156981,14.9060966 -0.505591485,11.2676142 0.48710017,7.98850851 C1.4359966,4.85017254 3.6614426,2.38918718 6.59247826,1.23487574 C7.92255531,0.711543728 9.32400235,0.443253265 10.7578903,0.439941037 L10.7611344,1.68202651 L10.7578903,0.439941037 C11.1033859,0.438284923 11.4829445,0.454846063 11.8397944,0.487968342 C15.5704984,0.82912782 18.7399747,3.16093629 20.3182246,6.72323744 C21.9646005,10.4428694 21.5347585,14.7785758 19.1957694,18.0394642 L12.147983,27.8701567 C11.7554481,28.4150182 11.1309607,28.7379604 10.4707883,28.7379604" id="Fill-1" fill="#000000" mask="url(#mask-2)"></path>
                </g>
                <path d="M10.9267452,9.32317076 C9.80753402,9.32317076 8.89756667,10.2539068 8.89756667,11.3949693 C8.89756667,12.537688 9.80753402,13.4667679 10.9267452,13.4667679 C12.0459564,13.4667679 12.9559237,12.537688 12.9559237,11.3949693 C12.9559237,10.2539068 12.0459564,9.32317076 10.9267452,9.32317076 M10.9267452,15.9509389 C8.46610265,15.9509389 6.46449889,13.9089503 6.46449889,11.3949693 C6.46449889,8.88264444 8.46610265,6.8389998 10.9267452,6.8389998 C13.3873877,6.8389998 15.3889915,8.88264444 15.3889915,11.3949693 C15.3889915,13.9089503 13.3873877,15.9509389 10.9267452,15.9509389" id="Fill-4" fill="#000000"></path>
            </g>
        </g>
    </g>
</svg>