<?xml version="1.0" encoding="UTF-8" standalone="no"?>
<svg width="31px" height="31px" viewBox="0 0 31 31" version="1.1" xmlns="http://www.w3.org/2000/svg" xmlns:xlink="http://www.w3.org/1999/xlink">
    <!-- Generator: Sketch 3.7.2 (28276) - http://www.bohemiancoding.com/sketch -->
    <title>draw-ona-a-map-new-ui</title>
    <desc>Created with Sketch.</desc>
    <defs>
        <polygon id="path-1" points="30.1542095 23.3809524 0 23.3809524 0 0.0111090577 30.1542095 0.0111090577 30.1542095 23.3809524"></polygon>
    </defs>
    <g id="Page-1" stroke="none" stroke-width="1" fill="none" fill-rule="evenodd">
        <g id="577-585" transform="translate(-364.000000, -52.000000)">
            <g id="draw-ona-a-map-new-ui" transform="translate(364.000000, 52.000000)">
                <g id="Group-3" transform="translate(0.000000, 7.289829)">
                    <mask id="mask-2" fill="white">
                        <use xlink:href="#path-1"></use>
                    </mask>
                    <g id="Clip-2"></g>
                    <path d="M27.8624,15.8184381 L20.6883048,20.1887238 L20.7309714,6.00053333 L27.8684952,2.93462857 L27.8624,15.8184381 Z M2.2944,6.96815238 L9.40906667,3.04129524 L9.3664,16.9963429 L2.28678095,20.4172952 L2.2944,6.96815238 Z M29.6406857,0.245104762 C29.3206857,0.0348190476 28.9123048,-0.00327619048 28.5603048,0.149104762 L19.8776381,3.87939048 L17.7473524,2.85539048 C17.5766857,2.77462857 17.3709714,2.85081905 17.2963048,3.02605714 L16.6669714,4.50110476 C16.5968762,4.66415238 16.6669714,4.85310476 16.8269714,4.93081905 L18.446781,5.7232 L18.4041143,20.051581 L11.6521143,17.3056762 L11.694781,2.92091429 L12.3439238,3.18758095 L13.2399238,1.08167619 L10.9115429,0.103390476 C10.5884952,-0.0352761905 10.2197333,-0.0169904762 9.9104,0.15367619 L0.5984,5.29348571 C0.234209524,5.49462857 0.00868571429,5.87710476 0.00868571429,6.29310476 L-0.000457142856,22.2367238 C-0.000457142856,22.6313905 0.202209524,22.9971048 0.5344,23.2058667 C0.720304762,23.3216762 0.932114286,23.3811048 1.1424,23.3811048 C1.31306667,23.3811048 1.48220952,23.3430095 1.64068571,23.266819 L10.1435429,19.1601524 L18.9404952,22.7380571 C19.1157333,22.8919619 19.3138286,23.0092952 19.5378286,23.0092952 L19.5424,23.0092952 C19.5561143,23.0092952 19.566781,22.9986286 19.5804952,22.9986286 L19.5804952,22.9986286 C19.9172571,23.1357714 20.2966857,23.1037714 20.606019,22.9163429 L29.5995429,17.4367238 C29.9408762,17.2294857 30.1481143,16.8592 30.1481143,16.4614857 L30.1542095,1.20053333 C30.1542095,0.815009524 29.9622095,0.456914286 29.6406857,0.245104762 L29.6406857,0.245104762 Z" id="Fill-1" fill="#080808" mask="url(#mask-2)"></path>
                </g>
                <path d="M15.2187429,12.3548952 L19.7764571,1.5648 C20.0187429,0.991847619 19.7505524,0.332038095 19.1776,0.089752381 C18.6031238,-0.154057143 17.9448381,0.115657143 17.7025524,0.688609524 L13.1448381,11.4787048 L13.4785524,13.3575619 C13.4785524,13.3575619 13.521219,13.668419 13.7756952,13.5267048 L15.2187429,12.3548952 Z" id="Fill-4" fill="#101010"></path>
                <path id="Stroke-6" stroke="#080808" stroke-linejoin="round"></path>
                <path d="M12.968381,14.7612952 C11.8407619,16.9220571 8.47009524,21.770819 1.13295238,21.2222476" id="Stroke-8" stroke="#080808" stroke-linejoin="round" stroke-dasharray="0.482,0.482"></path>
                <path id="Stroke-10" stroke="#434A54" stroke-linejoin="round"></path>
            </g>
        </g>
    </g>
</svg>