<svg xmlns="http://www.w3.org/2000/svg" viewBox="0 0 512 512"><path d="M310 348l-39-12 6-135h11c2 0 4-2 4-5v-12h111c3 0 5-2 5-5v-25c0-2-2-4-5-4h-293c-3 0-5 2-5 4v25c0 3 2 5 5 5h111v12c0 3 2 5 4 5h11l6 134-42 13c-2 0-4 2-4 4v8c0 3 2 5 5 5h107c3 0 5-2 5-5v-8c0-2-1-4-3-4zm-59-13l-5-134h22l-6 134zm-137-176h285v16h-285zm116 25h53v8h-53zm-24 172l41-12h19l38 11zm284-80l1-3v-19l21-166c0-1 0-2-1-3s-2-2-3-2h-20c-2 0-4 2-5 4l-20 162h-109c-3 0-5 3-5 5v19c0 3 2 5 5 5h9l-5 82c0 1 0 3 1 3 1 1 2 2 4 2h16c3 0 5-2 5-4l5-83h74l11 83c1 2 3 4 5 4h18c3 0 5-2 5-5v-2zm2-184h10l-20 157h-10zm-133 167h123v9h-123v-9zm16 97h-8l5-78h8zm108 0l-11-78h9l11 78zm-325-107h-109l-20-162c-1-2-3-4-5-4h-19c-2 0-3 1-4 2l-1 3 21 166v19l1 3-12 84c0 1 1 2 2 3 0 1 2 2 3 2h18c2 0 4-2 5-4l11-83h74l5 83c0 2 2 4 5 4h16c2 0 3-1 4-2l1-3-5-82h9c3 0 5-2 5-5v-19c0-2-2-5-5-5zm-138-157l20 157h-10l-20-157zm9 264h-9l11-78h9zm115 0h-7l-5-78h8zm9-88h-123v-9h123z"/></svg>