<svg xmlns="http://www.w3.org/2000/svg" viewBox="0 0 512 512"><path d="M502 137h-16c0-1-3-5-12-3 0-2 0-3-2-4-62-21-137-20-210 1v-8c0-3-2-5-5-5s-6 3-6 5v8c-67-21-142-22-210-1-1 1-2 2-2 4-6-1-11 1-11 2-1 0-2 1-2 2-1-1-2-1-3-1h-13c-4 0-8 3-8 8v319c0 5 4 8 8 8h211l14 7 4 1h36l3-1 14-7h210c4 0 8-3 8-8v-319c0-5-4-8-8-8zm-22 3v305l-6-2v-302c4-1 5-1 6-1zm-227-1c1 1 2 1 4 1 1 0 2 0 3-1 72-23 146-24 208-3v305c-60-14-139-12-210 5 0 0-1 0-1 1h-1l-2-1c-70-17-148-17-209-3v-307c68-21 141-20 208 3zm-221 2c2-1 5-1 7 0v304c-1 0-3 1-6 1h-1zm195 316l-4-1h-205v-304h8v297c0 1 0 2 1 3 0 0 1 1 2 0h5l9-1c59-15 136-15 206 1v12h-9zm268-1h-205l-3 1-14 7h-9v-13c76-17 159-16 219 1 1 1 2 0 2 0 1-1 2-2 2-3v-297h8zm-271-420l3 5 25 29h1c-1 1-2 2-2 4v4c0 3 3 5 6 5s5-2 5-5v-4c0-2 0-3-1-4l26-29c1-1 2-2 3-4l3-4c2-3 3-6 4-9 2-5 3-9 2-15 0-5-1-10-3-14l-1-3-35 33c0 1 0 1-1 1l-1-1-15-14c-1-1-2-2-2-3 0-2 1-3 2-3 1-1 2-1 3-1s2 0 3 1l10 10 31-31-1-2c-4-4-8-7-13-9-5-3-10-4-15-4h-4c-6 0-11 1-16 3s-10 5-13 9c-4 4-8 8-9 13-3 5-4 11-4 16s1 10 2 14c1 5 4 9 7 12zm7-52c7-7 16-10 26-10h3c8 0 17 4 23 10l-24 24-7-7c-2-2-4-3-7-3-2 0-4 1-6 2-2 2-3 5-3 7 0 3 1 5 3 7l16 15c1 1 3 2 4 2 2 0 4-1 5-2l29-29c1 3 2 6 2 9 0 4-1 9-2 13s-3 8-6 11v1l-3 3-26 29-1 1s-1 0-1-1l-25-29c-2-1-3-3-4-4-2-3-4-7-5-10-2-4-2-8-2-13 0-9 4-18 11-26zm26 106c-3 0-6 3-6 5v11c0 3 3 5 6 5s5-2 5-5v-11c0-2-2-5-5-5zm0 78c3 0 5-3 5-6v-10c0-3-2-6-5-6s-6 3-6 6v10c0 3 3 6 6 6zm-194 140h4c1 0 2-1 3-2 1 1 2 1 2 1l24 6c2 0 4-1 6-2v-1c2-2 6-6 9-8 6-4 12-8 15-9h1c2-1 2-2 2-3 0-2-1-4-3-4h-23c-1 0-2 1-2 1-1 2-2 2-4 2-3 0-5-2-5-4 0-3 2-5 5-5 2 0 3 0 4 2v1h2l22 1 3-1 2-3v-1l-2-2c-1-1-1-1-2-1-3-1-9-4-15-9-4-3-7-6-9-8v-1c-2-1-3-2-5-1l-24 4c-1 0-2 1-2 1-1-1-2-1-4-1h-4c-1 0-3 1-4 2s-2 3-2 4v34c0 2 1 3 2 4 1 2 2 3 4 3zm10-7v-35s1 0 1-1l23-4h1c0 1 1 1 1 1 2 2 5 5 8 9h1c4 3 9 6 12 8h-16l-3-3c-1-1-3-1-4-1-6 0-10 4-10 9s5 9 10 9c1 0 3 0 4-1l3-2h16c-3 2-8 4-12 7s-8 7-9 10h-2l-24-5v-1zm-11-34c0-1 1-2 1-2h4l1 1v36l-1 1h-4s-1-1-1-2zm89 22c3 0 5-2 5-4 0-3-2-5-5-5h-9c-2 0-5 2-5 5 0 2 3 4 5 4zm49 0c3 0 5-2 5-4 0-3-2-5-5-5h-9c-2 0-4 2-4 5 0 2 2 4 4 4zm-24 0c2 0 4-2 4-4 0-3-2-5-4-5h-9c-3 0-5 2-5 5 0 2 2 4 5 4zm35-4c0 2 2 4 5 4h9c2 0 4-2 4-4 0-3-2-5-4-5h-9c-3 0-5 2-5 5zm127-75h9c3 0 5-2 5-4 0-3-2-5-5-5h-9c-3 0-5 2-5 5 0 2 2 4 5 4zm24 0h9c3 0 5-2 5-4 0-3-2-5-5-5h-9c-2 0-4 2-4 5 0 2 2 4 4 4zm-49 0h9c3 0 5-2 5-4 0-3-2-5-5-5h-9c-2 0-4 2-4 5 0 2 2 4 4 4zm-24 0h9c2 0 5-2 5-5 0-2-3-4-5-4h-9c-3 0-5 2-5 4 0 3 2 5 5 5zm-32 193c-3 0-6 2-6 5v9c0 3 3 6 6 6s5-3 5-6v-9c0-3-2-5-5-5zm0-25c-3 0-6 2-6 5v9c0 3 3 5 6 5s5-2 5-5v-9c0-3-2-5-5-5zm0 49c-3 0-6 3-6 6v9c0 3 3 5 6 5s5-2 5-5v-9c0-3-2-6-5-6zm-163-216h114c4 0 7-3 7-7s-3-7-7-7h-114c-4 0-7 3-7 7s3 7 7 7zm204 74c0 3 3 6 7 6l114 1c4 0 7-3 7-7s-3-7-7-7h-114c-4 0-7 3-7 7zm-90 69h-114c-4 0-7 3-7 7s3 7 7 7h114c4 0 7-3 7-7s-3-7-7-7zm81 12h9c2 0 5-3 5-5 0-3-3-5-5-5h-9c-3 0-5 2-5 5 0 2 2 5 5 5zm58-10h-9c-3 0-5 2-5 5 0 2 2 5 5 5h9c3 0 5-3 5-5-1-3-2-5-5-5zm24 0h-9c-2 0-4 2-4 5 0 2 2 5 4 5h9c3 0 5-3 5-5 0-3-2-5-5-5zm-49 0h-9c-2 0-4 2-4 5 0 2 2 4 4 4h9c3 0 5-2 5-4 0-3-2-5-5-5zm95-6c-7 0-13 6-13 13 0 8 6 14 13 14 8 0 14-6 14-14 0-7-6-13-14-13zm0 21c-4 0-7-4-7-8s3-8 7-8c5 0 8 4 8 8 0 5-3 8-8 8zm-25-30c-3 0-6 3-6 6v34c0 3 3 6 6 6h50c4 0 7-3 7-6v-33c0-4-3-7-7-7h-9l-2-4c-1-1-2-2-4-2h-18c-2 0-4 1-5 2l-2 4zm50 40h-50s-1 0-1-1v-33l1-1h11c1 0 3-1 4-2l2-4h18l2 4c0 1 2 2 3 2h10c1 0 1 1 1 1v33c0 1 0 1-1 1zm-55-187l15 9v2l-5 19c-1 1-1 1-1 2 0 0 1 1 1 2 1 1 2 1 3 1l3-1 14-12c0-1 1-1 1-1l1 1 15 12c1 1 1 1 3 1 1 0 2 0 3-1v-4l-7-19c0-1 1-2 1-2l15-9c0-1 1-1 1-1 1-1 1-1 1-3 0 0-1-1-1-2l-2-1h-19c-1 0-1 0-1-1h-1l-5-19c0-1-1-2-1-2 0-1-1-2-3-2-1 0-2 1-3 2v2l-6 19c0 1-1 1-1 1h-21c0 1-1 1-1 1-1 1-1 2-1 2l1 3 1 1zm31-24v-1c2 7 5 23 5 23h17c1 0 2 1 2 1h-1l-14 9v1l7 17v1l-1-1-15-13v-37zm-166 54l-1 3v9c0 3 2 6 6 6 3 0 5-3 5-6v-9c0-1 0-2-1-3 9-2 16-10 16-20 0-9-6-18-15-20v-4c0-4-3-6-5-6-3 0-6 3-6 6v4c-8 3-14 11-14 20 0 10 6 18 15 20zm5-34c8 0 14 6 14 14s-6 14-14 14-14-6-14-14 6-14 14-14zm4 73c1 0 1-1 1-2v-9c0-3-2-6-5-6s-6 3-6 6v9l1 3c-9 2-15 10-15 19s6 17 15 20v10c0 3 2 5 5 5s5-2 5-5v-10c9-2 16-10 16-20s-7-18-17-20zm-4 34c-8 0-14-6-14-14 0-7 7-14 14-14 8 0 14 7 14 14 0 8-6 14-14 14zm5 42v-11c0-3-2-5-5-5s-6 2-6 5v9l1 3c-8 2-15 10-15 20 0 11 9 20 21 20 11 0 20-9 20-20 0-10-7-18-16-21zm-5 34c-8 0-14-6-14-14s7-14 14-14c8 0 14 7 14 14 0 8-6 14-14 14zm7-13c0 3-3 7-7 7s-7-4-7-7c0-4 3-7 7-7s7 3 7 7zm0-77c0 4-3 7-7 7s-7-3-7-7 3-7 7-7 7 3 7 7zm0-79c0 4-3 7-7 7s-7-3-7-7 3-7 7-7 7 3 7 7z"/></svg>