<svg xmlns="http://www.w3.org/2000/svg" viewBox="0 0 512 512"><path d="M160 317h194c4 0 7-3 7-7v-151c0-4-3-7-7-7h-32c-18-10-41-15-65-15s-47 5-65 15h-32c-4 0-7 3-7 7v152c0 3 3 6 7 6zm2-158h31s1-1 2-1c16-9 39-15 62-15s45 6 62 15l2 1h31c1 0 2 1 2 2v147c0 1-1 2-2 2h-190c-1 0-2-1-2-2v-147c0-1 1-2 2-2zm214 172c0 3-3 6-7 6s-7-3-7-6c0-4 3-7 7-7s7 3 7 7zm101-52c-1 0-2 0-4 1-13 1-24 12-26 25-1 6 0 11 2 16-15 13-32 24-51 33v-246c0-77-62-140-139-140s-142 63-142 140v246c-20-10-38-21-54-35 1-3 2-6 2-10 0-16-14-30-30-30-1 0-2 0-3 1-14 1-25 12-27 25-1 9 2 17 7 23v129c0 13 10 23 23 23s23-10 23-23v-129c1-1 2-2 2-3 17 15 36 27 57 37v96c0 12 10 22 22 22h237c12 0 22-10 22-22v-96c20-10 39-21 55-35 0 0 0 1 1 1v129c0 13 10 23 23 23s23-10 23-23v-129c4-5 7-12 7-19 0-16-14-30-30-30zm-430 42c-1 1-2 3-2 4v132c0 5-4 9-10 9-5 0-9-4-9-9v-131c0-2-1-4-2-5-4-4-6-9-5-14 1-7 7-13 14-14h2c9 0 16 7 16 16 0 4-1 8-4 12zm212-339c65 0 119 50 125 114 0 2-2 4-4 4h-19c-4-53-49-95-103-95s-99 42-103 95h-19c-2 0-3-2-3-4 6-64 60-114 126-114zm20 99c-5-3-11-5-17-5v-64c24 0 45 10 61 25zm-23-5c-7 0-13 3-18 6l-45-45c16-15 38-25 63-25zm-68-34l45 45c-3 4-5 8-7 13h-64c2-23 12-43 26-58zm71 40c12 0 22 8 26 18h-51c4-11 14-18 25-18zm33 18c-1-6-4-10-8-14l44-44c15 15 24 35 26 58h-62zm-161 18c0-2 2-5 5-5h243c3 0 5 3 5 5v242c-7 3-15 6-23 9v-16c0-5-4-8-9-8h-190c-5 0-9 3-9 8v15c-8-2-15-5-22-8zm29 260c30 9 63 13 98 13 33 0 66-4 96-13v56c0 1-1 2-2 2h-190c-1 0-2-1-2-2zm98 7c-35 0-68-5-98-14v-18c0-1 1-1 2-1h190c1 0 2 0 2 1v18c-30 9-63 14-96 14zm126 73c0 5-4 8-8 8h-236c-5 0-9-3-9-8v-90c7 3 14 5 22 8v58c0 5 4 9 9 9h190c5 0 9-4 9-9v-58c8-2 16-5 23-8zm105-137c-2 1-2 3-2 4v132c0 5-5 9-10 9s-9-4-9-9v-131c0-2-1-4-3-5-3-4-5-9-4-14 1-7 7-13 14-14h2c9 0 16 7 16 16 0 4-2 8-4 12zm-257-105c0 5-4 8-9 8s-8-3-8-8 3-9 8-9 9 4 9 9zm71 0c0 4-4 8-8 8-5 0-8-4-8-8 0-5 3-8 8-8 4 0 8 3 8 8zm-16 32c-7 7-17 11-27 11s-20-4-27-11c-1-1-3-1-5 0-1 2-1 4 0 5 9 8 20 13 32 13s24-5 32-13c1-2 1-4 0-5s-4-1-5 0z"/></svg>