<svg xmlns="http://www.w3.org/2000/svg" viewBox="0 0 512 512"><path d="M486 8h-289c-14 0-25 12-25 28v63h-146c-14 0-26 12-26 28v238c0 16 12 28 26 28h34v40c0 2 1 5 4 7l3 1c2 0 3-1 4-2l70-46h173c14 0 26-12 26-28v-63h28l72 47c1 1 3 1 4 1s3 0 4-1c2-1 4-4 4-7v-40h34c14 0 26-13 26-28v-239c0-15-12-27-26-27zm-161 357c0 7-4 13-10 13h-178c-1 0-1 0-2 1l-60 39v-66c0-4-4-8-8-8s-7 4-7 8v26h-34c-6 0-11-6-11-13v-79h53c2 0 3-2 3-4s-1-3-3-3h-53v-28h53c2 0 3-2 3-4s-1-4-3-4h-53v-29h53c2 0 3-2 3-4s-1-4-3-4h-53v-79c0-7 5-13 11-13h289c5 0 10 6 10 13zm172-91c0 7-5 12-11 12h-34v-24c0-5-3-8-7-8-5 0-8 4-8 8v66l-58-38c-1-2-4-4-7-4h-32v-91h111c1 0 2-2 2-4s-1-4-2-4h-111v-27h111c1 0 2-2 2-4s-1-4-2-4h-111v-30h111c1 0 2-1 2-3 0-3-1-4-2-4h-113c-4-10-13-16-23-16h-128v-64c0-7 5-12 10-12h289c6 0 11 6 11 12zm-365-48c0 7-5 12-12 12s-12-5-12-12 5-12 12-12 12 5 12 12zm101 0c0 6-5 12-11 12s-12-6-12-12 6-11 12-11 11 5 11 11zm-22 45c-10 10-24 16-38 16-15 0-29-5-39-15-1-2-5-2-7 0-1 2-1 5 0 7 12 11 29 17 46 17s33-6 45-18c2-2 2-5 0-7-2-1-5-1-7 0z"/></svg>