<?xml version="1.0" encoding="UTF-8" standalone="no"?>
<svg width="16px" height="32px" viewBox="0 0 16 32" version="1.1" xmlns="http://www.w3.org/2000/svg" xmlns:xlink="http://www.w3.org/1999/xlink">
    <!-- Generator: Sketch 3.7.1 (28215) - http://www.bohemiancoding.com/sketch -->
    <title>fb-20px</title>
    <desc>Created with Sketch.</desc>
    <defs></defs>
    <g id="Page-1" stroke="none" stroke-width="1" fill="none" fill-rule="evenodd">
        <g id="577-585" transform="translate(-364.000000, -104.000000)" fill="#000000">
            <g id="fb-20px" transform="translate(364.000000, 104.000000)">
                <path d="M2.36363636,11.4996364 C2.15854545,11.4996364 2.02327273,11.568 2.02327273,11.7047273 L2.02327273,14.5687273 C2.02327273,14.7054545 2.16,14.8421818 2.36363636,14.8421818 L4.95418182,14.8421818 L4.95418182,29.0923636 C4.95418182,29.2974545 5.02254545,29.3658182 5.22763636,29.3658182 L8.90909091,29.3658182 C9.04581818,29.3658182 9.18254545,29.2974545 9.18254545,29.0923636 L9.18254545,14.8421818 L13.0690909,14.8421818 C13.2741818,14.8421818 13.3425455,14.7054545 13.3425455,14.5687273 L13.6829091,11.7730909 C13.6829091,11.7047273 13.6829091,11.6363636 13.6145455,11.568 C13.5461818,11.4996364 13.4778182,11.4996364 13.4094545,11.4996364 L9.18254545,11.4996364 L9.18254545,7.61309091 C9.18254545,5.97672727 10.2734545,5.29454545 11.3643636,5.29454545 L13.4094545,5.29454545 C13.6145455,5.29454545 13.7498182,5.15781818 13.7498182,5.02109091 L13.7498182,2.36218182 C13.7498182,2.15709091 13.6130909,2.02181818 13.4094545,2.02181818 L10.1367273,2.02181818 C5.43272727,2.02181818 4.95418182,5.70327273 4.95418182,7.27127273 L4.95418182,11.4981818 L2.36363636,11.4981818 L2.36363636,11.4996364 Z M8.90909091,31.136 L5.22763636,31.136 C4.06836364,31.136 3.18254545,30.2501818 3.18254545,29.0909091 L3.18254545,16.6138182 L2.36363636,16.6138182 C1.20436364,16.6138182 0.318545455,15.728 0.318545455,14.5687273 L0.318545455,11.7047273 C0.318545455,10.6138182 1.20436364,9.728 2.36363636,9.728 L3.18254545,9.728 L3.18254545,7.27272727 C3.18254545,3.86327273 5.024,0.318545455 10.1367273,0.318545455 L13.4094545,0.318545455 C14.5687273,0.318545455 15.5229091,1.20436364 15.5229091,2.36363636 L15.5229091,5.02254545 C15.5229091,6.11345455 14.5687273,7.06763636 13.4094545,7.06763636 L11.3643636,7.06763636 C11.0909091,7.06763636 10.9556364,7.136 10.9556364,7.61309091 L10.9556364,9.72654545 L13.4109091,9.72654545 C13.9563636,9.72654545 14.5018182,10 14.9105455,10.4087273 C15.3192727,10.8174545 15.5243636,11.3629091 15.456,11.9083636 L15.1156364,14.7723636 C14.9789091,15.7949091 14.1614545,16.6138182 13.0705455,16.6138182 L10.9570909,16.6138182 L10.9570909,29.0909091 C10.9570909,30.2501818 10.0712727,31.136 8.912,31.136 L8.90909091,31.136 Z" id="Shape"></path>
            </g>
        </g>
    </g>
</svg>