<?xml version="1.0" encoding="UTF-8" standalone="no"?>
<svg width="21px" height="22px" viewBox="0 0 21 22" version="1.1" xmlns="http://www.w3.org/2000/svg" xmlns:xlink="http://www.w3.org/1999/xlink">
    <!-- Generator: Sketch 3.7.2 (28276) - http://www.bohemiancoding.com/sketch -->
    <title>feed_inactive-new-ui</title>
    <desc>Created with Sketch.</desc>
    <defs>
        <polygon id="path-1" points="20.5885723 10.7703666 20.5885723 0.160762173 1.21236354e-12 0.160762173 1.21236354e-12 10.7703666 1.21236354e-12 21.3799711 20.5885723 21.3799711 20.5885723 10.7703666"></polygon>
    </defs>
    <g id="Page-1" stroke="none" stroke-width="1" fill="none" fill-rule="evenodd">
        <g id="577-585" transform="translate(-525.000000, -275.000000)">
            <g id="feed_inactive-new-ui" transform="translate(520.000000, 270.000000)">
                <rect id="Rectangle-29" x="0" y="0" width="32" height="32"></rect>
                <g id="Page-1" transform="translate(5.333333, 5.333333)">
                    <g id="Group-5" transform="translate(0.000000, 0.250559)">
                        <mask id="mask-2" fill="white">
                            <use xlink:href="#path-1"></use>
                        </mask>
                        <g id="Clip-4"></g>
                        <path d="M2.48939874,2.62753643 L2.48939874,15.8441606 C2.48939874,17.5364806 3.87889814,18.9130324 5.58662568,18.9130324 L15.0015317,18.9130324 C16.7092593,18.9130324 18.0991736,17.5364806 18.0991736,15.8441606 L18.0991736,2.62753643 L2.48939874,2.62753643 Z M15.0015317,21.3799711 L5.58662568,21.3799711 C2.50640963,21.3799711 1.21236354e-12,18.8965861 1.21236354e-12,15.8441606 L1.21236354e-12,2.35041698 C1.21236354e-12,1.14326163 0.991195599,0.16059771 2.20975628,0.16059771 L18.3784011,0.16059771 C19.5969618,0.16059771 20.5885723,1.14326163 20.5885723,2.35041698 L20.5885723,15.8441606 C20.5885723,18.8965861 18.0821627,21.3799711 15.0015317,21.3799711 L15.0015317,21.3799711 Z" id="Fill-3" fill="#000000" mask="url(#mask-2)"></path>
                    </g>
                    <path d="M14.0188831,8.44075416 L6.13578704,8.44075416 C5.44829809,8.44075416 4.89108767,7.88857105 4.89108767,7.20728481 C4.89108767,6.52599856 5.44829809,5.97381545 6.13578704,5.97381545 L14.0188831,5.97381545 C14.706372,5.97381545 15.2635824,6.52599856 15.2635824,7.20728481 C15.2635824,7.88857105 14.706372,8.44075416 14.0188831,8.44075416" id="Fill-6" fill="#000000"></path>
                    <path d="M14.0188831,12.5523187 L6.13578704,12.5523187 C5.44829809,12.5523187 4.89108767,12.0001356 4.89108767,11.3188493 C4.89108767,10.6375631 5.44829809,10.08538 6.13578704,10.08538 L14.0188831,10.08538 C14.706372,10.08538 15.2635824,10.6375631 15.2635824,11.3188493 C15.2635824,12.0001356 14.706372,12.5523187 14.0188831,12.5523187" id="Fill-8" fill="#000000"></path>
                    <path d="M14.0188831,16.6638832 L6.13578704,16.6638832 C5.44829809,16.6638832 4.89108767,16.1117001 4.89108767,15.4304139 C4.89108767,14.7491276 5.44829809,14.1969445 6.13578704,14.1969445 L14.0188831,14.1969445 C14.706372,14.1969445 15.2635824,14.7491276 15.2635824,15.4304139 C15.2635824,16.1117001 14.706372,16.6638832 14.0188831,16.6638832" id="Fill-10" fill="#000000"></path>
                </g>
            </g>
        </g>
    </g>
</svg>