<?xml version="1.0" encoding="UTF-8" standalone="no"?>
<svg width="32px" height="28px" viewBox="0 0 32 28" version="1.1" xmlns="http://www.w3.org/2000/svg" xmlns:xlink="http://www.w3.org/1999/xlink">
    <!-- Generator: Sketch 3.7.2 (28276) - http://www.bohemiancoding.com/sketch -->
    <title>filters-new-ui</title>
    <desc>Created with Sketch.</desc>
    <defs>
        <polygon id="path-1" points="31.9548235 3.04372508 31.9548235 0.260652063 0.00018401948 0.260652063 0.00018401948 3.04372508"></polygon>
        <polygon id="path-3" points="7.48712157 0.422107937 0.183592157 0.422107937 0.183592157 7.787 7.48712157 7.787 7.48712157 0.422107937"></polygon>
        <polygon id="path-5" points="0.0405647059 7.59365079 7.34409412 7.59365079 7.34409412 0.228189206 0.0405647059 0.228189206"></polygon>
        <polygon id="path-7" points="31.9548235 3.04372508 31.9548235 0.260652063 0.00018401948 0.260652063 0.00018401948 3.04372508 31.9548235 3.04372508"></polygon>
        <polygon id="path-9" points="31.9548235 3.04372508 31.9548235 0.260652063 0.00018401948 0.260652063 0.00018401948 3.04372508 31.9548235 3.04372508"></polygon>
    </defs>
    <g id="Page-1" stroke="none" stroke-width="1" fill="none" fill-rule="evenodd">
        <g id="577-585" transform="translate(-260.000000, -106.000000)">
            <g id="filters-new-ui" transform="translate(260.000000, 106.000000)">
                <g id="Group-3" transform="translate(0.000000, 2.632430)">
                    <mask id="mask-2" fill="white">
                        <use xlink:href="#path-1"></use>
                    </mask>
                    <g id="Clip-2"></g>
                    <path d="M30.5432471,3.04182667 L30.5394824,3.04182667 L1.40818824,3.04372508 C0.627011765,3.04182667 -0.00169411765,2.44572508 0.000188235294,1.65978222 C0.00207058824,0.873839365 0.638305882,0.346080635 1.41571765,0.260652063 L30.5470118,0.353674286 C31.3281882,0.355572698 31.9568941,0.915604444 31.9550118,1.7015473 C31.9531294,2.48749016 31.3206588,3.04182667 30.5432471,3.04182667" id="Fill-1" fill="#000000" mask="url(#mask-2)"></path>
                </g>
                <g id="Group-6" transform="translate(16.125490, 0.156239)">
                    <mask id="mask-4" fill="white">
                        <use xlink:href="#path-3"></use>
                    </mask>
                    <g id="Clip-5"></g>
                    <path d="M7.48712157,4.10407937 C7.48712157,6.13727937 5.85323922,7.787 3.83535686,7.787 C1.81935686,7.787 0.183592157,6.13727937 0.183592157,4.10407937 C0.183592157,2.07087937 1.81935686,0.42115873 3.83535686,0.42115873 C5.85323922,0.42115873 7.48712157,2.07087937 7.48712157,4.10407937" id="Fill-4" fill="#000000" mask="url(#mask-4)"></path>
                </g>
                <path d="M15.1188706,13.7812381 C15.1188706,15.8144381 13.4849882,17.4641587 11.4671059,17.4641587 C9.45110588,17.4641587 7.81534118,15.8144381 7.81534118,13.7812381 C7.81534118,11.7480381 9.45110588,10.0983175 11.4671059,10.0983175 C13.4849882,10.0983175 15.1188706,11.7480381 15.1188706,13.7812381" id="Fill-7" fill="#000000"></path>
                <g id="Group-11" transform="translate(16.058824, 19.718144)">
                    <mask id="mask-6" fill="white">
                        <use xlink:href="#path-5"></use>
                    </mask>
                    <g id="Clip-10"></g>
                    <path d="M7.34409412,3.91110984 C7.34409412,5.94430984 5.71021176,7.59403048 3.69232941,7.59403048 C1.67632941,7.59403048 0.0405647059,5.94430984 0.0405647059,3.91110984 C0.0405647059,1.87790984 1.67632941,0.228189206 3.69232941,0.228189206 C5.71021176,0.228189206 7.34409412,1.87790984 7.34409412,3.91110984" id="Fill-9" fill="#000000" mask="url(#mask-6)"></path>
                </g>
                <g id="Group-14" transform="translate(0.000000, 12.124493)">
                    <mask id="mask-8" fill="white">
                        <use xlink:href="#path-7"></use>
                    </mask>
                    <g id="Clip-13"></g>
                    <path d="M30.5432471,3.04182667 L30.5394824,3.04182667 L1.40818824,3.04372508 C0.627011765,3.04182667 -0.00169411765,2.44572508 0.000188235294,1.65978222 C0.00207058824,0.873839365 0.638305882,0.346080635 1.41571765,0.260652063 L30.5470118,0.353674286 C31.3281882,0.355572698 31.9568941,0.915604444 31.9550118,1.7015473 C31.9531294,2.48749016 31.3206588,3.04182667 30.5432471,3.04182667" id="Fill-12" fill="#000000" mask="url(#mask-8)"></path>
                </g>
                <g id="Group-17" transform="translate(0.000000, 21.616557)">
                    <mask id="mask-10" fill="white">
                        <use xlink:href="#path-9"></use>
                    </mask>
                    <g id="Clip-16"></g>
                    <path d="M30.5432471,3.04182667 L30.5394824,3.04182667 L1.40818824,3.04372508 C0.627011765,3.04182667 -0.00169411765,2.44572508 0.000188235294,1.65978222 C0.00207058824,0.873839365 0.638305882,0.346080635 1.41571765,0.260652063 L30.5470118,0.353674286 C31.3281882,0.355572698 31.9568941,0.915604444 31.9550118,1.7015473 C31.9531294,2.48749016 31.3206588,3.04182667 30.5432471,3.04182667" id="Fill-15" fill="#000000" mask="url(#mask-10)"></path>
                </g>
            </g>
        </g>
    </g>
</svg>