<?xml version="1.0" encoding="UTF-8" standalone="no"?>
<svg width="30px" height="29px" viewBox="0 0 30 29" version="1.1" xmlns="http://www.w3.org/2000/svg" xmlns:xlink="http://www.w3.org/1999/xlink">
    <!-- Generator: Sketch 3.7.2 (28276) - http://www.bohemiancoding.com/sketch -->
    <title>find-a-foodie-new-ui</title>
    <desc>Created with Sketch.</desc>
    <defs>
        <polygon id="path-1" points="26.484638 0.202941176 0 0.202941176 0 27.1247647 26.484638 27.1247647 26.484638 0.202941176"></polygon>
        <polygon id="path-3" points="4.06949935 7.82352941 7.85763889 7.82352941 7.85763889 0.0374057377 0.281359811 0.0374057377 0.281359811 7.82352941 4.06949935 7.82352941"></polygon>
    </defs>
    <g id="Page-1" stroke="none" stroke-width="1" fill="none" fill-rule="evenodd">
        <g id="577-585" transform="translate(-366.000000, -211.000000)">
            <g id="find-a-foodie-new-ui" transform="translate(366.000000, 211.000000)">
                <path d="M13.2430556,15.1476471 C11.125,15.1476471 9.29340278,16.7482353 8.88368056,18.9558824 L17.5555556,18.9947059 C17.5711806,18.9947059 17.5833333,18.9876471 17.5954861,18.9752941 C17.1927083,16.7482353 15.359375,15.1476471 13.2430556,15.1476471 M17.5555556,20.7594118 L8.93055556,20.7594118 C8.39756944,20.7594118 7.89583333,20.5194118 7.55555556,20.1011765 C7.21875,19.69 7.08159722,19.1535294 7.17708333,18.6294118 C7.74131944,15.5888235 10.2916667,13.3829412 13.2430556,13.3829412 C16.1944444,13.3829412 18.7447917,15.5888235 19.3072917,18.6276471 C19.4045139,19.1517647 19.2673611,19.6882353 18.9322917,20.1011765 C18.5902778,20.5194118 18.0902778,20.7594118 17.5555556,20.7594118" id="Fill-1" fill="#000000"></path>
                <path d="M13.2703125,8.74811765 C12.6175347,8.74811765 12.0862847,9.28811765 12.0862847,9.95164706 C12.0862847,10.6169412 12.6175347,11.1569412 13.2703125,11.1569412 C13.9230903,11.1569412 14.4560764,10.6169412 14.4560764,9.95164706 C14.4560764,9.28811765 13.9230903,8.74811765 13.2703125,8.74811765 M13.2703125,12.9216471 C11.6592014,12.9216471 10.3501736,11.5892941 10.3501736,9.95164706 C10.3501736,8.314 11.6592014,6.98341176 13.2703125,6.98341176 C14.8814236,6.98341176 16.1921875,8.314 16.1921875,9.95164706 C16.1921875,11.5892941 14.8814236,12.9216471 13.2703125,12.9216471" id="Fill-3" fill="#000000"></path>
                <g id="Group-7" transform="translate(0.000000, 0.311412)">
                    <mask id="mask-2" fill="white">
                        <use xlink:href="#path-1"></use>
                    </mask>
                    <g id="Clip-6"></g>
                    <path d="M13.2498264,1.97064706 C12.6699653,1.97064706 12.0831597,2.01476471 11.4928819,2.10829412 C8.45642361,2.583 5.7828125,4.23123529 3.96510417,6.74947059 C2.14913194,9.26770588 1.40607639,12.3559412 1.87309028,15.4424118 C2.34010417,18.5306471 3.96163194,21.2465294 6.44079861,23.0941765 C8.91822917,24.9418235 11.9546875,25.6971176 14.9911458,25.2224118 C21.2619792,24.2412353 25.5779514,18.2588824 24.6126736,11.8865294 C23.7394097,6.11417647 18.8262153,1.97064706 13.2498264,1.97064706 M13.2133681,27.1247647 C10.4217014,27.1247647 7.70989583,26.2282941 5.41302083,24.5165294 C2.56232639,22.3918235 0.694270833,19.2647647 0.156076389,15.7124118 C-0.382118056,12.1582941 0.475520833,8.60594118 2.56579861,5.70652941 C4.6578125,2.80711765 7.73420139,0.910058824 11.2289931,0.363 C14.7255208,-0.185823529 18.2203125,0.685941176 21.0727431,2.81241176 C23.9234375,4.93711765 25.7914931,8.06594118 26.3296875,11.6182941 C27.4390625,18.9524118 22.4720486,25.8365294 15.2567708,26.9659412 C14.5744792,27.0735882 13.8921875,27.1247647 13.2133681,27.1247647" id="Fill-5" fill="#000000" mask="url(#mask-2)"></path>
                </g>
                <g id="Group-10" transform="translate(22.083333, 20.723176)">
                    <mask id="mask-4" fill="white">
                        <use xlink:href="#path-3"></use>
                    </mask>
                    <g id="Clip-9"></g>
                    <path d="M6.98993056,7.82352941 C6.76597222,7.82352941 6.54201389,7.73529412 6.371875,7.56058824 L0.531597222,1.53941176 C0.194791667,1.19176471 0.198263889,0.634117647 0.540277778,0.291764706 C0.880555556,-0.0505882353 1.43090278,-0.0470588235 1.76770833,0.300588235 L7.60798611,6.32176471 C7.94479167,6.66941176 7.94131944,7.22705882 7.59930556,7.56941176 C7.42916667,7.73882353 7.21041667,7.82352941 6.98993056,7.82352941" id="Fill-8" fill="#000000" mask="url(#mask-4)"></path>
                </g>
            </g>
        </g>
    </g>
</svg>