<?xml version="1.0" encoding="UTF-8" standalone="no"?>
<svg width="31px" height="21px" viewBox="0 0 31 21" version="1.1" xmlns="http://www.w3.org/2000/svg" xmlns:xlink="http://www.w3.org/1999/xlink">
    <!-- Generator: Sketch 3.7.1 (28215) - http://www.bohemiancoding.com/sketch -->
    <title>fine-dine-icon</title>
    <desc>Created with Sketch.</desc>
    <defs></defs>
    <g id="Page-1" stroke="none" stroke-width="1" fill="none" fill-rule="evenodd">
        <g id="577-585" transform="translate(-417.000000, -104.000000)" fill="#000000">
            <g id="fine-dine-icon" transform="translate(416.000000, 104.000000)">
                <path d="M31.28064,17.20064 L28.04096,17.20064 C28.2816,17.02016 28.4608,16.66048 28.58112,16.24064 C28.64128,15.88096 28.82176,15.70048 29.2416,15.76064 C29.60128,15.76064 29.78176,15.58016 29.78176,15.28064 C29.78176,14.98112 29.60128,14.80064 29.2416,14.80064 C28.94208,14.80064 28.82176,14.80064 28.7616,14.44096 C28.52096,9.46048 25.04192,5.08032 20.18176,3.58144 C19.28192,3.28192 18.2016,3.22176 17.2416,3.04128 L17.00096,3.04128 L17.00096,2.56128 L17.18144,2.56128 C17.84192,2.50112 18.32192,2.14144 18.38208,1.54112 C18.5024,1.00096 18.2016,0.40064 17.60256,0.22144 C17.5424,0.16128 17.5424,0.04096 17.48224,0.04096 L15.6224,0.04096 C15.1424,0.4608 14.72256,0.58112 14.6624,1.18144 C14.60224,1.84192 15.08224,2.44096 15.74272,2.50112 C15.86304,2.50112 15.86304,2.56128 16.04224,2.56128 L16.04224,3.04128 C12.80256,3.22176 10.10176,4.36096 7.88224,6.58176 C5.60256,8.86144 4.40192,11.6224 4.22272,14.80192 C3.86304,14.86208 3.4432,14.74176 3.26272,15.10144 L3.26272,15.40096 C3.4432,15.70048 3.6224,15.76064 3.9232,15.76064 C4.22272,15.70048 4.4032,15.8208 4.46336,16.12032 C4.58368,16.54016 4.76288,17.02016 5.00352,17.20064 L1.824,17.20064 C1.344,17.20064 1.10336,17.62048 1.40416,17.92128 L2.90432,19.42144 C3.50464,20.02176 4.40448,20.4416 5.36448,20.4416 L27.86432,20.4416 C28.88448,20.4416 29.78432,20.02176 30.38464,19.36128 L31.70432,17.92128 C32.00384,17.62176 31.76448,17.20064 31.28448,17.20064 L31.28064,17.20064 Z M5.24032,14.91968 L5.18016,14.91968 C5.18016,14.67904 5.24032,14.43968 5.24032,14.19904 L5.24032,14.91968 L5.24032,14.91968 Z M21.68064,6.27968 C25.22112,7.59936 25.76128,10.59968 25.88032,11.80032 C25.88032,11.9808 25.69984,11.9808 25.5808,11.86048 C24.20096,9.28 22.34112,7.29984 21.56032,6.52032 C21.44,6.4 21.56032,6.2208 21.68064,6.27968 L21.68064,6.27968 Z M26.65984,16.60032 C21.85984,16.60032 17.05984,16.66048 12.25984,16.66048 C10.27968,16.66048 8.29952,16.60032 6.37952,16.60032 C5.7792,16.60032 5.47968,16.60032 5.41952,15.64032 L27.68,15.64032 C27.61984,16.41984 27.32032,16.60032 26.65984,16.60032 L26.65984,16.60032 Z" id="Shape"></path>
            </g>
        </g>
    </g>
</svg>