<svg xmlns="http://www.w3.org/2000/svg" viewBox="0 0 512 512"><path d="M518 10h-481c-9 0-15 7-15 15 0 9 6 15 15 15h82v413c0 36 29 65 64 65h286c35 0 64-29 64-65v-427c1-9-6-16-15-16zm-199 176c0 28-18 52-46 60v194c0 9-7 16-16 16s-17-7-17-16v-194c-27-8-46-32-45-60v-81c0-9 7-17 16-17s16 8 16 17v81c0 9 5 19 14 24v-105c0-9 7-17 16-17s16 8 16 17v105c9-5 14-15 14-24v-81c0-9 7-17 16-17s16 8 16 17zm139 0c0 28-19 52-46 60v194c0 9-8 16-17 16s-16-7-16-16v-194c-27-8-46-32-46-60v-35c0-35 28-63 62-63 35 0 63 28 63 63z"/></svg>