<?xml version="1.0" encoding="UTF-8" standalone="no"?>
<svg width="29px" height="28px" viewBox="0 0 29 28" version="1.1" xmlns="http://www.w3.org/2000/svg" xmlns:xlink="http://www.w3.org/1999/xlink">
    <!-- Generator: Sketch 3.7.2 (28276) - http://www.bohemiancoding.com/sketch -->
    <title>free-meal-new-ui</title>
    <desc>Created with Sketch.</desc>
    <defs>
        <polygon id="path-1" points="0.296895493 16.12686 24.7419899 16.12686 24.7419899 0.548797046 0.296895493 0.548797046"></polygon>
        <polygon id="path-3" points="9.7233279 0.425749104 0.501859216 0.425749104 0.501859216 5.35508513 9.7233279 5.35508513 9.7233279 0.425749104"></polygon>
    </defs>
    <g id="Page-1" stroke="none" stroke-width="1" fill="none" fill-rule="evenodd">
        <g id="577-585" transform="translate(-626.000000, -158.000000)">
            <g id="free-meal-new-ui" transform="translate(626.000000, 158.000000)">
                <g id="Group-3" transform="translate(1.612686, 11.569087)">
                    <mask id="mask-2" fill="white">
                        <use xlink:href="#path-1"></use>
                    </mask>
                    <g id="Clip-2"></g>
                    <path d="M1.90958149,2.16148305 L1.90958149,12.4826734 C1.90958149,13.6034902 2.82074908,14.5146578 3.94156585,14.5146578 L21.0973195,14.5146578 C22.2181363,14.5146578 23.1293039,13.6034902 23.1293039,12.4826734 L23.1293039,2.16148305 L1.90958149,2.16148305 Z M21.0973195,16.1273438 L3.94156585,16.1273438 C1.9321591,16.1273438 0.296895493,14.4920802 0.296895493,12.4826734 L0.296895493,1.61316981 C0.296895493,1.0261521 0.774250548,0.548797046 1.36126825,0.548797046 L23.9356469,0.548797046 C24.3807482,0.548797046 24.7419899,0.91003871 24.7419899,1.35514005 L24.7419899,12.4826734 C24.7419899,14.4920802 23.1067263,16.1273438 21.0973195,16.1273438 L21.0973195,16.1273438 Z" id="Fill-1" fill="#000000" mask="url(#mask-2)"></path>
                </g>
                <path d="M1.612686,12.065149 L26.6157697,12.065149 L26.6157697,7.91732065 C26.6157697,7.09646347 25.9481177,6.42881147 25.1272606,6.42881147 L2.5915864,6.42881147 C2.05133659,6.42881147 1.612686,6.86746206 1.612686,7.40771187 L1.612686,12.065149 Z M27.4221127,13.677835 L0.806343,13.677835 C0.361241664,13.677835 0,13.3165934 0,12.871492 L0,7.40771187 C0,5.97887208 1.16274661,4.81612547 2.5915864,4.81612547 L25.1272606,4.81612547 C26.8367077,4.81612547 28.2284557,6.20787349 28.2284557,7.91732065 L28.2284557,12.871492 C28.2284557,13.3165934 27.8672141,13.677835 27.4221127,13.677835 L27.4221127,13.677835 Z" id="Fill-4" fill="#000000"></path>
                <path d="M13.8124943,26.8492867 C13.8108816,26.8492867 13.814107,26.8492867 13.8124943,26.8492867 C13.367393,25.2366007 12.925517,27.3379305 12.9271297,26.8912165 L13.0255036,6.29721629 C13.0271162,5.85372764 13.3883579,5.52796507 13.8318466,5.52796507 L13.8350719,5.52796507 C14.2801733,5.52796507 14.6398022,5.65859264 14.6381896,6.10369397 L14.5398157,27.017006 C14.538203,27.4604947 14.255983,26.8492867 13.8124943,26.8492867" id="Fill-6" fill="#000000"></path>
                <g id="Group-10" transform="translate(4.838058, 0.280285)">
                    <mask id="mask-4" fill="white">
                        <use xlink:href="#path-3"></use>
                    </mask>
                    <g id="Clip-9"></g>
                    <path d="M2.20405796,4.05848559 L7.38561807,4.1955639 C6.5873385,3.18924783 5.25687255,1.9378035 3.63289775,2.08455792 C3.37486799,2.11519896 2.57820111,2.31839739 2.26695271,2.84897109 C2.08955725,3.15054337 2.06859233,3.55532756 2.20405796,4.05848559 M8.91766977,5.24703517 L8.89509217,5.24703517 L1.60252608,5.35508513 C1.28321425,5.3470217 0.999381514,5.30025381 0.878430064,5.00513227 C0.373659346,3.77465285 0.376884718,2.79413976 0.884880808,1.94264156 C1.66542083,0.633140524 3.29423369,0.462195808 3.4780799,0.44123089 C7.25660319,0.123531748 9.53855388,4.46972052 9.63370236,4.65517941 C9.76432992,4.90837111 9.75142843,4.91965991 9.59983595,5.16156281 C9.45308152,5.39701497 9.19343908,5.24703517 8.91766977,5.24703517" id="Fill-8" fill="#000000" mask="url(#mask-4)"></path>
                </g>
                <path d="M18.7797285,2.39451617 C17.3170223,2.39451617 16.2300719,3.51694563 15.5882229,4.42650053 L20.3408085,4.37973264 C20.4585346,3.86689849 20.4230555,3.4508255 20.2359839,3.1395771 C19.881193,2.54610866 19.0329202,2.40580497 19.0248567,2.40580497 C18.9426098,2.39774154 18.8603628,2.39451617 18.7797285,2.39451617 L18.7797285,2.39451617 Z M14.1819607,5.52796507 C13.9110294,5.52796507 13.6594504,5.65536726 13.5094706,5.42959122 C13.3594908,5.20381518 13.3336878,5.04577196 13.4417378,4.79580563 C13.5191467,4.61518479 15.402764,0.418975823 19.2022522,0.738287651 C19.4070633,0.764090627 20.8713822,1.03018382 21.6196685,2.27840278 C22.13089,3.12990099 22.1550803,4.20717524 21.6954648,5.44571808 C21.5777387,5.75857917 21.2810045,5.71342396 20.9471785,5.71664933 L14.1900241,5.52796507 L14.1819607,5.52796507 Z" id="Fill-11" fill="#000000"></path>
            </g>
        </g>
    </g>
</svg>