<svg xmlns="http://www.w3.org/2000/svg" viewBox="0 0 512 512"><path d="M198 173c-4-6-12-6-17-2l-78 62c-3 3-5 6-5 10 0 3 2 7 5 9l77 62c2 1 5 2 7 2 4 0 7-1 10-4 4-5 3-13-2-17l-66-52 67-54c5-4 6-11 2-16zm135-3c-5-3-13-2-17 3s-3 13 3 17l70 52-71 53c-6 4-7 11-3 16 2 4 6 5 10 5 2 0 5-1 7-2l85-63c3-2 4-6 4-9 0-4-1-8-4-10zm-30-57c-6-2-13 1-15 8l-86 261c-2 6 2 13 8 15l4 1c5 0 9-4 11-9l86-261c2-6-2-13-8-15zm171-140h-436c-18 0-34 15-34 33v436c0 18 16 33 34 33h436c18 0 33-15 33-33v-436c1-18-15-33-33-33zm-436 23h436c5 0 10 5 10 10v36h-456v-36c0-5 5-10 10-10zm436 456h-436c-5 0-10-5-10-10v-376h456v376c0 5-5 10-10 10z"/></svg>