<?xml version="1.0" encoding="UTF-8" standalone="no"?>
<svg width="28px" height="28px" viewBox="0 0 28 28" version="1.1" xmlns="http://www.w3.org/2000/svg" xmlns:xlink="http://www.w3.org/1999/xlink">
    <!-- Generator: Sketch 3.7.2 (28276) - http://www.bohemiancoding.com/sketch -->
    <title>go-to-current-location-new-ui</title>
    <desc>Created with Sketch.</desc>
    <defs></defs>
    <g id="Page-1" stroke="none" stroke-width="1" fill="none" fill-rule="evenodd">
        <g id="577-585" transform="translate(-418.000000, -54.000000)" fill="#000000">
            <g id="go-to-current-location-new-ui" transform="translate(418.000000, 54.000000)">
                <path d="M13.8271,7.62506667 C10.1381,7.62506667 7.1365,10.4837333 7.1365,13.9970667 C7.1365,17.5117333 10.1381,20.3690667 13.8271,20.3690667 C17.5161,20.3690667 20.5177,17.5117333 20.5177,13.9970667 C20.5177,10.4837333 17.5161,7.62506667 13.8271,7.62506667 M13.8271,22.3690667 C8.9803,22.3690667 5.0365,18.6130667 5.0365,13.9970667 C5.0365,9.38106667 8.9803,5.62506667 13.8271,5.62506667 C18.6739,5.62506667 22.6177,9.38106667 22.6177,13.9970667 C22.6177,18.6130667 18.6739,22.3690667 13.8271,22.3690667" id="Fill-1"></path>
                <path d="M17.18542,13.8937333 C17.18542,15.6684 15.67482,17.1070667 13.81142,17.1070667 C11.94802,17.1070667 10.43742,15.6684 10.43742,13.8937333 C10.43742,12.1190667 11.94802,10.6804 13.81142,10.6804 C15.67482,10.6804 17.18542,12.1190667 17.18542,13.8937333" id="Fill-3"></path>
                <path d="M14,6.66666667 C13.2272,6.66666667 12.6,6.06933333 12.6,5.33333333 L12.6,1.33333333 C12.6,0.597333333 13.2272,0 14,0 C14.7728,0 15.4,0.597333333 15.4,1.33333333 L15.4,5.33333333 C15.4,6.06933333 14.7728,6.66666667 14,6.66666667" id="Fill-5"></path>
                <path d="M14,28 C13.2272,28 12.6,27.4026667 12.6,26.6666667 L12.6,22.6666667 C12.6,21.9306667 13.2272,21.3333333 14,21.3333333 C14.7728,21.3333333 15.4,21.9306667 15.4,22.6666667 L15.4,26.6666667 C15.4,27.4026667 14.7728,28 14,28" id="Fill-7"></path>
                <path d="M26.6,16 L22.4,16 C21.6272,16 21,15.4026667 21,14.6666667 C21,13.9306667 21.6272,13.3333333 22.4,13.3333333 L26.6,13.3333333 C27.3728,13.3333333 28,13.9306667 28,14.6666667 C28,15.4026667 27.3728,16 26.6,16" id="Fill-9"></path>
                <path d="M5.6,16 L1.4,16 C0.6272,16 0,15.4026667 0,14.6666667 C0,13.9306667 0.6272,13.3333333 1.4,13.3333333 L5.6,13.3333333 C6.3728,13.3333333 7,13.9306667 7,14.6666667 C7,15.4026667 6.3728,16 5.6,16" id="Fill-11"></path>
            </g>
        </g>
    </g>
</svg>