<svg xmlns="http://www.w3.org/2000/svg" viewBox="0 0 512 512"><path d="M261 262c-14-10-41-34-41-48 0-17 5-26 30-45 26-21 45-49 45-82 0-40-18-78-51-91h50l35-25h-158c-70 0-137 53-137 115 0 63 48 114 120 114 5 0 10 0 15-1-5 9-8 19-8 30 0 17 9 31 21 43h-27c-88 0-155 55-155 113 0 57 74 92 161 92 100 0 155-56 155-113 1-45-13-72-55-102zm-84-78c-41-1-79-45-86-98s20-94 61-93c41 2 79 44 86 97s-20 95-61 94zm-16 268c-60 0-104-38-104-84 0-45 54-82 115-81 14 0 27 2 39 6 33 23 56 35 63 61 1 6 2 11 2 16 0 46-30 82-115 82zm351-207h-84v85h-42v-85h-85v-42h85v-85h42v85h84v42z"/></svg>