<svg xmlns="http://www.w3.org/2000/svg" viewBox="0 0 512 512"><path d="M113 160c-60 0-108-28-108-63 0-36 48-63 111-63s108 27 108 63c0 35-47 63-111 63zm0-109c-52 0-90 25-90 46 0 20 38 43 90 43 53 0 91-23 91-43 0-21-38-46-91-46zm0 172c-60 0-108-28-108-63 0-15 8-28 25-41 3-2 8-2 10 0 18 13 46 21 76 21s58-8 76-21c2-2 7-2 10 0 15 10 25 26 25 41-3 35-50 63-114 63zm-78-83c-7 5-12 12-12 20 0 20 38 43 90 43 53 0 91-23 91-43 0-8-5-15-12-20-18 12-48 17-79 17-30 0-58-5-78-17zm78 146c-60 0-110-28-110-63 0-15 7-28 25-41 2-2 7-2 10 0 17 13 45 21 75 21 31 0 59-8 76-21 3-2 8-2 10 0 15 10 25 26 25 41 0 35-47 63-111 63zm-78-83c-7 5-12 12-12 20 0 20 38 43 90 43 53 0 91-23 91-43 0-8-5-15-12-20-18 12-48 20-79 20-30 0-58-8-78-20zm364 85c-61 0-111-27-111-63 0-35 47-63 111-63 63 0 110 28 110 63 0 36-47 63-110 63zm0-108c-53 0-91 23-91 43s38 43 91 43c52 0 90-23 90-43 0-18-38-43-90-43zm0 171c-61 0-111-27-111-63 0-15 7-27 25-40 2-3 7-3 10 0 17 13 45 20 76 20 30 0 58-7 75-20 3-3 8-3 10 0 15 10 25 25 25 40 0 36-47 63-110 63zm-79-83c-5 5-12 13-12 20 0 20 38 43 91 43 52 0 90-23 90-43 0-7-5-15-12-20-20 13-48 20-78 20-31 0-59-7-79-20zm79 146c-61 0-111-27-111-63 0-15 7-27 25-40 2-3 7-3 10 0 17 13 45 20 76 20 30 0 58-7 75-20 3-3 8-3 10 0 15 10 25 25 25 40 0 36-47 63-110 63zm-79-83c-5 5-12 13-12 20 0 21 38 43 91 43 52 0 90-22 90-43 0-7-5-15-12-20-20 13-48 20-78 20-31 0-59-7-79-20zm-207 20c-60 0-110-27-110-63 0-15 7-27 25-40 2-3 7-3 10 0 17 13 45 20 75 20 31 0 59-7 76-20 3-3 8-3 10 0 15 10 25 25 25 40 0 36-47 63-111 63zm-78-83c-5 5-12 13-12 20 0 20 38 43 90 43 53 0 91-23 91-43 0-7-5-15-12-20-20 13-48 20-79 20-30 0-58-7-78-20zm78 146c-60 0-110-27-110-63 0-15 7-27 25-40 2-3 7-3 10 0 17 13 45 20 75 20 31 0 59-7 76-20 3-3 8-3 10 0 15 10 25 25 25 40 0 36-47 63-111 63zm-78-83c-5 5-12 13-12 20 0 21 38 43 90 43 53 0 91-22 91-43 0-7-5-15-12-20-20 13-48 20-79 20-30 0-58-7-78-20z"/></svg>