<?xml version="1.0" encoding="UTF-8" standalone="no"?>
<svg width="28px" height="30px" viewBox="0 0 28 30" version="1.1" xmlns="http://www.w3.org/2000/svg" xmlns:xlink="http://www.w3.org/1999/xlink">
    <!-- Generator: Sketch 3.7.2 (28276) - http://www.bohemiancoding.com/sketch -->
    <title>invite-friends-to-zomato-new-ui</title>
    <desc>Created with Sketch.</desc>
    <defs>
        <polygon id="path-1" points="13.0175376 15.9310345 0 15.9310345 0 0.0814252874 26.0350752 0.0814252874 26.0350752 15.9310345 13.0175376 15.9310345"></polygon>
        <polygon id="path-3" points="11.4448552 0.399241379 0.0435448276 0.399241379 0.0435448276 11.7978966 11.4448552 11.7978966 11.4448552 0.399241379"></polygon>
    </defs>
    <g id="Page-1" stroke="none" stroke-width="1" fill="none" fill-rule="evenodd">
        <g id="577-585" transform="translate(-471.000000, -211.000000)">
            <g id="invite-friends-to-zomato-new-ui" transform="translate(471.000000, 211.000000)">
                <g id="Group-3" transform="translate(0.000000, 13.601644)">
                    <mask id="mask-2" fill="white">
                        <use xlink:href="#path-1"></use>
                    </mask>
                    <g id="Clip-2"></g>
                    <path d="M3.02247126,15.9310345 C2.1621954,15.9310345 1.33909195,15.5398391 0.765574713,14.8583448 C0.144264368,14.1202069 -0.117712644,13.1413333 0.0486781609,12.1748506 C1.25766667,5.16696552 6.74502299,0.0814252874 13.0961954,0.0814252874 C15.1548391,0.0814252874 16.5426092,0.279678161 18.4295517,1.36475862 C18.8543793,1.60726437 18.9995287,2.14891954 18.757023,2.57197701 C18.510977,2.99503448 17.971092,3.14018391 17.5480345,2.89944828 C15.9885632,2.002 14.9141034,1.85154023 13.0961954,1.85154023 C7.60883908,1.85154023 2.85608046,6.31931034 1.79401149,12.4757701 C1.71612644,12.9271494 1.83472414,13.3802989 2.11971264,13.7183908 C2.35867816,14.0033793 2.68083908,14.1609195 3.02247126,14.1609195 L23.1716897,14.1609195 C23.500931,14.1166667 23.8000805,13.9750575 23.9824023,13.736092 C24.2585402,13.3696782 24.3346552,12.6917241 24.1965862,11.8261379 C24.1187011,11.3428966 24.4479425,10.887977 24.9294138,10.8118621 C25.4126552,10.7304368 25.8675747,11.0632184 25.9436897,11.5446897 C26.1667241,12.9324598 25.9808621,14.0281609 25.3931839,14.8034713 C24.9117126,15.4407126 24.1983563,15.8177471 23.2725862,15.9257241 L3.02247126,15.9310345 Z" id="Fill-1" fill="#000000" mask="url(#mask-2)"></path>
                </g>
                <g id="Group-6" transform="translate(7.080460, 0.406241)">
                    <mask id="mask-4" fill="white">
                        <use xlink:href="#path-3"></use>
                    </mask>
                    <g id="Clip-5"></g>
                    <path d="M5.74508506,2.16847126 C3.57669425,2.16847126 1.81365977,3.93150575 1.81365977,6.09812644 C1.81365977,8.26474713 3.57669425,10.0277816 5.74508506,10.0277816 C7.91170575,10.0277816 9.67474023,8.26474713 9.67474023,6.09812644 C9.67474023,3.93150575 7.91170575,2.16847126 5.74508506,2.16847126 M5.74508506,11.7978966 C2.60136092,11.7978966 0.0435448276,9.24185057 0.0435448276,6.09812644 C0.0435448276,2.95617241 2.60136092,0.398356322 5.74508506,0.398356322 C8.88703908,0.398356322 11.4448552,2.95617241 11.4448552,6.09812644 C11.4448552,9.24185057 8.88703908,11.7978966 5.74508506,11.7978966" id="Fill-4" fill="#000000" mask="url(#mask-4)"></path>
                </g>
                <path d="M21.6355839,25.3736161 C21.1470322,25.3736161 20.7505264,24.9771103 20.7505264,24.4885586 L20.7505264,15.3388345 C20.7505264,14.8502828 21.1470322,14.453777 21.6355839,14.453777 C22.1241356,14.453777 22.5206414,14.8502828 22.5206414,15.3388345 L22.5206414,24.4885586 C22.5206414,24.9771103 22.1241356,25.3736161 21.6355839,25.3736161" id="Fill-7" fill="#000000"></path>
                <path d="M26.287269,21.0934782 L26.2837287,21.0934782 L17.1145333,21.0616161 C16.6259816,21.059846 16.231246,20.6775011 16.2330161,20.1889494 C16.2347862,19.7021678 16.6295218,19.3233632 17.1180736,19.3233632 L17.1216138,19.3233632 L26.2908092,19.3481448 C26.7793609,19.3499149 27.1740966,19.7358 27.1723264,20.2243517 C27.1705563,20.7111333 26.7740506,21.0934782 26.287269,21.0934782" id="Fill-9" fill="#000000"></path>
            </g>
        </g>
    </g>
</svg>