<svg xmlns="http://www.w3.org/2000/svg" viewBox="0 0 512 512"><path d="M497 444h-169l12-70 6 1h2c8 0 14-5 16-13 1-8-5-16-13-18l-6-1 10-52 5 1h3c7 0 14-5 15-12 1-9-4-17-13-18l-5-1 9-52 6 1h2c8 0 14-5 15-13 2-8-4-16-12-17l-6-1 9-53 6 1c1 1 2 1 3 1 7 0 14-6 15-13 1-9-4-17-13-18l-47-8 6-32 6 1c0 1 1 1 2 1 8 0 14-5 15-13 2-8-4-16-12-18l-21-3-36-7 5-26c1-9-4-17-13-18-8-2-16 4-17 13l-5 26-57-11c-8-1-16 5-18 13-1 8 5 16 13 18l6 1-6 31-47-8c-8-2-16 4-17 13-2 8 4 16 12 17l5 1-10 52-4-1c-9-1-17 4-18 13-1 8 4 16 13 18h3l-10 52h-2c-9-2-17 4-18 12-2 9 4 17 12 18h2l-10 52h-1c-8-2-16 4-17 13-2 8 4 16 12 17h1l-22 109h-84c-8 0-15 7-15 15 0 9 7 16 15 16h482c8 0 15-7 15-16 0-8-7-14-15-14zm-174-392l-5 31-73-12 6-32zm-125 42l156 27-9 52-157-27zm-16 82l157 27-9 53-158-28zm-16 82l159 28-10 52-159-28zm38 186l12-40 13 3-6 37zm50 0l8-45c1-8-4-16-12-18l-41-10c-8-2-16 3-19 11l-17 62h-43l20-104 160 29-13 75h-43z"/></svg>