<svg xmlns="http://www.w3.org/2000/svg" viewBox="0 0 512 512"><path d="M493 150c-13 47-50 79-87 79h-8c-22 42-59 74-103 86h2v94h35l19 71h-190l19-71h33v-94h4c-44-12-81-44-103-86h-8c-16 0-32-6-47-17-19-14-33-36-40-62-14-54 9-107 52-119 8-2 16-2 23-1v-35c0-15 12-27 27-27h270c8 0 14 3 19 8s8 12 8 19v35c7-1 15 0 23 2 43 11 66 64 52 118zm-399-6v-93c-6-1-12 0-17 1-32 9-48 50-37 93 6 21 17 39 32 51 11 8 22 12 34 12-8-20-12-41-12-64zm182 174c-6 1-13 2-20 2s-15-1-22-2v91h42zm-80 113l-8 27h136l-8-27zm201-436c0-2-1-3-2-4-1 0-2-1-4-1h-270c-3 0-6 2-6 5v149c0 85 63 155 141 155s141-70 141-155zm38 57c-5-1-11-2-17-1v93c0 23-4 44-11 64 27 0 55-26 65-63 11-43-5-84-37-93z"/></svg>