<svg xmlns="http://www.w3.org/2000/svg" viewBox="0 0 512 512"><path d="M487 50c4 5 7 11 10 16 1 1 1 2 1 3 9 18 14 39 14 61 0 91-59 144-122 199-41 36-82 73-116 123-4 7-11 10-18 10s-14-3-18-10c-34-50-75-87-116-123-63-55-122-108-122-199 0-80 65-145 145-145 16 0 31 3 45 8 4 1 8 3 10 5 9 9 9 23 0 32-6 6-14 8-22 5-11-4-22-5-33-5-56 0-101 45-101 100 0 72 47 114 108 167 33 30 71 63 104 106 33-43 70-76 104-106 59-53 106-95 107-164 0-94-83-102-83-102l-6-1h-11c-27 0-52 10-71 29l-2 2-87 87c-4 4-10 6-15 6-6 0-12-2-16-6-9-9-9-23 0-32l87-86 5-5 3-3c26-24 60-37 96-37 22 0 42 5 61 14 1 0 2 1 4 1 7 4 14 8 21 13 1 1 3 3 5 4-1 0 20 17 29 33z"/></svg>