<svg xmlns="http://www.w3.org/2000/svg" viewBox="0 0 512 512"><path d="M508 214c0-29-25-54-54-54h-174c5-29 15-84 15-120 0-49-28-72-54-72-25 0-44 18-44 43 0 104-97 187-177 187-5 0-8 2-11 5s-5 7-5 11v214c0 8 7 15 15 15 63 4 92 14 119 22 24 8 47 15 90 15h158c19 0 44-17 44-44 0-10-1-19-5-26 22-7 34-25 34-51 0-7-1-13-4-19 19-8 33-27 33-49 0-10-4-20-11-29 18-9 31-28 31-48zm-54 23h-29c-9 0-16 7-16 15 0 9 7 16 16 16 13 0 33 13 33 23 0 12-12 23-23 23h-29c-9 0-16 7-16 16 0 8 7 15 16 15 1 0 23 0 23 14 0 20-12 23-23 23h-29c-9 0-16 7-16 15 0 9 7 16 16 16 20 0 23 11 23 23 0 10-12 14-14 14h-158c-38 0-57-7-81-14-25-8-54-17-112-22v-185c92-10 193-102 193-218 0-9 8-12 13-12 12 0 24 13 24 41 0 47-19 131-19 132-1 5 0 9 3 13s7 6 12 6h193c12 0 23 11 23 23s-11 23-23 23z"/></svg>