<svg xmlns="http://www.w3.org/2000/svg" viewBox="0 0 512 512"><path d="M484 266l-77-78c-18-17-42-27-67-27-8 0-16 1-24 3 8-32 0-67-24-91l-78-77c-18-18-41-28-66-28-26 0-49 10-67 28l-53 53c-18 18-28 41-28 67 0 25 10 48 28 66l77 78c18 17 42 27 67 27 8 0 16-1 24-3-8 32 0 67 24 91l78 77c18 18 41 28 66 28 26 0 49-10 67-28l53-53c37-37 37-96 0-133zm-308-122c5-6 13-9 20-9 8 0 16 3 21 9l117 117c11 11 11 30 0 41-6 6-13 9-21 9-7 0-15-3-21-9l-116-116c-12-12-12-30 0-42zm-18-18c-8 8-13 18-15 28l-38-38 43-43 38 38c-11 3-20 8-28 15zm194 194c7-8 13-17 15-28l40 40-42 43-41-40c11-2 20-7 28-15zm-229-78l-78-77c-27-28-27-71 0-98l54-54c13-13 31-20 49-20 17 0 35 7 49 20l77 78c23 23 26 58 10 85l-44-44c0-2-1-3-3-4l-77-78c-4-3-8-5-12-5-5 0-9 2-13 5l-53 53c-7 7-7 18 0 25l78 77c0 1 1 2 2 2l45 45c-11 7-23 10-35 10-18 0-36-6-49-20zm344 139l-53 54c-14 13-32 20-49 20-18 0-36-7-49-20l-78-78c-23-23-26-58-10-84l45 45c0 1 1 2 2 2l77 78c4 3 8 5 13 5 4 0 8-2 12-5l53-53c7-7 7-18 0-25l-78-77c-1-2-2-3-4-3l-44-44c11-7 24-10 36-10 18 0 36 6 49 20l78 77c27 28 27 71 0 98z"/></svg>