<svg xmlns="http://www.w3.org/2000/svg" viewBox="0 0 512 512"><path d="M185 213c-11 11-17 25-17 41 0 15 6 30 17 41s26 17 41 17c16 0 30-7 41-17 11-11 17-26 17-41 0-16-6-31-17-41-22-22-60-22-82 0zm60 60c-10 10-28 10-38 0-5-5-8-12-8-19s3-14 8-19 12-8 19-8 14 3 19 8 8 12 8 19-3 14-8 19zm-158 60c-6-6-16-6-22 0s-6 16 0 22l60 60c3 3 7 5 11 5s8-2 11-5c6-6 6-16 0-22zm410-275l10-10c7-7 7-16 0-22l-53-53c-6-7-15-7-22 0l-10 10-10-10c-6-7-16-7-22 0-6 6-6 15 0 22l10 10-10 10-10-11c-6-6-16-6-22 0s-6 16 0 22l10 11-20 20c-6 6-6 16-1 22l-65 65c-18-10-37-15-56-15-45 0-81 28-92 70-58-7-105 18-125 66-21 53-5 119 41 165 32 32 74 50 115 50 38 0 72-15 93-41 14-18 28-47 23-93 27-7 49-26 61-51 14-30 11-65-6-97l65-65c6 6 16 6 21 0l21-21 10 10c3 3 7 5 11 5s8-2 11-5c7-6 7-16 0-22l-10-10 10-10 10 10c3 3 7 5 11 5s8-2 11-5c6-6 6-16 0-22zm-86 42c-6-6-15-6-21 0l-85 85c-5 5-6 14-2 20 17 25 21 54 11 77-10 21-29 34-53 37-4 0-8 3-11 6-2 4-3 8-2 12 7 34 2 62-15 82-15 19-40 30-68 30-33 0-67-15-93-41-43-43-48-97-34-131 13-31 40-48 76-48 9 0 19 1 29 4 4 1 9 0 12-3 4-2 6-7 7-11 3-34 30-58 64-58 17 0 34 5 49 16 6 4 15 3 20-2l85-85c6-6 6-16 1-21l20-21 42-42 31 31z"/></svg>