<svg xmlns="http://www.w3.org/2000/svg" viewBox="0 0 512 512"><path d="M455 217c-11 0-22 2-32 6l14-96c6-40-5-80-31-110-27-31-66-49-109-49h-82c-43 0-83 18-109 49-26 30-37 70-31 110l14 96c-10-4-21-6-32-6-35 0-57 34-57 57 0 24 14 47 34 55l3 1c12 5 13 7 13 10v41c0 47 26 78 66 82v2c0 8 7 15 15 15 9 0 16-7 16-15v-2h218v2c0 8 7 15 15 15 9 0 16-7 16-15v-2c40-4 66-35 66-82v-41c0-3 1-5 12-10l3-1c21-8 35-31 35-55 0-23-22-57-57-57zm-326-180c21-24 52-38 86-38h82c34 0 65 14 86 38 20 24 29 54 24 85l-19 126c-14 16-23 37-23 59v10c-20-7-55-14-109-14-55 0-89 7-109 14v-10c0-22-9-43-23-59l-19-126c-5-31 4-61 24-85zm337 264l-3 1c-10 4-32 13-32 38v41c0 32-16 51-42 51h-266c-27 0-43-19-43-51v-41c0-25-21-34-31-38l-3-1c-9-4-16-15-16-27 0-10 11-26 27-26 32 0 59 27 59 59v62l24-16c0-1 30-20 116-20s115 19 115 19l25 18v-63c0-33 27-60 59-60 15 0 26 17 26 26 0 13-6 24-15 28zm-279-108c3 3 7 5 11 5s8-2 11-5l7-7c9 12 24 20 40 20s30-8 39-20l8 7c3 3 7 5 11 5 3 0 8-2 10-5 6-6 6-15 0-21l-14-15 14-14c6-6 6-15 0-21s-15-6-21 0l-8 7c-9-12-23-20-40-20-16 0-30 8-39 20l-8-7c-6-6-15-6-21 0-6 5-6 15 0 21l14 14-14 15c-6 6-6 15 0 21zm69-53c10 0 18 8 18 18s-8 18-18 18-18-8-18-18 8-18 18-18z"/></svg>