<svg xmlns="http://www.w3.org/2000/svg" viewBox="0 0 512 512"><path d="M348 336h-184c-8 0-15-7-15-15v-194c0-8 7-15 15-15h184c8 0 15 7 15 15v194c0 8-7 15-15 15zm-168-31h153v-162h-153zm332-252v92c0 8-7 15-15 15-35 0-64 29-64 64 0 36 29 64 64 64 8 0 15 7 15 16v91c0 9-7 16-15 16h-481c-9 0-16-7-16-16v-92c0-8 7-15 16-15 35 0 64-29 64-64s-29-64-64-64c-9 0-16-7-16-15v-92c0-9 7-16 16-16h481c8 1 15 8 15 16zm-30 78v-63h-451v63c45 7 79 46 79 93s-34 86-79 94v62h451v-63c-46-7-80-46-80-93s34-86 80-93z"/></svg>