<svg xmlns="http://www.w3.org/2000/svg" viewBox="0 0 512 512"><path d="M511 138l1-5v-1c0-1-1-3-1-5-1 0-1-1-1-2l-1-1-108-150s-1 0-1-1c-1-1-2-2-3-2-1-1-2-1-3-1 0-1-1-1-1-1h-3l-1-1h-266l-1 1h-3s-1 0-1 1c-1 0-2 0-3 1-1 0-2 1-3 2 0 1-1 1-1 1l-108 150c-1 0-1 1-1 2l-1 1c-1 4-1 8 0 11 0 0 1 1 1 2 0 0 0 1 1 2l240 332h1c1 2 3 3 4 4h2c2 1 4 2 6 2s4-1 6-2h2c1-1 3-2 4-4h1l240-332c1-1 1-2 1-2 0-1 0-1 1-2zm-394-120l28 99h-100zm210 130l-71 259-71-259zm-135-31l64-104 64 104zm91-118h85l-26 96zm-113 95l-27-95h86zm-17 54l66 239-174-239zm206 0h107l-173 239zm8-31l28-99 72 99z"/></svg>