<svg xmlns="http://www.w3.org/2000/svg" viewBox="0 0 512 512"><path d="M19-22c0 5-4 9-9 9s-9-4-9-9 4-9 9-9 9 4 9 9zm-16-6l14 12m387 163c-2-25-2-36-2-38v-3s-3-2-5-5h-5s-28 18-54 39c-3-3-3-3-5-3-21-15-49-23-77-23-31 0-59 8-77 23-2 0-2 3-5 3-26-21-54-39-54-39h-5c-2 0-5 3-5 5v3c0 2 0 13-2 38-8 59 20 85 30 95l8-8c-10-10-33-30-26-84 3-16 3-26 3-34 10 6 25 18 43 34-7 5-10 10-15 15l10 5c3-7 21-23 26-25 15-11 36-18 56-21h26c20 3 41 10 56 21 5 2 23 18 26 25l10-5-13-18c18-13 33-25 44-33 0 5 0 15 2 33 8 54-15 74-25 85l7 7c8-7 36-33 28-92zm-209 54c-8 0-13 5-13 13 0 7 5 13 13 13 5-3 10-8 10-13 0-8-5-13-10-13zm0 10c-3 0-3-2-3-2 0-3 3-3 3-3 2 0 2 3 2 3 3 0 0 2-2 2zm133-10c-8 0-13 5-13 13 0 7 5 13 13 13 7 0 12-6 12-13-2-8-7-13-12-13zm0 10c-3 0-3-2-3-2 0-3 3-3 3-3 2 0 2 3 2 3 3 0 0 2-2 2zm-77 126c0 4-4 7-8 7s-7-3-7-7c0-5 3-8 7-8s8 3 8 8zm36 0c0 4-4 7-8 7s-8-3-8-7c0-5 4-8 8-8s8 3 8 8zm-279-355c0-1 1-1 2-1s2 1 2 1m0 0c0 1-1 2-2 2s-1-1-1-2m137 255c0-3-2-5-5-5s-5 2-5 5 2 5 5 5 5-2 5-5zm230 0c0-3-2-5-5-5s-5 2-5 5 2 5 5 5 5-2 5-5zm-15-67c0-3-2-5-5-5s-5 2-5 5 2 5 5 5 5-2 5-5zm-200 0c0-3-2-5-5-5s-5 2-5 5 2 5 5 5 5-2 5-5z"/></svg>