<svg xmlns="http://www.w3.org/2000/svg" viewBox="0 0 512 512"><path d="M435 380c36-42 59-96 59-156 0-131-107-238-238-238-70 0-134 31-177 80 0 0-1 0-1 1-37 42-60 97-60 157 0 131 107 238 238 238 71 0 134-32 178-81l1-1zm-179-381c124 0 225 101 225 225 0 55-20 105-52 144l-248-219c2-1 3-2 4-3 16-10 35-17 57-19l13-1h2l13 1c22 2 41 9 57 19 4 2 23 20 25 25 1 2 3 3 5 3 3 0 5-2 5-5 0-1 0-2-1-3-4-7-9-12-14-17 17-14 34-26 44-32 0 6 1 16 2 32 7 53-16 74-27 84-1 1-1 2-1 4 0 3 2 5 5 5 1 0 2 0 3-1h1c11-10 37-34 30-93-3-27-2-36-2-38s0-3-1-4c0 0-1-3-5-4h-2l-1 1c-1 0-28 17-54 39-2-2-4-3-6-4-19-15-47-23-77-23s-58 8-77 23c-2 1-4 2-6 4-1-2-3-3-5-4l-76-67c41-44 99-72 164-72zm0 450c-124 0-225-101-225-225 0-55 20-105 53-144l27 25v1c-1 1-1 2-1 3 0 3 1 12-2 39-7 59 19 83 30 93h1c1 1 2 1 3 1 3 0 6-2 6-5 0-2-1-3-2-4-11-10-34-31-27-84 2-16 2-26 2-32 5 3 11 7 19 13l24 21c-5 4-9 9-13 14v1c-1 1-1 2-1 3 0 3 2 5 5 5 2 0 4-1 5-3 1-3 6-8 11-13l249 219c-41 44-99 72-164 72zm-62-248c-6 0-11 5-11 12 0 6 5 11 11 11 7 0 12-5 12-11 0-7-5-12-12-12zm2 9c-3 0-4-1-4-3s1-4 4-4c2 0 3 2 3 4s-1 3-3 3zm131-9c-7 0-12 5-12 12 0 6 5 11 12 11 6 0 12-5 12-11 0-7-6-12-12-12zm1 9c-2 0-4-1-4-3s2-4 4-4 4 2 4 4-2 3-4 3zm-76 127c0 4-4 8-8 8-5 0-9-4-9-8 0-5 4-9 9-9 4 0 8 4 8 9zm35 0c0 4-4 8-8 8-5 0-8-4-8-8 0-5 3-9 8-9 4 0 8 4 8 9zm-26-51c-28 0-51 22-51 51 0 28 23 50 51 50s51-22 51-50c0-29-23-51-51-51zm0 89c-21 0-38-17-38-38 0-22 17-39 38-39s38 17 38 39c0 21-17 38-38 38z"/></svg>