<svg xmlns="http://www.w3.org/2000/svg" viewBox="0 0 512 512"><path d="M255 295c-33 0-60 27-60 61 0 33 27 60 60 60 34 0 61-27 61-60 0-34-27-61-61-61zm0 103c-23 0-42-19-42-42 0-24 19-43 42-43 24 0 43 19 43 43 0 23-19 42-43 42zm-6-42c0 5-4 9-9 9-6 0-10-4-10-9 0-6 4-10 10-10 5 0 9 4 9 10zm31 0c0 5-4 9-9 9s-10-4-10-9c0-6 5-10 10-10s9 4 9 10zm-76-143c0-7-6-13-14-13-7 0-13 6-13 13s6 14 13 14c8 0 14-7 14-14zm-14-1c-2 0-4-2-4-5 0-2 2-4 4-4 3 0 5 2 5 4 0 3-2 5-5 5zm124 15c8 0 14-7 14-14s-6-13-14-13c-7 0-13 6-13 13s6 14 13 14zm0-24c3 0 5 2 5 4 0 3-2 5-5 5-2 0-4-2-4-5 0-2 2-4 4-4zm-58-221c-133 0-242 109-242 242s109 242 242 242 242-109 242-242-109-242-242-242zm111 191c1 3 4 4 8 4 1 0 2 0 4-1 4-2 6-7 4-12-1-1-5-9-15-19l52-37c4 29 10 100-32 131-4 2-5 8-2 12 2 2 4 4 7 4 2 0 4-1 5-2 63-46 38-158 37-163l-1-1c29 37 46 84 46 135 0 47-15 90-39 126l-270-207c18-13 45-26 85-26 81 0 109 53 111 56zm-111-173c71 0 134 34 175 85 0 0-1-1-2-1-3-1-6-1-8 1l-66 47c-20-16-51-33-99-33-47 0-79 16-100 33l-69-54c41-47 101-78 169-78zm0 448c-123 0-224-101-224-224 0-49 16-95 43-132l2 1c-4 19-21 118 37 160 1 1 3 2 5 2 3 0 5-2 7-4 3-4 2-10-2-12-42-31-36-102-32-131l51 36c-10 10-14 18-15 19-2 4-1 10 4 12 4 2 9 1 12-3 0-1 5-8 13-17l273 210c-41 50-104 83-174 83z"/></svg>