<svg xmlns="http://www.w3.org/2000/svg" viewBox="0 0 512 512"><path d="M461 146l-131-88c-5-3-11-3-16-1-5 3-8 8-8 14v301l-101 65v-191c0-8-7-15-15-15s-15 7-15 15v190l-101-67v-273c5-1 9-3 12-7 5-7 3-17-4-21l-14-10c-5-3-11-3-16-1-5 3-8 8-8 14v306c0 5 2 10 7 13l131 87c0 1 1 1 2 1l1 1c2 1 4 1 5 1l6-1 1-1c1 0 1 0 2-1l123-78 123 70c3 1 5 2 8 2s5-1 8-2c4-3 7-8 7-14v-297c0-5-2-10-7-12zm-23 283l-101-57v-272l101 67zm-218-373c0 16-13 30-30 30-16 0-29-14-29-30s13-29 29-29c17 0 30 13 30 29zm-30 147c5 0 9-2 12-6 8-10 77-96 77-141 0-48-40-88-89-88-48 0-88 40-88 88 0 45 69 131 76 141 3 4 8 6 12 6zm0-204c32 0 58 26 58 57 0 22-32 72-58 107-26-35-57-85-57-107 0-31 26-57 57-57z"/></svg>