<svg xmlns="http://www.w3.org/2000/svg" viewBox="0 0 512 512"><path d="M314 206c9 0 15-7 15-15v-179l119 79v100c0 8 7 15 15 15 9 0 16-7 16-15v-108c0-5-3-10-7-13l-149-99c-1-1-1-1-2-1 0 0-1-1-2-1-3-1-7-1-10 0l-2 1s-1 0-1 1l-141 94-141-94c-5-4-11-4-16-1s-8 8-8 13v349c0 5 3 10 7 13l149 99 2 1s1 0 1 1l6 1 5-1c1-1 1-1 2-1 0 0 1-1 2-1l124-83c7-4 9-14 4-21-4-7-14-9-21-4l-101 67v-312l119-79v179c0 8 7 15 15 15zm-283-194l119 79v312l-119-79zm416 303c0 19-15 34-33 34-19 0-34-15-34-34 0-18 15-33 34-33 18 0 33 15 33 33zm-33-98c-55 0-99 44-99 98 0 50 78 148 87 159 2 4 7 6 12 6 4 0 9-2 12-6 9-11 86-109 86-159 0-54-44-98-98-98zm0 223c-30-40-68-99-68-125 0-37 31-67 68-67s67 30 67 67c0 26-37 85-67 125z"/></svg>