<svg xmlns="http://www.w3.org/2000/svg" viewBox="0 0 512 512"><path d="M508 461l-50-220c-1-6-5-11-11-12l-114-24h-6c-1 0-2 0-2 1-1 0-2 0-3 1l-2 1c-1 1-2 2-3 2 0 1 0 2-1 3l-1 3v1c-1 0 0 1 0 2l-1 2 16 191-147 33 15-199v-5c0-1 0-1-1-2l-1-3c-1-1-1-2-2-2-1-1-2-2-3-2 0-1-1-1-2-2h-1l-114-41c-4-2-9-1-13 1s-6 6-7 10l-50 220c-2 8 3 16 10 19l148 40c0 1 1 1 2 1h5l176-40 144 39c1 1 3 1 4 1 4 0 7-2 10-4 5-4 6-10 5-15zm-428-238l86 31-14 191-115-32zm280 189l-14-173 85 18 42 186zm-203-243l76 85c3 3 7 5 12 5 4 0 8-2 11-5l74-84h1c44-45 43-122-4-168-22-22-51-34-82-34s-60 12-82 34c-47 46-49 122-6 167zm27-145c16-16 38-25 61-25s44 9 60 25c34 34 36 90 6 123l-2 1-65 73-62-70-2-2c-32-32-30-91 4-125zm60 34c17 0 30 13 30 30 0 16-13 30-30 30-16 0-29-14-29-30 0-17 13-30 29-30z"/></svg>