<svg xmlns="http://www.w3.org/2000/svg" viewBox="0 0 512 512"><path d="M404 31l-7-7c2 2 5 4 7 7zm6 6l-6-6 6 6zm3 4l-3-4 3 4zm-23-23l-4-4c1 2 3 3 4 4zm26 26l-3-3 3 3zm-19-20l-3-3 3 3zm-11-9l-3-3 3 3zm8 6l-4-3 4 3zm41 51l-3-5 3 5zm-3-5c0-1-1-2-2-3 1 1 2 2 2 3zm-49-55c-2-1-3-2-4-3 1 1 2 2 4 3zm47 52l-3-5 3 5zm-11-16c-1-1-2-2-3-4 1 2 2 3 3 4zm18 27c0-1-1-2-2-4 1 2 2 3 2 4zm-10-16c0-1-1-2-2-3 1 1 2 2 2 3zm-5-7l-3-4 3 4zm3 4l-3-4 3 4zm-111-79l-6-2 6 2zm17 6c-2-1-4-2-5-3 1 1 3 2 5 3zm8 3c-1-1-3-1-5-2 2 1 4 1 5 2zm-4-2c-2 0-3-1-4-1 1 0 2 1 4 1zm8 4l-4-2 4 2zm-20-9l-6-1 6 1zm3 1c-1 0-2 0-4-1 2 1 3 1 4 1zm114 99c-1-1-2-2-3-4 1 2 2 3 3 4zm-93-89c-1-1-2-2-4-2 2 0 3 1 4 2zm4 2c-1-1-2-1-4-2 2 0 3 1 4 2zm27 17c-1-1-2-2-3-2 1 0 3 1 3 2zm-7-6c-1 0-2-1-3-2 1 1 2 2 3 2zm4 4c-1-1-3-2-4-4 1 2 3 3 4 4zm-7-6c-2-1-4-2-5-3l5 3zm-13-7c-1-1-2-2-4-2 2 0 3 1 4 2zm8 4c-1 0-2-1-3-2 1 1 2 2 3 2zm-3-2c-2 0-3-1-5-2 2 1 3 2 5 2zm103 168c0-3 0-6-1-9 1 3 1 6 1 9zm-4 51c1-1 1-2 1-4 0 2 0 3-1 4zm2-10c0-1 0-2 1-3-1 1-1 2-1 3zm1-9v-3 3zm-2 15c1-2 1-4 1-6l-1 6zm1-9c1-2 1-4 1-6 0 2 0 4-1 6zm2-18v-7 7zm0 2v-2 2zm-1 7c1-2 1-4 1-7 0 2 0 5-1 7zm-12 54v1-1zm-142-272c-1 0-3 0-4-1 2 1 3 1 4 1zm145 263l-3 9 3-9zm3-8l-3 9c1-3 2-7 3-9zm-6 18c-6 16-14 32-25 47 11-15 19-31 25-47zm-24 46c-2 3-4 5-6 7 2-2 4-4 6-7zm16-211c-1-1-2-2-2-3 0 1 1 2 2 3zm15 142c0-2 1-3 1-4 0 1-1 2-1 4zm-1 5l1-5-1 5zm2-9c1-2 1-4 1-6 0 2 0 4-1 6zm-6-112c0-2-1-3-2-5 1 2 2 3 2 5zm-1-5l-2-3 2 3zm4 14c0-2-1-4-2-5 1 1 2 3 2 5zm-6-17c0-2-1-4-2-5 1 1 2 3 2 5zm4 12c0-1 0-2-1-3 1 0 1 1 1 3zm-10-25c0-2-1-3-2-5 1 2 2 3 2 5zm4 7l-1-3 1 3zm-2-3c0-2-1-3-2-4 1 1 2 2 2 4zm15 44c-1-2-1-3-1-6 0 3 0 4 1 6zm1 10c0-2 0-4-1-6 1 2 1 4 1 6zm-1-6v-4 4zm2 11c0-2 0-4-1-5 1 1 1 3 1 5zm0 4v-4 4zm-6-34c0-1 0-2-1-3l1 3zm2 6l-2-6 2 6zm1 3c-1-1-1-2-1-3 0 1 0 2 1 3zm-142-152c-1-1-2-1-3-1 1 0 2 0 3 1zm-254 273c0 1 0 1 1 2-1 0-1-1-1-2zm-3-7c1 2 2 5 3 8-1-3-2-6-3-8zm-5-17c1 2 1 4 1 5 0-1 0-3-1-5zm2 5v4-4zm0 4c1 2 2 5 3 8-1-3-2-6-3-8zm6 17l3 6-3-6zm4 8l3 6-3-6zm-1-2c0 1 1 1 1 1s-1 0-1-1zm-12-36c1 2 1 3 1 4 0-1 0-2-1-4zm16 44v1-1zm-19-61c0 2 0 3 1 4-1-1-1-2-1-4zm-1-4l1 4-1-4zm-1-9c0 2 1 3 1 4 0-1-1-2-1-4zm1 4v5-5zm1 13c1 2 1 3 1 5 0-2 0-3-1-5zm2 9l1 4-1-4zm-1-4l1 4-1-4zm192 260l-2-2 2 2zm172-167l4-6-4 6zm-162 172zm-184-212l3 6-3-6zm39-239c10-9 20-18 31-25 11-8 23-14 35-19 3-2 7-3 10-4-29 10-55 27-76 48zm354 135v10-10zm-414 24v5-5zm29 93c0 1 0 1 1 2-1-1-1-1-1-2zm-4-6c1 2 2 4 4 6-2-2-3-4-4-6zm-1-1l1 1s0-1-1-1zm11 17l2 4c0-1-1-3-2-4zm3 4c1 2 3 4 5 7-2-3-4-5-5-7zm218-321l-6-1 6 1zm-223 314c0 1 1 2 2 3l-2-3zm-3-5l3 5-3-5zm135-310c4-1 7-1 10-2-4 1-7 1-12 2h2zm-1 0c-3 1-6 1-8 2 2-1 5-1 8-2zm-164 212v3-3zm177-214h-2 2zm-31 7c-4 1-7 2-10 3 3-1 6-2 10-3zm9-3l-9 3 9-3zm91-3c-2 0-4 0-5-1 1 1 3 1 5 1zm-5-1h-5 5zm-44-2h-10 10zm38 2c-1-1-3-1-4-1 2 0 3 0 4 1zm15 2l-4-1 4 1zm-43-5c-3 0-7 0-10 1 3-1 7-1 10-1zm15 1l-15-1 15 1zm9 1c-3-1-6-1-9-1 3 0 6 0 9 1zm-45-1l-9 2 9-2zm-184 176c-1 3-1 6-1 9 0-3 0-6 1-9zm58-116c-9 9-17 20-25 31 8-11 16-22 25-31zm-56 105c-1 3-2 7-2 10 0-3 1-7 2-10zm-2 10v2-2zm-2 32v9-9zm1-20c-1 3-1 6-1 9 0-3 0-6 1-9zm-1 9v11-11zm6-41c-1 3-2 6-2 10 0-4 1-7 2-10zm14-38l-3 6 3-6zm-4 9l1-3c-2 4-3 8-5 13 1-4 3-7 4-10zm-4 9v1-1zm-3 11l-3 9 3-9zm26-55c-5 8-11 17-15 26 4-9 10-18 15-26zm-26 54v1-1zm3-9l-3 9 3-9zm36 203c1 2 2 3 3 4l3 3c1 0 1 1 2 2 1 2 3 4 5 5l132 151c1 1 1 1 2 1 1 2 3 3 4 4 1 0 1 0 2 1h9c1 0 2 0 4-1 0-1 1-1 2-1 1-1 2-2 3-2 0-1 0-1 1-2l133-150c2-2 3-4 5-5 1-2 2-3 4-5s3-3 4-5h1l4-6v-1l-328 1c1 1 2 3 4 5l1 1z"/></svg>