<svg xmlns="http://www.w3.org/2000/svg" viewBox="0 0 512 512"><path d="M382 88c-4-73-66-116-126-116-55 0-111 36-123 98l-133 53v353l175-70 162 66 175-71v-352zm-218 297l-136 56v-299l102-44c1 26 15 56 34 85zm156 53l-128-51v-164c27 35 53 62 55 64l9 9 9-9c2-2 28-29 55-64zm3-260h-3v4c-21 31-47 61-64 79-17-18-43-48-64-79v-4h-3c-20-30-35-60-35-83 0-62 52-99 102-99s102 37 102 99c0 23-15 53-35 83zm161 206l-136 57v-258c15-23 27-47 32-69l104-36zm-228-331c-25 0-45 20-45 45s20 45 45 45 45-20 45-45-20-45-45-45zm0 66c-11 0-20-9-20-21 0-11 9-20 20-20s20 9 20 20c0 12-9 21-20 21z"/></svg>