<?xml version="1.0" encoding="UTF-8" standalone="no"?>
<svg width="32px" height="32px" viewBox="0 0 32 32" version="1.1" xmlns="http://www.w3.org/2000/svg" xmlns:xlink="http://www.w3.org/1999/xlink">
    <!-- Generator: Sketch 3.7.2 (28276) - http://www.bohemiancoding.com/sketch -->
    <title>mark-as-been-here-new-ui</title>
    <desc>Created with Sketch.</desc>
    <defs></defs>
    <g id="Page-1" stroke="none" stroke-width="1" fill="none" fill-rule="evenodd">
        <g id="577-585" transform="translate(-260.000000, -52.000000)">
            <g id="mark-as-been-here-new-ui" transform="translate(260.000000, 52.000000)">
                <rect id="Rectangle-67" fill="#040404" x="0" y="0" width="32" height="32" rx="100"></rect>
                <path d="M19.4042711,16.798732 L16.1880553,16.8049343 L16.1880553,16.8063126 L12.6879139,16.8573089 L12.6010823,16.3948961 C12.5914343,16.3948961 12.9470305,16.8028669 12.9470305,16.8028669 L12.9835549,20.4883869 L13.4735334,20.4883869 C13.831197,20.4883869 14.1213249,20.8198632 14.1213249,21.1775268 C14.1213249,21.5351904 13.831197,21.8666667 13.4735334,21.8666667 L11.3144581,21.8666667 C10.9567946,21.8666667 10.6666667,21.5351904 10.6666667,21.1775268 C10.6666667,20.8198632 10.9567946,20.4883869 11.3144581,20.4883869 L11.9271035,20.4883869 L11.8926465,10.5888926 C11.8926465,10.2904951 11.973965,10.1512888 12.2723626,10.1512888 L19.6337547,10.1512888 L21.0809484,10.1333712 C21.3855483,10.1292363 21.5736835,10.4648474 21.4110464,10.7232749 L20.659884,11.9141086 L19.6392678,13.6114601 L20.4407375,14.8691404 L21.3428216,16.2102066 C21.5061477,16.453473 21.3338628,16.7808144 21.0409783,16.783571 L19.4042711,16.798732 Z" id="Fill-1" fill="#FFFFFF"></path>
            </g>
        </g>
    </g>
</svg>