<?xml version="1.0" encoding="UTF-8" standalone="no"?>
<svg width="29px" height="32px" viewBox="0 0 29 32" version="1.1" xmlns="http://www.w3.org/2000/svg" xmlns:xlink="http://www.w3.org/1999/xlink">
    <!-- Generator: Sketch 3.7.1 (28215) - http://www.bohemiancoding.com/sketch -->
    <title>menu-srp2</title>
    <desc>Created with Sketch.</desc>
    <defs></defs>
    <g id="Page-1" stroke="none" stroke-width="1" fill="none" fill-rule="evenodd">
        <g id="577-585" transform="translate(-572.000000, -104.000000)" fill="#000000">
            <g id="menu-srp2" transform="translate(572.000000, 104.000000)">
                <path d="M0.666590907,1.99977272 L0.666590907,29.9965908 C0.666590907,31.1217963 1.54115818,31.9963636 2.66636363,31.9963636 L4.66613635,31.9963636 L4.66613635,0 L2.66636363,0 C1.54115818,0 0.666590907,0.87456727 0.666590907,1.99977272 L0.666590907,1.99977272 Z M26.6636363,0 L6.66590907,0 L6.66590907,31.9963636 L26.6636363,31.9963636 C27.7888417,31.9963636 28.663409,31.1217963 28.663409,29.9965908 L28.663409,1.99977272 C28.663409,0.87456727 27.7888417,0 26.6636363,0 L26.6636363,0 Z M22.6640909,17.9979545 L12.6652272,17.9979545 L12.6652272,15.9981818 L22.6640909,15.9981818 L22.6640909,17.9979545 Z M22.6640909,9.99886361 L12.6652272,9.99886361 L12.6652272,7.99909089 L22.6640909,7.99909089 L22.6640909,9.99886361 Z" id="Shape"></path>
            </g>
        </g>
    </g>
</svg>