<svg xmlns="http://www.w3.org/2000/svg" viewBox="0 0 512 512"><path d="M497-32h-432c-8 0-15 7-15 15v99h-35c-8 0-15 7-15 15 0 9 7 16 15 16h35v102h-35c-8 0-15 7-15 15 0 9 7 16 15 16h35v102h-35c-8 0-15 7-15 15s7 15 15 15h35v87c0 8 7 15 15 15h432c8 0 15-7 15-15v-482c0-8-7-15-15-15zm-16 481h-401v-71h35c8 0 15-7 15-15 0-9-7-16-15-16h-35v-102h35c8 0 15-7 15-15 0-9-7-15-15-15h-35v-103h35c8 0 15-7 15-15s-7-15-15-15h-35v-83h401zm-106-226c-9 0-16 7-16 16v81h-21v-59c0-8-6-15-15-15h-51c-9 0-16 7-16 15v59h-20v-81c0-9-7-16-16-16-8 0-15 7-15 16v97c0 8 7 15 15 15h52c8 0 15-7 15-15v-60h21v60c0 8 7 15 15 15h52c8 0 15-7 15-15v-97c0-9-7-16-15-16zm-186 19l108-108 109 108c3 3 7 5 11 5 3 0 7-2 10-5 6-6 6-15 0-22l-119-119c-5-5-16-5-22 0l-48 49v-8c0-8-7-15-15-15s-15 7-15 15v38l-40 41c-6 6-6 15 0 21s15 6 21 0z"/></svg>