<?xml version="1.0" encoding="UTF-8" standalone="no"?>
<svg width="27px" height="28px" viewBox="0 0 27 28" version="1.1" xmlns="http://www.w3.org/2000/svg" xmlns:xlink="http://www.w3.org/1999/xlink">
    <!-- Generator: Sketch 3.7.2 (28276) - http://www.bohemiancoding.com/sketch -->
    <title>name-new-ui</title>
    <desc>Created with Sketch.</desc>
    <defs>
        <polygon id="path-1" points="0 0.469351434 0 15.2875559 26.3606567 15.2875559 26.3606567 0.469351434 2.5899422e-20 0.469351434"></polygon>
    </defs>
    <g id="Page-1" stroke="none" stroke-width="1" fill="none" fill-rule="evenodd">
        <g id="577-585" transform="translate(-55.000000, -159.000000)">
            <g id="name-new-ui" transform="translate(55.000000, 159.000000)">
                <g id="Group-3" transform="translate(0.000000, 12.387744)">
                    <mask id="mask-2" fill="white">
                        <use xlink:href="#path-1"></use>
                    </mask>
                    <g id="Clip-2"></g>
                    <path d="M13.1808254,2.38039147 C7.71333981,2.38039147 2.98160467,6.4337074 1.93053265,12.0158553 C1.84644689,12.4649498 2.04710609,12.7898266 2.17514577,12.9446208 C2.40447058,13.2198106 2.73890258,13.3765159 3.09626707,13.3765159 L23.2653836,13.3765159 C23.6208371,13.3765159 23.9571801,13.2198106 24.1845939,12.9446208 C24.3126336,12.7898266 24.5152038,12.4649498 24.4311181,12.0158553 C23.378135,6.4337074 18.6483109,2.38039147 13.1808254,2.38039147 M23.2653836,15.2875559 L3.09626707,15.2875559 C2.16750161,15.2875559 1.29797839,14.8785933 0.705555982,14.1638644 C0.122688771,13.4625127 -0.116191234,12.5509466 0.0519802891,11.6623129 C1.27504591,5.17624305 6.79604059,0.469351434 13.1808254,0.469351434 C19.5656101,0.469351434 25.0866048,5.17624305 26.3077594,11.6623129 C26.4759309,12.5509466 26.2389619,13.4625127 25.6560947,14.1657754 C25.0636723,14.8785933 24.1922381,15.2875559 23.2653836,15.2875559" id="Fill-1" fill="#000000" mask="url(#mask-2)"></path>
                </g>
                <path d="M13.2264992,1.91065783 C12.2423136,1.91065783 11.258128,2.28522168 10.5070892,3.03434937 C9.00883385,4.5345158 9.00883385,6.97491393 10.5070892,8.47316933 C11.9594797,9.92747079 14.4935188,9.92747079 15.9459092,8.47316933 C17.4441646,6.97491393 17.4441646,4.5345158 15.9459092,3.03434937 C15.1967815,2.28522168 14.2106848,1.91065783 13.2264992,1.91065783 M13.2264992,11.5098119 C11.688112,11.5098119 10.2433657,10.9116564 9.15598393,9.82427463 C6.91242293,7.58071363 6.91242293,3.92871611 9.15598393,1.68324407 C11.3995449,-0.560316939 15.0515425,-0.560316939 17.2970145,1.68324407 C19.5405755,3.92871611 19.5405755,7.58071363 17.2970145,9.82427463 C16.2096327,10.9116564 14.7648864,11.5098119 13.2264992,11.5098119" id="Fill-4" fill="#000000"></path>
            </g>
        </g>
    </g>
</svg>