<svg xmlns="http://www.w3.org/2000/svg" viewBox="0 0 512 512"><path d="M511 262c0-39-33-58-54-69l-6-4c-4-2-10-2-15 0l-3 2c-13 7-32 17-45 34v-1c5-15 7-31 7-47 0-78-71-119-118-146l-6-3v-60h-32v59c-46 26-124 68-124 150 0 16 3 32 7 46-11-14-28-24-40-30l-6-4c-4-2-10-2-15 0l-3 2c-20 10-57 30-57 71 0 7 1 13 3 20-2 3-3 6-3 9v173c0 9 7 16 16 16h476c9 0 16-7 16-16v-173c0-2 0-5-1-7 2-7 3-15 3-22zm-67-41c19 12 36 23 36 41 0 4-1 9-2 13h1-69c-2-4-3-9-3-14 0-18 17-29 37-40zm-189-166l7 4c43 24 102 58 102 118 0 11-2 21-4 31h-209c-3-10-4-21-4-31 0-64 65-99 108-122zm-187 166c20 12 37 23 37 41 0 4-1 9-2 13h1-70c-1-4-2-9-2-14 0-18 17-29 36-40zm54 227h-90v-141h90zm32-209h202v210h-39v-81c0-34-28-62-62-62s-61 28-61 62v81h-40zm71 209v-80c0-17 14-30 30-30 17 0 30 13 30 30v80zm253 0h-90v-141h90z"/></svg>