<?xml version="1.0" encoding="UTF-8" standalone="no"?>
<svg width="24px" height="30px" viewBox="0 0 24 30" version="1.1" xmlns="http://www.w3.org/2000/svg" xmlns:xlink="http://www.w3.org/1999/xlink">
    <!-- Generator: Sketch 3.7.2 (28276) - http://www.bohemiancoding.com/sketch -->
    <title>offers-discounts-new-ui</title>
    <desc>Created with Sketch.</desc>
    <defs></defs>
    <g id="Page-1" stroke="none" stroke-width="1" fill="none" fill-rule="evenodd">
        <g id="577-585" transform="translate(-368.000000, -271.000000)" fill="#000000">
            <g id="offers-discounts-new-ui" transform="translate(368.000000, 271.000000)">
                <path d="M7.60252235,26.0422839 C7.7721851,26.0422839 7.94184784,26.0944878 8.08377725,26.2005271 L10.1017851,27.6785506 L11.9860204,26.0961192 C12.2829302,25.8465192 12.7152439,25.8416251 13.0186792,26.0814369 L14.8213459,27.5170447 L16.1541773,26.1744251 C16.4674008,25.8612016 16.9714949,25.8530447 17.2928753,26.15648 L18.7382714,27.5186761 L20.0450008,26.1173271 C20.3484361,25.7943153 20.8525302,25.7698447 21.1836988,26.0634918 C21.5540204,26.393029 21.8770322,26.6785192 22.1527341,26.9264878 L22.1951498,3.24385255 L21.1004988,4.14110745 C20.790538,4.3939702 20.3419106,4.38581333 20.041738,4.11989961 L18.2765929,2.55051922 L16.6256439,4.09869176 C16.3026322,4.40212706 15.7936439,4.38907608 15.4836831,4.0725898 L14.0921224,2.64024471 L12.566789,3.95676235 C12.2486714,4.23246431 11.7706792,4.21941333 11.4672439,3.9241349 L10.1132047,2.61088 L8.43125961,3.97307608 C8.13924392,4.2096251 7.72487529,4.21615059 7.42307137,3.98775843 L5.54699294,2.55704471 L3.79979294,3.97307608 C3.51104,4.20636235 3.10156549,4.21615059 2.80302431,3.99591529 L1.63169882,3.13455059 L1.63169882,27.0749427 L2.77855373,26.3391937 C3.07056941,26.1515859 3.4457851,26.1678996 3.71985569,26.379978 L5.34470275,27.6393976 L7.08864,26.2249976 C7.2370949,26.1042761 7.41980863,26.0422839 7.60252235,26.0422839 M22.966789,29.6394604 C22.9178478,29.6394604 22.8689067,29.6361976 22.8199655,29.6264094 C22.5964675,29.5856251 22.4088596,29.4567467 22.2897694,29.2805584 C22.0956361,29.081531 21.4202478,28.4632408 20.6942871,27.8139545 L19.3728753,29.2316173 C19.2244204,29.3898604 19.0188675,29.4828486 18.8018949,29.4893741 C18.5800282,29.5024251 18.3744753,29.4159624 18.2162322,29.2675075 L16.752891,27.8873663 L15.4641067,29.1859388 C15.1704596,29.4795859 14.7022557,29.5089506 14.3759812,29.2495624 L12.5243733,27.7748016 L10.6613459,29.3392878 C10.3742243,29.5823624 9.95659294,29.5954133 9.65478902,29.3735467 L7.62862431,27.8873663 L5.87000471,29.3131859 C5.57635765,29.5529976 5.1570949,29.5578918 4.85692235,29.3262369 L3.17497725,28.0227702 L1.25648314,29.2544565 C1.00525176,29.414331 0.685502745,29.4241192 0.424483137,29.2838212 C0.161832157,29.1402604 0.00032627451,28.8645584 0.00032627451,28.5676486 L0.00032627451,1.52112314 C0.00032627451,1.21279373 0.173251765,0.930566275 0.447322353,0.791899608 C0.721392941,0.653232941 1.05256157,0.682597647 1.29889882,0.86368 L3.26307137,2.30907608 L5.01679686,0.886519216 C5.30881255,0.649970196 5.72481255,0.645076078 6.0249851,0.871836863 L7.9026949,2.30255059 L9.64826353,0.886519216 C9.96964392,0.628762353 10.4345851,0.648338824 10.7298635,0.935460392 L12.0659576,2.23403294 L13.6076047,0.902832941 C13.9322478,0.622236863 14.423291,0.641813333 14.7250949,0.951774118 L16.0954478,2.35964863 L17.7056125,0.852260392 C18.0123106,0.563507451 18.4903027,0.556981961 18.8051576,0.837578039 L20.6061929,2.43795451 L22.4969537,0.889781961 C22.7416596,0.687491765 23.0777224,0.648338824 23.3648439,0.783742745 C23.6487027,0.919146667 23.8314165,1.20626824 23.8297851,1.52275451 L23.7824753,28.5970133 C23.8575184,28.7813584 23.8069459,28.9134996 23.7319027,29.1125271 C23.6095498,29.4339075 23.3012204,29.6394604 22.966789,29.6394604" id="Fill-1"></path>
                <path d="M7.98801569,20.6519027 C7.80040784,20.6519027 7.6128,20.5866478 7.45781961,20.456138 C7.11523137,20.1641224 7.07444706,19.6486086 7.36809412,19.3060204 L15.9637961,9.23555765 C16.2574431,8.89296941 16.7729569,8.85544784 17.1139137,9.14420078 C17.456502,9.43621647 17.4972863,9.9517302 17.2052706,10.2943184 L8.60793725,20.3664125 C8.44643137,20.5540204 8.21803922,20.6519027 7.98801569,20.6519027" id="Fill-4"></path>
                <path d="M8.68102275,10.9067357 C8.29601882,10.9067357 7.98279529,11.2199592 7.98279529,11.6049631 C7.98279529,11.9883357 8.29601882,12.3015592 8.68102275,12.3015592 C9.06439529,12.3015592 9.37761882,11.9883357 9.37761882,11.6049631 C9.37761882,11.2199592 9.06439529,10.9067357 8.68102275,10.9067357 M8.68102275,13.9329318 C7.39713255,13.9329318 6.35142275,12.8888533 6.35142275,11.6049631 C6.35142275,10.3210729 7.39713255,9.27536314 8.68102275,9.27536314 C9.96491294,9.27536314 11.0089914,10.3210729 11.0089914,11.6049631 C11.0089914,12.8888533 9.96491294,13.9329318 8.68102275,13.9329318" id="Fill-6"></path>
                <path d="M15.773578,17.3947043 C15.3902055,17.3947043 15.076982,17.7079278 15.076982,18.0913004 C15.076982,18.4763043 15.3902055,18.7895278 15.773578,18.7895278 C16.158582,18.7895278 16.4718055,18.4763043 16.4718055,18.0913004 C16.4718055,17.7079278 16.158582,17.3947043 15.773578,17.3947043 M15.773578,20.4209004 C14.4896878,20.4209004 13.4456094,19.3751906 13.4456094,18.0913004 C13.4456094,16.8074102 14.4896878,15.7633318 15.773578,15.7633318 C17.0574682,15.7633318 18.103178,16.8074102 18.103178,18.0913004 C18.103178,19.3751906 17.0574682,20.4209004 15.773578,20.4209004" id="Fill-8"></path>
            </g>
        </g>
    </g>
</svg>