<svg xmlns="http://www.w3.org/2000/svg" viewBox="0 0 512 512"><path d="M402 385c-26 0-47 21-47 47s21 48 47 48 48-22 48-48-21-47-48-47zm0 64c-9 0-17-7-17-17s8-17 17-17c10 0 18 8 18 17 0 10-8 17-18 17zm-203-64c-26 0-47 21-47 47s21 48 47 48 48-22 48-48-22-47-48-47zm0 64c-10 0-17-7-17-17s8-17 17-17c10 0 18 8 18 17 0 10-8 17-18 17zm305-302c-3-4-8-7-12-7h-361l-24-102c-2-6-8-11-15-11h-72c-8 0-15 6-15 15 0 8 7 15 15 15h60l71 290c0 1 0 3 1 4 0 8 6 15 15 15h263c7 0 13-4 15-11l61-195c2-5 1-9-2-13zm-85 189h-240l-40-165h332zm-50-226h4c6 0 12-4 14-11 2-8-2-16-10-18-4-1-6-4-7-6-1-4-1-8 0-13 1-3 3-6 8-11 9-6 15-16 18-27s3-22-2-32c-5-12-14-20-26-23-8-2-16 2-18 11-2 8 2 16 10 18 4 1 6 4 7 6 1 4 1 8 0 12 0 4-2 6-4 9l-5 3c-6 6-14 14-17 27-3 11-3 22 2 32 5 11 14 20 26 23zm-68 0h3c7 0 13-4 15-11 2-8-3-16-11-18-3-1-5-4-6-6-1-4-2-8 0-13 1-3 3-6 7-11 9-6 16-16 19-27s2-22-2-32c-5-12-15-20-26-23-8-2-17 2-19 11-2 8 3 16 11 18 4 1 6 4 6 6 2 4 2 8 1 12s-2 6-5 9l-4 3c-6 6-14 14-18 27-2 11-2 22 3 32 5 11 14 20 26 23zm-69 0h4c7 0 13-4 15-11 2-8-3-16-11-18-4-1-6-4-6-6-2-4-2-8-1-13 1-3 3-6 8-11 9-6 15-16 18-27s2-22-2-32c-5-12-14-20-26-23-8-2-16 2-18 11-2 8 2 16 10 18 4 1 6 4 7 6 1 4 1 8 0 12 0 4-2 7-4 9l-5 3c-6 6-14 15-17 27-3 11-3 22 2 32 5 11 15 20 26 23z"/></svg>