<svg xmlns="http://www.w3.org/2000/svg" viewBox="0 0 512 512"><path d="M256 478c-14 0-27-12-27-26v-13c0-15 13-27 27-27s27 12 27 27v13c0 14-13 26-27 26zm0-50c-6 0-11 5-11 11v13c0 6 5 11 11 11s11-5 11-11v-13c0-6-5-11-11-11zm-114 21c-5 0-9-2-13-3-7-4-11-10-13-17s-1-14 2-20l14-24c7-13 23-17 36-11 7 4 12 10 14 18 1 7 0 13-4 19l-12 24c-5 9-15 14-24 14zm3-57l-13 25c-2 2-2 5-1 8s3 6 5 7c6 3 13 1 16-4l13-26c2-3 2-6 2-7-1-3-3-6-6-7-5-3-12-1-16 4zm225 55c-2 0-5 0-7-1-7-2-12-6-16-13-3-5-4-13-2-20s6-12 12-16c11-5 28-2 35 11 4 6 5 13 3 21-2 6-6 12-12 15-4 2-8 3-13 3zm-6-36c-2 1-4 3-4 6-1 3-1 6 1 9 1 3 3 5 6 6 3 0 6 0 8-1 2-2 4-4 5-7s0-6-1-9c-3-4-10-6-15-4zm-305-46c-3 0-5 0-8-1-6-2-12-7-15-13s-4-14-2-21c1-6 5-12 11-15l38-22c6-3 14-4 21-2 6 2 12 6 15 13 3 6 4 13 3 20-2 7-7 13-12 16l-38 22c-4 2-9 3-13 3zm38-60c-2 0-4 0-6 1l-38 22c-2 2-4 4-5 7 0 3 0 6 1 9 2 3 4 5 7 5 2 1 5 1 8-1l38-22c2-1 3-3 4-6s1-6-1-9c-1-3-3-5-6-6h-2zm299-60c-8 0-15-3-20-8s-8-11-8-17c1-14 13-26 27-26h89c7 0 13 2 18 6 6 4 9 11 10 19v1c0 14-12 26-27 26l-89-1zm91-36h-91c-7 0-12 5-12 11 0 3 2 5 3 6 2 2 5 4 9 4h89c6 0 11-5 12-10-1-3-2-6-5-9-1-1-3-2-5-2zm-460 36c-7 0-14-3-20-8-4-5-7-11-7-17 0-14 12-26 27-26h68c7 0 13 2 18 6 6 4 9 11 10 19v1c0 14-12 26-27 26zm71-36h-71c-6 0-12 5-12 11 0 3 2 5 3 6 2 2 6 4 9 4h69c6 0 11-5 12-10-1-3-3-6-5-9-1-1-3-2-5-2zm277-26c-10 0-19-5-24-14-3-6-4-13-2-19 2-8 7-14 13-17l77-44c7-5 16-5 23-2 5 2 10 7 11 12 4 6 5 12 3 19-1 7-6 14-12 17l-77 44c-4 3-8 4-12 4zm77-83c-2 0-4 1-6 2l-77 44c-2 1-4 4-5 7s-1 6 1 8c3 5 10 8 14 5l77-44c3-2 5-4 6-8 0-1 0-4-2-7l-1-1v-2s-1-2-3-3c-1-1-3-1-4-1zm-329 74c-4 0-8-1-12-3l-65-37c-7-4-11-10-13-18-2-7 0-14 4-19 7-13 23-17 35-10l64 37c6 3 11 9 13 17 2 6 1 14-2 19-5 9-14 14-24 14zm-63-75c-4 0-8 2-10 6l-1 1c-2 3-2 6-1 7 1 3 2 6 5 7l66 37c5 3 12 1 15-4 1-3 1-6 0-8 0-3-2-6-5-8l-65-37-4-1zm127 32c-9 0-18-5-23-13l-44-77c-4-5-5-11-4-17 1-8 5-15 12-19l1-1c12-7 28-2 35 11l44 76c4 6 5 14 3 21s-6 12-12 15c-4 3-8 4-12 4zm-51-113c-3 2-5 5-5 8 0 2 0 4 1 7h1l44 77c3 5 10 7 15 4 2-1 4-3 4-6 1-3 1-7-1-9l-44-76c-3-6-9-8-15-5zm190 113c-4 0-8-1-12-3-6-4-11-10-13-18-1-7 0-13 4-19l41-76c8-12 24-17 37-10 7 3 11 9 13 17 2 6 1 14-2 19l-44 77c-5 8-15 13-24 13zm44-114c-4 0-8 2-10 6l-42 77c-2 2-2 5-2 7 1 3 3 6 6 7 5 3 12 1 15-4l44-77c1-2 1-5 0-8 0-3-2-6-5-7-2-1-4-1-6-1zm-119 94c-14 0-26-12-26-26v-88c0-6 2-12 6-17 4-6 12-10 20-10 15 0 26 12 26 26v89c0 7-3 14-8 19s-11 7-18 7zm0-126c-3 0-7 2-9 5-1 1-2 3-2 6v88c0 7 5 12 11 12 2 0 5-1 7-3 2-3 3-6 3-9v-88c0-6-4-11-10-11z"/></svg>