<svg xmlns="http://www.w3.org/2000/svg" viewBox="0 0 512 512"><path d="M510 122l-9-24c-24-60-82-94-162-94-41 0-86 9-132 26l-4-10c-3-8-12-12-20-9s-12 12-9 20l4 10c-60 26-110 62-140 101-38 48-47 100-27 150l10 24c1 4 4 7 8 9 2 1 4 1 6 1s4 0 6-1l61-24c4-1 7-4 9-8l8-19 19 8c4 2 8 2 12 0l109-43 78 195c2 6 8 10 14 10l6-1c8-4 12-13 9-21l-78-194 105-42c4-1 7-4 9-8l8-19 19 8c4 2 8 2 12 0l61-24c8-3 12-12 8-21zm-75 13l-27-12c-4-2-9-2-13 0-4 1-7 5-8 8l-12 28-231 92-27-12c-4-2-9-2-13-1-3 2-7 5-8 9l-12 28-40 15-4-9c-19-50 2-92 23-119 29-39 79-73 141-98 47-18 94-28 135-28 47 0 108 13 132 74l4 9z"/></svg>