<svg xmlns="http://www.w3.org/2000/svg" viewBox="0 0 512 512"><path d="M496 218h-128l-52-168h95c9 0 16-7 16-16 0-8-7-15-16-15h-320c-9 0-16 7-16 15 0 9 7 16 16 16h95l-52 168h-118c-9 0-16 7-16 16 0 8 7 16 16 16h109l-49 159c-3 8 2 17 10 20h5c7 0 13-4 15-11l52-168h187l51 166c2 6 8 11 15 11 2 0 3 0 5-1 8-2 13-11 10-20l-48-157h118c9 0 16-7 16-15 0-9-7-16-16-16zm-213-168c-1 3 2 6 2 9l49 159h-166l49-159c1-3 3-6 2-9h64zm-267 147h53c9 0 16-7 16-16s-7-16-16-16h-53c-9 0-16 7-16 16s7 16 16 16zm426 0h54c9 0 16-7 16-16s-7-16-16-16h-54c-8 0-15 7-15 16s7 16 15 16z"/></svg>