<svg xmlns="http://www.w3.org/2000/svg" viewBox="0 0 512 512"><path d="M422 285c-1-2-2-3-2-5l-3-8c-2-3-4-6-5-9-2-3-4-6-6-10-2-2-4-4-5-6-2-3-4-5-7-8-2-2-4-4-6-7l-9-7c-1-1-3-3-5-4-4-3-8-5-13-8l-4-2c-4-2-9-4-13-5-1-1-2-1-4-1-5-2-11-4-16-5h-5c-5-1-11-2-17-2-68 0-123 53-126 120-29 9-49 35-49 65 0 38 31 69 69 69h233c46 0 83-38 83-84 0-48-41-87-90-83zm7 136h-234c-21 0-38-17-38-38 0-19 15-35 35-37l9-1c10 2 19 7 25 15 3 5 8 7 13 7 3 0 6-1 9-3 6-5 8-15 3-21-11-15-27-25-44-28 5-48 45-86 95-86h1c4 0 10 0 14 1 1 0 2 0 3 1 5 0 9 2 13 3 1 1 2 1 4 2 4 1 8 3 11 5 2 1 3 1 4 2 3 2 6 4 8 6l6 4 6 6 4 5c2 3 4 6 6 8 1 2 3 4 4 7l3 6c2 3 3 6 4 9 1 2 1 4 2 7 2 7 3 16 3 24 0 11-2 22-5 32-3 8 1 16 9 19 2 1 4 1 5 1 7 0 13-4 15-10 4-14 7-28 7-42 0-3 0-6-1-9h1c29 0 53 23 53 53-1 29-24 52-53 52zm-282-124c6-6 5-16-2-21-22-18-35-45-35-74 0-53 43-96 96-96 38 0 73 23 88 58 3 8 12 12 20 9 8-4 11-13 8-21-20-47-65-77-116-77-70 0-127 57-127 127 0 38 18 74 47 98 3 2 6 3 10 3s8-2 11-6zm58-239c9 0 16-7 16-15v-31c0-9-7-16-16-16-8 0-15 7-15 16v31c0 8 7 15 15 15zm116 43c4 0 8-2 11-5l22-22c6-6 6-16 0-22s-15-6-21 0l-23 22c-6 6-6 16 0 22 4 3 7 5 11 5zm-242 206l-23 22c-6 6-6 16 0 22 3 3 7 4 11 4s8-1 11-4l22-23c6-5 6-15 0-21s-16-6-21 0zm-17-105c0-9-7-16-15-16h-32c-8 0-15 7-15 16 0 8 7 15 15 15h32c8 0 15-7 15-15zm17-105c3 3 7 4 10 4 4 0 8-1 11-4 6-6 6-16 0-22l-22-23c-6-5-16-5-22 0-6 6-6 16 0 22z"/></svg>