<svg xmlns="http://www.w3.org/2000/svg" viewBox="0 0 512 512"><path d="M146 299c8 0 15-7 15-16 0-8-7-15-15-15-49 0-90-29-107-72 16 9 34 14 52 13 29 0 57-11 78-32s32-49 32-78c0-19-5-37-13-53 42 17 73 58 73 107 0 8 7 15 15 15 9 0 16-7 16-15-1-80-65-145-145-146-6 0-12 5-14 11s0 13 5 17c21 15 32 38 32 64 0 21-8 41-23 56s-35 24-56 24c-25 0-48-11-63-31-4-6-11-8-18-5-6 2-10 8-10 14 2 80 66 142 146 142zm277-22c0-2-1-4-2-5-1-3-2-6-3-8-1-3-3-6-5-9s-3-6-6-9c-1-3-3-5-5-7l-6-8c-2-2-4-4-7-6-2-3-5-5-8-7-2-2-3-3-5-4-4-3-8-6-13-8l-4-2c-4-2-9-4-13-5l-3-2c-5-1-11-3-16-3-2-1-3-1-5-1-5-1-11-2-17-2-66 1-121 53-125 119-27 8-47 34-47 64 0 37 30 67 67 67h230c45 0 82-37 82-82 0-47-40-86-89-82zm7 133h-230c-20 0-37-16-37-36s14-35 34-37l8-1c10 2 19 7 25 15 3 4 7 6 12 6 3 0 6-1 9-2 7-5 9-15 4-22-11-15-27-24-44-27 5-47 45-84 93-84h1c5 0 10 0 14 1 1 0 2 0 3 1l13 3 3 2c4 1 8 3 12 5 1 1 2 2 4 2 2 2 5 4 8 6 2 1 3 2 5 4l6 6c1 1 3 3 4 5l6 7 4 7 3 6 4 9c0 2 1 4 2 6 2 8 3 16 3 24 0 10-2 21-6 31-2 8 2 17 10 19 2 1 3 1 5 1 6 0 12-4 15-10 4-13 7-27 7-41l-1-9h1c28 0 51 23 51 52 0 28-23 51-51 51z"/></svg>