<?xml version="1.0" encoding="UTF-8" standalone="no"?>
<svg width="29px" height="22px" viewBox="0 0 29 22" version="1.1" xmlns="http://www.w3.org/2000/svg" xmlns:xlink="http://www.w3.org/1999/xlink">
    <!-- Generator: Sketch 3.7.2 (28276) - http://www.bohemiancoding.com/sketch -->
    <title>pay-online-new-ui</title>
    <desc>Created with Sketch.</desc>
    <defs>
        <polygon id="path-1" points="0 21.1321539 28.9176774 21.1321539 28.9176774 0.347155954 0 0.347155954"></polygon>
    </defs>
    <g id="Page-1" stroke="none" stroke-width="1" fill="none" fill-rule="evenodd">
        <g id="577-585" transform="translate(-626.000000, -110.000000)">
            <g id="pay-online-new-ui" transform="translate(626.000000, 110.000000)">
                <g id="Page-1">
                    <g id="Group-3" transform="translate(0.000000, 0.059149)" fill="#000000">
                        <path d="M3.56043192,1.88215604 C2.46542343,1.88215604 1.57523667,2.78294025 1.57523667,3.89098456 L1.57523667,17.4697088 C1.57523667,18.5777531 2.46542343,19.4785373 3.56043192,19.4785373 L25.3566153,19.4785373 C26.4516238,19.4785373 27.3433861,18.5777531 27.3433861,17.4697088 L27.3433861,3.89098456 C27.3433861,2.78294025 26.4516238,1.88215604 25.3566153,1.88215604 L3.56043192,1.88215604 Z M25.3566153,21.0728457 L3.56043192,21.0728457 C1.5972944,21.0728457 -0.000315110355,19.456217 -0.000315110355,17.4697088 L-0.000315110355,3.89098456 C-0.000315110355,1.90447635 1.5972944,0.287847684 3.56043192,0.287847684 L25.3566153,0.287847684 C27.3213284,0.287847684 28.9189379,1.90447635 28.9189379,3.89098456 L28.9189379,17.4697088 C28.9189379,19.456217 27.3213284,21.0728457 25.3566153,21.0728457 L25.3566153,21.0728457 Z" id="Fill-1"></path>
                    </g>
                    <mask id="mask-2" fill="white">
                        <use xlink:href="#path-1"></use>
                    </mask>
                    <g id="Clip-7"></g>
                    <polygon id="Fill-6" fill="#000000" mask="url(#mask-2)" points="0.790926995 6.79453893 27.5753073 6.79453893 27.5753073 5.20023058 0.790926995 5.20023058"></polygon>
                    <polygon id="Fill-8" fill="#000000" mask="url(#mask-2)" points="0.790926995 9.98315563 27.5753073 9.98315563 27.5753073 8.38884728 0.790926995 8.38884728"></polygon>
                </g>
                <rect id="Rectangle-142" fill="#000000" x="18.7096774" y="12.1612903" width="6.5483871" height="1.87096774" rx="100"></rect>
            </g>
        </g>
    </g>
</svg>