<?xml version="1.0" encoding="UTF-8" standalone="no"?>
<svg width="30px" height="22px" viewBox="0 0 30 22" version="1.1" xmlns="http://www.w3.org/2000/svg" xmlns:xlink="http://www.w3.org/1999/xlink">
    <!-- Generator: Sketch 3.7.2 (28276) - http://www.bohemiancoding.com/sketch -->
    <title>payments-new-ui</title>
    <desc>Created with Sketch.</desc>
    <defs>
        <polygon id="path-1" points="0 21.8608489 29.9148387 21.8608489 29.9148387 0.359126849 0 0.359126849"></polygon>
    </defs>
    <g id="Page-1" stroke="none" stroke-width="1" fill="none" fill-rule="evenodd">
        <g id="577-585" transform="translate(-313.000000, -276.000000)">
            <g id="payments-new-ui" transform="translate(313.000000, 276.000000)">
                <g id="Page-1">
                    <g id="Group-3" transform="translate(0.000000, 0.061188)" fill="#000000">
                        <path d="M3.68320543,1.94705797 C2.55043803,1.94705797 1.62955518,2.87890371 1.62955518,4.02515644 L1.62955518,18.0721125 C1.62955518,19.2183653 2.55043803,20.150211 3.68320543,20.150211 L26.2309813,20.150211 C27.3637487,20.150211 28.2862615,19.2183653 28.2862615,18.0721125 L28.2862615,4.02515644 C28.2862615,2.87890371 27.3637487,1.94705797 26.2309813,1.94705797 L3.68320543,1.94705797 Z M26.2309813,21.7994955 L3.68320543,21.7994955 C1.65237351,21.7994955 -0.00032597623,20.127121 -0.00032597623,18.0721125 L-0.00032597623,4.02515644 C-0.00032597623,1.97014795 1.65237351,0.297773466 3.68320543,0.297773466 L26.2309813,0.297773466 C28.2634431,0.297773466 29.9161426,1.97014795 29.9161426,4.02515644 L29.9161426,18.0721125 C29.9161426,20.127121 28.2634431,21.7994955 26.2309813,21.7994955 L26.2309813,21.7994955 Z" id="Fill-1"></path>
                    </g>
                    <mask id="mask-2" fill="white">
                        <use xlink:href="#path-1"></use>
                    </mask>
                    <g id="Clip-7"></g>
                    <polygon id="Fill-6" fill="#000000" mask="url(#mask-2)" points="0.81820034 7.02883337 28.52618 7.02883337 28.52618 5.37954887 0.81820034 5.37954887"></polygon>
                    <polygon id="Fill-8" fill="#000000" mask="url(#mask-2)" points="0.81820034 10.3274024 28.52618 10.3274024 28.52618 8.67811788 0.81820034 8.67811788"></polygon>
                </g>
                <rect id="Rectangle-142" fill="#000000" x="19.3548387" y="12.5806452" width="6.77419355" height="1.93548387" rx="100"></rect>
            </g>
        </g>
    </g>
</svg>