<svg xmlns="http://www.w3.org/2000/svg" viewBox="0 0 512 512"><path d="M481 480h-450c-26-38-16-114 10-140 12-12 101-36 143-46-44-36-71-101-71-162 0-91 25-164 143-164s143 73 143 164c0 61-27 126-71 162 41 10 133 34 143 46 26 26 36 102 10 140zm-30-114c-18-9-87-29-147-43v-51c41-28 63-87 63-140 0-74-19-132-113-132s-111 58-111 132c0 54 24 112 64 140v51c-60 14-132 34-147 43-11 13-19 54-14 82h417c8-26-2-69-12-82zm30 114h-450c-26-38-16-114 10-140 12-12 101-36 143-46-44-36-71-101-71-162 0-91 25-164 143-164s143 73 143 164c0 61-27 126-71 162 41 10 133 34 143 46 26 26 36 102 10 140zm-30-114c-18-9-87-29-147-43v-51c41-28 63-87 63-140 0-74-19-132-113-132s-111 58-111 132c0 54 24 112 64 140v51c-60 14-132 34-147 43-11 13-19 54-14 82h417c8-26-2-69-12-82z"/></svg>