<?xml version="1.0" encoding="UTF-8" standalone="no"?>
<svg width="20px" height="32px" viewBox="0 0 20 32" version="1.1" xmlns="http://www.w3.org/2000/svg" xmlns:xlink="http://www.w3.org/1999/xlink">
    <!-- Generator: Sketch 3.7.2 (28276) - http://www.bohemiancoding.com/sketch -->
    <title>phone-number-new-ui</title>
    <desc>Created with Sketch.</desc>
    <defs>
        <polygon id="path-1" points="19.9139853 0.122347166 0 0.122347166 0 31.4129655 19.9139853 31.4129655 19.9139853 0.122347166"></polygon>
    </defs>
    <g id="Page-1" stroke="none" stroke-width="1" fill="none" fill-rule="evenodd">
        <g id="577-585" transform="translate(-214.000000, -156.000000)">
            <g id="phone-number-new-ui" transform="translate(214.000000, 156.000000)">
                <g id="Group-3" transform="translate(0.000000, 0.500239)">
                    <mask id="mask-2" fill="white">
                        <use xlink:href="#path-1"></use>
                    </mask>
                    <g id="Clip-2"></g>
                    <path d="M3.2582373,1.77519124 C2.37370035,1.77519124 1.65284408,2.49604752 1.65284408,3.38058446 L1.65284408,28.1558856 C1.65284408,29.0404225 2.37370035,29.7596255 3.2582373,29.7596255 L16.655252,29.7596255 C17.5414423,29.7596255 18.2606452,29.0404225 18.2606452,28.1558856 L18.2606452,3.38058446 C18.2606452,2.49604752 17.5414423,1.77519124 16.655252,1.77519124 L3.2582373,1.77519124 Z M16.655252,31.4129655 L3.2582373,31.4129655 C1.46270997,31.4129655 -0.000496002025,29.9514129 -0.000496002025,28.1558856 L-0.000496002025,3.38058446 C-0.000496002025,1.5834038 1.46270997,0.121851164 3.2582373,0.121851164 L16.655252,0.121851164 C18.4524326,0.121851164 19.9139853,1.5834038 19.9139853,3.38058446 L19.9139853,28.1558856 C19.9139853,29.9514129 18.4524326,31.4129655 16.655252,31.4129655 L16.655252,31.4129655 Z" id="Fill-1" fill="#000000" mask="url(#mask-2)"></path>
                </g>
                <path d="M11.6919251,27.3349404 C11.6919251,28.1219303 11.0537358,28.7617729 10.2650926,28.7617729 C9.47810268,28.7617729 8.83991341,28.1219303 8.83991341,27.3349404 C8.83991341,26.5479506 9.47810268,25.9081079 10.2650926,25.9081079 C11.0537358,25.9081079 11.6919251,26.5479506 11.6919251,27.3349404" id="Fill-4" fill="#000000"></path>
                <path d="M0.969518623,6.4911167 C0.513196761,6.4911167 0.142848583,6.12242186 0.142848583,5.6661 C0.142848583,5.20977814 0.511543421,4.83777662 0.967865283,4.83777662 L18.5114569,4.79809646 L18.5131102,4.79809646 C18.9694321,4.79809646 19.3381269,5.1667913 19.3397803,5.62311316 C19.3397803,6.07943502 18.9710854,6.45143654 18.5147636,6.45143654 L0.971171964,6.4911167 L0.969518623,6.4911167 Z" id="Fill-6" fill="#000000"></path>
                <path d="M0.969518623,24.6778576 C0.513196761,24.6778576 0.142848583,24.3091628 0.142848583,23.8528409 C0.142848583,23.396519 0.511543421,23.0245175 0.967865283,23.0245175 L18.5114569,22.9848373 L18.5131102,22.9848373 C18.9694321,22.9848373 19.3381269,23.3535322 19.3397803,23.809854 C19.3397803,24.2661759 18.9710854,24.6381774 18.5147636,24.6381774 L0.971171964,24.6778576 L0.969518623,24.6778576 Z" id="Fill-8" fill="#000000"></path>
            </g>
        </g>
    </g>
</svg>