<?xml version="1.0" encoding="UTF-8" standalone="no"?>
<svg width="26px" height="31px" viewBox="0 0 26 31" version="1.1" xmlns="http://www.w3.org/2000/svg" xmlns:xlink="http://www.w3.org/1999/xlink">
    <!-- Generator: Sketch 3.7.1 (28215) - http://www.bohemiancoding.com/sketch -->
    <title>pizza-slice-outline</title>
    <desc>Created with Sketch.</desc>
    <defs></defs>
    <g id="Page-1" stroke="none" stroke-width="1" fill="none" fill-rule="evenodd">
        <g id="577-585" transform="translate(-157.000000, -157.000000)" fill="#000000">
            <g id="pizza-slice-outline" transform="translate(156.000000, 156.000000)">
                <path d="M26.4347826,5.67373913 C18.0869565,-0.52173913 9.73913043,-0.52173913 1.39130435,5.67373913 C1.06573913,5.86991304 1.06573913,6.19547826 1.19513043,6.52104348 L9.2173913,23.2166957 C9.41356522,23.5422609 9.54295652,23.8692174 9.73913043,24.1947826 L13.0657391,31.2389565 C13.261913,31.3697391 13.3913043,31.5645217 13.5874783,31.5645217 C13.7182609,31.5645217 14.1092174,31.3683478 14.1092174,31.2389565 L26.4347826,6.52104348 C26.7603478,6.19547826 26.7603478,5.86852174 26.4347826,5.67373913 L26.4347826,5.67373913 Z M25.2605217,6.32626087 L24.608,7.82608696 C17.1074783,2.34713043 10.7172174,2.34713043 3.21669565,7.82608696 L2.56417391,6.32626087 C10.2594783,0.978086957 17.5638261,0.978086957 25.2605217,6.32626087 L25.2605217,6.32626087 Z M18.2831304,18.1954783 C18.413913,17.869913 18.6086957,17.6737391 18.9356522,17.6737391 L19.5881739,17.6737391 L18.610087,19.6953043 C18.2845217,19.1735652 18.0883478,18.7172174 18.2845217,18.1954783 L18.2831304,18.1954783 Z M20.1085217,16.4994783 C19.5867826,16.3686957 18.9342609,16.3686957 18.4125217,16.4994783 C17.76,16.6956522 17.4344348,17.2173913 17.1074783,17.6737391 C16.5857391,18.7172174 16.9113043,20.0222609 17.8907826,20.6733913 L13.586087,29.4121739 L11.5645217,25.042087 C12.9335652,25.042087 13.9130435,24.064 13.9130435,22.6935652 C13.9130435,21.3885217 12.9349565,20.3450435 11.5645217,20.3450435 C10.912,20.3450435 10.2594783,20.6706087 9.73773913,21.1923478 L3.73704348,8.86678261 C10.9106087,3.5186087 16.7805217,3.5186087 23.954087,8.86678261 L20.1085217,16.4994783 Z M10.3916522,22.6963478 C10.3916522,22.0438261 10.9133913,21.522087 11.565913,21.522087 C12.2184348,21.522087 12.7401739,22.0438261 12.7401739,22.6963478 C12.7401739,23.3488696 12.2184348,23.8706087 11.565913,23.8706087 C11.2403478,23.8706087 11.0441739,23.7398261 10.9133913,23.5450435 L10.3916522,22.6963478 Z M9.73913043,9.00034783 C8.43408696,9.00034783 7.3906087,10.0438261 7.3906087,11.3488696 C7.3906087,12.717913 8.43408696,13.6973913 9.73913043,13.6973913 C11.0441739,13.6973913 12.0876522,12.7193043 12.0876522,11.3488696 C12.0876522,10.0438261 11.0441739,9.00034783 9.73913043,9.00034783 L9.73913043,9.00034783 Z M9.73913043,12.5217391 C9.0866087,12.5217391 8.56486957,12 8.56486957,11.3474783 C8.56486957,10.6949565 9.0866087,10.1732174 9.73913043,10.1732174 C10.3916522,10.1732174 10.9133913,10.6949565 10.9133913,11.3474783 C10.9133913,12 10.3916522,12.5217391 9.73913043,12.5217391 L9.73913043,12.5217391 Z M17.5652174,11.6744348 C18.9342609,11.6744348 19.9137391,10.6963478 19.9137391,9.32591304 C19.9137391,8.02086957 18.9356522,7.04278261 17.5652174,7.04278261 C16.2601739,7.04278261 15.2166957,8.02086957 15.2166957,9.32591304 C15.2166957,10.6949565 16.2601739,11.6744348 17.5652174,11.6744348 L17.5652174,11.6744348 Z M17.5652174,8.15165217 C18.2831304,8.15165217 18.7394783,8.6733913 18.7394783,9.32591304 C18.7394783,10.0438261 18.2831304,10.5001739 17.5652174,10.5001739 C16.9126957,10.5001739 16.3909565,10.0438261 16.3909565,9.32591304 C16.3909565,8.6733913 16.9126957,8.15165217 17.5652174,8.15165217 L17.5652174,8.15165217 Z" id="Shape"></path>
            </g>
        </g>
    </g>
</svg>