<svg xmlns="http://www.w3.org/2000/svg" viewBox="0 0 512 512"><path d="M236 317h-43c-6 0-10 5-10 12v28c0 7 4 12 10 12h43c5 0 10-5 10-12v-28c0-7-5-12-10-12zm181-129v-1l-30-57c-3-5-8-8-14-8h-228c-6 0-11 3-14 8l-30 57v2c-1 2-1 4-1 5v12c0 20 7 38 19 49v169c0 8 7 15 16 15h248c9 0 15-7 15-15v-172c12-11 20-28 20-46v-17c-1 0-1 0-1-1zm-53-36l14 27h-33l-6-27zm-94 0h37l7 27h-44zm-58 0h27v27h-34zm-12 58h39v30c-5 5-11 8-20 8s-13-2-19-12zm-46-58h26l-7 27h-33zm-23 58h38v22c-4 2-12 4-19 4-11 0-18-13-19-26zm131 147c0 16-11 29-26 29h-43c-15 0-26-13-26-29v-28c0-16 11-29 26-29h43c15 0 26 13 26 29zm8-147h48v26c-5 8-13 12-25 12-7 0-17-2-23-8zm91 192l-1 6h-66c-1-2-2-4-2-6v-87c0-8 7-15 16-15h38c8 0 15 7 15 15zm3-166c-5 0-11-1-15-3v-23h39c-2 14-13 26-24 26zm132 19h-35c-9 0-16 7-16 16 0 8 7 15 16 15h35c9 0 16-7 16-15 0-9-7-16-16-16zm-12 87l-32-17c-7-4-16-2-21 6-4 7-1 16 6 20l32 18c2 1 5 2 7 2 6 0 11-3 14-8 4-8 1-17-6-21zm-30-130c2 0 5 0 6-1l33-14c8-3 12-12 8-20-3-8-12-12-20-8l-33 14c-7 3-11 12-8 20 3 6 8 9 14 9zm-387 59c0-9-7-16-16-16h-35c-9 0-16 7-16 16 0 8 7 15 16 15h35c9 0 16-7 16-15zm-7 54l-32 17c-7 4-10 13-5 21 2 5 7 8 13 8 3 0 5-1 8-2l31-17c7-4 10-14 6-21-5-8-14-10-21-6zm-41-128l33 14c2 1 4 1 6 1 5 0 11-3 14-9 3-8-1-17-9-20l-33-14c-7-4-16 0-20 8-3 8 1 17 9 20zm241-122c8 0 15-6 15-15v-36c0-8-7-15-15-15-9 0-16 7-16 15v36c0 9 7 15 16 15zm-82 3c3 5 8 8 14 8 2 0 5-1 7-2 8-4 10-13 6-21l-17-31c-4-7-13-10-21-6-7 4-10 13-6 21zm149 8l6 1c6 0 12-4 14-10l14-32c3-8 0-17-8-21-8-3-17 1-20 8l-14 33c-3 8 0 17 8 21z"/></svg>