<?xml version="1.0" encoding="UTF-8" standalone="no"?>
<svg width="25px" height="31px" viewBox="0 0 25 31" version="1.1" xmlns="http://www.w3.org/2000/svg" xmlns:xlink="http://www.w3.org/1999/xlink">
    <!-- Generator: Sketch 3.7.2 (28276) - http://www.bohemiancoding.com/sketch -->
    <title>pure-veg-new-ui</title>
    <desc>Created with Sketch.</desc>
    <defs>
        <polygon id="path-1" points="24.8300932 28.0805162 24.8300932 0.496463527 0 0.496463527 0 30.2460757 24.8300932 30.2460757 24.8300932 28.0805162 4.68563591e-06 28.0805162 4.68563591e-06 0.496176948 24.8311582 0.496176948 24.8311582 28.0805162"></polygon>
    </defs>
    <g id="Page-1" stroke="none" stroke-width="1" fill="none" fill-rule="evenodd">
        <g id="577-585" transform="translate(-575.000000, -210.000000)">
            <g id="pure-veg-new-ui" transform="translate(575.000000, 210.000000)">
                <path d="M1.13672842,30.3284469 C0.940217143,30.3284469 0.741919398,30.2656214 0.577564511,30.134735 C0.193474286,29.8328236 0.132734436,29.2813555 0.441793083,28.9078929 L13.1739374,13.4964524 C13.4829961,13.124735 14.0457329,13.0619095 14.4298232,13.3673112 C14.8139134,13.6692225 14.8728668,14.2206907 14.5638081,14.5941533 L1.83345023,30.0038486 C1.65659008,30.2185023 1.39755248,30.3284469 1.13672842,30.3284469" id="Fill-1" fill="#000000"></path>
                <g id="Group-5" transform="translate(0.000000, 0.082371)">
                    <mask id="mask-2" fill="white">
                        <use xlink:href="#path-1"></use>
                    </mask>
                    <g id="Clip-4"></g>
                </g>
                <path d="M3.57382556,26.395048 L12.4382707,26.417735 L12.4632812,26.417735 C16.5578617,26.417735 20.0557624,23.6970425 20.9722195,19.796627 L22.8801654,2.86864912 L6.81447519,9.86496491 C3.14328722,11.5368209 1.10850226,15.569868 1.99101654,19.4475965 L3.57382556,26.395048 Z M12.4632812,28.1628873 L12.4329113,28.1628873 L2.8538797,28.1384552 C2.43763308,28.1367101 2.07498045,27.8539954 1.98387068,27.4543555 L0.247425564,19.8245494 C-0.817308271,15.1562669 1.63372331,10.2977627 6.07309173,8.27687627 L23.5733143,0.654050785 C23.8645083,0.528399815 24.2057233,0.559812558 24.4647609,0.74654386 C24.722012,0.931530009 24.8613564,1.23693167 24.8256271,1.54756879 L22.7318887,20.0880674 C21.6082015,24.8872364 17.3957143,28.1628873 12.4632812,28.1628873 L12.4632812,28.1628873 Z" id="Fill-3" fill="#000000"></path>
                <path d="M10.6394779,19.0053749 C10.2250177,19.0053749 9.85343278,18.7226602 9.76589594,18.3108042 C9.66585383,17.837868 9.97491248,17.3754026 10.4590448,17.2794192 L13.9426538,16.5726325 C14.4232132,16.4661782 14.8966268,16.7768153 14.9984553,17.2497516 C15.0984974,17.7226879 14.7894388,18.1834081 14.3053065,18.2811367 L10.8216974,18.9861782 C10.7609576,19.0001394 10.7002177,19.0053749 10.6394779,19.0053749" id="Fill-6" fill="#000000"></path>
                <path d="M6.22476271,23.7448596 C5.77814617,23.7448596 5.39048301,23.4185162 5.33867549,22.9735023 L4.93314767,19.5460231 C4.87776722,19.0661062 5.22791459,18.6333084 5.71919278,18.5774635 C6.20332511,18.5303444 6.65172812,18.8654137 6.70889504,19.3453306 L7.11263639,22.7710646 C7.16980331,23.2509815 6.81786947,23.6837793 6.32837774,23.7396242 C6.29443489,23.7431145 6.25870556,23.7448596 6.22476271,23.7448596" id="Fill-8" fill="#000000"></path>
            </g>
        </g>
    </g>
</svg>