<svg xmlns="http://www.w3.org/2000/svg" viewBox="0 0 512 512"><path d="M507-26c-4-3-9-5-14-5-16 2-390 45-476 226-30 64-20 137 29 216l-18 18c-7 7-7 18 0 24 3 3 7 5 12 5 4 0 8-2 12-5l18-18c48 29 94 44 137 44 247 0 302-471 305-491 0-5-2-10-5-14zm-300 471c-35 0-73-12-113-34l44-44h102c9 0 17-7 17-17 0-9-8-16-17-16h-69l58-58h84c9 0 16-7 16-17 0-9-7-16-16-16h-51l58-58h29c9 0 17-7 17-17 0-9-8-16-17-16h-20v-20c0-9-7-17-16-17s-17 8-17 17v30l-57 57v-51c0-9-8-17-17-17s-17 8-17 17v84l-57 58v-69c0-9-8-17-17-17s-17 8-17 17v102l-44 44c-38-66-46-126-22-178 66-140 347-191 427-203-14 91-78 439-268 439z"/></svg>