<svg xmlns="http://www.w3.org/2000/svg" viewBox="0 0 512 512"><path d="M495 229v-30c0-81-66-148-148-148h-182c-82 0-148 67-148 148v30c-10 9-17 22-17 36v17c0 15 7 27 17 36v22c0 31 25 57 56 57h365c31 0 57-26 57-57v-22c10-9 16-21 16-36v-17c1-14-6-27-16-36zm-447-30c0-64 52-117 117-117h182c65 0 117 53 117 117v18h-416zm416 141c0 14-11 26-26 26h-364c-15 0-26-12-26-26v-9h416zm17-58c0 10-8 18-18 18h-414c-10 0-18-8-18-18v-17c0-9 8-17 18-17h414c10 0 18 7 18 17zm-333-110c9 0 16-7 16-15 0-9-7-16-16-16-8 0-15 7-15 16 0 8 7 15 15 15zm57-38c8 0 15-7 15-15 0-9-7-16-15-16-9 0-15 7-15 16 0 8 6 15 15 15zm102 0c9 0 15-7 15-15 0-9-6-16-15-16-8 0-15 7-15 16 0 8 7 15 15 15zm-51 38c8 0 15-7 15-15 0-9-7-16-15-16s-15 7-15 16c0 8 7 15 15 15zm98 0c9 0 15-7 15-15 0-9-6-16-15-16-8 0-15 7-15 16 0 8 6 15 15 15z"/></svg>