<svg xmlns="http://www.w3.org/2000/svg" viewBox="0 0 512 512"><path d="M256 480c-141 0-256-115-256-256s115-256 256-256 256 115 256 256-115 256-256 256zm0-490c-129 0-234 105-234 234s105 234 234 234 234-105 234-234-105-234-234-234zm83 271l19 57c4 13 0 27-11 35-5 3-11 5-18 5-6 0-13-2-18-5l-49-36-50 36c-10 7-25 7-35 0-11-8-15-22-11-35l19-57-50-36c-11-8-15-22-11-34 4-13 16-21 29-21h61l19-58c4-13 16-21 29-21s25 8 29 21l19 58h61c13 0 25 8 29 21 4 12-1 26-11 34zm39-64c-1-3-4-5-8-5h-77l-23-73c-1-4-5-6-8-6-4 0-7 2-8 6l-24 73h-77c-4 0-7 2-8 6-1 3 0 7 3 9l62 45-23 73c-1 4 0 8 3 10s7 2 9 0l63-46 62 46c3 2 7 2 10 0s4-6 3-10l-24-73 63-45c2-2 3-6 2-10z"/></svg>