<?xml version="1.0" encoding="UTF-8" standalone="no"?>
<svg width="32px" height="32px" viewBox="0 0 32 32" version="1.1" xmlns="http://www.w3.org/2000/svg" xmlns:xlink="http://www.w3.org/1999/xlink">
    <!-- Generator: Sketch 3.7.2 (28276) - http://www.bohemiancoding.com/sketch -->
    <title>rate-new-ui</title>
    <desc>Created with Sketch.</desc>
    <defs></defs>
    <g id="Page-1" stroke="none" stroke-width="1" fill="none" fill-rule="evenodd">
        <g id="577-585" transform="translate(-156.000000, -52.000000)">
            <g id="rate-new-ui" transform="translate(156.000000, 52.000000)">
                <rect id="Rectangle-67" fill="#000000" x="0" y="0" width="32" height="32" rx="100"></rect>
                <path d="M13.8237697,20.8703529 C13.6027917,20.8703529 13.3829922,20.8008185 13.1950135,20.664696 C12.8626625,20.4230933 12.6988441,20.0212079 12.7683785,19.616376 L13.1979599,17.111958 C13.2085668,17.0512627 13.1885315,16.9887996 13.1443358,16.9457825 L11.3246552,15.1720652 C11.030607,14.8856777 10.9263054,14.4643462 11.0529995,14.0736569 C11.1802828,13.6829677 11.5120446,13.4030622 11.9186442,13.3441347 L14.5308995,12.9640524 L15.6988423,10.5975247 C15.8809282,10.2286386 16.249225,10 16.6599495,10 C17.0706741,10 17.4389708,10.2286386 17.6210568,10.5975247 L18.7895888,12.9640524 L21.4012548,13.3441347 C21.8078545,13.4030622 22.1396162,13.6829677 22.2668996,14.0736569 C22.3935937,14.4643462 22.2898813,14.8850884 21.9952439,15.1720652 L20.1054395,17.0147276 L20.5515205,19.616376 C20.621055,20.0212079 20.4578258,20.4230933 20.1248856,20.664696 C19.7925345,20.9062987 19.3600068,20.9375302 18.9964242,20.7460159 L16.6599495,19.5179671 L14.3240641,20.7460159 C14.1655491,20.8291037 13.9946594,20.8703529 13.8237697,20.8703529" id="Fill-1" fill="#FFFFFF"></path>
            </g>
        </g>
    </g>
</svg>