<svg xmlns="http://www.w3.org/2000/svg" viewBox="0 0 512 512"><path d="M133 81h-1c-24 0-43 20-43 44 0 23 18 42 41 42h64c16 0 32-6 43-18 12-12 18-28 18-44 0-35-29-63-64-63-26 0-49 15-58 39zm93 24c0 9-3 17-9 24-7 6-15 10-23 10h-64c-7 0-12-7-12-14 0-8 6-15 15-15 1 0 3 0 5 1 4 1 9 1 12-1 4-2 7-6 7-11 3-16 18-29 34-29 19 1 35 16 35 35zm-64 142c40 0 76 52 76 53 3 4 8 6 13 6s9-3 12-7l59-101c3-6 10-10 16-10 8 0 14 5 15 7l2 3 33 35 21-19-32-34c-7-12-23-21-39-21-17 0-33 9-41 24l-49 83c-17-19-48-48-86-48-50 0-90 79-103 108h-30v-314h423v157h29v-172c0-8-7-14-15-14h-452c-8 0-14 6-14 14v452c0 8 6 14 14 14h203v-28h-188v-81h244v-29h-182c17-33 46-78 71-78zm273 121l73-72c5-6 5-15 0-21-6-5-15-5-21 0l-72 73-73-73c-5-5-15-5-20 0-6 6-6 15 0 21l72 72-72 73c-6 5-6 15 0 20 3 3 6 5 10 5s7-2 10-5l73-72 72 72c3 3 7 5 10 5 4 0 8-2 11-5 5-5 5-15 0-20z"/></svg>