<?xml version="1.0" encoding="UTF-8" standalone="no"?>
<svg width="29px" height="28px" viewBox="0 0 29 28" version="1.1" xmlns="http://www.w3.org/2000/svg" xmlns:xlink="http://www.w3.org/1999/xlink">
    <!-- Generator: Sketch 3.7.2 (28276) - http://www.bohemiancoding.com/sketch -->
    <title>reservation-history-new-ui</title>
    <desc>Created with Sketch.</desc>
    <defs></defs>
    <g id="Page-1" stroke="none" stroke-width="1" fill="none" fill-rule="evenodd">
        <g id="577-585" transform="translate(-262.000000, -211.000000)" fill="#000000">
            <g id="reservation-history-new-ui" transform="translate(262.000000, 211.000000)">
                <g id="Group-3" transform="translate(0.000000, 0.613426)">
                    <path d="M5.60142632,1.53295526 C3.36537368,1.53295526 1.54753158,3.35079737 1.54753158,5.58685 L1.54753158,20.9873763 C1.54753158,23.2219026 3.36537368,25.0412711 5.60142632,25.0412711 L23.2563211,25.0412711 C25.4923737,25.0412711 27.3117421,23.2219026 27.3117421,20.9873763 L27.3117421,5.58685 C27.3117421,3.35079737 25.4923737,1.53295526 23.2563211,1.53295526 L5.60142632,1.53295526 Z M23.2563211,26.5675868 L5.60142632,26.5675868 C2.52437368,26.5675868 0.0212157895,24.0644289 0.0212157895,20.9873763 L0.0212157895,5.58685 C0.0212157895,2.50979737 2.52437368,0.00663947368 5.60142632,0.00663947368 L23.2563211,0.00663947368 C26.3333737,0.00663947368 28.8380579,2.50979737 28.8380579,5.58685 L28.8380579,20.9873763 C28.8380579,24.0644289 26.3333737,26.5675868 23.2563211,26.5675868 L23.2563211,26.5675868 Z" id="Fill-1"></path>
                </g>
                <g id="Group-6" transform="translate(0.000000, 7.338755)">
                    <path d="M0.763157895,2.37143684 C0.343421053,2.37143684 0.00152631579,2.14554211 -1.67698692e-13,1.72427895 C-0.00152631579,1.30301579 0.338842105,0.961121053 0.760105263,0.959594737 L27.8674737,0.845121053 L27.8705263,0.845121053 C28.2902632,0.845121053 28.6321579,1.24043684 28.6336842,1.6617 C28.6352105,2.08296316 28.2948421,2.34091053 27.8735789,2.34243684 L0.766210526,2.37143684 L0.763157895,2.37143684 Z" id="Fill-4"></path>
                </g>
                <path d="M9.87968947,16.6520289 L7.41011053,16.6520289 C6.99647895,16.6520289 6.66068947,16.3162395 6.66068947,15.9010816 L6.66068947,13.95045 C6.66068947,13.5368184 6.99647895,13.2010289 7.41011053,13.2010289 L9.87968947,13.2010289 C10.2948474,13.2010289 10.6306368,13.5368184 10.6306368,13.95045 L10.6306368,15.9010816 C10.6306368,16.3162395 10.2948474,16.6520289 9.87968947,16.6520289" id="Fill-7"></path>
                <path d="M15.8846737,16.6239447 L13.4135684,16.6239447 C12.9999368,16.6239447 12.6641474,16.2881553 12.6641474,15.8745237 L12.6641474,13.9223658 C12.6641474,13.5087342 12.9999368,13.1729447 13.4135684,13.1729447 L15.8846737,13.1729447 C16.2983053,13.1729447 16.6340947,13.5087342 16.6340947,13.9223658 L16.6340947,15.8745237 C16.6340947,16.2881553 16.2983053,16.6239447 15.8846737,16.6239447" id="Fill-9"></path>
                <path d="M21.7379421,16.7046868 L19.2118895,16.7046868 C18.8135211,16.7046868 18.4899421,16.3811079 18.4899421,15.9827395 L18.4899421,13.9756342 C18.4899421,13.5772658 18.8135211,13.2536868 19.2118895,13.2536868 L21.7379421,13.2536868 C22.1363105,13.2536868 22.4598895,13.5772658 22.4598895,13.9756342 L22.4598895,15.9827395 C22.4598895,16.3811079 22.1363105,16.7046868 21.7379421,16.7046868" id="Fill-11"></path>
                <path d="M9.83771579,21.5624921 L7.49634737,21.5624921 C7.04608421,21.5624921 6.68129474,21.1977026 6.68129474,20.7489658 L6.68129474,18.9250184 C6.68129474,18.4747553 7.04608421,18.1114921 7.49634737,18.1114921 L9.83771579,18.1114921 C10.2879789,18.1114921 10.6512421,18.4747553 10.6512421,18.9250184 L10.6512421,20.7489658 C10.6512421,21.1977026 10.2879789,21.5624921 9.83771579,21.5624921" id="Fill-13"></path>
                <path d="M15.9435895,21.5620342 L13.3992211,21.5620342 C13.0054316,21.5620342 12.6864316,21.2430342 12.6864316,20.8492447 L12.6864316,18.8238237 C12.6864316,18.4300342 13.0054316,18.1110342 13.3992211,18.1110342 L15.9435895,18.1110342 C16.3373789,18.1110342 16.6563789,18.4300342 16.6563789,18.8238237 L16.6563789,20.8492447 C16.6563789,21.2430342 16.3373789,21.5620342 15.9435895,21.5620342" id="Fill-15"></path>
            </g>
        </g>
    </g>
</svg>