<svg xmlns="http://www.w3.org/2000/svg" viewBox="0 0 512 512"><path d="M248 234h-133c-8 0-15 7-15 15v116c0 9 7 15 15 15h133c8 0 15-6 15-15v-116c0-9-7-15-15-15zm-16 115h-102v-85h102zm280-249l-1-6-1-1v-1l-50-83c-3-5-8-8-13-8h-382c-5 0-10 3-13 8l-50 83v1l-1 1-1 6v16c0 29 13 54 33 69v246c0 9 7 16 16 16h414c9 0 16-7 16-16v-249s-1-1-1-2c20-15 34-39 34-64zm-43-16h-77l-16-52h62zm-104 76c-11 16-28 24-53 24-21 0-38-6-49-17v-52h102zm-218-45h85v53c-11 11-24 16-42 16-23 0-32-6-43-23zm85-83v52h-80l16-52zm112 0l16 52h-97v-52zm-270 0h62l-16 52h-77zm-43 83h85v43c-9 5-27 9-42 9-27 0-43-26-43-51zm298 301v-152h69v152zm119 0h-19v-167c0-8-7-15-16-15h-99c-9 0-16 7-16 15v167h-234v-219c3 0 6 1 10 1 10 0 35-3 54-11 13 17 31 27 62 27 23 0 42-6 58-19 17 13 39 19 64 19 30 0 55-9 71-27 15 8 33 11 47 11 6 0 12-1 18-3zm33-300c0 27-25 51-51 51-13 0-26-4-34-9v-43h85zm-92 232c0 5-4 9-9 9-4 0-8-4-8-9 0-4 4-8 8-8 5 0 9 4 9 8z"/></svg>