<svg xmlns="http://www.w3.org/2000/svg" viewBox="0 0 512 512"><path d="M101 145c-3 2-4 6-4 10v190c0 4 1 7 4 10 2 2 6 4 10 4h215c4 0 8-2 10-4l94-95c5-6 5-15 0-20l-93-96c-3-2-6-4-10-4h-216c-4 1-7 2-10 5zm24 186v-162h196l79 81-79 81zm215-114c-8-8-20-13-32-13-13 0-24 5-33 13-9 9-13 21-13 33s5 24 13 32c9 9 20 14 33 14 12 0 24-5 32-14 18-18 18-47 0-65zm-15 33c0 4-2 9-5 12-6 7-19 7-25 0-3-3-5-7-5-12s2-9 5-13c3-3 8-5 12-5 5 0 10 2 13 5 3 4 5 8 5 13zm172-191h-286l-37-44c-3-3-8-6-12-6h-147c-8 0-15 7-15 16v398c0 9 7 16 15 16h482c8 0 15-7 15-16v-349c0-8-7-15-15-15zm-16 349h-450v-368h124l37 44c3 4 7 6 12 6h277z"/></svg>