<svg xmlns="http://www.w3.org/2000/svg" viewBox="0 0 512 512"><path d="M512 358c0 60-49 109-109 109-47 0-86-29-102-71l-78 77-223-224 277-277h124l99 99v126l-59 59c41 15 71 55 71 102zm-109 89c49 0 89-40 89-89 0-50-40-89-89-89-10 0-20 2-30 5-4 1-7 4-11 6l-2 1c-7 4-13 10-19 16-1 0-1 1-2 2-3 3-5 6-7 9-3 4-5 7-6 11l-2 3-4 11c-2 4-2 8-3 12 0 1 0 2-1 3 0 5-1 9-1 13s1 7 1 12v1l1 5c10 39 44 68 86 68zm-373-198l193 194 38-37-193-195zm448-169l-86-87h-107l-202 203 193 194 19-18c-1-4-1-7-1-11v-3c0-35 17-66 42-86 6-6 13-10 21-14 5-3 11-5 17-7 5-2 11-3 16-4 1 0 2 0 3-1l17-1c3 0 7 0 11 1l57-58zm-103 44c-20 0-36-16-36-36s16-37 36-37 37 17 37 37-17 36-37 36zm0-51c-8 0-15 7-15 15s7 15 15 15 15-7 15-15c0-9-7-15-15-15zm17 235h21v43h50v21h-50v42h-21v-42h-45v-21h45z"/></svg>