<?xml version="1.0" encoding="UTF-8" standalone="no"?>
<svg width="27px" height="32px" viewBox="0 0 27 32" version="1.1" xmlns="http://www.w3.org/2000/svg" xmlns:xlink="http://www.w3.org/1999/xlink">
    <!-- Generator: Sketch 3.7.2 (28276) - http://www.bohemiancoding.com/sketch -->
    <title>save-a-deal-new-ui</title>
    <desc>Created with Sketch.</desc>
    <defs>
        <polygon id="path-1" points="26.2384436 0.192898026 0.000347142855 0.192898026 0.000347142855 31.452954 26.2384436 31.452954"></polygon>
    </defs>
    <g id="Page-1" stroke="none" stroke-width="1" fill="none" fill-rule="evenodd">
        <g id="577-585" transform="translate(-107.000000, -105.000000)">
            <g id="save-a-deal-new-ui" transform="translate(107.000000, 105.000000)">
                <g id="Group-3" transform="translate(0.000000, 0.486240)">
                    <mask id="mask-2" fill="white">
                        <use xlink:href="#path-1"></use>
                    </mask>
                    <g id="Clip-2"></g>
                    <path d="M8.52270429,26.8282049 C8.79174,26.8282049 9.06251143,26.9102706 9.29162571,27.0761119 L11.1627257,28.426778 L12.9071186,26.9837879 C13.3809686,26.590556 14.0700471,26.5820075 14.5560471,26.9632715 L16.1685257,28.2284524 L17.3140971,27.093209 C17.8122471,26.6008142 18.6176186,26.5871366 19.1296543,27.064144 L20.3515971,28.1976777 L21.4450971,27.0419178 C21.92589,26.5324261 22.7329971,26.4965223 23.2606543,26.9581424 C23.3682686,27.0521761 23.4724114,27.1445001 23.5713471,27.231695 L23.61474,3.91646225 L22.4466043,4.66018347 C21.9293614,4.98844663 21.2489614,4.91492936 20.8167686,4.48579367 L19.6399543,3.31635617 L18.4718186,4.51998775 C18.2253471,4.77302393 17.8521686,4.95083314 17.5293257,4.91663906 C17.1787114,4.91663906 16.8419829,4.77644334 16.5972471,4.52853627 L15.3996043,3.31806587 L14.08914,4.43279285 C13.57884,4.86876735 12.8168614,4.8465412 12.3308614,4.38321143 L11.1679329,3.27019416 L9.67869,4.4584384 C9.21178286,4.83115387 8.54700429,4.84141209 8.06968286,4.48237426 L6.34264714,3.18641867 L4.75099714,4.4584384 C4.29103286,4.82602475 3.63666857,4.84141209 3.15934714,4.49434219 L2.60391857,4.09256176 L2.60391857,27.5565387 L3.15761143,27.2060494 C3.61931143,26.91369 4.21986857,26.9393356 4.65726857,27.2727279 L6.11526857,28.3840354 L7.70171143,27.1137254 C7.94124,26.9239483 8.23284,26.8282049 8.52270429,26.8282049 M24.8696614,31.452954 C24.79329,31.452954 24.7134471,31.4461152 24.6336043,31.4324376 C24.29514,31.3708882 24.0070114,31.1828208 23.8160829,30.9246555 C23.6251543,30.7365881 23.0870829,30.2493225 22.4795829,29.7107657 L21.3617829,30.8887517 C21.1257257,31.1383685 20.7994114,31.2836933 20.4522686,31.2956613 C20.1172757,31.3178874 19.7701329,31.1811111 19.5184543,30.9468817 L18.26874,29.7859927 L17.1943329,30.8511382 C16.7274257,31.3161777 15.9793329,31.3589203 15.4603543,30.9520108 L13.7662971,29.6218611 L12.0566186,31.037496 C11.5966543,31.41876 10.9336114,31.4426958 10.4493471,31.0904968 L8.56262571,29.7295725 L6.95361857,31.0169795 C6.48324,31.3914047 5.81499,31.3982435 5.33593286,31.0340766 L3.78941143,29.8543808 L2.00509714,30.9810757 C1.60414714,31.2358216 1.09384714,31.2529187 0.677275714,31.0272377 C0.260704286,30.8015568 0.000347142855,30.3707114 0.000347142855,29.9022525 L0.000347142855,1.55707081 C0.000347142855,1.07322459 0.276325714,0.630411266 0.713725714,0.411569161 C1.15112571,0.19443676 1.67878286,0.235469655 2.07279,0.524409622 L3.89355429,1.84259137 L5.49909,0.560313405 C5.96426143,0.187597944 6.62904,0.17733972 7.10809714,0.536377549 L8.83339714,1.83233314 L10.4267829,0.560313405 C10.9370829,0.151694161 11.6782329,0.184178536 12.1520829,0.637250082 L13.2907114,1.72462179 L14.6272114,0.585958964 C15.14619,0.143145641 15.9307329,0.175630016 16.4115257,0.662895641 L17.5223829,1.78788084 L18.68184,0.591088076 C18.92484,0.341471299 19.2598329,0.197856168 19.6104471,0.19443676 C19.9593257,0.168791201 20.3012614,0.327793668 20.5477329,0.57570074 L21.9206829,1.94004449 L24.2135614,0.479957319 C24.6145114,0.225211431 25.1265471,0.206404688 25.5431186,0.430375905 C25.9631614,0.656056826 26.2235186,1.08861192 26.2217829,1.55878051 L26.1714471,29.7808636 C26.3033614,30.0698035 26.2217829,30.2818068 26.0881329,30.6254573 C25.8937329,31.12982 25.4025257,31.452954 24.8696614,31.452954" id="Fill-1" fill="#000000" mask="url(#mask-2)"></path>
                </g>
                <path d="M8.829405,22.4317012 C8.52218357,22.4317012 8.21496214,22.3256995 7.96501929,22.1085671 C7.42868357,21.6383985 7.38008357,20.8279988 7.85566929,20.2979906 L17.2094336,9.92008766 C17.686755,9.39007944 18.5077479,9.34220773 19.047555,9.81237632 C19.5838907,10.2825449 19.6342264,11.0929446 19.156905,11.6229528 L9.80487643,22.0008558 C9.546255,22.2863763 9.18869786,22.4317012 8.829405,22.4317012" id="Fill-4" fill="#000000"></path>
                <path d="M8.97711429,11.0876445 C8.56748571,11.0876445 8.23422857,11.4159076 8.23422857,11.8193978 C8.23422857,12.2211782 8.56748571,12.5494414 8.97711429,12.5494414 C9.38500714,12.5494414 9.71826429,12.2211782 9.71826429,11.8193978 C9.71826429,11.4159076 9.38500714,11.0876445 8.97711429,11.0876445 M8.97711429,14.2591453 C7.61110714,14.2591453 6.49851429,13.1649348 6.49851429,11.8193978 C6.49851429,10.4738608 7.61110714,9.37794054 8.97711429,9.37794054 C10.3431214,9.37794054 11.4539786,10.4738608 11.4539786,11.8193978 C11.4539786,13.1649348 10.3431214,14.2591453 8.97711429,14.2591453" id="Fill-6" fill="#000000"></path>
                <path d="M17.6039614,19.4424548 C17.1960686,19.4424548 16.8628114,19.7707179 16.8628114,20.1724984 C16.8628114,20.5759885 17.1960686,20.9042516 17.6039614,20.9042516 C18.01359,20.9042516 18.3468471,20.5759885 18.3468471,20.1724984 C18.3468471,19.7707179 18.01359,19.4424548 17.6039614,19.4424548 M17.6039614,22.6139556 C16.2379543,22.6139556 15.1270971,21.5180354 15.1270971,20.1724984 C15.1270971,18.8269613 16.2379543,17.7327508 17.6039614,17.7327508 C18.9699686,17.7327508 20.0825614,18.8269613 20.0825614,20.1724984 C20.0825614,21.5180354 18.9699686,22.6139556 17.6039614,22.6139556" id="Fill-8" fill="#000000"></path>
            </g>
        </g>
    </g>
</svg>