<?xml version="1.0" encoding="UTF-8" standalone="no"?>
<svg width="31px" height="24px" viewBox="0 0 31 24" version="1.1" xmlns="http://www.w3.org/2000/svg" xmlns:xlink="http://www.w3.org/1999/xlink">
    <!-- Generator: Sketch 3.7.2 (28276) - http://www.bohemiancoding.com/sketch -->
    <title>search-this-menu-new-ui</title>
    <desc>Created with Sketch.</desc>
    <defs>
        <polygon id="path-1" points="7.95003509 3.02344842 7.95003509 0.348685532 0.084560349 0.348685532 0.084560349 3.02344842 7.95003509 3.02344842"></polygon>
    </defs>
    <g id="Page-1" stroke="none" stroke-width="1" fill="none" fill-rule="evenodd">
        <g id="577-585" transform="translate(-208.000000, -109.000000)">
            <g id="search-this-menu-new-ui" transform="translate(208.000000, 109.000000)">
                <path d="M8.78305979,3.08016295 C8.46020741,3.08016295 8.13407733,3.10433247 7.80958611,3.1526715 C6.14452001,3.40564575 4.6777541,4.28058218 3.68133659,5.61635069 C2.68491909,6.95211921 2.27684678,8.589201 2.53414538,10.2262828 C2.78980514,11.8649759 3.67969775,13.305479 5.03829991,14.28515 C6.39690207,15.264821 8.06524586,15.6644236 9.72867312,15.4130607 C13.1653302,14.8942217 15.5334606,11.7199588 15.0041138,8.34106065 C14.7484541,6.70236756 13.8585615,5.26186448 12.4999593,4.28219348 C11.40685,3.492656 10.1138016,3.08016295 8.78305979,3.08016295 M8.74864405,17.904132 C6.90002736,17.904132 5.10385369,17.3305088 3.58464476,16.2348242 C1.6966958,14.8732748 0.459368138,12.8704277 0.103738862,10.5952707 C-0.251890413,8.31850244 0.315149814,6.04334545 1.69997349,4.18712673 C3.08315832,2.3292967 5.12188099,1.11437576 7.43592954,0.764723445 C9.74833925,0.416682433 12.0623878,0.97096997 13.9536145,2.3325193 C15.8415634,3.69406863 17.0772522,5.69691574 17.4328815,7.97207273 C18.1687227,12.6706264 14.8795617,17.0791459 10.1023297,17.80262 C9.65000858,17.8702946 9.19768747,17.904132 8.74864405,17.904132" id="Fill-1" fill="#000000"></path>
                <path d="M15.5231359,23.9318478 C15.0724537,23.9318478 14.6381598,23.6869301 14.4234712,23.2631579 L11.1211994,16.7712262 C10.8180131,16.1750449 11.0638398,15.4483481 11.6702123,15.1502575 C12.2798625,14.8521668 13.0173425,15.0938619 13.3205288,15.6900433 L16.6211618,22.1835862 C16.924348,22.7797676 16.6801602,23.504853 16.0721489,23.804555 C15.8951536,23.8915653 15.7083254,23.9318478 15.5231359,23.9318478" id="Fill-3" fill="#000000"></path>
                <path d="M29.4105411,2.69844575 L17.5993881,2.67911014 C16.8930461,2.67911014 16.3210893,2.1151548 16.3210893,1.42068407 L16.3210893,1.25794267 C16.3210893,0.563471953 16.894685,-0.000483390293 17.601027,-0.000483390293 L29.4138187,-0.000483390293 C30.1234385,-0.000483390293 30.6986729,0.568305856 30.6937564,1.26599918 L30.6921175,1.44807619 C30.687201,2.14093561 30.1152442,2.70005705 29.4105411,2.69844575" id="Fill-5" fill="#000000"></path>
                <path d="M29.345315,9.1073954 L20.5479973,9.12028581 C19.8072396,9.12189711 19.2025059,8.53699485 19.1926728,7.81029811 L19.191034,7.7957964 C19.1795621,7.05298665 19.7892123,6.44552618 20.5447196,6.44552618 L29.3436762,6.44552618 C30.0926282,6.44552618 30.7006395,7.04493014 30.6973618,7.78129469 L30.6973618,7.78129469 C30.6940841,8.51443664 30.0893505,9.1057841 29.345315,9.1073954" id="Fill-7" fill="#000000"></path>
                <path d="M29.3454789,15.5529216 L22.468887,15.565812 C21.7215739,15.5674233 21.1135626,14.9712419 21.1119237,14.2348774 L21.1119237,14.2235983 C21.1119237,13.4872337 21.7182962,12.8910524 22.4672482,12.8910524 L29.3422012,12.8910524 C30.0927921,12.8910524 30.7008034,13.488845 30.6975257,14.2268209 L30.6975257,14.2268209 C30.694248,14.9599628 30.0895144,15.5513103 29.3454789,15.5529216" id="Fill-9" fill="#000000"></path>
                <g id="Group-13" transform="translate(22.943824, 19.097945)">
                    <mask id="mask-2" fill="white">
                        <use xlink:href="#path-1"></use>
                    </mask>
                    <g id="Clip-12"></g>
                    <path d="M6.84152061,3.01055475 L1.19733985,3.02344516 C0.582773135,3.02505646 0.0845643806,2.4288751 0.0845643806,1.69251055 L0.0845643806,1.68123144 C0.0829255361,0.944866895 0.58113429,0.348685532 1.19570101,0.348685532 L6.83988177,0.348685532 C7.45444848,0.348685532 7.95265724,0.946478195 7.95101839,1.68445404 L7.95101839,1.68445404 C7.94774071,2.41759599 7.45280964,3.00894345 6.84152061,3.01055475" id="Fill-11" fill="#000000" mask="url(#mask-2)"></path>
                </g>
            </g>
        </g>
    </g>
</svg>