<svg xmlns="http://www.w3.org/2000/svg" viewBox="0 0 512 512"><path d="M497 89c-33 0-63-16-80-43-18 27-48 43-81 43-32 0-62-16-80-43-17 27-47 43-80 43-32 0-63-16-80-43-18 27-48 43-80 43-9 0-15-6-15-15 0-8 6-15 15-15 24 0 46-13 57-35 5-8 14-13 23-13 10 0 19 5 23 13 12 22 34 35 58 35s45-13 57-35c5-8 13-13 23-13s18 5 23 13c11 22 33 35 57 35s46-13 58-35c4-8 13-13 23-13s18 5 23 13c11 22 33 35 57 35 9 0 16 7 16 15 0 9-9 15-17 15zm0 175c-33 0-63-17-80-44-18 27-48 44-81 44-32 0-62-17-80-44-17 27-47 44-80 44-32 0-63-17-80-44-18 27-48 44-80 44-9 0-15-7-15-16 0-8 6-15 15-15 24 0 46-13 57-34 5-9 14-14 23-14 10 0 19 5 23 14 12 21 34 34 58 34s45-13 57-34c5-9 13-14 23-14s18 5 23 14c11 21 33 34 57 34s46-13 58-34c4-9 13-14 23-14s18 5 23 14c11 21 33 34 57 34 9 0 16 7 16 15 0 9-9 16-17 16zm0 174c-33 0-63-17-80-44-18 27-48 44-81 44-32 0-62-17-80-44-17 27-47 44-80 44-32 0-63-17-80-44-18 27-48 44-80 44-9 0-15-7-15-16 0-8 6-15 15-15 24 0 46-13 57-34 5-9 14-14 23-14 10 0 19 5 23 14 12 21 34 34 58 34s45-13 57-34c5-9 13-14 23-14s18 5 23 14c11 21 33 34 57 34s46-13 58-34c4-9 13-14 23-14s18 5 23 14c11 21 33 34 57 34 9 0 16 7 16 15 0 9-9 16-17 16z"/></svg>