<?xml version="1.0" encoding="UTF-8" standalone="no"?>
<svg width="31px" height="28px" viewBox="0 0 31 28" version="1.1" xmlns="http://www.w3.org/2000/svg" xmlns:xlink="http://www.w3.org/1999/xlink">
    <!-- Generator: Sketch 3.7.2 (28276) - http://www.bohemiancoding.com/sketch -->
    <title>send-feedback-new-ui</title>
    <desc>Created with Sketch.</desc>
    <defs></defs>
    <g id="Page-1" stroke="none" stroke-width="1" fill="none" fill-rule="evenodd">
        <g id="577-585" transform="translate(-521.000000, -212.000000)" fill="#000000">
            <g id="send-feedback-new-ui" transform="translate(521.000000, 212.000000)">
                <g id="Group-3" transform="translate(0.000000, 0.466353)">
                    <path d="M25.6485913,3.60534583 L25.6665623,3.60534583 L25.6485913,3.60534583 Z M3.66285217,15.9399477 C9.3992,16.9464106 15.4500406,19.5078227 22.1550261,23.7671884 C22.6582145,24.085781 23.2440696,24.1075032 23.7580406,23.821494 C24.3115478,23.5173829 24.6440116,22.9326931 24.6476058,22.2593042 L24.7500406,3.59991528 C24.7536348,2.9247162 24.4265623,2.33459583 23.8748522,2.02505417 C23.3518957,1.73361435 22.7588522,1.75533657 22.2430841,2.08116991 C16.4510261,5.75222546 10.2366493,8.15796157 3.77427246,9.23321157 C2.60975072,9.9138412 1.89450435,10.9927116 1.80644638,12.2109662 C1.7076058,13.5595542 2.38331594,14.9081421 3.66285217,15.9399477 L3.66285217,15.9399477 Z M23.003258,25.8326097 C22.3796638,25.8326097 21.7560696,25.6534014 21.1953739,25.2967949 C14.6089971,21.1134569 8.70372174,18.6244523 3.14348986,17.6867764 C3.00151884,17.663244 2.86673623,17.6053181 2.75172174,17.5202394 C0.862968116,16.0938134 -0.134423188,14.1116606 0.0147362319,12.0788227 C0.151315942,10.1889894 1.25653333,8.5453412 3.04644638,7.56965139 C3.13450435,7.52258657 3.22975072,7.49000324 3.33038841,7.47190139 C9.60946087,6.44914676 15.6513159,4.11943843 21.2870261,0.549753241 C22.3563014,-0.129066204 23.6520116,-0.168890278 24.7482435,0.442952315 C25.8822145,1.07832731 26.5543304,2.26218843 26.547142,3.61077639 L26.4447072,22.2701653 C26.4375188,23.6097023 25.7564174,24.7845125 24.6206493,25.4090264 C24.1102725,25.6914153 23.5567652,25.8326097 23.003258,25.8326097 L23.003258,25.8326097 Z" id="Fill-1"></path>
                </g>
                <path d="M11.4717971,27.6191306 C11.0225217,27.6191306 10.6343478,27.2806259 10.5804348,26.8226491 C10.5211304,26.3248481 10.8733623,25.874112 11.3657681,25.8143759 C14.6454783,25.4215657 14.5017101,22.6592231 14.4747536,22.3460611 L14.5088986,5.60365833 C14.5088986,5.10404722 14.9132464,4.70037593 15.4074493,4.70037593 L15.4092464,4.70037593 C15.9052464,4.70218611 16.306,5.10766759 16.306,5.6072787 L16.2682609,22.2627926 C16.4282029,23.8376537 15.6626377,27.1213296 11.5796232,27.6118898 C11.5436812,27.6173204 11.5077391,27.6191306 11.4717971,27.6191306" id="Fill-4"></path>
                <path d="M26.7157101,14.6243542 L27.6987246,14.6243542 C28.4391304,14.6243542 29.0411594,14.0179421 29.0411594,13.2721458 L29.0411594,12.8485625 C29.0411594,12.100956 28.4391304,11.494544 27.6987246,11.494544 L26.7157101,11.494544 L26.7157101,14.6243542 Z M27.6987246,16.4345394 L25.8171594,16.4345394 C25.3211594,16.4345394 24.9186087,16.0290579 24.9186087,15.5294468 L24.9186087,10.5894514 C24.9186087,10.0898403 25.3211594,9.6843588 25.8171594,9.6843588 L27.6987246,9.6843588 C29.4311304,9.6843588 30.8382609,11.103544 30.8382609,12.8485625 L30.8382609,13.2721458 C30.8382609,15.0153542 29.4311304,16.4345394 27.6987246,16.4345394 L27.6987246,16.4345394 Z" id="Fill-6"></path>
            </g>
        </g>
    </g>
</svg>