<?xml version="1.0" encoding="UTF-8" standalone="no"?>
<svg width="25px" height="27px" viewBox="0 0 25 27" version="1.1" xmlns="http://www.w3.org/2000/svg" xmlns:xlink="http://www.w3.org/1999/xlink">
    <!-- Generator: Sketch 3.7.2 (28276) - http://www.bohemiancoding.com/sketch -->
    <title>share-new-ui</title>
    <desc>Created with Sketch.</desc>
    <defs></defs>
    <g id="Page-1" stroke="none" stroke-width="1" fill="none" fill-rule="evenodd">
        <g id="577-585" transform="translate(-577.000000, -54.000000)" fill="#000000">
            <path d="M601.002183,61.1861383 L600.048298,60.119479 L600.046732,60.119479 L594.918623,54.3914717 C594.48632,53.9090473 593.743888,53.8651905 593.259897,54.3006255 C592.775906,54.7313617 592.735182,55.4753604 593.169051,55.9593512 L596.452043,59.624524 L590.391978,59.5665705 C583.183804,59.5665705 577,65.3932555 577,72.2897324 L577,79.4336868 C577,80.2982917 577.701708,81 578.566313,81 C579.432484,81 580.132626,80.2982917 580.132626,79.4336868 L580.132626,72.2897324 C580.132626,67.091139 584.881688,62.6991968 590.377881,62.6991968 L597.535932,62.7696809 L592.880849,67.221143 C592.410955,67.6675422 592.403124,68.411541 592.851089,68.8814349 C593.081337,69.1242135 593.397733,69.2463859 593.707863,69.2463859 C593.999197,69.2463859 594.292097,69.1398766 594.520779,68.9221591 L600.936398,62.8213692 C601.395328,62.3843679 601.426654,61.6591649 601.002183,61.1861383" id="share-new-ui"></path>
        </g>
    </g>
</svg>