<svg xmlns="http://www.w3.org/2000/svg" viewBox="0 0 512 512"><path d="M116 196c-17 24-28 52-32 83-20-7-36-27-36-48v-34c0-23-13-40-32-40-9 0-16 7-16 15 0 9 6 15 15 15 0 1 2 5 2 10v34c0 37 31 72 67 79 2 31 13 61 31 87 3 4 8 6 13 6h256c5 0 10-2 13-6 10-14 17-29 23-45 3 1 7 1 10 1 45 0 82-36 82-81s-37-81-82-81c-11 0-22 2-33 7zm314 127h-3c1-8 2-17 2-26 0-26-6-50-16-72 5-3 11-4 17-4 28 0 51 23 51 51s-23 51-51 51zm-135-215c3-6 5-13 5-20 0-24-19-43-42-43-24 0-43 19-43 43 0 7 2 14 5 20-37 10-70 31-90 63h253c-21-30-52-54-88-63zm-38-5c-8 0-15-7-15-15 0-9 6-16 15-16s16 7 16 16-7 15-16 15z"/></svg>