<svg xmlns="http://www.w3.org/2000/svg" viewBox="0 0 512 512"><path d="M463 18h-302c-26 0-45 18-45 44v24c-58 9-116 53-116 155v66c0 67 56 123 123 123h158c1 0 2 0 3-1 21-3 37-22 37-48 0-6-1-12-3-17h46c26 0 48-23 48-49 0-6-1-12-4-18h55c26 0 49-23 49-49v-181c0-26-23-49-49-49zm-302 31h302c9 0 18 9 18 18v34h-232c-11-10-27-17-43-17h-59v-22c0-11 7-13 14-13zm221 266c0 9-9 18-18 18h-141c-9 0-16 7-16 15 0 9 7 16 16 16h55c9 0 13 11 13 18s-4 18-13 18h-155c-49-1-92-44-92-93v-66c0-120 91-126 109-126h66c11 0 26 6 26 18v16c0 13-15 18-26 18h-41c-7 0-13 4-15 10-3 10-14 33-29 46-7 7-15 11-23 11s-15 7-15 15 7 15 15 15c7 0 14-1 20-3 6 20 25 37 47 37h199c9-1 18 8 18 17zm81-48h-298c-9 0-18-9-18-18v-8c13-15 23-32 28-43h31c33 0 57-21 57-49v-18h218v118c0 9-9 18-18 18zm-16-116h-66c-9 0-16 7-16 15s7 15 16 15h66c8 0 15-7 15-15 0-9-7-15-15-15z"/></svg>