<svg xmlns="http://www.w3.org/2000/svg" viewBox="0 0 512 512"><path d="M407 231c-1-11-7-21-15-28l-64-52-20-51c-2-10-7-18-13-25 13-12 20-31 17-53-4-32-26-53-55-53h-8c-32 4-52 32-48 67 2 12 6 22 12 31-7 4-13 9-17 17l-49 53-1 2c-2 3-3 5-4 6 0 1-1 2-1 2l-1 2c-1 2-2 4-2 7l-22 91c-2 11-1 22 5 31 6 10 15 16 26 19 3 1 6 1 9 1s7 0 9-1l-3 9-52 102c-12 23-3 50 20 62 7 3 14 5 21 5 18 0 33-9 41-25l48-93 25 89c6 20 24 33 45 33 4 0 8 0 12-1 25-7 39-33 32-57l-31-112-1-1c-1-4-2-6-4-9l-24-52 2-15 44 35c7 6 16 9 25 9 13 0 25-5 32-15 8-9 11-19 10-30zm-154-234h4c15 0 25 12 27 29 3 18-5 33-23 36h-4c-16 0-26-13-28-29-2-18 6-34 24-36zm123 246c-2 3-6 5-10 5-3 0-6-1-8-3l-69-56c-3-1-5-3-7-6 0-1 0-1-1-2l-6-16-9 87 28 59 2 4v2l31 111c3 10-3 20-12 23l-5 1c-8 0-15-6-17-14l-32-111-21-46-18 50c-1 2-1 3-2 4l-52 102c-4 6-10 10-17 10-2 0-5-1-8-2-9-4-13-15-8-24l53-104 19-54c-2-3-4-7-3-12l10-102-24 22-21 89c-1 6-7 10-13 10h-3c-7-2-11-9-10-16l22-91c0-1 0-2 1-2 0-1 0-1 1-2v-1c1-1 1-1 1-2l52-57c2-6 8-10 15-10h1l31 3c8 0 14 7 14 15l24 61 70 57c5 4 6 13 1 18z"/></svg>