<svg xmlns="http://www.w3.org/2000/svg" viewBox="0 0 512 512"><path d="M468 399c-2-8-11-13-20-10l-34 11c-22-115-46-115-55-115-19 0-123 22-167 31l-15-78 117-24c8-2 14-10 12-19-2-8-10-14-19-12l-116 24-16-90c32-8 57-38 57-73 0-42-34-76-76-76s-76 34-76 76c0 37 27 68 62 74l18 96c-57 16-97 69-97 130 0 75 61 136 136 136s136-61 136-136c0-7-1-13-2-20 19-3 35-6 42-7 9 12 22 59 31 107 1 5 4 9 8 11 2 1 5 2 8 2 2 0 3 0 5-1l51-17c9-3 13-12 10-20zm-376-355c0-25 19-45 44-45s44 20 44 45c0 24-19 44-44 44s-44-20-44-44zm191 300c0 57-47 104-104 104-58 0-104-47-104-104 0-45 29-84 71-98l17 92c1 5 4 8 7 11 4 2 8 3 12 2 29-6 67-14 100-21 1 5 1 9 1 14z"/></svg>