<svg xmlns="http://www.w3.org/2000/svg" viewBox="0 0 512 512"><path d="M305 452c-38 0-71-26-80-63-2-8 3-16 11-18 9-2 17 3 19 11 6 23 27 39 51 39 28 0 52-23 52-52s-24-52-52-52h-290c-9 0-16-7-16-15 0-9 7-16 16-16h289c46 0 83 37 83 83s-37 83-83 83zm90-224h-379c-9 0-16-6-16-15 0-8 7-15 16-15h379c48 0 86-39 86-86s-38-85-86-85c-47 0-85 38-85 85 0 9-7 16-16 16-8 0-15-7-15-16 0-64 52-116 116-116s117 52 117 116-53 116-117 116zm-235-92h-144c-9 0-16-6-16-15 0-8 7-15 16-15h145c17 0 30-14 30-31s-13-31-30-31c-14 0-26 10-30 23-2 8-10 13-19 11-8-2-13-11-10-19 7-27 31-45 58-45 34 0 62 27 62 61s-28 61-62 61z"/></svg>