<?xml version="1.0" encoding="UTF-8" standalone="no"?>
<svg width="32px" height="32px" viewBox="0 0 32 32" version="1.1" xmlns="http://www.w3.org/2000/svg" xmlns:xlink="http://www.w3.org/1999/xlink">
    <!-- Generator: Sketch 3.7.2 (28276) - http://www.bohemiancoding.com/sketch -->
    <title>write-a-review-new-ui</title>
    <desc>Created with Sketch.</desc>
    <defs>
        <polygon id="path-1" points="10.5618146 12.4856483 10.5618146 0.361496526 -1.25949236e-05 0.361496526 -1.25949236e-05 12.4856483 10.5618146 12.4856483"></polygon>
    </defs>
    <g id="Page-1" stroke="none" stroke-width="1" fill="none" fill-rule="evenodd">
        <g id="577-585" transform="translate(-208.000000, -52.000000)">
            <g id="write-a-review-new-ui" transform="translate(208.000000, 52.000000)">
                <rect id="Rectangle-67" fill="#020202" x="0" y="0" width="32" height="32" rx="100"></rect>
                <g id="Page-1" transform="translate(11.000000, 10.000000)">
                    <path d="M8.11563992,1.84163008 L8.11353429,1.84163008 L2.39325328,1.93124548 C2.03740267,1.92989788 1.74823018,1.66576829 1.74963393,1.32347791 C1.7503358,0.98186132 2.04161392,0.72514353 2.39746453,0.72514353 C2.3981664,0.72514353 2.39676265,0.72514353 2.39746453,0.72514353 L8.11774554,0.673934733 C8.47359615,0.674608533 8.76206677,0.917176523 8.76066302,1.25946691 C8.75996114,1.60108349 8.47078865,1.84163008 8.11563992,1.84163008" id="Fill-1" fill="#FFFFFF"></path>
                    <g id="Group-5" transform="translate(0.000000, 0.494030)">
                        <mask id="mask-2" fill="white">
                            <use xlink:href="#path-1"></use>
                        </mask>
                        <g id="Clip-4"></g>
                        <path d="M5.1657296,1.13481391 C5.03728648,0.909764723 6.63896517,0.541196138 6.87409328,0.417890743 C7.1092214,0.295932948 7.40260514,0.378136545 7.53034638,0.603185735 L10.3013488,5.47610714 C10.7386169,6.24558671 10.6171925,7.19564467 9.99954253,7.84114504 L5.69634708,12.3353909 C5.60580521,12.4303967 5.47876584,12.4843007 5.34470772,12.4856483 L5.33979459,12.4856483 C5.2078421,12.4856483 5.08220648,12.4344395 4.99026086,12.3428027 L0.596523538,7.95299584 C-0.0506051854,7.30614786 -0.18536518,6.3432877 0.261729177,5.55628933 L3.06221031,0.625421135 C3.19065343,0.399024344 3.48473905,0.316820747 3.71916529,0.439452342 C3.95359153,0.562757737 4.04062402,0.845079926 3.91288278,1.07012912" id="Fill-3" fill="#FFFFFF" mask="url(#mask-2)"></path>
                    </g>
                    <path d="M5.27543266,13.2962296 L5.27473078,13.2962296 C5.00731642,13.2962296 4.79113893,12.9370942 4.79113893,12.6635314 L4.80236893,7.76028904 C4.8030708,7.48672625 5.0192483,7.23202987 5.28596078,7.23202987 L5.28666266,7.23202987 C5.5547789,7.23202987 5.77095639,7.42069386 5.77025451,7.69358285 L5.75972639,12.6830716 C5.75902452,12.9559606 5.54214515,13.2962296 5.27543266,13.2962296" id="Fill-6" fill="#0A0A0A"></path>
                    <path d="M5.2095266,5.80950336 C4.82700474,5.80950336 4.51537225,6.11540855 4.51537225,6.49138894 C4.51537225,6.86736932 4.82700474,7.17327451 5.2095266,7.17327451 C5.59204846,7.17327451 5.90368095,6.86736932 5.90368095,6.49138894 C5.90368095,6.11540855 5.59204846,5.80950336 5.2095266,5.80950336 M5.2095266,8.10244467 C4.29287789,8.10244467 3.54678479,7.3801311 3.54678479,6.49138894 C3.54678479,5.60332057 4.29287789,4.8803332 5.2095266,4.8803332 C6.12617531,4.8803332 6.87156653,5.60332057 6.87156653,6.49138894 C6.87156653,7.3801311 6.12617531,8.10244467 5.2095266,8.10244467" id="Fill-8" fill="#0A0A0A"></path>
                </g>
            </g>
        </g>
    </g>
</svg>