<?xml version="1.0" encoding="UTF-8" standalone="no"?>
<svg width="430px" height="512px" viewBox="0 0 430 512" version="1.1" xmlns="http://www.w3.org/2000/svg" xmlns:xlink="http://www.w3.org/1999/xlink">
    <!-- Generator: Sketch 3.8.3 (29802) - http://www.bohemiancoding.com/sketch -->
    <title>icon-breakfast-2</title>
    <desc>Created with Sketch.</desc>
    <defs></defs>
    <g id="Page-1" stroke="none" stroke-width="1" fill="none" fill-rule="evenodd">
        <g id="icon-breakfast-2" fill="#000000">
            <path d="M298,124 C291,124 284,125 278,125 C323,111 355,67 355,15 C355,7 348,0 339,0 C281,0 233,51 233,115 C233,123 240,130 248,130 L254,130 C244,133 236,137 230,141 L230,123 C230,92 205,67 174,67 L132,67 C124,67 117,73 117,82 C117,90 124,97 132,97 L174,97 C188,97 200,109 200,123 L200,141 C188,133 170,124 132,124 C59,124 0,198 0,289 C0,375 64,512 140,512 C180,512 193,503 203,492 C208,488 208,487 215,487 C222,487 222,488 227,492 C237,502 250,512 290,512 C366,512 430,375 430,289 C430,198 370,124 298,124 L298,124 Z M322,33 C316,65 293,90 265,98 C272,66 294,40 322,33 L322,33 Z M290,481 C259,481 253,475 248,470 C241,463 233,456 215,456 C197,456 189,463 182,470 C177,476 171,481 141,481 C89,481 31,367 31,289 C31,215 77,155 132,155 C167,155 179,163 188,170 C195,175 203,180 215,180 C228,180 235,175 242,170 C251,163 263,155 298,155 C353,155 399,215 399,289 C399,367 341,481 290,481 L290,481 Z" id="Shape"></path>
        </g>
    </g>
</svg>