<?xml version="1.0" encoding="UTF-8" standalone="no"?>
<svg width="512px" height="421px" viewBox="0 0 512 421" version="1.1" xmlns="http://www.w3.org/2000/svg" xmlns:xlink="http://www.w3.org/1999/xlink">
    <!-- Generator: Sketch 3.8.3 (29802) - http://www.bohemiancoding.com/sketch -->
    <title>icon-share</title>
    <desc>Created with Sketch.</desc>
    <defs></defs>
    <g id="Page-1" stroke="none" stroke-width="1" fill="none" fill-rule="evenodd">
        <g id="icon-share" fill="#000000">
            <path d="M507,108 L408,4 C404,1 397,3.55271368e-15 392,2 C387,5 383,10 383,16 L383,58 C179,69 172,313 172,315 C171,323 177,330 185,331 L187,331 C194,331 200,326 201,319 C202,318 234,190 382,181 L382,219 C382,225 386,230 391,233 C397,235 403,234 408,230 L506,131 C509,129 511,124 511,120 C512,115 510,110 507,108 L507,108 Z M403,259 C394,259 387,266 387,275 L387,390 L31,390 L31,121 L190,121 C198,121 205,114 205,106 C205,97 198,90 190,90 L15,90 C7,90 0,97 0,106 L0,405 C0,414 7,421 15,421 L403,421 C411,421 418,414 418,405 L418,275 C418,266 411,259 403,259 L403,259 Z" id="Shape"></path>
        </g>
    </g>
</svg>