<?xml version="1.0" encoding="UTF-8" standalone="no"?>
<svg width="512px" height="372px" viewBox="0 0 512 372" version="1.1" xmlns="http://www.w3.org/2000/svg" xmlns:xlink="http://www.w3.org/1999/xlink">
    <!-- Generator: Sketch 3.8.3 (29802) - http://www.bohemiancoding.com/sketch -->
    <title>icon-canteen2</title>
    <desc>Created with Sketch.</desc>
    <defs></defs>
    <g id="Page-1" stroke="none" stroke-width="1" fill="none" fill-rule="evenodd">
        <g id="icon-canteen2" fill="#000000">
            <path d="M463,0 L49,0 C22,0 0,22 0,49 L0,323 C0,350 22,372 49,372 L463,372 C490,372 512,350 512,323 L512,49 C512,22 490,0 463,0 L463,0 Z M481,323 C481,333 473,341 463,341 L49,341 C39,341 31,333 31,323 L31,49 C31,39 39,31 49,31 L463,31 C473,31 481,39 481,49 L481,323 Z M441,190 L211,190 C203,190 197,196 196,204 L179,308 C178,312 180,317 183,320 C185,324 190,326 194,326 L441,326 C449,326 456,319 456,310 L456,206 C456,197 449,190 441,190 L441,190 Z M426,295 L212,295 L224,221 L426,221 L426,295 Z M194,166 L334,166 C343,166 350,159 350,150 L350,69 C350,61 343,54 334,54 L194,54 C186,54 179,61 179,69 L179,150 C179,159 186,166 194,166 L194,166 Z M210,85 L319,85 L319,135 L210,135 L210,85 Z M386,166 L441,166 C449,166 456,159 456,150 L456,69 C456,61 449,54 441,54 L386,54 C378,54 371,61 371,69 L371,150 C371,159 378,166 386,166 L386,166 Z M402,85 L426,85 L426,135 L402,135 L402,85 Z M101,165 C132,165 157,140 157,110 C157,79 132,54 101,54 C71,54 46,79 46,110 C46,140 71,165 101,165 L101,165 Z M101,85 C115,85 127,96 127,110 C127,123 115,134 101,134 C88,134 76,123 76,110 C77,96 88,85 101,85 L101,85 Z M159,190 L61,190 C53,190 46,197 46,206 L46,310 C46,319 53,326 61,326 L142,326 C149,326 156,320 157,313 L174,208 C174,204 173,199 170,196 C167,192 163,190 159,190 L159,190 Z M129,295 L77,295 L77,221 L141,221 L129,295 Z" id="Shape"></path>
        </g>
    </g>
</svg>