<?xml version="1.0" encoding="UTF-8" standalone="no"?>
<svg width="299px" height="512px" viewBox="0 0 299 512" version="1.1" xmlns="http://www.w3.org/2000/svg" xmlns:xlink="http://www.w3.org/1999/xlink">
    <!-- Generator: Sketch 3.8.3 (29802) - http://www.bohemiancoding.com/sketch -->
    <title>icon-right-angle-semantic</title>
    <desc>Created with Sketch.</desc>
    <defs></defs>
    <g id="Page-1" stroke="none" stroke-width="1" fill="none" fill-rule="evenodd">
        <g id="icon-right-angle-semantic" fill="#000000">
            <g id="Page-1">
                <g id="icon-right-angle-semantic">
                    <path d="M298.581162,256 C298.581162,260.446226 296.871076,264.379425 293.450902,267.799599 L54.3807615,506.869739 C50.9605878,510.289913 47.0273881,512 42.5811623,512 C38.1349365,512 34.2017368,510.289913 30.7815631,506.869739 L5.13026052,481.218437 C1.71008684,477.798263 0,473.865064 0,469.418838 C0,464.972612 1.71008684,461.039412 5.13026052,457.619238 L206.749499,256 L5.13026052,54.3807615 C1.71008684,50.9605878 0,47.0273881 0,42.5811623 C0,38.1349365 1.71008684,34.2017368 5.13026052,30.7815631 L30.7815631,5.13026052 C34.2017368,1.71008684 38.1349365,0 42.5811623,0 C47.0273881,0 50.9605878,1.71008684 54.3807615,5.13026052 L293.450902,244.200401 C296.871076,247.620575 298.581162,251.553774 298.581162,256 L298.581162,256 L298.581162,256 Z"></path>
                </g>
            </g>
        </g>
    </g>
</svg>