<?xml version="1.0" encoding="UTF-8" standalone="no"?>
<svg width="503px" height="502px" viewBox="0 0 503 502" version="1.1" xmlns="http://www.w3.org/2000/svg" xmlns:xlink="http://www.w3.org/1999/xlink">
    <!-- Generator: Sketch 3.8.3 (29802) - http://www.bohemiancoding.com/sketch -->
    <title>icon-get-widget-27</title>
    <desc>Created with Sketch.</desc>
    <defs></defs>
    <g id="Page-1" stroke="none" stroke-width="1" fill="none" fill-rule="evenodd">
        <g id="icon-get-widget-27" fill="#000000">
            <path d="M194,200 C190,194 182,194 177,198 L99,260 C96,263 94,266 94,270 C94,273 96,277 99,279 L176,341 C178,342 181,343 183,343 C187,343 190,342 193,339 C197,334 196,326 191,322 L125,270 L192,216 C197,212 198,205 194,200 L194,200 Z M329,197 C324,194 316,195 312,200 C308,205 309,213 315,217 L385,269 L314,322 C308,326 307,333 311,338 C313,342 317,343 321,343 C323,343 326,342 328,341 L413,278 C416,276 417,272 417,269 C417,265 416,261 413,259 L329,197 Z M299,140 C293,138 286,141 284,148 L198,409 C196,415 200,422 206,424 C207,424 209,425 210,425 C215,425 219,421 221,416 L307,155 C309,149 305,142 299,140 L299,140 Z M470,0 L34,0 C16,0 0,15 0,33 L0,469 C0,487 16,502 34,502 L470,502 C488,502 503,487 503,469 L503,33 C504,15 488,0 470,0 L470,0 Z M34,23 L470,23 C475,23 480,28 480,33 L480,69 L24,69 L24,33 C24,28 29,23 34,23 L34,23 Z M470,479 L34,479 C29,479 24,474 24,469 L24,93 L480,93 L480,469 C480,474 475,479 470,479 L470,479 Z" id="Shape"></path>
        </g>
    </g>
</svg>