<?xml version="1.0" encoding="UTF-8" standalone="no"?>
<svg width="512px" height="394px" viewBox="0 0 512 394" version="1.1" xmlns="http://www.w3.org/2000/svg" xmlns:xlink="http://www.w3.org/1999/xlink">
    <!-- Generator: Sketch 3.8.3 (29802) - http://www.bohemiancoding.com/sketch -->
    <title>icon-write-reviews</title>
    <desc>Created with Sketch.</desc>
    <defs></defs>
    <g id="Page-1" stroke="none" stroke-width="1" fill="none" fill-rule="evenodd">
        <g id="icon-write-reviews" fill="#000000">
            <path d="M288.899598,154.216867 C302.26506,154.216867 317.686747,167.582329 324.883534,176.835341 C326.939759,178.891566 328.995984,179.919679 331.052209,179.919679 L500.690763,181.975904 C506.859438,181.975904 512,177.863454 512,170.666667 L512,169.638554 C512,163.46988 501.718876,162.441767 496.578313,159.35743 C474.987952,151.13253 421.526104,113.092369 377.317269,79.1646586 C377.317269,79.1646586 377.317269,78.1365462 376.289157,78.1365462 C341.333333,48.3212851 316.658635,20.562249 305.349398,8.2248996 C299.180723,2.0562249 290.955823,-1.02811245 282.730924,1.02811245 L101.783133,33.9277108 C92.5301205,34.9558233 86.3614458,46.2650602 82.248996,56.5461847 C80.1927711,44.2088353 69.9116466,31.8714859 57.5742972,31.8714859 L26.7309237,31.8714859 C13.3654618,30.8433735 2.0562249,48.3212851 1.02811245,61.686747 L0,323.855422 C0,337.220884 11.3092369,354.698795 25.7028112,354.698795 L56.5461847,354.698795 C67.8554217,354.698795 78.1365462,342.361446 81.2208835,330.024096 C84.3052209,341.333333 91.502008,351.614458 99.7269076,353.670683 L281.702811,393.767068 C290.955823,394.795181 299.180723,391.710843 305.349398,385.542169 C318.714859,371.148594 350.586345,335.164659 380.401606,312.546185 C422.554217,279.646586 476.016064,248.803213 497.606426,240.578313 C501.718876,238.522088 512,236.465863 512,231.325301 L512,227.212851 C512,223.100402 508.915663,220.016064 504.803213,220.016064 L332.080321,217.959839 C330.024096,217.959839 326.939759,220.016064 325.911647,221.044177 C312.546185,247.7751 277.590361,251.88755 252.915663,232.353414 C251.88755,232.353414 250.859438,231.325301 250.859438,231.325301 C224.128514,203.566265 244.690763,153.188755 288.899598,154.216867 L288.899598,154.216867 Z" id="Shape"></path>
        </g>
    </g>
</svg>