<?xml version="1.0" encoding="UTF-8" standalone="no"?>
<svg width="237px" height="512px" viewBox="0 0 237 512" version="1.1" xmlns="http://www.w3.org/2000/svg" xmlns:xlink="http://www.w3.org/1999/xlink">
    <!-- Generator: Sketch 3.8.3 (29802) - http://www.bohemiancoding.com/sketch -->
    <title>icon-facebook</title>
    <desc>Created with Sketch.</desc>
    <defs></defs>
    <g id="Page-1" stroke="none" stroke-width="1" fill="none" fill-rule="evenodd">
        <g id="icon-facebook" fill="#000000">
            <path d="M157,166 L157,113 C157,93 170,88 180,88 L216,88 C227,88 237,79 237,68 L237,21 C237,9 227,0 216,0 L158,0 C70,0 51,66 51,107 L51,166 L21,166 C9,166 0,175 0,186 L0,236 C0,247 9,256 21,256 L51,256 L51,492 C51,503 60,512 71,512 L136,512 C148,512 157,503 157,492 L157,256 L210,256 C221,256 229,248 230,238 L236,188 C237,176 227,166 215,166 L157,166 Z" id="Shape"></path>
        </g>
    </g>
</svg>