<?xml version="1.0" encoding="UTF-8" standalone="no"?>
<svg width="513px" height="510px" viewBox="0 0 513 510" version="1.1" xmlns="http://www.w3.org/2000/svg" xmlns:xlink="http://www.w3.org/1999/xlink">
    <!-- Generator: Sketch 3.8.3 (29802) - http://www.bohemiancoding.com/sketch -->
    <title>icon-happy-hours</title>
    <desc>Created with Sketch.</desc>
    <defs></defs>
    <g id="Page-1" stroke="none" stroke-width="1" fill="none" fill-rule="evenodd">
        <g id="icon-happy-hours" fill="#000000">
            <path d="M239,33 L62,1 C56,-2.85327317e-14 50,3 48,9 L4,134 C3,135 3,136 3,136 C-9,200 29,260 90,277 L66,409 L31,402 C24,401 17,406 16,412 C15,419 19,426 26,427 L121,445 L124,445 C130,445 135,440 136,434 C137,427 133,421 126,420 L91,413 L115,281 C119,281 122,282 126,282 C186,282 235,240 246,180 L246,178 L250,45 C249,40 245,34 239,33 L239,33 Z M68,28 L224,56 L222,94 L45,94 L68,28 Z M126,256 C120,256 113,256 107,254 C52,245 19,196 28,142 L36,119 L222,119 L220,177 C212,224 173,256 126,256 L126,256 Z M483,467 L448,473 L424,342 C485,324 522,265 511,201 C511,200 510,200 510,199 L466,74 C464,68 458,64 452,65 L275,98 C269,99 264,104 265,111 L268,244 L268,246 C279,305 328,347 388,347 C392,347 395,347 399,346 L423,478 L388,485 C381,486 377,493 378,500 C379,506 385,510 391,510 L393,510 L488,492 C495,491 500,485 498,478 C497,470 490,466 483,467 L483,467 Z M446,92 L469,158 L291,158 L290,121 L446,92 Z M293,242 L292,184 L477,184 L485,207 C495,261 461,310 407,319 C400,321 394,321 388,321 C341,321 302,289 293,242 L293,242 Z" id="Shape"></path>
        </g>
    </g>
</svg>