<?xml version="1.0" encoding="UTF-8" standalone="no"?>
<svg width="459px" height="512px" viewBox="0 0 459 512" version="1.1" xmlns="http://www.w3.org/2000/svg" xmlns:xlink="http://www.w3.org/1999/xlink">
    <!-- Generator: Sketch 3.8.3 (29802) - http://www.bohemiancoding.com/sketch -->
    <title>icon-diy-fill</title>
    <desc>Created with Sketch.</desc>
    <defs></defs>
    <g id="Page-1" stroke="none" stroke-width="1" fill="none" fill-rule="evenodd">
        <g id="icon-diy-fill" fill="#000000">
            <path d="M88,496 C88,505 96,512 105,512 L353,512 C362,512 370,505 370,496 L370,445 L88,445 L88,496 Z M459,158 C458,94 408,56 359,56 C348,56 338,57 329,61 C316,28 280,0 229,0 C178,0 142,28 129,61 C120,57 110,56 99,56 C50,56 0,94 0,158 C0,207 42,239 88,245 L88,425 L159,425 L159,354 C159,345 167,337 176,337 C185,337 192,345 192,354 L192,425 L213,425 L213,336 C213,327 220,319 229,319 C238,319 245,327 245,336 L245,425 L266,425 L266,354 C266,345 273,337 282,337 C291,337 299,345 299,354 L299,425 L370,425 L370,245 C416,239 459,207 459,158 L459,158 Z" id="Shape"></path>
        </g>
    </g>
</svg>