<?xml version="1.0" encoding="UTF-8" standalone="no"?>
<svg width="512px" height="362px" viewBox="0 0 512 362" version="1.1" xmlns="http://www.w3.org/2000/svg" xmlns:xlink="http://www.w3.org/1999/xlink">
    <!-- Generator: Sketch 3.8.3 (29802) - http://www.bohemiancoding.com/sketch -->
    <title>icon-delivery</title>
    <desc>Created with Sketch.</desc>
    <defs></defs>
    <g id="Page-1" stroke="none" stroke-width="1" fill="none" fill-rule="evenodd">
        <g id="icon-delivery" fill="#000000">
            <path d="M405,166 L379,166 L379,156 L379,130 C389,135 401,138 414,138 C422,138 429,131 429,123 L429,40 C429,31 422,25 414,25 C401,25 389,28 379,33 C376,11 362,0 339,0 L306,0 C297,0 290,7 290,15 C290,24 297,31 306,31 L339,31 C348,31 349,31 349,40 L349,156 C349,203 325,241 289,257 C282,226 265,196 240,175 C253,168 263,154 263,140 L263,98 C263,89 256,83 248,83 L32,83 C24,83 17,89 17,98 L17,122 C17,126 18,130 21,133 L58,171 C24,195 0,236 0,281 C0,289 7,296 15,296 L43,296 C50,334 83,362 123,362 C163,362 196,334 203,296 L248,296 C258,296 269,295 279,292 C280,292 281,292 282,291 C292,289 302,284 311,279 L332,279 L332,281 C332,326 368,362 414,362 C459,362 495,326 495,281 L495,279 L497,279 C505,279 512,272 512,264 C512,214 459,166 405,166 L405,166 Z M80,149 L47,116 L47,113 L232,113 L232,139 C232,143 226,149 223,149 L80,149 Z M123,332 C100,332 81,317 75,296 L172,296 C165,317 146,332 123,332 L123,332 Z M248,265 L32,265 C40,220 80,180 123,180 L173,180 C216,180 251,223 259,265 L248,265 L248,265 Z M405,196 C437,196 469,221 479,249 L347,249 C360,234 368,216 374,196 L405,196 Z M398,58 L398,105 C386,102 379,93 379,81 C379,70 386,61 398,58 L398,58 Z M465,281 C465,309 442,331 414,331 C386,331 363,309 363,281 L363,279 L465,279 L465,281 L465,281 Z" id="Shape"></path>
        </g>
    </g>
</svg>