<?xml version="1.0" encoding="UTF-8" standalone="no"?>
<svg width="420px" height="512px" viewBox="0 0 420 512" version="1.1" xmlns="http://www.w3.org/2000/svg" xmlns:xlink="http://www.w3.org/1999/xlink">
    <!-- Generator: Sketch 3.8.3 (29802) - http://www.bohemiancoding.com/sketch -->
    <title>icon-cuisine</title>
    <desc>Created with Sketch.</desc>
    <defs></defs>
    <g id="Page-1" stroke="none" stroke-width="1" fill="none" fill-rule="evenodd">
        <g id="icon-cuisine" fill="#000000">
            <path d="M304,0 C296,0 289,7 289,15 L289,497 C289,505 296,512 304,512 C313,512 319,505 319,497 L319,366 L404,366 C413,366 420,359 420,350 C420,165 355,0 304,0 L304,0 Z M319,335 L319,46 C346,84 386,188 389,335 L319,335 L319,335 Z M183,0 C175,0 168,7 168,15 L168,120 C168,153 145,179 115,187 L115,15 C115,7 108,0 99,0 C91,0 84,7 84,15 L84,186 C54,179 31,152 31,120 L31,15 C31,7 24,0 16,0 C7,0 0,7 0,15 L0,120 C0,169 37,210 84,218 L84,497 C84,505 91,512 99,512 C108,512 115,505 115,497 L115,218 C162,210 198,169 198,120 L198,15 C198,7 191,0 183,0 L183,0 Z" id="Shape"></path>
        </g>
    </g>
</svg>