<?xml version="1.0" encoding="UTF-8" standalone="no"?>
<svg width="512px" height="468px" viewBox="0 0 512 468" version="1.1" xmlns="http://www.w3.org/2000/svg" xmlns:xlink="http://www.w3.org/1999/xlink">
    <!-- Generator: Sketch 3.8.3 (29802) - http://www.bohemiancoding.com/sketch -->
    <title>icon-envelope</title>
    <desc>Created with Sketch.</desc>
    <defs></defs>
    <g id="Page-1" stroke="none" stroke-width="1" fill="none" fill-rule="evenodd">
        <g id="icon-envelope" fill="#000000">
            <path d="M436,0 L76,0 C31,0 0,32 0,76 L0,391 C0,435 32,468 74,468 L435,468 C478,468 512,434 512,391 L512,76 C512,32 481,0 436,0 L436,0 Z M436,32 C444,32 451,34 457,36 L268,265 L56,36 C62,33 69,32 77,32 L436,32 L436,32 Z M480,392 C480,417 461,436 435,436 L74,436 C50,436 32,418 32,392 L32,77 C32,71 33,65 34,60 L257,300 C260,304 264,306 268,306 L269,306 C273,306 278,303 281,300 L478,62 C479,66 481,71 481,77 L481,392 L480,392 Z" id="Shape"></path>
        </g>
    </g>
</svg>