<?xml version="1.0" encoding="UTF-8" standalone="no"?>
<svg width="413px" height="512px" viewBox="0 0 413 512" version="1.1" xmlns="http://www.w3.org/2000/svg" xmlns:xlink="http://www.w3.org/1999/xlink">
    <!-- Generator: Sketch 3.8.3 (29802) - http://www.bohemiancoding.com/sketch -->
    <title>icon-map-pin-fill</title>
    <desc>Created with Sketch.</desc>
    <defs></defs>
    <g id="Page-1" stroke="none" stroke-width="1" fill="none" fill-rule="evenodd">
        <g id="icon-map-pin-fill" fill="#000000">
            <path d="M350,59 C311,21 261,0 207,0 C153,0 103,21 64,59 C27,97 4,150 1,205 C-1,261 18,312 54,350 L54,350 L195,507 C198,510 202,512 207,512 C212,512 215,510 218,507 L356,352 C357,352 357,352 357,351 C434,274 431,140 350,59 L350,59 Z M207,276 C170,276 139,246 139,209 C139,171 170,141 207,141 C244,141 275,171 275,209 C275,246 244,276 207,276 L207,276 Z" id="Shape"></path>
        </g>
    </g>
</svg>