<?xml version="1.0" encoding="UTF-8" standalone="no"?>
<svg width="512px" height="512px" viewBox="0 0 512 512" version="1.1" xmlns="http://www.w3.org/2000/svg" xmlns:xlink="http://www.w3.org/1999/xlink">
    <!-- Generator: Sketch 3.8.3 (29802) - http://www.bohemiancoding.com/sketch -->
    <title>icon-phone-circle</title>
    <desc>Created with Sketch.</desc>
    <defs></defs>
    <g id="Page-1" stroke="none" stroke-width="1" fill="none" fill-rule="evenodd">
        <g id="icon-phone-circle" fill="#000000">
            <path d="M256,0 C115,0 0,115 0,256 C0,397 115,512 256,512 C397,512 512,397 512,256 C512,115 397,0 256,0 L256,0 Z M256,481 C132,481 31,380 31,256 C31,132 132,31 256,31 C380,31 481,132 481,256 C481,380 380,481 256,481 L256,481 Z M357,282 C344,267 332,253 313,253 C307,253 301,255 295,258 C289,261 283,264 277,270 C274,273 270,276 268,280 C255,270 243,256 234,243 C238,241 242,238 245,236 C252,229 270,214 266,191 C264,178 256,168 244,155 L243,153 C230,139 218,125 199,125 C193,125 187,126 181,130 C176,132 170,136 164,142 C147,156 122,178 136,234 C144,264 156,288 179,314 C203,342 236,367 263,378 C278,384 292,387 304,387 C315,387 325,385 335,380 C344,376 351,370 357,365 L358,364 C366,357 384,342 380,319 C377,305 368,295 357,282 L357,282 Z M338,340 L337,342 C332,346 327,350 321,353 C316,355 311,356 304,356 C296,356 286,354 275,349 C252,340 223,318 202,294 C183,271 172,251 166,226 C156,188 170,177 184,164 C188,161 192,158 195,156 C197,155 198,155 200,155 C205,155 212,164 220,173 L232,163 L221,175 C230,184 236,191 236,196 C237,198 236,202 225,212 C218,218 212,219 210,220 C205,221 201,224 199,228 C197,232 197,237 199,241 C211,268 240,300 265,314 C270,316 274,317 279,315 C283,314 286,310 287,306 C289,303 291,298 297,292 C302,289 305,286 308,284 C310,283 312,283 313,283 C318,283 327,293 334,302 C344,313 349,319 350,324 C350,327 349,331 338,340 L338,340 Z" id="Shape"></path>
        </g>
    </g>
</svg>