<?xml version="1.0" encoding="UTF-8" standalone="no"?>
<svg width="512px" height="380px" viewBox="0 0 512 380" version="1.1" xmlns="http://www.w3.org/2000/svg" xmlns:xlink="http://www.w3.org/1999/xlink">
    <!-- Generator: Sketch 3.8.3 (29802) - http://www.bohemiancoding.com/sketch -->
    <title>icon-rating-2-1</title>
    <desc>Created with Sketch.</desc>
    <defs></defs>
    <g id="Page-1" stroke="none" stroke-width="1" fill="none" fill-rule="evenodd">
        <g id="icon-rating-2-1" fill="#000000">
            <path d="M455,0 L57,0 C26,0 0,25 0,57 L0,323 C0,355 26,380 57,380 L455,380 C486,380 512,355 512,323 L512,57 C512,25 486,0 455,0 L455,0 Z M207,255 L207,289 L81,289 C82,276 86,264 93,253 C100,241 113,227 133,208 C150,193 159,183 163,177 C168,170 170,163 170,155 C170,147 168,141 164,137 C160,132 154,130 146,130 C139,130 133,133 129,137 C124,142 122,149 121,160 L85,156 C87,136 94,122 105,113 C116,105 131,101 147,101 C166,101 180,106 191,116 C201,125 207,138 207,153 C207,161 205,169 202,177 C199,184 194,192 188,200 C183,206 175,214 164,224 C153,235 146,241 143,245 C140,248 137,252 135,255 L207,255 L207,255 Z M274,289 L238,289 L238,253 L274,253 L274,289 Z M416,267 C404,283 387,292 366,292 C348,292 334,287 323,278 C312,269 306,256 304,241 L339,237 C340,245 344,252 348,256 C354,261 359,263 366,263 C373,263 380,260 385,254 C390,248 392,239 392,227 C392,215 390,207 385,201 C380,195 373,192 365,192 C355,192 345,197 337,206 L308,202 L326,104 L421,104 L421,138 L354,138 L348,170 C356,165 364,164 373,164 C389,164 402,170 413,181 C424,193 430,208 430,226 C430,241 425,255 416,267 L416,267 Z" id="Shape"></path>
        </g>
    </g>
</svg>