<?xml version="1.0" encoding="UTF-8" standalone="no"?>
<svg width="395px" height="512px" viewBox="0 0 395 512" version="1.1" xmlns="http://www.w3.org/2000/svg" xmlns:xlink="http://www.w3.org/1999/xlink">
    <!-- Generator: Sketch 3.8.3 (29802) - http://www.bohemiancoding.com/sketch -->
    <title>icon-beverage-fill</title>
    <desc>Created with Sketch.</desc>
    <defs></defs>
    <g id="Page-1" stroke="none" stroke-width="1" fill="none" fill-rule="evenodd">
        <g id="icon-beverage-fill" fill="#000000">
            <path d="M390,94 C387,91 383,89 378,89 L147,89 L144,67 C140,29 103,0 60,0 L16,0 C7,0 0,7 0,16 C0,25 7,33 16,33 L60,33 C86,33 109,50 111,70 L114,89 L67,89 C63,89 58,91 55,94 C52,98 50,103 51,108 L104,498 C106,506 113,512 120,512 L324,512 C333,512 340,506 341,498 L394,107 C395,103 393,98 390,94 L390,94 Z M94,178 L86,122 L117,122 L117,122 L123,178 L94,178 Z M202,300 C202,291 209,284 218,284 C227,284 235,291 235,300 C235,309 227,317 218,317 C209,317 202,310 202,300 L202,300 Z M236,441 C227,441 220,433 220,424 C220,415 227,408 236,408 C245,408 253,415 253,424 C253,434 245,441 236,441 L236,441 Z M289,370 C280,370 273,363 273,354 C273,345 280,337 289,337 C298,337 306,345 306,354 C306,363 298,370 289,370 L289,370 Z M289,281 C280,281 273,274 273,265 C273,256 280,249 289,249 C298,249 306,256 306,265 C306,274 298,281 289,281 L289,281 Z M156,178 L150,122 L359,122 L352,178 L156,178 Z" id="Shape"></path>
        </g>
    </g>
</svg>