<?xml version="1.0" encoding="UTF-8" standalone="no"?>
<svg width="512px" height="439px" viewBox="0 0 512 439" version="1.1" xmlns="http://www.w3.org/2000/svg" xmlns:xlink="http://www.w3.org/1999/xlink">
    <!-- Generator: Sketch 3.8.3 (29802) - http://www.bohemiancoding.com/sketch -->
    <title>f004</title>
    <desc>Created with Sketch.</desc>
    <defs></defs>
    <g id="Page-1" stroke="none" stroke-width="1" fill="none" fill-rule="evenodd">
        <g id="f004" fill="#000000">
            <path d="M256,438.857143 C251.047619,438.857143 246.857143,437.142857 243.428571,433.714286 L65.1428571,261.714286 C63.2380952,260.190476 60.6190476,257.714286 57.2857143,254.285714 C53.952381,250.857143 48.6666667,244.619048 41.4285714,235.571429 C34.1904762,226.52381 27.7142857,217.238095 22,207.714286 C16.2857143,198.190476 11.1904762,186.666667 6.71428571,173.142857 C2.23809524,159.619048 0,146.47619 0,133.714286 C0,91.8095238 12.0952381,59.047619 36.2857143,35.4285714 C60.4761905,11.8095238 93.9047619,0 136.571429,0 C148.380952,0 160.428571,2.04761905 172.714286,6.14285714 C185,10.2380952 196.428571,15.7619048 207,22.7142857 C217.571429,29.6666667 226.666667,36.1904762 234.285714,42.2857143 C241.904762,48.3809524 249.142857,54.8571429 256,61.7142857 C262.857143,54.8571429 270.095238,48.3809524 277.714286,42.2857143 C285.333333,36.1904762 294.428571,29.6666667 305,22.7142857 C315.571429,15.7619048 327,10.2380952 339.285714,6.14285714 C351.571429,2.04761905 363.619048,0 375.428571,0 C418.095238,0 451.52381,11.8095238 475.714286,35.4285714 C499.904762,59.047619 512,91.8095238 512,133.714286 C512,175.809524 490.190476,218.666667 446.571429,262.285714 L268.571429,433.714286 C265.142857,437.142857 260.952381,438.857143 256,438.857143 L256,438.857143 Z" id="Shape"></path>
        </g>
    </g>
</svg>