<?xml version="1.0" encoding="UTF-8" standalone="no"?>
<svg width="512px" height="512px" viewBox="0 0 512 512" version="1.1" xmlns="http://www.w3.org/2000/svg" xmlns:xlink="http://www.w3.org/1999/xlink">
    <!-- Generator: Sketch 3.8.3 (29802) - http://www.bohemiancoding.com/sketch -->
    <title>icon-coin</title>
    <desc>Created with Sketch.</desc>
    <defs></defs>
    <g id="Page-1" stroke="none" stroke-width="1" fill="none" fill-rule="evenodd">
        <g id="icon-coin" fill="#000000">
            <path d="M256,0 C115,0 0,115 0,256 C0,397 115,512 256,512 C397,512 512,397 512,256 C512,115 397,0 256,0 L256,0 Z M256,481 C132,481 31,380 31,256 C31,132 132,31 256,31 C380,31 481,132 481,256 C481,380 380,481 256,481 L256,481 Z M282,206 C282,215 289,221 297,221 C306,221 313,215 313,206 C313,175 292,150 263,143 L263,123 C263,114 256,108 248,108 C239,108 232,114 232,123 L232,143 C204,150 183,175 183,206 C183,237 204,262 232,269 L232,336 C221,331 213,319 213,306 C213,297 206,290 198,290 C189,290 182,297 182,306 C182,336 204,362 232,369 L232,389 C232,397 239,404 247,404 C256,404 263,397 263,389 L263,369 C291,362 313,336 313,306 C313,275 291,250 263,242 L263,176 C274,181 282,193 282,206 L282,206 Z M213,206 C213,193 221,181 232,175 L232,237 C221,231 213,220 213,206 L213,206 Z M282,306 C282,319 274,331 263,336 L263,275 C274,281 282,292 282,306 L282,306 Z" id="Shape"></path>
        </g>
    </g>
</svg>