<?xml version="1.0" encoding="UTF-8" standalone="no"?>
<svg width="438px" height="512px" viewBox="0 0 438 512" version="1.1" xmlns="http://www.w3.org/2000/svg" xmlns:xlink="http://www.w3.org/1999/xlink">
    <!-- Generator: Sketch 3.8.3 (29802) - http://www.bohemiancoding.com/sketch -->
    <title>icon-android-icon</title>
    <desc>Created with Sketch.</desc>
    <defs></defs>
    <g id="Page-1" stroke="none" stroke-width="1" fill="none" fill-rule="evenodd">
        <g id="icon-android-icon" transform="translate(0.000000, -1.000000)" fill="#000000">
            <path d="M407,161 C390,161 375,175 375,193 L375,317 C375,334 389,348 407,348 C424,348 438,334 438,317 L438,193 C438,176 424,161 407,161 L407,161 Z M31,161 C14,161 0,175 0,193 L0,317 C0,334 14,348 31,348 C49,348 63,334 63,317 L63,193 C62,176 48,161 31,161 L31,161 Z M81,162 L81,388 C81,401 92,412 106,412 L133,412 L133,481 C133,499 147,513 164,513 C182,513 195,499 195,481 L195,412 L244,412 L244,481 C244,499 258,513 275,513 C292,513 306,499 306,481 L306,412 L334,412 C347,412 358,402 358,388 L358,162 L81,162 Z M285,45 L310,8 C312,6 311,3 309,2 C307,1 305,1 303,3 L276,42 C259,35 239,31 219,31 C198,31 179,35 162,42 L135,3 C133,1 131,-1.42108547e-14 129,2 C127,3 126,6 128,8 L153,45 C113,64 84,100 80,142 L358,142 C354,100 325,64 285,45 L285,45 Z M161,104 C152,104 145,97 145,89 C145,80 152,73 161,73 C169,73 176,80 176,89 C176,97 169,104 161,104 L161,104 Z M279,104 C271,104 264,97 264,89 C264,80 271,73 279,73 C288,73 295,80 295,89 C295,97 288,104 279,104 L279,104 Z" id="Shape"></path>
        </g>
    </g>
</svg>