<?xml version="1.0" encoding="UTF-8" standalone="no"?>
<svg width="513px" height="513px" viewBox="0 0 513 513" version="1.1" xmlns="http://www.w3.org/2000/svg" xmlns:xlink="http://www.w3.org/1999/xlink">
    <!-- Generator: Sketch 3.8.3 (29802) - http://www.bohemiancoding.com/sketch -->
    <title>icon-cashless-card</title>
    <desc>Created with Sketch.</desc>
    <defs></defs>
    <g id="Page-1" stroke="none" stroke-width="1" fill="none" fill-rule="evenodd">
        <g id="icon-cashless-card" fill="#000000">
            <path d="M268,16 L16,268 C-5,290 -5,325 16,347 L165,496 C187,518 222,518 244,496 L496,244 C518,222 518,187 496,165 L347,16 C325,-5 290,-5 268,16 L268,16 Z M37,289 L289,38 C300,27 315,27 325,38 L344,56 L56,343 L37,325 C27,315 27,299 37,289 L37,289 Z M474,222 L222,474 C212,484 197,484 186,474 L77,364 L365,77 L474,186 C484,196 484,212 474,222 L474,222 Z M161,382 C157,385 156,388 157,392 C157,396 160,401 164,405 C173,413 180,414 187,408 C189,405 192,401 195,396 L201,403 C200,408 197,412 193,416 C187,421 181,424 175,423 C168,423 162,419 156,413 C152,409 149,405 147,400 C146,396 145,391 146,387 C147,383 150,378 154,375 C157,371 162,368 168,366 L172,375 L166,378 C164,379 162,380 161,382 L161,382 Z M235,372 L223,366 L209,380 L215,392 L206,401 L181,348 L191,338 L244,363 L235,372 Z M214,361 C203,355 197,352 195,351 C194,350 193,350 192,349 C194,352 198,359 204,371 L214,361 Z M260,325 C264,329 265,332 265,337 C264,342 262,346 258,351 C253,355 249,358 244,359 L237,352 C240,350 243,349 246,348 C248,346 250,345 251,343 C253,341 254,340 254,338 C254,337 254,335 253,333 C252,333 251,332 250,332 L247,332 C245,333 243,333 239,335 C235,336 232,337 230,337 C228,337 226,337 224,336 C222,335 220,334 218,332 C215,329 213,325 214,321 C214,317 216,312 220,308 C222,306 224,305 227,303 C229,302 231,301 234,299 L238,308 C235,310 233,311 231,312 C229,313 228,314 227,315 C225,317 224,318 224,320 C224,321 225,323 226,324 C226,325 227,325 228,325 C229,326 230,326 231,325 C232,325 235,324 239,323 C244,321 248,320 251,320 C255,321 258,322 260,325 L260,325 Z M310,297 L302,305 L285,289 L270,304 L286,321 L278,329 L239,290 L248,282 L263,297 L278,282 L263,267 L271,258 L310,297 Z M320,287 L281,249 L289,241 L321,273 L337,257 L344,264 L320,287 Z M372,234 L350,257 L312,218 L334,196 L340,202 L326,216 L335,225 L348,212 L355,218 L342,232 L351,242 L366,227 L372,234 Z M393,193 C396,196 398,200 397,205 C397,210 394,214 390,218 C386,223 381,225 376,227 L369,220 C372,218 376,217 378,215 C380,214 382,213 383,211 C385,209 386,207 386,206 C387,204 386,203 385,201 C384,201 383,200 382,200 L379,200 C377,201 375,201 371,203 C367,204 365,205 362,205 C360,205 358,205 356,204 C354,203 352,202 350,200 C347,197 345,193 346,189 C346,184 348,180 352,176 C354,174 356,173 359,171 C361,170 364,169 366,167 L370,176 C367,178 365,179 363,180 C361,181 360,182 359,183 C357,185 356,186 356,188 C356,189 357,191 358,192 C358,193 359,193 360,193 L363,193 C364,193 367,192 371,191 C376,189 380,188 383,188 C387,189 390,190 393,193 L393,193 Z M422,163 C426,167 427,170 427,175 C426,180 424,184 419,189 C415,193 411,195 406,197 L398,190 C402,188 405,187 407,185 C410,184 411,183 413,181 C415,179 416,178 416,176 C416,174 416,173 414,171 C414,171 413,170 412,170 L408,170 C407,171 404,171 401,173 C397,174 394,175 392,175 C390,175 388,175 386,174 C384,173 382,172 380,170 C377,167 375,163 375,159 C376,154 378,150 382,146 C384,144 386,143 388,141 C391,140 393,139 396,137 L400,146 C397,148 395,149 393,150 C391,151 390,152 388,153 C387,155 386,156 386,158 C386,159 386,161 387,162 C388,163 389,163 390,163 L393,163 C394,163 397,162 401,161 C406,159 410,158 413,158 C417,159 420,160 422,163 L422,163 Z" id="Shape"></path>
        </g>
    </g>
</svg>