<?xml version="1.0" encoding="UTF-8" standalone="no"?>
<svg width="512px" height="440px" viewBox="0 0 512 440" version="1.1" xmlns="http://www.w3.org/2000/svg" xmlns:xlink="http://www.w3.org/1999/xlink">
    <!-- Generator: Sketch 3.8.3 (29802) - http://www.bohemiancoding.com/sketch -->
    <title>icon-megaphone</title>
    <desc>Created with Sketch.</desc>
    <defs></defs>
    <g id="Page-1" stroke="none" stroke-width="1" fill="none" fill-rule="evenodd">
        <g id="icon-megaphone" fill="#000000">
            <path d="M475.428571,146.285714 C485.52381,146.285714 494.142857,149.857143 501.285714,157 C508.428571,164.142857 512,172.761905 512,182.857143 C512,192.952381 508.428571,201.571429 501.285714,208.714286 C494.142857,215.857143 485.52381,219.428571 475.428571,219.428571 L475.428571,329.142857 C475.428571,339.047619 471.809524,347.619048 464.571429,354.857143 C457.333333,362.095238 448.761905,365.714286 438.857143,365.714286 C359.428571,299.619048 282.095238,263.428571 206.857143,257.142857 C195.809524,260.761905 187.142857,267.047619 180.857143,276 C174.571429,284.952381 171.619048,294.52381 172,304.714286 C172.380952,314.904762 176.190476,323.714286 183.428571,331.142857 C179.619048,337.428571 177.428571,343.666667 176.857143,349.857143 C176.285714,356.047619 176.857143,361.571429 178.571429,366.428571 C180.285714,371.285714 183.47619,376.52381 188.142857,382.142857 C192.809524,387.761905 197.380952,392.52381 201.857143,396.428571 C206.333333,400.333333 212.190476,405.142857 219.428571,410.857143 C213.904762,421.904762 203.285714,429.809524 187.571429,434.571429 C171.857143,439.333333 155.809524,440.428571 139.428571,437.857143 C123.047619,435.285714 110.47619,430 101.714286,422 C100.380952,417.619048 97.5714286,409.285714 93.2857143,397 C89,384.714286 85.952381,375.714286 84.1428571,370 C82.3333333,364.285714 80.1428571,355.809524 77.5714286,344.571429 C75,333.333333 73.5714286,323.714286 73.2857143,315.714286 C73,307.714286 73.3333333,298.333333 74.2857143,287.571429 C75.2380952,276.809524 77.3333333,266.285714 80.5714286,256 L45.7142857,256 C33.1428571,256 22.3809524,251.52381 13.4285714,242.571429 C4.47619048,233.619048 0,222.857143 0,210.285714 L0,155.428571 C0,142.857143 4.47619048,132.095238 13.4285714,123.142857 C22.3809524,114.190476 33.1428571,109.714286 45.7142857,109.714286 L182.857143,109.714286 C265.714286,109.714286 351.047619,73.1428571 438.857143,0 C448.761905,0 457.333333,3.61904762 464.571429,10.8571429 C471.809524,18.0952381 475.428571,26.6666667 475.428571,36.5714286 L475.428571,146.285714 L475.428571,146.285714 Z M438.857143,318.857143 L438.857143,46.2857143 C363.809524,103.809524 290.666667,136.47619 219.428571,144.285714 L219.428571,221.428571 C291.238095,229.428571 364.380952,261.904762 438.857143,318.857143 L438.857143,318.857143 Z" id="Shape"></path>
        </g>
    </g>
</svg>