<?xml version="1.0" encoding="UTF-8" standalone="no"?>
<svg width="462px" height="475px" viewBox="0 0 462 475" version="1.1" xmlns="http://www.w3.org/2000/svg" xmlns:xlink="http://www.w3.org/1999/xlink">
    <!-- Generator: Sketch 3.8.3 (29802) - http://www.bohemiancoding.com/sketch -->
    <title>icon-pub-fill</title>
    <desc>Created with Sketch.</desc>
    <defs></defs>
    <g id="Page-1" stroke="none" stroke-width="1" fill="none" fill-rule="evenodd">
        <g id="icon-pub-fill" transform="translate(0.000000, -31.000000)" fill="#000000">
            <path d="M144,16 L151,0 L144,16 Z M462,189 L462,186 L462,186 L462,182 C461,182 461,181 461,180 C461,179 460,179 460,178 C459,177 459,176 458,175 C457,175 456,174 456,174 C455,173 454,172 453,172 L453,172 C452,171 451,171 450,171 L448,171 L375,171 L387,141 C389,141 391,142 393,142 C415,142 435,128 444,108 C456,80 442,48 414,36 C407,33 400,31 393,31 C371,31 351,45 342,65 C333,88 340,115 359,129 L342,170 L14,170 C14,170 13,171 12,171 L9,171 L9,172 C8,172 7,173 6,173 C5,174 4,174 4,175 C3,176 3,177 2,177 C2,178 1,179 1,180 L1,182 C0,184 0,185 0,186 C0,186 0,186 0,187 L0,189 C0,190 0,191 1,192 L103,476 L49,476 C41,476 34,483 34,491 C34,499 41,506 49,506 L405,506 C413,506 419,499 419,491 C419,483 413,476 405,476 L358,476 L461,191 C462,190 462,189 462,189 L462,189 Z M369,78 C374,68 383,62 393,62 C396,62 399,63 403,64 C415,69 422,84 416,97 C411,110 396,116 383,111 C371,106 364,91 369,78 L369,78 Z M427,201 L403,268 L335,268 L362,201 L427,201 Z M303,268 L59,268 L35,201 L330,201 L303,268 Z" id="Shape"></path>
        </g>
    </g>
</svg>