<?xml version="1.0" encoding="UTF-8" standalone="no"?>
<svg width="483px" height="512px" viewBox="0 0 483 512" version="1.1" xmlns="http://www.w3.org/2000/svg" xmlns:xlink="http://www.w3.org/1999/xlink">
    <!-- Generator: Sketch 3.8.3 (29802) - http://www.bohemiancoding.com/sketch -->
    <title>icon-hookah</title>
    <desc>Created with Sketch.</desc>
    <defs></defs>
    <g id="Page-1" stroke="none" stroke-width="1" fill="none" fill-rule="evenodd">
        <g id="icon-hookah" fill="#000000">
            <path d="M439,338 C425,324 408,314 390,306 L372,126 L418,126 C425,126 431,122 434,116 L441,101 C444,96 440,91 435,91 L368,91 C408,81 436,52 436,18 C436,8 429,0 419,0 L253,0 C244,0 236,8 236,18 C236,52 265,81 304,91 L235,91 C230,91 227,97 229,101 L237,116 C239,122 245,126 252,126 L298,126 L288,222 C260,195 215,186 170,216 C155,226 145,242 142,260 L142,260 C138,284 120,304 96,307 C63,311 35,285 35,253 C35,243 27,236 17,236 C8,236 -2.84217094e-14,243 -2.84217094e-14,253 C-2.84217094e-14,302 40,342 89,342 C130,342 165,315 175,276 L176,273 C182,249 203,232 228,232 C258,232 282,257 282,286 C282,287 282,288 283,289 L281,306 C262,314 245,324 231,339 C192,377 178,434 194,486 C197,496 202,512 316,512 L339,512 C469,510 474,492 477,482 C491,431 477,376 439,338 L439,338 Z M277,35 L395,35 C385,50 362,60 336,60 C310,60 287,50 277,35 L277,35 Z M445,467 C414,478 259,481 226,471 C217,432 228,391 256,363 C268,351 282,342 298,337 C310,333 317,321 315,308 L315,308 L333,126 L337,126 L355,308 L355,308 C353,321 361,332 372,336 C388,342 403,351 415,363 C442,390 453,430 445,467 L445,467 Z" id="Shape"></path>
        </g>
    </g>
</svg>