<?xml version="1.0" encoding="UTF-8" standalone="no"?>
<svg width="512px" height="512px" viewBox="0 0 512 512" version="1.1" xmlns="http://www.w3.org/2000/svg" xmlns:xlink="http://www.w3.org/1999/xlink">
    <!-- Generator: Sketch 3.8.3 (29802) - http://www.bohemiancoding.com/sketch -->
    <title>icon-card-cashless</title>
    <desc>Created with Sketch.</desc>
    <defs></defs>
    <g id="Page-1" stroke="none" stroke-width="1" fill="none" fill-rule="evenodd">
        <g id="icon-card-cashless" fill="#000000">
            <path d="M498,160 L352,14 C333,-4 302,-4 284,14 L14,283 C5,293 0,305 0,317 C0,330 5,342 14,351 L160,497 C169,507 182,512 194,512 C207,512 219,507 228,497 L498,228 C507,219 512,207 512,194 C512,181 507,169 498,160 L498,160 Z M17,317 C17,309 20,301 26,295 L296,26 C302,20 310,17 318,17 C326,17 334,20 340,26 L362,48 L48,361 L26,339 C20,334 17,326 17,317 L17,317 Z M486,216 L216,485 C205,497 184,497 172,485 L60,374 L374,60 L486,172 C492,178 495,186 495,194 C495,202 492,210 486,216 L486,216 Z M368,132 L312,188 C308,191 308,197 312,200 C314,202 316,202 318,202 C320,202 322,202 324,200 L380,144 C383,141 383,135 380,132 C377,129 371,129 368,132 L368,132 Z M244,255 L132,368 C129,371 129,377 132,380 C134,382 136,382 138,382 C141,382 143,382 144,380 L257,268 C260,264 260,259 257,255 C253,252 248,252 244,255 L244,255 Z M211,356 L166,401 C163,404 163,410 166,413 C168,415 170,416 172,416 C174,416 176,415 178,413 L223,368 C226,365 226,360 223,356 C219,353 214,353 211,356 L211,356 Z" id="Shape"></path>
        </g>
    </g>
</svg>