<?xml version="1.0" encoding="UTF-8" standalone="no"?>
<svg width="515px" height="512px" viewBox="0 0 515 512" version="1.1" xmlns="http://www.w3.org/2000/svg" xmlns:xlink="http://www.w3.org/1999/xlink">
    <!-- Generator: Sketch 3.8.3 (29802) - http://www.bohemiancoding.com/sketch -->
    <title>icon-spoon</title>
    <desc>Created with Sketch.</desc>
    <defs></defs>
    <g id="Page-1" stroke="none" stroke-width="1" fill="none" fill-rule="evenodd">
        <g id="icon-spoon" fill="#000000">
            <path d="M197,197 C197,202 197,205 202,205 L205,205 C215,197 236,189 261,189 C292,187 325,195 325,195 C307,187 282,182 256,182 C243,182 233,182 225,184 C215,187 205,189 200,195 C197,195 197,197 197,197 L197,197 Z M443,0 L69,0 C31,0 0,31 0,69 L0,241 C61,243 74,243 95,241 C113,238 138,210 138,210 C138,210 161,174 218,159 C274,143 346,172 346,172 C433,202 435,253 435,253 L435,259 C435,259 433,310 346,340 C346,340 274,366 218,353 C161,338 138,302 138,302 C138,302 113,274 95,271 C77,269 61,269 0,271 L0,445 C0,481 31,512 69,512 L445,512 C484,512 515,481 515,443 L515,69 C512,31 481,0 443,0 L443,0 Z" id="Shape"></path>
        </g>
    </g>
</svg>