<?xml version="1.0" encoding="UTF-8" standalone="no"?>
<svg width="512px" height="512px" viewBox="0 0 512 512" version="1.1" xmlns="http://www.w3.org/2000/svg" xmlns:xlink="http://www.w3.org/1999/xlink">
    <!-- Generator: Sketch 3.8.3 (29802) - http://www.bohemiancoding.com/sketch -->
    <title>icon-move-up-admin</title>
    <desc>Created with Sketch.</desc>
    <defs></defs>
    <g id="Page-1" stroke="none" stroke-width="1" fill="none" fill-rule="evenodd">
        <g id="icon-move-up-admin" fill="#000000">
            <path d="M256,512 C115,512 0,397 0,256 C0,115 115,0 256,0 C397,0 512,115 512,256 C512,397 397,512 256,512 L256,512 Z M256,31 C132,31 31,132 31,256 C31,380 132,481 256,481 C380,481 481,380 481,256 C481,132 380,31 256,31 L256,31 Z M329,412 L180,412 C171,412 164,406 164,397 L164,280 L108,280 C102,280 96,276 94,270 C91,264 93,258 97,253 L243,104 C249,98 259,98 265,104 L412,253 C416,258 417,264 415,270 C412,276 407,280 401,280 L344,280 L344,397 C344,406 338,412 329,412 L329,412 Z M195,382 L314,382 L314,264 C314,256 321,249 329,249 L365,249 L254,137 L144,249 L180,249 C188,249 195,256 195,264 L195,382 Z" id="Shape"></path>
        </g>
    </g>
</svg>