<?xml version="1.0" encoding="UTF-8" standalone="no"?>
<svg width="196px" height="512px" viewBox="0 0 196 512" version="1.1" xmlns="http://www.w3.org/2000/svg" xmlns:xlink="http://www.w3.org/1999/xlink">
    <!-- Generator: Sketch 3.8.3 (29802) - http://www.bohemiancoding.com/sketch -->
    <title>icon-dollar</title>
    <desc>Created with Sketch.</desc>
    <defs></defs>
    <g id="Page-1" stroke="none" stroke-width="1" fill="none" fill-rule="evenodd">
        <g id="icon-dollar" fill="#000000">
            <path d="M113,242 L113,107 C143,114 166,141 166,173 C166,182 172,188 181,188 C189,188 196,182 196,173 C196,124 160,83 113,76 L113,15 C113,7 106,0 98,0 C90,0 83,7 83,15 L83,76 C36,83 0,124 0,173 C0,222 36,263 83,270 L83,405 C53,398 30,371 30,339 C30,330 24,324 15,324 C7,324 0,330 0,339 C0,388 36,429 83,436 L83,497 C83,505 90,512 98,512 C106,512 113,505 113,497 L113,436 C160,429 196,388 196,339 C196,290 160,249 113,242 L113,242 Z M30,173 C30,141 53,114 83,107 L83,238 C53,232 30,205 30,173 L30,173 Z M113,404 L113,273 C143,280 166,307 166,339 C166,371 143,398 113,404 L113,404 Z" id="Shape"></path>
        </g>
    </g>
</svg>