<?xml version="1.0" encoding="UTF-8" standalone="no"?>
<svg width="511px" height="441px" viewBox="0 0 511 441" version="1.1" xmlns="http://www.w3.org/2000/svg" xmlns:xlink="http://www.w3.org/1999/xlink">
    <!-- Generator: Sketch 3.8.3 (29802) - http://www.bohemiancoding.com/sketch -->
    <title>icon-find-friends-1</title>
    <desc>Created with Sketch.</desc>
    <defs></defs>
    <g id="Page-1" stroke="none" stroke-width="1" fill="none" fill-rule="evenodd">
        <g id="icon-find-friends-1" fill="#000000">
            <path d="M339,253 L339,222 C349,214 365,194 367,159 C370,157 373,154 375,150 C378,144 380,137 380,129 C379,118 376,108 370,102 C375,89 382,66 377,44 C370,14 329,3 296,3 C268,3 235,11 221,31 C208,31 200,36 195,41 C181,57 187,84 192,101 C190,103 188,105 187,108 C184,114 182,121 182,129 C182,143 187,153 195,159 C198,195 217,214 227,223 L227,253 C217,256 207,260 197,263 C137,284 100,298 92,324 C82,355 82,422 82,426 C82,434 88,441 97,441 L344,441 L344,411 L112,411 C113,387 115,351 121,333 C125,320 174,303 207,292 C221,287 235,282 248,277 C254,275 258,270 258,263 L258,215 C258,209 254,204 250,201 C248,201 224,188 224,150 C224,143 219,137 213,135 C212,132 212,127 213,124 C220,122 224,116 224,109 C224,106 224,103 222,97 C214,70 216,63 217,62 C218,62 221,61 227,62 C235,64 242,59 244,51 C246,43 266,33 296,33 C326,33 346,43 348,51 C352,67 345,86 341,96 C339,102 337,105 337,109 C337,116 342,122 349,124 C350,127 350,132 349,135 C346,136 344,137 342,139 C339,142 338,146 338,150 C338,188 317,202 317,202 C312,204 309,209 309,215 L309,263 C309,270 313,275 319,278 L339,253 Z M148,10 C134,0 116,-2 99,5 C81,12 66,28 62,43 C57,61 62,81 68,97 C63,103 60,111 60,121 C60,129 62,135 65,141 C67,145 69,147 71,149 C74,180 90,196 100,204 L100,213 L96,214 C30,239 19,258 10,285 C8,292 0,327 1,335 C1,340 1,349 0,358 C0,384 0,385 1,386 L2,387 L3,387 L9,387 C13,388 17,388 20,388 C23,388 28,388 30,384 L30,384 C24,273 66,258 102,245 L120,237 C127,235 130,229 130,223 L130,195 C130,188 127,183 121,180 C121,180 101,171 101,139 C101,133 97,127 91,125 C90,123 90,120 91,118 C97,115 101,110 101,103 C101,100 100,97 98,93 L98,91 C94,81 88,63 91,49 C92,46 99,38 110,33 C117,30 124,31 131,35 C133,36 136,37 139,37 C144,37 149,35 152,31 C154,27 155,23 154,19 C154,15 152,12 148,10 L148,10 Z M432,332 L432,265 C432,257 426,250 417,250 C409,250 402,257 402,265 L402,332 L336,332 C328,332 321,338 321,347 C321,355 328,362 336,362 L403,362 L403,426 C403,434 409,441 418,441 C426,441 433,434 433,426 L433,362 L496,362 C505,362 511,355 511,347 C511,338 505,331 496,331 L432,331 L432,332 Z" id="Shape"></path>
        </g>
    </g>
</svg>