<?xml version="1.0" encoding="UTF-8" standalone="no"?>
<svg width="484px" height="484px" viewBox="0 0 484 484" version="1.1" xmlns="http://www.w3.org/2000/svg" xmlns:xlink="http://www.w3.org/1999/xlink">
    <!-- Generator: Sketch 3.8.3 (29802) - http://www.bohemiancoding.com/sketch -->
    <title>icon-malaysia-new-curved-artboard-2-copy-16-1</title>
    <desc>Created with Sketch.</desc>
    <defs></defs>
    <g id="Page-1" stroke="none" stroke-width="1" fill="none" fill-rule="evenodd">
        <g id="icon-malaysia-new-curved-artboard-2-copy-16-1" fill="#000000">
            <path d="M241,313 C208,313 181,340 181,374 C181,407 208,434 241,434 C275,434 302,407 302,374 C302,340 275,313 241,313 L241,313 Z M241,416 C218,416 199,397 199,374 C199,350 218,331 241,331 C265,331 284,350 284,374 C284,397 265,416 241,416 L241,416 Z M235,374 C235,379 231,383 226,383 C220,383 216,379 216,374 C216,368 220,364 226,364 C231,364 235,368 235,374 L235,374 Z M266,374 C266,379 262,383 257,383 C252,383 247,379 247,374 C247,368 252,364 257,364 C262,364 266,368 266,374 L266,374 Z M190,231 C190,224 184,218 176,218 C169,218 163,224 163,231 C163,238 169,245 176,245 C184,245 190,238 190,231 L190,231 Z M176,230 C174,230 172,228 172,225 C172,223 174,221 176,221 C179,221 181,223 181,225 C181,228 179,230 176,230 L176,230 Z M300,245 C308,245 314,238 314,231 C314,224 308,218 300,218 C293,218 287,224 287,231 C287,238 293,245 300,245 L300,245 Z M300,221 C303,221 305,223 305,225 C305,228 303,230 300,230 C298,230 296,228 296,225 C296,223 298,221 300,221 L300,221 Z M242,0 C109,0 0,109 0,242 C0,375 109,484 242,484 C375,484 484,375 484,242 C484,109 375,0 242,0 L242,0 Z M353,191 C354,194 357,195 361,195 C362,195 363,195 365,194 C369,192 371,187 369,182 C368,181 364,173 354,163 L406,126 C410,155 416,226 374,257 C370,259 369,265 372,269 C374,271 376,273 379,273 C381,273 383,272 384,271 C447,225 422,113 421,108 L420,107 C449,144 466,191 466,242 C466,289 451,332 427,368 L157,161 C175,148 202,135 242,135 C323,135 351,188 353,191 L353,191 Z M242,18 C313,18 376,52 417,103 C417,103 416,102 415,102 C412,101 409,101 407,103 L341,150 C321,134 290,117 242,117 C195,117 163,133 142,150 L73,96 C114,49 174,18 242,18 L242,18 Z M242,466 C119,466 18,365 18,242 C18,193 34,147 61,110 L63,111 C59,130 42,229 100,271 C101,272 103,273 105,273 C108,273 110,271 112,269 C115,265 114,259 110,257 C68,226 74,155 78,126 L129,162 C119,172 115,180 114,181 C112,185 113,191 118,193 C122,195 127,194 130,190 C130,189 135,182 143,173 L416,383 C375,433 312,466 242,466 L242,466 Z" id="Shape"></path>
        </g>
    </g>
</svg>