<?xml version="1.0" encoding="UTF-8" standalone="no"?>
<svg width="403px" height="513px" viewBox="0 0 403 513" version="1.1" xmlns="http://www.w3.org/2000/svg" xmlns:xlink="http://www.w3.org/1999/xlink">
    <!-- Generator: Sketch 3.8.3 (29802) - http://www.bohemiancoding.com/sketch -->
    <title>icon-daily-menu</title>
    <desc>Created with Sketch.</desc>
    <defs></defs>
    <g id="Page-1" stroke="none" stroke-width="1" fill="none" fill-rule="evenodd">
        <g id="icon-daily-menu" fill="#000000">
            <path d="M344,14 C343,6 337,0 329,0 L76,0 C68,0 61,6 60,14 L1,495 C-4.4408921e-16,503 6,511 15,512 L16,512 C24,512 31,506 32,498 L39,440 L365,440 L371,498 C372,507 380,513 389,512 C397,511 403,503 402,495 L344,14 Z M43,409 L89,31 L316,31 L361,409 L43,409 Z M68,476 L68,492 C68,500 75,507 83,507 C92,507 99,500 99,492 L99,452 L68,452 L68,476 Z M301,476 L301,492 C301,500 308,507 316,507 C325,507 332,500 332,492 L332,452 L301,452 L301,476 Z M279,109 L121,109 C113,109 106,116 106,124 C106,133 113,140 121,140 L279,140 C287,140 294,133 294,124 C294,116 287,109 279,109 L279,109 Z M279,209 L121,209 C113,209 106,216 106,224 C106,232 113,239 121,239 L279,239 C287,239 294,232 294,224 C294,216 287,209 279,209 L279,209 Z M279,308 L121,308 C113,308 106,315 106,324 C106,332 113,339 121,339 L279,339 C287,339 294,332 294,324 C294,315 287,308 279,308 L279,308 Z" id="Shape"></path>
        </g>
    </g>
</svg>