<?xml version="1.0" encoding="UTF-8" standalone="no"?>
<svg width="512px" height="446px" viewBox="0 0 512 446" version="1.1" xmlns="http://www.w3.org/2000/svg" xmlns:xlink="http://www.w3.org/1999/xlink">
    <!-- Generator: Sketch 3.8.3 (29802) - http://www.bohemiancoding.com/sketch -->
    <title>icon-like-heart-new</title>
    <desc>Created with Sketch.</desc>
    <defs></defs>
    <g id="Page-1" stroke="none" stroke-width="1" fill="none" fill-rule="evenodd">
        <g id="icon-like-heart-new" transform="translate(-1.000000, 0.000000)" fill="#000000">
            <path d="M472,45 C445,16 408,0 368,0 C330,0 294,15 267,41 L257,51 L247,41 C220,15 184,0 146,0 C106,0 69,16 42,45 C15,73 0,109 1,148 C2,187 17,223 45,250 L243,441 C246,444 250,446 254,446 C255,446 256,446 257,445 C258,446 259,446 260,446 C264,446 267,444 271,441 L469,250 C497,223 512,187 513,148 C514,110 499,73 472,45 L472,45 Z M447,228 L257,412 L67,228 C45,207 32,178 32,148 C31,117 42,88 64,66 C85,43 115,31 146,31 C176,31 204,43 226,63 L246,83 C252,89 262,89 267,83 L288,63 C309,42 338,31 368,31 C399,31 428,44 450,66 C471,88 483,117 482,148 C482,178 469,207 447,228 L447,228 Z" id="Shape"></path>
        </g>
    </g>
</svg>