<?xml version="1.0" encoding="UTF-8" standalone="no"?>
<svg width="512px" height="512px" viewBox="0 0 512 512" version="1.1" xmlns="http://www.w3.org/2000/svg" xmlns:xlink="http://www.w3.org/1999/xlink">
    <!-- Generator: Sketch 3.8.3 (29802) - http://www.bohemiancoding.com/sketch -->
    <title>icon-add-meeting</title>
    <desc>Created with Sketch.</desc>
    <defs></defs>
    <g id="Page-1" stroke="none" stroke-width="1" fill="none" fill-rule="evenodd">
        <g id="icon-add-meeting" fill="#000000">
            <path d="M160,0 L96,0 L96,64 L160,64 L160,0 Z M416,0 L352,0 L352,64 L416,64 L416,0 Z M480,32 L448,32 L448,64 C448,82 434,96 416,96 L352,96 C334,96 320,82 320,64 L320,32 L192,32 L192,64 C192,82 178,96 160,96 L96,96 C78,96 64,82 64,64 L64,32 L32,32 C14,32 0,46 0,64 L0,480 C0,498 14,512 32,512 L480,512 C498,512 512,498 512,480 L512,64 C512,46 498,32 480,32 L480,32 Z M160,416 L96,416 L96,352 L160,352 L160,416 Z M160,288 L96,288 L96,224 L160,224 L160,288 Z M288,416 L224,416 L224,352 L288,352 L288,416 Z M288,288 L224,288 L224,224 L288,224 L288,288 Z M416,416 L352,416 L352,352 L416,352 L416,416 Z M416,288 L352,288 L352,224 L416,224 L416,288 Z" id="Shape"></path>
        </g>
    </g>
</svg>