<?xml version="1.0" encoding="UTF-8" standalone="no"?>
<svg width="448px" height="512px" viewBox="0 0 448 512" version="1.1" xmlns="http://www.w3.org/2000/svg" xmlns:xlink="http://www.w3.org/1999/xlink">
    <!-- Generator: Sketch 3.8.3 (29802) - http://www.bohemiancoding.com/sketch -->
    <title>icon-menu-srp</title>
    <desc>Created with Sketch.</desc>
    <defs></defs>
    <g id="Page-1" stroke="none" stroke-width="1" fill="none" fill-rule="evenodd">
        <g id="icon-menu-srp" fill="#000000">
            <path d="M0,32 L0,480 C0,498 14,512 32,512 L64,512 L64,0 L32,0 C14,0 0,14 0,32 L0,32 Z M416,0 L96,0 L96,512 L416,512 C434,512 448,498 448,480 L448,32 C448,14 434,0 416,0 L416,0 Z M352,288 L192,288 L192,256 L352,256 L352,288 Z M352,160 L192,160 L192,128 L352,128 L352,160 Z" id="Shape"></path>
        </g>
    </g>
</svg>