<?xml version="1.0" encoding="UTF-8" standalone="no"?>
<svg width="512px" height="512px" viewBox="0 0 512 512" version="1.1" xmlns="http://www.w3.org/2000/svg" xmlns:xlink="http://www.w3.org/1999/xlink">
    <!-- Generator: Sketch 3.8.3 (29802) - http://www.bohemiancoding.com/sketch -->
    <title>icon-location</title>
    <desc>Created with Sketch.</desc>
    <defs></defs>
    <g id="Page-1" stroke="none" stroke-width="1" fill="none" fill-rule="evenodd">
        <g id="icon-location" fill="#000000">
            <path d="M253,411 C249,411 244,409 241,406 L164,320 L164,320 C120,274 123,198 170,151 C192,129 221,116 253,116 C284,116 314,129 336,151 C383,198 385,276 340,321 L340,321 L264,406 C261,409 257,411 253,411 L253,411 Z M189,301 L253,372 L318,299 C318,298 319,298 319,297 C350,264 348,207 314,172 C298,156 276,147 253,147 C229,147 208,156 191,172 C156,207 154,267 187,300 C188,300 188,301 189,301 L189,301 Z M253,298 C219,298 192,271 192,238 C192,204 219,177 253,177 C286,177 314,204 314,238 C314,271 286,298 253,298 L253,298 Z M253,207 C236,207 222,221 222,237 C222,254 236,268 253,268 C269,268 283,254 283,237 C283,221 270,207 253,207 L253,207 Z M256,512 C115,512 0,397 0,256 C0,115 115,0 256,0 C397,0 512,115 512,256 C512,397 397,512 256,512 L256,512 Z M256,31 C132,31 31,132 31,256 C31,380 132,481 256,481 C380,481 481,380 481,256 C481,132 380,31 256,31 L256,31 Z" id="Shape"></path>
        </g>
    </g>
</svg>