<?xml version="1.0" encoding="UTF-8" standalone="no"?>
<svg width="512px" height="429px" viewBox="0 0 512 429" version="1.1" xmlns="http://www.w3.org/2000/svg" xmlns:xlink="http://www.w3.org/1999/xlink">
    <!-- Generator: Sketch 3.8.3 (29802) - http://www.bohemiancoding.com/sketch -->
    <title>icon-feedback</title>
    <desc>Created with Sketch.</desc>
    <defs></defs>
    <g id="Page-1" stroke="none" stroke-width="1" fill="none" fill-rule="evenodd">
        <g id="icon-feedback" fill="#000000">
            <path d="M463,125 L429,125 L429,16 C429,11 426,6 422,3 C417,0 412,0 407,3 C394,9 383,15 372,21 C306,56 254,83 98,83 L73,83 C32,83 0,119 0,165 L0,206 C0,250 30,280 73,280 L98,280 C117,280 134,280 150,281 C153,345 187,402 239,428 C241,429 243,429 245,429 C251,429 257,426 259,421 C263,413 260,404 252,400 C212,380 184,334 181,283 C272,292 317,316 366,343 C379,350 393,357 407,365 C409,366 411,366 413,366 C416,366 419,365 422,364 C426,361 429,356 429,351 L429,238 L463,238 C491,238 512,219 512,194 L512,173 C512,147 489,125 463,125 L463,125 Z M73,249 C47,249 31,233 31,206 L31,165 C31,140 47,114 73,114 L98,114 C117,114 133,114 149,113 L149,251 C133,250 116,249 98,249 L73,249 L73,249 Z M398,326 C393,322 387,320 381,317 C330,288 281,262 180,252 L180,111 C284,102 332,76 386,48 C390,46 394,43 399,41 L399,326 L398,326 Z M481,194 C481,203 472,208 463,208 L429,208 L429,155 L463,155 C472,155 481,164 481,173 L481,194 Z" id="Shape"></path>
        </g>
    </g>
</svg>