<?xml version="1.0" encoding="UTF-8" standalone="no"?>
<svg width="346px" height="493px" viewBox="0 0 346 493" version="1.1" xmlns="http://www.w3.org/2000/svg" xmlns:xlink="http://www.w3.org/1999/xlink">
    <!-- Generator: Sketch 3.8.3 (29802) - http://www.bohemiancoding.com/sketch -->
    <title>icon-been-there-fill-1</title>
    <desc>Created with Sketch.</desc>
    <defs></defs>
    <g id="Page-1" stroke="none" stroke-width="1" fill="none" fill-rule="evenodd">
        <g id="icon-been-there-fill-1" fill="#000000">
            <path d="M136,267 L9,267 L2,216 C-1,188 1,160 10,133 L42,33 C49,13 67,0 88,0 L89,0 C116,0 138,20 141,46 L152,166 L136,267 Z M73,459 C39,459 10,430 10,393 L10,295 L137,294 L137,393 C137,430 108,459 73,459 L73,459 Z M211,301 L338,301 L344,250 C348,222 345,194 337,167 L305,67 C298,47 279,35 259,34 L257,34 C231,34 209,54 206,80 L195,200 L211,301 Z M273,493 C308,493 336,463 336,426 L336,327 L210,326 L210,426 C210,463 238,493 273,493 L273,493 Z" id="Shape"></path>
        </g>
    </g>
</svg>