<?xml version="1.0" encoding="UTF-8" standalone="no"?>
<svg width="512px" height="512px" viewBox="0 0 512 512" version="1.1" xmlns="http://www.w3.org/2000/svg" xmlns:xlink="http://www.w3.org/1999/xlink">
    <!-- Generator: Sketch 3.8.3 (29802) - http://www.bohemiancoding.com/sketch -->
    <title>icon-following</title>
    <desc>Created with Sketch.</desc>
    <defs></defs>
    <g id="Page-1" stroke="none" stroke-width="1" fill="none" fill-rule="evenodd">
        <g id="icon-following" fill="#000000">
            <path d="M0,256 C0,115 115,0 256,0 C397,0 512,115 512,256 C512,397 397,512 256,512 C115,512 0,397 0,256 L0,256 Z M481,256 C481,132 380,31 256,31 C132,31 31,132 31,256 C31,380 132,481 256,481 C380,481 481,380 481,256 L481,256 Z M123,329 L123,180 C123,171 130,164 138,164 L255,164 L255,108 C255,102 259,96 265,94 C271,91 277,93 282,97 L431,243 C437,249 437,259 431,265 L282,412 C277,416 271,417 265,415 C259,412 255,407 255,401 L255,344 L138,344 C130,344 123,337 123,329 L123,329 Z M153,195 L153,314 L271,314 C279,314 286,321 286,329 L286,364 L398,254 L286,144 L286,179 C286,188 279,195 271,195 L153,195 Z" id="Shape"></path>
        </g>
    </g>
</svg>