<?xml version="1.0" encoding="UTF-8" standalone="no"?>
<svg width="507px" height="487px" viewBox="0 0 507 487" version="1.1" xmlns="http://www.w3.org/2000/svg" xmlns:xlink="http://www.w3.org/1999/xlink">
    <!-- Generator: Sketch 3.8.3 (29802) - http://www.bohemiancoding.com/sketch -->
    <title>icon-rate-this-place</title>
    <desc>Created with Sketch.</desc>
    <defs></defs>
    <g id="Page-1" stroke="none" stroke-width="1" fill="none" fill-rule="evenodd">
        <g id="icon-rate-this-place" fill="#000000">
            <path d="M127,487 C117,487 107,483 99,477 C84,467 76,449 79,430 L99,318 C99,316 98,313 96,311 L15,232 C2,219 -3,200 3,182 C8,165 23,152 41,150 L158,133 L211,27 C219,10 235,0 254,0 C272,0 288,10 297,27 L349,133 L466,150 C484,152 499,165 504,182 C510,200 505,219 492,232 L408,314 L428,430 C431,449 423,467 409,477 C394,488 374,490 358,481 L254,426 L149,481 C142,485 134,487 127,487" id="Shape"></path>
        </g>
    </g>
</svg>