<?xml version="1.0" encoding="UTF-8" standalone="no"?>
<svg width="504px" height="512px" viewBox="0 0 504 512" version="1.1" xmlns="http://www.w3.org/2000/svg" xmlns:xlink="http://www.w3.org/1999/xlink">
    <!-- Generator: Sketch 3.8.3 (29802) - http://www.bohemiancoding.com/sketch -->
    <title>icon-call-admin</title>
    <desc>Created with Sketch.</desc>
    <defs></defs>
    <g id="Page-1" stroke="none" stroke-width="1" fill="none" fill-rule="evenodd">
        <g id="icon-call-admin" fill="#000000">
            <path d="M490,269 C483,269 477,263 477,256 C477,130 374,27 248,27 C240,27 234,21 234,13 C234,6 240,0 248,0 C389,0 504,115 504,256 C504,263 498,269 490,269 L490,269 Z M406,269 C398,269 393,263 393,256 C393,176 328,111 248,111 C240,111 234,105 234,98 C234,90 240,84 248,84 C342,84 419,162 419,256 C419,263 413,269 406,269 L406,269 Z M322,269 C314,269 308,263 308,256 C308,223 281,196 248,196 C240,196 235,190 235,182 C235,175 240,169 248,169 C296,169 335,208 335,256 C335,263 329,269 322,269 L322,269 Z M102,104 C114,104 128,121 146,140 L147,141 L148,143 C164,162 176,176 178,186 C179,192 177,201 155,220 C141,233 128,236 124,237 C116,239 109,244 106,251 C102,259 102,267 105,274 C129,329 165,370 213,397 C217,400 221,401 226,401 C229,401 232,400 235,399 C243,396 249,390 251,382 C253,376 259,366 272,355 C280,347 288,342 294,339 C298,337 301,336 304,336 C316,336 332,354 349,374 C367,395 378,408 379,418 C381,424 379,434 357,453 L354,455 C344,463 334,472 322,477 C312,483 300,485 288,485 C270,485 251,481 228,471 C181,452 144,424 106,381 C68,336 46,297 34,247 C14,171 41,147 70,123 C78,115 86,110 92,107 C96,105 99,104 102,104 L102,104 Z M102,77 C96,77 88,79 80,82 C72,87 63,93 52,102 C22,129 -16,162 8,254 C21,307 45,350 86,398 C127,445 167,475 218,496 C244,507 267,512 288,512 C304,512 320,508 334,501 C350,494 363,483 374,473 C393,456 410,438 406,413 C403,395 390,380 369,356 C346,329 328,309 305,309 C298,309 290,311 282,315 C274,319 265,325 255,334 C239,348 230,361 226,374 C181,348 150,311 130,263 C142,261 158,253 173,241 C192,224 209,205 205,181 C201,163 188,148 167,124 C144,98 126,77 102,77 L102,77 Z" id="Shape"></path>
        </g>
    </g>
</svg>