<?xml version="1.0" encoding="UTF-8" standalone="no"?>
<svg width="511px" height="511px" viewBox="0 0 511 511" version="1.1" xmlns="http://www.w3.org/2000/svg" xmlns:xlink="http://www.w3.org/1999/xlink">
    <!-- Generator: Sketch 3.8.3 (29802) - http://www.bohemiancoding.com/sketch -->
    <title>icon-save-admin</title>
    <desc>Created with Sketch.</desc>
    <defs></defs>
    <g id="Page-1" stroke="none" stroke-width="1" fill="none" fill-rule="evenodd">
        <g id="icon-save-admin" fill="#000000">
            <path d="M496,0 L82,0 C78,0 74,2 71,5 L5,71 C2,74 0,77 0,82 L0,496 C0,504 7,511 16,511 L496,511 C504,511 511,504 511,496 L511,15 C511,7 504,0 496,0 L496,0 Z M398,31 L398,99 L114,99 L114,31 L398,31 Z M114,480 L114,445 L398,445 L398,480 L114,480 Z M481,480 L428,480 L428,430 C428,421 422,414 413,414 L98,414 C90,414 83,421 83,430 L83,480 L31,480 L31,88 L83,36 L83,115 C83,123 90,130 98,130 L413,130 C422,130 428,123 428,115 L428,31 L481,31 L481,480 Z M256,149 C202,149 158,193 158,247 C158,301 202,345 256,345 C310,345 354,301 354,247 C354,193 310,149 256,149 L256,149 Z M256,315 C218,315 188,284 188,247 C188,210 218,180 256,180 C293,180 323,210 323,247 C323,284 293,315 256,315 L256,315 Z M256,224 C243,224 232,234 232,247 C232,260 243,271 256,271 C269,271 279,260 279,247 C279,234 269,224 256,224 L256,224 Z M256,254 C252,254 249,251 249,247 C249,243 252,240 256,240 C260,240 263,243 263,247 C263,251 260,254 256,254 L256,254 Z" id="Shape"></path>
        </g>
    </g>
</svg>