<?xml version="1.0" encoding="UTF-8" standalone="no"?>
<svg width="512px" height="289px" viewBox="0 0 512 289" version="1.1" xmlns="http://www.w3.org/2000/svg" xmlns:xlink="http://www.w3.org/1999/xlink">
    <!-- Generator: Sketch 3.8.3 (29802) - http://www.bohemiancoding.com/sketch -->
    <title>icon-expertise-yay</title>
    <desc>Created with Sketch.</desc>
    <defs></defs>
    <g id="Page-1" stroke="none" stroke-width="1" fill="none" fill-rule="evenodd">
        <g id="icon-expertise-yay" fill="#000000">
            <path d="M382,268 L143,268 C137,268 133,273 133,279 C133,284 137,289 143,289 L382,289 C388,289 393,284 393,279 C393,273 388,268 382,268 L382,268 Z M394,53 C390,52 385,53 382,57 L324,133 L270,57 C268,55 265,53 262,53 C258,53 255,55 253,57 L199,133 L141,57 C138,53 134,52 129,53 C125,55 122,59 122,64 L129,235 C129,241 134,245 140,245 L382,245 C388,245 393,241 393,235 L401,64 C402,59 399,55 394,53 L394,53 Z M379,97 L373,203 L337,151 L379,97 Z M186,151 L149,203 L145,96 L186,151 Z M160,224 L199,169 L241,224 L160,224 Z M212,151 L262,82 L310,151 L261,215 L212,151 Z M323,169 L362,224 L281,224 L323,169 Z M128,28 C129,28 131,28 132,27 L140,19 C142,16 142,13 140,10 L132,2 C130,0 126,0 123,2 L115,10 C113,13 113,16 115,19 L123,27 C125,28 126,28 128,28 L128,28 Z M258,27 C259,28 260,29 262,29 C263,29 265,28 266,27 L274,19 C276,16 276,13 274,10 L266,2 C264,0 260,0 258,2 L249,10 C247,13 247,16 249,19 L258,27 Z M400,2 C398,0 394,0 392,2 L383,10 C381,13 381,16 383,19 L392,27 C393,28 394,29 396,29 C397,29 399,28 400,27 L408,19 C410,16 410,13 408,10 L400,2 Z M443,116 C445,116 446,116 447,115 L474,100 C478,98 479,92 477,88 C475,84 470,82 465,85 L439,100 C435,102 433,107 436,112 C438,114 440,116 443,116 L443,116 Z M474,237 L448,222 C444,220 438,221 436,226 C434,230 435,235 439,237 L466,252 C467,253 468,253 470,253 C473,253 476,252 477,249 C479,245 478,240 474,237 L474,237 Z M503,159 L472,159 C467,159 463,163 463,167 C463,172 467,176 472,176 L503,176 C508,176 512,172 512,167 C512,163 508,159 503,159 L503,159 Z M73,100 L47,85 C42,82 37,84 35,88 C33,92 34,98 38,100 L65,115 C66,116 67,116 69,116 C72,116 75,114 76,112 C78,107 77,102 73,100 L73,100 Z M65,222 L38,237 C34,240 33,245 35,249 C36,252 39,253 42,253 C44,253 45,253 47,252 L73,237 C77,235 79,230 76,226 C74,221 69,220 65,222 L65,222 Z M49,167 C49,162 45,158 40,158 L9,158 C4,159 0,163 0,167 C0,172 4,176 9,176 L40,176 C45,176 49,172 49,167 L49,167 Z" id="Shape"></path>
        </g>
    </g>
</svg>