<?xml version="1.0" encoding="UTF-8" standalone="no"?>
<svg width="503px" height="512px" viewBox="0 0 503 512" version="1.1" xmlns="http://www.w3.org/2000/svg" xmlns:xlink="http://www.w3.org/1999/xlink">
    <!-- Generator: Sketch 3.8.3 (29802) - http://www.bohemiancoding.com/sketch -->
    <title>icon-online-ordering</title>
    <desc>Created with Sketch.</desc>
    <defs></defs>
    <g id="Page-1" stroke="none" stroke-width="1" fill="none" fill-rule="evenodd">
        <g id="icon-online-ordering" fill="#000000">
            <path d="M397,417 C371,417 350,438 350,464 C350,490 371,512 397,512 C423,512 445,490 445,464 C445,438 424,417 397,417 L397,417 Z M397,481 C388,481 380,474 380,464 C380,454 388,447 397,447 C407,447 415,455 415,464 C415,474 407,481 397,481 L397,481 Z M194,417 C168,417 147,438 147,464 C147,490 168,512 194,512 C220,512 242,490 242,464 C242,438 220,417 194,417 L194,417 Z M194,481 C184,481 177,474 177,464 C177,454 185,447 194,447 C204,447 212,455 212,464 C212,474 204,481 194,481 L194,481 Z M499,179 C496,175 491,172 487,172 L126,172 L102,70 C100,64 94,59 87,59 L15,59 C7,59 0,65 0,74 C0,82 7,89 15,89 L75,89 L146,379 C146,380 146,382 147,383 L147,383 C147,391 153,398 162,398 L425,398 C432,398 438,394 440,387 L501,192 C503,187 502,183 499,179 L499,179 Z M414,368 L174,368 L134,203 L466,203 L414,368 Z M364,142 L368,142 C374,142 380,138 382,131 C384,123 380,115 372,113 C368,112 366,109 365,107 C364,103 364,99 365,94 C366,91 368,88 373,83 C382,77 388,67 391,56 C394,45 394,34 389,24 C384,12 375,4 363,1 C355,-1 347,3 345,12 C343,20 347,28 355,30 C359,31 361,34 362,36 C363,40 363,44 362,48 C362,52 360,54 358,57 L353,60 C347,66 339,74 336,87 C333,98 333,109 338,119 C343,130 352,139 364,142 L364,142 Z M296,142 L299,142 C306,142 312,138 314,131 C316,123 311,115 303,113 C300,112 298,109 297,107 C296,103 295,99 297,94 C298,91 300,88 304,83 C313,77 320,67 323,56 C326,45 325,34 321,24 C316,12 306,4 295,1 C287,-1 278,3 276,12 C274,20 279,28 287,30 C291,31 293,34 293,36 C295,40 295,44 294,48 C293,52 292,54 289,57 L285,60 C279,66 271,74 267,87 C265,98 265,109 270,119 C275,130 284,139 296,142 L296,142 Z M227,142 L231,142 C238,142 244,138 246,131 C248,123 243,115 235,113 C231,112 229,109 229,107 C227,103 227,99 228,94 C229,91 231,88 236,83 C245,77 251,67 254,56 C257,45 256,34 252,24 C247,12 238,4 226,1 C218,-1 210,3 208,12 C206,20 210,28 218,30 C222,31 224,34 225,36 C226,40 226,44 225,48 C225,52 223,55 221,57 L216,60 C210,66 202,75 199,87 C196,98 196,109 201,119 C206,130 216,139 227,142 L227,142 Z" id="Shape"></path>
        </g>
    </g>
</svg>