<?xml version="1.0" encoding="UTF-8" standalone="no"?>
<svg width="512px" height="512px" viewBox="0 0 512 512" version="1.1" xmlns="http://www.w3.org/2000/svg" xmlns:xlink="http://www.w3.org/1999/xlink">
    <!-- Generator: Sketch 3.8.3 (29802) - http://www.bohemiancoding.com/sketch -->
    <title>icon-picture</title>
    <desc>Created with Sketch.</desc>
    <defs></defs>
    <g id="Page-1" stroke="none" stroke-width="1" fill="none" fill-rule="evenodd">
        <g id="icon-picture" fill="#000000">
            <path d="M0,0 L0,512 L512,512 L512,0 L0,0 Z M481,31 L481,439 L411,302 C395,270 378,254 360,254 C337,254 321,281 311,299 L247,408 C226,384 186,345 136,345 C93,345 55,396 31,437 L31,31 L481,31 Z M468,481 L42,481 C65,434 103,376 136,376 C189,376 235,443 236,444 C239,448 244,451 249,451 C254,451 259,448 262,443 L338,313 C351,290 357,285 360,284 C360,284 369,286 384,316 L468,481 Z M122,197 L124,197 L190,197 C207,197 224,190 236,177 C248,165 255,148 255,131 C255,93 225,63 187,63 C159,63 135,80 125,105 L125,105 C99,105 78,126 78,152 C78,176 98,197 122,197 L122,197 Z M124,135 C126,135 128,136 130,136 L148,143 L151,125 C154,107 169,93 187,93 C208,93 224,110 224,130 C224,140 220,149 214,156 C207,162 199,166 189,166 L122,166 C114,166 108,159 108,151 C108,143 115,135 124,135 L124,135 Z" id="Shape"></path>
        </g>
    </g>
</svg>