<?xml version="1.0" encoding="UTF-8" standalone="no"?>
<svg width="503px" height="429px" viewBox="0 0 503 429" version="1.1" xmlns="http://www.w3.org/2000/svg" xmlns:xlink="http://www.w3.org/1999/xlink">
    <!-- Generator: Sketch 3.8.3 (29802) - http://www.bohemiancoding.com/sketch -->
    <title>icon-add-to-collection-filled-1</title>
    <desc>Created with Sketch.</desc>
    <defs></defs>
    <g id="Page-1" stroke="none" stroke-width="1" fill="none" fill-rule="evenodd">
        <g id="icon-add-to-collection-filled-1" fill="#000000">
            <path d="M398,343 L278,343 C221,343 174,296 174,238 L174,105 C174,47 221,0 278,0 L398,0 C456,0 503,47 503,105 L503,238 C503,296 456,343 398,343 L398,343 Z M425,153 L355,153 L355,83 L320,83 L320,153 L248,153 L248,188 L320,188 L320,260 L355,260 L355,188 L425,188 L425,153 Z M244,376 C250,376 256,377 263,376 C261,380 251,386 234,396 L146,427 C139,428 132,429 125,429 C86,429 52,403 42,365 L3,208 C-8,162 20,117 65,105 L116,93 C120,93 144,86 144,86 C141,90 135,95 135,105 L135,272 C135,317 166,357 210,367 L244,376 Z" id="Shape"></path>
        </g>
    </g>
</svg>