<?xml version="1.0" encoding="UTF-8" standalone="no"?>
<svg width="418px" height="468px" viewBox="0 0 418 468" version="1.1" xmlns="http://www.w3.org/2000/svg" xmlns:xlink="http://www.w3.org/1999/xlink">
    <!-- Generator: Sketch 3.8.3 (29802) - http://www.bohemiancoding.com/sketch -->
    <title>icon-recommendations-srp</title>
    <desc>Created with Sketch.</desc>
    <defs></defs>
    <g id="Page-1" stroke="none" stroke-width="1" fill="none" fill-rule="evenodd">
        <g id="icon-recommendations-srp" fill="#000000">
            <path d="M417,207 C413,182 391,164 366,164 L251,164 C249,164 249,163 248,163 L248,160 C251,154 254,147 257,139 C273,95 273,46 257,20 C248,5 236,1 228,0 L227,0 L225,0 L217,0 C178,0 168,52 165,69 C148,159 89,186 46,207 C39,210 33,213 27,216 C10,225 0,243 0,262 L0,416 C0,445 23,468 52,468 L345,468 C371,468 393,449 396,423 L418,209 L417,207 Z M344,440 L52,440 C38,440 27,429 27,416 L27,262 C27,253 32,245 40,241 C45,238 52,235 58,232 C101,212 173,178 192,74 C195,57 203,28 217,28 L222,28 L225,28 C228,29 231,31 233,34 C243,50 246,89 231,129 C228,136 225,142 223,147 C219,157 219,167 224,176 C229,186 240,192 251,192 L366,192 C377,192 387,200 390,210 L385,258 L250,258 C242,258 236,264 236,272 L236,272 C236,280 242,286 250,286 L382,286 L375,349 L250,349 C242,349 236,355 236,363 L236,363 C236,371 242,377 250,377 L373,377 L368,419 C367,431 357,440 344,440 L344,440 Z" id="Shape"></path>
        </g>
    </g>
</svg>