<?xml version="1.0" encoding="UTF-8" standalone="no"?>
<svg width="512px" height="482px" viewBox="0 0 512 482" version="1.1" xmlns="http://www.w3.org/2000/svg" xmlns:xlink="http://www.w3.org/1999/xlink">
    <!-- Generator: Sketch 3.8.3 (29802) - http://www.bohemiancoding.com/sketch -->
    <title>icon-profile-icon-2</title>
    <desc>Created with Sketch.</desc>
    <defs></defs>
    <g id="Page-1" stroke="none" stroke-width="1" fill="none" fill-rule="evenodd">
        <g id="icon-profile-icon-2" fill="#000000">
            <path d="M501,482 L11,482 C4,482 0,478 0,471 L0,449 C0,382 54,328 122,328 L390,328 C458,328 512,382 512,449 L512,471 C512,478 508,482 501,482 L501,482 Z M256,285 C188,285 134,232 134,165 L134,121 C134,53 188,0 256,0 C324,0 378,53 378,121 L378,165 C378,231 324,285 256,285 L256,285 Z" id="Shape"></path>
        </g>
    </g>
</svg>