<?xml version="1.0" encoding="UTF-8" standalone="no"?>
<svg width="512px" height="512px" viewBox="0 0 512 512" version="1.1" xmlns="http://www.w3.org/2000/svg" xmlns:xlink="http://www.w3.org/1999/xlink">
    <!-- Generator: Sketch 3.8.3 (29802) - http://www.bohemiancoding.com/sketch -->
    <title>icon-discover</title>
    <desc>Created with Sketch.</desc>
    <defs></defs>
    <g id="Page-1" stroke="none" stroke-width="1" fill="none" fill-rule="evenodd">
        <g id="icon-discover" fill="#000000">
            <path d="M299,299 L342,170 L213,213 L299,299 Z M256,0 C115,0 0,115 0,256 C0,397 115,512 256,512 C397,512 512,397 512,256 C512,115 397,0 256,0 L256,0 Z M248,33 C248,28 251,25 256,25 C261,25 264,28 264,33 L264,83 C264,88 261,91 256,91 C251,91 248,88 248,83 L248,33 Z M83,264 L33,264 C28,264 25,261 25,256 C25,251 28,248 33,248 L83,248 C88,248 91,251 91,256 C91,261 88,264 83,264 L83,264 Z M264,479 C264,484 261,487 256,487 C251,487 248,484 248,479 L248,429 C248,424 251,421 256,421 C261,421 264,424 264,429 L264,479 Z M362,159 L313,308 C312,311 310,312 308,313 L159,363 C158,364 158,364 157,364 C154,364 153,363 151,361 C148,358 147,355 149,353 L199,204 C200,201 201,200 204,199 L353,150 C356,149 359,150 361,151 C363,154 364,157 362,159 L362,159 Z M479,264 L429,264 C424,264 421,261 421,256 C421,251 424,248 429,248 L479,248 C484,248 487,251 487,256 C487,261 484,264 479,264 L479,264 Z" id="Shape"></path>
        </g>
    </g>
</svg>