<?xml version="1.0" encoding="UTF-8" standalone="no"?>
<svg width="512px" height="446px" viewBox="0 0 512 446" version="1.1" xmlns="http://www.w3.org/2000/svg" xmlns:xlink="http://www.w3.org/1999/xlink">
    <!-- Generator: Sketch 3.8.3 (29802) - http://www.bohemiancoding.com/sketch -->
    <title>icon-restaurant</title>
    <desc>Created with Sketch.</desc>
    <defs></defs>
    <g id="Page-1" stroke="none" stroke-width="1" fill="none" fill-rule="evenodd">
        <g id="icon-restaurant" fill="#000000">
            <path d="M248,233 L115,233 C107,233 100,240 100,248 L100,364 C100,373 107,379 115,379 L248,379 C256,379 263,373 263,364 L263,248 C263,239 256,233 248,233 L248,233 Z M232,348 L130,348 L130,263 L232,263 L232,348 Z M512,99 C512,97 511,95 511,93 C511,93 511,93 510,92 L510,91 L460,8 C457,3 452,0 447,0 L65,0 C60,0 55,3 52,8 L2,91 C2,91 2,91 2,92 L1,93 C1,95 0,97 0,99 L0,115 C0,144 13,169 33,184 L33,430 C33,439 40,446 49,446 L463,446 C472,446 479,439 479,430 L479,181 C479,181 478,180 478,179 C498,164 512,140 512,115 L512,99 Z M469,83 L392,83 L376,31 L438,31 L469,83 Z M365,159 C354,175 337,183 312,183 C291,183 274,177 263,166 L263,114 L365,114 L365,159 Z M147,114 L232,114 L232,167 C221,178 208,183 190,183 C167,183 158,177 147,160 L147,114 Z M232,31 L232,83 L152,83 L168,31 L232,31 Z M344,31 L360,83 L263,83 L263,31 L344,31 Z M74,31 L136,31 L120,83 L43,83 L74,31 Z M31,114 L116,114 L116,157 C107,162 89,166 74,166 C47,166 31,140 31,115 L31,114 Z M329,415 L329,263 L398,263 L398,415 L329,415 Z M448,415 L429,415 L429,248 C429,240 422,233 413,233 L314,233 C305,233 298,240 298,248 L298,415 L64,415 L64,196 C67,196 70,197 74,197 C84,197 109,194 128,186 C141,203 159,213 190,213 C213,213 232,207 248,194 C265,207 287,213 312,213 C342,213 367,204 383,186 C398,194 416,197 430,197 C436,197 442,196 448,194 L448,415 Z M481,115 C481,142 456,166 430,166 C417,166 404,162 396,157 L396,114 L481,114 L481,115 Z M389,347 C389,352 385,356 380,356 C376,356 372,352 372,347 C372,343 376,339 380,339 C385,339 389,343 389,347 L389,347 Z" id="Shape"></path>
        </g>
    </g>
</svg>