<?xml version="1.0" encoding="UTF-8" standalone="no"?>
<svg width="511px" height="338px" viewBox="0 0 511 338" version="1.1" xmlns="http://www.w3.org/2000/svg" xmlns:xlink="http://www.w3.org/1999/xlink">
    <!-- Generator: Sketch 3.8.3 (29802) - http://www.bohemiancoding.com/sketch -->
    <title>icon-rating-4-3</title>
    <desc>Created with Sketch.</desc>
    <defs></defs>
    <g id="Page-1" stroke="none" stroke-width="1" fill="none" fill-rule="evenodd">
        <g id="icon-rating-4-3" fill="#000000">
            <path d="M167,190 L167,125 L125,190 L167,190 Z M398,0 L113,0 C51,0 0,50 0,113 L0,225 C0,287 51,338 113,338 L398,338 C461,338 511,287 511,225 L511,113 C511,50 461,0 398,0 L398,0 Z M220,218 L200,218 L200,250 L167,250 L167,218 L93,218 L93,193 L155,96 L200,96 L200,190 L220,190 L220,218 Z M255,253 C245,253 237,244 237,234 C237,224 246,215 255,215 C266,215 274,224 274,234 C274,244 266,253 255,253 L255,253 Z M352,253 C308,253 288,213 288,173 C288,133 308,94 352,94 C396,94 416,133 416,173 C416,213 396,253 352,253 L352,253 Z M352,123 C330,123 321,145 321,173 C321,202 330,224 352,224 C374,224 382,202 382,173 C382,145 374,123 352,123 L352,123 Z" id="Shape"></path>
        </g>
    </g>
</svg>