<?xml version="1.0" encoding="UTF-8" standalone="no"?>
<svg width="466px" height="511px" viewBox="0 0 466 511" version="1.1" xmlns="http://www.w3.org/2000/svg" xmlns:xlink="http://www.w3.org/1999/xlink">
    <!-- Generator: Sketch 3.8.3 (29802) - http://www.bohemiancoding.com/sketch -->
    <title>icon-calendar-line</title>
    <desc>Created with Sketch.</desc>
    <defs></defs>
    <g id="Page-1" stroke="none" stroke-width="1" fill="none" fill-rule="evenodd">
        <g id="icon-calendar-line" fill="#000000">
            <path d="M414,46 L391,46 L391,34 C391,22 386,0 354,0 C322,0 317,22 317,34 L317,46 L270,46 L270,34 C270,22 265,0 233,0 C202,0 197,22 197,34 L197,46 L149,46 L149,34 C149,22 144,0 112,0 C81,0 76,22 76,34 L76,46 L52,46 C23,46 0,69 0,98 L0,459 C0,488 24,511 52,511 L414,511 C442,511 466,488 466,459 L466,98 C466,70 444,47 414,46 L414,46 Z M349,34 L349,32 C350,31 357,31 359,32 L359,34 L359,107 L359,109 C358,110 351,110 349,109 L349,107 L349,34 Z M228,34 L228,32 C230,31 237,31 238,32 C238,32 239,33 239,34 L239,107 L239,109 C237,110 230,110 228,109 L228,107 L228,34 Z M107,34 L107,32 C109,31 116,31 118,32 L118,34 L118,107 L118,109 C116,110 109,110 107,109 L107,107 L107,34 Z M435,460 C435,471 425,481 414,481 L52,481 C40,481 31,471 31,460 L31,98 C31,86 40,77 52,77 L76,77 L76,107 C76,120 81,141 113,141 C144,141 149,120 149,107 L149,77 L197,77 L197,107 C197,120 202,141 233,141 C265,141 270,120 270,107 L270,77 L318,77 L318,107 C318,120 323,141 354,141 C386,141 391,120 391,107 L391,77 L415,77 C426,77 435,87 435,98 L435,460 L435,460 Z M371,172 L96,172 C79,172 66,185 66,202 L66,416 C66,433 79,446 96,446 L371,446 C387,446 400,433 400,416 L400,202 C400,185 387,172 371,172 L371,172 Z M369,295 L249,295 L249,203 L369,203 L369,295 Z M217,203 L217,295 L97,295 L97,203 L217,203 Z M97,326 L217,326 L217,415 L97,415 L97,326 Z M249,415 L249,326 L369,326 L369,415 L249,415 Z" id="Shape"></path>
        </g>
    </g>
</svg>