<?xml version="1.0" encoding="UTF-8" standalone="no"?>
<svg width="448px" height="448px" viewBox="0 0 448 448" version="1.1" xmlns="http://www.w3.org/2000/svg" xmlns:xlink="http://www.w3.org/1999/xlink">
    <!-- Generator: Sketch 3.8.3 (29802) - http://www.bohemiancoding.com/sketch -->
    <title>icon-budicon-1</title>
    <desc>Created with Sketch.</desc>
    <defs></defs>
    <g id="Page-1" stroke="none" stroke-width="1" fill="none" fill-rule="evenodd">
        <g id="icon-budicon-1" fill="#000000">
            <path d="M112,360 L112,359 L110,361 C110,361 111,360 112,360 L112,360 Z M414,33 C375,-7 309,-19 243,47 C197,93 169,161 171,210 L109,271 C85,246 44,246 19,271 C-6,296 -6,337 19,362 C33,376 51,381 69,380 C68,398 73,415 87,429 C112,454 152,454 177,429 C202,405 202,364 177,339 L239,277 C289,278 356,251 402,205 C467,139 454,73 414,33 L414,33 Z M148,323 L128,343 L128,353 C129,353 131,352 132,352 C150,352 164,366 164,384 C164,402 150,416 132,416 C115,416 100,402 100,384 C100,375 104,367 109,362 L87,339 L93,333 L92,332 C86,341 76,348 64,348 C46,348 32,334 32,316 C32,298 46,284 64,284 C82,284 97,298 97,316 C97,317 95,319 95,320 L106,320 L132,294 L179,247 C182,251 185,256 188,259 C192,263 197,266 202,269 L148,323 Z M376,186 C322,240 239,265 211,237 C182,208 209,127 262,73 C316,19 363,27 392,56 C421,84 429,132 376,186 L376,186 Z" id="Shape"></path>
        </g>
    </g>
</svg>