<?xml version="1.0" encoding="UTF-8" standalone="no"?>
<svg width="512px" height="512px" viewBox="0 0 512 512" version="1.1" xmlns="http://www.w3.org/2000/svg" xmlns:xlink="http://www.w3.org/1999/xlink">
    <!-- Generator: Sketch 3.8.3 (29802) - http://www.bohemiancoding.com/sketch -->
    <title>icon-add-circle</title>
    <desc>Created with Sketch.</desc>
    <defs></defs>
    <g id="Page-1" stroke="none" stroke-width="1" fill="none" fill-rule="evenodd">
        <g id="icon-add-circle" fill="#000000">
            <path d="M273,239 L273,127 C273,118 265,110 256,110 C246,110 239,118 239,127 L239,239 L127,239 C118,239 110,246 110,256 C110,265 118,273 127,273 L239,273 L239,384 C239,394 246,401 256,401 C260,401 265,400 268,396 C271,393 273,389 273,384 L273,273 L384,273 C389,273 393,271 396,268 C399,264 401,260 401,256 C401,246 394,239 384,239 L273,239 Z M97,97 C139,54 196,31 256,31 C380,31 480,132 480,256 C480,316 457,372 414,415 C372,458 316,480 256,480 C196,480 139,457 97,414 C54,372 31,316 31,255 C31,196 54,139 97,97 L97,97 Z M75,75 C29,121 0,185 0,256 C0,397 115,512 256,512 C326,512 391,483 437,437 C483,391 512,326 512,256 C512,115 397,0 256,0 C185,0 121,29 75,75 L75,75 Z" id="Shape"></path>
        </g>
    </g>
</svg>