<?xml version="1.0" encoding="UTF-8" standalone="no"?>
<svg width="513px" height="447px" viewBox="0 0 513 447" version="1.1" xmlns="http://www.w3.org/2000/svg" xmlns:xlink="http://www.w3.org/1999/xlink">
    <!-- Generator: Sketch 3.8.3 (29802) - http://www.bohemiancoding.com/sketch -->
    <title>icon-refresh</title>
    <desc>Created with Sketch.</desc>
    <defs></defs>
    <g id="Page-1" stroke="none" stroke-width="1" fill="none" fill-rule="evenodd">
        <g id="icon-refresh" fill="#000000">
            <path d="M506,151 C499,146 489,147 484,155 L448,205 C444,159 426,115 396,80 C355,32 296,3 233,1 C109,-4 6,93 1,216 C-1,275 20,332 61,376 C101,419 157,445 216,447 L225,447 C311,447 390,397 427,318 C431,310 427,300 419,297 C411,293 402,296 398,304 C365,374 294,418 217,415 C166,413 119,392 84,354 C49,317 31,268 33,217 C37,111 126,29 232,33 C286,35 337,59 372,101 C399,132 414,170 417,212 L371,154 C366,147 356,145 349,151 C342,156 341,166 346,174 L419,266 C422,270 427,272 432,272 L432,272 C437,272 442,270 445,266 L510,173 C515,166 513,156 506,151 L506,151 Z" id="Shape"></path>
        </g>
    </g>
</svg>