<?xml version="1.0" encoding="UTF-8" standalone="no"?>
<svg width="512px" height="512px" viewBox="0 0 512 512" version="1.1" xmlns="http://www.w3.org/2000/svg" xmlns:xlink="http://www.w3.org/1999/xlink">
    <!-- Generator: Sketch 3.8.3 (29802) - http://www.bohemiancoding.com/sketch -->
    <title>icon-collections</title>
    <desc>Created with Sketch.</desc>
    <defs></defs>
    <g id="Page-1" stroke="none" stroke-width="1" fill="none" fill-rule="evenodd">
        <g id="icon-collections" fill="#000000">
            <path d="M0,512 L0,123 L512,123 L512,512 L0,512 Z M491,144 L21,144 L21,490 L491,490 L491,144 Z M152,260 L210,260 L228,204 C232,192 243,184 256,184 C269,184 280,192 283,204 L301,260 L360,260 C372,260 383,268 387,280 C391,292 387,305 377,313 L330,347 L348,402 C351,414 347,428 337,435 C332,439 326,441 320,441 C314,441 308,439 303,435 L256,401 L209,435 C199,442 185,442 175,435 C164,428 160,414 164,402 L182,347 L135,312 C125,305 120,292 124,280 C128,268 139,260 152,260 L152,260 Z M147,295 L207,338 L184,409 C183,412 184,415 187,417 C190,419 194,419 196,417 L256,374 L315,417 C318,419 322,419 325,417 C327,415 328,412 327,409 L305,338 L364,295 C367,293 368,290 367,286 C366,283 363,281 360,281 L286,281 L263,211 C262,208 259,206 256,206 C252,206 249,208 248,211 L226,281 L152,281 C148,281 145,283 144,286 C143,290 144,293 147,295 L147,295 Z M113,52 L399,52 L399,73 L113,73 L113,52 Z M174,0 L338,0 L338,21 L174,21 L174,0 Z" id="Shape"></path>
        </g>
    </g>
</svg>