<?xml version="1.0" encoding="UTF-8" standalone="no"?>
<svg width="512px" height="512px" viewBox="0 0 512 512" version="1.1" xmlns="http://www.w3.org/2000/svg" xmlns:xlink="http://www.w3.org/1999/xlink">
    <!-- Generator: Sketch 3.8.3 (29802) - http://www.bohemiancoding.com/sketch -->
    <title>icon-write-semantic</title>
    <desc>Created with Sketch.</desc>
    <defs></defs>
    <g id="Page-1" stroke="none" stroke-width="1" fill="none" fill-rule="evenodd">
        <g id="icon-write-semantic" fill="#000000">
            <g id="Page-1">
                <g id="icon-write-semantic">
                    <path d="M122.677228,468.741914 L153.431023,437.988119 L74.0118812,358.568977 L43.2580858,389.322772 L43.2580858,425.483828 L86.5161716,425.483828 L86.5161716,468.741914 L122.677228,468.741914 L122.677228,468.741914 L122.677228,468.741914 Z M299.427063,155.120792 C299.427063,150.164136 296.948735,147.685809 291.992079,147.685809 C289.739054,147.685809 287.823983,148.474367 286.246865,150.051485 L103.075908,333.222442 C101.49879,334.79956 100.710231,336.714631 100.710231,338.967657 C100.710231,343.924314 103.188559,346.40264 108.145215,346.40264 C110.39824,346.40264 112.313311,345.614083 113.890429,344.036964 L297.061386,160.866007 C298.638504,159.288889 299.427063,157.373817 299.427063,155.120792 L299.427063,155.120792 L299.427063,155.120792 Z M281.177558,90.2336634 L421.766337,230.822442 L140.588779,512 L0,512 L0,371.411221 L281.177558,90.2336634 L281.177558,90.2336634 Z M512,122.677228 C512,134.618262 507.831904,144.756876 499.49571,153.093069 L443.39538,209.193399 L302.806601,68.6046205 L358.906931,12.8422442 C367.017822,4.28074809 377.156436,0 389.322772,0 C401.263805,0 411.515073,4.28074809 420.076568,12.8422442 L499.49571,91.9234323 C507.831904,100.710231 512,110.961496 512,122.677228 L512,122.677228 L512,122.677228 Z"></path>
                </g>
            </g>
        </g>
    </g>
</svg>