<?xml version="1.0" encoding="UTF-8" standalone="no"?>
<svg width="490px" height="512px" viewBox="0 0 490 512" version="1.1" xmlns="http://www.w3.org/2000/svg" xmlns:xlink="http://www.w3.org/1999/xlink">
    <!-- Generator: Sketch 3.8.3 (29802) - http://www.bohemiancoding.com/sketch -->
    <title>icon-bakery-fill</title>
    <desc>Created with Sketch.</desc>
    <defs></defs>
    <g id="Page-1" stroke="none" stroke-width="1" fill="none" fill-rule="evenodd">
        <g id="icon-bakery-fill" fill="#000000">
            <path d="M389,100 C367,40 309,0 245,0 C180,0 123,40 100,100 C44,100 0,146 0,201 C0,247 30,285 71,298 L105,468 C105,472 108,476 112,478 C114,479 166,510 242,512 L243,512 L245,512 L247,512 L247,512 C273,511 295,508 314,503 L315,503 L316,503 C319,503 321,502 323,501 C357,491 377,479 378,478 C382,476 384,473 385,468 L420,298 C460,284 490,246 490,201 C490,146 445,100 389,100 L389,100 Z M269,93 L296,72 C302,67 312,68 317,74 C322,81 321,91 315,96 L288,117 C285,120 282,121 279,121 C274,121 270,119 267,115 C261,108 262,99 269,93 L269,93 Z M233,184 L258,201 C265,205 267,215 263,222 C260,227 255,229 250,229 C247,229 244,228 241,226 L217,210 C209,205 208,196 212,189 C217,181 226,180 233,184 L233,184 Z M169,111 L194,90 C200,85 210,85 215,92 C221,99 220,108 214,113 L189,135 C186,137 182,138 179,138 C174,138 170,136 167,133 C161,126 162,117 169,111 L169,111 Z M82,221 C73,221 66,214 66,206 C66,198 73,190 81,190 L115,189 C124,189 131,195 131,204 C131,212 125,219 116,220 L82,221 L82,221 L82,221 Z M194,475 L163,467 C164,425 160,401 150,360 C149,351 154,343 162,341 C170,339 179,345 180,353 C191,399 195,428 194,475 L194,475 Z M262,480 L231,480 L231,356 C231,348 238,341 247,341 C255,341 262,348 262,356 L262,480 Z M342,359 C334,404 329,428 330,466 L299,475 C298,432 302,403 312,353 C314,345 322,340 330,341 C338,343 344,351 342,359 L342,359 Z M387,311 L387,311 C361,311 336,302 316,285 C297,302 271,312 244,312 C218,312 192,302 172,285 C153,302 129,311 103,311 L103,311 C98,311 94,307 94,303 C94,298 98,294 103,293 C126,293 149,283 166,266 C168,264 170,263 172,263 C175,263 177,264 179,266 C196,284 220,294 244,294 C269,294 293,284 310,266 C312,264 314,263 316,263 C319,263 321,264 323,266 C340,283 363,293 387,293 C392,293 396,297 396,302 C396,307 392,311 387,311 L387,311 Z M407,174 L390,198 C387,202 382,204 378,204 C374,204 371,203 369,201 C362,196 360,187 365,180 L382,156 C387,149 396,147 404,152 C411,157 412,167 407,174 L407,174 Z" id="Shape"></path>
        </g>
    </g>
</svg>