<?xml version="1.0" encoding="UTF-8" standalone="no"?>
<svg width="423px" height="512px" viewBox="0 0 423 512" version="1.1" xmlns="http://www.w3.org/2000/svg" xmlns:xlink="http://www.w3.org/1999/xlink">
    <!-- Generator: Sketch 3.8.3 (29802) - http://www.bohemiancoding.com/sketch -->
    <title>icon-cafe-fill</title>
    <desc>Created with Sketch.</desc>
    <defs></defs>
    <g id="Page-1" stroke="none" stroke-width="1" fill="none" fill-rule="evenodd">
        <g id="icon-cafe-fill" fill="#000000">
            <path d="M41,185 L73,497 C74,506 81,512 90,512 L338,512 C347,512 354,506 355,500 L388,185 L41,185 Z M395,154 L407,154 C416,154 423,147 423,138 L423,82 C423,73 416,66 407,66 L389,66 L350,7 C347,3 341,0 336,0 L87,0 C81,0 76,3 73,7 L34,66 L16,66 C7,66 0,73 0,82 L0,138 C0,147 7,154 16,154 L28,154 L395,154 Z M84,300 L341,300 L333,394 L95,394 L84,300 Z" id="Shape"></path>
        </g>
    </g>
</svg>