<?xml version="1.0" encoding="UTF-8" standalone="no"?>
<svg width="429px" height="512px" viewBox="0 0 429 512" version="1.1" xmlns="http://www.w3.org/2000/svg" xmlns:xlink="http://www.w3.org/1999/xlink">
    <!-- Generator: Sketch 3.8.3 (29802) - http://www.bohemiancoding.com/sketch -->
    <title>icon-booking-1</title>
    <desc>Created with Sketch.</desc>
    <defs></defs>
    <g id="Page-1" stroke="none" stroke-width="1" fill="none" fill-rule="evenodd">
        <g id="icon-booking-1" fill="#000000">
            <path d="M114,304 C116,304 118,304 121,303 C129,299 132,291 129,283 C121,263 116,236 114,213 L316,213 C314,236 309,263 301,283 C297,291 301,299 309,303 C317,306 325,303 329,294 C342,263 347,223 347,196 C347,188 340,182 332,182 L99,182 C91,182 85,188 85,196 C85,221 89,263 103,294 C103,301 108,304 114,304 L114,304 Z M414,316 L15,316 C7,316 0,323 0,331 C0,339 7,346 15,346 L128,346 L151,512 L278,512 L301,346 L414,346 C422,346 429,339 429,331 C429,323 422,316 414,316 L414,316 Z M251,482 L178,482 L158,346 L269,346 L251,482 Z M214,179 C264,179 304,140 304,90 C304,40 264,0 214,0 C164,0 124,40 124,90 C124,140 164,179 214,179 L214,179 Z M214,30 C247,30 274,57 274,90 C274,123 247,150 214,150 C181,150 154,123 154,90 C154,57 181,30 214,30 L214,30 Z M260,246 C257,238 248,234 240,237 L216,246 L192,237 C184,233 175,238 172,245 C170,251 172,258 176,262 C172,266 170,273 172,279 C175,285 181,289 187,289 C189,289 190,289 192,288 L216,279 L240,288 C242,289 244,289 246,289 C252,289 258,285 260,279 C262,273 260,266 256,262 C260,258 262,251 260,246 L260,246 Z" id="Shape"></path>
        </g>
    </g>
</svg>