<?xml version="1.0" encoding="UTF-8" standalone="no"?>
<svg width="458px" height="512px" viewBox="0 0 458 512" version="1.1" xmlns="http://www.w3.org/2000/svg" xmlns:xlink="http://www.w3.org/1999/xlink">
    <!-- Generator: Sketch 3.8.3 (29802) - http://www.bohemiancoding.com/sketch -->
    <title>icon-about-rocket</title>
    <desc>Created with Sketch.</desc>
    <defs></defs>
    <g id="Page-1" stroke="none" stroke-width="1" fill="none" fill-rule="evenodd">
        <g id="icon-about-rocket" fill="#000000">
            <path d="M226,512 C205,512 184,508 165,499 C154,494 147,483 147,472 L147,453 C122,459 79,481 47,501 C37,507 25,507 16,501 C6,496 1.77635684e-15,485 1,473 C8,372 67,303 92,279 C101,129 203,12 205,10 C210,4 217,1 225,0 L228,0 C236,0 244,4 249,10 C253,14 350,124 361,273 C380,291 449,362 458,473 C458,486 452,496 444,501 C435,506 423,506 413,501 C382,482 332,455 307,451 L307,472 C307,483 301,493 291,498 C284,502 259,512 226,512 L226,512 Z M179,471 C194,477 209,480 226,480 C253,480 272,472 276,471 L276,429 L285,424 C288,423 291,422 294,420 L318,421 C356,429 412,462 427,472 C419,387 370,327 348,304 L331,283 C323,150 240,48 227,33 C214,49 129,157 123,286 L123,293 L118,297 C100,314 41,377 33,473 C50,462 117,422 155,420 L160,420 L164,422 C165,423 166,423 167,423 C168,424 170,425 171,426 L179,431 L179,471 Z M227,349 C191,349 162,319 162,284 C162,248 191,219 227,219 C263,219 292,248 292,284 C292,319 263,349 227,349 L227,349 Z M227,251 C209,251 194,265 194,284 C194,302 208,317 227,317 C245,317 260,302 260,284 C260,265 245,251 227,251 L227,251 Z" id="Shape"></path>
        </g>
    </g>
</svg>