<?xml version="1.0" encoding="UTF-8" standalone="no"?>
<svg width="440px" height="512px" viewBox="0 0 440 512" version="1.1" xmlns="http://www.w3.org/2000/svg" xmlns:xlink="http://www.w3.org/1999/xlink">
    <!-- Generator: Sketch 3.8.3 (29802) - http://www.bohemiancoding.com/sketch -->
    <title>icon-apple-icon</title>
    <desc>Created with Sketch.</desc>
    <defs></defs>
    <g id="Page-1" stroke="none" stroke-width="1" fill="none" fill-rule="evenodd">
        <g id="icon-apple-icon" fill="#000000">
            <path d="M440,376 C427,402 422,414 406,438 C385,471 355,511 317,512 C283,512 275,490 229,490 C184,490 175,512 141,512 C103,511 74,474 53,442 C-7,349 -14,242 24,184 C50,144 92,120 131,120 C171,120 196,142 229,142 C261,142 281,120 327,120 C362,120 399,139 425,172 C338,219 352,343 440,376 L440,376 Z M213,123 C207,93 221,63 238,42 C257,19 289,2 316,0 C321,31 308,61 292,83 C274,106 243,124 213,123 L213,123 Z" id="Shape"></path>
        </g>
    </g>
</svg>