<?xml version="1.0" encoding="UTF-8" standalone="no"?>
<svg width="512px" height="497px" viewBox="0 0 512 497" version="1.1" xmlns="http://www.w3.org/2000/svg" xmlns:xlink="http://www.w3.org/1999/xlink">
    <!-- Generator: Sketch 3.8.3 (29802) - http://www.bohemiancoding.com/sketch -->
    <title>icon-diner-fill</title>
    <desc>Created with Sketch.</desc>
    <defs></defs>
    <g id="Page-1" stroke="none" stroke-width="1" fill="none" fill-rule="evenodd">
        <g id="icon-diner-fill" fill="#000000">
            <path d="M130,378 L91,378 L80,254 C78,231 59,215 36,215 L14,215 C6,215 0,221 0,228 L0,482 C0,490 6,496 14,496 L175,496 C183,496 189,490 189,482 L189,437 C189,404 163,378 130,378 L130,378 Z M498,212 L477,212 C454,212 436,228 433,251 L423,380 L389,380 C357,380 331,406 331,438 L331,482 C331,490 337,496 345,496 L498,496 C505,496 511,490 511,482 L511,226 C512,218 506,212 498,212 L498,212 Z M279,474 L279,333 L374,333 C378,333 381,330 381,326 L381,305 C381,301 378,298 374,298 L147,298 C143,298 139,301 139,305 L139,326 C139,330 143,333 147,333 L241,333 L241,474 L216,485 C214,487 214,490 215,493 C217,495 219,497 222,497 L297,497 C301,497 304,493 304,489 C304,487 304,485 302,484 L279,474 Z M21,187 L336,187 C345,187 351,180 351,172 L351,15 C351,6 345,0 336,0 L21,0 C13,0 6,6 6,15 L6,172 C6,180 13,187 21,187 L21,187 Z M38,29 L318,29 L318,155 L38,155 L38,29 Z M392,134 L497,134 C505,134 512,128 512,119 L512,15 C512,6 505,0 497,0 L392,0 C384,0 377,6 377,15 L377,119 C377,128 384,134 392,134 L392,134 Z" id="Shape"></path>
        </g>
    </g>
</svg>