<?xml version="1.0" encoding="UTF-8" standalone="no"?>
<svg width="502px" height="286px" viewBox="0 0 502 286" version="1.1" xmlns="http://www.w3.org/2000/svg" xmlns:xlink="http://www.w3.org/1999/xlink">
    <!-- Generator: Sketch 3.8.3 (29802) - http://www.bohemiancoding.com/sketch -->
    <title>icon-italian-02</title>
    <desc>Created with Sketch.</desc>
    <defs></defs>
    <g id="Page-1" stroke="none" stroke-width="1" fill="none" fill-rule="evenodd">
        <g id="icon-italian-02" fill="#000000">
            <path d="M474,113 L464,113 C458,88 435,10 376,2 C320,-6 260,24 243,33 C201,11 149,17 113,49 L42,113 L28,113 C13,113 0,125 0,141 C0,156 12,169 28,169 L36,169 L55,202 C106,286 173,286 251,286 C330,286 405,286 447,202 L466,169 L474,169 C489,169 502,156 502,141 C502,125 489,113 474,113 L474,113 Z M374,19 C418,25 439,87 445,113 L429,113 C428,112 427,112 427,112 C425,82 410,55 385,40 C360,24 329,23 301,38 L271,54 C268,50 264,47 260,44 C283,33 331,13 374,19 L374,19 Z M397,113 L393,111 C391,99 381,68 350,61 C326,55 309,66 301,76 C296,74 290,70 285,66 L309,54 C332,42 356,43 376,55 C395,67 407,88 408,113 L397,113 Z M348,93 C340,89 332,87 324,85 L322,85 C321,84 320,84 319,84 C324,79 333,75 346,78 C360,81 367,92 372,102 L348,93 Z M125,62 C159,32 211,29 248,57 C252,60 256,64 260,68 C261,69 262,70 263,70 C263,71 264,71 264,72 C275,82 287,91 301,96 L301,96 L301,96 C306,99 312,100 317,102 L320,103 C328,104 335,106 341,109 L350,113 L340,113 C301,113 265,98 237,71 C207,42 160,42 131,71 L88,113 L69,113 L125,62 Z M233,113 L223,100 C213,88 199,81 183,81 L183,81 C167,81 153,88 143,101 L134,113 L114,113 L143,84 C166,62 201,62 224,84 C236,95 250,105 265,113 L233,113 Z M210,113 L157,113 L157,112 C163,104 173,99 183,99 C193,99 203,104 209,111 L210,113 Z M18,141 C18,135 22,130 28,130 L124,130 C121,136 119,143 117,151 L28,151 C22,151 18,146 18,141 L18,141 Z M432,193 C394,268 328,268 251,268 C173,268 116,268 70,193 L57,169 L113,169 C112,181 113,193 118,204 C135,239 200,243 202,243 L203,243 C207,243 211,239 212,234 C212,229 208,225 203,225 C188,224 145,217 134,196 C131,188 130,178 131,169 L445,169 L432,193 Z M474,151 L135,151 C138,143 141,135 143,130 L474,130 C480,130 484,135 484,141 C484,146 480,151 474,151 L474,151 Z" id="Shape"></path>
        </g>
    </g>
</svg>