<?xml version="1.0" encoding="UTF-8" standalone="no"?>
<svg width="382px" height="436px" viewBox="0 0 382 436" version="1.1" xmlns="http://www.w3.org/2000/svg" xmlns:xlink="http://www.w3.org/1999/xlink">
    <!-- Generator: Sketch 3.8.3 (29802) - http://www.bohemiancoding.com/sketch -->
    <title>icon-malaysia-new-curved-artboard-2-copy-17</title>
    <desc>Created with Sketch.</desc>
    <defs></defs>
    <g id="Page-1" stroke="none" stroke-width="1" fill="none" fill-rule="evenodd">
        <g id="icon-malaysia-new-curved-artboard-2-copy-17" fill="#000000">
            <path d="M382,147 L382,146 L382,142 L351,7 C350,3 346,0 342,0 L38,0 C34,0 30,3 29,8 L0,142 L0,146 L0,147 C0,173 14,195 35,207 C35,208 34,208 34,208 L34,427 C34,432 38,436 43,436 L339,436 C344,436 348,432 348,427 L348,208 C348,208 347,208 347,207 C368,195 382,173 382,147 L382,147 Z M330,370 L52,370 L52,344 L330,344 L330,370 Z M52,418 L52,388 L330,388 L330,418 L52,418 Z M330,326 L52,326 L52,215 C58,216 63,217 69,217 C96,217 118,202 130,181 C142,202 165,217 191,217 C217,217 240,202 252,181 C264,202 286,217 313,217 C319,217 324,216 330,215 L330,326 Z M313,199 C284,199 261,176 261,147 C261,142 257,138 252,138 C247,138 243,142 243,147 C243,176 220,199 191,199 C162,199 139,176 139,147 C139,142 135,138 130,138 C125,138 121,142 121,147 C121,176 98,199 69,199 C41,199 18,176 18,147 L17,146 L17,146 L45,18 L335,18 L365,146 L365,146 L364,147 C364,176 341,199 313,199 L313,199 Z" id="Shape"></path>
        </g>
    </g>
</svg>