<?xml version="1.0" encoding="UTF-8" standalone="no"?>
<svg width="503px" height="427px" viewBox="0 0 503 427" version="1.1" xmlns="http://www.w3.org/2000/svg" xmlns:xlink="http://www.w3.org/1999/xlink">
    <!-- Generator: Sketch 3.8.3 (29802) - http://www.bohemiancoding.com/sketch -->
    <title>icon-review-fill-1</title>
    <desc>Created with Sketch.</desc>
    <defs></defs>
    <g id="Page-1" stroke="none" stroke-width="1" fill="none" fill-rule="evenodd">
        <g id="icon-review-fill-1" fill="#000000">
            <path d="M52,106 L222,11 C254,-6 297,-2 325,23 L500,181 C505,186 502,194 495,194 L336,195 C326,165 299,146 269,146 C232,146 201,176 201,213 C201,250 232,280 269,280 C301,280 328,254 336,225 L494,224 C501,224 505,233 500,237 L326,403 C299,429 258,434 225,416 L51,322 L51,330 C51,344 40,356 26,356 C11,356 1,344 1,330 L0,99 C0,85 12,73 27,73 C41,73 52,84 52,99 L52,106 Z M240,213 C240,228 253,241 269,241 C285,241 298,228 298,213 C298,197 285,185 269,185 C253,185 240,197 240,213 L240,213 Z" id="Shape"></path>
        </g>
    </g>
</svg>