<?xml version="1.0" encoding="UTF-8" standalone="no"?>
<svg width="512px" height="513px" viewBox="0 0 512 513" version="1.1" xmlns="http://www.w3.org/2000/svg" xmlns:xlink="http://www.w3.org/1999/xlink">
    <!-- Generator: Sketch 3.8.3 (29802) - http://www.bohemiancoding.com/sketch -->
    <title>icon-free-meals</title>
    <desc>Created with Sketch.</desc>
    <defs></defs>
    <g id="Page-1" stroke="none" stroke-width="1" fill="none" fill-rule="evenodd">
        <g id="icon-free-meals" fill="#000000">
            <path d="M427,513 L256,513 C224,513 191,505 159,490 L104,462 L115,440 L170,468 C198,482 228,489 256,489 L426,489 C447,489 463,472 463,452 L463,451 L487,256 C487,237 471,220 451,220 L317,220 L317,135 C317,99 294,46 262,27 C256,24 252,26 250,27 C246,29 243,33 243,37 L243,139 L119,288 L100,272 L219,131 L219,38 C219,25 226,13 238,6 C250,-1 263,-1 274,6 C316,30 341,92 341,135 L341,196 L451,196 C485,196 512,223 512,257 L512,258 L488,453 C487,486 460,513 427,513 L427,513 Z M122,512 L0,512 L0,219 L122,219 L122,512 Z M24,487 L98,487 L98,243 L24,243 L24,487 Z" id="Shape"></path>
        </g>
    </g>
</svg>