<?xml version="1.0" encoding="UTF-8" standalone="no"?>
<svg width="514px" height="512px" viewBox="0 0 514 512" version="1.1" xmlns="http://www.w3.org/2000/svg" xmlns:xlink="http://www.w3.org/1999/xlink">
    <!-- Generator: Sketch 3.8.3 (29802) - http://www.bohemiancoding.com/sketch -->
    <title>icon-cross-thick</title>
    <desc>Created with Sketch.</desc>
    <defs></defs>
    <g id="Page-1" stroke="none" stroke-width="1" fill="none" fill-rule="evenodd">
        <g id="icon-cross-thick" fill="#000000">
            <path d="M298,256 L505,49 C516,38 516,20 505,9 L505,8 C499,3 492,0 484,0 C476,0 469,3 464,8 L257,215 L50,9 C45,3 38,0 30,0 C22,0 15,3 9,8 L9,9 C-2,20 -2,38 9,49 L216,256 L10,463 C-1,474 -2,492 9,503 L10,504 C15,509 23,512 30,512 C38,512 46,509 51,504 L257,297 L464,504 C469,509 476,512 484,512 C492,512 499,509 505,504 C515,493 515,474 505,463 L298,256 Z" id="Shape"></path>
        </g>
    </g>
</svg>