<?xml version="1.0" encoding="UTF-8" standalone="no"?>
<svg width="512px" height="450px" viewBox="0 0 512 450" version="1.1" xmlns="http://www.w3.org/2000/svg" xmlns:xlink="http://www.w3.org/1999/xlink">
    <!-- Generator: Sketch 3.8.3 (29802) - http://www.bohemiancoding.com/sketch -->
    <title>icon-followed-1</title>
    <desc>Created with Sketch.</desc>
    <defs></defs>
    <g id="Page-1" stroke="none" stroke-width="1" fill="none" fill-rule="evenodd">
        <g id="icon-followed-1" fill="#000000">
            <path d="M502,264 C490,255 473,257 464,269 L384,375 L344,340 C333,329 317,330 307,341 C296,351 297,368 308,378 L371,436 C382,446 398,445 406,434 L507,301 C515,289 513,272 502,264 L502,264 Z M276,267 L276,233 C286,224 303,205 306,168 C309,165 312,162 314,157 C318,151 319,143 319,135 C319,122 316,112 310,105 C315,91 323,68 317,44 C309,12 265,0 230,0 C200,0 164,8 149,30 C135,30 127,36 122,41 C106,58 113,87 118,105 C116,108 114,110 113,113 C109,119 108,127 108,135 C108,150 113,161 121,168 C124,207 145,231 157,242 L157,266 C144,271 131,275 118,279 C64,297 21,311 12,339 C1,372 0,432 0,434 C0,438 2,442 5,445 C8,448 12,450 16,450 L311,450 L311,418 L32,418 C34,397 36,367 42,349 C46,336 95,320 127,309 C144,304 162,298 178,292 C185,290 189,284 189,277 L189,234 C189,228 186,223 182,220 C182,220 153,200 153,157 C153,150 148,143 141,142 C140,138 140,132 141,129 C144,128 146,127 148,125 C151,122 153,118 153,113 C153,110 152,107 150,101 C142,72 144,65 146,63 C146,63 149,62 156,64 C164,65 172,60 175,52 C177,43 199,33 230,33 C262,33 283,43 286,52 C290,68 282,88 278,98 C276,104 274,108 274,112 C274,120 279,126 286,128 C288,131 288,138 286,142 C279,144 274,150 274,157 C274,198 253,211 253,211 C247,213 244,219 244,225 L244,277 C244,284 248,290 254,292 C256,293 258,294 261,294 C268,297 275,292 275,285 L276,267 Z" id="Shape"></path>
        </g>
    </g>
</svg>