<?xml version="1.0" encoding="utf-8"?>
<!-- Generator: Adobe Illustrator 18.1.1, SVG Export Plug-In . SVG Version: 6.00 Build 0)  -->
<!DOCTYPE svg PUBLIC "-//W3C//DTD SVG 1.1//EN" "http://www.w3.org/Graphics/SVG/1.1/DTD/svg11.dtd">
<svg version="1.1" id="Layer_1" xmlns="http://www.w3.org/2000/svg" xmlns:xlink="http://www.w3.org/1999/xlink" x="0px" y="0px"
	 viewBox="-214 73.3 413 450" enable-background="new -214 73.3 413 450" xml:space="preserve">
<title>open in app</title>
<desc>Created with Sketch.</desc>
<g>
	<path d="M68.6,298.3c-12.9,0-23.3,10.4-23.3,23.3v51.7h-212.8V141.8c0-12.1,10.5-21.9,23.4-21.9H22.6c12.5,0,22.7,9.5,22.7,21.3
		v25.3c0,12.9,10.4,23.3,23.3,23.3s23.3-10.4,23.3-23.3v-25.3c0-37.4-31.1-67.8-69.3-67.8H-144c-38.6,0-70,30.7-70,68.5v316.9
		c0,35.6,29.6,64.6,65.9,64.6H25.8c36.5,0,66.1-29.1,66.1-64.8v-137C91.9,308.7,81.5,298.3,68.6,298.3z M45.3,458.5
		c0,9.9-9,18.2-19.6,18.2h-173.9c-10.7,0-19.4-8.1-19.4-18.1v-45.5H45.3V458.5z"/>
	<path d="M191.7,225.6l-40.3-41.4c-6.4-6.6-16.9-6.7-23.4-0.3c-6.6,6.4-6.7,16.9-0.3,23.5l15.2,15.6h-148c-8.6,0-15.5,8.9-15.5,19.9
		c0,11,7,19.9,15.5,19.9H141l-14.4,14.5c-6.5,6.5-6.5,17,0,23.4c3.2,3.2,7.5,4.8,11.7,4.8c4.3,0,8.5-1.6,11.7-4.9l41.5-41.6
		C200.8,249.8,200.8,234.7,191.7,225.6z M161,242.8c0-0.4,0-0.8,0-1.2l0.6,0.6L161,242.8z"/>
</g>
</svg>
