<?xml version="1.0" encoding="UTF-8" standalone="no"?>
<svg width="512px" height="512px" viewBox="0 0 512 512" version="1.1" xmlns="http://www.w3.org/2000/svg" xmlns:xlink="http://www.w3.org/1999/xlink">
    <!-- Generator: Sketch 3.8.3 (29802) - http://www.bohemiancoding.com/sketch -->
    <title>icon-current-location</title>
    <desc>Created with Sketch.</desc>
    <defs></defs>
    <g id="Page-1" stroke="none" stroke-width="1" fill="none" fill-rule="evenodd">
        <g id="icon-current-location" fill="#000000">
            <path d="M256,0 C115,0 0,115 0,256 C0,397 115,512 256,512 C397,512 512,397 512,256 C512,115 397,0 256,0 L256,0 Z M277,470 L277,375 C277,363 268,354 256,354 C244,354 235,363 235,375 L235,470 C133,460 52,379 42,277 L137,277 C149,277 158,268 158,256 C158,244 149,235 137,235 L42,235 C52,133 134,52 235,42 L235,126 C235,138 244,147 256,147 C268,147 277,138 277,126 L277,42 C379,52 460,134 470,235 L386,235 C374,235 365,244 365,256 C365,268 374,277 386,277 L470,277 C460,379 379,460 277,470 L277,470 Z" id="Shape"></path>
        </g>
    </g>
</svg>