<?xml version="1.0" encoding="UTF-8" standalone="no"?>
<svg width="512px" height="390px" viewBox="0 0 512 390" version="1.1" xmlns="http://www.w3.org/2000/svg" xmlns:xlink="http://www.w3.org/1999/xlink">
    <!-- Generator: Sketch 3.8.3 (29802) - http://www.bohemiancoding.com/sketch -->
    <title>icon-empty-photo</title>
    <desc>Created with Sketch.</desc>
    <defs></defs>
    <g id="Page-1" stroke="none" stroke-width="1" fill="none" fill-rule="evenodd">
        <g id="icon-empty-photo" fill="#000000">
            <path d="M512,363 C512,351 503,340 491,338 L490,89 C502,87 512,76 512,64 L512,63 C512,49 500,38 486,38 L431,38 L431,15 C431,7 424,0 414,0 L343,1 C333,1 326,8 326,16 L326,38 L271,38 C264,38 258,41 253,46 C248,51 246,57 246,64 C246,77 255,87 267,90 L267,106 L25,106 C18,106 12,108 7,113 C3,117 0,124 0,130 L0,219 C0,229 8,236 17,236 L84,236 C108,236 127,256 127,280 L127,305 C127,315 136,324 146,324 L267,324 L267,338 C262,339 257,342 253,346 C248,350 246,357 246,364 C246,378 257,390 271,390 L486,390 C493,390 500,387 504,382 C509,377 512,371 512,364 L512,363 Z M343,16 L414,16 C415,16 416,16 416,17 L416,38 L341,38 L341,17 C341,16 342,16 343,16 L343,16 Z M146,308 L146,316 L146,308 C144,308 143,306 143,305 L143,280 C143,247 116,221 84,221 L17,221 C16,221 16,220 16,219 L16,130 C16,128 17,126 18,124 C20,122 23,121 25,121 L266,121 L266,308 L146,308 Z M261,64 C261,61 262,58 264,56 C266,55 268,53 271,53 L486,53 C492,53 496,58 496,64 C496,70 492,74 486,74 L271,74 C265,74 261,70 261,64 L261,64 Z M282,192 L282,90 L475,90 L475,338 L282,338 L282,324 L282,192 Z M493,371 C491,373 489,374 486,374 L271,374 L271,382 L271,374 C265,374 261,370 261,364 C261,361 262,358 264,357 C266,355 268,353 271,353 L486,353 C492,353 496,358 496,364 C496,367 495,369 493,371 L493,371 Z M39,131 C33,131 28,136 28,142 L28,147 C28,153 33,159 39,159 C45,159 50,153 50,147 L50,142 C50,136 45,131 39,131 L39,131 Z M73,131 C67,131 62,136 62,142 L62,147 C62,153 67,159 73,159 C79,159 84,153 84,147 L84,142 C84,136 79,131 73,131 L73,131 Z M107,131 C101,131 96,136 96,142 L96,147 C96,153 101,159 107,159 C113,159 118,153 118,147 L118,142 C118,136 113,131 107,131 L107,131 Z M141,131 C135,131 130,136 130,142 L130,147 C130,153 135,159 141,159 C147,159 152,153 152,147 L152,142 C152,136 147,131 141,131 L141,131 Z M175,158 C182,158 187,153 187,147 L187,142 C187,136 182,131 175,131 C169,131 164,136 164,142 L164,147 C164,153 169,158 175,158 L175,158 Z M209,158 C216,158 221,153 221,147 L221,142 C221,136 216,131 209,131 C203,131 198,136 198,142 L198,147 C198,153 203,158 209,158 L209,158 Z M244,158 C250,158 255,153 255,147 L255,142 C255,136 250,131 244,131 C238,131 232,136 232,142 L232,147 C232,153 237,158 244,158 L244,158 Z M175,270 C169,270 164,275 164,281 L164,286 C164,292 169,297 175,297 C182,297 187,292 187,286 L187,281 C187,275 182,270 175,270 L175,270 Z M210,270 C204,270 198,275 198,281 L198,286 C198,292 204,297 210,297 C216,297 221,292 221,286 L221,281 C221,275 216,270 210,270 L210,270 Z M246,270 C240,270 235,275 235,281 L235,286 C235,292 240,297 246,297 C252,297 257,292 257,286 L257,281 C257,275 252,270 246,270 L246,270 Z M434,189 C434,195 429,199 423,199 C417,199 413,195 413,189 C413,183 417,178 423,178 C429,178 434,183 434,189 L434,189 Z M346,189 C346,195 342,199 336,199 C330,199 325,195 325,189 C325,183 330,178 336,178 C342,178 346,183 346,189 L346,189 Z M339,242 C340,245 343,247 347,247 C347,247 358,244 378,244 C397,244 408,247 408,247 L410,247 C413,247 415,245 416,242 C417,238 414,235 411,234 C411,234 398,232 378,232 C357,232 345,234 344,234 C340,235 338,238 339,242 L339,242 Z" id="Shape"></path>
        </g>
    </g>
</svg>