<?xml version="1.0" encoding="UTF-8" standalone="no"?>
<svg width="512px" height="512px" viewBox="0 0 512 512" version="1.1" xmlns="http://www.w3.org/2000/svg" xmlns:xlink="http://www.w3.org/1999/xlink">
    <!-- Generator: Sketch 3.8.3 (29802) - http://www.bohemiancoding.com/sketch -->
    <title>icon-stats-admin</title>
    <desc>Created with Sketch.</desc>
    <defs></defs>
    <g id="Page-1" stroke="none" stroke-width="1" fill="none" fill-rule="evenodd">
        <g id="icon-stats-admin" fill="#000000">
            <path d="M256,0 C115,0 0,115 0,256 C0,397 115,512 256,512 C397,512 512,397 512,256 C512,115 397,0 256,0 L256,0 Z M256,480 C132,480 32,380 32,256 C32,132 132,32 256,32 C380,32 480,132 480,256 C480,380 380,480 256,480 L256,480 Z M102,272 C110,272 118,265 118,256 C118,247 110,240 102,240 L67,240 C59,240 51,247 51,256 C51,265 59,272 67,272 L102,272 Z M120,182 L88,169 C80,166 70,170 67,178 C64,186 68,195 76,199 L108,212 C110,212 112,213 114,213 C120,213 126,209 128,203 C131,195 127,186 120,182 L120,182 Z M134,111 C128,105 118,105 111,111 C105,118 105,127 111,134 L136,158 C139,161 143,163 147,163 C151,163 155,161 158,158 C164,152 164,142 158,136 L134,111 Z M211,107 L198,76 C195,67 186,63 178,67 C169,70 166,79 169,88 L182,119 C185,125 190,129 197,129 C199,129 201,129 203,128 C211,125 215,115 211,107 L211,107 Z M256,118 C265,118 272,110 272,102 L272,67 C272,59 265,51 256,51 C247,51 240,59 240,67 L240,102 C240,110 247,118 256,118 L256,118 Z M334,67 C326,64 317,68 314,76 L301,107 C297,115 301,125 309,128 C311,129 313,129 315,129 C321,129 327,126 330,120 L343,88 C346,80 342,70 334,67 L334,67 Z M406,112 C400,105 390,105 383,112 L359,136 C353,142 353,152 359,158 C362,161 366,163 370,163 C375,163 378,161 382,158 L406,134 C412,128 412,118 406,112 L406,112 Z M384,203 C387,209 392,213 399,213 C401,213 403,212 405,211 L436,198 C445,195 449,186 445,178 C442,169 433,166 424,169 L393,182 C385,186 381,195 384,203 L384,203 Z M445,240 L410,240 C402,240 394,247 394,256 C394,265 402,272 410,272 L445,272 C453,272 461,265 461,256 C461,247 453,240 445,240 L445,240 Z M436,314 L405,301 C397,297 387,301 384,309 C381,317 385,327 393,330 L424,343 C426,344 429,344 431,344 C437,344 443,341 445,335 C448,326 444,317 436,314 L436,314 Z M107,300 L76,314 C67,317 63,326 67,334 C69,340 75,344 81,344 C83,344 86,344 88,343 L119,330 C127,326 131,317 128,309 C125,301 115,297 107,300 L107,300 Z M272,295 L272,173 C272,164 265,157 256,157 C247,157 240,164 240,173 L240,295 C233,298 226,302 220,307 C201,326 201,358 220,378 C230,387 242,392 256,392 C269,392 282,387 292,378 C311,358 311,326 292,307 C286,301 279,298 272,295 L272,295 Z M269,355 C262,362 250,362 243,355 C236,348 236,336 243,329 C247,326 251,324 256,324 C261,324 265,326 269,329 C276,337 276,348 269,355 L269,355 Z" id="Shape"></path>
        </g>
    </g>
</svg>