<?xml version="1.0" encoding="UTF-8" standalone="no"?>
<svg width="512px" height="512px" viewBox="0 0 512 512" version="1.1" xmlns="http://www.w3.org/2000/svg" xmlns:xlink="http://www.w3.org/1999/xlink">
    <!-- Generator: Sketch 3.8.3 (29802) - http://www.bohemiancoding.com/sketch -->
    <title>icon-at-the-rate</title>
    <desc>Created with Sketch.</desc>
    <defs></defs>
    <g id="Page-1" stroke="none" stroke-width="1" fill="none" fill-rule="evenodd">
        <g id="icon-at-the-rate" fill="#000000">
            <path d="M256,0 C115,0 0,115 0,256 C0,397 115,512 256,512 C308,512 358,497 401,467 C408,463 409,453 405,446 C400,439 390,438 383,442 C346,468 302,481 256,481 C132,481 31,380 31,256 C31,132 132,31 256,31 C380,31 482,132 482,256 L482,277 C482,309 456,335 424,335 C392,335 366,309 366,277 L366,256 C366,196 316,146 256,146 C196,146 146,196 146,256 C146,316 196,366 256,366 C293,366 326,347 346,319 C361,347 390,366 423,366 C472,366 512,326 512,277 L512,256 C512,115 397,0 256,0 L256,0 Z M256,335 C212,335 177,300 177,256 C177,212 212,177 256,177 C300,177 335,212 335,256 C335,300 300,335 256,335 L256,335 Z" id="Shape"></path>
        </g>
    </g>
</svg>