<?xml version="1.0" encoding="UTF-8" standalone="no"?>
<svg width="514px" height="482px" viewBox="0 0 514 482" version="1.1" xmlns="http://www.w3.org/2000/svg" xmlns:xlink="http://www.w3.org/1999/xlink">
    <!-- Generator: Sketch 3.8.3 (29802) - http://www.bohemiancoding.com/sketch -->
    <title>icon-sheesha</title>
    <desc>Created with Sketch.</desc>
    <defs></defs>
    <g id="Page-1" stroke="none" stroke-width="1" fill="none" fill-rule="evenodd">
        <g id="icon-sheesha" fill="#000000">
            <path d="M290,53 C293,56 295,56 295,60 C295,63 294,66 291,67 C284,70 274,68 266,68 C255,69 243,70 232,71 C230,72 213,74 218,79 C224,84 234,84 241,88 C247,91 252,93 258,94 C262,94 267,93 269,98 C270,103 269,109 269,114 C270,119 271,125 273,130 C278,140 286,148 297,151 C298,158 299,160 293,164 C292,171 294,172 295,176 C298,176 297,181 297,183 C296,186 290,188 287,189 C280,185 273,176 268,170 C261,161 257,150 250,139 C250,138 249,136 247,136 C245,136 245,139 243,139 C240,139 236,132 234,130 C227,122 217,116 216,106 C215,102 214,99 210,98 C206,97 202,93 200,90 C198,87 196,80 192,80 C188,80 184,75 183,71 C182,69 181,67 180,66 C177,64 174,65 172,63 C168,60 166,56 163,52 C158,47 150,33 143,39 C139,32 131,27 124,23 C117,19 108,14 100,12 C86,8 70,12 58,19 C21,40 3,87 1,127 C-1,169 10,213 31,250 C40,267 52,286 67,299 C78,308 92,317 105,322 C125,330 146,331 167,328 C180,326 192,323 205,320 C216,317 229,313 241,315 C228,322 219,338 217,352 C214,369 217,387 226,402 C233,415 246,425 260,430 C269,433 278,434 286,435 C295,435 305,436 313,435 C326,436 341,435 354,433 C367,431 378,426 388,418 C408,400 416,369 408,343 C407,343 405,343 407,344 C413,348 420,348 427,350 C444,355 460,364 472,376 C485,388 491,405 488,423 C485,439 472,446 458,452 C448,456 439,458 428,457 C408,455 389,452 369,451 C349,450 329,451 310,450 C289,449 268,448 247,448 C247,440 236,436 229,435 C229,434 231,433 222,431 C219,428 213,427 209,425 C201,423 194,417 186,415 C177,413 173,409 164,408 C155,407 161,406 145,402 C142,399 133,397 129,396 C124,394 120,394 113,392 C103,390 101,390 94,385 C91,383 88,382 84,382 C79,383 77,378 71,376 C63,374 62,372 53,369 C45,366 38,374 30,376 C23,377 22,371 16,370 C13,369 8,369 6,372 C5,377 10,380 13,381 C17,382 18,380 21,381 C24,382 26,385 28,387 C31,393 32,402 40,405 C48,408 52,408 60,411 C65,413 67,412 70,416 C76,420 80,417 85,421 C93,425 91,420 98,426 C103,431 109,435 119,434 C122,434 125,437 128,437 C133,437 134,446 143,445 C148,450 154,444 157,449 C165,449 167,452 174,457 C185,460 188,461 194,462 C198,463 202,465 205,464 C210,464 213,466 216,469 C222,473 234,477 239,470 C282,483 328,474 372,476 C387,477 401,478 416,480 C432,482 449,483 465,476 C498,464 523,429 510,393 C496,358 460,334 425,326 C416,324 404,321 395,323 C384,313 384,311 374,298 C370,296 368,291 368,287 C368,282 368,283 364,272 C361,257 360,257 356,244 C355,237 354,234 353,227 C353,220 354,212 353,204 C352,202 352,199 353,196 C354,193 358,191 360,189 C362,187 365,184 368,183 C371,183 374,184 377,182 C382,176 379,167 379,160 C379,157 378,152 374,154 C371,156 370,157 366,157 C362,156 352,156 352,162 C351,168 352,176 348,180 C344,184 337,190 331,184 C329,182 330,177 332,176 C339,175 341,170 336,165 C334,163 330,162 329,159 C328,157 330,154 330,151 C340,148 348,141 353,131 C358,121 356,111 358,100 C358,96 360,94 364,94 C371,94 377,92 384,89 C391,85 401,85 408,80 C415,75 399,72 396,72 C385,70 375,69 363,68 C355,68 345,70 337,68 C334,67 332,65 332,62 C332,56 334,56 337,53 L290,53 Z M284,53 L338,53 C341,53 342,54 343,52 L349,37 L358,19 C359,16 363,11 363,8 C363,7 353,4 352,4 C345,2 338,2 330,2 C323,2 315,-2.93098879e-14 308,1 C302,-2.93098879e-14 297,2 291,2 C288,2 263,4 264,8 L265,9 L284,53 Z M274,202 C274,206 273,211 273,216 C273,220 274,225 273,229 C272,240 272,241 270,248 C269,255 266,265 263,274 C264,280 265,263 262,280 C261,283 259,288 258,291 C253,299 252,294 245,294 C233,294 222,296 210,298 C191,302 170,309 150,309 C125,310 97,297 79,280 C49,253 31,209 25,170 C20,132 25,86 51,55 C62,42 71,32 90,32 C96,32 102,34 107,37 C111,39 115,42 118,45 C121,48 124,52 129,53 C126,59 142,70 145,72 C148,75 151,77 154,80 C156,82 155,84 156,86 C157,89 160,90 162,91 C165,92 169,96 170,99 C171,101 170,103 172,104 C174,106 177,106 179,108 C182,110 187,114 188,118 C189,122 189,124 194,125 C198,126 202,127 205,130 C209,133 213,138 217,141 C220,145 223,148 226,151 C230,155 223,156 226,159 C229,162 234,163 238,165 C243,169 248,171 253,175 C261,180 272,189 276,197 C275,198 275,200 274,202 C274,208 275,200 274,202 L274,202 Z" id="Shape"></path>
        </g>
    </g>
</svg>