<?xml version="1.0" encoding="UTF-8" standalone="no"?>
<svg width="512px" height="512px" viewBox="0 0 512 512" version="1.1" xmlns="http://www.w3.org/2000/svg" xmlns:xlink="http://www.w3.org/1999/xlink">
    <!-- Generator: Sketch 3.8.3 (29802) - http://www.bohemiancoding.com/sketch -->
    <title>icon-tick-filters</title>
    <desc>Created with Sketch.</desc>
    <defs></defs>
    <g id="Page-1" stroke="none" stroke-width="1" fill="none" fill-rule="evenodd">
        <g id="icon-tick-filters" fill="#000000">
            <path d="M497,512 L15,512 C7,512 0,505 0,497 L0,15 C0,7 7,0 15,0 L497,0 C505,0 512,7 512,15 L512,497 C512,505 505,512 497,512 L497,512 Z M31,481 L481,481 L481,31 L31,31 L31,481 Z M189,378 L188,378 C184,377 180,375 177,372 L83,250 C78,243 79,233 86,228 C92,223 102,225 107,231 L191,339 L406,138 C412,133 422,133 428,139 C434,145 433,155 427,161 L200,374 C197,376 193,378 189,378 L189,378 Z" id="Shape"></path>
        </g>
    </g>
</svg>