<?xml version="1.0" encoding="UTF-8" standalone="no"?>
<svg width="502px" height="512px" viewBox="0 0 502 512" version="1.1" xmlns="http://www.w3.org/2000/svg" xmlns:xlink="http://www.w3.org/1999/xlink">
    <!-- Generator: Sketch 3.8.3 (29802) - http://www.bohemiancoding.com/sketch -->
    <title>icon-expertise</title>
    <desc>Created with Sketch.</desc>
    <defs></defs>
    <g id="Page-1" stroke="none" stroke-width="1" fill="none" fill-rule="evenodd">
        <g id="icon-expertise" fill="#000000">
            <path d="M462,474 L44,474 C34,474 25,483 25,493 C25,504 33,512 44,512 L462,512 C473,512 481,504 481,493 C481,483 472,474 462,474 L462,474 Z M483,99 C476,96 467,98 462,105 L360,238 L266,105 C262,100 257,97 251,97 C244,98 239,100 236,105 L141,238 L40,105 C35,98 26,96 19,99 C11,101 6,109 7,117 L18,417 C19,427 27,435 37,435 L462,435 C472,435 480,427 480,417 L495,117 C496,109 491,101 483,99 L483,99 Z M456,174 L446,361 L382,270 L456,174 Z M118,270 L53,360 L46,174 L118,270 Z M72,398 L142,300 L215,398 L72,398 Z M164,269 L251,148 L336,269 L250,381 L164,269 Z M358,300 L427,397 L284,397 L358,300 Z M30,61 C34,61 37,59 39,57 L57,39 C59,37 60,34 60,31 C60,27 59,24 57,22 L39,4 C34,0 26,0 21,4 L4,22 C1,24 0,27 0,30 C0,34 1,37 4,39 L21,57 C24,59 27,61 30,61 L30,61 Z M242,57 C245,59 248,61 251,61 C254,61 257,59 260,57 L277,39 C280,37 281,34 281,31 C281,27 280,24 277,22 L260,4 C255,0 247,0 242,4 L224,22 C222,24 221,27 221,31 C221,34 222,37 224,39 L242,57 Z M498,22 L480,4 C476,-1 468,-1 463,4 L445,22 C443,24 442,27 442,30 C442,34 443,37 445,39 L463,57 C465,59 468,60 471,60 C475,60 478,59 480,57 L498,39 C500,37 501,34 501,30 C502,27 501,24 498,22 L498,22 Z" id="Shape"></path>
        </g>
    </g>
</svg>