<?xml version="1.0" encoding="UTF-8" standalone="no"?>
<svg width="508px" height="510px" viewBox="0 0 508 510" version="1.1" xmlns="http://www.w3.org/2000/svg" xmlns:xlink="http://www.w3.org/1999/xlink">
    <!-- Generator: Sketch 3.8.3 (29802) - http://www.bohemiancoding.com/sketch -->
    <title>icon-call-phone-1</title>
    <desc>Created with Sketch.</desc>
    <defs></defs>
    <g id="Page-1" stroke="none" stroke-width="1" fill="none" fill-rule="evenodd">
        <g id="icon-call-phone-1" fill="#000000">
            <path d="M110,399 C198,488 301,529 437,500 L437,500 C454,495 469,487 482,474 C520,436 514,381 476,343 C418,293 380,295 342,333 C327,349 330,366 325,376 C325,377 324,378 323,378 C316,385 268,417 181,330 L178,327 C83,232 138,180 138,180 L139,179 C149,175 163,178 178,166 C216,128 213,86 167,33 C129,-5 74,-12 36,26 C23,39 14,54 10,71 L10,71 C-20,207 21,310 110,399 L110,399 Z" id="Shape"></path>
        </g>
    </g>
</svg>