<?xml version="1.0" encoding="UTF-8" standalone="no"?>
<svg width="512px" height="512px" viewBox="0 0 512 512" version="1.1" xmlns="http://www.w3.org/2000/svg" xmlns:xlink="http://www.w3.org/1999/xlink">
    <!-- Generator: Sketch 3.8.3 (29802) - http://www.bohemiancoding.com/sketch -->
    <title>icon-globe</title>
    <desc>Created with Sketch.</desc>
    <defs></defs>
    <g id="Page-1" stroke="none" stroke-width="1" fill="none" fill-rule="evenodd">
        <g id="icon-globe" fill="#000000">
            <path d="M447,86 C446,84 445,83 443,82 C413,49 374,24 330,11 L329,11 C306,4 281,0 256,0 C115,0 0,115 0,256 C0,397 115,512 256,512 C397,512 512,397 512,256 C512,191 487,131 447,86 L447,86 Z M417,99 C413,112 402,142 379,156 C343,150 306,168 296,180 C289,189 292,197 293,199 C295,203 299,206 303,208 C306,213 311,227 315,239 C315,242 317,244 319,246 C328,255 340,256 350,254 C346,265 330,282 323,290 C311,303 304,310 304,319 C304,330 311,337 316,341 L317,341 C305,353 293,357 293,357 C287,359 283,365 283,371 C283,380 283,407 239,408 C232,401 220,378 219,371 C219,370 222,365 223,362 C226,356 230,349 230,340 C230,327 218,312 209,302 C208,289 204,279 196,271 C183,259 164,260 146,261 L131,261 C115,261 115,236 115,235 C115,234 115,174 155,166 C178,162 187,164 189,165 C190,168 191,170 193,173 C214,193 245,186 268,181 C275,179 283,177 288,177 C296,177 302,172 303,164 C309,122 306,96 293,87 C287,82 279,82 271,86 C264,89 259,89 256,87 C252,85 251,80 251,77 C250,69 285,51 326,42 C360,53 392,73 417,99 L417,99 Z M256,481 C132,481 31,380 31,256 C31,132 132,31 256,31 L261,31 C237,42 218,58 220,80 C221,95 228,108 240,114 C250,120 262,120 274,117 C275,124 275,136 273,148 C269,149 265,150 260,151 C245,155 227,159 217,153 C215,150 213,146 209,142 C197,133 177,131 148,136 C84,149 84,231 84,235 C84,255 93,292 130,292 L147,292 C158,291 171,290 175,294 C177,296 178,301 178,308 C178,312 179,316 183,319 C190,327 198,337 199,339 C199,341 197,345 195,348 C192,354 188,362 188,371 C188,383 210,438 235,438 C280,438 308,417 313,381 C320,377 330,371 340,361 C347,354 350,347 350,340 C349,329 343,323 337,318 C340,316 342,313 344,311 C364,291 400,253 371,224 C367,219 360,218 354,221 C350,223 345,224 342,224 C338,210 334,200 330,193 C342,188 360,182 378,187 C381,188 385,187 388,186 C415,172 431,146 440,126 C466,163 481,208 481,256 C481,380 380,481 256,481 L256,481 Z" id="Shape"></path>
        </g>
    </g>
</svg>