<?xml version="1.0" encoding="UTF-8" standalone="no"?>
<svg width="510px" height="512px" viewBox="0 0 510 512" version="1.1" xmlns="http://www.w3.org/2000/svg" xmlns:xlink="http://www.w3.org/1999/xlink">
    <!-- Generator: Sketch 3.8.3 (29802) - http://www.bohemiancoding.com/sketch -->
    <title>icon-level-fill</title>
    <desc>Created with Sketch.</desc>
    <defs></defs>
    <g id="Page-1" stroke="none" stroke-width="1" fill="none" fill-rule="evenodd">
        <g id="icon-level-fill" fill="#000000">
            <path d="M479,0 L336,0 C319,0 305,14 305,30 L305,140 L305,171 L183,170 C167,170 153,184 153,201 L153,311 L153,341 L31,341 C14,341 0,355 0,372 L0,482 C0,498 14,512 31,512 L479,512 C496,512 510,498 510,482 L510,30 C510,14 496,0 479,0 L479,0 Z" id="Shape"></path>
        </g>
    </g>
</svg>