<?xml version="1.0" encoding="UTF-8" standalone="no"?>
<svg width="512px" height="510px" viewBox="0 0 512 510" version="1.1" xmlns="http://www.w3.org/2000/svg" xmlns:xlink="http://www.w3.org/1999/xlink">
    <!-- Generator: Sketch 3.8.3 (29802) - http://www.bohemiancoding.com/sketch -->
    <title>icon-pure-veg</title>
    <desc>Created with Sketch.</desc>
    <defs></defs>
    <g id="Page-1" stroke="none" stroke-width="1" fill="none" fill-rule="evenodd">
        <g id="icon-pure-veg" fill="#000000">
            <path d="M507,5 C503,2 498,0 493,0 C477,2 103,45 17,226 C-13,290 -3,363 46,442 L28,460 C21,467 21,478 28,484 C31,487 35,489 40,489 C44,489 48,487 52,484 L70,466 C118,495 164,510 207,510 C454,510 509,39 512,19 C512,14 510,9 507,5 L507,5 Z M207,476 C172,476 134,464 94,442 L138,398 L240,398 C249,398 257,391 257,381 C257,372 249,365 240,365 L171,365 L229,307 L313,307 C322,307 329,300 329,290 C329,281 322,274 313,274 L262,274 L320,216 L349,216 C358,216 366,209 366,199 C366,190 358,183 349,183 L329,183 L329,163 C329,154 322,146 313,146 C304,146 296,154 296,163 L296,193 L239,250 L239,199 C239,190 231,182 222,182 C213,182 205,190 205,199 L205,283 L148,341 L148,272 C148,263 140,255 131,255 C122,255 114,263 114,272 L114,374 L70,418 C32,352 24,292 48,240 C114,100 395,49 475,37 C461,128 397,476 207,476 L207,476 Z" id="Shape"></path>
        </g>
    </g>
</svg>