<?xml version="1.0" encoding="UTF-8" standalone="no"?>
<svg width="512px" height="512px" viewBox="0 0 512 512" version="1.1" xmlns="http://www.w3.org/2000/svg" xmlns:xlink="http://www.w3.org/1999/xlink">
    <!-- Generator: Sketch 3.8.3 (29802) - http://www.bohemiancoding.com/sketch -->
    <title>icon-navigation-semantic</title>
    <desc>Created with Sketch.</desc>
    <defs></defs>
    <g id="Page-1" stroke="none" stroke-width="1" fill="none" fill-rule="evenodd">
        <g id="icon-navigation-semantic" fill="#000000">
            <g id="Page-1">
                <g id="icon-navigation-semantic">
                    <path d="M509.092974,33.7941803 L276.530873,498.918382 C272.412586,507.397207 265.508399,511.636622 255.818311,511.636622 C254.60705,511.636622 252.790159,511.394368 250.367637,510.909865 C245.038088,509.698605 240.738112,506.973268 237.467708,502.733854 C234.197303,498.494439 232.562101,493.709961 232.562101,488.380412 L232.562101,279.074521 L23.2562101,279.074521 C17.9266619,279.074521 13.1421812,277.439319 8.90276792,274.168914 C4.66335461,270.89851 1.93801751,266.598533 0.726756565,261.268985 C-0.484504375,255.939437 -1.38777878e-17,250.852141 2.18026969,246.007097 C4.36053939,241.162054 7.87319613,237.528271 12.7182399,235.105749 L477.842441,2.54364798 C480.991721,0.847882658 484.504375,0 488.380412,0 C494.921221,0 500.371895,2.30139579 504.732434,6.90418737 C508.366217,10.295718 510.607051,14.4745682 511.454933,19.4407381 C512.302814,24.406908 511.515497,29.1913887 509.092974,33.7941803 L509.092974,33.7941803 L509.092974,33.7941803 Z"></path>
                </g>
            </g>
        </g>
    </g>
</svg>