<?xml version="1.0" encoding="UTF-8" standalone="no"?>
<svg width="426px" height="512px" viewBox="0 0 426 512" version="1.1" xmlns="http://www.w3.org/2000/svg" xmlns:xlink="http://www.w3.org/1999/xlink">
    <!-- Generator: Sketch 3.8.3 (29802) - http://www.bohemiancoding.com/sketch -->
    <title>icon-wheel-chair</title>
    <desc>Created with Sketch.</desc>
    <defs></defs>
    <g id="Page-1" stroke="none" stroke-width="1" fill="none" fill-rule="evenodd">
        <g id="icon-wheel-chair" fill="#000000">
            <path d="M425,431 C423,423 414,418 405,421 L371,432 C349,317 325,317 316,317 C297,317 193,339 149,348 L134,270 L251,246 C259,244 265,236 263,227 C261,219 253,213 244,215 L128,239 L112,149 C144,141 169,111 169,76 C169,34 135,0 93,0 C51,0 17,34 17,76 C17,113 44,144 79,150 L97,246 C40,262 0,315 0,376 C0,451 61,512 136,512 C211,512 272,451 272,376 C272,369 271,363 270,356 C289,353 305,350 312,349 C321,361 334,408 343,456 C344,461 347,465 351,467 C353,468 356,469 359,469 C361,469 362,469 364,468 L415,451 C424,448 428,439 425,431 L425,431 Z M49,76 C49,51 68,31 93,31 C118,31 137,51 137,76 C137,100 118,120 93,120 C68,120 49,100 49,76 L49,76 Z M240,376 C240,433 193,480 136,480 C78,480 32,433 32,376 C32,331 61,292 103,278 L120,370 C121,375 124,378 127,381 C131,383 135,384 139,383 C168,377 206,369 239,362 C240,367 240,371 240,376 L240,376 Z" id="Shape"></path>
        </g>
    </g>
</svg>