<?xml version="1.0" encoding="UTF-8" standalone="no"?>
<svg width="512px" height="512px" viewBox="0 0 512 512" version="1.1" xmlns="http://www.w3.org/2000/svg" xmlns:xlink="http://www.w3.org/1999/xlink">
    <!-- Generator: Sketch 3.8.3 (29802) - http://www.bohemiancoding.com/sketch -->
    <title>icon-browser-1</title>
    <desc>Created with Sketch.</desc>
    <defs></defs>
    <g id="Page-1" stroke="none" stroke-width="1" fill="none" fill-rule="evenodd">
        <g id="icon-browser-1" fill="#000000">
            <path d="M480,512 L32,512 C14,512 0,498 0,480 L0,32 C0,14 14,0 32,0 L480,0 C498,0 512,14 512,32 L512,480 C512,498 498,512 480,512 L480,512 Z M448,64 L64,64 L64,160 L448,160 L448,64 Z M448,224 L64,224 L64,448 L448,448 L448,224 Z M128,128 L96,128 L96,96 L128,96 L128,128 Z M192,128 L160,128 L160,96 L192,96 L192,128 Z M416,128 L224,128 L224,96 L416,96 L416,128 Z" id="Shape"></path>
        </g>
    </g>
</svg>