<?xml version="1.0" encoding="UTF-8" standalone="no"?>
<svg width="512px" height="512px" viewBox="0 0 512 512" version="1.1" xmlns="http://www.w3.org/2000/svg" xmlns:xlink="http://www.w3.org/1999/xlink">
    <!-- Generator: Sketch 3.8.3 (29802) - http://www.bohemiancoding.com/sketch -->
    <title>icon-information</title>
    <desc>Created with Sketch.</desc>
    <defs></defs>
    <g id="Page-1" stroke="none" stroke-width="1" fill="none" fill-rule="evenodd">
        <g id="icon-information" fill="#000000">
            <path d="M511,225 C505,266 481,289 453,295 L453,512 L71,512 L71,297 C39,295 7,272 1,225 C1,220 0,215 0,208 L0,204 L102,0 L410,0 L512,204 L512,208 C512,215 511,220 511,225 L511,225 Z M417,476 L417,295 C400,292 386,283 375,270 C361,287 340,297 315,297 L311,297 L311,297 L309,297 C305,297 301,296 297,296 C295,295 293,295 291,294 C289,293 286,292 283,291 L277,288 C274,286 271,284 269,282 C267,282 266,281 265,280 L256,271 C256,271 256,271 256,270 C256,271 255,271 255,271 L246,280 L243,283 C240,285 237,286 234,288 C232,289 230,290 228,291 C226,292 223,293 220,294 C218,295 216,295 214,296 C210,297 207,297 203,297 C202,297 201,298 200,298 L200,297 C199,297 198,298 196,298 C172,298 151,287 136,270 C129,280 118,287 107,292 L107,476 L417,476 Z M388,36 L124,36 L36,212 C36,218 37,222 38,226 L37,226 C42,249 56,262 77,262 C100,262 119,243 119,220 L155,220 C155,243 173,262 196,262 C205,262 213,259 220,255 C221,254 223,253 224,251 C225,251 226,250 226,250 C227,249 227,248 228,248 C232,242 236,236 237,229 C237,226 238,223 238,220 L273,220 C273,223 274,226 274,229 C276,236 279,242 283,248 C284,248 284,249 285,250 C286,250 286,251 287,251 L291,255 C298,259 306,262 315,262 C338,262 356,243 356,220 L392,220 C392,243 410,262 434,262 C455,262 469,249 474,226 L473,226 C474,222 475,218 475,212 L388,36 Z" id="Shape"></path>
        </g>
    </g>
</svg>