<?xml version="1.0" encoding="UTF-8" standalone="no"?>
<svg width="508px" height="512px" viewBox="0 0 508 512" version="1.1" xmlns="http://www.w3.org/2000/svg" xmlns:xlink="http://www.w3.org/1999/xlink">
    <!-- Generator: Sketch 3.8.3 (29802) - http://www.bohemiancoding.com/sketch -->
    <title>icon-butcher-shop-fill</title>
    <desc>Created with Sketch.</desc>
    <defs></defs>
    <g id="Page-1" stroke="none" stroke-width="1" fill="none" fill-rule="evenodd">
        <g id="icon-butcher-shop-fill" transform="translate(0.000000, -1.000000)" fill="#000000">
            <path d="M500,121 L306,3 C302,1 298,0 294,2 C290,3 287,5 284,9 C225,115 167,213 112,300 C75,359 39,414 3,465 C1,468 0,473 1,477 C2,481 4,485 8,487 L47,511 C49,512 52,513 55,513 C59,513 64,511 67,506 L69,504 C102,456 136,407 167,352 L290,428 C296,431 303,431 308,426 C375,364 468,240 506,139 C509,133 506,125 500,121 L500,121 Z M50,477 L38,469 C68,426 99,379 130,329 L142,336 C113,387 81,433 50,477 L50,477 Z M321,113 C312,113 305,106 305,98 C305,89 312,82 321,82 C329,82 336,89 336,98 C336,106 329,113 321,113 L321,113 Z" id="Shape"></path>
        </g>
    </g>
</svg>