<?xml version="1.0" encoding="UTF-8" standalone="no"?>
<svg width="512px" height="512px" viewBox="0 0 512 512" version="1.1" xmlns="http://www.w3.org/2000/svg" xmlns:xlink="http://www.w3.org/1999/xlink">
    <!-- Generator: Sketch 3.8.3 (29802) - http://www.bohemiancoding.com/sketch -->
    <title>icon-patisserie-fill</title>
    <desc>Created with Sketch.</desc>
    <defs></defs>
    <g id="Page-1" stroke="none" stroke-width="1" fill="none" fill-rule="evenodd">
        <g id="icon-patisserie-fill" fill="#000000">
            <path d="M512,378 L0,378 L0,437 L511,437 L512,378 Z M511,463 L0,464 C0,488 24,512 49,512 L497,512 C505,512 512,505 512,497 L511,463 Z M511,330 C511,329 511,327 510,326 C510,324 509,323 508,321 C507,321 507,321 507,320 L359,171 C361,164 362,156 362,148 C362,113 343,82 315,64 C318,50 326,41 339,35 C360,26 389,33 404,44 C411,49 421,48 426,41 C431,34 429,25 423,20 C400,3 360,-7 327,7 C307,15 293,31 286,52 C279,51 272,50 264,50 C236,50 210,62 192,81 C81,110 0,214 0,330 L0,346 L512,346 L512,331 C511,331 511,330 511,330 L511,330 Z M264,216 C227,216 196,185 196,148 C196,111 227,81 264,81 C301,81 331,111 331,148 C331,185 301,216 264,216 L264,216 Z" id="Shape"></path>
        </g>
    </g>
</svg>