<?xml version="1.0" encoding="UTF-8" standalone="no"?>
<svg width="512px" height="512px" viewBox="0 0 512 512" version="1.1" xmlns="http://www.w3.org/2000/svg" xmlns:xlink="http://www.w3.org/1999/xlink">
    <!-- Generator: Sketch 3.8.3 (29802) - http://www.bohemiancoding.com/sketch -->
    <title>icon-cost-for-two</title>
    <desc>Created with Sketch.</desc>
    <defs></defs>
    <g id="Page-1" stroke="none" stroke-width="1" fill="none" fill-rule="evenodd">
        <g id="icon-cost-for-two" fill="#000000">
            <path d="M346,282 L346,57 C346,2 191,0 173,0 C155,0 0,2 0,57 L0,347 C0,398 126,404 166,404 L166,455 C166,509 310,512 339,512 C368,512 512,509 512,455 L512,339 C512,288 381,283 346,282 L346,282 Z M482,396 C477,406 425,423 339,423 C253,423 201,406 197,397 L197,374 C243,395 326,396 339,396 C352,396 435,395 481,374 L482,396 Z M315,114 C311,124 259,141 173,141 C87,141 35,124 30,115 L30,92 C77,113 160,114 173,114 C186,114 269,113 315,92 L315,114 Z M173,172 C194,172 272,170 315,150 L315,172 C311,182 259,199 173,199 C87,199 35,182 31,173 L31,150 C75,170 153,172 173,172 L173,172 Z M173,230 C194,230 272,228 315,208 L315,230 C311,240 259,257 173,257 C87,257 35,240 30,231 L30,208 C75,228 153,230 173,230 L173,230 Z M31,266 C75,286 153,288 173,288 C194,288 272,286 315,266 L315,283 C277,284 207,291 178,315 L173,315 C87,315 35,298 30,289 L30,266 L31,266 Z M339,365 C257,365 206,349 197,339 C206,329 253,314 328,313 L339,313 C421,313 472,329 481,339 C472,349 421,365 339,365 L339,365 Z M173,31 C255,31 306,47 315,57 C306,67 255,83 173,83 C91,83 40,67 31,57 C40,47 91,31 173,31 L173,31 Z M31,347 L31,325 C71,343 138,346 166,346 L166,374 C84,372 35,356 31,347 L31,347 Z M339,481 C253,481 201,464 197,455 L197,432 C241,452 318,454 339,454 C359,454 438,452 481,432 L481,454 C477,464 425,481 339,481 L339,481 Z" id="Shape"></path>
        </g>
    </g>
</svg>