<?xml version="1.0" encoding="UTF-8" standalone="no"?>
<svg width="513px" height="330px" viewBox="0 0 513 330" version="1.1" xmlns="http://www.w3.org/2000/svg" xmlns:xlink="http://www.w3.org/1999/xlink">
    <!-- Generator: Sketch 3.8.3 (29802) - http://www.bohemiancoding.com/sketch -->
    <title>icon-offer</title>
    <desc>Created with Sketch.</desc>
    <defs></defs>
    <g id="Page-1" stroke="none" stroke-width="1" fill="none" fill-rule="evenodd">
        <g id="icon-offer" fill="#000000">
            <path d="M507,152 L363,8 C359,5 355,3 350,3 L18,0 C12,0 9,2 5,6 C2,9 0,14 0,18 L0,312 C0,316 2,321 5,324 C9,328 13,330 18,330 L18,330 L350,327 C355,327 359,325 363,322 L507,178 C514,171 514,159 507,152 L507,152 Z M343,291 L36,294 L36,36 L343,39 L469,165 L343,291 Z M274,118 C261,130 254,147 254,165 C254,183 261,200 274,212 C287,225 303,232 321,232 C339,232 356,225 368,212 C394,186 394,144 368,118 C343,93 299,93 274,118 L274,118 Z M343,143 C355,155 355,175 343,187 C331,199 311,199 299,187 C293,181 290,173 290,165 C290,157 294,149 299,143 C305,137 313,134 321,134 C329,134 337,137 343,143 L343,143 Z" id="Shape"></path>
        </g>
    </g>
</svg>