<?xml version="1.0" encoding="UTF-8" standalone="no"?>
<svg width="428px" height="512px" viewBox="0 0 428 512" version="1.1" xmlns="http://www.w3.org/2000/svg" xmlns:xlink="http://www.w3.org/1999/xlink">
    <!-- Generator: Sketch 3.8.3 (29802) - http://www.bohemiancoding.com/sketch -->
    <title>icon-open-in-app-phone</title>
    <desc>Created with Sketch.</desc>
    <defs></defs>
    <g id="Page-1" stroke="none" stroke-width="1" fill="none" fill-rule="evenodd">
        <g id="icon-open-in-app-phone" fill="#000000">
            <path d="M363,0 L181,0 C145,0 116,29 116,65 L116,189 C116,198 122,205 131,205 C139,205 146,198 146,189 L146,114 L398,114 L398,398 L146,398 L146,322 C146,314 139,307 131,307 C122,307 116,314 116,322 L116,447 C116,483 145,512 181,512 L363,512 C399,512 428,483 428,447 L428,65 C428,29 399,0 363,0 L363,0 Z M146,83 L146,65 C146,46 162,30 181,30 L363,30 C382,30 398,46 398,65 L398,83 L146,83 Z M363,481 L181,481 C162,481 146,466 146,447 L146,429 L397,429 L397,447 C398,466 382,481 363,481 L363,481 Z M297,42 L247,42 C238,42 232,49 232,57 C232,66 238,72 247,72 L297,72 C305,72 312,66 312,57 C312,49 305,42 297,42 L297,42 Z M287,455 C287,464 280,471 272,471 C264,471 257,464 257,455 C257,447 264,440 272,440 C280,440 287,447 287,455 L287,455 Z M218,304 C211,310 211,319 216,326 C220,329 224,331 228,331 C232,331 235,330 238,327 L306,268 C309,265 311,260 311,256 C311,252 309,247 306,244 L238,185 C232,180 222,180 216,187 C211,193 211,203 218,209 L255,241 L15,241 C7,241 0,248 0,256 C0,264 7,271 15,271 L255,271 L218,304 Z" id="Shape"></path>
        </g>
    </g>
</svg>