<?xml version="1.0" encoding="UTF-8" standalone="no"?>
<svg width="512px" height="512px" viewBox="0 0 512 512" version="1.1" xmlns="http://www.w3.org/2000/svg" xmlns:xlink="http://www.w3.org/1999/xlink">
    <!-- Generator: Sketch 3.8.3 (29802) - http://www.bohemiancoding.com/sketch -->
    <title>icon-smiley</title>
    <desc>Created with Sketch.</desc>
    <defs></defs>
    <g id="Page-1" stroke="none" stroke-width="1" fill="none" fill-rule="evenodd">
        <g id="icon-smiley" fill="#000000">
            <path d="M256,0 C115,0 0,115 0,256 C0,397 115,512 256,512 C397,512 512,397 512,256 C512,115 397,0 256,0 L256,0 Z M256,481 C132,481 31,380 31,256 C31,132 132,31 256,31 C380,31 481,132 481,256 C481,380 380,481 256,481 L256,481 Z M413,265 L99,265 C91,265 84,272 84,281 C84,374 161,449 256,449 C351,449 428,374 428,281 C428,272 421,265 413,265 L413,265 Z M256,419 C185,419 123,364 115,296 L397,296 C389,364 327,419 256,419 L256,419 Z M164,213 C191,213 213,191 213,165 C213,138 191,116 164,116 C137,116 115,138 115,165 C115,191 137,213 164,213 L164,213 Z M164,147 C174,147 182,155 182,165 C182,175 174,183 164,183 C154,183 146,175 146,165 C146,155 154,147 164,147 L164,147 Z M355,213 C382,213 403,191 403,165 C403,138 382,116 355,116 C328,116 306,138 306,165 C306,191 328,213 355,213 L355,213 Z M355,147 C365,147 373,155 373,165 C373,175 365,183 355,183 C345,183 337,175 337,165 C337,155 345,147 355,147 L355,147 Z" id="Shape"></path>
        </g>
    </g>
</svg>