<?xml version="1.0" encoding="UTF-8" standalone="no"?>
<svg width="484px" height="509px" viewBox="0 0 484 509" version="1.1" xmlns="http://www.w3.org/2000/svg" xmlns:xlink="http://www.w3.org/1999/xlink">
    <!-- Generator: Sketch 3.8.3 (29802) - http://www.bohemiancoding.com/sketch -->
    <title>icon-empty-bookmarks</title>
    <desc>Created with Sketch.</desc>
    <defs></defs>
    <g id="Page-1" stroke="none" stroke-width="1" fill="none" fill-rule="evenodd">
        <g id="icon-empty-bookmarks" fill="#000000">
            <path d="M206,193 C206,203 197,211 187,211 C176,211 168,203 168,193 C168,182 176,174 187,174 C197,174 206,182 206,193 L206,193 Z M320,193 C320,203 311,211 301,211 C290,211 282,203 282,193 C282,182 290,174 301,174 C311,174 320,182 320,193 L320,193 Z M204,276 C248,249 281,274 282,275 C285,278 290,277 292,274 C295,271 294,267 291,264 C291,264 280,256 264,252 C258,251 252,250 245,250 C231,250 215,253 197,264 C193,266 192,270 194,274 C196,277 201,278 204,276 L204,276 Z M484,0 L0,0 L0,24 L68,24 C67,26 67,29 67,32 L67,477 C67,494 81,509 99,509 C107,509 115,506 121,500 L237,361 C240,359 244,359 247,361 L363,499 L364,500 C370,506 377,509 385,509 C403,509 417,494 417,477 L417,32 C417,29 417,27 416,24 L484,24 L484,0 Z M394,32 L394,477 C394,483 389,485 385,485 C384,485 382,485 380,483 L265,346 L264,345 C258,339 250,336 242,336 C234,336 226,339 220,345 L104,483 C102,484 101,485 99,485 C95,485 90,482 90,476 L90,32 C90,28 94,24 99,24 L164,24 L164,92 L188,92 L188,24 L297,24 L297,92 L320,92 L320,24 L385,24 C390,24 394,28 394,32 L394,32 Z" id="Shape"></path>
        </g>
    </g>
</svg>