<?xml version="1.0" encoding="UTF-8" standalone="no"?>
<svg width="512px" height="486px" viewBox="0 0 512 486" version="1.1" xmlns="http://www.w3.org/2000/svg" xmlns:xlink="http://www.w3.org/1999/xlink">
    <!-- Generator: Sketch 3.8.3 (29802) - http://www.bohemiancoding.com/sketch -->
    <title>icon-bar</title>
    <desc>Created with Sketch.</desc>
    <defs></defs>
    <g id="Page-1" stroke="none" stroke-width="1" fill="none" fill-rule="evenodd">
        <g id="icon-bar" fill="#000000">
            <path d="M429,0 C383,0 346,37 346,83 L346,85 L166,85 L82,0 L0,0 L0,32 L69,32 L122,85 L93,85 C86,85 81,88 78,94 C76,100 77,107 82,111 L246,275 L246,455 L177,455 C168,455 161,462 161,470 C161,479 168,486 177,486 L345,486 C354,486 360,479 360,470 C360,462 354,455 345,455 L276,455 L276,275 L393,158 C405,163 417,166 429,166 C475,166 512,129 512,83 C512,37 475,0 429,0 L429,0 Z M392,116 L261,246 L130,116 L392,116 Z M429,135 C425,135 421,134 418,133 L440,111 C444,107 446,100 443,94 C441,88 435,85 429,85 L378,85 C378,84 377,84 377,83 C377,55 401,32 429,32 C457,32 481,55 481,83 C481,112 458,135 429,135 L429,135 Z" id="Shape"></path>
        </g>
    </g>
</svg>