<?xml version="1.0" encoding="UTF-8" standalone="no"?>
<svg width="512px" height="512px" viewBox="0 0 512 512" version="1.1" xmlns="http://www.w3.org/2000/svg" xmlns:xlink="http://www.w3.org/1999/xlink">
    <!-- Generator: Sketch 3.8.3 (29802) - http://www.bohemiancoding.com/sketch -->
    <title>icon-close-semantic</title>
    <desc>Created with Sketch.</desc>
    <defs></defs>
    <g id="Page-1" stroke="none" stroke-width="1" fill="none" fill-rule="evenodd">
        <g id="icon-close-semantic" fill="#000000">
            <g id="Page-1">
                <g id="icon-close-semantic">
                    <path d="M512,412.013468 C512,423.506173 507.977555,433.274971 499.93266,441.319865 L441.319865,499.93266 C433.274971,507.977555 423.506173,512 412.013468,512 C400.520763,512 390.751964,507.977555 382.707071,499.93266 L256,373.225589 L129.292929,499.93266 C121.248036,507.977555 111.479237,512 99.986532,512 C88.493827,512 78.7250282,507.977555 70.6801347,499.93266 L12.0673401,441.319865 C4.02244669,433.274971 0,423.506173 0,412.013468 C0,400.520763 4.02244669,390.751964 12.0673401,382.707071 L138.774411,256 L12.0673401,129.292929 C4.02244669,121.248036 0,111.479237 0,99.986532 C0,88.493827 4.02244669,78.7250282 12.0673401,70.6801347 L70.6801347,12.0673401 C78.7250282,4.02244669 88.493827,0 99.986532,0 C111.479237,0 121.248036,4.02244669 129.292929,12.0673401 L256,138.774411 L382.707071,12.0673401 C390.751964,4.02244669 400.520763,0 412.013468,0 C423.506173,0 433.274971,4.02244669 441.319865,12.0673401 L499.93266,70.6801347 C507.977555,78.7250282 512,88.493827 512,99.986532 C512,111.479237 507.977555,121.248036 499.93266,129.292929 L373.225589,256 L499.93266,382.707071 C507.977555,390.751964 512,400.520763 512,412.013468 L512,412.013468 L512,412.013468 Z"></path>
                </g>
            </g>
        </g>
    </g>
</svg>