<?xml version="1.0" encoding="UTF-8" standalone="no"?>
<svg width="512px" height="376px" viewBox="0 0 512 376" version="1.1" xmlns="http://www.w3.org/2000/svg" xmlns:xlink="http://www.w3.org/1999/xlink">
    <!-- Generator: Sketch 3.8.3 (29802) - http://www.bohemiancoding.com/sketch -->
    <title>icon-quick-bites-fill</title>
    <desc>Created with Sketch.</desc>
    <defs></defs>
    <g id="Page-1" stroke="none" stroke-width="1" fill="none" fill-rule="evenodd">
        <g id="icon-quick-bites-fill" fill="#000000">
            <path d="M485,291 L24,291 C19,291 15,295 15,299 L15,325 C15,353 38,376 66,376 L442,376 C471,376 494,353 494,325 L494,299 C494,295 490,291 485,291 L485,291 Z M494,212 L18,212 C8,212 0,221 0,231 L0,248 C0,258 8,266 18,266 L494,266 C504,266 512,258 512,248 L512,231 C512,221 504,212 494,212 L494,212 Z M24,188 L485,188 C490,188 494,184 494,180 L494,145 C494,65 428,0 348,0 L160,0 C80,0 15,65 15,145 L15,180 C15,184 19,188 24,188 L24,188 Z M355,86 C364,86 371,93 371,102 C371,110 364,117 355,117 C347,117 339,110 339,102 C340,93 347,86 355,86 L355,86 Z M307,47 C316,47 323,54 323,63 C323,71 316,79 307,79 C298,79 291,71 291,63 C291,54 298,47 307,47 L307,47 Z M254,86 C263,86 270,93 270,102 C270,110 263,117 254,117 C246,117 238,110 238,102 C239,93 246,86 254,86 L254,86 Z M201,47 C210,47 217,54 217,63 C217,71 210,79 201,79 C193,79 186,71 186,63 C186,54 193,47 201,47 L201,47 Z M143,86 C152,86 159,93 159,102 C159,110 152,117 143,117 C134,117 127,110 127,102 C127,93 134,86 143,86 L143,86 Z" id="Shape"></path>
        </g>
    </g>
</svg>