<?xml version="1.0" encoding="UTF-8" standalone="no"?>
<svg width="266px" height="512px" viewBox="0 0 266 512" version="1.1" xmlns="http://www.w3.org/2000/svg" xmlns:xlink="http://www.w3.org/1999/xlink">
    <!-- Generator: Sketch 3.8.3 (29802) - http://www.bohemiancoding.com/sketch -->
    <title>icon-facebook-semantic</title>
    <desc>Created with Sketch.</desc>
    <defs></defs>
    <g id="Page-1" stroke="none" stroke-width="1" fill="none" fill-rule="evenodd">
        <g id="icon-facebook-semantic" fill="#000000">
            <g id="Page-1">
                <g id="icon-facebook-semantic">
                    <path d="M265.846154,3.69230769 L265.846154,84.9230769 L217.538462,84.9230769 C199.897436,84.9230769 188,88.6153846 181.846154,96 C175.692308,103.384615 172.615385,114.461538 172.615385,129.230769 L172.615385,187.384615 L262.769231,187.384615 L250.769231,278.461538 L172.615385,278.461538 L172.615385,512 L78.4615385,512 L78.4615385,278.461538 L0,278.461538 L0,187.384615 L78.4615385,187.384615 L78.4615385,120.307692 C78.4615385,82.1538462 89.1282052,52.5641025 110.461538,31.5384615 C131.794872,10.5128205 160.205128,0 195.692308,0 C225.846154,0 249.230769,1.23076923 265.846154,3.69230769 L265.846154,3.69230769 L265.846154,3.69230769 Z"></path>
                </g>
            </g>
        </g>
    </g>
</svg>