<?xml version="1.0" encoding="UTF-8" standalone="no"?>
<svg width="512px" height="513px" viewBox="0 0 512 513" version="1.1" xmlns="http://www.w3.org/2000/svg" xmlns:xlink="http://www.w3.org/1999/xlink">
    <!-- Generator: Sketch 3.8.3 (29802) - http://www.bohemiancoding.com/sketch -->
    <title>icon-play-admin</title>
    <desc>Created with Sketch.</desc>
    <defs></defs>
    <g id="Page-1" stroke="none" stroke-width="1" fill="none" fill-rule="evenodd">
        <g id="icon-play-admin" fill="#000000">
            <path d="M15,513 C13,513 10,512 7,511 C3,508 0,503 0,498 L0,16 C0,11 3,6 7,3 C12,0 18,0 22,3 L504,243 C509,246 512,251 512,257 C512,263 509,268 504,271 L22,511 C20,512 18,513 15,513 L15,513 Z M31,41 L31,473 L462,257 L31,41 Z" id="Shape"></path>
        </g>
    </g>
</svg>