<?xml version="1.0" encoding="UTF-8" standalone="no"?>
<svg width="512px" height="430px" viewBox="0 0 512 430" version="1.1" xmlns="http://www.w3.org/2000/svg" xmlns:xlink="http://www.w3.org/1999/xlink">
    <!-- Generator: Sketch 3.8.3 (29802) - http://www.bohemiancoding.com/sketch -->
    <title>icon-pop-up-restaurant-fill</title>
    <desc>Created with Sketch.</desc>
    <defs></defs>
    <g id="Page-1" stroke="none" stroke-width="1" fill="none" fill-rule="evenodd">
        <g id="icon-pop-up-restaurant-fill" fill="#000000">
            <path d="M236,308 L193,308 C187,308 183,313 183,320 L183,348 C183,355 187,360 193,360 L236,360 C241,360 246,355 246,348 L246,320 C246,313 241,308 236,308 L236,308 Z M417,179 C417,179 417,179 417,178 L387,121 C384,116 379,113 373,113 L145,113 C139,113 134,116 131,121 L101,178 L101,179 L101,180 C100,182 100,184 100,185 C100,185 100,185 100,186 L100,197 C100,217 107,235 119,246 L119,415 C119,423 126,430 135,430 L383,430 C392,430 398,423 398,415 L398,243 C410,232 418,215 418,197 L418,186 C418,186 418,186 418,185 L418,180 C417,180 417,180 417,179 L417,179 Z M364,143 L378,170 L345,170 L339,143 L364,143 Z M270,143 L307,143 L314,170 L270,170 L270,143 Z M212,143 L239,143 L239,170 L205,170 L212,143 Z M200,201 L239,201 L239,231 C234,236 228,239 219,239 C210,239 206,237 200,227 L200,201 Z M154,143 L180,143 L173,170 L140,170 L154,143 Z M131,201 L169,201 L169,223 C165,225 157,227 150,227 C139,227 132,214 131,201 L131,201 Z M262,348 C262,364 251,377 236,377 L193,377 C178,377 167,364 167,348 L167,320 C167,304 178,291 193,291 L236,291 C251,291 262,304 262,320 L262,348 Z M270,201 L318,201 L318,227 C313,235 305,239 293,239 C286,239 276,237 270,231 L270,201 Z M361,393 C361,395 360,397 360,399 L294,399 C293,397 292,395 292,393 L292,306 C292,298 299,291 308,291 L346,291 C354,291 361,298 361,306 L361,393 Z M364,227 C359,227 353,226 349,224 L349,201 L388,201 C386,215 375,227 364,227 L364,227 Z M496,246 L461,246 C452,246 445,253 445,262 C445,270 452,277 461,277 L496,277 C505,277 512,270 512,262 C512,253 505,246 496,246 L496,246 Z M484,333 L452,316 C445,312 436,314 431,322 C427,329 430,338 437,342 L469,360 C471,361 474,362 476,362 C482,362 487,359 490,354 C494,346 491,337 484,333 L484,333 Z M454,203 C456,203 459,203 460,202 L493,188 C501,185 505,176 501,168 C498,160 489,156 481,160 L448,174 C441,177 437,186 440,194 C443,200 448,203 454,203 L454,203 Z M67,262 C67,253 60,246 51,246 L16,246 C7,246 0,253 0,262 C0,270 7,277 16,277 L51,277 C60,277 67,270 67,262 L67,262 Z M60,316 L28,333 C21,337 18,346 23,354 C25,359 30,362 36,362 C39,362 41,361 44,360 L75,343 C82,339 85,329 81,322 C76,314 67,312 60,316 L60,316 Z M19,188 L52,202 C54,203 56,203 58,203 C63,203 69,200 72,194 C75,186 71,177 63,174 L30,160 C23,156 14,160 10,168 C7,176 11,185 19,188 L19,188 Z M260,66 C268,66 275,60 275,51 L275,15 C275,7 268,0 260,0 C251,0 244,7 244,15 L244,51 C244,60 251,66 260,66 L260,66 Z M178,69 C181,74 186,77 192,77 C194,77 197,76 199,75 C207,71 209,62 205,54 L188,23 C184,16 175,13 167,17 C160,21 157,30 161,38 L178,69 Z M327,77 C329,77 331,78 333,78 C339,78 345,74 347,68 L361,36 C364,28 361,19 353,15 C345,12 336,16 333,23 L319,56 C316,64 319,73 327,77 L327,77 Z" id="Shape"></path>
        </g>
    </g>
</svg>