<?xml version="1.0" encoding="UTF-8" standalone="no"?>
<svg width="512px" height="512px" viewBox="0 0 512 512" version="1.1" xmlns="http://www.w3.org/2000/svg" xmlns:xlink="http://www.w3.org/1999/xlink">
    <!-- Generator: Sketch 3.8.3 (29802) - http://www.bohemiancoding.com/sketch -->
    <title>icon-veg-non-veg-circle</title>
    <desc>Created with Sketch.</desc>
    <defs></defs>
    <g id="Page-1" stroke="none" stroke-width="1" fill="none" fill-rule="evenodd">
        <g id="icon-veg-non-veg-circle" fill="#000000">
            <path d="M256,0 C115,0 0,115 0,256 C0,397 115,512 256,512 C397,512 512,397 512,256 C512,115 397,0 256,0 L256,0 Z M256,481 C132,481 31,380 31,256 C31,132 132,31 256,31 C380,31 481,132 481,256 C481,380 380,481 256,481 L256,481 Z M390,256 C390,330 330,390 256,390 C182,390 122,330 122,256 C122,182 182,122 256,122 C330,122 390,182 390,256 L390,256 Z" id="Shape"></path>
        </g>
    </g>
</svg>