<?xml version="1.0" encoding="UTF-8" standalone="no"?>
<svg width="413px" height="450px" viewBox="0 0 413 450" version="1.1" xmlns="http://www.w3.org/2000/svg" xmlns:xlink="http://www.w3.org/1999/xlink">
    <!-- Generator: Sketch 39 (31667) - http://www.bohemiancoding.com/sketch -->
    <title>open in app</title>
    <desc>Created with Sketch.</desc>
    <defs></defs>
    <g id="icons" stroke="none" stroke-width="1" fill="none" fill-rule="evenodd">
        <path d="M46.5510836,300 L46.5510836,68.4891641 C46.5510836,56.3962848 57.0464396,46.5510836 69.9566563,46.5510836 L236.619195,46.5510836 C249.139319,46.5510836 259.337461,56.0990712 259.337461,67.8390093 L259.337461,93.1021672 C259.337461,105.956656 269.758514,116.377709 282.613003,116.377709 C295.467492,116.377709 305.888545,105.956656 305.888545,93.1021672 L305.888545,67.8390093 C305.888545,30.4272446 274.811146,0 236.619195,0 L69.9566563,0 C31.3931889,0 0,30.7244582 0,68.4891641 L0,385.393189 C0,421.021672 29.5727554,450 65.9256966,450 L239.77709,450 C276.241486,450 305.888545,420.947368 305.888545,385.226006 L305.888545,248.266254 C305.888545,235.430341 295.467492,224.990712 282.613003,224.990712 C269.758514,224.990712 259.337461,235.430341 259.337461,248.266254 L259.337461,300 L46.5510836,300 Z M46.5510836,339.878638 L46.5510836,385.393189 C46.5510836,395.349845 55.244582,403.448916 65.9256966,403.448916 L239.77709,403.448916 C250.383901,403.448916 259.337461,395.108359 259.337461,385.226006 L259.337461,339.878638 L46.5510836,339.878638 Z M355.04816,189.507121 L340.62695,203.985688 C334.135454,210.477184 334.175157,220.978718 340.646802,227.430512 C343.882625,230.666334 348.130882,232.27432 352.359288,232.27432 C356.627398,232.27432 360.855804,230.646483 364.091626,227.390808 L405.561768,185.801556 C414.792796,176.510974 414.792796,161.443555 405.680878,152.291935 L365.381985,110.901199 C358.969895,104.310445 348.468361,104.211186 341.937161,110.563721 C335.346406,116.975811 335.227296,127.457494 341.599682,134.028397 L356.791343,149.628483 L208.760784,149.628483 C200.192121,149.628483 193.233437,158.564422 193.233437,169.567802 C193.233437,180.571182 200.192121,189.507121 208.760784,189.507121 L355.04816,189.507121 Z M374.999839,169.476088 L375.565892,168.907784 L374.968862,168.294703 C374.98804,168.685566 374.998448,169.079469 374.999839,169.476088 Z" id="open-in-app" fill="#000000"></path>
    </g>
</svg>