<?xml version="1.0" encoding="UTF-8" standalone="no"?>
<svg width="512px" height="512px" viewBox="0 0 512 512" version="1.1" xmlns="http://www.w3.org/2000/svg" xmlns:xlink="http://www.w3.org/1999/xlink">
    <!-- Generator: Sketch 3.8.3 (29802) - http://www.bohemiancoding.com/sketch -->
    <title>icon-club-fill</title>
    <desc>Created with Sketch.</desc>
    <defs></defs>
    <g id="Page-1" stroke="none" stroke-width="1" fill="none" fill-rule="evenodd">
        <g id="icon-club-fill" fill="#000000">
            <path d="M180,298 C180,317 195,332 214,332 C233,332 249,317 249,298 C249,279 233,263 214,263 C195,263 180,279 180,298 L180,298 Z M230,298 C230,306 223,313 214,313 C206,313 199,306 199,298 C199,289 206,282 214,282 C223,282 230,289 230,298 L230,298 Z M497,83 L462,83 L462,57 C462,30 443,0 413,0 C382,0 365,29 365,57 L365,83 L15,84 C7,84 0,91 0,99 L0,497 C0,505 7,512 15,512 L497,512 C505,512 512,505 512,497 L512,98 C512,90 505,83 497,83 L497,83 Z M271,460 C253,467 234,470 214,470 C119,470 42,393 42,298 C42,203 119,125 214,125 C288,125 353,172 377,242 C380,250 376,258 368,261 C360,264 351,260 348,252 C328,195 275,156 214,156 C136,156 73,220 73,298 C73,376 136,439 214,439 C230,439 246,437 261,431 C270,429 278,433 281,441 C284,449 279,457 271,460 L271,460 Z M279,298 C279,334 250,363 214,363 C178,363 149,334 149,298 C149,262 178,233 214,233 C250,233 279,262 279,298 L279,298 Z M432,116 L428,116 L428,272 C428,276 426,279 424,282 L381,330 L398,347 C404,353 404,363 398,369 L360,407 C350,417 337,422 323,422 C309,422 295,417 285,407 C265,387 265,353 285,333 L324,294 C330,289 339,289 345,294 L359,308 L397,266 L397,116 L396,116 L396,57 L396,57 C396,49 400,30 413,30 C426,30 432,48 432,57 L432,116 Z M307,354 C298,363 298,377 307,386 C315,394 330,394 338,386 L366,358 L334,327 L307,354 Z" id="Shape"></path>
        </g>
    </g>
</svg>