<?xml version="1.0" encoding="UTF-8" standalone="no"?>
<svg width="512px" height="459px" viewBox="0 0 512 459" version="1.1" xmlns="http://www.w3.org/2000/svg" xmlns:xlink="http://www.w3.org/1999/xlink">
    <!-- Generator: Sketch 3.8.3 (29802) - http://www.bohemiancoding.com/sketch -->
    <title>icon-deli-fill</title>
    <desc>Created with Sketch.</desc>
    <defs></defs>
    <g id="Page-1" stroke="none" stroke-width="1" fill="none" fill-rule="evenodd">
        <g id="icon-deli-fill" fill="#000000">
            <path d="M142,426 C153,407 154,381 145,351 C120,264 56,267 44,268 C27,275 13,290 6,311 C-1,332 -2,357 6,382 C18,427 53,459 89,459 C94,459 100,458 105,457 L105,457 C106,456 108,456 110,455 C119,451 133,442 142,426 L142,426 Z M62,397 C56,399 50,394 47,386 C44,378 47,370 53,369 C59,367 65,372 68,379 C70,387 68,395 62,397 L62,397 Z M78,349 C72,351 66,346 63,338 C60,330 63,322 69,321 C75,319 81,324 84,331 C87,339 84,347 78,349 L78,349 Z M110,397 C104,398 98,393 95,386 C92,378 95,370 101,368 C107,367 113,371 116,379 C119,387 116,395 110,397 L110,397 Z M252,274 C278,253 306,227 334,194 C326,186 317,178 307,171 C282,154 255,146 242,142 C223,166 200,188 174,207 C189,213 208,224 226,241 C237,251 246,263 252,274 L252,274 Z M511,103 C507,84 487,72 459,72 C453,72 447,72 440,74 C438,74 436,75 434,75 C435,73 435,72 435,70 C440,34 426,4 402,1 C378,-2 357,23 352,59 C351,70 351,80 353,88 C338,86 322,86 307,91 C286,97 268,108 254,125 C271,129 295,138 318,154 C328,161 338,168 347,177 C360,160 374,141 387,121 C390,116 396,115 401,117 C406,120 407,127 404,131 C390,154 375,175 361,193 C378,216 392,247 393,288 C403,278 413,268 421,258 C422,257 422,257 423,256 C442,230 448,196 439,165 C438,162 437,160 436,158 L437,158 C443,158 450,158 456,156 C471,153 486,147 495,139 C508,128 513,115 511,103 L511,103 Z M407,66 C404,87 393,99 390,99 C387,98 379,85 382,63 C385,42 395,30 399,30 C402,31 409,44 407,66 L407,66 Z M477,116 C470,121 461,125 450,127 C446,128 442,128 437,128 C426,128 419,126 416,123 L414,121 C414,121 415,118 420,114 C426,109 435,105 446,103 C450,102 455,101 459,101 C474,101 482,106 482,108 C482,109 481,112 477,116 L477,116 Z M347,209 C318,244 288,272 262,293 C275,323 276,355 272,384 C309,361 343,336 373,308 C376,270 367,237 347,209 L347,209 Z M245,306 C209,332 180,346 166,352 C175,385 172,413 159,437 C159,438 158,438 158,439 C190,427 220,413 250,397 C257,359 254,330 245,306 L245,306 Z M160,332 C174,326 202,312 236,286 C212,244 170,226 154,221 C133,234 111,245 87,254 C112,263 142,284 160,332 L160,332 Z" id="Shape"></path>
        </g>
    </g>
</svg>