<?xml version="1.0" encoding="UTF-8" standalone="no"?>
<svg width="471px" height="450px" viewBox="0 0 471 450" version="1.1" xmlns="http://www.w3.org/2000/svg" xmlns:xlink="http://www.w3.org/1999/xlink">
    <!-- Generator: Sketch 39 (31667) - http://www.bohemiancoding.com/sketch -->
    <title>search</title>
    <desc>Created with Sketch.</desc>
    <defs></defs>
    <g id="icons" stroke="none" stroke-width="1" fill="none" fill-rule="evenodd">
        <path d="M197.868488,50.0561152 C191.280372,50.0561152 184.619859,50.4904965 177.923148,51.4135567 C138.828833,56.716628 104.132629,76.9334563 80.2235603,108.335602 C56.3325905,139.737748 46.1065314,178.560574 51.4096028,217.654889 C56.7307733,256.767302 76.9295024,291.463506 108.331648,315.354476 C139.733794,339.227346 178.592819,349.471505 217.650935,344.168433 C256.745249,338.865362 291.441453,318.666633 315.350522,287.264487 C339.241492,255.844242 349.467551,217.039515 344.182579,177.927102 C334.119413,103.919393 270.591152,50.0561152 197.868488,50.0561152 M359.221032,312.024696 C388.303823,271.015007 400.560045,221.279244 393.756341,171.212291 L393.756341,171.194192 C379.077874,63.1599502 279.20638,-12.8929705 171.190238,1.82169505 C118.847295,8.93468834 72.3865983,35.9930216 40.4233765,78.0375087 C8.42395628,120.081996 -5.27715294,172.044855 1.83584035,224.387798 C8.93073443,276.730741 35.9890677,323.173339 78.0335548,355.172759 C112.802156,381.633818 154.394162,395.588316 197.361709,395.588316 C206.320823,395.588316 215.352334,394.972943 224.365745,393.760295 C262.226101,388.61715 296.992171,373.046167 325.434486,348.928922 L428.276983,443.411884 C433.073276,447.809994 439.136514,450 445.199753,450 C451.950762,450 458.683671,447.285117 463.624758,441.909649 C472.963956,431.719788 472.312384,415.90107 462.122523,406.561873 L359.221025,312.024705 Z" id="search" fill="#000000"></path>
    </g>
</svg>