<?xml version="1.0" encoding="UTF-8" standalone="no"?>
<svg width="514px" height="513px" viewBox="0 0 514 513" version="1.1" xmlns="http://www.w3.org/2000/svg" xmlns:xlink="http://www.w3.org/1999/xlink">
    <!-- Generator: Sketch 3.8.3 (29802) - http://www.bohemiancoding.com/sketch -->
    <title>icon-credit-cards</title>
    <desc>Created with Sketch.</desc>
    <defs></defs>
    <g id="Page-1" stroke="none" stroke-width="1" fill="none" fill-rule="evenodd">
        <g id="icon-credit-cards" fill="#000000">
            <path d="M269,16 L17,268 C-5,290 -5,325 17,347 L166,496 C188,518 223,518 245,496 L497,244 C519,222 519,187 497,165 L348,16 C326,-5 291,-5 269,16 L269,16 Z M38,290 L291,37 C301,27 316,27 327,37 L345,56 L57,344 L38,325 C28,315 28,300 38,290 L38,290 Z M476,222 L223,475 C213,485 198,485 187,475 L78,365 L366,77 L476,186 C486,197 486,212 476,222 L476,222 Z" id="Shape"></path>
        </g>
    </g>
</svg>