<?xml version="1.0" encoding="UTF-8" standalone="no"?>
<svg width="299px" height="512px" viewBox="0 0 299 512" version="1.1" xmlns="http://www.w3.org/2000/svg" xmlns:xlink="http://www.w3.org/1999/xlink">
    <!-- Generator: Sketch 3.8.3 (29802) - http://www.bohemiancoding.com/sketch -->
    <title>icon-left-angle-semantic</title>
    <desc>Created with Sketch.</desc>
    <defs></defs>
    <g id="Page-1" stroke="none" stroke-width="1" fill="none" fill-rule="evenodd">
        <g id="icon-left-angle-semantic" fill="#000000">
            <g id="Page-1">
                <g id="icon-left-angle-semantic">
                    <path d="M298.581162,42.5811623 C298.581162,47.0273881 296.871076,50.9605878 293.450902,54.3807615 L91.8316633,256 L293.450902,457.619238 C296.871076,461.039412 298.581162,464.972612 298.581162,469.418838 C298.581162,473.865064 296.871076,477.798263 293.450902,481.218437 L267.799599,506.869739 C264.379425,510.289913 260.446226,512 256,512 C251.553774,512 247.620575,510.289913 244.200401,506.869739 L5.13026052,267.799599 C1.71008684,264.379425 0,260.446226 0,256 C0,251.553774 1.71008684,247.620575 5.13026052,244.200401 L244.200401,5.13026052 C247.620575,1.71008684 251.553774,0 256,0 C260.446226,0 264.379425,1.71008684 267.799599,5.13026052 L293.450902,30.7815631 C296.871076,34.2017368 298.581162,38.1349365 298.581162,42.5811623 L298.581162,42.5811623 L298.581162,42.5811623 Z"></path>
                </g>
            </g>
        </g>
    </g>
</svg>