<?xml version="1.0" encoding="UTF-8" standalone="no"?>
<svg width="512px" height="380px" viewBox="0 0 512 380" version="1.1" xmlns="http://www.w3.org/2000/svg" xmlns:xlink="http://www.w3.org/1999/xlink">
    <!-- Generator: Sketch 3.8.3 (29802) - http://www.bohemiancoding.com/sketch -->
    <title>icon-rating-5</title>
    <desc>Created with Sketch.</desc>
    <defs></defs>
    <g id="Page-1" stroke="none" stroke-width="1" fill="none" fill-rule="evenodd">
        <g id="icon-rating-5" fill="#000000">
            <path d="M455,0 L57,0 C26,0 0,25 0,57 L0,323 C0,355 26,380 57,380 L455,380 C486,380 512,355 512,323 L512,57 C512,25 486,0 455,0 L455,0 Z M198,267 C186,283 169,292 148,292 C131,292 116,287 105,278 C94,269 88,256 86,241 L122,237 C123,245 126,252 131,256 C136,261 141,263 148,263 C155,263 162,260 167,254 C172,248 175,239 175,227 C175,215 172,207 167,201 C162,195 155,192 147,192 C137,192 127,197 119,206 L90,202 L109,104 L203,104 L203,138 L136,138 L130,170 C138,165 146,164 155,164 C171,164 184,170 195,181 C206,193 212,208 212,226 C212,241 207,255 198,267 L198,267 Z M274,289 L238,289 L238,253 L274,253 L274,289 Z M406,273 C396,285 382,292 364,292 C346,292 331,285 320,271 C309,257 303,232 303,196 C303,161 310,136 322,120 C332,107 346,101 364,101 C382,101 396,107 407,120 C419,136 425,161 425,196 C425,232 419,257 406,273 L406,273 Z M376,135 C372,132 368,131 364,131 C360,131 356,132 353,135 C349,138 346,142 345,150 C342,159 341,174 341,196 C341,218 342,234 344,242 C347,250 349,255 353,258 C356,261 360,262 364,262 C369,262 372,261 376,258 C379,255 382,250 384,243 C386,234 387,218 387,197 C387,175 386,160 384,151 C382,143 379,138 376,135 L376,135 Z" id="Shape"></path>
        </g>
    </g>
</svg>