<?xml version="1.0" encoding="UTF-8" standalone="no"?>
<svg width="508px" height="474px" viewBox="0 0 508 474" version="1.1" xmlns="http://www.w3.org/2000/svg" xmlns:xlink="http://www.w3.org/1999/xlink">
    <!-- Generator: Sketch 3.8.3 (29802) - http://www.bohemiancoding.com/sketch -->
    <title>icon-menu-new-line</title>
    <desc>Created with Sketch.</desc>
    <defs></defs>
    <g id="Page-1" stroke="none" stroke-width="1" fill="none" fill-rule="evenodd">
        <g id="icon-menu-new-line" fill="#000000">
            <path d="M167,65 C162,65 157,70 157,75 L157,146 C157,159 147,171 134,174 L134,75 C134,69 130,65 124,65 C119,65 114,69 114,75 L114,174 C101,171 91,159 91,145 L91,75 C91,69 87,65 81,65 C76,65 71,69 71,75 L71,145 C71,170 90,191 114,195 L114,367 C114,373 118,378 124,378 C130,378 134,373 134,367 L134,195 C158,191 177,170 177,145 L177,75 C177,69 173,65 167,65 L167,65 Z M381,65 L380,65 C374,65 369,69 369,75 L369,367 C369,373 374,378 380,378 C385,378 390,373 390,367 L390,281 L423,281 C428,281 433,276 433,271 L433,114 C433,87 411,65 383,65 L381,65 L381,65 Z M412,115 L412,261 L390,261 L390,86 C402,89 412,101 412,115 L412,115 Z M497,8 C469,2 442,0 418,0 C321,0 274,40 254,64 C235,40 187,0 91,0 C66,0 39,2 11,8 C5,9 0,15 0,21 L0,422 C0,427 2,431 6,434 C9,436 14,437 18,435 C18,435 48,426 91,426 C147,426 199,441 246,472 C248,474 251,474 253,474 L254,474 L255,474 C258,474 260,474 262,472 C309,441 362,426 418,426 C461,426 490,435 490,435 C494,437 499,436 503,434 C506,431 508,427 508,422 L508,21 C508,15 504,9 497,8 L497,8 Z M239,436 C194,411 143,398 90,398 C63,398 42,402 27,405 L27,33 C49,29 71,27 90,27 C195,27 232,78 239,90 L239,436 Z M481,405 C466,402 445,398 418,398 C365,398 314,411 269,436 L269,91 C276,79 313,28 418,28 C438,28 459,29 481,33 L481,405 Z" id="Shape"></path>
        </g>
    </g>
</svg>