<?xml version="1.0" encoding="UTF-8" standalone="no"?>
<svg width="513px" height="508px" viewBox="0 0 513 508" version="1.1" xmlns="http://www.w3.org/2000/svg" xmlns:xlink="http://www.w3.org/1999/xlink">
    <!-- Generator: Sketch 3.8.3 (29802) - http://www.bohemiancoding.com/sketch -->
    <title>icon-dhaba-fill</title>
    <desc>Created with Sketch.</desc>
    <defs></defs>
    <g id="Page-1" stroke="none" stroke-width="1" fill="none" fill-rule="evenodd">
        <g id="icon-dhaba-fill" fill="#000000">
            <path d="M506,149 C501,139 491,132 480,131 C458,127 439,146 435,170 C434,178 435,186 437,194 L341,194 L471,29 L489,29 C497,29 504,23 504,15 C504,6 497,0 489,0 L464,0 C460,0 456,2 453,6 L304,194 L76,193 C79,186 79,178 78,170 C75,146 55,128 33,131 C24,132 15,137 10,145 C2,155 -1,168 1,182 C3,198 13,212 27,218 C48,292 142,344 256,344 C370,344 465,292 486,218 C499,212 509,199 512,182 C514,169 512,158 506,149 L506,149 Z M476,159 L476,159 C479,159 481,162 481,164 C483,167 484,172 484,177 C482,186 477,192 472,192 L471,192 C469,192 468,190 467,189 C464,185 463,180 464,174 C465,165 471,159 476,159 L476,159 Z M33,162 C34,161 36,159 38,159 C43,159 49,165 50,174 C51,179 50,184 48,188 C47,189 45,191 42,192 L42,192 C37,192 32,186 30,177 C30,171 31,166 33,162 L33,162 Z M306,376 C301,377 296,380 294,384 L290,391 L272,360 C267,351 252,351 247,360 L229,391 L225,384 C223,379 218,376 213,376 C207,376 203,379 200,383 C190,401 166,443 166,462 C166,486 188,508 212,508 L307,508 C319,508 330,503 339,494 C348,485 353,473 353,462 C353,443 330,401 319,383 C317,379 312,376 306,376 L306,376 Z M307,479 L212,479 C204,479 195,470 195,462 C196,456 203,440 212,422 L215,429 C217,434 222,437 228,437 C233,437 238,434 241,430 L260,397 L279,430 C281,434 286,437 292,437 C297,437 302,434 304,429 L308,422 C317,440 324,456 324,462 L307,479 Z" id="Shape"></path>
        </g>
    </g>
</svg>