<?xml version="1.0" encoding="UTF-8" standalone="no"?>
<svg width="512px" height="512px" viewBox="0 0 512 512" version="1.1" xmlns="http://www.w3.org/2000/svg" xmlns:xlink="http://www.w3.org/1999/xlink">
    <!-- Generator: Sketch 3.8.3 (29802) - http://www.bohemiancoding.com/sketch -->
    <title>icon-wishlist</title>
    <desc>Created with Sketch.</desc>
    <defs></defs>
    <g id="Page-1" stroke="none" stroke-width="1" fill="none" fill-rule="evenodd">
        <g id="icon-wishlist" fill="#000000">
            <path d="M496,0 L16,0 C7,0 0,7 0,16 C0,25 7,32 16,32 L87,32 L87,496 C87,502 91,508 97,511 C103,513 110,512 115,508 L256,376 L398,508 C401,510 405,512 409,512 C411,512 413,511 415,511 C421,508 425,502 425,496 L425,31 L496,31 C505,31 512,24 512,16 C512,7 505,0 496,0 L496,0 Z M392,459 L267,342 C261,336 251,336 245,342 L119,459 L119,31 L392,31 L392,459 Z" id="Shape"></path>
        </g>
    </g>
</svg>