<?xml version="1.0" encoding="UTF-8" standalone="no"?>
<svg width="512px" height="496px" viewBox="0 0 512 496" version="1.1" xmlns="http://www.w3.org/2000/svg" xmlns:xlink="http://www.w3.org/1999/xlink">
    <!-- Generator: Sketch 3.8.3 (29802) - http://www.bohemiancoding.com/sketch -->
    <title>icon-paste</title>
    <desc>Created with Sketch.</desc>
    <defs></defs>
    <g id="Page-1" stroke="none" stroke-width="1" fill="none" fill-rule="evenodd">
        <g id="icon-paste" fill="#000000">
            <path d="M511,302 L511,299 C510,298 510,297 509,297 C509,296 509,295 508,295 L457,236 C457,235 456,235 456,235 C456,235 455,234 454,234 C454,233 453,233 452,232 C451,232 450,232 450,231 L447,231 L446,231 L248,231 C239,231 233,238 233,246 L233,481 C233,490 239,496 248,496 L497,496 C505,496 512,490 512,481 L512,305 C512,304 512,303 511,302 L511,302 Z M461,286 L464,290 L461,290 L461,286 Z M482,466 L262,466 L262,261 L431,261 L431,304 C431,313 438,319 446,319 L482,320 L482,466 Z M430,348 L315,348 C306,348 300,355 300,363 C300,372 306,378 315,378 L430,378 C438,378 445,372 445,363 C445,355 438,348 430,348 L430,348 Z M430,402 L315,402 C306,402 300,409 300,417 C300,425 306,432 315,432 L430,432 C438,432 445,425 445,417 C445,409 438,402 430,402 L430,402 Z M30,141 L99,141 L99,170 C99,178 105,184 114,184 L296,184 C304,184 311,178 311,170 L311,141 L380,141 L380,200 L410,200 L410,126 C410,118 403,111 395,111 L311,111 L311,89 C311,81 304,74 296,74 L266,74 C266,70 267,66 267,62 C267,28 239,0 205,0 C170,0 143,28 143,62 C143,66 143,70 144,74 L114,74 C106,74 99,81 99,89 L99,111 L15,111 C7,111 0,118 0,126 L0,426 C0,434 7,441 15,441 L193,441 L193,411 L30,411 L30,141 Z M129,104 L166,104 C172,104 177,101 180,96 C182,91 182,85 179,81 C175,75 173,69 173,62 C173,44 187,30 205,30 C223,30 238,44 238,62 C238,69 236,75 232,81 C229,85 228,91 231,96 C233,101 239,104 244,104 L282,104 L282,155 L129,155 L129,104 Z M219,62 C219,70 213,76 205,76 C197,76 191,70 191,62 C191,54 197,48 205,48 C213,48 219,54 219,62 L219,62 Z" id="Shape"></path>
        </g>
    </g>
</svg>