<?xml version="1.0" encoding="UTF-8" standalone="no"?>
<svg width="496px" height="512px" viewBox="0 0 496 512" version="1.1" xmlns="http://www.w3.org/2000/svg" xmlns:xlink="http://www.w3.org/1999/xlink">
    <!-- Generator: Sketch 3.8.3 (29802) - http://www.bohemiancoding.com/sketch -->
    <title>icon-patio</title>
    <desc>Created with Sketch.</desc>
    <defs></defs>
    <g id="Page-1" stroke="none" stroke-width="1" fill="none" fill-rule="evenodd">
        <g id="icon-patio" fill="#000000">
            <path d="M495,261 C494,131 391,25 263,17 L263,15 C263,7 256,0 248,0 C239,0 232,7 232,15 L232,17 C103,25 0,133 0,264 C0,273 7,280 15,280 L233,280 L233,481 L181,481 C173,481 166,488 166,497 C166,505 173,512 181,512 L314,512 C323,512 330,505 330,497 C330,488 323,481 314,481 L263,481 L263,280 L282,280 L282,330 C282,339 289,346 298,346 C306,346 313,339 313,330 L313,280 L481,280 C489,280 496,273 496,264 C496,263 496,262 495,261 L495,261 Z M31,249 C39,136 133,47 248,47 C363,47 457,136 464,249 L31,249 Z" id="Shape"></path>
        </g>
    </g>
</svg>