<?xml version="1.0" encoding="UTF-8" standalone="no"?>
<svg width="404px" height="402px" viewBox="0 0 404 402" version="1.1" xmlns="http://www.w3.org/2000/svg" xmlns:xlink="http://www.w3.org/1999/xlink">
    <!-- Generator: Sketch 3.8.3 (29802) - http://www.bohemiancoding.com/sketch -->
    <title>icon-filter-1</title>
    <desc>Created with Sketch.</desc>
    <defs></defs>
    <g id="Page-1" stroke="none" stroke-width="1" fill="none" fill-rule="evenodd">
        <g id="icon-filter-1" fill="#000000">
            <path d="M402,11 C405,19 404,26 398,31 L257,172 L257,384 C257,392 253,398 246,401 C243,402 241,402 239,402 C233,402 229,401 226,397 L153,324 C149,320 147,316 147,311 L147,172 L6,31 C-2.48689958e-14,26 -1,19 2,11 C6,4 11,0 19,0 L385,0 C393,0 398,4 402,11 L402,11 Z" id="Shape"></path>
        </g>
    </g>
</svg>