<?xml version="1.0" encoding="UTF-8" standalone="no"?>
<svg width="512px" height="448px" viewBox="0 0 512 448" version="1.1" xmlns="http://www.w3.org/2000/svg" xmlns:xlink="http://www.w3.org/1999/xlink">
    <!-- Generator: Sketch 3.8.3 (29802) - http://www.bohemiancoding.com/sketch -->
    <title>icon-twitter</title>
    <desc>Created with Sketch.</desc>
    <defs></defs>
    <g id="Page-1" stroke="none" stroke-width="1" fill="none" fill-rule="evenodd">
        <g id="icon-twitter" fill="#000000">
            <path d="M21,167 C21,215 57,259 105,270 C96,272 87,274 77,274 L74,274 C66,273 61,281 64,289 C81,325 116,350 156,350 C120,381 74,399 25,399 C17,399 8,398 0,397 C47,429 102,448 161,448 C354,448 460,276 460,126 L460,112 C480,95 498,76 512,53 C493,62 473,68 452,71 C474,57 490,35 498,8 C478,21 455,30 431,36 C412,14 385,0 355,0 C297,0 250,51 250,113 C250,122 251,131 252,139 C174,135 103,98 52,40 C44,31 29,35 26,47 C23,57 22,67 22,78 C22,117 40,152 68,172 C51,171 41,169 34,164 C33,163 23,156 21,167 L21,167 Z" id="Shape"></path>
        </g>
    </g>
</svg>