<?xml version="1.0" encoding="UTF-8" standalone="no"?>
<svg width="512px" height="380px" viewBox="0 0 512 380" version="1.1" xmlns="http://www.w3.org/2000/svg" xmlns:xlink="http://www.w3.org/1999/xlink">
    <!-- Generator: Sketch 3.8.3 (29802) - http://www.bohemiancoding.com/sketch -->
    <title>icon-rating-4-1</title>
    <desc>Created with Sketch.</desc>
    <defs></defs>
    <g id="Page-1" stroke="none" stroke-width="1" fill="none" fill-rule="evenodd">
        <g id="icon-rating-4-1" fill="#000000">
            <path d="M455,0 L57,0 C26,0 0,25 0,57 L0,323 C0,355 26,380 57,380 L455,380 C486,380 512,355 512,323 L512,57 C512,25 486,0 455,0 L455,0 Z M214,251 L190,251 L190,289 L156,289 L156,251 L79,251 L79,220 L161,101 L191,101 L191,219 L214,219 L214,251 L214,251 Z M274,289 L238,289 L238,253 L274,253 L274,289 Z M406,273 C396,285 382,292 364,292 C346,292 331,285 320,271 C309,257 303,232 303,196 C303,161 310,136 322,120 C332,107 346,101 364,101 C382,101 396,107 407,120 C419,136 425,161 425,196 C425,232 419,257 406,273 L406,273 Z M156,219 L156,156 L113,219 L156,219 Z M376,135 C372,132 368,131 364,131 C360,131 356,132 353,135 C349,138 346,142 345,150 C342,159 341,174 341,196 C341,218 342,234 344,242 C347,250 349,255 353,258 C356,261 360,262 364,262 C369,262 372,261 376,258 C379,255 382,250 384,243 C386,234 387,218 387,197 C387,175 386,160 384,151 C382,143 379,138 376,135 L376,135 Z" id="Shape"></path>
        </g>
    </g>
</svg>