<?xml version="1.0" encoding="UTF-8" standalone="no"?>
<svg width="446px" height="512px" viewBox="0 0 446 512" version="1.1" xmlns="http://www.w3.org/2000/svg" xmlns:xlink="http://www.w3.org/1999/xlink">
    <!-- Generator: Sketch 3.8.3 (29802) - http://www.bohemiancoding.com/sketch -->
    <title>icon-notifications-new-fill</title>
    <desc>Created with Sketch.</desc>
    <defs></defs>
    <g id="Page-1" stroke="none" stroke-width="1" fill="none" fill-rule="evenodd">
        <g id="icon-notifications-new-fill" fill="#000000">
            <path d="M412,407 L34,407 C21,407 8,399 3,386 C-2,373 1,359 11,350 C75,287 110,203 110,113 C110,51 161,0 223,0 C285,0 336,51 336,113 C336,203 371,287 436,350 C445,359 448,373 443,386 C438,399 426,407 412,407 L412,407 Z M157,445 C157,482 186,512 223,512 C260,512 290,482 290,445 L157,445 Z" id="Shape"></path>
        </g>
    </g>
</svg>