<?xml version="1.0" encoding="UTF-8" standalone="no"?>
<svg width="418px" height="510px" viewBox="0 0 418 510" version="1.1" xmlns="http://www.w3.org/2000/svg" xmlns:xlink="http://www.w3.org/1999/xlink">
    <!-- Generator: Sketch 3.8.3 (29802) - http://www.bohemiancoding.com/sketch -->
    <title>icon-metro</title>
    <desc>Created with Sketch.</desc>
    <defs></defs>
    <g id="Page-1" stroke="none" stroke-width="1" fill="none" fill-rule="evenodd">
        <g id="icon-metro" fill="#000000">
            <path d="M414,484 L363,420 C375,413 384,399 384,385 L384,156 C384,107 342,65 293,65 L125,65 C76,65 34,107 34,156 L34,385 C34,399 43,412 55,420 L4,484 C3.10862447e-15,489 -1,495 2,501 C5,507 10,510 16,510 L67,510 C72,510 76,508 80,504 L142,426 L277,426 L339,504 C342,508 346,510 352,510 L402,510 C408,510 414,507 416,501 C419,496 418,489 414,484 L414,484 Z M75,394 C72,394 67,388 66,385 L66,315 L352,315 L352,385 C351,388 346,394 343,394 L75,394 Z M352,173 L352,282 L67,282 L67,173 L352,173 Z M125,97 L293,97 C319,97 342,116 349,141 L69,141 C76,116 99,97 125,97 L125,97 Z M59,478 L51,478 L92,427 L100,427 L59,478 Z M359,478 L318,427 L327,427 L368,478 L359,478 Z M151,341 L117,341 C108,341 101,348 101,357 C101,366 108,374 117,374 L151,374 C159,374 167,366 167,357 C167,348 159,341 151,341 L151,341 Z M301,341 L268,341 C259,341 251,348 251,357 C251,366 259,374 268,374 L301,374 C310,374 318,366 318,357 C318,348 310,341 301,341 L301,341 Z M109,34 L142,34 C147,34 151,30 151,26 L151,8 C151,3 147,0 142,0 L109,0 C104,0 100,3 100,8 L100,26 C100,30 104,34 109,34 L109,34 Z M276,34 L309,34 C314,34 318,30 318,26 L318,8 C318,3 314,0 309,0 L276,0 C271,0 267,3 267,8 L267,26 C268,30 271,34 276,34 L276,34 Z" id="Shape"></path>
        </g>
    </g>
</svg>