<?xml version="1.0" encoding="UTF-8" standalone="no"?>
<svg width="514px" height="514px" viewBox="0 0 514 514" version="1.1" xmlns="http://www.w3.org/2000/svg" xmlns:xlink="http://www.w3.org/1999/xlink">
    <!-- Generator: Sketch 3.8.3 (29802) - http://www.bohemiancoding.com/sketch -->
    <title>icon-plus</title>
    <desc>Created with Sketch.</desc>
    <defs></defs>
    <g id="Page-1" stroke="none" stroke-width="1" fill="none" fill-rule="evenodd">
        <g id="icon-plus" fill="#000000">
            <path d="M498,241 L273,241 L273,16 C273,7 266,0 257,0 C249,0 241,7 241,16 L241,241 L16,241 C7,241 0,249 0,257 C0,266 7,273 16,273 L241,273 L241,498 C241,507 249,514 257,514 C266,514 273,507 273,498 L273,273 L498,273 C507,273 514,266 514,257 C514,248 507,241 498,241 L498,241 Z" id="Shape"></path>
        </g>
    </g>
</svg>