<?xml version="1.0" encoding="UTF-8" standalone="no"?>
<svg width="408px" height="512px" viewBox="0 0 408 512" version="1.1" xmlns="http://www.w3.org/2000/svg" xmlns:xlink="http://www.w3.org/1999/xlink">
    <!-- Generator: Sketch 3.8.3 (29802) - http://www.bohemiancoding.com/sketch -->
    <title>icon-dessert-parlour-fill</title>
    <desc>Created with Sketch.</desc>
    <defs></defs>
    <g id="Page-1" stroke="none" stroke-width="1" fill="none" fill-rule="evenodd">
        <g id="icon-dessert-parlour-fill" fill="#000000">
            <path d="M15,246 C7,246 0,253 0,261 C0,358 83,437 188,444 L188,481 L137,481 C128,481 121,488 121,497 C121,505 128,512 137,512 L271,512 C280,512 287,505 287,497 C287,488 280,481 271,481 L219,481 L219,444 C325,437 408,358 408,261 C408,253 401,246 393,246 L15,246 Z M202,225 C197,198 179,176 154,165 C141,157 123,158 123,158 L121,158 C119,158 117,159 115,159 L68,11 C65,3 57,-2 49,1 C40,3 36,12 38,20 L85,166 C62,178 44,199 39,225 L202,225 Z M370,225 C363,187 329,158 289,158 L286,158 C269,157 256,165 256,165 C231,176 213,198 208,225 L370,225 Z M286,138 C281,112 264,90 241,79 C244,73 246,67 246,60 C246,38 228,20 205,20 C183,20 164,38 164,61 C164,67 166,74 169,79 C145,90 128,112 123,138 C123,138 185,141 202,191 C202,192 224,135 286,138 L286,138 Z M204,70 C199,70 195,66 195,61 C195,55 199,51 204,51 C210,51 214,56 214,61 C214,66 210,70 204,70 L204,70 Z" id="Shape"></path>
        </g>
    </g>
</svg>