<?xml version="1.0" encoding="UTF-8" standalone="no"?>
<svg width="496px" height="512px" viewBox="0 0 496 512" version="1.1" xmlns="http://www.w3.org/2000/svg" xmlns:xlink="http://www.w3.org/1999/xlink">
    <!-- Generator: Sketch 3.8.3 (29802) - http://www.bohemiancoding.com/sketch -->
    <title>icon-trash</title>
    <desc>Created with Sketch.</desc>
    <defs></defs>
    <g id="Page-1" stroke="none" stroke-width="1" fill="none" fill-rule="evenodd">
        <g id="icon-trash" fill="#000000">
            <path d="M480,66 L346,66 L346,15 C346,7 340,0 331,0 L165,0 C156,0 150,7 150,15 L150,66 L16,66 C7,66 0,73 0,82 C0,90 7,97 16,97 L67,97 L67,497 C67,505 74,512 82,512 L414,512 C422,512 429,505 429,497 L429,97 L480,97 C489,97 496,90 496,82 C496,73 489,66 480,66 L480,66 Z M180,31 L315,31 L315,66 L180,66 L180,31 Z M399,481 L97,481 L97,97 L398,97 L398,481 L399,481 Z M165,158 C156,158 150,165 150,173 L150,406 C150,414 156,421 165,421 C173,421 180,414 180,406 L180,173 C180,165 174,158 165,158 L165,158 Z M248,158 C240,158 233,165 233,173 L233,406 C233,414 240,421 248,421 C257,421 263,414 263,406 L263,173 C263,165 257,158 248,158 L248,158 Z M316,173 L316,406 C316,414 323,421 331,421 C340,421 346,414 346,406 L346,173 C346,165 340,158 331,158 C323,158 316,165 316,173 L316,173 Z" id="Shape"></path>
        </g>
    </g>
</svg>