<?xml version="1.0" encoding="UTF-8" standalone="no"?>
<svg width="466px" height="468px" viewBox="0 0 466 468" version="1.1" xmlns="http://www.w3.org/2000/svg" xmlns:xlink="http://www.w3.org/1999/xlink">
    <!-- Generator: Sketch 3.8.3 (29802) - http://www.bohemiancoding.com/sketch -->
    <title>icon-map-area</title>
    <desc>Created with Sketch.</desc>
    <defs></defs>
    <g id="Page-1" stroke="none" stroke-width="1" fill="none" fill-rule="evenodd">
        <g id="icon-map-area" fill="#000000">
            <path d="M177,151 L68,42 L139,46 C150,46 159,38 159,27 C160,17 151,8 141,7 L0,0 L0,133 C0,144 8,152 19,152 C29,152 38,144 38,133 L38,66 L150,178 C154,182 159,184 164,184 C169,184 174,182 177,178 C185,171 185,159 177,151 L177,151 Z M444,1 L444,1 L331,5 C320,6 312,14 313,25 C313,36 322,45 333,43 L399,41 L300,148 C293,156 293,168 301,175 C305,179 310,180 314,180 C319,180 325,178 328,174 L425,70 L424,141 C424,152 432,160 443,160 L443,160 C454,160 462,152 462,141 L465,0 L444,1 Z M462,448 L466,335 C467,324 458,315 448,315 C437,314 428,323 428,333 L425,400 L328,295 C321,288 309,287 301,294 C293,302 293,314 300,321 L395,424 L324,417 C313,416 304,424 303,434 C302,445 310,454 320,455 L461,468 L462,448 L462,448 L462,448 Z M163,294 C155,287 143,288 136,295 L43,398 L43,327 C43,316 35,307 24,307 L24,307 C13,307 5,316 5,326 L4,468 L137,462 C148,461 156,452 155,442 C155,431 146,422 135,423 L68,426 L164,321 C172,314 171,301 163,294 L163,294 Z" id="Shape"></path>
        </g>
    </g>
</svg>