<?xml version="1.0" encoding="UTF-8" standalone="no"?>
<svg width="487px" height="512px" viewBox="0 0 487 512" version="1.1" xmlns="http://www.w3.org/2000/svg" xmlns:xlink="http://www.w3.org/1999/xlink">
    <!-- Generator: Sketch 3.8.3 (29802) - http://www.bohemiancoding.com/sketch -->
    <title>icon-google-plus-semantic</title>
    <desc>Created with Sketch.</desc>
    <defs></defs>
    <g id="Page-1" stroke="none" stroke-width="1" fill="none" fill-rule="evenodd">
        <g id="icon-google-plus-semantic" fill="#000000">
            <g id="Page-1">
                <g id="icon-google-plus-semantic">
                    <path d="M216.307692,244.923077 C216.307692,252.307692 219.589744,259.538462 226.153846,266.615385 C232.717949,273.692308 240.666667,280.666667 250,287.538462 C259.333333,294.410256 268.615385,301.948718 277.846154,310.153846 C287.076923,318.358975 294.974359,329.02564 301.538462,342.153846 C308.102563,355.282052 311.384615,369.846154 311.384615,385.846154 C311.384615,404.307692 306.461538,422.051283 296.615385,439.076923 C281.846154,464.102563 260.205128,482.512822 231.692308,494.307692 C203.179487,506.102563 172.615385,512 140,512 C112.923077,512 87.6410255,507.743591 64.1538462,499.230769 C40.6666668,490.717948 23.0769231,476.615385 11.3846154,456.923077 C3.79487178,444.615385 0,431.179486 0,416.615385 C0,400 4.56410255,384.615385 13.6923077,370.461538 C22.8205128,356.307692 34.9743591,344.512822 50.1538462,335.076923 C77.0256409,318.256409 118.461538,308 174.461538,304.307692 C167.897436,295.692308 163.025641,288.102564 159.846154,281.538462 C156.666667,274.974359 155.076923,267.487179 155.076923,259.076923 C155.076923,251.692308 157.230769,242.974359 161.538462,232.923077 C152.102564,233.74359 145.128205,234.153846 140.615385,234.153846 C110.25641,234.153846 84.6666668,224.25641 63.8461538,204.461538 C43.0256409,184.666667 32.6153846,159.589744 32.6153846,129.230769 C32.6153846,112.410256 36.3076923,96.102564 43.6923077,80.3076923 C51.0769231,64.5128206 61.2307692,51.0769231 74.1538462,40 C89.9487178,26.4615385 108.666667,16.4102564 130.307692,9.84615385 C151.948718,3.28205129 174.25641,0 197.230769,0 L325.846154,0 L283.384615,27.0769231 L243.076923,27.0769231 C258.25641,40 269.74359,53.6410255 277.538462,68 C285.333333,82.3589745 289.230769,98.7692308 289.230769,117.230769 C289.230769,132 286.717949,145.282051 281.692308,157.076923 C276.666667,168.871795 270.615385,178.410256 263.538462,185.692308 C256.461538,192.974359 249.333333,199.641026 242.153846,205.692308 C234.974359,211.74359 228.871795,218.051282 223.846154,224.615385 C218.820513,231.179487 216.307692,237.948718 216.307692,244.923077 L216.307692,244.923077 L216.307692,244.923077 Z M171.384615,215.384615 C179.179487,215.384615 187.179487,213.692308 195.384615,210.307692 C203.589744,206.923077 210.358974,202.461538 215.692308,196.923077 C226.564102,185.230769 232,168.923077 232,148 C232,136.102564 230.25641,123.282051 226.769231,109.538462 C223.282051,95.7948717 218.307692,82.5128206 211.846154,69.6923077 C205.384615,56.8717948 196.717949,46.2564102 185.846154,37.8461538 C174.974359,29.4358974 162.974359,25.2307692 149.846154,25.2307692 C141.230769,25.2307692 132.769231,27.2307692 124.461538,31.2307692 C116.153846,35.2307692 109.435898,40.6153846 104.307692,47.3846154 C94.6666668,59.4871794 89.8461538,75.897436 89.8461538,96.6153846 C89.8461538,106.051282 90.8717948,116.051282 92.9230769,126.615385 C94.9743591,137.179487 98.2051283,147.74359 102.615385,158.307692 C107.025641,168.871795 112.358974,178.358974 118.615385,186.769231 C124.871795,195.179487 132.564102,202.051282 141.692308,207.384615 C150.820513,212.717949 160.717949,215.384615 171.384615,215.384615 L171.384615,215.384615 L171.384615,215.384615 Z M172,484 C183.897436,484 195.333333,482.666668 206.307692,480 C217.282051,477.333332 227.435898,473.333332 236.769231,468 C246.102564,462.666668 253.589744,455.179486 259.230769,445.538462 C264.871795,435.897437 267.692308,424.717948 267.692308,412 C267.692308,406.871794 266.974359,401.846154 265.538462,396.923077 C264.102564,392 262.615385,387.692308 261.076923,384 C259.538462,380.307692 256.769231,376.051283 252.769231,371.230769 C248.769231,366.410255 245.74359,362.820514 243.692308,360.461538 C241.641026,358.102563 237.692308,354.564102 231.846154,349.846154 C226,345.128206 222.25641,342.153846 220.615385,340.923077 C218.974359,339.692308 214.717949,336.615385 207.846154,331.692308 C200.974359,326.769231 197.230769,324.102563 196.615385,323.692308 C193.333333,323.282052 188.410256,323.076923 181.846154,323.076923 C170.974359,323.076923 160.205128,323.794871 149.538462,325.230769 C138.871795,326.666668 127.846154,329.230769 116.461538,332.923077 C105.076923,336.615385 95.1282052,341.333332 86.6153846,347.076923 C78.102564,352.820514 71.0769231,360.461538 65.5384615,370 C60,379.538462 57.2307692,390.358975 57.2307692,402.461538 C57.2307692,416.820514 60.8205129,429.487178 68,440.461538 C75.1794871,451.435898 84.5641025,459.948717 96.1538462,466 C107.74359,472.051283 119.948718,476.564102 132.769231,479.538462 C145.589744,482.512822 158.666667,484 172,484 L172,484 L172,484 Z M421.230769,214.461538 L486.769231,214.461538 L486.769231,247.692308 L421.230769,247.692308 L421.230769,315.076923 L388.923077,315.076923 L388.923077,247.692308 L323.692308,247.692308 L323.692308,214.461538 L388.923077,214.461538 L388.923077,147.692308 L421.230769,147.692308 L421.230769,214.461538 L421.230769,214.461538 L421.230769,214.461538 Z"></path>
                </g>
            </g>
        </g>
    </g>
</svg>