<?xml version="1.0" encoding="UTF-8" standalone="no"?>
<svg width="512px" height="512px" viewBox="0 0 512 512" version="1.1" xmlns="http://www.w3.org/2000/svg" xmlns:xlink="http://www.w3.org/1999/xlink">
    <!-- Generator: Sketch 3.8.3 (29802) - http://www.bohemiancoding.com/sketch -->
    <title>icon-fine-dining-fill</title>
    <desc>Created with Sketch.</desc>
    <defs></defs>
    <g id="Page-1" stroke="none" stroke-width="1" fill="none" fill-rule="evenodd">
        <g id="icon-fine-dining-fill" fill="#000000">
            <path d="M263,415 C249,400 214,365 148,365 L114,365 L114,364 C114,355 107,348 98,348 L15,348 C7,348 0,355 0,364 L0,497 C0,505 7,512 15,512 L98,512 C107,512 114,505 114,497 L114,495 L414,495 C422,495 429,488 429,480 C429,433 344,416 263,415 L263,415 Z M49,472 C44,472 40,468 40,463 C40,459 44,455 49,455 C53,455 57,459 57,463 C57,468 53,472 49,472 L49,472 Z M114,465 L114,396 L148,396 C178,396 200,405 215,415 L148,415 C140,415 133,422 133,430 C133,439 140,446 148,446 L256,446 C316,446 358,455 380,465 L114,465 Z M497,265 L470,265 C463,169 392,90 299,71 C303,64 305,57 305,48 C305,22 283,0 256,0 C229,0 207,22 207,49 C207,57 209,64 213,71 C120,90 49,169 42,265 L15,265 C7,265 0,272 0,281 C0,289 7,296 15,296 L25,296 L67,341 C70,344 74,346 78,346 L431,346 C435,346 439,344 441,341 L487,296 L497,296 C505,296 512,289 512,281 C512,272 505,265 497,265 L497,265 Z M256,31 C266,31 274,39 274,49 C274,59 266,67 256,67 C246,66 238,58 238,49 C238,39 246,31 256,31 L256,31 Z M119,189 C150,144 201,116 256,116 C264,116 271,123 271,131 C271,140 264,147 256,147 C211,147 169,169 144,206 C141,211 136,213 132,213 C129,213 126,212 123,211 C116,206 114,197 119,189 L119,189 Z M424,315 L85,315 L67,296 L443,296 L424,315 Z" id="Shape"></path>
        </g>
    </g>
</svg>