<?xml version="1.0" encoding="UTF-8" standalone="no"?>
<svg width="512px" height="512px" viewBox="0 0 512 512" version="1.1" xmlns="http://www.w3.org/2000/svg" xmlns:xlink="http://www.w3.org/1999/xlink">
    <!-- Generator: Sketch 3.8.3 (29802) - http://www.bohemiancoding.com/sketch -->
    <title>icon-list-circle</title>
    <desc>Created with Sketch.</desc>
    <defs></defs>
    <g id="Page-1" stroke="none" stroke-width="1" fill="none" fill-rule="evenodd">
        <g id="icon-list-circle" fill="#000000">
            <path d="M256,0 C115,0 0,115 0,256 C0,397 115,512 256,512 C397,512 512,397 512,256 C512,115 397,0 256,0 L256,0 Z M256,481 C132,481 31,380 31,256 C31,132 132,31 256,31 C380,31 481,132 481,256 C481,380 380,481 256,481 L256,481 Z M350,152 L191,152 C183,152 176,159 176,167 C176,176 183,183 191,183 L350,183 C359,183 366,176 366,167 C366,159 359,152 350,152 L350,152 Z M350,247 L191,247 C183,247 176,253 176,262 C176,270 183,277 191,277 L350,277 C359,277 366,270 366,262 C366,253 359,247 350,247 L350,247 Z M350,338 L191,338 C183,338 176,345 176,353 C176,361 183,368 191,368 L350,368 C359,368 366,361 366,353 C366,345 359,338 350,338 L350,338 Z M151,167 C151,176 144,183 136,183 C127,183 120,176 120,167 C120,159 127,152 136,152 C144,152 151,159 151,167 L151,167 Z M151,262 C151,270 144,277 136,277 C127,277 120,270 120,262 C120,253 127,247 136,247 C144,247 151,253 151,262 L151,262 Z M151,353 C151,362 144,368 136,368 C127,368 120,362 120,353 C120,345 127,338 136,338 C144,338 151,345 151,353 L151,353 Z" id="Shape"></path>
        </g>
    </g>
</svg>