<?xml version="1.0" encoding="UTF-8" standalone="no"?>
<svg width="512px" height="512px" viewBox="0 0 512 512" version="1.1" xmlns="http://www.w3.org/2000/svg" xmlns:xlink="http://www.w3.org/1999/xlink">
    <!-- Generator: Sketch 3.8.3 (29802) - http://www.bohemiancoding.com/sketch -->
    <title>icon-website</title>
    <desc>Created with Sketch.</desc>
    <defs></defs>
    <g id="Page-1" stroke="none" stroke-width="1" fill="none" fill-rule="evenodd">
        <g id="icon-website" fill="#000000">
            <path d="M256,0 C115,0 0,115 0,256 C0,397 115,512 256,512 C397,512 512,397 512,256 C512,115 397,0 256,0 L256,0 Z M178,351 C170,325 165,298 164,271 L349,271 C348,299 343,326 335,351 C283,339 229,340 178,351 L178,351 Z M323,380 C308,415 287,446 260,474 C258,475 257,477 256,479 C255,477 254,475 253,474 C225,446 204,414 189,380 C233,371 279,371 323,380 L323,380 Z M163,241 C165,214 169,187 178,161 C204,167 230,170 256,170 C282,170 309,167 335,161 C343,187 347,213 349,241 L163,241 Z M189,132 C204,98 225,66 253,38 C254,37 255,35 256,33 C257,35 258,37 259,38 C287,66 308,98 324,132 C279,142 233,142 189,132 L189,132 Z M298,35 C343,43 383,65 415,96 C395,108 375,117 354,124 C340,92 321,62 298,35 L298,35 Z M159,124 C137,117 117,108 98,96 C129,65 169,43 215,35 C191,62 172,92 159,124 L159,124 Z M148,153 C139,182 134,211 133,241 L31,241 C35,195 51,154 77,119 C100,133 124,145 148,153 L148,153 Z M133,271 C134,301 139,331 148,360 C124,368 100,379 78,393 C51,359 35,317 31,271 L133,271 Z M159,389 C173,420 191,450 215,477 C170,469 130,447 98,417 C118,405 138,396 159,389 L159,389 Z M353,389 C374,396 395,405 414,417 C383,447 343,469 297,477 C321,451 340,421 353,389 L353,389 Z M364,360 C373,332 378,302 380,271 L481,271 C478,317 461,359 435,393 C412,379 388,368 364,360 L364,360 Z M380,241 C378,210 373,181 364,153 C389,145 412,133 435,120 C461,154 478,195 481,241 L380,241 L380,241 Z" id="Shape"></path>
        </g>
    </g>
</svg>