<?xml version="1.0" encoding="UTF-8" standalone="no"?>
<svg width="512px" height="512px" viewBox="0 0 512 512" version="1.1" xmlns="http://www.w3.org/2000/svg" xmlns:xlink="http://www.w3.org/1999/xlink">
    <!-- Generator: Sketch 3.8.3 (29802) - http://www.bohemiancoding.com/sketch -->
    <title>icon-cross-filter</title>
    <desc>Created with Sketch.</desc>
    <defs></defs>
    <g id="Page-1" stroke="none" stroke-width="1" fill="none" fill-rule="evenodd">
        <g id="icon-cross-filter" fill="#000000">
            <path d="M497,0 L15,0 C7,0 0,7 0,15 L0,497 C0,505 7,512 15,512 L497,512 C505,512 512,505 512,497 L512,15 C512,7 505,0 497,0 L497,0 Z M481,481 L31,481 L31,31 L481,31 L481,481 Z M152,382 L256,278 L360,382 C366,388 376,388 382,382 C388,376 388,367 382,360 L278,256 L382,152 C388,146 388,136 382,130 C376,124 367,124 360,130 L256,234 L152,130 C146,124 136,124 130,130 C124,136 124,145 130,152 L234,256 L130,360 C124,366 124,376 130,382 C136,388 145,388 152,382 L152,382 Z" id="Shape"></path>
        </g>
    </g>
</svg>