<?xml version="1.0" encoding="UTF-8" standalone="no"?>
<svg width="512px" height="400px" viewBox="0 0 512 400" version="1.1" xmlns="http://www.w3.org/2000/svg" xmlns:xlink="http://www.w3.org/1999/xlink">
    <!-- Generator: Sketch 3.8.3 (29802) - http://www.bohemiancoding.com/sketch -->
    <title>icon-empty-review</title>
    <desc>Created with Sketch.</desc>
    <defs></defs>
    <g id="Page-1" stroke="none" stroke-width="1" fill="none" fill-rule="evenodd">
        <g id="icon-empty-review" fill="#000000">
            <path d="M491,7 C490,3 487,0 483,0 L464,0 L344,0 C319,0 298,15 289,38 L261,109 C259,114 254,118 247,118 L231,118 L231,115 C230,105 217,96 202,96 L167,96 C153,96 139,107 136,121 L132,137 L132,138 C129,176 129,216 132,256 L132,257 L136,273 C136,274 137,276 137,277 C136,283 135,292 135,299 C136,307 136,314 142,315 L143,315 C153,315 158,310 158,298 C158,297 158,295 157,294 C160,295 163,295 166,295 C176,294 191,294 201,295 L205,295 C218,295 229,288 230,278 L230,275 L247,275 C253,275 258,279 260,284 L287,355 C297,378 318,393 342,393 L477,393 C483,393 489,389 491,383 C504,327 511,262 511,196 C513,129 506,63 491,7 L491,7 Z M476,376 L344,376 C327,376 312,365 306,350 L278,279 C272,266 261,258 248,258 L221,258 L219,258 C219,258 218,258 218,259 C217,259 217,260 216,260 L214,262 C214,263 214,263 213,264 L213,265 L212,276 C211,277 208,279 203,278 C192,277 176,277 165,278 C160,279 154,274 152,268 L148,253 C145,215 145,178 148,140 L152,124 C153,118 160,113 167,113 L201,113 C207,113 212,116 213,116 L214,127 L214,128 C214,129 214,129 215,130 L216,131 L217,132 L218,133 C219,133 219,134 220,134 L222,134 L248,134 C261,134 273,126 278,114 L306,43 C313,27 328,17 345,17 L465,17 L476,17 C489,71 496,133 496,197 C496,261 488,322 476,376 L476,376 Z M159,365 C44,365 44,380 44,386 C44,390 47,395 52,395 C52,395 102,400 160,400 C218,400 266,395 267,395 C271,395 276,390 276,386 C274,380 274,365 159,365 L159,365 Z M14,381 C7,381 0,385 0,390 C0,392 0,393 1,393 C1,393 8,396 14,396 C21,396 26,393 26,393 C27,393 27,392 27,390 C28,385 22,381 14,381 L14,381 Z M374,153 C374,159 369,164 363,164 C356,164 351,159 351,153 C351,146 356,141 363,141 C369,141 374,146 374,153 L374,153 Z M374,247 C374,254 369,259 363,259 C356,259 351,254 351,247 C351,241 356,236 363,236 C369,236 374,241 374,247 L374,247 Z M420,165 C418,164 416,166 415,168 C415,168 412,182 412,204 C412,226 415,239 415,239 C416,241 417,242 419,242 L420,242 C422,242 423,240 423,238 C423,238 420,225 420,204 C420,182 423,170 423,169 C423,167 422,165 420,165 L420,165 Z" id="Shape"></path>
        </g>
    </g>
</svg>