<?xml version="1.0" encoding="UTF-8" standalone="no"?>
<svg width="442px" height="512px" viewBox="0 0 442 512" version="1.1" xmlns="http://www.w3.org/2000/svg" xmlns:xlink="http://www.w3.org/1999/xlink">
    <!-- Generator: Sketch 3.8.3 (29802) - http://www.bohemiancoding.com/sketch -->
    <title>icon-beer-mug</title>
    <desc>Created with Sketch.</desc>
    <defs></defs>
    <g id="Page-1" stroke="none" stroke-width="1" fill="none" fill-rule="evenodd">
        <g id="icon-beer-mug" fill="#000000">
            <path d="M391,396 C421,396 442,361 442,314 L442,297 C442,251 416,215 383,215 L366,215 C400,203 423,170 423,128 C423,78 387,42 337,42 C326,42 316,46 308,50 C287,17 256,0 218,0 C179,0 143,19 122,50 C113,46 104,42 93,42 C40,42 0,79 0,128 C0,174 36,211 83,214 C83,217 84,220 84,223 L48,416 C28,422 13,441 13,463 C13,490 35,512 62,512 L377,512 C404,512 426,490 426,463 C426,436 404,414 377,414 L374,414 L372,396 L391,396 Z M410,297 L410,314 C410,347 397,364 391,364 L368,364 L355,248 L383,248 C396,247 410,269 410,297 L410,297 Z M32,128 C32,92 62,74 93,74 C100,74 108,79 116,84 L119,86 C123,88 128,89 132,88 C136,86 140,83 142,79 C156,50 186,32 218,32 C250,32 272,48 288,79 C290,83 293,86 298,88 C302,89 307,88 310,86 L313,84 C322,79 329,74 337,74 C370,74 391,94 391,128 C391,158 372,188 337,188 C322,188 303,177 293,166 C290,162 285,161 281,161 C276,161 272,162 269,166 C247,190 219,198 188,189 C183,187 177,189 173,192 C169,195 167,200 167,206 C168,215 166,224 160,230 C157,233 151,238 143,238 C135,238 127,234 122,227 C116,219 113,210 115,201 C117,196 115,191 112,187 C108,184 104,182 100,182 L98,182 C62,186 32,160 32,128 L32,128 Z M394,463 C394,472 386,480 377,480 L62,480 C53,480 45,472 45,463 C45,453 53,446 62,446 L377,446 C386,446 394,453 394,463 L394,463 Z M82,414 L111,259 C120,266 131,270 143,270 C158,270 173,263 184,252 C191,244 196,234 198,224 C229,228 258,219 282,199 C292,207 305,215 319,218 L342,414 L82,414 Z M292,286 C291,277 283,271 274,271 C265,272 259,280 260,289 L270,382 C270,390 277,396 285,396 L287,396 C296,395 303,388 302,379 L292,286 Z M211,273 C202,273 195,280 195,289 L195,380 C195,389 202,397 211,397 C220,397 227,389 227,380 L227,289 C227,280 220,273 211,273 L211,273 Z M152,277 C143,276 135,283 135,292 L129,379 C128,388 135,396 144,396 L145,396 C153,396 160,390 161,381 L167,294 C167,285 161,277 152,277 L152,277 Z" id="Shape"></path>
        </g>
    </g>
</svg>