<?xml version="1.0" encoding="UTF-8" standalone="no"?>
<svg width="393px" height="469px" viewBox="0 0 393 469" version="1.1" xmlns="http://www.w3.org/2000/svg" xmlns:xlink="http://www.w3.org/1999/xlink">
    <!-- Generator: Sketch 3.8.3 (29802) - http://www.bohemiancoding.com/sketch -->
    <title>icon-pizza-slice-outline</title>
    <desc>Created with Sketch.</desc>
    <defs></defs>
    <g id="Page-1" stroke="none" stroke-width="1" fill="none" fill-rule="evenodd">
        <g id="icon-pizza-slice-outline" fill="#000000">
            <path d="M389,72 C261,-23 133,-23 5,72 C8.8817842e-16,75 8.8817842e-16,80 2,85 L125,341 C128,346 130,351 133,356 L184,464 C187,466 189,469 192,469 C194,469 200,466 200,464 L389,85 C394,80 394,75 389,72 L389,72 Z M371,82 L361,105 C246,21 148,21 33,105 L23,82 C141,0 253,0 371,82 L371,82 Z M264,264 C266,259 269,256 274,256 L284,256 L269,287 C264,279 261,272 264,264 L264,264 Z M292,238 C284,236 274,236 266,238 C256,241 251,249 246,256 C238,272 243,292 258,302 L192,436 L161,369 C182,369 197,354 197,333 C197,313 182,297 161,297 C151,297 141,302 133,310 L41,121 C151,39 241,39 351,121 L292,238 Z M143,333 C143,323 151,315 161,315 C171,315 179,323 179,333 C179,343 171,351 161,351 C156,351 153,349 151,346 L143,333 Z M133,123 C113,123 97,139 97,159 C97,180 113,195 133,195 C153,195 169,180 169,159 C169,139 153,123 133,123 L133,123 Z M133,177 C123,177 115,169 115,159 C115,149 123,141 133,141 C143,141 151,149 151,159 C151,169 143,177 133,177 L133,177 Z M253,164 C274,164 289,149 289,128 C289,108 274,93 253,93 C233,93 217,108 217,128 C217,149 233,164 253,164 L253,164 Z M253,110 C264,110 271,118 271,128 C271,139 264,146 253,146 C243,146 235,139 235,128 C235,118 243,110 253,110 L253,110 Z" id="Shape"></path>
        </g>
    </g>
</svg>