<?xml version="1.0" encoding="UTF-8" standalone="no"?>
<svg width="514px" height="453px" viewBox="0 0 514 453" version="1.1" xmlns="http://www.w3.org/2000/svg" xmlns:xlink="http://www.w3.org/1999/xlink">
    <!-- Generator: Sketch 3.8.3 (29802) - http://www.bohemiancoding.com/sketch -->
    <title>icon-casual-dining-fill</title>
    <desc>Created with Sketch.</desc>
    <defs></defs>
    <g id="Page-1" stroke="none" stroke-width="1" fill="none" fill-rule="evenodd">
        <g id="icon-casual-dining-fill" fill="#000000">
            <path d="M481,21 C464,8 444,0 423,0 C396,0 371,12 354,32 L318,75 C303,93 295,117 297,140 C299,158 305,173 316,187 L264,249 L223,205 C247,172 245,126 216,95 L132,6 C125,-1 115,-1 109,5 C102,11 102,22 108,28 L192,118 C208,136 211,161 200,181 L80,54 C74,48 64,47 57,53 C51,60 50,70 57,76 L176,203 C155,213 130,210 113,192 L29,102 C23,96 13,95 6,102 C-1,108 -1,118 5,125 L90,214 C106,232 130,241 153,241 C169,241 185,237 199,228 L243,274 L116,426 C110,433 111,444 118,449 C121,452 125,453 129,453 C134,453 138,451 142,447 L266,299 L406,447 C409,451 413,453 418,453 C422,453 425,451 429,448 C435,442 435,432 429,425 L287,274 L341,210 C355,218 371,223 387,223 C414,223 439,211 457,190 L492,148 C524,110 519,53 481,21 L481,21 Z" id="Shape"></path>
        </g>
    </g>
</svg>