<?xml version="1.0" encoding="UTF-8" standalone="no"?>
<svg width="511px" height="494px" viewBox="0 0 511 494" version="1.1" xmlns="http://www.w3.org/2000/svg" xmlns:xlink="http://www.w3.org/1999/xlink">
    <!-- Generator: Sketch 3.8.3 (29802) - http://www.bohemiancoding.com/sketch -->
    <title>icon-sunday-brunch</title>
    <desc>Created with Sketch.</desc>
    <defs></defs>
    <g id="Page-1" stroke="none" stroke-width="1" fill="none" fill-rule="evenodd">
        <g id="icon-sunday-brunch" fill="#000000">
            <path d="M184,18 C176,18 168,21 162,27 L67,108 C59,115 55,124 55,135 C55,139 56,144 58,149 L59,153 L56,155 C52,160 49,164 47,169 L3,285 C-1,295 0,306 5,315 C11,325 20,331 31,333 L38,334 L39,338 C48,374 83,494 158,494 L162,494 C174,494 185,488 193,478 C217,451 217,389 216,364 L216,360 L219,359 C231,355 240,346 243,334 L249,311 L249,304 L249,301 L253,300 C256,298 260,296 263,293 L308,255 C309,254 310,253 311,251 L315,246 L318,247 C319,247 320,248 322,248 L324,248 L348,246 C362,245 374,237 379,225 L381,221 L385,222 C403,228 429,234 451,234 C490,234 503,216 508,201 C529,126 426,60 393,42 L391,40 L391,37 C391,28 388,19 381,12 C373,3 361,-1 349,1 L226,20 C221,21 216,23 212,26 L210,28 L207,26 C201,21 192,18 184,18 L184,18 Z M160,463 L159,463 C113,463 85,382 74,347 L72,339 L184,357 L185,362 C185,374 187,437 169,458 C166,462 164,463 160,463 L160,463 Z M212,330 L54,305 C52,304 50,304 49,305 L48,305 L30,302 L78,173 L220,299 L212,330 Z M241,272 L83,136 L186,46 L291,229 L241,272 Z M320,216 L316,210 L225,52 L361,30 L352,199 C352,199 352,201 353,202 L352,215 L320,216 Z M453,203 C436,203 414,198 388,190 L384,188 L386,163 L390,76 L398,81 C433,104 491,149 479,192 C477,199 468,203 453,203 L453,203 Z" id="Shape"></path>
        </g>
    </g>
</svg>