<?xml version="1.0" encoding="UTF-8" standalone="no"?>
<svg width="512px" height="512px" viewBox="0 0 512 512" version="1.1" xmlns="http://www.w3.org/2000/svg" xmlns:xlink="http://www.w3.org/1999/xlink">
    <!-- Generator: Sketch 3.8.3 (29802) - http://www.bohemiancoding.com/sketch -->
    <title>icon-calender</title>
    <desc>Created with Sketch.</desc>
    <defs></defs>
    <g id="Page-1" stroke="none" stroke-width="1" fill="none" fill-rule="evenodd">
        <g id="icon-calender" fill="#000000">
            <path d="M496,33 L429,33 L429,16 C429,7 422,0 414,0 L347,0 C339,0 332,7 332,16 L332,33 L180,33 L180,16 C180,7 174,0 165,0 L99,0 C90,0 83,7 83,16 L83,33 L16,33 C7,33 0,40 0,49 L0,496 C0,505 7,512 16,512 L496,512 C505,512 512,505 512,496 L512,49 C512,40 505,33 496,33 L496,33 Z M363,31 L398,31 L398,83 L363,83 L363,31 Z M114,31 L149,31 L149,83 L114,83 L114,31 Z M83,65 L83,99 C83,107 90,114 99,114 L165,114 C174,114 180,107 180,99 L180,65 L331,65 L331,99 C331,107 338,114 347,114 L413,114 C422,114 429,107 429,99 L429,65 L480,65 L480,149 L31,149 L31,65 L83,65 Z M31,481 L31,180 L481,180 L481,481 L31,481 Z M454,302 C463,302 470,295 470,286 C470,278 463,271 454,271 L346,271 L346,209 C346,201 339,194 330,194 C322,194 315,201 315,209 L315,271 L197,271 L197,209 C197,201 190,194 182,194 C173,194 166,201 166,209 L166,271 L58,271 C49,271 42,278 42,286 C42,295 49,302 58,302 L166,302 L166,370 L58,370 C49,370 42,377 42,386 C42,394 49,401 58,401 L166,401 L166,460 C166,469 173,476 182,476 C190,476 197,469 197,460 L197,401 L315,401 L315,460 C315,469 322,476 330,476 C339,476 346,469 346,460 L346,401 L454,401 C463,401 470,394 470,386 C470,377 463,370 454,370 L346,370 L346,302 L454,302 Z M315,370 L197,370 L197,302 L315,302 L315,370 Z" id="Shape"></path>
        </g>
    </g>
</svg>