<?xml version="1.0" encoding="UTF-8" standalone="no"?>
<svg width="512px" height="451px" viewBox="0 0 512 451" version="1.1" xmlns="http://www.w3.org/2000/svg" xmlns:xlink="http://www.w3.org/1999/xlink">
    <!-- Generator: Sketch 3.8.3 (29802) - http://www.bohemiancoding.com/sketch -->
    <title>icon-follow-web</title>
    <desc>Created with Sketch.</desc>
    <defs></defs>
    <g id="Page-1" stroke="none" stroke-width="1" fill="none" fill-rule="evenodd">
        <g id="icon-follow-web" fill="#000000">
            <path d="M485,312 L424,312 L424,251 C424,237 413,225 399,225 C384,225 373,237 373,251 L373,312 L312,312 C298,312 286,324 286,338 C286,352 298,363 312,363 L373,363 L373,424 C373,438 385,450 399,450 C413,450 424,439 424,424 L424,363 L486,363 C500,363 511,351 511,337 C512,323 500,312 485,312 L485,312 Z M277,267 L277,233 C287,225 304,204 307,168 C310,165 313,161 316,157 C319,151 320,143 320,134 C320,122 317,112 311,105 C316,91 324,67 318,43 C310,11 266,0 231,0 C201,0 165,8 150,30 C136,30 127,36 122,41 C106,58 113,87 118,105 C116,107 115,110 113,112 C110,119 108,127 108,135 C108,149 113,161 122,168 C125,207 146,231 157,241 L157,266 C145,271 131,275 118,279 C64,297 21,311 12,339 C1,373 0,432 0,434 C0,439 2,443 5,446 C8,448 12,451 17,451 L312,451 L312,419 L33,418 C34,398 37,367 43,349 C47,337 96,321 128,310 C146,305 163,299 179,293 C185,290 190,284 190,278 L190,234 C190,229 187,224 183,221 C183,220 154,201 154,157 C154,150 149,144 142,142 C141,139 141,132 142,129 C145,128 147,127 149,125 C152,122 154,118 154,114 C154,110 153,107 151,101 C143,72 145,65 146,64 C147,63 150,63 156,64 C165,65 173,60 175,52 C178,43 199,33 231,33 C263,33 284,43 287,52 C291,68 283,88 279,98 C277,104 275,108 275,112 C275,120 280,126 287,128 C288,132 288,139 287,143 C280,144 275,151 275,158 C275,199 254,211 253,212 C248,214 245,220 245,226 L245,278 C245,285 249,291 255,293 C257,294 259,295 262,296 C269,298 276,293 276,286 L277,267 Z" id="Shape"></path>
        </g>
    </g>
</svg>