<?xml version="1.0" encoding="UTF-8" standalone="no"?>
<svg width="479px" height="512px" viewBox="0 0 479 512" version="1.1" xmlns="http://www.w3.org/2000/svg" xmlns:xlink="http://www.w3.org/1999/xlink">
    <!-- Generator: Sketch 3.8.3 (29802) - http://www.bohemiancoding.com/sketch -->
    <title>icon-phone</title>
    <desc>Created with Sketch.</desc>
    <defs></defs>
    <g id="Page-1" stroke="none" stroke-width="1" fill="none" fill-rule="evenodd">
        <g id="icon-phone" fill="#000000">
            <path d="M121,31 C134,31 152,51 172,74 L173,76 L175,78 C194,100 208,116 210,128 C211,135 209,146 183,169 C166,183 152,187 146,188 C137,190 129,196 125,205 C121,213 120,223 124,232 C152,296 195,344 251,377 C256,379 261,381 267,381 C271,381 274,380 278,379 C287,375 294,368 297,359 C299,351 305,340 321,327 C331,318 340,312 347,308 C352,306 356,304 359,304 C372,304 391,326 411,349 C433,374 445,389 447,401 C449,409 446,420 420,442 L417,445 C406,454 394,464 380,471 C367,477 354,480 339,480 C319,480 296,475 269,464 C213,441 170,409 125,357 C80,305 55,258 40,200 C17,111 49,83 83,54 C93,45 102,39 109,35 C114,33 118,31 121,31 L121,31 Z M121,0 C113,0 105,2 95,7 C86,12 75,19 62,30 C26,61 -18,100 9,208 C26,271 53,322 102,378 C150,434 197,468 257,493 C287,506 314,512 339,512 C359,512 377,508 394,499 C413,490 427,477 441,466 C463,447 483,425 478,396 C474,375 459,356 435,328 C408,297 386,273 359,273 C351,273 343,275 333,280 C323,285 313,292 300,303 C282,318 272,335 267,349 C214,319 177,275 153,220 C168,216 186,208 204,193 C226,173 246,151 241,123 C237,102 221,83 197,55 C170,24 149,0 121,0 L121,0 Z" id="Shape"></path>
        </g>
    </g>
</svg>