<?xml version="1.0" encoding="UTF-8" standalone="no"?>
<svg width="511px" height="338px" viewBox="0 0 511 338" version="1.1" xmlns="http://www.w3.org/2000/svg" xmlns:xlink="http://www.w3.org/1999/xlink">
    <!-- Generator: Sketch 3.8.3 (29802) - http://www.bohemiancoding.com/sketch -->
    <title>icon-rating-3</title>
    <desc>Created with Sketch.</desc>
    <defs></defs>
    <g id="Page-1" stroke="none" stroke-width="1" fill="none" fill-rule="evenodd">
        <g id="icon-rating-3" fill="#000000">
            <path d="M398,0 L113,0 C50,0 0,50 0,113 L0,225 C0,287 50,338 113,338 L398,338 C460,338 511,287 511,225 L511,113 C511,50 460,0 398,0 L398,0 Z M154,253 C125,253 104,242 93,228 L110,206 C121,218 137,224 153,224 C171,224 182,216 182,204 C182,192 172,186 151,186 C144,186 134,187 131,187 L131,157 C134,158 145,158 151,158 C168,158 179,153 179,141 C179,129 167,123 151,123 C136,123 122,129 111,139 L95,118 C108,104 127,94 154,94 C190,94 213,110 213,136 C213,155 196,168 179,171 C195,172 215,185 215,208 C215,235 191,253 154,253 L154,253 Z M254,253 C244,253 235,244 235,234 C235,224 244,215 254,215 C264,215 273,224 273,234 C273,244 264,253 254,253 L254,253 Z M351,253 C306,253 287,213 287,173 C287,133 306,94 351,94 C394,94 414,133 414,173 C414,213 394,253 351,253 L351,253 Z M351,123 C328,123 320,145 320,173 C320,202 328,224 351,224 C372,224 381,202 381,173 C381,145 372,123 351,123 L351,123 Z" id="Shape"></path>
        </g>
    </g>
</svg>