<?xml version="1.0" encoding="UTF-8" standalone="no"?>
<svg width="513px" height="462px" viewBox="0 0 513 462" version="1.1" xmlns="http://www.w3.org/2000/svg" xmlns:xlink="http://www.w3.org/1999/xlink">
    <!-- Generator: Sketch 3.8.3 (29802) - http://www.bohemiancoding.com/sketch -->
    <title>icon-cart</title>
    <desc>Created with Sketch.</desc>
    <defs></defs>
    <g id="Page-1" stroke="none" stroke-width="1" fill="none" fill-rule="evenodd">
        <g id="icon-cart" fill="#000000">
            <path d="M405,365 C378,365 357,387 357,414 C357,440 378,462 405,462 C432,462 454,440 454,414 C454,387 432,365 405,365 L405,365 Z M405,431 C396,431 387,424 387,414 C387,404 395,396 405,396 C415,396 423,404 423,414 C423,424 415,431 405,431 L405,431 Z M198,365 C171,365 149,387 149,414 C149,440 171,462 198,462 C225,462 247,440 247,414 C247,387 225,365 198,365 L198,365 Z M198,431 C188,431 180,424 180,414 C180,404 188,396 198,396 C208,396 216,404 216,414 C216,423 208,431 198,431 L198,431 Z M509,122 C506,118 502,116 497,116 L129,116 L103,12 C102,5 96,0 89,0 L15,0 C7,0 0,7 0,15 C0,24 7,31 15,31 L77,31 L148,327 C148,328 149,329 150,330 L150,331 C150,339 157,346 165,346 L434,346 C441,346 446,342 449,335 L511,136 C513,131 512,126 509,122 L509,122 Z M423,315 L177,315 L136,147 L476,147 L423,315 Z" id="Shape"></path>
        </g>
    </g>
</svg>