<?xml version="1.0" encoding="UTF-8" standalone="no"?>
<svg width="511px" height="494px" viewBox="0 0 511 494" version="1.1" xmlns="http://www.w3.org/2000/svg" xmlns:xlink="http://www.w3.org/1999/xlink">
    <!-- Generator: Sketch 3.8.3 (29802) - http://www.bohemiancoding.com/sketch -->
    <title>icon-log-out</title>
    <desc>Created with Sketch.</desc>
    <defs></defs>
    <g id="Page-1" stroke="none" stroke-width="1" fill="none" fill-rule="evenodd">
        <g id="icon-log-out" fill="#000000">
            <path d="M255,474 L15,474 C11,474 7,473 4,470 C1,467 0,463 0,459 C0,456 0,393 12,358 C22,330 66,315 123,296 C137,291 152,287 166,282 L166,254 C154,243 132,218 128,176 C120,169 114,157 114,142 C114,134 116,125 119,119 C121,116 123,113 125,111 C120,92 112,61 129,43 C135,36 145,32 157,32 C172,9 211,0 242,0 C279,0 324,12 333,45 C339,70 330,96 325,110 C331,117 335,128 335,141 C335,150 333,158 330,164 C328,169 324,173 321,175 C318,215 300,236 289,245 L289,292 C289,301 282,308 273,308 C265,308 258,301 258,292 L258,237 C258,231 261,226 266,223 C267,223 291,209 291,165 C291,158 296,152 303,150 C305,146 305,136 303,132 C300,131 297,130 295,128 C293,125 291,121 291,117 C291,113 292,109 295,103 C299,91 307,71 303,52 C300,42 276,31 242,31 C208,31 184,42 181,52 C179,60 171,65 163,64 C155,62 152,63 151,64 C149,66 147,75 156,105 C157,112 158,115 158,119 C158,126 153,132 146,134 C144,137 144,146 146,150 C153,151 158,158 158,165 C158,211 189,233 190,234 C194,237 196,242 196,246 L196,293 C196,299 193,305 187,307 C169,314 151,320 133,326 C96,338 46,354 41,368 C34,389 31,424 30,444 L255,444 C263,444 270,451 270,459 C271,467 264,474 255,474 L255,474 Z M399,494 C397,494 395,494 393,493 C387,490 384,485 384,479 L384,438 L297,438 C289,438 282,431 282,422 L282,342 C282,334 289,327 297,327 L384,327 L384,286 C384,280 387,274 393,272 C399,269 405,271 410,275 L506,371 C512,377 512,387 506,393 L410,489 C407,492 403,494 399,494 L399,494 Z M312,407 L399,407 C407,407 414,414 414,422 L414,442 L474,382 L414,323 L414,342 C414,351 407,358 399,358 L312,358 L312,407 Z" id="Shape"></path>
        </g>
    </g>
</svg>