<?xml version="1.0" encoding="UTF-8" standalone="no"?>
<svg width="512px" height="384px" viewBox="0 0 512 384" version="1.1" xmlns="http://www.w3.org/2000/svg" xmlns:xlink="http://www.w3.org/1999/xlink">
    <!-- Generator: Sketch 3.8.3 (29802) - http://www.bohemiancoding.com/sketch -->
    <title>icon-bar-chart</title>
    <desc>Created with Sketch.</desc>
    <defs></defs>
    <g id="Page-1" stroke="none" stroke-width="1" fill="none" fill-rule="evenodd">
        <g id="icon-bar-chart" fill="#000000">
            <path d="M160,192 L160,320 L96,320 L96,192 L160,192 L160,192 Z M256,64 L256,320 L192,320 L192,64 L256,64 L256,64 Z M512,352 L512,384 L0,384 L0,0 L32,0 L32,352 L512,352 L512,352 Z M352,128 L352,320 L288,320 L288,128 L352,128 L352,128 Z M448,32 L448,320 L384,320 L384,32 L448,32 L448,32 Z" id="Shape"></path>
        </g>
    </g>
</svg>