<?xml version="1.0" encoding="UTF-8" standalone="no"?>
<svg width="498px" height="512px" viewBox="0 0 498 512" version="1.1" xmlns="http://www.w3.org/2000/svg" xmlns:xlink="http://www.w3.org/1999/xlink">
    <!-- Generator: Sketch 3.8.3 (29802) - http://www.bohemiancoding.com/sketch -->
    <title>icon-microbrewery-fill</title>
    <desc>Created with Sketch.</desc>
    <defs></defs>
    <g id="Page-1" stroke="none" stroke-width="1" fill="none" fill-rule="evenodd">
        <g id="icon-microbrewery-fill" fill="#000000">
            <path d="M69,256 C69,216 75,178 84,143 L12,143 C4,179 0,217 0,257 C0,297 4,337 13,375 L85,375 C76,338 69,298 69,256 L69,256 Z M25,416 C35,447 49,476 65,501 C68,506 73,508 79,509 L141,509 C129,488 112,455 98,416 L25,416 Z M140,2 L80,3 C74,3 70,5 67,10 C49,37 34,68 23,102 L96,102 C110,60 127,25 140,2 L140,2 Z M295,102 C279,56 259,20 248,1 L223,1 L223,102 L295,102 Z M195,102 L195,2 L172,2 C161,21 143,57 126,102 L195,102 L195,102 Z M129,416 C145,459 164,493 174,510 L195,510 L195,416 L129,416 Z M397,102 C386,67 371,35 352,7 C349,3 344,0 339,0 L280,1 C293,24 310,59 325,102 L397,102 Z M496,304 L484,269 C487,265 490,260 490,254 C490,248 487,243 483,238 L495,162 C496,159 495,155 492,152 C490,149 486,148 483,148 L441,148 C437,148 433,149 431,152 C429,155 428,159 428,162 L440,235 C435,231 429,229 423,229 C422,229 421,230 420,230 C419,200 415,171 408,143 L337,143 C346,178 353,216 353,256 C353,298 346,338 336,375 L408,375 C415,344 419,312 421,279 C422,279 422,280 424,280 C431,280 438,277 443,273 C444,274 446,275 448,276 L448,278 L461,315 C463,320 468,323 473,323 L486,323 L486,323 C493,323 498,318 498,311 C498,308 497,306 496,304 L496,304 Z M462,213 L455,173 L469,173 L462,213 Z M223,143 L223,375 L306,375 C317,339 324,298 324,256 C324,216 318,178 308,143 L223,143 Z M279,511 L340,512 L340,512 C346,512 351,509 354,505 C371,478 385,448 396,416 L323,416 C308,456 291,490 279,511 L279,511 Z M223,416 L223,510 L247,511 C257,494 276,460 293,416 L223,416 Z M97,256 C97,298 104,338 115,375 L195,375 L195,143 L113,143 C103,178 97,216 97,256 L97,256 Z" id="Shape"></path>
        </g>
    </g>
</svg>