<?xml version="1.0" encoding="UTF-8" standalone="no"?>
<svg width="512px" height="358px" viewBox="0 0 512 358" version="1.1" xmlns="http://www.w3.org/2000/svg" xmlns:xlink="http://www.w3.org/1999/xlink">
    <!-- Generator: Sketch 3.8.3 (29802) - http://www.bohemiancoding.com/sketch -->
    <title>icon-tea-room-fill</title>
    <desc>Created with Sketch.</desc>
    <defs></defs>
    <g id="Page-1" stroke="none" stroke-width="1" fill="none" fill-rule="evenodd">
        <g id="icon-tea-room-fill" fill="#000000">
            <path d="M116,151 C99,175 88,203 84,234 C64,227 48,207 48,186 L48,152 C48,129 35,112 16,112 C7,112 0,119 0,127 C0,136 6,142 15,142 C15,143 17,147 17,152 L17,186 C17,223 48,258 84,265 C86,296 97,326 115,352 C118,356 123,358 128,358 L384,358 C389,358 394,356 397,352 C407,338 414,323 420,307 C423,308 427,308 430,308 C475,308 512,272 512,227 C512,182 475,146 430,146 C419,146 408,148 397,153 L116,151 Z M430,278 L427,278 C428,270 429,261 429,252 C429,226 423,202 413,180 C418,177 424,176 430,176 C458,176 481,199 481,227 C481,255 458,278 430,278 L430,278 Z M295,63 C298,57 300,50 300,43 C300,19 281,0 258,0 C234,0 215,19 215,43 C215,50 217,57 220,63 C183,73 150,94 130,126 L383,126 C362,96 331,72 295,63 L295,63 Z M257,58 C249,58 242,51 242,43 C242,34 248,27 257,27 C266,27 273,34 273,43 C273,52 266,58 257,58 L257,58 Z" id="Shape"></path>
        </g>
    </g>
</svg>