<?xml version="1.0" encoding="UTF-8" standalone="no"?>
<svg width="512px" height="512px" viewBox="0 0 512 512" version="1.1" xmlns="http://www.w3.org/2000/svg" xmlns:xlink="http://www.w3.org/1999/xlink">
    <!-- Generator: Sketch 3.8.3 (29802) - http://www.bohemiancoding.com/sketch -->
    <title>icon-facebook-box</title>
    <desc>Created with Sketch.</desc>
    <defs></defs>
    <g id="Page-1" stroke="none" stroke-width="1" fill="none" fill-rule="evenodd">
        <g id="icon-facebook-box" fill="#000000">
            <path d="M415,0 L0,0 L0,97 L0,512 L97,512 L253,512 L253,324 L189,324 L189,243 L254,243 L254,184 C254,184 252,151 279,125 C308,98 335,98 335,98 L415,98 L415,178 L354,178 C354,178 334,174 334,199 L334,242 L414,242 L414,324 L334,324 L334,512 L512,512 L512,415 L512,0 L415,0 L415,0 Z" id="Shape"></path>
        </g>
    </g>
</svg>