<?xml version="1.0" encoding="UTF-8" standalone="no"?>
<svg width="512px" height="512px" viewBox="0 0 512 512" version="1.1" xmlns="http://www.w3.org/2000/svg" xmlns:xlink="http://www.w3.org/1999/xlink">
    <!-- Generator: Sketch 3.8.3 (29802) - http://www.bohemiancoding.com/sketch -->
    <title>icon-rearrange</title>
    <desc>Created with Sketch.</desc>
    <defs></defs>
    <g id="Page-1" stroke="none" stroke-width="1" fill="none" fill-rule="evenodd">
        <g id="icon-rearrange" fill="#000000">
            <path d="M505,241 L412,168 C404,162 393,163 387,171 C384,175 383,179 383,182 C383,188 386,193 390,197 L441,237 L323,237 C317,214 298,195 275,189 L275,70 L316,122 C319,126 325,129 330,129 C334,129 338,127 341,125 C349,119 350,107 344,99 L271,7 C268,2 262,0 257,0 C252,0 246,2 243,7 L168,99 C162,107 163,119 171,125 C179,131 191,130 197,122 L239,69 L239,188 C215,195 196,213 189,237 L70,237 L122,197 C126,193 129,188 129,182 C129,178 127,175 125,171 C119,163 107,162 99,168 L7,241 C2,244 0,250 0,255 C0,260 2,266 7,269 L99,344 C107,350 119,349 125,341 C131,333 130,321 122,315 L69,273 L188,273 C195,298 214,317 239,324 L239,443 L197,390 C191,382 179,381 171,387 C163,393 162,405 168,413 L243,505 C246,509 251,512 257,512 C262,512 268,509 271,505 L344,412 C350,404 349,393 341,386 C338,384 333,383 330,383 C324,383 319,385 315,390 L275,441 L275,323 C298,317 317,297 324,273 L443,273 L390,315 C382,321 381,333 387,341 C393,349 405,350 413,344 L505,269 C509,266 512,261 512,255 C512,250 510,244 505,241 L505,241 Z" id="Shape"></path>
        </g>
    </g>
</svg>