<?xml version="1.0" encoding="UTF-8" standalone="no"?>
<svg width="512px" height="512px" viewBox="0 0 512 512" version="1.1" xmlns="http://www.w3.org/2000/svg" xmlns:xlink="http://www.w3.org/1999/xlink">
    <!-- Generator: Sketch 3.8.3 (29802) - http://www.bohemiancoding.com/sketch -->
    <title>icon-move-down-admin</title>
    <desc>Created with Sketch.</desc>
    <defs></defs>
    <g id="Page-1" stroke="none" stroke-width="1" fill="none" fill-rule="evenodd">
        <g id="icon-move-down-admin" fill="#000000">
            <path d="M256,0 C397,0 512,115 512,256 C512,397 397,512 256,512 C115,512 0,397 0,256 C0,115 115,0 256,0 L256,0 Z M256,481 C380,481 481,380 481,256 C481,132 380,31 256,31 C132,31 31,132 31,256 C31,380 132,481 256,481 L256,481 Z M183,100 L332,100 C341,100 348,106 348,115 L348,232 L404,232 C410,232 416,236 418,242 C421,248 419,254 415,259 L269,408 C263,414 253,414 247,408 L100,259 C96,254 95,248 97,242 C100,236 105,232 111,232 L168,232 L168,115 C168,106 175,100 183,100 L183,100 Z M317,130 L198,130 L198,248 C198,256 191,263 183,263 L148,263 L258,375 L368,263 L333,263 C324,263 317,256 317,248 L317,130 Z" id="Shape"></path>
        </g>
    </g>
</svg>