<?xml version="1.0" encoding="utf-8"?>
<!-- Generator: Adobe Illustrator 18.1.1, SVG Export Plug-In . SVG Version: 6.00 Build 0)  -->
<!DOCTYPE svg PUBLIC "-//W3C//DTD SVG 1.1//EN" "http://www.w3.org/Graphics/SVG/1.1/DTD/svg11.dtd">
<svg version="1.1" id="Layer_1" xmlns="http://www.w3.org/2000/svg" xmlns:xlink="http://www.w3.org/1999/xlink" x="0px" y="0px"
	 viewBox="-206 73.3 429 450" enable-background="new -206 73.3 429 450" xml:space="preserve">
<title>user</title>
<desc>Created with Sketch.</desc>
<path d="M221.3,457c-16-93.3-81.2-166.2-162.9-187.5c8.9-4.4,17.1-10.1,24.4-17.4c20.2-20,31.4-44.2,31.5-72.7
	C114.7,120.7,67.3,73.3,8.6,73.3H8c-28.2,0-54.8,9-74.8,28.9c-20.2,20-31.4,44.8-31.5,73.2c-0.2,41.4,23.3,76.6,57.7,93.8
	C-122.3,289.7-188,361-205,454c-3.3,17.8,1.5,35.8,13,49.7c11,13.3,27,19.5,44,19.6l311.7-1.2h0.3c16.8,0,32.8-4.9,43.9-18
	C219.4,490.4,224.3,474.8,221.3,457z M-48,175.7c0.1-15,6-25.5,16.6-36.1c10.5-10.5,24.5-14.6,39.4-14.6h0.3
	c30.4,0,55,22.7,55.7,52.9c0-0.4,0-0.7,0-1.1v2.7c0-0.5,0-1.1,0-1.6c-0.4,14.5-6.2,26.9-16.6,37.2C36.9,225.6,22.9,228.6,8,228.6
	H7.7C-23.1,228.6-48.1,206.7-48,175.7z M169.4,474.7c-0.9,1.1-2.8,2.8-5.5,2.8h0l-311.7-1.6c-2.7,0-4.6-1.8-5.5-2.8
	c-0.9-1.1-3-4.1-2.2-8.6c15.8-86.9,84.5-149.5,163.6-149.5h0.8c79.3,0,147.8,63.9,162.8,151.2C172.4,470.6,170.3,473.5,169.4,474.7z
	"/>
</svg>
