<?xml version="1.0" encoding="UTF-8" standalone="no"?>
<svg width="511px" height="338px" viewBox="0 0 511 338" version="1.1" xmlns="http://www.w3.org/2000/svg" xmlns:xlink="http://www.w3.org/1999/xlink">
    <!-- Generator: Sketch 3.8.3 (29802) - http://www.bohemiancoding.com/sketch -->
    <title>icon-rating-2-3</title>
    <desc>Created with Sketch.</desc>
    <defs></defs>
    <g id="Page-1" stroke="none" stroke-width="1" fill="none" fill-rule="evenodd">
        <g id="icon-rating-2-3" fill="#000000">
            <path d="M398,0 L113,0 C51,0 0,50 0,113 L0,225 C0,287 51,338 113,338 L398,338 C460,338 511,287 511,225 L511,113 C511,50 460,0 398,0 L398,0 Z M213,250 L97,250 L97,225 C160,178 178,162 178,143 C178,130 166,123 153,123 C136,123 122,130 112,141 L93,119 C108,102 131,94 153,94 C186,94 212,112 212,143 C212,169 190,192 150,222 L213,222 L213,250 Z M254,253 C244,253 236,244 236,234 C236,224 245,215 254,215 C265,215 273,224 273,234 C273,244 265,253 254,253 L254,253 Z M355,253 C328,253 309,244 296,230 L314,207 C324,218 339,224 355,224 C374,224 384,213 384,201 C384,187 374,178 356,178 C343,178 333,182 323,190 L300,184 L300,96 L407,96 L407,125 L333,125 L333,162 C341,155 353,149 367,149 C394,149 417,168 417,200 C417,233 392,253 355,253 L355,253 Z" id="Shape"></path>
        </g>
    </g>
</svg>