<?xml version="1.0" encoding="UTF-8" standalone="no"?>
<svg width="511px" height="338px" viewBox="0 0 511 338" version="1.1" xmlns="http://www.w3.org/2000/svg" xmlns:xlink="http://www.w3.org/1999/xlink">
    <!-- Generator: Sketch 3.8.3 (29802) - http://www.bohemiancoding.com/sketch -->
    <title>icon-rating-5-1</title>
    <desc>Created with Sketch.</desc>
    <defs></defs>
    <g id="Page-1" stroke="none" stroke-width="1" fill="none" fill-rule="evenodd">
        <g id="icon-rating-5-1" fill="#000000">
            <path d="M398,0 L113,0 C50,0 0,51 0,113 L0,225 C0,287 50,338 113,338 L398,338 C460,338 511,288 511,225 L511,113 C511,51 460,0 398,0 L398,0 Z M157,254 C130,254 110,245 97,230 L116,207 C126,218 140,224 157,224 C175,224 186,214 186,201 C186,188 175,178 158,178 C145,178 134,182 125,191 L102,185 L102,96 L208,96 L208,125 L135,125 L135,163 C142,156 155,150 169,150 C195,150 218,169 218,200 C218,233 194,254 157,254 L157,254 Z M256,253 C246,253 238,245 238,235 C238,224 246,216 256,216 C267,216 275,225 275,235 C275,245 267,253 256,253 L256,253 Z M353,254 C309,254 289,214 289,174 C289,134 309,94 353,94 C397,94 417,134 417,174 C417,214 397,254 353,254 L353,254 Z M353,123 C331,123 322,145 322,174 C322,202 331,225 353,225 C375,225 383,202 383,174 C383,145 375,123 353,123 L353,123 Z" id="Shape"></path>
        </g>
    </g>
</svg>