<?xml version="1.0" encoding="UTF-8" standalone="no"?>
<svg width="511px" height="437px" viewBox="0 0 511 437" version="1.1" xmlns="http://www.w3.org/2000/svg" xmlns:xlink="http://www.w3.org/1999/xlink">
    <!-- Generator: Sketch 3.8.3 (29802) - http://www.bohemiancoding.com/sketch -->
    <title>icon-review-line</title>
    <desc>Created with Sketch.</desc>
    <defs></defs>
    <g id="Page-1" stroke="none" stroke-width="1" fill="none" fill-rule="evenodd">
        <g id="icon-review-line" fill="#000000">
            <path d="M487,239 L342,238 C342,238 342,238 341,238 C336,238 332,241 330,245 L329,247 C317,271 288,285 264,277 C252,273 242,264 234,253 C224,235 224,212 235,195 C248,175 271,167 294,172 C308,175 321,185 329,197 C332,201 336,203 340,203 L487,205 C500,205 511,194 511,180 C511,167 496,155 489,153 C474,147 437,121 379,78 C354,57 334,36 322,23 L311,12 C301,3 290,5.32907052e-15 278,1 L276,1 L105,52 C100,53 94,56 90,61 C84,54 76,50 67,49 L38,49 C16,49 1,71 1,91 L0,339 C0,359 15,381 36,381 L65,381 C74,381 83,376 89,370 C93,375 98,378 102,379 L277,436 C280,436 282,437 284,437 C294,437 304,433 311,425 C323,412 354,378 380,358 C419,328 468,299 487,292 C495,289 510,277 510,264 C510,250 499,239 487,239 L487,239 Z M65,355 L36,355 C31,355 25,346 25,339 L26,91 C26,83 32,74 38,74 L66,74 C69,74 74,79 77,85 L77,343 C74,349 69,355 65,355 L65,355 Z M479,267 C457,275 406,305 365,337 C338,358 308,390 293,407 C291,409 287,410 284,410 L284,411 L109,354 C108,353 104,349 102,342 L102,90 L102,90 C104,82 109,77 112,76 L283,26 C287,26 291,28 294,30 C297,33 300,36 304,41 C317,55 337,75 363,98 C425,144 462,169 481,177 C482,177 483,179 485,180 L347,178 C335,163 319,152 301,148 C267,140 233,153 215,181 C198,207 198,240 214,266 C224,282 239,294 257,300 C291,312 331,295 350,263 L483,264 C481,266 479,267 479,267 L479,267 Z" id="Shape"></path>
        </g>
    </g>
</svg>