<?xml version="1.0" encoding="UTF-8" standalone="no"?>
<svg width="512px" height="512px" viewBox="0 0 512 512" version="1.1" xmlns="http://www.w3.org/2000/svg" xmlns:xlink="http://www.w3.org/1999/xlink">
    <!-- Generator: Sketch 3.8.3 (29802) - http://www.bohemiancoding.com/sketch -->
    <title>icon-lounge-fill</title>
    <desc>Created with Sketch.</desc>
    <defs></defs>
    <g id="Page-1" stroke="none" stroke-width="1" fill="none" fill-rule="evenodd">
        <g id="icon-lounge-fill" fill="#000000">
            <path d="M256,208 C266,208 274,200 274,190 C274,180 266,172 256,172 C246,172 238,180 238,190 C238,200 246,208 256,208 L256,208 Z M497,269 C433,255 396,301 396,338 L396,401 L372,383 C372,383 342,364 256,364 C170,364 141,383 140,383 L117,400 L116,338 C113,299 88,248 10,276 C3,286 0,297 0,306 C0,330 14,353 34,361 L38,362 C49,367 50,369 50,372 L50,413 C50,460 76,491 116,495 L116,497 C116,505 123,512 131,512 C140,512 147,505 147,497 L147,495 L365,495 L365,497 C365,505 372,512 381,512 C389,512 396,505 396,497 L396,495 C436,491 462,460 462,413 L462,372 C462,369 463,367 474,362 L478,361 C498,353 512,330 512,306 C512,294 506,280 497,269 L497,269 Z M124,279 C139,295 147,316 147,338 L147,348 C168,341 202,334 256,334 C311,334 345,341 365,348 L365,338 C365,316 374,295 388,279 C403,263 423,254 423,254 L437,159 C443,119 432,79 406,49 C380,18 340,0 298,0 L215,0 C172,0 132,18 106,49 C80,79 69,119 75,159 L89,254 L89,254 C89,254 110,263 124,279 L124,279 Z M187,154 C193,148 203,148 209,154 L216,161 C225,149 239,141 256,141 C272,141 286,149 295,161 L303,154 C309,148 319,148 324,154 C330,160 330,169 324,175 L310,189 L324,204 C330,210 330,219 324,225 C322,228 318,230 314,230 C310,230 306,228 303,225 L295,218 C287,230 272,238 256,238 C240,238 225,230 216,218 L209,225 C206,228 202,230 198,230 C194,230 190,228 187,225 C181,219 181,210 187,204 L201,189 L187,175 C181,169 181,159 187,154 L187,154 Z" id="Shape"></path>
        </g>
    </g>
</svg>