<?xml version="1.0" encoding="UTF-8" standalone="no"?>
<svg width="511px" height="428px" viewBox="0 0 511 428" version="1.1" xmlns="http://www.w3.org/2000/svg" xmlns:xlink="http://www.w3.org/1999/xlink">
    <!-- Generator: Sketch 3.8.3 (29802) - http://www.bohemiancoding.com/sketch -->
    <title>icon-add-photo-1</title>
    <desc>Created with Sketch.</desc>
    <defs></defs>
    <g id="Page-1" stroke="none" stroke-width="1" fill="none" fill-rule="evenodd">
        <g id="icon-add-photo-1" fill="#000000">
            <path d="M305,380 C311,381 311,389 306,390 L92,427 C73,430 56,418 53,399 L1,94 C-3,73 11,53 32,49 L90,39 C103,37 114,46 114,59 L114,301 C114,342 145,375 185,376 L305,380 Z M415,159 C394,159 378,142 378,121 C378,101 394,84 415,84 C435,84 452,101 452,121 C452,142 435,159 415,159 L415,159 Z M418,276 L347,276 L350,276 L212,276 C204,276 200,266 206,260 L261,185 C265,181 270,181 274,185 L290,203 C294,206 299,206 303,203 L336,165 C339,162 345,162 348,165 L396,225 C397,226 414,247 425,262 C429,268 425,276 418,276 L418,276 Z M470,0 L185,0 C162,0 144,19 144,42 L144,334 C144,357 162,376 185,376 L470,376 C493,376 511,357 511,334 L511,42 C511,19 493,0 470,0 L470,0 Z" id="Shape"></path>
        </g>
    </g>
</svg>