<?xml version="1.0" encoding="UTF-8" standalone="no"?>
<svg width="512px" height="288px" viewBox="0 0 512 288" version="1.1" xmlns="http://www.w3.org/2000/svg" xmlns:xlink="http://www.w3.org/1999/xlink">
    <!-- Generator: Sketch 3.8.3 (29802) - http://www.bohemiancoding.com/sketch -->
    <title>icon-caret-down</title>
    <desc>Created with Sketch.</desc>
    <defs></defs>
    <g id="Page-1" stroke="none" stroke-width="1" fill="none" fill-rule="evenodd">
        <g id="icon-caret-down" fill="#000000">
            <g id="Page-1">
                <g id="icon-caret-down">
                    <path d="M511.562874,31.9726796 C511.562874,40.631947 508.398912,48.1255437 502.070984,54.4534699 L278.262227,278.262227 C271.934301,284.590153 264.440704,287.754116 255.781437,287.754116 C247.12217,287.754116 239.628573,284.590153 233.300646,278.262227 L9.49188925,54.4534699 C3.16396308,48.1255437 0,40.631947 0,31.9726796 C0,23.3134122 3.16396308,15.8198154 9.49188925,9.49188925 C15.8198154,3.16396308 23.3134122,0 31.9726796,0 L479.590194,0 C488.249461,0 495.743058,3.16396308 502.070984,9.49188925 C508.398912,15.8198154 511.562874,23.3134122 511.562874,31.9726796 L511.562874,31.9726796 L511.562874,31.9726796 Z" id="Shape"></path>
                </g>
            </g>
        </g>
    </g>
</svg>