<?xml version="1.0" encoding="UTF-8" standalone="no"?>
<svg width="512px" height="380px" viewBox="0 0 512 380" version="1.1" xmlns="http://www.w3.org/2000/svg" xmlns:xlink="http://www.w3.org/1999/xlink">
    <!-- Generator: Sketch 3.8.3 (29802) - http://www.bohemiancoding.com/sketch -->
    <title>icon-rating-3-2</title>
    <desc>Created with Sketch.</desc>
    <defs></defs>
    <g id="Page-1" stroke="none" stroke-width="1" fill="none" fill-rule="evenodd">
        <g id="icon-rating-3-2" fill="#000000">
            <path d="M376,135 C372,132 368,131 364,131 C360,131 356,132 353,135 C349,138 346,142 345,150 C342,159 341,174 341,196 C341,218 342,234 344,242 C347,250 349,255 353,258 C356,261 360,262 364,262 C369,262 372,261 376,258 C379,255 382,250 384,243 C386,234 387,218 387,197 C387,175 386,160 384,151 C382,143 379,138 376,135 L376,135 Z M455,0 L57,0 C26,0 0,25 0,57 L0,323 C0,355 26,380 57,380 L455,380 C486,380 512,355 512,323 L512,57 C512,25 486,0 455,0 L455,0 Z M190,274 C178,286 164,292 146,292 C129,292 115,287 104,277 C93,268 86,255 84,239 L119,235 C120,244 123,251 128,255 C133,260 138,262 145,262 C153,262 159,259 164,254 C169,248 172,241 172,231 C172,222 169,215 165,209 C160,204 154,202 147,202 C142,202 137,202 131,204 L134,175 C144,175 152,173 157,168 C162,164 164,158 164,151 C164,144 163,140 159,136 C155,132 150,130 144,130 C138,130 133,132 128,136 C124,141 121,147 120,155 L87,150 C89,139 93,130 98,123 C102,116 109,111 117,107 C125,103 135,101 145,101 C163,101 177,107 187,118 C196,127 200,137 200,149 C200,165 191,178 173,188 C184,191 193,196 199,204 C205,212 209,221 209,232 C208,249 202,263 190,274 L190,274 Z M274,289 L238,289 L238,253 L274,253 L274,289 Z M406,273 C396,285 382,292 364,292 C346,292 331,285 320,271 C309,257 303,232 303,196 C303,161 310,136 322,120 C332,107 346,101 364,101 C382,101 396,107 407,120 C419,136 425,161 425,196 C425,232 419,257 406,273 L406,273 Z" id="Shape"></path>
        </g>
    </g>
</svg>