<?xml version="1.0" encoding="UTF-8" standalone="no"?>
<svg width="511px" height="407px" viewBox="0 0 511 407" version="1.1" xmlns="http://www.w3.org/2000/svg" xmlns:xlink="http://www.w3.org/1999/xlink">
    <!-- Generator: Sketch 3.8.3 (29802) - http://www.bohemiancoding.com/sketch -->
    <title>icon-network</title>
    <desc>Created with Sketch.</desc>
    <defs></defs>
    <g id="Page-1" stroke="none" stroke-width="1" fill="none" fill-rule="evenodd">
        <g id="icon-network" fill="#000000">
            <path d="M229,223 L229,200 C237,193 247,179 249,150 C258,143 263,129 263,116 C263,108 261,101 258,96 C257,94 255,93 254,92 C259,80 264,62 260,43 C253,17 223,0 182,0 C149,0 122,11 110,30 C97,30 89,37 86,42 C77,57 84,76 90,91 C88,93 87,94 86,96 C82,102 80,109 80,117 C80,130 85,144 94,151 C96,180 107,194 116,201 L116,224 C85,237 0,275 0,301 L0,392 C0,400 7,407 15,407 L330,407 C339,407 346,400 346,392 L346,301 C345,275 260,236 229,223 L229,223 Z M314,376 L30,376 L30,304 C40,294 87,268 136,248 C142,245 146,240 146,233 L146,192 C146,185 142,180 136,178 C136,178 124,172 124,140 C124,133 119,127 112,125 C111,123 110,117 111,114 C118,113 124,106 124,98 C124,94 123,91 120,84 C118,80 113,67 112,61 L116,61 C124,63 132,58 134,50 C137,39 158,30 182,30 C207,30 227,39 230,50 C233,63 227,77 224,86 C221,91 220,94 220,98 C220,106 225,112 232,114 C233,117 232,123 231,125 C224,127 219,133 219,140 C219,172 209,177 209,178 C203,180 198,185 198,192 L198,234 C198,240 202,246 208,248 C258,268 304,294 315,304 L315,376 L314,376 Z M451,261 C438,257 424,253 411,248 L411,235 C421,229 434,216 437,191 C445,184 448,171 448,159 C448,154 447,146 444,139 C444,138 443,137 442,136 C447,125 453,110 447,94 C439,69 407,60 381,60 C358,60 333,66 320,82 C310,83 304,87 300,91 C290,104 295,121 300,134 C298,135 297,137 296,139 C293,146 292,153 292,159 C292,171 296,184 303,191 C306,215 319,228 331,235 L331,250 C331,259 338,266 347,266 C355,266 362,259 362,250 L362,225 C362,218 357,212 350,211 C350,211 334,206 334,182 C334,176 330,170 324,168 C323,165 323,159 323,155 C329,153 334,147 334,140 C334,136 332,133 330,128 C329,125 327,118 326,113 C333,115 341,111 343,103 C345,97 360,90 381,90 C402,90 417,97 419,103 C422,111 416,121 412,127 C410,131 408,135 408,140 C408,147 412,152 418,155 C418,158 418,164 417,168 C411,170 407,175 407,182 C407,205 394,210 392,210 C386,212 381,218 381,225 L381,258 C381,265 385,270 391,273 C407,279 426,285 442,290 C456,294 473,300 481,303 L481,376 L380,376 C371,376 365,383 365,391 C365,400 371,407 380,407 L495,407 C504,407 511,400 511,391 L511,297 C511,279 491,273 451,261 L451,261 Z" id="Shape"></path>
        </g>
    </g>
</svg>