<?xml version="1.0" encoding="UTF-8" standalone="no"?>
<svg width="512px" height="512px" viewBox="0 0 512 512" version="1.1" xmlns="http://www.w3.org/2000/svg" xmlns:xlink="http://www.w3.org/1999/xlink">
    <!-- Generator: Sketch 3.8.3 (29802) - http://www.bohemiancoding.com/sketch -->
    <title>icon-search-semantic</title>
    <desc>Created with Sketch.</desc>
    <defs></defs>
    <g id="Page-1" stroke="none" stroke-width="1" fill="none" fill-rule="evenodd">
        <g id="icon-search-semantic" fill="#000000">
            <g id="Page-1">
                <g id="icon-search-semantic">
                    <path d="M354.461538,216.615385 C354.461538,178.666667 340.97436,146.205128 314,119.230769 C287.025641,92.2564102 254.564102,78.7692308 216.615385,78.7692308 C178.666667,78.7692308 146.205128,92.2564102 119.230769,119.230769 C92.2564102,146.205128 78.7692308,178.666667 78.7692308,216.615385 C78.7692308,254.564102 92.2564102,287.025641 119.230769,314 C146.205128,340.97436 178.666667,354.461538 216.615385,354.461538 C254.564102,354.461538 287.025641,340.97436 314,314 C340.97436,287.025641 354.461538,254.564102 354.461538,216.615385 L354.461538,216.615385 L354.461538,216.615385 L354.461538,216.615385 Z M512,472.615385 C512,483.282052 508.102563,492.512822 500.307692,500.307692 C492.512822,508.102563 483.282052,512 472.615385,512 C461.538462,512 452.307692,508.102563 444.923077,500.307692 L339.384615,395.076923 C302.666667,420.512822 261.74359,433.230769 216.615385,433.230769 C187.282051,433.230769 159.230769,427.538462 132.461538,416.153846 C105.692308,404.769231 82.6153846,389.384615 63.2307692,370 C43.8461538,350.615385 28.4615385,327.538462 17.0769231,300.769231 C5.69230769,274 0,245.948718 0,216.615385 C0,187.282051 5.69230769,159.230769 17.0769231,132.461538 C28.4615385,105.692308 43.8461538,82.6153846 63.2307692,63.2307692 C82.6153846,43.8461538 105.692308,28.4615385 132.461538,17.0769231 C159.230769,5.69230769 187.282051,0 216.615385,0 C245.948718,0 274,5.69230769 300.769231,17.0769231 C327.538462,28.4615385 350.615385,43.8461538 370,63.2307692 C389.384615,82.6153846 404.769231,105.692308 416.153846,132.461538 C427.538462,159.230769 433.230769,187.282051 433.230769,216.615385 C433.230769,261.74359 420.512822,302.666667 395.076923,339.384615 L500.615385,444.923077 C508.205129,452.512822 512,461.743591 512,472.615385 L512,472.615385 L512,472.615385 L512,472.615385 Z" id="Shape"></path>
                </g>
            </g>
        </g>
    </g>
</svg>