<?xml version="1.0" encoding="UTF-8" standalone="no"?>
<svg width="511px" height="502px" viewBox="0 0 511 502" version="1.1" xmlns="http://www.w3.org/2000/svg" xmlns:xlink="http://www.w3.org/1999/xlink">
    <!-- Generator: Sketch 3.8.3 (29802) - http://www.bohemiancoding.com/sketch -->
    <title>icon-events-1</title>
    <desc>Created with Sketch.</desc>
    <defs></defs>
    <g id="Page-1" stroke="none" stroke-width="1" fill="none" fill-rule="evenodd">
        <g id="icon-events-1" fill="#000000">
            <path d="M160,102 L164,102 C170,102 177,97 179,90 L195,19 C197,11 192,2 184,1 C176,-1 167,4 165,12 L149,83 C147,91 152,100 160,102 L160,102 Z M373,102 L377,102 C383,102 390,97 392,90 L408,19 C410,11 405,2 397,1 C389,-1 380,4 378,12 L362,83 C360,91 365,100 373,102 L373,102 Z M223,76 L329,76 C337,76 344,69 344,61 C344,52 337,45 329,45 L223,45 C214,45 207,52 207,61 C207,69 214,76 223,76 L223,76 Z M203,223 C187,223 171,228 157,237 L164,252 C171,247 178,245 182,243 C187,242 192,241 197,241 C205,241 210,243 213,246 C216,249 217,253 215,259 C212,273 200,281 179,281 L167,281 L163,298 L174,298 C186,298 195,300 200,303 C204,307 206,312 204,319 C203,327 199,333 193,337 C187,340 179,342 168,342 C162,342 157,341 151,340 C145,338 139,336 134,334 L130,352 C139,357 151,360 166,360 C182,360 196,356 206,349 C217,342 224,332 227,319 C229,311 228,304 224,298 C219,293 212,290 202,288 C212,285 219,282 225,276 C231,271 236,264 238,255 C240,245 238,237 232,232 C226,226 216,223 203,223 L203,223 Z M265,256 L272,269 C286,260 294,255 297,253 C299,251 301,249 303,248 C301,254 299,262 296,272 L277,358 L298,358 L328,225 L310,225 L265,256 Z M511,58 C511,57 511,56 510,56 C510,54 509,53 509,52 C508,52 508,51 508,51 C508,51 508,50 507,50 C506,49 505,48 504,48 L503,47 C501,46 498,45 496,45 L442,45 C434,45 427,52 427,61 C427,69 434,76 442,76 L479,76 C475,100 472,123 468,145 L89,145 C92,122 95,100 98,76 L122,76 C130,76 137,69 137,61 C137,52 130,45 122,45 L84,45 C76,45 70,51 69,59 C53,199 32,307 1,409 C-1,413 1,419 3,422 C6,426 11,429 16,429 L55,429 C55,430 54,431 54,432 L54,486 C54,495 61,502 70,502 L496,502 C505,502 511,495 511,486 L511,61 L511,58 L511,58 Z M84,175 L463,175 C445,273 425,345 399,398 L37,398 C56,330 72,258 84,175 L84,175 Z M85,471 L85,432 L85,429 L408,429 C414,429 419,425 422,420 C445,375 464,318 481,243 L481,471 L85,471 L85,471 Z" id="Shape"></path>
        </g>
    </g>
</svg>