<?xml version="1.0" encoding="UTF-8" standalone="no"?>
<svg width="512px" height="346px" viewBox="0 0 512 346" version="1.1" xmlns="http://www.w3.org/2000/svg" xmlns:xlink="http://www.w3.org/1999/xlink">
    <!-- Generator: Sketch 3.8.3 (29802) - http://www.bohemiancoding.com/sketch -->
    <title>icon-buffet</title>
    <desc>Created with Sketch.</desc>
    <defs></defs>
    <g id="Page-1" stroke="none" stroke-width="1" fill="none" fill-rule="evenodd">
        <g id="icon-buffet" fill="#000000">
            <path d="M497,266 L470,266 C463,169 392,90 299,71 C302,64 305,57 305,49 C305,22 283,0 256,0 C229,0 207,22 207,49 C207,57 210,64 213,71 C120,90 49,169 42,266 L15,266 C7,266 0,272 0,281 C0,289 7,296 15,296 L25,296 L67,341 C70,344 74,346 78,346 L430,346 C434,346 438,344 441,341 L486,296 L497,296 C505,296 512,289 512,281 C512,272 505,266 497,266 L497,266 Z M238,49 C238,39 246,31 256,31 C266,31 274,39 274,49 C274,58 266,66 256,66 C246,66 238,58 238,49 L238,49 Z M256,97 C352,97 431,171 439,266 L73,266 C81,171 160,97 256,97 L256,97 Z M424,315 L85,315 L67,296 L443,296 L424,315 Z M256,116 C201,116 150,143 119,189 C114,196 116,206 123,211 C126,212 129,213 132,213 C137,213 142,211 145,206 C170,169 211,147 256,147 C265,147 271,140 271,131 C271,123 265,116 256,116 L256,116 Z" id="Shape"></path>
        </g>
    </g>
</svg>