<?xml version="1.0" encoding="UTF-8" standalone="no"?>
<svg width="513px" height="422px" viewBox="0 0 513 422" version="1.1" xmlns="http://www.w3.org/2000/svg" xmlns:xlink="http://www.w3.org/1999/xlink">
    <!-- Generator: Sketch 3.8.3 (29802) - http://www.bohemiancoding.com/sketch -->
    <title>icon-bistro-fill</title>
    <desc>Created with Sketch.</desc>
    <defs></defs>
    <g id="Page-1" stroke="none" stroke-width="1" fill="none" fill-rule="evenodd">
        <g id="icon-bistro-fill" fill="#000000">
            <path d="M485,35 C470,12 454,0 436,0 L78,0 C60,0 44,12 29,35 C16,54 -4,100 2,115 C15,146 45,166 78,166 C101,166 123,156 138,140 C153,156 175,166 198,166 C214,166 229,161 242,152 L242,275 C242,276 243,277 243,278 L243,278 C242,279 242,280 242,280 C238,331 228,358 221,374 C215,383 204,391 187,391 C158,391 152,371 152,354 C152,346 155,332 175,332 C183,333 187,335 188,336 L188,338 C185,340 183,345 182,349 C182,358 188,365 197,365 C204,366 210,362 214,356 C219,348 221,335 215,323 C211,315 201,303 176,302 C138,302 121,329 121,354 C121,386 138,422 187,422 C230,422 250,390 257,368 C264,390 284,422 327,422 C376,422 393,385 393,354 C393,329 376,302 337,302 C312,303 302,315 299,323 C292,335 295,348 300,356 C304,362 310,366 317,365 C325,365 332,358 331,349 C331,345 329,340 326,338 L326,336 C327,335 331,333 338,332 C359,332 362,346 362,354 C362,371 356,391 327,391 C309,391 299,382 293,374 C286,358 275,331 272,280 C272,280 271,279 271,278 L271,278 C271,277 272,276 272,275 L272,152 C285,160 300,165 316,165 C339,165 360,156 376,139 C391,156 412,165 435,165 C469,165 498,146 511,115 C518,99 498,54 485,35 L485,35 Z" id="Shape"></path>
        </g>
    </g>
</svg>