<?xml version="1.0" encoding="UTF-8" standalone="no"?>
<svg width="512px" height="512px" viewBox="0 0 512 512" version="1.1" xmlns="http://www.w3.org/2000/svg" xmlns:xlink="http://www.w3.org/1999/xlink">
    <!-- Generator: Sketch 3.8.3 (29802) - http://www.bohemiancoding.com/sketch -->
    <title>icon-settings</title>
    <desc>Created with Sketch.</desc>
    <defs></defs>
    <g id="Page-1" stroke="none" stroke-width="1" fill="none" fill-rule="evenodd">
        <g id="icon-settings" fill="#000000">
            <path d="M297,512 L215,512 C206,512 199,505 199,497 L199,439 C197,438 195,438 193,437 C185,434 175,431 166,426 L126,467 C120,473 111,473 104,467 L45,408 C42,405 41,401 41,397 C41,393 42,389 45,386 L86,346 C79,330 74,311 71,296 L15,296 C7,296 0,289 0,281 L0,215 C0,206 7,199 15,199 L73,199 C74,197 74,195 75,193 C78,185 81,175 86,166 L45,126 C39,120 39,111 45,104 L104,45 C110,39 120,39 126,45 L166,86 C175,81 185,78 193,75 C195,74 197,74 199,73 L199,15 C199,7 206,0 215,0 L297,0 C306,0 313,7 313,15 L313,73 C315,74 317,74 319,75 C327,78 337,81 346,86 L386,45 C392,39 401,39 408,45 L467,104 C470,107 471,111 471,115 C471,119 470,123 467,126 L426,166 C429,174 432,182 434,190 C435,193 436,196 436,199 L497,199 C505,199 512,206 512,214 L512,281 C512,289 505,296 497,296 L442,296 C439,322 433,335 427,346 L467,386 C473,391 473,401 467,407 L408,466 C402,472 392,472 386,466 L346,426 C337,431 327,434 319,437 C317,438 315,438 313,439 L313,497 C313,505 306,512 297,512 L297,512 Z M230,481 L282,481 L282,429 C282,423 285,418 290,415 C294,413 301,411 308,408 C319,404 332,400 340,395 C347,391 354,392 359,397 L397,434 L434,397 L397,359 C392,354 391,347 394,340 C404,325 409,316 413,279 C414,272 421,265 429,265 L481,265 L481,230 L433,230 C431,231 429,231 428,231 C414,231 410,219 404,199 C402,190 398,177 395,171 C391,165 392,157 397,152 L434,115 L397,78 L359,115 C354,120 347,121 340,118 C332,112 319,108 308,104 C301,101 294,99 290,97 C285,94 282,89 282,83 L282,31 L230,31 L230,83 C230,89 227,94 222,97 C218,99 211,101 204,104 C193,108 180,112 172,117 C165,121 158,120 153,115 L115,78 L78,115 L115,153 C120,158 121,165 118,172 C113,180 108,193 104,204 C101,211 99,218 97,222 C94,227 89,230 83,230 L31,230 L31,265 L83,265 C91,265 97,271 98,278 C103,306 110,329 117,340 C121,346 120,354 115,359 L78,396 L115,434 L153,397 C158,392 165,391 172,394 C180,400 193,404 204,408 C211,411 218,413 222,415 C227,418 230,423 230,429 L230,481 Z M256,363 C197,363 150,315 150,256 C150,197 197,150 256,150 C315,150 363,197 363,256 C363,315 315,363 256,363 L256,363 Z M256,180 C214,180 180,214 180,256 C180,298 214,332 256,332 C298,332 332,298 332,256 C332,214 298,180 256,180 L256,180 Z" id="Shape"></path>
        </g>
    </g>
</svg>