<?xml version="1.0" encoding="UTF-8" standalone="no"?>
<svg width="507px" height="512px" viewBox="0 0 507 512" version="1.1" xmlns="http://www.w3.org/2000/svg" xmlns:xlink="http://www.w3.org/1999/xlink">
    <!-- Generator: Sketch 3.8.3 (29802) - http://www.bohemiancoding.com/sketch -->
    <title>icon-recently-viewed</title>
    <desc>Created with Sketch.</desc>
    <defs></defs>
    <g id="Page-1" stroke="none" stroke-width="1" fill="none" fill-rule="evenodd">
        <g id="icon-recently-viewed" fill="#000000">
            <path d="M252,0 C161,0 78,48 32,125 L32,72 C32,63 25,56 16,56 C7,56 1,63 1,72 L1,186 C1,191 4,196 8,199 C11,201 14,202 16,202 C19,202 21,201 23,200 L119,150 C127,146 130,137 126,129 C122,121 113,118 105,122 L54,149 C93,76 169,31 251,31 C375,31 476,132 476,256 C476,380 375,481 251,481 C145,481 53,405 31,302 C29,293 21,288 13,290 C4,291 -1,299 1,308 C25,426 131,512 252,512 C393,512 507,397 507,256 C507,115 393,0 252,0 L252,0 Z M32,160 L32,160 L33,160 L32,160 Z M333,348 C330,348 326,347 324,345 L245,286 C241,283 238,278 238,273 L238,124 C238,115 245,108 254,108 C263,108 270,115 270,124 L270,265 L342,320 C349,325 351,335 346,342 C342,346 338,348 333,348 L333,348 Z" id="Shape"></path>
        </g>
    </g>
</svg>