<?xml version="1.0" encoding="UTF-8" standalone="no"?>
<svg width="510px" height="510px" viewBox="0 0 510 510" version="1.1" xmlns="http://www.w3.org/2000/svg" xmlns:xlink="http://www.w3.org/1999/xlink">
    <!-- Generator: Sketch 3.8.3 (29802) - http://www.bohemiancoding.com/sketch -->
    <title>icon-wand-admin</title>
    <desc>Created with Sketch.</desc>
    <defs></defs>
    <g id="Page-1" stroke="none" stroke-width="1" fill="none" fill-rule="evenodd">
        <g id="icon-wand-admin" fill="#000000">
            <path d="M16,510 C12,510 8,509 5,506 C-1,500 -1,490 5,484 L277,212 C283,206 293,206 299,212 C305,218 305,228 299,234 L26,506 C24,509 19,510 16,510 L16,510 Z M494,163 L428,163 C420,163 413,156 413,148 C413,139 420,132 428,132 L494,132 C503,132 510,139 510,148 C510,156 503,163 494,163 L494,163 Z M411,113 C408,113 403,112 401,109 C395,103 395,93 401,87 L450,37 C456,31 466,31 472,37 C478,43 478,53 472,59 L422,109 C419,112 415,113 411,113 L411,113 Z M362,97 C353,97 346,90 346,81 L346,15 C346,6 353,0 362,0 C370,0 377,6 377,15 L377,81 C377,90 370,97 362,97 L362,97 Z M312,113 C308,113 304,112 301,109 L251,59 C245,53 245,43 251,37 C257,31 267,31 273,37 L323,87 C329,93 329,102 323,109 C320,112 316,113 312,113 L312,113 Z M295,163 L229,163 C221,163 214,156 214,148 C214,139 221,132 229,132 L295,132 C304,132 311,139 311,148 C311,156 304,163 295,163 L295,163 Z M362,304 C353,304 346,297 346,289 L346,222 C346,214 353,207 362,207 C370,207 377,214 377,222 L377,289 C377,297 370,304 362,304 L362,304 Z M461,263 C457,263 453,261 450,258 L401,208 C395,202 395,193 401,187 C407,181 416,181 422,187 L472,236 C478,242 478,252 472,258 C469,261 465,263 461,263 L461,263 Z" id="Shape"></path>
        </g>
    </g>
</svg>