<?xml version="1.0" encoding="UTF-8" standalone="no"?>
<svg width="512px" height="456px" viewBox="0 0 512 456" version="1.1" xmlns="http://www.w3.org/2000/svg" xmlns:xlink="http://www.w3.org/1999/xlink">
    <!-- Generator: Sketch 3.8.3 (29802) - http://www.bohemiancoding.com/sketch -->
    <title>icon-lists-web</title>
    <desc>Created with Sketch.</desc>
    <defs></defs>
    <g id="Page-1" stroke="none" stroke-width="1" fill="none" fill-rule="evenodd">
        <g id="icon-lists-web" fill="#000000">
            <path d="M493,72 L181,72 C170,72 162,63 162,53 C162,42 170,34 181,34 L493,34 C504,34 512,42 512,53 C512,63 503,72 493,72 L493,72 Z M493,238 L181,238 C170,238 162,230 162,219 C162,209 170,200 181,200 L493,200 C504,200 512,209 512,219 C512,230 503,238 493,238 L493,238 Z M493,422 L181,422 C170,422 162,414 162,403 C162,393 170,384 181,384 L493,384 C504,384 512,393 512,403 C512,414 503,422 493,422 L493,422 Z M52,35 C62,35 70,43 70,53 C70,62 62,70 52,70 C43,70 35,62 35,53 C35,43 43,35 52,35 L52,35 Z M52,0 C24,0 0,24 0,53 C0,82 24,105 52,105 C81,105 105,82 105,53 C105,24 81,0 52,0 L52,0 Z M52,202 C62,202 70,210 70,219 C70,229 62,236 52,236 C43,236 35,229 35,219 C35,210 43,202 52,202 L52,202 Z M52,167 C24,167 0,190 0,219 C0,248 24,272 52,272 C81,272 105,248 105,219 C105,190 81,167 52,167 L52,167 Z M52,385 C62,385 70,393 70,403 C70,412 62,420 52,420 C43,420 35,412 35,403 C35,393 43,385 52,385 L52,385 Z M52,350 C24,350 0,374 0,403 C0,432 24,456 52,456 C81,456 105,432 105,403 C105,374 81,350 52,350 L52,350 Z" id="Shape"></path>
        </g>
    </g>
</svg>