<?xml version="1.0" encoding="UTF-8" standalone="no"?>
<svg width="512px" height="512px" viewBox="0 0 512 512" version="1.1" xmlns="http://www.w3.org/2000/svg" xmlns:xlink="http://www.w3.org/1999/xlink">
    <!-- Generator: Sketch 3.8.3 (29802) - http://www.bohemiancoding.com/sketch -->
    <title>icon-user</title>
    <desc>Created with Sketch.</desc>
    <defs></defs>
    <g id="Page-1" stroke="none" stroke-width="1" fill="none" fill-rule="evenodd">
        <g id="icon-user" fill="#000000">
            <path d="M256,0 C115,0 0,115 0,256 C0,397 115,512 256,512 C397,512 512,397 512,256 C512,115 397,0 256,0 L256,0 Z M256,481 C132,481 31,380 31,256 C31,132 132,31 256,31 C380,31 481,132 481,256 C481,380 380,481 256,481 L256,481 Z M305,282 L298,280 L298,267 C303,262 308,252 310,239 C312,236 314,232 315,227 C317,219 316,210 313,204 C317,193 323,175 320,160 C315,137 287,129 263,129 C242,129 226,135 218,144 C210,146 205,151 202,155 C191,169 196,190 200,203 C196,210 195,218 197,228 C198,232 200,236 202,239 C204,252 210,261 214,266 L214,281 L208,283 C173,296 149,304 140,322 C129,345 129,367 129,368 C129,377 136,384 144,384 L369,384 C377,384 384,377 384,368 C384,367 384,345 373,322 C363,304 340,295 305,282 L305,282 Z M161,353 C163,347 164,342 167,335 C171,328 196,319 218,311 L234,305 C240,303 244,297 244,291 L244,260 C244,255 242,251 238,248 C238,248 232,242 232,231 C232,226 230,222 227,219 L227,219 C230,216 232,211 232,207 C232,204 232,201 230,197 C226,183 226,176 226,174 L227,174 C233,174 239,169 241,164 C243,162 251,159 263,159 C279,159 289,164 290,166 C291,174 285,189 283,195 C281,200 280,203 280,207 C280,211 282,216 285,219 L285,219 C282,222 280,227 280,231 C280,243 273,250 273,250 C270,253 268,257 268,262 L268,291 C268,297 272,303 278,305 L294,311 C316,319 341,328 345,335 C348,341 349,347 351,353 L161,353 Z" id="Shape"></path>
        </g>
    </g>
</svg>