<?xml version="1.0" encoding="UTF-8" standalone="no"?>
<svg width="510px" height="294px" viewBox="0 0 510 294" version="1.1" xmlns="http://www.w3.org/2000/svg" xmlns:xlink="http://www.w3.org/1999/xlink">
    <!-- Generator: Sketch 3.8.3 (29802) - http://www.bohemiancoding.com/sketch -->
    <title>icon-canteen-fill</title>
    <desc>Created with Sketch.</desc>
    <defs></defs>
    <g id="Page-1" stroke="none" stroke-width="1" fill="none" fill-rule="evenodd">
        <g id="icon-canteen-fill" fill="#000000">
            <path d="M311,10 C309,4 302,0 296,0 L215,0 C208,0 202,4 199,10 L125,184 C123,190 124,195 127,200 C130,205 135,207 140,207 L177,207 L177,277 C177,287 185,294 194,294 C203,294 211,287 211,277 L211,208 L308,208 L308,278 C308,287 315,294 324,294 C334,294 341,287 341,278 L341,208 L371,208 C376,208 381,205 384,200 C388,196 388,190 386,185 L311,10 Z M49,172 C19,172 0,183 0,200 C0,214 12,224 33,227 L33,264 C33,273 40,281 49,281 C59,281 66,273 66,264 L66,227 C87,224 99,214 99,200 C99,183 80,172 49,172 L49,172 Z M81,93 C49,93 31,102 31,119 C31,136 49,145 81,145 C112,145 130,136 130,119 C130,103 112,93 81,93 L81,93 Z M113,70 C146,70 163,62 163,46 C163,29 146,21 113,21 C80,21 64,29 64,46 C64,62 80,70 113,70 L113,70 Z M510,200 C510,183 491,172 461,172 C430,172 411,183 411,200 C411,214 424,224 444,227 L444,264 C444,273 452,281 461,281 C470,281 477,273 477,264 L477,227 C498,224 510,214 510,200 L510,200 Z M480,119 C480,102 462,93 430,93 C398,93 380,102 380,119 C380,136 398,145 430,145 C462,145 480,136 480,119 L480,119 Z M396,70 C429,70 446,62 446,46 C446,29 429,21 396,21 C363,21 346,29 346,46 C346,62 363,70 396,70 L396,70 Z" id="Shape"></path>
        </g>
    </g>
</svg>