<?xml version="1.0" encoding="UTF-8" standalone="no"?>
<svg width="280px" height="490px" viewBox="0 0 280 490" version="1.1" xmlns="http://www.w3.org/2000/svg" xmlns:xlink="http://www.w3.org/1999/xlink">
    <!-- Generator: Sketch 3.8.3 (29802) - http://www.bohemiancoding.com/sketch -->
    <title>icon-malaysia-new-curved-artboard-2-copy-15</title>
    <desc>Created with Sketch.</desc>
    <defs></defs>
    <g id="Page-1" stroke="none" stroke-width="1" fill="none" fill-rule="evenodd">
        <g id="icon-malaysia-new-curved-artboard-2-copy-15" fill="#000000">
            <path d="M140,342 C188,342 228,303 228,254 L228,88 C228,39 188,0 140,0 C92,0 52,39 52,88 L52,254 C52,303 92,342 140,342 L140,342 Z M70,118 L108,118 C113,118 117,114 117,109 C117,104 113,100 108,100 L70,100 L70,88 C70,85 71,82 71,79 L108,79 C113,79 117,75 117,70 C117,65 113,61 108,61 L75,61 C86,36 111,18 140,18 C169,18 194,36 205,61 L172,61 C167,61 163,65 163,70 C163,75 167,79 172,79 L209,79 C209,82 210,85 210,88 L210,100 L172,100 C167,100 163,104 163,109 C163,114 167,118 172,118 L210,118 L210,254 C210,293 178,324 140,324 C102,324 70,293 70,254 L70,118 L70,118 Z M271,117 C266,117 262,121 262,126 L262,132 L248,132 C243,132 239,136 239,141 C239,146 243,150 248,150 L262,150 L262,257 C262,324 207,379 140,379 C73,379 18,324 18,257 L18,150 L32,150 C37,150 41,146 41,141 C41,136 37,132 32,132 L18,132 L18,123 C18,118 14,114 9,114 C4,114 0,118 0,123 L0,257 C0,331 58,392 131,396 L131,481 C131,486 135,490 140,490 C145,490 149,486 149,481 L149,396 C222,391 280,331 280,257 L280,126 C280,121 276,117 271,117 L271,117 Z" id="Shape"></path>
        </g>
    </g>
</svg>