<?xml version="1.0" encoding="UTF-8" standalone="no"?>
<svg width="512px" height="393px" viewBox="0 0 512 393" version="1.1" xmlns="http://www.w3.org/2000/svg" xmlns:xlink="http://www.w3.org/1999/xlink">
    <!-- Generator: Sketch 3.8.3 (29802) - http://www.bohemiancoding.com/sketch -->
    <title>icon-checkmark-semantic</title>
    <desc>Created with Sketch.</desc>
    <defs></defs>
    <g id="Page-1" stroke="none" stroke-width="1" fill="none" fill-rule="evenodd">
        <g id="icon-checkmark-semantic" fill="#000000">
            <g id="Page-1">
                <g id="icon-checkmark-semantic">
                    <path d="M512,76.6348387 C512,85.443441 508.91699,92.9307526 502.750968,99.0967742 L263.597419,338.250323 L218.673548,383.174194 C212.507527,389.340216 205.020215,392.423226 196.211613,392.423226 C187.403011,392.423226 179.915699,389.340216 173.749677,383.174194 L128.825806,338.250323 L9.24903226,218.673548 C3.08301075,212.507527 0,205.020215 0,196.211613 C0,187.403011 3.08301075,179.915699 9.24903226,173.749677 L54.1729032,128.825806 C60.3389248,122.659785 67.8262364,119.576774 76.6348387,119.576774 C85.443441,119.576774 92.9307526,122.659785 99.0967742,128.825806 L196.211613,226.270968 L412.903226,9.24903226 C419.069248,3.08301075 426.556558,0 435.365161,0 C444.173765,0 451.661074,3.08301075 457.827097,9.24903226 L502.750968,54.1729032 C508.91699,60.3389248 512,67.8262364 512,76.6348387 L512,76.6348387 L512,76.6348387 Z"></path>
                </g>
            </g>
        </g>
    </g>
</svg>