<?xml version="1.0" encoding="UTF-8" standalone="no"?>
<svg width="512px" height="512px" viewBox="0 0 512 512" version="1.1" xmlns="http://www.w3.org/2000/svg" xmlns:xlink="http://www.w3.org/1999/xlink">
    <!-- Generator: Sketch 3.8.3 (29802) - http://www.bohemiancoding.com/sketch -->
    <title>icon-quote-admin</title>
    <desc>Created with Sketch.</desc>
    <defs></defs>
    <g id="Page-1" stroke="none" stroke-width="1" fill="none" fill-rule="evenodd">
        <g id="icon-quote-admin" fill="#000000">
            <path d="M497,0 L15,0 C7,0 0,7 0,15 L0,497 C0,505 7,512 15,512 L497,512 C505,512 512,505 512,497 L512,15 C512,7 505,0 497,0 L497,0 Z M481,481 L31,481 L31,31 L481,31 L481,481 Z M352,405 C361,405 368,398 368,389 C368,381 361,374 352,374 C327,374 307,354 307,328 L307,295 L412,295 C421,295 428,289 428,280 L428,160 C428,151 421,144 412,144 L292,144 C284,144 277,151 277,160 L277,328 C277,370 311,405 352,405 L352,405 Z M307,175 L397,175 L397,264 L307,264 L307,175 Z M160,405 C168,405 175,398 175,389 C175,381 168,374 160,374 C135,374 115,354 115,328 L115,295 L220,295 C228,295 235,289 235,280 L235,160 C235,151 228,144 220,144 L100,144 C91,144 84,151 84,160 L84,328 C84,370 118,405 160,405 L160,405 Z M115,175 L205,175 L205,264 L115,264 L115,175 Z" id="Shape"></path>
        </g>
    </g>
</svg>