<?xml version="1.0" encoding="UTF-8" standalone="no"?>
<svg width="508px" height="511px" viewBox="0 0 508 511" version="1.1" xmlns="http://www.w3.org/2000/svg" xmlns:xlink="http://www.w3.org/1999/xlink">
    <!-- Generator: Sketch 3.8.3 (29802) - http://www.bohemiancoding.com/sketch -->
    <title>icon-empty-food-journey</title>
    <desc>Created with Sketch.</desc>
    <defs></defs>
    <g id="Page-1" stroke="none" stroke-width="1" fill="none" fill-rule="evenodd">
        <g id="icon-empty-food-journey" fill="#000000">
            <path d="M500,168 L486,168 L485,168 L484,168 C484,167 481,163 472,165 C472,163 472,162 470,161 C408,140 333,141 260,162 L260,154 C260,151 258,149 255,149 C252,149 249,152 249,154 L249,162 C182,141 107,140 39,161 C38,162 37,163 37,165 C31,164 26,166 26,167 C25,167 24,168 24,169 C23,168 22,168 21,168 L8,168 C4,168 0,171 0,176 L0,495 C0,500 4,503 8,503 L219,503 L233,510 C234,510 236,511 237,511 L273,511 C274,511 275,510 276,510 L290,503 L500,503 C504,503 508,500 508,495 L508,176 C508,171 504,168 500,168 L500,168 Z M478,171 L478,476 C476,475 474,475 472,474 L472,172 C476,171 477,171 478,171 L478,171 Z M251,170 C252,171 253,171 255,171 C256,171 257,171 258,170 C330,147 404,146 466,167 L466,472 C406,458 327,460 256,477 C256,477 255,477 255,478 L254,478 C253,478 253,477 252,477 C182,460 104,460 43,474 L43,170 L43,169 L43,167 C111,146 184,147 251,170 L251,170 Z M30,172 C32,171 35,171 37,172 L37,475 L37,476 C36,476 34,477 31,477 L30,477 L30,172 Z M225,488 C224,488 222,487 221,487 L16,487 L16,183 L22,183 L24,183 L24,480 C24,481 24,482 25,483 C25,483 26,484 27,483 L32,483 C35,483 38,482 41,482 C100,467 177,467 247,483 L247,495 L238,495 L225,488 Z M493,487 L288,487 C287,487 286,488 285,488 L271,495 L262,495 L262,482 C338,465 421,466 481,483 C482,484 483,483 483,483 C484,482 485,481 485,480 L485,183 L486,183 L493,183 L493,487 Z M222,67 C223,69 224,70 225,72 L250,101 L251,101 C250,102 249,103 249,105 L249,109 C249,112 252,114 255,114 C258,114 260,112 260,109 L260,105 C260,103 260,102 259,101 L285,72 C286,71 287,70 288,68 L291,64 C293,61 294,58 295,55 C297,50 298,46 297,40 C297,35 296,30 294,26 L293,23 L258,56 C258,57 258,57 257,57 L256,56 L241,42 C240,41 239,40 239,39 C239,37 240,36 241,36 C242,35 243,35 244,35 C245,35 246,35 247,36 L257,46 L288,15 L287,13 C283,9 279,6 274,4 C269,1 264,0 259,0 L255,0 C249,0 244,1 239,3 C234,5 229,8 226,12 C222,16 218,20 217,25 C214,30 213,36 213,41 C213,46 214,51 215,55 C216,60 219,64 222,67 L222,67 Z M229,15 C236,8 245,5 255,5 L258,5 C266,5 275,9 281,15 L257,39 L250,32 C248,30 246,29 243,29 C241,29 239,30 237,31 C235,33 234,36 234,38 C234,41 235,43 237,45 L253,60 C254,61 256,62 257,62 C259,62 261,61 262,60 L291,31 C292,34 293,37 293,40 C293,44 292,49 291,53 C290,57 288,61 285,64 L285,65 L282,68 L256,97 L255,98 C255,98 254,98 254,97 L229,68 C227,67 226,65 225,64 C223,61 221,57 220,54 C218,50 218,46 218,41 C218,32 222,23 229,15 L229,15 Z M255,121 C252,121 249,124 249,126 L249,137 C249,140 252,142 255,142 C258,142 260,140 260,137 L260,126 C260,124 258,121 255,121 L255,121 Z M255,199 C258,199 260,196 260,193 L260,183 C260,180 258,177 255,177 C252,177 249,180 249,183 L249,193 C249,196 252,199 255,199 L255,199 Z M61,339 L65,339 C66,339 67,338 68,337 C69,338 70,338 70,338 L94,344 C96,344 98,343 100,342 L100,341 C102,339 106,335 109,333 C115,329 121,325 124,324 L125,324 C127,323 127,322 127,321 C127,319 126,317 124,317 L101,317 C100,317 99,318 99,318 C98,320 97,320 95,320 C92,320 90,318 90,316 C90,313 92,311 95,311 C97,311 98,311 99,313 L99,314 L100,314 L101,314 L123,315 C124,315 125,314 126,314 C127,313 127,312 128,311 L128,310 L126,308 C125,307 125,307 124,307 C121,306 115,303 109,298 C105,295 102,292 100,290 L100,289 C98,288 97,287 95,288 L71,292 C70,292 69,293 69,293 C68,292 67,292 65,292 L61,292 C60,292 58,293 57,294 C56,295 55,297 55,298 L55,332 C55,334 56,335 57,336 C58,338 59,339 61,339 L61,339 Z M71,332 L71,298 L71,297 C71,297 72,297 72,296 L95,292 L96,292 C96,293 97,293 97,293 C99,295 102,298 105,302 L106,302 C110,305 115,308 118,310 L102,310 L99,307 C98,306 96,306 95,306 C89,306 85,310 85,315 C85,320 90,324 95,324 C96,324 98,324 99,323 C100,322 101,322 102,321 L118,321 C115,323 110,325 106,328 C102,331 98,335 97,338 L96,338 L95,338 L71,333 L71,332 L71,332 Z M60,298 C60,297 61,296 61,296 L65,296 L66,297 L66,299 L66,331 L66,333 L65,334 L61,334 C61,334 60,333 60,332 L60,298 Z M149,320 C152,320 154,318 154,316 C154,313 152,311 149,311 L140,311 C138,311 135,313 135,316 C135,318 138,320 140,320 L149,320 Z M198,320 C201,320 203,318 203,316 C203,313 201,311 198,311 L189,311 C187,311 185,313 185,316 C185,318 187,320 189,320 L198,320 Z M174,320 C176,320 178,318 178,316 C178,313 176,311 174,311 L165,311 C162,311 160,313 160,316 C160,318 162,320 165,320 L174,320 Z M209,316 C209,318 211,320 214,320 L223,320 C225,320 227,318 227,316 C227,313 225,311 223,311 L214,311 C211,311 209,313 209,316 L209,316 Z M336,241 L345,241 C348,241 350,239 350,237 C350,234 348,232 345,232 L336,232 C333,232 331,234 331,237 C331,239 333,241 336,241 L336,241 Z M360,241 L369,241 C372,241 374,239 374,237 C374,234 372,232 369,232 L360,232 C358,232 356,234 356,237 C356,239 358,241 360,241 L360,241 Z M311,241 L320,241 C323,241 325,239 325,237 C325,234 323,232 320,232 L311,232 C309,232 307,234 307,237 C307,239 309,241 311,241 L311,241 Z M287,241 L296,241 C298,241 301,239 301,236 C301,234 298,232 296,232 L287,232 C284,232 282,234 282,236 C282,239 284,241 287,241 L287,241 Z M255,434 C252,434 249,436 249,439 L249,448 C249,451 252,454 255,454 C258,454 260,451 260,448 L260,439 C260,436 258,434 255,434 L255,434 Z M255,409 C252,409 249,411 249,414 L249,423 C249,426 252,428 255,428 C258,428 260,426 260,423 L260,414 C260,411 258,409 255,409 L255,409 Z M255,458 C252,458 249,461 249,464 L249,473 C249,476 252,478 255,478 C258,478 260,476 260,473 L260,464 C260,461 258,458 255,458 L255,458 Z M92,242 L206,242 C210,242 213,239 213,235 C213,231 210,228 206,228 L92,228 C88,228 85,231 85,235 C85,239 88,242 92,242 L92,242 Z M296,316 C296,319 299,322 303,322 L417,323 C421,323 424,320 424,316 C424,312 421,309 417,309 L303,309 C299,309 296,312 296,316 L296,316 Z M206,385 L92,385 C88,385 85,388 85,392 C85,396 88,399 92,399 L206,399 C210,399 213,396 213,392 C213,388 210,385 206,385 L206,385 Z M287,397 L296,397 C298,397 301,394 301,392 C301,389 298,387 296,387 L287,387 C284,387 282,389 282,392 C282,394 284,397 287,397 L287,397 Z M345,387 L336,387 C333,387 331,389 331,392 C331,394 333,397 336,397 L345,397 C348,397 350,394 350,392 C349,389 348,387 345,387 L345,387 Z M369,387 L360,387 C358,387 356,389 356,392 C356,394 358,397 360,397 L369,397 C372,397 374,394 374,392 C374,389 372,387 369,387 L369,387 Z M320,387 L311,387 C309,387 307,389 307,392 C307,394 309,396 311,396 L320,396 C323,396 325,394 325,392 C325,389 323,387 320,387 L320,387 Z M415,381 C408,381 402,387 402,394 C402,402 408,408 415,408 C423,408 429,402 429,394 C429,387 423,381 415,381 L415,381 Z M415,402 C411,402 408,398 408,394 C408,390 411,386 415,386 C420,386 423,390 423,394 C423,399 420,402 415,402 L415,402 Z M390,372 C387,372 384,375 384,378 L384,412 C384,415 387,418 390,418 L440,418 C444,418 447,415 447,412 L447,379 C447,375 444,372 440,372 L431,372 L429,368 C428,367 427,366 425,366 L407,366 C405,366 403,367 402,368 L400,372 L390,372 Z M440,412 L390,412 C390,412 389,412 389,411 L389,378 L390,377 L401,377 C402,377 404,376 405,375 L407,371 L425,371 L427,375 C427,376 429,377 430,377 L440,377 C441,377 441,378 441,378 L441,411 C441,412 441,412 440,412 L440,412 Z M385,225 L400,234 L400,236 L395,255 C394,256 394,256 394,257 C394,257 395,258 395,259 C396,260 397,260 398,260 C399,260 400,259 401,259 L415,247 C415,246 416,246 416,246 L417,247 L432,259 C433,260 433,260 435,260 C436,260 437,260 438,259 L438,257 L438,255 L431,236 C431,235 432,234 432,234 L447,225 C447,224 448,224 448,224 C449,223 449,223 449,221 C449,221 448,220 448,219 C447,219 447,218 446,218 L445,218 L427,218 C426,218 426,218 426,217 L425,217 L420,198 C420,197 419,196 419,196 C419,195 418,194 416,194 C415,194 414,195 413,196 L413,198 L407,217 C407,218 406,218 406,218 L387,218 L385,218 C385,219 384,219 384,219 C383,220 383,221 383,221 C383,222 384,223 384,224 L385,225 L385,225 Z M416,201 L416,200 C418,207 421,223 421,223 L422,223 L438,223 C439,223 440,224 440,224 L439,224 L425,233 L425,234 L432,251 L432,252 L431,251 L416,238 L416,201 L416,201 Z M250,255 C250,256 249,257 249,258 L249,267 C249,270 251,273 255,273 C258,273 260,270 260,267 L260,258 C260,257 260,256 259,255 C268,253 275,245 275,235 C275,226 269,217 260,215 L260,211 C260,207 257,205 255,205 C252,205 249,208 249,211 L249,215 C241,218 235,226 235,235 C235,245 241,253 250,255 L250,255 Z M255,221 C263,221 269,227 269,235 C269,243 263,249 255,249 C247,249 241,243 241,235 C241,227 247,221 255,221 L255,221 Z M259,294 C260,294 260,293 260,292 L260,283 C260,280 258,277 255,277 C252,277 249,280 249,283 L249,292 C249,293 250,294 250,295 C241,297 235,305 235,314 C235,323 241,331 250,334 L250,335 L250,344 C250,347 252,349 255,349 C258,349 260,347 260,344 L260,335 L260,334 C269,332 276,324 276,314 C276,304 269,296 259,294 L259,294 Z M255,328 C247,328 241,322 241,314 C241,307 248,300 255,300 C263,300 269,307 269,314 C269,322 263,328 255,328 L255,328 Z M260,370 L260,368 L260,359 C260,356 258,354 255,354 C252,354 249,356 249,359 L249,368 C249,369 250,370 250,371 C242,373 235,381 235,391 C235,402 244,411 256,411 C267,411 276,402 276,391 C276,381 269,373 260,370 L260,370 Z M255,404 C247,404 241,398 241,390 C241,382 248,376 255,376 C263,376 269,383 269,390 C269,398 263,404 255,404 L255,404 Z M262,391 C262,394 259,398 255,398 C251,398 248,394 248,391 C248,387 251,384 255,384 C259,384 262,387 262,391 L262,391 Z M262,314 C262,318 259,321 255,321 C251,321 248,318 248,314 C248,310 251,307 255,307 C259,307 262,310 262,314 L262,314 Z M262,235 C262,239 259,242 255,242 C251,242 248,239 248,235 C248,231 251,228 255,228 C259,228 262,231 262,235 L262,235 Z" id="Shape"></path>
        </g>
    </g>
</svg>