<?xml version="1.0" encoding="UTF-8" standalone="no"?>
<svg width="513px" height="513px" viewBox="0 0 513 513" version="1.1" xmlns="http://www.w3.org/2000/svg" xmlns:xlink="http://www.w3.org/1999/xlink">
    <!-- Generator: Sketch 3.8.3 (29802) - http://www.bohemiancoding.com/sketch -->
    <title>icon-link</title>
    <desc>Created with Sketch.</desc>
    <defs></defs>
    <g id="Page-1" stroke="none" stroke-width="1" fill="none" fill-rule="evenodd">
        <g id="icon-link" fill="#000000">
            <path d="M350,301 C333,301 315,293 300,277 C294,271 294,261 300,255 C305,249 315,249 321,255 C334,267 351,276 363,264 L470,157 C485,142 485,117 470,102 L411,43 C396,28 371,28 356,43 L249,150 C244,154 242,160 243,167 C244,175 249,184 258,192 C263,198 263,207 258,213 C252,219 242,219 236,213 C223,200 215,186 212,171 C210,155 215,140 227,128 L334,21 C361,-6 405,-6 432,21 L492,81 C519,108 519,152 492,179 L385,286 C375,296 363,301 350,301 L350,301 Z M130,513 C111,513 94,506 81,493 L20,432 C7,419 0,402 0,383 C0,364 7,347 20,334 L127,228 C138,217 154,211 170,214 C185,216 199,224 212,237 C218,243 218,253 212,259 C206,265 196,265 190,259 C182,251 173,246 165,244 C158,243 153,245 148,250 L41,356 C34,363 30,373 30,383 C30,394 34,404 41,411 L102,471 C110,478 120,482 130,482 C140,482 150,478 157,471 L263,364 C275,352 266,335 254,322 C248,316 248,307 254,301 C260,295 270,295 276,301 C304,329 308,363 285,386 L179,493 C166,506 149,513 130,513 L130,513 L130,513 Z M165,363 C161,363 157,362 154,359 C148,353 148,343 154,337 L336,155 C342,149 351,149 358,155 C364,161 364,171 358,177 L176,359 C173,362 169,363 165,363 L165,363 Z" id="Shape"></path>
        </g>
    </g>
</svg>