<?xml version="1.0" encoding="UTF-8" standalone="no"?>
<svg width="442px" height="512px" viewBox="0 0 442 512" version="1.1" xmlns="http://www.w3.org/2000/svg" xmlns:xlink="http://www.w3.org/1999/xlink">
    <!-- Generator: Sketch 3.8.3 (29802) - http://www.bohemiancoding.com/sketch -->
    <title>icon-street-vendor-fill</title>
    <desc>Created with Sketch.</desc>
    <defs></defs>
    <g id="Page-1" stroke="none" stroke-width="1" fill="none" fill-rule="evenodd">
        <g id="icon-street-vendor-fill" fill="#000000">
            <path d="M372,340 L372,259 C372,251 365,244 357,244 L213,244 L213,157 L357,157 C365,157 372,150 372,141 C372,63 293,0 196,0 C98,0 19,63 19,141 C19,150 26,157 34,157 L182,157 L182,244 L59,244 L26,212 C21,206 11,206 5,212 C-1,217 -1,227 5,233 L37,266 L37,406 C18,415 5,434 5,456 C5,487 30,512 61,512 C91,512 116,487 116,456 C116,454 116,451 115,448 L271,448 C282,485 315,512 355,512 C403,512 442,473 442,425 C442,383 412,348 372,340 L372,340 Z M61,481 C47,481 36,470 36,456 C36,443 47,432 61,432 C75,432 86,443 86,456 C86,470 75,481 61,481 L61,481 Z M355,481 C332,481 312,467 304,448 L357,448 C365,448 372,441 372,433 L372,372 C395,379 411,400 411,425 C411,456 386,481 355,481 L355,481 Z" id="Shape"></path>
        </g>
    </g>
</svg>