<?xml version="1.0" encoding="UTF-8" standalone="no"?>
<svg width="512px" height="512px" viewBox="0 0 512 512" version="1.1" xmlns="http://www.w3.org/2000/svg" xmlns:xlink="http://www.w3.org/1999/xlink">
    <!-- Generator: Sketch 3.8.3 (29802) - http://www.bohemiancoding.com/sketch -->
    <title>icon-name</title>
    <desc>Created with Sketch.</desc>
    <defs></defs>
    <g id="Page-1" stroke="none" stroke-width="1" fill="none" fill-rule="evenodd">
        <g id="icon-name" fill="#000000">
            <path d="M489,405 C473,373 426,356 355,329 C346,326 338,323 329,320 L329,274 C337,265 352,243 355,211 C359,207 363,199 365,190 C369,175 367,157 358,145 L358,143 C367,123 382,84 376,53 C368,14 314,0 270,0 C236,0 197,8 183,31 C167,33 158,41 153,48 C134,74 147,120 155,144 C155,144 155,144 155,145 C145,156 143,175 146,190 C148,199 152,207 157,211 C159,242 174,262 182,271 L182,320 C174,324 165,327 157,329 C86,356 38,373 22,405 C0,450 0,495 0,497 C0,505 7,512 15,512 L496,512 C505,512 512,505 512,497 C512,495 512,450 489,405 L489,405 Z M32,481 C34,466 38,442 50,419 C60,397 108,380 168,358 C179,354 191,350 203,345 C209,343 213,337 213,331 L213,264 C213,260 211,255 207,252 C207,252 188,236 188,203 C188,199 186,195 183,192 C182,191 180,189 178,189 C176,185 174,177 176,170 C176,168 177,165 179,164 C184,162 187,156 187,151 C187,147 186,143 184,135 C179,120 167,81 178,67 C179,65 182,61 193,61 C200,61 206,56 208,50 C209,42 233,31 270,31 C309,31 342,44 345,59 C349,81 336,116 329,132 C326,142 324,146 324,151 C324,157 327,162 333,165 C334,165 335,168 336,170 C337,177 335,185 333,189 C328,191 324,197 324,203 C324,237 304,257 303,257 C300,260 298,264 298,268 L298,331 C298,337 303,343 308,345 C321,350 333,354 344,358 C404,380 451,398 462,419 C474,442 478,466 480,482 L32,482 L32,481 Z" id="Shape"></path>
        </g>
    </g>
</svg>