<?xml version="1.0" encoding="UTF-8" standalone="no"?>
<svg width="512px" height="512px" viewBox="0 0 512 512" version="1.1" xmlns="http://www.w3.org/2000/svg" xmlns:xlink="http://www.w3.org/1999/xlink">
    <!-- Generator: Sketch 3.8.3 (29802) - http://www.bohemiancoding.com/sketch -->
    <title>icon-followers</title>
    <desc>Created with Sketch.</desc>
    <defs></defs>
    <g id="Page-1" stroke="none" stroke-width="1" fill="none" fill-rule="evenodd">
        <g id="icon-followers" fill="#000000">
            <path d="M512,256 C512,397 397,512 256,512 C115,512 0,397 0,256 C0,115 115,0 256,0 C397,0 512,115 512,256 L512,256 Z M31,256 C31,380 132,481 256,481 C380,481 481,380 481,256 C481,132 380,31 256,31 C132,31 31,132 31,256 L31,256 Z M389,183 L389,332 C389,341 382,348 374,348 L257,348 L257,404 C257,410 253,416 247,418 C241,421 235,419 230,415 L81,269 C75,263 75,253 81,247 L230,100 C235,96 241,95 247,97 C253,100 257,105 257,111 L257,168 L374,168 C382,168 389,175 389,183 L389,183 Z M359,317 L359,198 L241,198 C233,198 226,191 226,183 L226,148 L114,258 L226,368 L226,333 C226,324 233,317 241,317 L359,317 Z" id="Shape"></path>
        </g>
    </g>
</svg>