<?xml version="1.0" encoding="UTF-8" standalone="no"?>
<svg width="463px" height="512px" viewBox="0 0 463 512" version="1.1" xmlns="http://www.w3.org/2000/svg" xmlns:xlink="http://www.w3.org/1999/xlink">
    <!-- Generator: Sketch 3.8.3 (29802) - http://www.bohemiancoding.com/sketch -->
    <title>icon-flag-1</title>
    <desc>Created with Sketch.</desc>
    <defs></defs>
    <g id="Page-1" stroke="none" stroke-width="1" fill="none" fill-rule="evenodd">
        <g id="icon-flag-1" fill="#000000">
            <path d="M16,512 C7,512 0,505 0,497 L0,15 C0,7 7,0 16,0 C24,0 31,7 31,15 L31,497 C31,505 24,512 16,512 L16,512 Z M329,353 C265,353 252,327 252,305 C252,294 232,291 215,291 C162,291 82,317 81,317 C76,319 71,318 67,315 C63,312 61,307 61,303 L61,49 C61,42 65,37 71,35 C75,33 159,6 217,6 C274,6 282,33 282,49 C282,53 283,58 292,62 C298,64 310,68 331,68 C381,68 444,51 444,51 C449,50 454,51 457,54 C461,57 463,61 463,66 L463,319 C463,326 459,333 452,334 C449,335 383,353 329,353 L329,353 Z M215,261 C274,261 283,289 283,305 C283,320 311,323 329,323 C366,323 412,313 433,308 L433,86 C409,91 368,98 332,98 C310,98 293,95 280,90 C262,82 252,68 252,49 C252,39 233,36 218,36 C176,36 116,53 92,60 L92,282 C121,274 174,261 215,261 L215,261 Z" id="Shape"></path>
        </g>
    </g>
</svg>