<?xml version="1.0" encoding="UTF-8" standalone="no"?>
<svg width="429px" height="450px" viewBox="0 0 429 450" version="1.1" xmlns="http://www.w3.org/2000/svg" xmlns:xlink="http://www.w3.org/1999/xlink">
    <!-- Generator: Sketch 39 (31667) - http://www.bohemiancoding.com/sketch -->
    <title>user</title>
    <desc>Created with Sketch.</desc>
    <defs></defs>
    <g id="icons" stroke="none" stroke-width="1" fill="none" fill-rule="evenodd">
        <path d="M369.871221,404.187668 L369.888482,404.187668 C372.581295,404.187668 374.497334,402.426983 375.377677,401.374025 C376.309804,400.25202 378.432983,397.36933 377.65621,392.915832 C362.673126,305.589312 294.213553,241.669544 214.879161,241.669544 L214.085127,241.669544 C135.078705,241.669544 66.3774695,304.311952 50.531305,391.189671 C49.720009,395.643168 51.7741414,398.629428 52.7062688,399.751433 C53.6038729,400.804391 55.4681275,402.547815 58.1782014,402.565076 L369.871221,404.187668 Z M165.427719,195.911198 C83.6893995,216.465242 17.9777879,287.724036 1.00772565,380.711869 C-2.25471998,398.54312 2.49222472,416.529725 13.9712001,430.390803 C25.0013734,443.664987 41.020154,449.913692 57.9365387,450 L369.595035,448.808948 L369.888482,448.808948 C386.701297,448.808948 402.668293,443.906649 413.784775,430.805082 C425.419105,417.082096 430.338665,401.563903 427.283359,383.680867 C411.270105,290.3762 346.129397,217.460636 264.432722,196.198748 C273.287754,191.834742 281.509115,186.082462 288.859,178.79583 C309.055092,158.772354 320.240619,134.571567 320.395974,106.124422 C320.706683,47.4004005 273.254498,0 214.599523,0 L214.02989,0 C185.824407,0 159.27604,8.99330249 139.218041,28.8786854 C119.021949,48.8848995 107.836421,73.6380584 107.681067,102.067942 C107.449848,143.468248 130.974993,178.717123 165.427719,195.911198 Z M270.061099,106.245253 C270.216453,75.277912 245.238893,51.7848512 214.323337,51.7848512 L214.02989,51.7848512 C199.202161,51.7848512 185.202989,55.8758545 174.656141,66.353656 C163.988462,76.900504 158.10225,87.4300905 158.015942,102.447697 C157.860588,133.397777 182.855409,155.354554 213.736442,155.354554 L214.047151,155.354554 C228.87488,155.354554 242.85679,152.316509 253.4209,141.838707 C264.071317,131.291859 269.97479,118.570048 270.061099,103.569702" id="user" fill="#000000"></path>
    </g>
</svg>