<svg xmlns="http://www.w3.org/2000/svg" viewBox="0 0 512 512"><path d="M442 370c0-8-5-15-11-18l-11-6c-19-10-28-31-24-52 2-11-3-21-12-26-19-9-30-30-26-51l2-11c1-7-1-15-6-20l-15-14h-18c-8 0-15-7-15-15 0-9 7-16 15-16h61c8 0 15 7 15 16 0 8-7 15-15 15h-8c9 11 13 25 11 39l-3 10c-1 10 4 20 13 25 19 9 30 31 25 52-2 11 3 21 11 26l11 5c14 8 23 22 25 38v1c28-41 44-90 44-144 1-141-114-256-255-256s-256 115-256 256c0 45 12 88 33 125 4-8 10-15 18-19l11-6c9-5 13-15 11-25-4-22 6-44 26-53 9-5 14-15 12-25l-2-10c-3-14 1-28 10-39h-4c-9 0-16-7-16-16 0-8 7-15 16-15h60c9 0 16 7 16 15 0 9-7 16-16 16h-21l-14 14c-6 5-8 12-7 20l2 11c4 21-6 42-26 51-9 5-14 15-12 25 5 22-5 42-24 53l-10 5c-7 4-11 11-12 18l-1 7c48 63 122 104 206 104 75 0 142-32 188-83zm-95 9h-182c-7 0-11-5-11-11 0-57 45-103 102-103s102 46 102 103c0 6-4 11-11 11z"/></svg>