<svg xmlns="http://www.w3.org/2000/svg" viewBox="0 0 512 512"><path d="M256-32c-141 0-256 115-256 256s115 256 256 256 256-115 256-256-115-256-256-256zm90 345v38h-180c0-22 6-40 16-57 10-16 24-30 42-42 8-6 17-13 27-19 9-5 17-12 25-18 8-7 14-15 19-22 6-8 8-17 8-28 0-4 0-9-1-15-1-5-4-10-7-15-3-4-8-8-14-11s-13-5-22-5-16 2-21 5c-6 3-11 8-14 14s-6 13-7 21c-2 8-3 16-3 26h-43c0-15 2-28 6-41 4-12 10-23 17-32 8-9 17-16 29-21 11-5 24-8 39-8 16 0 29 3 40 8s19 12 26 20 11 17 14 26c3 10 4 19 4 27 0 11-1 20-5 29-3 8-7 16-13 23-5 7-12 14-18 20-7 6-15 12-22 17l-23 15-21 14c-6 5-12 10-16 15-5 5-8 10-10 16h128z"/></svg>