<svg xmlns="http://www.w3.org/2000/svg" viewBox="0 0 512 512"><path d="M256-32c-141 0-256 115-256 256s115 256 256 256 256-115 256-256-115-256-256-256zm-133 194c4-7 14-10 21-6 13 7 29 3 36-10 4-7 13-10 21-5 7 4 10 13 6 21-8 13-20 22-35 26-5 2-10 2-15 2-10 0-19-2-28-7-7-4-10-14-6-21zm257 205c-3 3-7 4-11 4s-8-1-11-4c-26-27-64-43-102-43-39-1-75 13-102 40-6 6-15 6-21 0s-6-16 0-22c32-32 76-50 124-49 46 1 90 19 123 52 6 6 6 15 0 22zm5-187c-10 7-21 10-32 10-18 0-36-9-47-25-5-8-3-17 4-22 7-4 16-2 21 4 8 12 24 16 36 8 8-5 17-3 22 4 4 7 3 17-4 21z"/></svg>