<svg xmlns="http://www.w3.org/2000/svg" viewBox="0 0 512 512"><path d="M252 480c-21 0-42-4-61-13-11-5-18-16-18-27v-19c-25 6-68 28-100 48-10 6-22 6-31 0-10-5-16-16-15-28 7-101 66-170 91-194 9-150 111-267 113-269 5-6 12-9 20-10h3c8 0 16 4 21 10 4 4 101 114 112 263 19 18 88 89 97 200 0 13-6 23-14 28-9 5-21 5-31 0-31-19-81-46-106-50v21c0 11-6 21-16 26-7 4-32 14-65 14zm-47-41c15 6 30 9 47 9 27 0 46-8 50-9v-42l9-5c3-1 6-2 9-4l24 1c38 8 94 41 109 51-8-85-57-145-79-168l-17-21c-8-133-91-235-104-250-13 16-98 124-104 253v7l-5 4c-18 17-77 80-85 176 17-11 84-51 122-53h5l4 2c1 1 2 1 3 1l4 3 8 5zm48-122c-36 0-65-30-65-65 0-36 29-65 65-65s65 29 65 65c0 35-29 65-65 65zm0-98c-18 0-33 14-33 33 0 18 14 33 33 33 18 0 33-15 33-33 0-19-15-33-33-33z"/></svg>