<svg xmlns="http://www.w3.org/2000/svg" viewBox="0 0 512 512"><path d="M408 383c-27 0-48 21-48 48s21 49 48 49 49-22 49-49-22-48-49-48zm0 66c-9 0-18-8-18-18s8-18 18-18 18 8 18 18-8 18-18 18zm-207-66c-26 0-48 21-48 48s22 49 48 49c27 0 49-22 49-49s-22-48-49-48zm0 66c-9 0-18-8-18-18s8-18 18-18 18 8 18 18-8 18-18 18zm272-215c-9-2-17 2-20 10l-27 89h-245l-41-168h61c9 0 16-7 16-16 0-8-7-15-16-15h-69l-25-104c-2-7-8-12-15-12h-73c-8 0-15 7-15 15 0 9 7 16 15 16h61l72 296 1 3c0 9 7 16 16 16h268c7 0 12-5 14-11l32-99c2-9-2-17-10-20zm-98 0c74 0 133-60 133-133s-60-132-133-132-133 59-133 132c0 74 60 133 133 133zm0-235c57 0 103 46 103 102 0 57-46 103-103 103-56 0-102-46-102-103 0-56 46-102 102-102zm-58 118h43v43c0 9 7 15 15 15 9 0 16-6 16-15v-43h43c9 0 15-7 15-16 0-8-6-15-15-15h-43v-43c0-9-7-16-16-16-8 0-15 7-15 16v43h-43c-9 0-16 7-16 15 0 9 7 16 16 16z"/></svg>