<svg xmlns="http://www.w3.org/2000/svg" viewBox="0 0 512 512"><path d="M333 378h-310c-7 0-11-5-11-12v-279c0-7 4-12 11-12h93l42-60 12-3h114c5 0 7 3 9 5l51 63h89c7 0 12 4 12 11v168c0 7-5 12-12 12s-12-5-12-12v-156h-84c-4 0-7-2-9-5l-49-63h-104l-42 61c-3 2-5 5-10 5h-88v256h298c7 0 11 4 11 11s-7 10-11 10zm102 58c-7 0-11-5-11-12v-114c0-7 4-12 11-12s12 5 12 12v114c0 7-7 12-12 12zm54-58h-110c-7 0-11-5-11-12s4-12 11-12h110c7 0 11 5 11 12s-4 12-11 12zm-261-56c-56 0-102-47-102-103s46-102 102-102 102 46 102 102-44 103-102 103zm0-182c-44 0-79 35-79 79 0 45 35 79 79 79s79-34 79-79c0-44-35-79-79-79z"/></svg>