<svg xmlns="http://www.w3.org/2000/svg" viewBox="0 0 512 512"><path d="M397 67c-22-60-80-100-144-100-65 0-122 40-145 100-56 0-100 46-100 101 0 46 30 84 71 97l34 170c0 4 3 8 7 10 2 1 54 32 130 34h5c26-1 48-4 67-9h2c3 0 5-1 7-2 34-10 54-22 55-23 4-2 6-5 7-10l35-170c40-14 70-52 70-97 0-55-45-101-101-101zm-120-7l27-21c6-5 16-4 21 2 5 7 4 17-2 22l-27 21c-3 3-6 4-9 4-5 0-9-2-12-6-6-7-5-16 2-22zm-36 91l25 17c7 4 9 14 5 21-3 5-8 7-13 7-3 0-6-1-9-3l-24-16c-8-5-9-14-5-21 5-8 14-9 21-5zm-64-73l25-21c6-5 16-5 21 2 6 7 5 16-1 21l-25 22c-3 2-7 3-10 3-5 0-9-2-12-5-6-7-5-16 2-22zm-87 110c-9 0-16-7-16-15s7-16 15-16l34-1c9 0 16 6 16 15 0 8-6 15-15 16l-34 1zm112 254l-31-8c1-42-3-66-13-107-1-9 4-17 12-19s17 4 18 12c11 46 15 75 14 122zm68 5h-31v-124c0-8 7-15 16-15 8 0 15 7 15 15zm80-121c-8 45-13 69-12 107l-31 9c-1-43 3-72 13-122 2-8 10-13 18-12 8 2 14 10 12 18zm45-48c-26 0-51-9-71-26-19 17-45 27-72 27-26 0-52-10-72-27-19 17-43 26-69 26-5 0-9-4-9-8 0-5 4-9 9-10 23 0 46-10 63-27 2-2 4-3 6-3 3 0 5 1 7 3 17 18 41 28 65 28 25 0 49-10 66-28 2-2 4-3 6-3 3 0 5 1 7 3 17 17 40 27 64 27 5 0 9 4 9 9s-4 9-9 9zm20-137l-17 24c-3 4-8 6-12 6s-7-1-9-3c-7-5-9-14-4-21l17-24c5-7 14-9 22-4 7 5 8 15 3 22z"/></svg>