<?xml version="1.0" encoding="UTF-8" standalone="no"?>
<svg width="32px" height="32px" viewBox="0 0 32 32" version="1.1" xmlns="http://www.w3.org/2000/svg" xmlns:xlink="http://www.w3.org/1999/xlink">
    <!-- Generator: Sketch 3.7.1 (28215) - http://www.bohemiancoding.com/sketch -->
    <title>been-here-check-new-fab-16</title>
    <desc>Created with Sketch.</desc>
    <defs></defs>
    <g id="Page-1" stroke="none" stroke-width="1" fill="none" fill-rule="evenodd">
        <g id="577-585" transform="translate(-572.000000, -52.000000)" fill="#000000">
            <g id="been-here-check-new-fab-16" transform="translate(572.250000, 52.000000)">
                <path d="M16,31.4094545 C7.47781818,31.4094545 0.522181818,24.5236364 0.522181818,15.9316364 C0.522181818,7.40945455 7.47636364,0.453818182 16,0.453818182 C24.5236364,0.453818182 31.4778182,7.408 31.4778182,15.9316364 C31.4778182,24.5221818 24.5236364,31.4094545 16,31.4094545 L16,31.4094545 Z M16,2.77236364 C8.77236364,2.77236364 2.84072727,8.704 2.84072727,15.9316364 C2.84072727,23.2276364 8.77236364,29.1592727 16,29.1592727 C23.296,29.1592727 29.1592727,23.2276364 29.1592727,15.9316364 C29.1592727,8.704 23.296,2.77236364 16,2.77236364 L16,2.77236364 Z M13.8181818,21.9316364 C13.5447273,21.9316364 13.2043636,21.7949091 12.9992727,21.5912727 L7.74981818,16.3418182 C7.34109091,15.8647273 7.34109091,15.1141818 7.74981818,14.7054545 C7.95490909,14.432 8.29527273,14.3650909 8.56872727,14.3650909 C8.90909091,14.3650909 9.18254545,14.4334545 9.38763636,14.7054545 L13.8196364,19.1374545 L22.6152727,10.3418182 C22.8203636,10.1367273 23.0923636,10.0014545 23.4341818,10.0014545 C23.7076364,10.0014545 23.9796364,10.1381818 24.2530909,10.3418182 C24.4581818,10.5469091 24.5934545,10.8872727 24.5934545,11.1607273 C24.5934545,11.5010909 24.4567273,11.7745455 24.2530909,11.9796364 L14.64,21.5927273 C14.4349091,21.7978182 14.1629091,21.9330909 13.8210909,21.9330909 L13.8181818,21.9316364 Z" id="Shape"></path>
            </g>
        </g>
    </g>
</svg>