<svg xmlns="http://www.w3.org/2000/svg" viewBox="0 0 512 512"><path d="M403 152c-8 0-15 7-15 15v270c0 7-6 12-12 12h-43v-262c0-8-7-15-16-15-8 0-15 7-15 15v262h-59v-262c0-8-6-15-15-15-8 0-15 7-15 15v262h-40c-7 0-12-5-12-12v-270c0-8-7-15-16-15-8 0-15 7-15 15v7h-19c-32 0-57 25-57 56v125c0 31 25 57 57 57h19v25c0 24 19 43 43 43h203c24 0 43-19 43-43v-270c0-8-7-15-16-15zm-292 229c-15 0-27-12-27-26v-124c0-15 12-26 27-26h19v176h-19zm327-376l-6-6c-29-19-65-20-88-4-18-17-40-27-65-27-23 0-45 9-62 26-12-8-26-12-41-12-20 0-38 8-52 22s-22 33-21 53c0 41 33 75 75 75 15 0 28-5 39-12 17 17 40 27 64 27 23 0 45-9 63-26 12 8 26 12 40 12 20 0 39-8 53-22 23-23 33-66 1-106zm-23 84c-8 9-19 13-31 13-9 0-17-3-25-7-11-8-26-6-37 5s-26 16-41 17c-17 0-32-7-43-19-5-6-13-9-21-9-5 0-11 2-16 5-6 5-15 7-24 7-24 0-44-20-44-44 0-12 4-23 12-31 9-9 19-13 32-13 8 0 17 3 24 7 11 8 26 6 37-4 11-11 25-17 42-17 16 0 31 6 42 18 10 10 25 11 37 4 16-11 37-9 55 3 20 26 15 51 1 65z"/></svg>