<svg xmlns="http://www.w3.org/2000/svg" viewBox="0 0 512 512"><path d="M96 271c-53 0-96 43-96 96s43 97 96 97 96-44 96-97-43-96-96-96zm0 128c-18 0-32-14-32-32s14-32 32-32 32 14 32 32-14 32-32 32zm320-128c-53 0-96 43-96 96 0 54 43 97 96 97s96-43 96-97c0-53-43-96-96-96zm0 128c-18 0-32-14-32-32s14-32 32-32 32 14 32 32-14 32-32 32zm6-197c17 0 33-9 33-27s-14-33-32-33h-80l-28-48c-8-15-28-21-43-12-2 1-113 64-113 64-16 9-21 29-12 44l88 153c9 16 28 21 44 12 15-9 20-29 12-44l-72-125 56-33 21 36c5 9 9 14 25 14 1-1 101-1 101-1zm-54-124c26 0 48-21 48-48 0-26-22-48-48-48-27 0-48 22-48 48 0 27 22 48 48 48z"/></svg>