<svg xmlns="http://www.w3.org/2000/svg" viewBox="0 0 512 512"><path d="M293 76h-196c-9 0-15 6-15 15 0 8 6 15 15 15h196c8 0 15-7 15-15 0-9-7-15-15-15zm0 109h-196c-9 0-15 7-15 15 0 9 6 16 15 16h196c8 0 15-7 15-16 0-8-7-15-15-15zm0 110h-196c-9 0-15 7-15 15 0 9 6 15 15 15h196c8 0 15-6 15-15 0-8-7-15-15-15zm122-219h-26c-8 0-15 6-15 15 0 8 7 15 15 15h26c9 0 15-7 15-15 0-9-6-15-15-15zm42-105h-402c-30 0-54 24-54 54v424c0 10 5 18 13 22 8 3 18 2 25-4l52-47 58 50c12 9 29 9 41-1l55-49 61 50c5 5 12 7 19 7s14-2 20-7l60-50 70 50c7 5 16 6 24 2s12-12 12-21v-426c0-30-24-54-54-54zm24 466l-63-45c-8-6-20-6-28 1l-65 54-65-54c-5-4-10-6-15-6s-11 2-15 6l-61 53-63-53c-8-8-21-7-30 0l-45 40v-408c0-13 11-24 24-24h402c13 0 24 11 24 24zm-66-252h-26c-8 0-15 7-15 15 0 9 7 16 15 16h26c9 0 15-7 15-16 0-8-6-15-15-15zm0 110h-26c-8 0-15 7-15 15 0 9 7 15 15 15h26c9 0 15-6 15-15 0-8-6-15-15-15z"/></svg>