<svg xmlns="http://www.w3.org/2000/svg" viewBox="0 0 512 512"><path d="M378 480h-240c-13 0-25-4-36-10-60-40-77-92-52-160 6-16 16-30 26-44 24-34 28-46 11-61-19-17-27-33-24-49 4-21 26-29 29-30l2-1h321l3 1c2 1 24 9 28 30 4 16-4 32-23 49-17 15-13 27 11 61 9 14 19 28 25 44 12 31 38 104-46 160-9 6-22 10-35 10zm-278-324c-3 1-7 4-7 6 0 1-1 7 14 21 40 35 13 73-6 101-9 12-18 24-22 37-14 36-21 83 40 123 6 4 12 6 19 6h240c7 0 14-2 20-6 58-39 48-84 33-124-4-12-13-24-21-36-20-28-47-66-7-102 12-10 15-18 14-20 0-3-4-5-7-7h-310zm17-56c7 0 13-6 13-12 0-17 10-31 22-31 3 0 6 1 9 3s7 2 11 0c4-1 6-4 7-9 4-15 11-29 23-40 11-10 25-15 39-15 29 0 54 22 62 54 1 4 4 7 8 9 4 1 9 0 12-2 7-6 18-9 29-9 21 0 38 11 38 25 0 7 6 13 13 13s12-6 12-13c0-14-7-27-19-37-12-9-28-14-44-14-10 0-20 2-30 6-14-34-45-57-81-57-20 0-40 7-56 22-12 10-21 24-27 40l-6-1c-13 0-25 6-34 17s-14 24-14 39c1 6 6 12 13 12zm0 3c-8 0-15-7-15-15 0-15 5-29 14-40 9-12 22-18 36-18h5c5-15 15-28 26-39 17-15 37-22 58-22 35 0 68 22 83 57 9-4 18-6 28-6 17 0 33 6 45 15 13 10 21 24 21 39 0 8-7 15-15 15-9 0-15-7-15-15 0-13-17-24-36-24-10 0-20 4-27 9-4 3-10 4-15 3-5-2-8-6-9-11-7-31-32-53-60-53-13 0-26 6-37 15-11 10-19 24-22 39-1 5-4 9-9 11-4 2-10 2-14-1-14-8-27 7-27 26 0 8-6 15-15 15zm35-68c-12 0-24 6-32 16s-13 23-13 37c0 5 5 10 11 10 5 0 10-5 10-10 0-22 17-40 34-30 3 1 7 2 10 0 3-1 5-4 5-7 4-16 12-31 24-41 11-11 26-16 41-16 30 0 56 23 64 56 1 3 3 6 7 7 3 1 6 1 9-2 8-6 19-9 31-9 22 0 40 13 40 28 0 6 5 10 10 10 6 0 11-4 11-10 0-13-7-26-19-35s-26-14-42-14c-10 0-20 2-29 6l-2 1-1-2c-14-34-45-56-79-56-20 0-39 7-55 21-11 10-20 24-25 39l-1 2h-2c-3-1-5-1-7-1z"/></svg>