<svg xmlns="http://www.w3.org/2000/svg" viewBox="0 0 512 512"><path d="M484 48c-15-23-31-35-49-35h-358c-18 0-34 12-49 35-13 19-33 65-26 80 13 31 42 51 76 51 23 0 44-10 59-26 16 16 37 26 60 26 16 0 31-5 44-14v123l1 3c-1 1-1 1-1 2-3 51-13 78-21 94-6 9-16 17-34 17-29 0-35-20-35-37 0-8 3-22 24-22 7 0 11 3 12 4v2c-3 2-5 7-5 11-1 9 6 16 14 16 7 0 13-3 17-9 5-8 7-21 1-34-4-7-14-19-39-21-38 0-55 28-55 53 0 31 17 68 66 68 43 0 63-32 70-54 7 22 27 54 70 54 49 0 66-37 66-68 0-25-17-53-56-53-24 2-34 14-38 21-6 13-4 26 1 34 4 6 10 9 17 9 8 0 15-7 14-16 0-4-2-9-5-11v-2c1-1 5-3 12-4 21 0 24 14 24 22 0 17-6 37-35 37-18 0-28-9-34-17-7-16-18-43-21-94l-1-2c1-1 1-2 1-3v-123c13 8 28 13 44 13 23 0 44-9 60-26 15 17 36 26 59 26 34 0 63-19 76-50 7-15-13-61-26-80zm-49 100c-20 0-37-11-46-29-2-5-8-8-13-8-6 0-11 3-14 8-9 18-27 29-46 29s-37-11-46-29c-5-10-22-10-27 0-9 18-27 29-46 29s-37-11-46-29c-5-10-22-10-27 0-9 18-27 29-46 29-20 0-38-12-47-30 3-17 28-74 47-74h358c19 0 44 57 46 74-9 18-27 30-47 30z"/></svg>