<svg xmlns="http://www.w3.org/2000/svg" viewBox="0 0 512 512"><path d="M484 48c-15-23-31-35-49-35h-358c-18 0-34 12-49 35-13 19-33 65-27 80 13 31 43 51 76 51 23 0 45-10 60-26 15 16 37 26 60 26 16 0 31-5 44-14v123l1 3c-1 1-1 2-1 2-4 51-14 78-21 94-6 9-17 17-34 17-29 0-35-20-35-37 0-8 3-22 23-22 8 1 12 3 13 4v2c-3 2-5 7-6 11 0 9 6 16 15 16 7 1 13-3 17-9 5-8 7-21 1-33-4-8-14-20-39-21-38 0-55 27-55 52 0 32 17 68 66 68 43 0 63-32 70-54 7 22 27 54 70 54 49 0 66-37 66-68 0-25-17-52-56-52-25 1-35 13-38 21-7 12-4 25 1 33 4 6 10 10 17 9 8 0 15-7 14-16 0-4-2-9-5-11v-2c1-1 5-3 12-4 21 0 24 14 24 22 0 17-6 37-35 37-18 0-28-9-34-17-7-16-18-43-21-94 0 0-1-1-1-2l1-3v-123c13 8 28 13 44 13 23 0 44-9 60-26 15 17 36 26 59 26 34 0 63-19 76-50 7-16-13-61-26-80z"/></svg>