<?xml version="1.0" encoding="UTF-8" standalone="no"?>
<svg width="19px" height="28px" viewBox="0 0 19 28" version="1.1" xmlns="http://www.w3.org/2000/svg" xmlns:xlink="http://www.w3.org/1999/xlink">
    <!-- Generator: Sketch 3.7.2 (28276) - http://www.bohemiancoding.com/sketch -->
    <title>bookmark-new-ui</title>
    <desc>Created with Sketch.</desc>
    <defs></defs>
    <g id="Page-1" stroke="none" stroke-width="1" fill="none" fill-rule="evenodd">
        <g id="577-585" transform="translate(-474.000000, -107.000000)" fill="#000000">
            <g id="bookmark-new-ui" transform="translate(474.000000, 107.000000)">
                <path d="M16.3797511,27.7530379 C15.8418406,27.7530379 15.3119826,27.5629098 14.9029129,27.2010532 L9.39496639,21.8054025 L3.88701992,26.9695262 C3.26214179,27.5567766 2.33609815,27.7223721 1.52601129,27.4019143 C0.71753494,27.0783899 0.197339996,26.3332105 0.198950506,25.5006336 L0.244044805,2.0704154 C0.245655316,1.43563297 0.786786898,0.921980524 1.4519278,0.921980524 L1.45514882,0.921980524 C2.12190024,0.923513815 2.66142131,1.43869956 2.6598108,2.07348199 L2.61632701,24.9333159 L8.5655534,19.3536704 C8.79585642,19.1390096 9.11795855,18.9979469 9.4271766,19.0240128 C9.74927873,19.0286127 10.0552758,19.1528093 10.2807473,19.3736031 L16.130122,25.1050445 L16.130122,1.7514909 C16.130122,1.11517518 16.6712536,0.601522727 17.338005,0.601522727 C18.0047564,0.601522727 18.545888,1.11517518 18.545888,1.7514909 L18.545888,25.6953615 C18.545888,26.5126055 18.0369666,27.253185 17.2478164,27.5813093 C16.9675875,27.6963061 16.6728641,27.7530379 16.3797511,27.7530379" id="Fill-1"></path>
                <path d="M17.6286008,2.43759091 L0.646282141,2.43759097 C0.198946778,2.43759097 0.198946778,1.89190909 0.198946778,1.21895455 C0.198946778,0.546 0.608492753,0.000318181818 1.11623396,0.000318181818 L17.6286008,0.000318181818 C18.1351445,0.000318181818 18.545888,0.546 18.545888,1.21895455 C18.545888,1.89190909 18.1351445,2.43759091 17.6286008,2.43759091 L17.484135,26.4471729 L14.8449169,26.0683996 L9.49187394,20.6830747 L3.17790878,26.0927903 L0.953332749,25.8054821 L2.01719804,4.04251431 L2.54400641,2.43759097" id="Fill-3"></path>
            </g>
        </g>
    </g>
</svg>