<svg xmlns="http://www.w3.org/2000/svg" viewBox="0 0 512 512"><path d="M256 322c-54 0-98-44-98-98s44-98 98-98 98 44 98 98-44 98-98 98zm0-166c-37 0-68 31-68 68s31 68 68 68 68-31 68-68-31-68-68-68zm8-74c-8 0-15-6-15-15v-84c0-8 7-15 15-15 9 0 16 7 16 15v84c0 9-7 15-16 15zm0 398c-8 0-15-7-15-15v-84c0-9 7-15 15-15 9 0 16 6 16 15v84c0 8-7 15-16 15zm-119-352c-4 0-8-1-11-4l-30-30c-5-6-5-15 0-22 6-5 16-5 22 0l30 30c6 6 6 16 0 22-3 3-7 4-11 4zm252 252c-4 0-8-2-11-5l-30-29c-6-6-6-16 0-22s16-6 22 0l30 30c5 5 5 15 0 21-4 3-8 5-11 5zm-298-132h-84c-8 0-15-7-15-16 0-8 7-15 15-15h84c9 0 15 7 15 15 0 9-6 16-15 16zm398 0h-84c-9 0-15-7-15-16 0-8 6-15 15-15h84c8 0 15 7 15 15 0 9-7 16-15 16zm-382 132c-3 0-7-2-10-5-6-6-6-15 0-21l29-30c6-6 16-6 22 0s6 15 0 22l-30 29c-3 3-7 5-11 5zm252-252c-4 0-8-1-11-4-6-6-6-16 0-22l30-30c6-6 15-6 22 0 5 6 5 16 0 22l-30 30c-3 3-7 4-11 4z"/></svg>