<svg xmlns="http://www.w3.org/2000/svg" viewBox="0 0 512 512"><path d="M502-32h-204c-3 0-6 2-7 4-2 1-3 2-4 3l-30 75c-1 2-1 5 1 7l39 69-40 89c-1 2-1 4 0 6l42 86-42 86c-1 2-1 5 1 6l41 74c1 2 2 3 4 3 1 2 4 4 7 4h192c6 0 10-5 10-10v-492c0-6-4-10-10-10zm-191 154l-22-39c62 15 75 68 78 90h-75l20-44c0-2 0-5-1-7zm-32 112h88c3 0 6 3 6 7 0 3-3 7-6 7h-81zm34 76v-2h49c-6 8-22 18-59 23zm-34 70h140c-3 7-8 13-19 13h-127zm213 80h-182c-1 0-2 0-2 1l-27-48h119c31 0 40-27 41-42 0-3-1-5-2-7-2-3-5-4-8-4h-142l5-10v2c94-9 94-50 94-54-1-5-5-9-10-9h-72l-11-22h72c14 0 26-12 26-26 0-15-12-27-26-27h-94l10-22h95c5 0 9-4 9-10 0-1-1-109-111-122l-5-8 26-65h195zm-287-242l40-89c1-2 1-5 0-7l-43-70 27-72c1-3 0-6-3-8-2-2-5-4-8-4h-208c-6 0-10 4-10 10v492c0 5 4 10 10 10h224c3 0 6-2 8-4h1c3-2 5-6 3-9l-37-71 40-86c1-2 1-4 0-6zm-7 16l7 14h-61c-3 0-7-4-7-7 0-4 4-7 7-7zm12-61h-72c3-21 15-69 68-87l25 40zm16 287h-206v-472h191l-24 62c0 2 0 5 1 7l7 12c-76 28-77 113-77 114 0 5 4 10 9 10h74l-10 22h-47c-14 0-26 11-26 26 0 14 12 26 26 26h71l10 22h-92c-5 0-9 4-10 9 0 5 0 45 91 54l-4 8h-138c-5 0-10 5-10 10 0 30 26 41 39 42h101zm8-151l-11 24c-48-4-67-16-75-24zm-39 84h-93c-2-1-13-3-18-13h117z"/></svg>