<svg xmlns="http://www.w3.org/2000/svg" viewBox="0 0 512 512"><path d="M480-32h-448c-18 0-32 14-32 32v448c0 18 14 32 32 32h448c18 0 32-14 32-32v-448c0-18-14-32-32-32zm-432 480c-9 0-16-7-16-16v-54l141-115 159 185h-284zm432-16c0 9-7 16-16 16h-87l-119-137 140-115 82 87zm0-197l-65-71c-4-3-9-4-15-4-4 0-9 1-13 4l-149 122-50-57c-4-4-9-6-14-5-1 0-2 1-4 1 0 0-1 0-1 1-3 0-6 1-8 3l-129 104v-317c0-9 7-16 16-16h416c9 0 16 7 16 16zm-352-203c-35 0-64 29-64 64s29 64 64 64 64-29 64-64-29-64-64-64zm0 96c-17 0-32-14-32-32s15-32 32-32 32 14 32 32-14 32-32 32z"/></svg>