<svg xmlns="http://www.w3.org/2000/svg" viewBox="0 0 512 512"><path d="M437-23c-20-15-43-10-51 3-6 8-63 94-70 104-3 5-4 10-4 17s2 16 7 24c4 8 18 33 26 46-8 11-28 36-67 76-40 39-66 58-76 66-13-7-38-21-46-26-15-8-31-9-41-2-10 6-95 63-103 69-8 5-12 15-12 26 0 8 3 17 8 25 1 1 54 76 85 75 88-3 190-88 261-158 70-70 155-173 158-260v-1c0-30-75-84-75-84zm-106 322c-93 93-177 146-237 149-12-4-40-34-61-61-1-2-2-5-2-7v-1c14-10 86-58 100-66 2 0 5 0 10 3 6 3 22 12 45 25l18 9 16-11c12-9 40-29 81-70s61-68 70-80l11-17-10-17c-10-18-21-38-25-45-2-5-3-9-3-9v-1c8-12 57-87 67-100 1 0 4 0 7 2 28 21 58 49 62 61-3 60-56 144-149 236z"/></svg>