<svg xmlns="http://www.w3.org/2000/svg" viewBox="0 0 512 512"><path d="M224 400c-18 0-32 14-32 32s14 32 32 32c17 0 32-14 32-32s-14-32-32-32zm287-270l1-2c0-2-1-5-2-7 0-1-1-2-2-2-1-3-3-5-6-6l-1-1h-63l-98-87c-12-12-32-12-45 0l-87 87h-47l-31-116c-3-8-10-12-17-12h-97c-9 0-16 7-16 16 0 8 7 16 16 16h83l30 109-1 3c0 4 2 8 4 10l58 219c3 7 10 11 17 11h225c1 0 2 0 3-1 7-1 13-7 13-15l-1-3 64-217c1-1 0-1 0-2zm-193-81l71 63h-134zm102 287h-199l-52-192h308zm-36 64c-18 0-32 14-32 32s14 32 32 32 32-14 32-32-14-32-32-32z"/></svg>