<svg xmlns="http://www.w3.org/2000/svg" viewBox="0 0 512 512"><path d="M463 200h-18v-175c0-27-22-49-49-49h-280c-27 0-49 22-49 49v175h-18c-27 0-49 22-49 50v191c0 8 7 15 15 15h482c8 0 15-7 15-15v-191c0-28-22-50-49-50zm-88-174c8 0 15 7 15 15 0 9-7 16-15 16-9 0-16-7-16-16 0-8 7-15 16-15zm-69 41c8 0 15 7 15 15 0 9-7 16-15 16-9 0-16-7-16-16 0-8 7-15 16-15zm-70-49c8 0 15 7 15 16 0 8-7 15-15 15-9 0-16-7-16-15 0-9 7-16 16-16zm-35 65c9 0 16 7 16 16 0 8-7 15-16 15-8 0-15-7-15-15 0-9 7-16 15-16zm-73-41c9 0 16 7 16 16 0 8-7 15-16 15-8 0-15-7-15-15 0-9 7-16 15-16zm-30 97c36 18 76 28 116 28 26 0 51-4 76-11 0-1 2-1 2-1 39-16 82-21 123-14v59h-317zm384 285h-451v-23c6 3 12 4 19 4 27 0 49-22 49-50v-54c0-11 9-19 19-19 11 0 19 8 19 19l1 55c0 27 22 50 49 50 28 0 50-23 50-50v-56c0-10 9-19 19-19s19 9 19 19v55c0 27 23 50 50 50 28 0 50-23 50-50v-55c0-11 8-19 19-19 10 0 19 8 19 19v55c0 27 22 49 50 49 7 0 13-1 19-3z"/></svg>