<svg xmlns="http://www.w3.org/2000/svg" viewBox="0 0 512 512"><path d="M197 270h118v68h-118zm300-269h-80v-17c0-9-7-16-16-16h-41c-8 0-15 7-15 16v17h-177v-17c0-9-7-16-16-16h-38c-9 0-16 7-16 16v17h-82c-9 0-16 7-16 16v447c0 9 7 16 16 16h480c9 0 16-7 16-16v-447c0-9-7-16-15-16zm-42 337c8 0 15 7 15 16s-7 16-15 16h-109v58c0 9-7 16-15 16-9 0-16-7-16-16v-58h-118v58c0 9-7 16-15 16-9 0-16-7-16-16v-58h-108c-9 0-16-7-16-16s7-16 16-16h108v-68h-108c-9 0-16-7-16-15 0-9 7-16 16-16h108v-61c0-9 7-16 16-16 8 0 15 7 15 16v61h118v-61c0-9 7-16 16-16 8 0 15 7 15 16v61h109c8 0 15 7 15 16 0 8-7 15-15 15h-109v68zm25-221h-448v-84h66v34c0 8 7 15 16 15h38c9 0 16-7 16-15v-34h176v34c0 8 7 15 16 15h41c8 0 15-7 15-15v-34h64z"/></svg>