<svg xmlns="http://www.w3.org/2000/svg" viewBox="0 0 512 512"><path d="M496 1h-67v-17c0-9-7-16-15-16h-67c-8 0-15 7-15 16v17h-152v-17c0-9-6-16-15-16h-66c-9 0-16 7-16 16v17h-67c-9 0-16 7-16 16v447c0 9 7 16 16 16h480c9 0 16-7 16-16v-447c0-9-7-16-16-16zm-133-2h35v52h-35zm-249 0h35v52h-35zm-31 34v34c0 8 7 15 16 15h66c9 0 15-7 15-15v-34h151v34c0 8 7 15 16 15h66c9 0 16-7 16-15v-34h51v84h-449v-84zm-52 416v-301h450v301zm423-179c9 0 16-7 16-16 0-8-7-15-16-15h-108v-62c0-8-7-15-16-15-8 0-15 7-15 15v62h-118v-62c0-8-7-15-15-15-9 0-16 7-16 15v62h-108c-9 0-16 7-16 15 0 9 7 16 16 16h108v68h-108c-9 0-16 7-16 16 0 8 7 15 16 15h108v59c0 9 7 16 16 16 8 0 15-7 15-16v-59h118v59c0 9 7 16 15 16 9 0 16-7 16-16v-59h108c9 0 16-7 16-15 0-9-7-16-16-16h-108v-68zm-139 68h-118v-68h118z"/></svg>