<?xml version="1.0" encoding="UTF-8" standalone="no"?>
<svg width="32px" height="27px" viewBox="0 0 32 27" version="1.1" xmlns="http://www.w3.org/2000/svg" xmlns:xlink="http://www.w3.org/1999/xlink">
    <!-- Generator: Sketch 3.7.1 (28215) - http://www.bohemiancoding.com/sketch -->
    <title>camera-new-fab</title>
    <desc>Created with Sketch.</desc>
    <defs></defs>
    <g id="Page-1" stroke="none" stroke-width="1" fill="none" fill-rule="evenodd">
        <g id="577-585" transform="translate(-52.000000, -104.000000)" fill="#000000">
            <g id="camera-new-fab" transform="translate(52.000000, 104.000000)">
                <path d="M27.0626667,10.084 C27.5626667,10.084 27.8746667,9.70933333 27.8746667,9.272 C27.8746667,8.83466667 27.5626667,8.46 27.0626667,8.46 L26.688,8.46 C26.2506667,8.46 25.876,8.83466667 25.876,9.272 C25.876,9.70933333 26.2506667,10.084 26.688,10.084 L27.0626667,10.084 Z M27.2506667,4.708 L24.188,4.708 L23.4373333,2.396 C23.1253333,1.27066667 22,0.458666667 20.812,0.458666667 L11.1866667,0.458666667 C10.0613333,0.458666667 8.99866667,1.27066667 8.624,2.33333333 L7.812,4.708 L4.74933333,4.708 C2.312,4.708 0.374666667,6.64533333 0.374666667,9.08266667 L0.374666667,21.7706667 C0.374666667,24.208 2.312,26.208 4.74933333,26.208 C5.24933333,26.208 5.624,25.8333333 5.624,25.3333333 C5.624,24.896 5.24933333,24.4586667 4.74933333,24.4586667 C3.312,24.4586667 2.06133333,23.2706667 2.06133333,21.7706667 L2.06133333,9.08266667 C2.06133333,7.64533333 3.312,6.39466667 4.74933333,6.39466667 L8.124,6.39466667 C8.68666667,6.39466667 9.24933333,6.02 9.37466667,5.52 L10.2493333,2.89466667 C10.3746667,2.52 10.812,2.20666667 11.1866667,2.20666667 L20.812,2.20666667 C21.1866667,2.20666667 21.624,2.51866667 21.7493333,2.89466667 L22.624,5.45733333 C22.7493333,6.02 23.312,6.39466667 23.8746667,6.39466667 L27.2493333,6.39466667 C28.6866667,6.39466667 29.9373333,7.64533333 29.9373333,9.08266667 L29.9373333,21.8333333 C29.9373333,22.5213333 29.6866667,23.208 29.1866667,23.708 C28.6866667,24.208 27.9986667,24.4586667 27.312,24.4586667 L9.87466667,24.4586667 C9.37466667,24.4586667 9,24.896 9,25.3333333 C9,25.8333333 9.37466667,26.208 9.87466667,26.208 L27.312,26.208 C28.5,26.208 29.624,25.708 30.4373333,24.896 C31.2493333,24.0213333 31.688,22.9586667 31.6253333,21.7706667 L31.6253333,9.08266667 C31.6253333,6.64533333 29.688,4.708 27.2506667,4.708 L27.2506667,4.708 Z M16,21.1453333 C19.4373333,21.1453333 22.188,18.3333333 22.188,14.9573333 C22.188,11.52 19.4373333,8.70666667 16,8.70666667 C12.5626667,8.70666667 9.812,11.5186667 9.812,14.9573333 C9.812,18.332 12.5626667,21.1453333 16,21.1453333 L16,21.1453333 Z M16,10.4586667 C18.4373333,10.4586667 20.5,12.4586667 20.5,14.9586667 C20.5,17.396 18.4373333,19.396 16,19.396 C13.5626667,19.396 11.5,17.396 11.5,14.9586667 C11.5,12.4586667 13.5626667,10.4586667 16,10.4586667 L16,10.4586667 Z" id="Shape"></path>
            </g>
        </g>
    </g>
</svg>