<svg xmlns="http://www.w3.org/2000/svg" viewBox="0 0 512 512"><path d="M463 38h-414c-27 0-49 22-49 49v274c0 27 22 49 49 49h414c27 0 49-22 49-49v-274c0-27-22-49-49-49zm-92 69c0-8 7-15 15-15h55c8 0 15 7 15 15v81c0 9-7 16-15 16h-55c-8 0-15-7-15-16zm-270-15c31 0 56 25 56 55 0 31-25 56-56 56-30 0-55-25-55-56 0-30 25-55 55-55zm73 154l-17 105c-1 7-8 13-15 13h-81c-8 0-15-7-15-16v-104c0-9 7-16 15-16h98c4 0 8 3 11 6s4 8 4 12zm5-139c0-8 7-15 15-15h140c9 0 16 7 16 15v81c0 9-7 16-16 16h-140c-8 0-15-7-15-16zm277 241c0 9-7 16-15 16h-247c-4 0-8-2-11-6-3-3-5-8-4-12l17-104c1-8 7-14 15-14h230c8 0 15 7 15 16z"/></svg>