<svg xmlns="http://www.w3.org/2000/svg" viewBox="0 0 512 512"><path d="M498 128l-146-146c-19-18-50-18-68 0l-270 269c-9 10-14 22-14 34 0 13 5 25 14 34l146 146c9 10 22 15 34 15 13 0 25-5 34-15l270-269c9-9 14-21 14-34s-5-25-14-34zm-481 157c0-8 3-16 9-22l270-269c6-6 14-9 22-9s16 3 22 9l22 22-314 313-22-22c-6-5-9-13-9-22zm469-101l-270 269c-11 12-32 12-44 0l-112-111 314-314 112 112c6 6 9 14 9 22s-3 16-9 22zm-118-84l-56 56c-4 3-4 9 0 12 2 2 4 2 6 2s4 0 6-2l56-56c3-3 3-9 0-12s-9-3-12 0zm-124 123l-112 113c-3 3-3 9 0 12 2 2 4 2 6 2 3 0 5 0 6-2l113-112c3-4 3-9 0-13-4-3-9-3-13 0zm-33 101l-45 45c-3 3-3 9 0 12 2 2 4 3 6 3s4-1 6-3l45-45c3-3 3-8 0-12-4-3-9-3-12 0z"/></svg>