<svg xmlns="http://www.w3.org/2000/svg" viewBox="0 0 512 512"><path d="M480 18c-17-13-37-21-58-21-27 0-52 12-69 32l-36 43c-15 18-23 42-21 65 2 18 8 33 19 47l-52 62-41-44c24-33 22-79-7-110l-84-89c-7-7-17-7-23-1-7 6-7 17-1 23l84 90c16 18 19 43 8 63l-120-127c-6-6-16-7-23-1-6 7-7 17 0 23l119 127c-21 10-46 7-63-11l-84-90c-6-6-16-7-23 0-7 6-7 16-1 23l85 89c16 18 40 27 63 27 16 0 32-4 46-13l44 46-127 152c-6 7-5 18 2 23 3 3 7 4 11 4 5 0 9-2 13-6l124-148 140 148c3 4 7 6 12 6 4 0 7-2 11-5 6-6 6-16 0-23l-142-151 54-64c14 8 30 13 46 13 27 0 52-12 70-33l35-42c32-38 27-95-11-127z"/></svg>