<svg xmlns="http://www.w3.org/2000/svg" viewBox="0 0 512 512"><path d="M479 18c-16-13-36-21-57-21-27 0-52 12-70 33l-35 42c-15 18-23 42-21 66 2 17 8 33 19 46l-52 62-41-43c24-33 22-80-7-110l-84-90c-6-6-17-7-23 0-7 6-7 16-1 23l84 89c16 18 19 43 8 63l-119-127c-7-6-17-7-23 0-7 6-7 16-1 23l119 126c-21 10-46 7-63-11l-84-90c-6-6-16-6-23 0-6 6-7 16 0 23l84 89c17 18 40 27 63 27 16 0 32-4 46-13l44 46-127 151c-6 8-5 18 2 24 3 3 7 4 11 4 5 0 10-2 13-6l124-148 140 148c3 3 7 5 11 5s8-1 11-4c7-6 7-16 1-23l-142-151 54-64c14 8 30 13 46 13 27 0 52-12 69-33l36-42c32-38 27-95-12-127zm-14 106l-35 42c-20 23-57 26-80 7-11-10-18-23-20-38-1-15 4-30 13-41l35-42c11-13 27-21 44-21 13 0 26 5 36 13 24 20 27 56 7 80z"/></svg>