<svg xmlns="http://www.w3.org/2000/svg" viewBox="0 0 512 512"><path d="M365 121c-34-26-78-39-118-37-9 1-15 8-15 17 1 8 8 14 17 14 33-2 69 9 97 30 3 2 6 3 10 3s9-2 12-6c5-7 3-16-3-21zm147 53c0-8-7-15-15-15-9 0-16 7-16 15 0 10-5 18-12 22-11-90-102-161-213-161-14 0-29 0-44 2-17-22-43-36-71-36-15 0-31 4-44 12-5 3-8 8-8 14 0 5 3 10 8 13 12 7 22 19 26 32-40 28-69 68-79 112h-28c-9 0-16 7-16 15v83c0 8 7 15 16 15h48c21 40 56 70 102 86v48c0 9 7 15 15 15 9 0 16-6 16-15v-40c18 4 38 6 59 6 20 0 40-3 59-7v41c0 9 7 16 16 16 8 0 15-7 15-16v-51c68-27 117-84 123-151 25-6 43-28 43-55zm-256 192c-82 0-143-33-168-90-3-6-8-9-14-9h-43v-53h26c8 0 14-5 15-13 6-43 35-84 76-109 5-3 8-9 7-15-2-17-9-32-20-45 22-2 45 9 56 29 4 6 11 9 17 8 15-3 31-4 48-4 101 0 183 68 183 150 0 83-82 151-183 151zm-116-205c-13 0-23 11-23 23s10 22 23 22c12 0 22-10 22-22s-10-23-22-23z"/></svg>