<svg xmlns="http://www.w3.org/2000/svg" viewBox="0 0 512 512"><path d="M337 331c45-59 97-138 97-196 0-104-88-167-174-167s-175 63-175 167c0 57 52 137 98 195-96 14-131 46-131 73 0 38 72 77 208 77s207-39 207-77c0-41-66-63-130-72zm-227-196c0-89 76-143 150-143s150 54 150 143c0 78-117 212-150 249-34-37-150-171-150-249zm150 321c-112 0-183-32-183-53 0-15 39-41 124-50 27 33 48 55 50 57l9 10 9-10c2-2 23-24 50-57 77 8 124 32 124 50 0 21-72 53-183 53zm61-313c0-34-28-61-61-61-34 0-61 27-61 61s27 61 61 61c33 0 61-28 61-61zm-98 0c0-20 17-37 37-37s36 17 36 37-16 36-36 36-37-16-37-36z"/></svg>