<svg xmlns="http://www.w3.org/2000/svg" viewBox="0 0 512 512"><path d="M390 55c-20-20-45-35-72-45-8-3-16 2-19 10s1 16 9 19c23 8 43 21 60 38 31 30 49 73 50 116 2 44-13 83-41 113 0 0-1 1-2 1l-119 135-118-131c0-1-1-1-2-2-29-30-44-71-42-115 1-44 20-87 50-117 17-17 37-30 60-38 7-2 12-11 9-19s-12-12-19-10c-27 10-51 25-72 45-35 36-57 86-59 137-2 53 16 101 50 136v1l132 146c3 3 7 5 11 5 5-1 9-2 12-5l129-145c36-36 54-85 52-138-2-51-24-101-59-137zm-203 121c-6-6-16-6-22 0s-6 15 0 21l80 81 5 3c2 1 4 1 6 1s4 0 6-1 4-2 5-3l80-81c6-6 6-15 0-21s-15-6-22 0l-54 54v-247c0-8-7-15-15-15s-15 7-15 15v247z"/></svg>