<svg xmlns="http://www.w3.org/2000/svg" viewBox="0 0 512 512"><path d="M256 424c-118 0-215-97-215-215 0-6 5-11 11-11h408c6 0 11 5 11 11 0 118-97 215-215 215zm-193-204c6 101 90 182 193 182s187-81 193-182zm168-67c-4 0-7-1-9-4-4-4-3-11 2-15 2-3 4-6 4-10s-2-7-5-10c-7-6-11-15-12-24 0-10 3-19 10-26 4-5 11-5 15 0 4 4 4 11 0 15-2 3-4 6-3 10 0 3 1 6 4 9 8 6 13 16 13 26s-5 20-13 26c-2 2-4 3-6 3zm51 0c-3 0-6-1-8-4-4-4-4-11 1-15 3-3 5-6 5-10-1-4-2-7-5-10-8-6-12-15-13-24 0-10 4-19 10-26 5-4 11-5 16 0 4 4 4 11 0 15-3 3-4 6-4 10 0 3 2 6 5 9 7 6 12 16 12 26s-4 20-12 26c-2 2-5 3-7 3z"/></svg>