<svg xmlns="http://www.w3.org/2000/svg" viewBox="0 0 512 512"><path d="M356 277c-29 21-67 28-102 17-60-19-95-84-76-144 11-35 37-62 71-74 6-3 10-9 10-15-1-7-5-13-12-15-17-4-35-7-52-7-86 0-161 55-186 137-32 103 25 212 128 244 19 6 38 9 58 9 84 0 159-54 185-134 2-7 0-14-6-18-5-4-12-4-18 0zm-161 121c-17 0-33-3-49-7-86-27-135-120-108-206 22-69 84-115 157-115h2c-22 18-39 42-48 71-24 76 19 159 97 182 28 9 59 9 87 0-30 46-81 75-138 75zm213-340l-24 5 7-24c3-8-2-16-10-19-8-2-16 2-19 10l-7 23-17-18c-5-6-15-6-21 0s-7 15-1 21l15 17-22 4c-8 2-14 10-12 18 1 8 8 13 15 13 1 0 2 0 3-1l24-4-7 23c-3 8 2 16 10 19 1 1 3 1 4 1 7 0 13-4 15-11l7-23 17 18c3 3 7 5 11 5s7-2 10-5c6-5 7-15 1-21l-15-17 22-4c8-2 14-10 12-18-2-9-10-14-18-12zm102 109c-4-8-13-11-21-7l-13 7-7-14c-4-7-14-10-21-6s-10 13-6 21l7 13-14 6c-7 4-10 13-6 21 2 5 8 8 13 8 3 0 5 0 7-1l14-7 7 13c3 5 8 9 14 9 2 0 4-1 7-2 7-4 10-14 6-21l-7-13 14-7c7-4 10-13 6-20z"/></svg>