<svg xmlns="http://www.w3.org/2000/svg" viewBox="0 0 512 512"><path d="M497 51h-35v-26c0-27-19-57-49-57-31 0-48 29-48 57v26l-350 1c-8 0-15 7-15 15v398c0 8 7 15 15 15h481c9 0 16-7 16-15v-399c0-8-7-15-15-15zm-101-26c0-8 4-27 17-27s19 18 19 27v59h-36v-59zm85 424h-450v-367h334v18c0 8 7 15 15 15h18v128l-38 42-14-14c-6-6-15-6-21 0l-39 38c-20 21-20 54 0 75 10 10 24 15 38 15s27-6 37-15l38-38c6-6 6-16 0-22l-17-17 43-48c3-3 4-7 4-10v-134h18c8 0 15-7 15-15v-18h19zm-114-114l-28 27c-8 8-23 8-31 0s-8-22 0-31l27-27zm-106 64c-15 6-31 8-47 8-78 0-142-63-142-141s64-142 142-142c60 0 114 39 134 96 3 8 11 12 19 9s13-11 10-19c-24-70-90-117-163-117-95 0-173 78-173 173s78 172 173 172c19 0 39-3 57-10 8-3 12-11 10-19-3-8-12-12-20-10zm-47-198c-36 0-65 29-65 65s29 65 65 65 65-29 65-65-29-65-65-65zm0 99c-19 0-35-15-35-34s16-35 35-35 35 16 35 35-16 34-35 34zm0-50c-8 0-15 7-15 16 0 8 7 15 15 15s15-7 15-15c0-9-7-16-15-16z"/></svg>