<svg xmlns="http://www.w3.org/2000/svg" viewBox="0 0 512 512"><path d="M180 266c0 19 15 34 34 34s35-15 35-34-16-35-35-35-34 16-34 35zm50 0c0 8-7 15-16 15-8 0-15-7-15-15 0-9 7-16 15-16 9 0 16 7 16 16zm267-215h-35v-26c0-27-19-57-49-57-31 0-48 29-48 57v26l-350 1c-8 0-15 7-15 15v398c0 8 7 15 15 15h482c8 0 15-7 15-15v-399c0-8-7-15-15-15zm-226 377c-18 7-37 10-57 10-95 0-172-77-172-172s77-173 172-173c74 0 139 47 163 117 3 8-1 16-9 19s-17-1-20-9c-20-57-73-96-134-96-78 0-141 64-141 142s63 141 141 141c16 0 32-2 47-8 9-2 17 2 20 10s-2 16-10 19zm8-162c0 36-29 65-65 65s-65-29-65-65 29-65 65-65 65 29 65 65zm153-182h-4v156c0 4-2 7-4 10l-43 48 17 17c6 6 6 16 0 22l-38 38c-10 10-23 15-37 15s-28-5-38-15c-20-20-20-54 0-74l39-39c6-5 15-5 21 0l14 14 38-42v-150h-1v-59c0-8 4-27 17-27s19 18 19 27zm-125 238c-9 9-9 23 0 32 8 8 23 8 31 0l28-28-32-31z"/></svg>