<svg xmlns="http://www.w3.org/2000/svg" viewBox="0 0 512 512"><path d="M253 353l-56 26c-5 3-10-1-10-7l8-61c0-2 0-4-2-5l-42-45c-4-4-1-11 4-11l60-12c2 0 4-1 5-3l30-54c2-5 9-5 12 0l29 54c1 2 3 3 5 3l61 12c5 1 7 7 3 11l-42 45c-1 1-2 3-2 5l8 61c1 6-5 10-10 7l-55-26c-2-1-5-1-6 0zm189 126h-373c-30 0-54-24-54-54v-293c0-30 24-54 54-54h373c30 0 54 24 54 55v292c0 30-24 54-54 54zm-373-370c-13 0-23 10-23 23v293c0 13 10 24 23 24h373c13 0 23-11 23-24v-293c0-13-10-23-23-23zm367-56h-361v-15c0-9 7-15 16-15h330c8 0 15 6 15 15v15zm-48-55h-265v-15c0-9 7-16 16-16h233c9 0 16 7 16 16v15z"/></svg>