<svg xmlns="http://www.w3.org/2000/svg" viewBox="0 0 512 512"><path d="M264 159c-13 0-24 10-24 24 0 13 11 24 24 24s24-11 24-24c0-14-11-24-24-24zm-112 0c-13 0-24 10-24 24 0 13 11 24 24 24s24-11 24-24c0-14-11-24-24-24zm224 0c-13 0-24 10-24 24 0 13 11 24 24 24s24-11 24-24c0-14-11-24-24-24zm88-176h-416c-26 0-48 21-48 48v319c0 27 22 48 48 48h144l64 65 65-65h143c27 0 49-21 49-48v-319c-1-27-23-48-49-48zm16 367c0 9-7 17-16 17h-160l-48 48-48-48h-160c-9 0-16-8-16-17v-319c0-9 7-16 16-16h416c9 0 16 7 16 16z"/></svg>