<?xml version="1.0" encoding="UTF-8" standalone="no"?>
<svg width="32px" height="26px" viewBox="0 0 32 26" version="1.1" xmlns="http://www.w3.org/2000/svg" xmlns:xlink="http://www.w3.org/1999/xlink">
    <!-- Generator: Sketch 3.7.2 (28276) - http://www.bohemiancoding.com/sketch -->
    <title>connected-accounts-new-ui</title>
    <desc>Created with Sketch.</desc>
    <defs>
        <polygon id="path-1" points="7.70128333 7.43488562 7.70128333 0.28776 0.663226667 0.28776 0.663226667 7.43488562 7.70128333 7.43488562"></polygon>
    </defs>
    <g id="Page-1" stroke="none" stroke-width="1" fill="none" fill-rule="evenodd">
        <g id="577-585" transform="translate(-104.000000, -212.000000)">
            <g id="connected-accounts-new-ui" transform="translate(104.000000, 212.000000)">
                <path d="M3.51918417,20.0903408 C2.43770083,20.0903408 1.55880083,20.9827623 1.55880083,22.0808838 C1.55880083,23.1805877 2.43770083,24.0730092 3.51918417,24.0730092 C4.6006675,24.0730092 5.4795675,23.1805877 5.4795675,22.0808838 C5.4795675,20.9827623 4.6006675,20.0903408 3.51918417,20.0903408 M3.51918417,25.6553169 C1.57905917,25.6553169 0.000467500002,24.0524392 0.000467500002,22.0808838 C0.000467500002,20.1109108 1.57905917,18.5080331 3.51918417,18.5080331 C5.45930917,18.5080331 7.03790083,20.1109108 7.03790083,22.0808838 C7.03790083,24.0524392 5.45930917,25.6553169 3.51918417,25.6553169" id="Fill-1" fill="#000000"></path>
                <path d="M19.8534783,16.2195415 C18.771995,16.2195415 17.893095,17.111963 17.893095,18.2100845 C17.893095,19.3082061 18.771995,20.2022099 19.8534783,20.2022099 C20.9349617,20.2022099 21.8138617,19.3082061 21.8138617,18.2100845 C21.8138617,17.111963 20.9349617,16.2195415 19.8534783,16.2195415 M19.8534783,21.7845176 C17.9133533,21.7845176 16.3347617,20.1800576 16.3347617,18.2100845 C16.3347617,16.2401115 17.9133533,14.6372338 19.8534783,14.6372338 C21.7936033,14.6372338 23.372195,16.2401115 23.372195,18.2100845 C23.372195,20.1800576 21.7936033,21.7845176 19.8534783,21.7845176" id="Fill-3" fill="#000000"></path>
                <path d="M11.1701333,5.96776992 C10.08865,5.96776992 9.20975,6.86019146 9.20975,7.958313 C9.20975,9.05643454 10.08865,9.95043838 11.1701333,9.95043838 C12.2516167,9.95043838 13.1305167,9.05643454 13.1305167,7.958313 C13.1305167,6.86019146 12.2516167,5.96776992 11.1701333,5.96776992 M11.1701333,11.5327461 C9.23000833,11.5327461 7.65141667,9.92828608 7.65141667,7.958313 C7.65141667,5.98833992 9.23000833,4.38546223 11.1701333,4.38546223 C13.1102583,4.38546223 14.68885,5.98833992 14.68885,7.958313 C14.68885,9.92828608 13.1102583,11.5327461 11.1701333,11.5327461" id="Fill-5" fill="#000000"></path>
                <g id="Group-9" transform="translate(23.375000, 0.025475)">
                    <mask id="mask-2" fill="white">
                        <use xlink:href="#path-1"></use>
                    </mask>
                    <g id="Clip-8"></g>
                    <path d="M4.18194333,1.86990946 C3.10046,1.86990946 2.22156,2.762331 2.22156,3.86045254 C2.22156,4.95857408 3.10046,5.85257792 4.18194333,5.85257792 C5.26342667,5.85257792 6.143885,4.95857408 6.143885,3.86045254 C6.143885,2.762331 5.26342667,1.86990946 4.18194333,1.86990946 M4.18194333,7.43488562 C2.24181833,7.43488562 0.663226667,5.83042562 0.663226667,3.86045254 C0.663226667,1.89047946 2.24181833,0.287601769 4.18194333,0.287601769 C6.12362667,0.287601769 7.70221833,1.89047946 7.70221833,3.86045254 C7.70221833,5.83042562 6.12362667,7.43488562 4.18194333,7.43488562" id="Fill-7" fill="#000000" mask="url(#mask-2)"></path>
                </g>
                <path d="M4.8059,20.3931945 C4.68279167,20.3931945 4.55968333,20.3631306 4.44436667,20.3014206 C4.062575,20.0988852 3.91609167,19.619446 4.11711667,19.2333629 L8.72666667,10.342376 C8.92769167,9.95629292 9.39986667,9.80913831 9.77854167,10.0116737 C10.1603333,10.2142091 10.3068167,10.6936483 10.1057917,11.0797314 L5.49624167,19.9707183 C5.35755,20.2397106 5.0864,20.3931945 4.8059,20.3931945" id="Fill-10" fill="#000000"></path>
                <path d="M17.764065,16.7295192 C17.5318733,16.7295192 17.3027983,16.6250869 17.1485233,16.4241338 L12.7275317,10.6629515 C12.4641733,10.3180085 12.5249483,9.82116385 12.8631067,9.55217154 C13.2028233,9.28317923 13.69214,9.34488923 13.9570567,9.68983231 L18.3780483,15.4525969 C18.6414067,15.79754 18.5806317,16.2943846 18.2424733,16.5633769 C18.0991067,16.6741385 17.9308067,16.7295192 17.764065,16.7295192" id="Fill-12" fill="#000000"></path>
                <path d="M21.2940017,16.3524553 C21.1677767,16.3524553 21.0399933,16.3208092 20.92156,16.2559345 C20.5444433,16.0470699 20.4041933,15.5660484 20.6114517,15.1831299 L25.171135,6.69246685 C25.376835,6.30796608 25.8521267,6.16714069 26.2292433,6.37600531 C26.60636,6.58645223 26.74661,7.06589146 26.5393517,7.45039223 L21.97811,15.939473 C21.83786,16.2037184 21.5698267,16.3524553 21.2940017,16.3524553" id="Fill-14" fill="#000000"></path>
            </g>
        </g>
    </g>
</svg>