<svg xmlns="http://www.w3.org/2000/svg" viewBox="0 0 512 512"><path d="M439-32c-41 0-74 33-74 73 0 27 15 51 36 63l-37 114c-3 0-6-1-8-1-20 0-37 8-50 20l-49-34c4-9 6-19 6-29 0-40-33-73-74-73-40 0-73 33-73 73 0 23 11 44 28 57l-52 105c-6-2-12-3-19-3-40 0-73 33-73 74 0 40 33 73 73 73 41 0 74-33 74-73 0-24-11-44-28-58l53-104c5 2 12 3 18 3 19 0 36-8 50-20l48 34c-4 9-6 18-6 29 0 40 33 73 74 73 40 0 73-33 73-73 0-27-14-51-36-63l38-114c2 0 5 1 8 1 40 0 73-33 73-74 0-40-33-73-73-73zm-366 481c-23 0-42-19-42-42 0-24 19-43 42-43 24 0 43 19 43 43 0 23-19 42-43 42zm117-232c-24 0-43-19-43-43 0-23 19-43 43-43 23 0 42 20 42 43 0 24-19 43-42 43zm166 116c-24 0-43-19-43-43 0-23 19-42 43-42 23 0 42 19 42 42 0 24-19 43-42 43zm83-249c-24 0-43-19-43-43 0-23 19-42 43-42 23 0 42 19 42 42 0 24-19 43-42 43z"/></svg>