<svg xmlns="http://www.w3.org/2000/svg" viewBox="0 0 512 512"><path d="M337 74c65 31 109 96 109 172 0 10-1 20-2 30 10 1 19 5 28 9 2-13 3-26 3-39 0-90-54-167-131-201-1 10-3 20-7 29zm19 333c-29 18-63 29-100 29s-71-11-100-29c-5 9-11 17-19 23 34 22 75 35 119 35s85-13 119-35c-8-6-14-14-19-23zm-288-131c-1-10-2-20-2-30 0-76 44-141 109-172-4-9-6-19-7-29-77 34-131 111-131 201 0 13 1 26 3 39 9-4 18-8 28-9zm71 87c0 32-26 58-59 58-32 0-58-26-58-58s26-59 58-59c33 0 59 27 59 59zm176-322c0 32-27 59-59 59s-59-27-59-59 27-58 59-58 59 26 59 58zm175 322c0 32-26 58-58 58-33 0-59-26-59-58s26-59 59-59c32 0 58 27 58 59z"/></svg>