<?xml version="1.0" encoding="UTF-8" standalone="no"?>
<svg width="27px" height="32px" viewBox="0 0 27 32" version="1.1" xmlns="http://www.w3.org/2000/svg" xmlns:xlink="http://www.w3.org/1999/xlink">
    <!-- Generator: Sketch 3.7.1 (28215) - http://www.bohemiancoding.com/sketch -->
    <title>copy-01</title>
    <desc>Created with Sketch.</desc>
    <defs></defs>
    <g id="Page-1" stroke="none" stroke-width="1" fill="none" fill-rule="evenodd">
        <g id="577-585" transform="translate(-157.000000, -104.000000)" fill="#000000">
            <g id="copy-01" transform="translate(156.000000, 104.000000)">
                <path d="M6.6752,25.3744 L5.4752,25.3744 C3.2256,25.3744 1.4256,23.5744 1.4256,21.3248 L1.4256,4.824 C1.4256,2.5744 3.2256,0.7744 5.4752,0.7744 L17.0256,0.7744 C19.2752,0.7744 21.0752,2.5744 21.0752,4.824 L21.0752,5.6496 C21.0752,6.0992 20.7008,6.4752 20.2496,6.4752 C19.7984,6.4752 19.424,6.1008 19.424,5.6496 L19.424,4.824 C19.424,3.4736 18.3744,2.424 17.024,2.424 L5.4736,2.424 C4.1232,2.424 3.0736,3.4736 3.0736,4.824 L3.0736,21.3248 C3.0736,22.6752 4.1232,23.7248 5.4736,23.7248 L6.6736,23.7248 C7.1232,23.7248 7.4992,24.0992 7.4992,24.5504 C7.4992,25.0016 7.1248,25.376 6.6736,25.376 L6.6752,25.3744 Z M23.3248,31.2256 L11.7744,31.2256 C9.5248,31.2256 7.7248,29.4256 7.7248,27.176 L7.7248,10.6752 C7.7248,8.4256 9.5248,6.6256 11.7744,6.6256 L23.3248,6.6256 C25.5744,6.6256 27.3744,8.4256 27.3744,10.6752 L27.3744,27.176 C27.3744,29.4256 25.5744,31.2256 23.3248,31.2256 L23.3248,31.2256 Z M11.7744,8.2752 C10.424,8.2752 9.3744,9.3248 9.3744,10.6752 L9.3744,27.176 C9.3744,28.5264 10.424,29.576 11.7744,29.576 L23.3248,29.576 C24.6752,29.576 25.7248,28.5264 25.7248,27.176 L25.7248,10.6752 C25.7248,9.3248 24.6752,8.2752 23.3248,8.2752 L11.7744,8.2752 Z" id="Shape"></path>
            </g>
        </g>
    </g>
</svg>