<?xml version="1.0" encoding="UTF-8" standalone="no"?>
<svg width="30px" height="21px" viewBox="0 0 30 21" version="1.1" xmlns="http://www.w3.org/2000/svg" xmlns:xlink="http://www.w3.org/1999/xlink">
    <!-- Generator: Sketch 3.7.2 (28276) - http://www.bohemiancoding.com/sketch -->
    <title>cost-new-ui</title>
    <desc>Created with Sketch.</desc>
    <defs>
        <polygon id="path-1" points="29.2905 13.3059 29.2905 0.009 0 0.009 0 19.5 29.2905 19.5 29.2905 13.3059 29.2911588 0.00906539471 2.91938381 0.00906539471 2.91938381 13.3059 29.2905 13.3059"></polygon>
    </defs>
    <g id="Page-1" stroke="none" stroke-width="1" fill="none" fill-rule="evenodd">
        <g id="577-585" transform="translate(-104.000000, -275.000000)">
            <g id="cost-new-ui" transform="translate(104.000000, 275.000000)">
                <path d="M2.4543,7.55235 C1.9278,7.55235 1.5003,7.98135 1.5003,8.50785 L1.5003,17.59935 C1.5003,18.12435 1.9278,18.55335 2.4543,18.55335 L23.8068,18.55335 C24.3318,18.55335 24.7608,18.12435 24.7608,17.59935 L24.7608,8.50785 C24.7608,7.98135 24.3318,7.55235 23.8068,7.55235 L2.4543,7.55235 Z M23.8068,20.05335 L2.4543,20.05335 C1.1013,20.05335 0.000300000001,18.95235 0.000300000001,17.59935 L0.000300000001,8.50785 C0.000300000001,7.15335 1.1013,6.05235 2.4543,6.05235 L23.8068,6.05235 C25.1598,6.05235 26.2608,7.15335 26.2608,8.50785 L26.2608,17.59935 C26.2608,18.95235 25.1598,20.05335 23.8068,20.05335 L23.8068,20.05335 Z" id="Fill-1" fill="#000000"></path>
                <g id="Group-5" transform="translate(0.000000, 0.553350)">
                    <mask id="mask-2" fill="white">
                        <use xlink:href="#path-1"></use>
                    </mask>
                    <g id="Clip-4"></g>
                </g>
                <path d="M13.1748,11.1324 C12.0153,11.1324 11.0718,12.0759 11.0718,13.2354 C11.0718,14.3964 12.0153,15.3399 13.1748,15.3399 C14.3343,15.3399 15.2778,14.3964 15.2778,13.2354 C15.2778,12.0759 14.3343,11.1324 13.1748,11.1324 M13.1748,16.8399 C11.1873,16.8399 9.5718,15.2229 9.5718,13.2354 C9.5718,11.2494 11.1873,9.6324 13.1748,9.6324 C15.1623,9.6324 16.7778,11.2494 16.7778,13.2354 C16.7778,15.2229 15.1623,16.8399 13.1748,16.8399" id="Fill-6" fill="#000000"></path>
                <path d="M27.51705,13.85925 C27.48105,13.85925 27.44355,13.85775 27.40755,13.85175 C26.99655,13.79025 26.71305,13.40925 26.77455,12.99975 L27.78105,6.17325 C27.85155,5.69925 27.52005,5.25525 27.04605,5.18475 L5.75355,2.07225 C5.52105,2.03925 5.29305,2.09625 5.10705,2.23425 C4.92105,2.37375 4.79805,2.57775 4.76505,2.80725 L4.40955,5.14575 C4.34505,5.55375 3.97305,5.83575 3.55155,5.76825 C3.14205,5.70375 2.86305,5.31975 2.92905,4.91025 L3.28155,2.59125 C3.37305,1.96425 3.70305,1.41075 4.21005,1.03275 C4.71855,0.65325 5.34405,0.49725 5.96955,0.58725 L27.26205,3.70125 C28.55655,3.89025 29.45505,5.09775 29.26605,6.39075 L28.25805,13.21875 C28.20405,13.59075 27.88305,13.85925 27.51705,13.85925" id="Fill-3" fill="#000000"></path>
            </g>
        </g>
    </g>
</svg>