<?xml version="1.0" encoding="UTF-8" standalone="no"?>
<svg width="30px" height="20px" viewBox="0 0 30 20" version="1.1" xmlns="http://www.w3.org/2000/svg" xmlns:xlink="http://www.w3.org/1999/xlink">
    <!-- Generator: Sketch 3.7.2 (28276) - http://www.bohemiancoding.com/sketch -->
    <title>cost-active-new-ui</title>
    <desc>Created with Sketch.</desc>
    <defs>
        <polygon id="path-1" points="26.2894944 0.638614719 0.180917056 0.638614719 0.180917056 12.1117922 26.2894944 12.1117922 26.2894944 0.638614719"></polygon>
    </defs>
    <g id="Page-1" stroke="none" stroke-width="1" fill="none" fill-rule="evenodd">
        <g id="577-585" transform="translate(-157.000000, -276.000000)">
            <g id="cost-active-new-ui" transform="translate(157.000000, 275.000000)">
                <path d="M2.61291775,8.79321212 C2.31785281,8.79321212 2.07819913,9.03425108 2.07819913,9.32931602 L2.07819913,17.5274113 C2.07819913,17.8224762 2.31785281,18.0621299 2.61291775,18.0621299 L23.5057316,18.0621299 C23.8007965,18.0621299 24.0404502,17.8224762 24.0404502,17.5274113 L24.0404502,9.32931602 C24.0404502,9.03425108 23.8007965,8.79321212 23.5057316,8.79321212 L2.61291775,8.79321212 Z M23.5057316,20.1400519 L2.61291775,20.1400519 C1.17222511,20.1400519 0.000277056277,18.9681039 0.000277056277,17.5274113 L0.000277056277,9.32931602 C0.000277056277,7.88862338 1.17222511,6.71529004 2.61291775,6.71529004 L23.5057316,6.71529004 C24.9464242,6.71529004 26.1183723,7.88862338 26.1183723,9.32931602 L26.1183723,17.5274113 C26.1183723,18.9681039 24.9464242,20.1400519 23.5057316,20.1400519 L23.5057316,20.1400519 Z" id="Fill-1" fill="#000000"></path>
                <g id="Group-5" transform="translate(2.770563, 0.746667)">
                    <mask id="mask-2" fill="white">
                        <use xlink:href="#path-1"></use>
                    </mask>
                    <g id="Clip-4"></g>
                    <path d="M24.5535584,12.1117922 C24.502303,12.1117922 24.4510476,12.1076364 24.3984069,12.10071 C23.8318268,12.0162078 23.4397922,11.4870303 23.5242944,10.9204502 L24.2072381,6.34902165 C24.2487965,6.06088312 24.0451602,5.78798268 23.7542511,5.74503896 L3.08169697,2.72235498 C2.78109091,2.66971429 2.51650216,2.88027706 2.47494372,3.17395671 L2.24775758,4.71854545 C2.16464069,5.28651082 1.63961905,5.68131602 1.06888312,5.59542857 C0.50230303,5.51231169 0.108883117,4.98451948 0.192,4.41655411 L0.417800866,2.87335065 C0.626978355,1.4478961 1.95684848,0.460190476 3.38230303,0.665212121 L24.0548571,3.68928139 C25.4803117,3.89707359 26.4707879,5.22694372 26.2616104,6.65378355 L25.5800519,11.2252121 C25.5024762,11.7405368 25.0591861,12.1117922 24.5535584,12.1117922" id="Fill-3" fill="#000000" mask="url(#mask-2)"></path>
                </g>
                <path d="M13.1803983,11.6323463 C12.2647273,11.6323463 11.5194459,12.3776277 11.5194459,13.2932987 C11.5194459,14.2089697 12.2647273,14.9542511 13.1803983,14.9542511 C14.0960693,14.9542511 14.8399654,14.2089697 14.8399654,13.2932987 C14.8399654,12.3776277 14.0960693,11.6323463 13.1803983,11.6323463 M13.1803983,16.947671 C11.1648139,16.947671 9.52602597,15.3088831 9.52602597,13.2932987 C9.52602597,11.2777143 11.1648139,9.63892641 13.1803983,9.63892641 C15.1945974,9.63892641 16.8333853,11.2777143 16.8333853,13.2932987 C16.8333853,15.3088831 15.1945974,16.947671 13.1803983,16.947671" id="Fill-6" fill="#000000"></path>
            </g>
        </g>
    </g>
</svg>