<svg xmlns="http://www.w3.org/2000/svg" viewBox="0 0 512 512"><path d="M292 209c8 0 15-7 15-16 0-8-7-15-15-15h-25c-8 0-15 7-15 15 0 9 7 16 15 16zm114 0c9 0 16-7 16-16 0-8-7-15-16-15h-49c-8 0-15 7-15 15 0 9 7 16 15 16zm91-31h-25c-9 0-16 7-16 15 0 9 7 16 16 16h9v9c0 9 7 16 16 16 8 0 15-7 15-16v-25c0-8-7-15-15-15zm0 100c-9 0-16 7-16 15v56c0 9 7 15 16 15 8 0 15-6 15-15v-56c0-8-7-15-15-15zm0 130c-9 0-16 7-16 16v9h-9c-9 0-16 7-16 16 0 8 7 15 16 15h25c8 0 15-7 15-15v-25c0-9-7-16-15-16zm-82 25h-43c-8 0-15 7-15 16 0 8 7 15 15 15h43c8 0 15-7 15-15 0-9-7-16-15-16zm-100 0h-43c-8 0-15 7-15 16 0 8 7 15 15 15h43c8 0 15-7 15-15 0-9-7-16-15-16zm-100 0h-9v-9c0-9-7-16-16-16-8 0-15 7-15 16v25c0 8 7 15 15 15h25c8 0 15-7 15-15 0-9-7-16-15-16zm-25-114c-8 0-15 7-15 15v38c0 9 7 16 15 16 9 0 16-7 16-16v-38c0-8-7-15-16-15zm16-61c0-9-7-16-16-16-8 0-15 7-15 16v24c0 9 7 16 15 16 9 0 16-7 16-16zm-89-62l34-19 39 22c2 1 5 2 8 2 5 0 10-3 13-8 1-2 2-4 2-6l189-115c7-4 9-13 5-21-14-23-45-32-67-18l-189 108-34-20c20-13 33-36 33-62 0-41-34-75-75-75s-75 34-75 75 34 75 75 75h2l43 25-43 25s-1-1-2-1c-41 0-75 34-75 75 0 42 34 75 75 75s75-33 75-75c0-26-13-48-33-62zm-86-137c0-24 20-44 44-44 25 0 45 20 45 44 0 25-20 45-45 45-24 0-44-20-44-45zm324 0c4-2 8-3 12-2l-176 107-9-5zm-280 244c-25 0-45-20-45-45 0-24 20-44 45-44s45 20 45 44c0 25-20 45-45 45z"/></svg>