<svg xmlns="http://www.w3.org/2000/svg" viewBox="0 0 512 512"><path d="M469 52c5-33-18-65-52-70-7-1-13 4-14 11l-5 36-36-5c-3-1-7 0-9 2-3 2-5 5-5 9-5 33 18 64 52 69 3 1 6 1 9 1 5 0 10-1 16-2 3 8 8 28 5 73-2 47-26 59-38 61-7-21-21-40-39-53 1-2 1-5 1-7 0-22-18-40-40-40-17 0-32 12-37 27h-42c-5-15-20-27-37-27-22 0-40 18-40 40 0 2 0 5 1 7-18 13-32 32-39 54-12-3-36-15-38-62-3-46 3-67 5-74 6 2 13 3 19 3 3 0 6 0 9-1 34-5 57-36 52-69 0-4-2-7-5-9s-6-3-9-2l-36 5-5-36c-1-7-8-12-15-11-33 5-57 37-52 70 2 15 9 27 20 37-6 12-12 37-9 89 3 63 40 80 60 84l-1 6c0 13 3 24 7 35-32 11-76 41-76 99 0 7 6 13 13 13s13-6 13-13c0-50 43-70 61-76 9 13 20 23 34 31-29 15-61 44-61 92 0 7 6 13 13 13s13-6 13-13c0-61 66-77 68-77s2-1 3-1c6 0 11 1 16 1h74c5 0 10-1 16-1 1 0 1 1 3 1s68 16 68 77c0 7 6 13 13 13s13-6 13-13c0-48-32-77-61-92 14-8 25-18 34-31 17 6 61 26 61 76 0 7 6 13 13 13s13-6 13-13c0-58-44-88-76-99 4-11 7-23 7-35l-1-6c20-4 57-21 60-84 2-49-3-74-8-87 11-10 19-23 21-39zm-399-3c-2-16 6-30 19-37l4 33c1 7 8 12 15 11l33-5c-3 14-15 26-30 28-9 1-19-1-26-7-8-6-13-14-15-23zm244 106c12 0 21 10 21 21 0 12-9 21-21 21-11 0-21-9-21-21 0-11 10-21 21-21zm-117 0c12 0 21 10 21 21 0 12-9 21-21 21-11 0-20-9-20-21 0-11 9-21 20-21zm96 192h-74c-43 0-78-36-78-79 0-25 12-47 30-62 7 7 17 11 27 11 17 0 32-12 37-27h42c5 15 20 27 37 27 10 0 20-4 27-11 18 15 30 37 30 62 0 43-35 79-78 79zm110-268c-15-2-26-14-30-28l34 5c6 1 13-4 14-11l5-33c13 7 20 21 18 37-3 19-21 33-41 30z"/></svg>