<?xml version="1.0" encoding="UTF-8" standalone="no"?>
<svg width="24px" height="22px" viewBox="0 0 24 22" version="1.1" xmlns="http://www.w3.org/2000/svg" xmlns:xlink="http://www.w3.org/1999/xlink">
    <!-- Generator: Sketch 3.7.2 (28276) - http://www.bohemiancoding.com/sketch -->
    <title>Deals_inactive-new-ui</title>
    <desc>Created with Sketch.</desc>
    <defs></defs>
    <g id="Page-1" stroke="none" stroke-width="1" fill="none" fill-rule="evenodd">
        <g id="577-585" transform="translate(-421.000000, -277.000000)">
            <g id="Deals_inactive-new-ui" transform="translate(417.000000, 271.000000)">
                <g id="deals" transform="translate(4.642857, 6.666667)" fill="#000000">
                    <path d="M2.44766852,3.7632578 C2.4143518,3.76900207 2.38792819,3.78623485 2.36878065,3.81380731 C2.34963311,3.84176272 2.34312295,3.87278174 2.34963311,3.90609846 L3.92202922,11.7853118 C3.92815643,11.8163308 3.94615512,11.8435203 3.97181283,11.861136 L14.1514118,18.8032687 C14.2057908,18.839649 14.2808492,18.8262457 14.3187613,18.7718667 L20.793311,9.33902188 C20.8120756,9.31144942 20.8185857,9.28081336 20.8124585,9.24826254 C20.8063313,9.21571172 20.7890985,9.18928811 20.7615261,9.17090647 L10.7718707,2.36778498 C10.7458301,2.35016924 10.7140451,2.34212727 10.6834091,2.34863744 L2.44766852,3.7632578 Z M14.2153646,20.9780464 C13.7738223,20.9780464 13.3284504,20.8501409 12.9370747,20.5836071 L2.75824165,13.6418574 C2.26346917,13.3048607 1.92608949,12.7951531 1.80852359,12.2069406 L0.236510432,4.32772733 C0.115115019,3.72036731 0.241488793,3.10458238 0.592271753,2.59410892 C0.942671762,2.08363546 1.47190981,1.74434103 2.08271638,1.63902955 L2.08271638,1.63902955 L10.3184569,0.224409186 C10.9024569,0.12445902 11.494116,0.252747548 11.984293,0.58629772 L21.9747143,7.38980216 C22.4786776,7.73254315 22.817972,8.25144153 22.9301766,8.85037662 C23.0427641,9.44931172 22.9148586,10.0559058 22.5702028,10.5583373 L16.0956531,19.9911822 C15.6556426,20.6326248 14.9410564,20.9780464 14.2153646,20.9780464 L14.2153646,20.9780464 Z" id="Fill-3"></path>
                    <path d="M10.7247678,2.5358238 L10.7163428,2.53735561 C10.7190235,2.53697266 10.7217041,2.53658971 10.7247678,2.5358238 L10.7247678,2.5358238 Z M2.47983639,3.95197597 L2.47945344,3.95197597 L2.47983639,3.95197597 Z M20.6546828,9.32937152 C20.6550657,9.32975447 20.6554487,9.33013742 20.6558316,9.33052037 L20.6546828,9.32937152 Z M4.10967512,11.7473231 L4.10967512,11.748089 L4.10967512,11.7473231 Z M4.10393086,11.7189847 L14.2011954,18.6052065 L20.5949424,9.28916169 L10.6880045,2.54233397 L2.55183115,3.93972155 L4.10393086,11.7189847 Z M14.2180452,19.014581 C14.1579219,19.014581 14.0974157,18.9973482 14.0441855,18.9617337 L3.86382069,12.0192182 C3.7968043,11.9728811 3.74970134,11.9012693 3.73400036,11.8219985 L2.1619872,3.94355105 C2.14552032,3.86006777 2.16275311,3.77581859 2.21023901,3.70612154 C2.26002262,3.63450973 2.33240032,3.58855563 2.4158836,3.57438645 L10.6512412,2.16014904 C10.7217041,2.14483101 10.808634,2.16129789 10.8790969,2.2087838 L20.8691352,9.01267119 C20.9376834,9.05785938 20.9851693,9.12985414 21.0004874,9.21333742 C21.0161884,9.29490595 20.9985726,9.37838923 20.9507038,9.44808628 L14.476537,18.8805482 C14.4156479,18.967861 14.3172295,19.014581 14.2180452,19.014581 L14.2180452,19.014581 Z M10.7067691,0.38287424 C10.5884373,0.38287424 10.4693396,0.392830961 10.3506248,0.413510306 L2.1152672,1.82774772 C1.55615899,1.92425133 1.07096029,2.2352074 0.750047495,2.70279037 C0.428751749,3.17037333 0.313100598,3.73407695 0.42453929,4.2897386 L1.99655245,12.1693349 C2.10377868,12.7077637 2.41243705,13.1745808 2.86585083,13.4836221 L13.0450668,20.4253718 C13.3916373,20.6616525 13.7964164,20.7864944 14.2153646,20.7864944 C14.905442,20.7864944 15.5495653,20.4487318 15.9378774,19.8827305 L22.4124271,10.4498857 C22.7279786,9.98957875 22.8451615,9.4339171 22.7421477,8.88591446 C22.639134,8.33714592 22.3281779,7.86190394 21.8671051,7.54788426 L11.8766839,0.744379823 C11.5274327,0.506950308 11.1215048,0.38287424 10.7067691,0.38287424 L10.7067691,0.38287424 Z M14.2153646,21.1694453 C13.7190603,21.1694453 13.2399888,21.0212433 12.8294655,20.7416892 L2.65024951,13.7999395 C2.1137354,13.4346044 1.74801736,12.8820064 1.62087768,12.2443932 L0.0488645259,4.36479697 C-0.0828705595,3.70727039 0.0538428867,3.03940414 0.434496011,2.48565725 C0.814383234,1.93267625 1.38804358,1.5646605 2.05016556,1.4501582 L10.2859061,0.0359207878 C10.9196897,-0.072454297 11.5611324,0.0661739034 12.0919022,0.428062437 L22.0823235,7.23156688 C22.6284113,7.60302918 22.9964271,8.16558395 23.1182055,8.81506856 C23.2407497,9.46417021 23.1017386,10.1216968 22.7279786,10.6666358 L16.2538118,20.0994807 C15.7938879,20.7692617 15.0318157,21.1694453 14.2153646,21.1694453 L14.2153646,21.1694453 Z" id="Fill-5"></path>
                    <path d="M7.18120884,6.20763295 C7.01117867,6.20763295 6.84344621,6.26277787 6.69830785,6.36808935 C6.50453473,6.50901525 6.37394849,6.72078706 6.331058,6.96472674 C6.24451111,7.4564356 6.54665932,7.92210381 7.00505146,8.00328939 C7.4634436,8.08141136 7.90651771,7.74901004 7.9930646,7.25768412 C8.03633805,7.0141274 7.98617149,6.77018772 7.8521387,6.57181919 C7.72461607,6.38302443 7.53582131,6.25818246 7.31945409,6.21988738 L7.31907114,6.21988738 C7.27311704,6.21184541 7.22716294,6.20763295 7.18120884,6.20763295 M7.14253081,9.81120026 C6.99394589,9.81120026 6.84382916,9.79817993 6.69294654,9.77175632 C5.25956158,9.51824287 4.30371631,8.11932349 4.56259107,6.65262181 C4.68666714,5.94799229 5.07038387,5.3310585 5.64289536,4.9151739 C6.22498062,4.49277913 6.93037605,4.32581257 7.63117607,4.45142044 C8.33121018,4.57473061 8.9385702,4.97108472 9.34066857,5.56733916 C9.73663973,6.15401983 9.88599055,6.86477657 9.76153153,7.56978905 C9.53022923,8.88216154 8.40358789,9.81120026 7.14253081,9.81120026" id="Fill-7"></path>
                </g>
                <rect id="Rectangle-29" x="0" y="0" width="32" height="32"></rect>
            </g>
        </g>
    </g>
</svg>