<svg xmlns="http://www.w3.org/2000/svg" viewBox="0 0 512 512"><path d="M405 209h-26v-36c10 5 22 8 35 8 8 0 15-7 15-15v-83c0-9-7-15-15-15-13 0-25 3-35 8-3-22-17-33-40-33h-33c-9 0-16 7-16 15 0 9 7 16 16 16h33c9 0 10 0 10 9v116c0 47-24 85-60 101-7-31-24-61-49-82 13-7 23-21 23-35v-42c0-9-7-15-15-15h-216c-8 0-15 6-15 15v24c0 4 1 8 4 11l37 38c-34 24-58 65-58 110 0 8 7 15 15 15h28c7 38 40 66 80 66s73-28 80-66h45c10 0 21-1 31-4 1 0 2 0 3-1 10-2 20-7 29-12h21v2c0 45 36 81 82 81 45 0 81-36 81-81v-2h2c8 0 15-7 15-15 0-50-53-98-107-98zm-325-17l-33-33v-3h185v26c0 4-6 10-9 10zm43 183c-23 0-42-15-48-36h97c-7 21-26 36-49 36zm125-67h-216c8-45 48-85 91-85h50c43 0 78 43 86 85h-11zm157-69c32 0 64 25 74 53h-132c13-15 21-33 27-53zm-7-138v47c-12-3-19-12-19-24 0-11 7-20 19-23zm67 223c0 28-23 50-51 50s-51-22-51-50v-2h102v2z"/></svg>