<svg xmlns="http://www.w3.org/2000/svg" viewBox="0 0 512 512"><path d="M506 162c-5-6-10-8-14-9-5-1-8-2-13-2h-143c-2 0-5-1-7-3-3-2-5-4-5-6l-41-149c-2-5-3-9-6-14-3-4-9-11-21-11-11 0-17 7-20 11-3 5-5 9-6 14l-42 149c0 2-2 4-4 6-3 2-6 3-7 3h-144c-6 0-11 1-17 3-3 1-7 4-10 8-3 3-5 9-5 15 0 8 4 13 7 17 3 3 6 6 10 8l115 77c2 1 6 7 6 11 0 1 0 2-1 3l-44 147c-2 4-3 9-3 13s1 10 5 16c4 7 14 10 20 10 11 0 16-5 22-9l113-97c1-1 4-2 6-2 3 0 5 1 6 2l119 97c6 5 11 9 22 9h1c6 0 15-3 19-9s5-12 5-16c0-5-1-10-3-14l-51-149v-2c0-4 3-10 5-11l115-76c3-2 7-5 10-8 2-4 6-9 6-18 0-4-2-10-5-14zm-65 36l-2 1s-2 0-5 2l-107 66c-2 1-4 5-4 8v3l54 130c1 4 1 9 1 9l-1 1-1-2s-4-2-8-5l-112-98v-297c0-8 4-9 5-2 12 49 35 173 35 173 1 1 2 3 4 4 2 2 4 3 5 3h127c4 0 10 1 10 1z"/></svg>