<svg xmlns="http://www.w3.org/2000/svg" viewBox="0 0 512 512"><path d="M259 319h-3c-2 0-4 1-4 1l-82 70c-5 4-8 7-17 8-5 0-11-3-14-8-3-4-3-8-3-11 0-4 0-7 1-10l34-107v-2c0-3-3-8-4-8l-84-56c-3-2-5-3-7-6-3-3-6-7-6-13 0-4 2-8 4-11 3-2 5-4 8-5 4-2 8-2 12-2h104c1 0 3-1 6-2 2-2 3-4 3-5l30-108c1-4 2-7 4-10 3-4 7-8 15-9h3v-57h4-7-7c-13 0-26 2-38 4 4-1 7-1 10-2-23 3-45 10-66 19 0-1 1-1 1-1-15 6-30 14-43 24 1-1 1-2 2-2l-4 3s1-1 2-1c-14 9-26 19-38 31 1-1 2-2 2-3-1 2-3 4-4 5 0-1 1-1 2-2-12 11-22 24-31 38l1-3-3 5c1-1 1-2 2-2-9 13-17 28-24 43l1-1c-9 20-15 43-18 66l1-10c-2 12-3 25-4 38v14c1 13 2 26 4 38l-1-10c3 23 9 46 18 66l-1-1c7 15 15 30 24 43-1 0-1-1-2-2l3 5-1-3c9 14 19 27 31 38-1-1-2-1-2-2 1 1 3 3 4 5 0-1-1-2-2-3 12 12 24 22 38 31-1 0-2-1-2-1l4 3c-1 0-1-1-2-2 13 10 28 18 43 24 0 0-1 0-1-1 21 9 43 16 66 19-3-1-6-1-10-2 13 2 26 4 39 4h13-4v-161zm-16-351h1-1zm-17 2h-3 3zm11-1zm-6 0h-1 1zm-106 35c-1 1-2 2-4 2 2 0 3-1 4-2zm22-12c-1 1-2 1-4 2 2 0 3-1 4-2zm-11 6l-4 2c1-1 3-2 4-2zm-35 23c1-2 3-3 4-4-1 1-3 2-4 4zm-10 7l4-3-4 3zm-5 5c-1 1-3 2-4 4 1-2 3-3 4-4zm-33 36c-2 1-3 3-4 4 1-1 2-3 4-4zm16-19c-2 1-3 3-4 4 1-1 2-3 4-4zm-9 9l-3 4 3-4zm-34 52c0 2-1 3-2 4 1-1 2-2 2-4zm12-22c0 1-1 3-2 4 1-1 2-2 2-4zm-6 11l-2 4c0-1 1-3 2-4zm-32 111v1-1zm2-20v2-2zm-1 7zm0 7zm1 50v2-2zm-2-19v1-1zm1 7zm0 7zm35 105c1 1 2 2 2 4 0-2-1-3-2-4zm-12-22c1 1 1 2 2 4 0-2-1-3-2-4zm6 11l2 4c-1-1-2-3-2-4zm35 50c1 1 2 3 4 4-2-1-3-3-4-4zm-16-19l3 4-3-4zm8 10l3 4-3-4zm79 65l-4-2c1 1 3 2 4 2zm-50-35c-1-1-3-2-4-4 1 2 3 3 4 4zm15 12c1 2 3 3 4 4-1-1-3-2-4-4zm-10-7l4 3-4-3zm34 24c-1-1-2-2-4-2 2 0 3 1 4 2zm18 10c2 0 3 1 4 2-1-1-2-2-4-2zm100 26h1-1zm-20-2h2-2zm7 1zm7 0zm-217-155l-2-6c0 2 1 4 2 6zm-16-145zm0 90zm3 13c-1-1-1-2-1-3 0 1 0 2 1 3zm11 36c-5-12-9-24-12-36 3 12 7 24 12 36zm138-330l6-2c-2 0-4 1-6 2zm-136 136v1-1zm142 338c-2 0-4-1-6-2 2 1 4 2 6 2zm-144-332c0-1 1-3 2-5-1 1-2 3-2 5zm-12 39c0-1 0-2 1-3-1 1-1 2-1 3zm1-3c2-12 6-24 11-36-5 12-9 24-11 36zm155-180c12-5 24-9 36-12-12 3-24 7-36 12zm306 381c-9 14-19 26-31 38 12-12 22-24 31-38zm-69 69c-13 9-28 17-43 24 15-7 30-15 43-24zm-44 24c-1 1-3 2-5 2 2 0 4-1 5-2zm82-55c-12 12-24 22-38 31 14-9 26-19 38-31zm-239-430l6-2-6 2zm296 343c0 2-1 4-2 6 1-2 2-4 2-6zm-2 6c-7 15-15 29-24 43 9-13 17-28 24-43zm-136 136h-1 1zm-155 14h-3 3zm-3-1c-12-2-24-6-36-11 12 5 24 9 36 11zm13 3zm103-3c-1 1-2 1-3 1 1 0 2 0 3-1zm36-11c-12 5-24 9-36 12 12-3 24-7 36-12zm-49 14zm0 0c-12 2-26 4-38 4 13-1 26-2 38-4zm211-245c0 12-2 25-4 38 2-13 3-26 4-38zm-4-52c2 13 4 26 4 38-1-12-2-25-4-38zm-1-7c0 2 1 4 1 7 0-2-1-4-1-7zm1 7zm-3-13l2 6-2-6zm0 116c-2 12-6 24-11 36 5-12 9-24 11-36zm-204 194l10-2-3 1c-3 0-5 1-7 1zm207-207l-1 7c0-3 1-5 1-7zm-504 0c1 4 1 7 2 10 0-1 0-2-1-3 0-3-1-5-1-7zm200-296c2 0 4-1 7-1-2 0-4 1-7 1zm303 303c-1 2-1 4-1 6 0-2 0-4 1-6zm-501-107l-2 10 1-7 1-3zm488-39c5 12 9 24 12 36-3-12-7-24-12-36zm-293 344l10 2-6-1c-2 0-3-1-4-1zm100-502l7 1c-3 0-5-1-7-1zm7 1c2 1 4 1 6 1-2 0-4 0-6-1zm6 2c12 2 24 6 36 11-12-5-24-9-36-11zm-103-3zm52-4c12 0 25 2 38 4-13-2-26-3-38-4zm87 18c1 0 3 1 5 2-1-1-3-2-5-2zm142 138v1-1zm0 1c1 1 2 3 2 5 0-2-1-4-2-5zm-55-82c12 12 22 24 31 38-9-14-19-26-31-38zm31 38c9 13 17 28 24 43-7-15-15-30-24-43zm-112-93h-1 1zm43 24c14 9 26 19 38 31-12-12-24-22-38-31zm-43-24c15 7 29 15 43 24-13-9-28-17-43-24z"/></svg>