<svg xmlns="http://www.w3.org/2000/svg" viewBox="0 0 512 512"><path d="M142 420c11-19 12-45 3-75-25-87-89-84-101-83-17 7-31 22-38 43s-8 46 0 71c12 45 47 77 83 77 5 0 11-1 16-2 1-1 3-1 5-2 9-4 23-13 32-29zm-80-29c-6 2-12-3-15-11s0-16 6-17c6-2 12 3 15 10 2 8 0 16-6 18zm16-48c-6 2-12-3-15-11s0-16 6-17c6-2 12 3 15 10 3 8 0 16-6 18zm32 48c-6 1-12-4-15-11-3-8 0-16 6-18 6-1 12 3 15 11s0 16-6 18zm142-123c26-21 54-47 82-80-8-8-17-16-27-23-25-17-52-25-65-29-19 24-42 46-68 65 15 6 34 17 52 34 11 10 20 22 26 33zm259-171c-4-19-24-31-52-31-6 0-12 0-19 2l-6 1c1-2 1-3 1-5 5-36-9-66-33-69s-45 22-50 58c-1 11-1 21 1 29-15-2-31-2-46 3-21 6-39 17-53 34 17 4 41 13 64 29 10 7 20 14 29 23 13-17 27-36 40-56 3-5 9-6 14-4 5 3 6 10 3 14-14 23-29 44-43 62 17 23 31 54 32 95 10-10 20-20 28-30l2-2c19-26 25-60 16-91-1-3-2-5-3-7h1c6 0 13 0 19-2 15-3 30-9 39-17 13-11 18-24 16-36zm-104-37c-3 21-14 33-17 33-3-1-11-14-8-36 3-21 13-33 17-33 3 1 10 14 8 36zm70 50c-7 5-16 9-27 11-4 1-8 1-13 1-11 0-18-2-21-5l-2-2s1-3 6-7c6-5 15-9 26-11 4-1 9-2 13-2 15 0 23 5 23 7 0 1-1 4-5 8zm-130 93c-29 35-59 63-85 84 13 30 14 62 10 91 37-23 71-48 101-76 3-38-6-71-26-99zm-102 97c-36 26-65 40-79 46 9 33 6 61-7 85l-1 2c32-12 62-26 92-42 7-38 4-67-5-91zm-85 26c14-6 42-20 76-46-24-42-66-60-82-65-21 13-43 24-67 33 25 9 55 30 73 78z"/></svg>