<svg xmlns="http://www.w3.org/2000/svg" viewBox="0 0 512 512"><path d="M511 97c-4-19-24-31-52-31-6 0-12 0-19 2l-6 1c1-2 1-3 1-5 5-36-9-66-33-69s-45 22-50 58c-1 11-1 21 1 29-15-2-31-2-46 3-25 7-47 23-61 46l-1 1c-45 60-114 105-195 128-20 6-36 22-44 45-7 21-8 46 0 71 12 45 47 77 83 77 5 0 11-1 16-2 53-15 102-36 149-62 2-1 4-2 6-4 42-24 80-52 115-84 1-1 2-2 3-4 15-14 30-29 44-45 0-1 0-1 1-2 19-26 25-60 16-91-1-3-2-5-2-7 7 0 13 0 19-2 16-3 30-9 40-17 12-11 17-24 15-36zm-129-40c3-21 13-33 17-33 3 1 10 14 8 36-3 21-14 33-17 33-3-1-11-14-8-36zm-67 56c20-5 41-3 59 7l2 2c-11 19-23 36-37 52-1-2-2-3-3-4-20-18-43-25-62-28 11-14 24-24 41-29zm-63 56c12 0 41 3 64 23 1 1 2 3 4 4-26 27-55 50-81 69-3-6-7-11-11-15-12-13-25-21-36-26 23-16 43-35 60-55zm-92 76c8 1 29 6 46 24l9 12c-30 19-56 31-71 38-9-20-22-37-37-48 18-7 36-16 53-26zm-8 103c15-7 43-20 75-40 5 16 8 35 8 57-28 16-56 29-86 40 6-17 7-37 3-57zm101-57c27-19 56-42 84-71 8 17 13 37 14 62-26 24-55 47-87 67-1-22-5-41-11-58zm-219 77c-5-19-5-38 0-53 5-14 14-23 24-26 3-1 6-1 8-1 23 0 46 24 55 55 10 37-1 73-24 80-24 6-53-19-63-55zm365-136c0 1-1 1-1 1-6 8-13 15-20 22-3-22-10-42-20-58 14-17 28-35 40-55 5 8 10 16 12 25 7 22 3 46-11 65zm78-122c-7 5-16 9-27 11-4 1-8 1-13 1-11 0-18-2-21-5l-2-2s1-3 6-7c6-5 15-9 26-11 4-1 9-2 13-2 15 0 23 5 23 7 0 1-1 4-5 8zm-408 204c-6 2-8 10-6 18 3 8 9 13 15 11s9-10 6-18c-2-8-9-12-15-11zm41 77c6-2 9-10 6-18-2-8-9-13-15-11s-8 10-6 18c3 8 9 12 15 11zm-57-28c-6 1-8 9-6 17 3 8 9 13 15 11s9-10 6-18c-2-8-9-12-15-10z"/></svg>