<?xml version="1.0" encoding="UTF-8" standalone="no"?>
<svg width="33px" height="32px" viewBox="0 0 33 32" version="1.1" xmlns="http://www.w3.org/2000/svg" xmlns:xlink="http://www.w3.org/1999/xlink">
    <!-- Generator: Sketch 3.7.1 (28215) - http://www.bohemiancoding.com/sketch -->
    <title>delivery-rating-star-1</title>
    <desc>Created with Sketch.</desc>
    <defs></defs>
    <g id="Page-1" stroke="none" stroke-width="1" fill="none" fill-rule="evenodd">
        <g id="577-585" transform="translate(-260.000000, -104.000000)" fill="#000000">
            <g id="delivery-rating-star-1" transform="translate(260.500000, 104.000000)">
                <path d="M16,0 C7.188,0 0,7.188 0,16 C0,24.812 7.188,32 16,32 C24.812,32 32,24.812 32,16 C32,7.188 24.812,0 16,0 L16,0 Z M27.2506667,13.8746667 C27.1253333,14 27,14.1253333 26.8133333,14.2493333 L21.5626667,17.6866667 C21.5,17.7493333 21.3746667,18.0613333 21.3746667,18.1866667 L21.3746667,18.312 L23.6866667,25.0626667 C23.7493333,25.2506667 23.812,25.4373333 23.812,25.688 C23.7493333,25.876 23.7493333,26.1253333 23.5613333,26.4386667 C23.3733333,26.6893333 22.9986667,26.876 22.7493333,26.876 L22.6866667,26.876 C22.1866667,26.8133333 21.936,26.6253333 21.6866667,26.4386667 L16.2493333,22.0013333 C16.2493333,21.9386667 16.124,21.9386667 15.9986667,21.9386667 C15.8733333,21.9386667 15.748,22.0013333 15.748,22.0013333 L10.6226667,26.376 C10.3106667,26.6266667 10.1226667,26.8133333 9.56,26.876 L9.56,26.876 C9.248,26.876 8.872,26.688 8.68533333,26.376 C8.49733333,26.1253333 8.49733333,25.876 8.49733333,25.688 C8.49733333,25.4373333 8.49733333,25.2506667 8.56,25.0626667 L10.6853333,18.3746667 L10.6853333,18.2493333 C10.6853333,18.0613333 10.4973333,17.7493333 10.4346667,17.7493333 L5.184,14.2493333 C4.996,14.124 4.872,14.0613333 4.74666667,13.8746667 C4.55866667,13.6866667 4.372,13.4373333 4.372,13.0626667 C4.372,12.812 4.49733333,12.5626667 4.62266667,12.3746667 C4.81066667,12.2493333 4.93466667,12.124 5.12266667,12.0626667 C5.37333333,11.9373333 5.62266667,11.9373333 5.87333333,11.9373333 L12.3733333,11.9373333 C12.436,11.9373333 12.5613333,11.8746667 12.748,11.812 C12.8733333,11.6866667 12.936,11.5613333 12.936,11.5 L14.8106667,4.74933333 C14.8733333,4.49866667 14.936,4.312 15.0613333,4.124 C15.2493333,3.87333333 15.4986667,3.624 15.9986667,3.56133333 C16.5613333,3.56133333 16.8106667,3.87333333 16.936,4.124 C17.0613333,4.312 17.124,4.49866667 17.1866667,4.74933333 L19.124,11.5 C19.124,11.5626667 19.1866667,11.688 19.312,11.812 C19.4373333,11.8746667 19.5626667,11.9373333 19.624,11.9373333 L26.124,11.9373333 C26.312,11.9373333 26.4986667,11.9373333 26.6866667,12 C26.8746667,12.0626667 27.124,12.1253333 27.3746667,12.3746667 C27.5,12.5626667 27.6253333,12.812 27.6253333,13.0626667 C27.5626667,13.5 27.4373333,13.7506667 27.2506667,13.8746667 L27.2506667,13.8746667 Z" id="Shape"></path>
            </g>
        </g>
    </g>
</svg>