<svg xmlns="http://www.w3.org/2000/svg" viewBox="0 0 512 512"><path d="M495 208h-54v-90c0-10-8-17-16-17h-54c-9 0-16 8-16 17v90h-56v-90c0-10-7-17-16-17h-54c-9 0-16 8-16 17v90h-56v-90c0-10-7-17-16-17h-54c-9 0-16 8-16 17v90h-55c-9 0-16 7-16 16v195c0 29 23 52 52 52h408c29 0 52-23 52-52v-195c0-9-7-16-17-16zm-107-74h20v73h-20zm-142 0h20v73h-20zm-142 0h20v73h-20zm-71 106h446v28c0 21-27 45-46 45-16 0-37-21-37-45 0-9-7-16-16-16s-16 8-16 16c0 25-27 50-46 50s-46-25-46-50c0-9-7-16-16-16s-16 8-16 16c0 25-27 50-46 50s-46-25-46-50c0-9-7-16-16-16s-16 8-16 16c0 24-21 45-37 45-19 0-46-24-46-45v-28zm427 198h-408c-11 0-19-8-19-19v-91c14 10 31 17 46 17 20 0 40-12 53-30 16 22 40 36 62 36s46-14 62-36c16 22 41 36 62 36 22 0 46-14 62-36 13 18 33 30 53 30 15 0 32-6 46-17v91c0 11-9 19-19 19zm-62-340c29 0 52-23 52-51 0-25-31-57-41-66-6-6-16-6-22 0-10 9-41 41-41 66 0 28 23 51 52 51zm0-81c10 12 19 25 19 30 0 10-9 19-19 19-11 0-19-9-19-19 0-5 8-18 19-30zm-142 81c29 0 52-23 52-51 0-25-31-57-41-66-6-6-16-6-22 0-10 9-41 41-41 66 0 28 23 51 52 51zm0-81c11 12 19 25 19 30 0 10-9 19-19 19-11 0-19-9-19-19 0-5 8-18 19-30zm-142 81c29 0 52-23 52-51 0-25-31-57-41-66-6-6-16-6-22 0-10 9-41 41-41 66 0 28 24 51 52 51zm0-81c11 12 19 25 19 30 0 10-9 19-19 19s-19-9-19-19c0-5 8-18 19-30z"/></svg>