<svg xmlns="http://www.w3.org/2000/svg" viewBox="0 0 512 512"><path d="M505 119c-6-10-15-17-26-18-22-3-42 15-45 39-1 9 0 17 2 24h-96l130-164h18c8 0 14-7 14-15s-6-14-14-14h-25c-4 0-9 2-12 5l-148 188-227-1c2-7 3-15 2-22-4-25-24-43-45-40-9 1-18 7-24 14-7 10-10 23-8 37 2 17 12 30 25 36 21 74 116 126 229 126 114 0 209-52 230-126 13-5 23-19 25-36 3-12 1-24-5-33zm-30 10c3 1 4 3 5 5 2 3 3 8 2 13-1 9-7 15-11 15h-1c-2 0-3-2-4-3-3-3-4-9-3-14 1-10 7-16 12-16zm-442 4c1-2 3-3 5-4 5 0 10 7 12 16 0 4 0 9-3 13 0 1-2 4-5 4h-1c-4 0-10-6-11-15-1-6 0-11 3-14zm223 152c-92 0-173-39-197-93l394 1c-25 53-105 92-197 92zm49 61c-5 0-10 3-12 8l-4 7-18-31c-5-9-20-9-25 0l-18 31-3-7c-3-5-8-8-13-8-6 0-10 3-13 7-10 18-33 60-33 78 0 25 21 46 46 46h94c12 0 23-5 32-14 9-8 14-20 14-32 0-18-23-60-34-78-2-4-7-7-13-7zm12 97c-3 3-7 5-11 5h-94c-9 0-17-8-17-17 0-5 7-21 16-39l3 7c3 5 8 8 13 8s10-3 13-8l19-33 19 33c2 5 7 8 13 8 5-1 10-4 12-8l4-7c9 18 16 34 16 39 0 4-2 9-6 12z"/></svg>