<svg xmlns="http://www.w3.org/2000/svg" viewBox="0 0 512 512"><path d="M130 354h-39l-11-124c-2-23-21-39-44-39h-22c-8 0-14 6-14 13v254c0 8 6 14 14 14h161c8 0 14-6 14-14v-45c0-33-26-59-59-59zm368-166h-21c-23 0-41 16-44 39l-10 129h-34c-32 0-58 26-58 58v44c0 8 6 14 14 14h153c7 0 13-6 13-14v-256c1-8-5-14-13-14zm-219 262v-141h95c4 0 7-3 7-7v-21c0-4-3-7-7-7h-227c-4 0-8 3-8 7v21c0 4 4 7 8 7h94v141l-25 11c-2 2-2 5-1 8 2 2 4 4 7 4h75c4 0 7-4 7-8 0-2 0-4-2-5zm-258-287h315c9 0 15-7 15-15v-157c0-9-6-15-15-15h-315c-8 0-15 6-15 15v157c0 8 7 15 15 15zm17-158h280v126h-280zm354 105h105c8 0 15-6 15-15v-104c0-9-7-15-15-15h-105c-8 0-15 6-15 15v104c0 9 7 15 15 15z"/></svg>