<?xml version="1.0" encoding="UTF-8" standalone="no"?>
<svg width="30px" height="30px" viewBox="0 0 30 30" version="1.1" xmlns="http://www.w3.org/2000/svg" xmlns:xlink="http://www.w3.org/1999/xlink">
    <!-- Generator: Sketch 3.7.1 (28215) - http://www.bohemiancoding.com/sketch -->
    <title>directions-srp2</title>
    <desc>Created with Sketch.</desc>
    <defs></defs>
    <g id="Page-1" stroke="none" stroke-width="1" fill="none" fill-rule="evenodd">
        <g id="577-585" transform="translate(-313.000000, -104.000000)" fill="#000000">
            <g id="directions-srp2" transform="translate(312.000000, 104.000000)">
                <path d="M30.192,6.17353846 L28.3458462,4.32738462 C27.7107692,3.69230769 27.0769231,3.69230769 27.0769231,3.69230769 L16,3.69230769 L16,1.84615385 C16,0.807384615 15.1926154,0 14.1538462,0 C13.1150769,0 12.3076923,0.807384615 12.3076923,1.84615385 L12.3076923,25.8461538 L10.4615385,25.8461538 C9.42276923,25.8461538 8.61538462,26.6535385 8.61538462,27.6923077 L8.61538462,29.5384615 L19.6923077,29.5384615 L19.6923077,27.6923077 C19.6923077,26.6535385 18.8849231,25.8461538 17.8461538,25.8461538 L16,25.8461538 L16,11.0769231 L27.0769231,11.0769231 C27.0769231,11.0769231 27.8264615,11.0769231 28.4615385,10.4418462 L30.3076923,8.59569231 C30.9427692,7.96061538 30.9427692,6.80738462 30.192,6.17230769 L30.192,6.17353846 Z M10.4615385,7.38461538 L4.92307692,7.38461538 C4.92307692,7.38461538 4.17353846,7.38461538 3.53846154,8.01969231 L1.69230769,9.86584615 C1.05723077,10.5009231 1.05723077,11.6541538 1.69230769,12.2892308 L3.53846154,14.1353846 C4.288,14.7704615 4.92307692,14.7704615 4.92307692,14.7704615 L10.4615385,14.7704615 L10.4615385,7.38461538 Z" id="Shape"></path>
            </g>
        </g>
    </g>
</svg>