<svg xmlns="http://www.w3.org/2000/svg" viewBox="0 0 512 512"><path d="M299 267l43-129-129 43zm-43-299c-141 0-256 115-256 256s115 256 256 256 256-115 256-256-115-256-256-256zm-8 33c0-5 3-8 8-8s8 3 8 8v50c0 5-3 8-8 8s-8-3-8-8zm-165 231h-50c-5 0-8-3-8-8s3-8 8-8h50c5 0 8 3 8 8s-3 8-8 8zm181 215c0 5-3 8-8 8s-8-3-8-8v-50c0-5 3-8 8-8s8 3 8 8zm98-320l-49 149c-1 3-3 4-5 5l-149 50c-1 1-1 1-2 1-3 0-4-1-6-3-3-3-4-6-2-8l50-149c1-3 2-4 5-5l149-49c3-1 6 0 8 1 2 3 3 6 1 8zm117 105h-50c-5 0-8-3-8-8s3-8 8-8h50c5 0 8 3 8 8s-3 8-8 8z"/></svg>