<svg xmlns="http://www.w3.org/2000/svg" viewBox="0 0 512 512"><path d="M309 479h-105c-10 0-21-8-21-30 0-2 0-5 1-7-87-33-148-120-153-223 0-16 12-29 27-29h396c16 0 28 12 28 28-6 103-66 191-152 224v8c0 3 0 9-2 15-5 13-16 14-19 14zm-95-30h85v-3c-2-2-4-4-5-7-1-4 0-9 1-13 2-3 5-7 12-9 80-25 138-104 144-197h-390c5 93 63 173 144 197 9 3 13 9 14 14s0 9-3 13l-2 2v3zm119-314h-4c-13-4-24-13-29-26-5-12-6-25-3-38 4-14 13-24 21-30l4-4c4-3 6-7 7-12 2-6 2-12-1-17-1-3-4-8-9-9-8-3-13-11-11-19s11-13 19-11c13 4 24 13 29 27 5 11 6 24 3 37-4 13-11 24-22 32-6 5-9 10-10 14-2 6-2 12 1 18 1 2 4 7 9 8 8 3 13 11 11 19-2 7-8 11-15 11zm-83 0h-4c-13-4-24-13-30-26-5-12-5-25-2-38 4-14 13-24 21-30l4-4c3-3 6-7 7-12 2-6 1-12-1-17-1-3-4-8-9-9-9-3-13-11-11-19s11-13 18-11c14 4 24 13 30 27 5 11 6 24 3 37-4 13-12 24-22 32-6 5-9 10-11 14-1 6-1 12 2 18 1 2 4 7 9 8 8 3 13 11 11 19-2 7-8 11-15 11zm-83 0h-4c-13-4-24-13-30-26-5-12-6-25-2-38 3-14 13-24 20-31l5-3c3-3 5-8 7-12 1-6 1-12-1-18-2-2-4-7-10-9-8-2-12-10-10-18s10-13 18-11c13 4 24 13 30 26 5 12 6 25 2 38-3 13-11 24-22 31-5 6-9 10-10 15-2 6-1 12 1 17 1 3 4 8 9 9 9 3 13 11 11 19-1 7-7 11-14 11z"/></svg>