<svg xmlns="http://www.w3.org/2000/svg" viewBox="0 0 512 512"><path d="M386 24c-11 0-21 2-30 5-13-33-49-61-100-61s-87 29-100 61c-9-3-19-5-30-5-48 0-99 38-99 103 0 48 43 80 89 86v250c0 9 7 17 16 17h248c9 0 17-8 17-17v-250c46-6 88-38 88-86 0-65-51-103-99-103zm-238 423v-20h216v20zm232-266c-9 0-16 7-16 16v197h-38v-73c0-9-8-16-17-16s-16 7-16 16v73h-21v-90c0-9-7-17-16-17s-16 8-16 17v90h-21v-73c0-9-7-16-16-16s-17 7-17 16v73h-38v-197c0-9-7-16-16-16-36 0-72-20-72-54 0-51 41-70 66-70 12 0 23 4 30 11 4 4 11 6 17 3 7-2 11-8 11-15 0-26 27-54 72-54s72 28 72 54c0 7 4 13 11 15 6 3 13 1 17-3 7-7 18-11 30-11 26 0 66 19 66 70 0 34-36 54-72 54z"/></svg>