<?xml version="1.0" encoding="UTF-8" standalone="no"?>
<svg width="31px" height="23px" viewBox="0 0 31 23" version="1.1" xmlns="http://www.w3.org/2000/svg" xmlns:xlink="http://www.w3.org/1999/xlink">
    <!-- Generator: Sketch 3.7.2 (28276) - http://www.bohemiancoding.com/sketch -->
    <title>drafts-new-ui</title>
    <desc>Created with Sketch.</desc>
    <defs>
        <polygon id="path-1" points="16.5264806 22.4107744 30.2131717 22.4107744 30.2131717 1.08088889 0 1.08088889 0 22.4107744 16.5264806 22.4107744 16.5264806 1.08088294 30.2135485 1.08088294 30.2135485 22.4116364 16.5264806 22.4116364"></polygon>
        <polygon id="path-3" points="0 0.708870034 0 2.68963771 16.7230923 2.68963771 16.7230923 0.708870034 4.67265583e-20 0.708870034"></polygon>
    </defs>
    <g id="Page-1" stroke="none" stroke-width="1" fill="none" fill-rule="evenodd">
        <g id="577-585" transform="translate(-209.000000, -213.000000)">
            <g id="drafts-new-ui" transform="translate(208.000000, 212.000000)">
                <g id="Group-3" transform="translate(0.969697, 0.643017)">
                    <mask id="mask-2" fill="white">
                        <use xlink:href="#path-1"></use>
                    </mask>
                    <g id="Clip-2"></g>
                </g>
                <path d="M23.1267125,19.5792593 L23.1422276,19.5792593 L23.1267125,19.5792593 Z M19.1272512,17.2812929 L19.2496485,21.2824781 L22.4974869,19.0276094 L29.4499987,5.54666667 C29.5586047,5.33290236 29.589635,5.09500337 29.5292983,4.90882155 C29.5068875,4.83986532 29.4637899,4.74849832 29.3775946,4.70540067 L26.7951838,3.37454545 C26.6900256,3.32110438 26.5624566,3.3573064 26.4969481,3.3883367 C26.3297293,3.45901684 26.1797495,3.60727273 26.0814869,3.79690236 L19.1272512,17.2812929 Z M19.0979448,23.0546532 C18.8703892,23.0546532 18.6445576,23.002936 18.435965,22.8977778 C17.9584431,22.656431 17.6515879,22.1754613 17.6360727,21.6410505 L17.4964364,17.1209697 C17.4929886,16.9830572 17.5240189,16.8451448 17.5878034,16.7227475 L24.6368539,3.05389899 C24.909231,2.52638384 25.3419313,2.11437037 25.8573791,1.89371044 C26.4193724,1.65581145 27.0313589,1.66787879 27.5399111,1.92991246 L30.120598,3.26076768 C30.5739852,3.49521886 30.9135946,3.90378451 31.0773657,4.41406061 C31.2669953,5.01053199 31.199763,5.69492256 30.8929077,6.29139394 L23.849029,19.9516229 C23.7869684,20.0688485 23.6990492,20.1705589 23.5904431,20.2464108 L19.9219717,22.7943434 C19.6754532,22.9650101 19.385837,23.0529293 19.0979448,23.0546532 L19.0979448,23.0546532 Z" id="Fill-1" fill="#000000"></path>
                <path d="M27.9876094,10.4563502 C27.8617643,10.4563502 27.7324714,10.4287677 27.6135219,10.3649832 L23.0262088,7.99806061 C22.6279865,7.79291582 22.4711111,7.3033266 22.6762559,6.90510438 C22.8814007,6.50688215 23.369266,6.34828283 23.770936,6.55515152 L28.3582492,8.92207407 C28.7564714,9.12894276 28.9133468,9.61853199 28.7064781,10.0167542 C28.5633939,10.294303 28.2806734,10.4546263 27.9876094,10.4563502" id="Fill-4" fill="#000000"></path>
                <path d="M13.4066424,7.9396202 L6.59721481,7.9396202 C6.0507367,7.9396202 5.60769293,7.49657643 5.60769293,6.94837441 L5.60769293,6.94837441 C5.60769293,6.4018963 6.0507367,5.95885253 6.59721481,5.95885253 L13.4066424,5.95885253 C13.9531205,5.95885253 14.3978882,6.4018963 14.3978882,6.94837441 L14.3978882,6.94837441 C14.3978882,7.49657643 13.9531205,7.9396202 13.4066424,7.9396202" id="Fill-6" fill="#000000"></path>
                <g id="Group-10" transform="translate(0.969697, 10.986451)">
                    <mask id="mask-4" fill="white">
                        <use xlink:href="#path-3"></use>
                    </mask>
                    <g id="Clip-9"></g>
                </g>
                <path d="M16.7015434,13.6760889 L1.96042559,13.6760889 C1.41222357,13.6760889 0.969179798,13.2330451 0.969179798,12.6848431 L0.969179798,12.6848431 C0.969179798,12.138365 1.41222357,11.6953212 1.96042559,11.6953212 L16.7015434,11.6953212 C17.2480215,11.6953212 17.6927892,12.138365 17.6927892,12.6848431 L17.6927892,12.6848431 C17.6927892,13.2330451 17.2480215,13.6760889 16.7015434,13.6760889" id="Fill-8" fill="#000000"></path>
                <path d="M13.4887003,19.4773764 L6.67927273,19.4773764 C6.13279461,19.4773764 5.68975084,19.0343327 5.68975084,18.4861306 L5.68975084,18.4861306 C5.68975084,17.9396525 6.13279461,17.4966088 6.67927273,17.4966088 L13.4887003,17.4966088 C14.0351785,17.4966088 14.4799461,17.9396525 14.4799461,18.4861306 L14.4799461,18.4861306 C14.4799461,19.0343327 14.0351785,19.4773764 13.4887003,19.4773764" id="Fill-11" fill="#000000"></path>
            </g>
        </g>
    </g>
</svg>