<svg xmlns="http://www.w3.org/2000/svg" viewBox="0 0 512 512"><path d="M500 113l-41-41c-18-18-49-14-70 7l-174 173-3 5c0 1 0 1-1 1v2l-28 109c-1 5 1 11 5 15 2 2 6 4 10 4h4l109-28h2c0-1 1-1 1-1l5-3 174-174c9-9 15-20 17-32 3-14 0-28-10-37zm-192 211l-61-61 130-129 60 61zm-74-31l44 44-59 15zm246-149c-1 6-4 11-9 16l-12 13-60-60 12-13c9-9 20-13 26-7l41 41c2 2 4 5 2 10zm-464 11h236c9 0 16-7 16-16 0-8-7-15-16-15h-236c-9 0-15 7-15 15 0 9 6 16 15 16zm146 84h-146c-9 0-15 7-15 15s6 15 15 15h146c9 0 16-7 16-15 0-9-7-15-16-15zm-24 114h-122c-9 0-15 7-15 15 0 9 6 16 15 16h122c8 0 15-7 15-16 0-8-7-15-15-15z"/></svg>