<svg xmlns="http://www.w3.org/2000/svg" viewBox="0 0 512 512"><path d="M307 285c-17 13-19 37-5 53l25 30 58-49-25-30c-13-16-37-18-53-4zm201 99l-110-131c-32-38-89-43-127-11s-43 89-11 127l84 100c3 4 7 6 12 6 3 0 7-1 10-4 6-5 7-15 2-21l-85-100c-21-25-17-63 8-84s62-18 83 7l111 131c5 7 15 7 21 2 7-5 8-15 2-22zm-74-200c4 2 9 3 13 2 5-2 9-4 11-9l31-75c1-2 1-4 1-6 0-6-3-12-9-15-8-3-17 1-21 9l-11 28c-36-88-122-146-219-145-128 2-232 108-230 236 2 129 108 232 236 230 9 0 16-7 15-15 0-9-7-16-15-16-112 2-203-88-205-199-2-112 88-203 200-205 87-1 164 53 193 134l-34-25c-7-5-17-3-22 4s-3 16 4 21z"/></svg>