<svg xmlns="http://www.w3.org/2000/svg" viewBox="0 0 512 512"><path d="M469 253c0-122-99-220-220-220-122 0-220 98-220 220 0 70 33 133 85 173l-20 20c-5 6-5 15 0 22 4 3 7 4 11 4s8-1 11-4l24-24c32 18 69 29 109 29 43 0 83-13 117-34l30 29c3 3 6 4 10 4s8-1 11-4c6-6 6-16 0-22l-25-26c47-40 77-100 77-167zm-410 0c0-105 85-190 190-190 104 0 189 85 189 190 0 104-85 189-189 189-105 0-190-85-190-189zm208-134c-9 0-16 7-16 15v112h-70c-9 0-16 7-16 15 0 9 7 16 16 16h86c8 0 15-7 15-16v-127c0-8-7-15-15-15zm-226 30c4 0 8-1 10-4 6-6 6-16 0-22-27-28-27-69 0-97 27-26 70-26 97 0 6 6 16 6 22 0s6-15 0-22c-19-18-44-29-70-29s-51 11-70 30c-40 40-40 100 0 140 3 3 7 4 11 4zm441-144c-19-19-44-30-70-30s-51 11-70 30c-6 6-6 15 0 21s16 6 22 0c26-26 70-26 97 0 27 28 27 70 0 97-6 6-6 16 0 22 3 3 6 5 10 5s8-2 11-5c40-40 40-100 0-140z"/></svg>