<?xml version="1.0" encoding="UTF-8" standalone="no"?>
<svg width="31px" height="28px" viewBox="0 0 31 28" version="1.1" xmlns="http://www.w3.org/2000/svg" xmlns:xlink="http://www.w3.org/1999/xlink">
    <!-- Generator: Sketch 3.7.2 (28276) - http://www.bohemiancoding.com/sketch -->
    <title>edit-profile-picture-new-ui</title>
    <desc>Created with Sketch.</desc>
    <defs>
        <polygon id="path-1" points="10.7201077 12.9096404 10.7201077 0.210216998 0.456219052 0.210216998 0.456219052 12.9096404 10.7201077 12.9096404"></polygon>
    </defs>
    <g id="Page-1" stroke="none" stroke-width="1" fill="none" fill-rule="evenodd">
        <g id="577-585" transform="translate(-261.000000, -158.000000)">
            <g id="edit-profile-picture-new-ui" transform="translate(261.000000, 158.000000)">
                <path d="M19.3190019,27.8190728 L7.05063916,27.8190728 C3.16285336,27.8190728 0,24.4590115 0,20.3307189 L0,8.4592629 C0,4.32906871 3.16285336,0.969007407 7.05063916,0.969007407 L19.3172119,0.969007407 C23.2032078,0.969007407 26.3660611,4.32906871 26.3660611,8.4592629 C26.3660611,8.98409421 25.9651108,9.41004426 25.4710828,9.41004426 C24.9770548,9.41004426 24.5761045,8.98409421 24.5761045,8.4592629 C24.5761045,5.37873132 22.2169417,2.87057011 19.3172119,2.87057011 L7.05063916,2.87057011 C4.14911946,2.87057011 1.78995663,5.37873132 1.78995663,8.4592629 L1.78995663,20.3307189 C1.78995663,23.4112505 4.14911946,25.9175101 7.05063916,25.9175101 L19.3172119,25.9175101 C22.6644308,25.9080023 24.3255106,24.5198615 24.389949,21.6732221 C24.4042687,21.1483908 24.7998491,20.7718814 25.3081968,20.7452595 C25.8022248,20.7585705 26.1924353,21.1940283 26.1799056,21.7188596 C26.0904078,25.6398819 23.6524869,27.8057619 19.3190019,27.8190728" id="Fill-1" fill="#000000"></path>
                <path d="M12.5596875,14.633029 C10.4410074,14.633029 8.60677172,16.2104027 8.19648215,18.3825239 L16.8711758,18.4273455 C16.8884148,18.4273455 16.90393,18.4204498 16.9142734,18.4049347 C16.5126034,16.2104027 14.6783677,14.633029 12.5596875,14.633029 M16.8711758,20.1512512 L8.24819933,20.1512512 C7.71723636,20.1512512 7.2173037,19.9150761 6.87769428,19.5065104 C6.54325657,19.1031165 6.40534411,18.5773253 6.50188283,18.0636013 C7.06387609,15.0760727 9.61353266,12.9091232 12.5596875,12.9091232 C15.5058424,12.9091232 18.055499,15.0760727 18.6174923,18.0618774 C18.714031,18.5773253 18.5761185,19.1031165 18.2416808,19.5065104 C17.9020714,19.9150761 17.4021387,20.1512512 16.8711758,20.1512512" id="Fill-3" fill="#000000"></path>
                <path d="M12.7339744,8.40990168 C11.9944189,8.40990168 11.3944997,9.01154478 11.3944997,9.74937643 C11.3944997,10.488932 11.9944189,11.0888512 12.7339744,11.0888512 C13.4718061,11.0888512 14.0734492,10.488932 14.0734492,9.74937643 C14.0734492,9.01154478 13.4718061,8.40990168 12.7339744,8.40990168 M12.7339744,12.8127569 C11.0445468,12.8127569 9.67059394,11.438804 9.67059394,9.74937643 C9.67059394,8.05994882 11.0445468,6.68599596 12.7339744,6.68599596 C14.423402,6.68599596 15.7973549,8.05994882 15.7973549,9.74937643 C15.7973549,11.438804 14.423402,12.8127569 12.7339744,12.8127569" id="Fill-5" fill="#000000"></path>
                <g id="Group-9" transform="translate(19.932660, 8.286987)">
                    <mask id="mask-2" fill="white">
                        <use xlink:href="#path-1"></use>
                    </mask>
                    <g id="Clip-8"></g>
                    <path d="M2.53121077,9.76351246 L2.39157441,10.6926976 L3.34834209,10.3117145 L8.83036229,2.64895354 L8.06322424,2.09902761 L2.53121077,9.76351246 Z M1.31758114,12.9096404 C1.12795152,12.9096404 0.938321886,12.8458559 0.78317037,12.7217347 C0.541823569,12.5303811 0.419426263,12.2252498 0.465971717,11.9201185 L0.857298316,9.30150572 C0.877985185,9.16531717 0.929702357,9.03602424 1.01072593,8.92569428 L6.91165522,0.749209428 C7.33056431,0.168253199 8.14424781,0.0372363636 8.72692795,0.452697643 L10.1767327,1.49221279 C10.4594532,1.69390976 10.645635,1.99559327 10.7025239,2.33865051 C10.7594128,2.68170774 10.6801131,3.02648889 10.4766923,3.30920943 L4.60334545,11.5218963 C4.50680673,11.654637 4.37406599,11.7597953 4.22063838,11.820132 L1.6365037,12.8493037 C1.53306936,12.8889535 1.42618721,12.9096404 1.31758114,12.9096404 L1.31758114,12.9096404 Z" id="Fill-7" fill="#000000" mask="url(#mask-2)"></path>
                </g>
            </g>
        </g>
    </g>
</svg>