<svg xmlns="http://www.w3.org/2000/svg" viewBox="0 0 512 512"><path d="M439 297c-40 0-72-33-72-73s32-73 72-73 73 33 73 73c0 39-33 73-73 73zm0-114c-22 0-41 18-41 41 0 22 19 41 41 41 23 0 41-19 41-41s-18-41-41-41zm-183 114c-39 0-73-34-73-73 0-19 7-38 21-51 14-14 33-22 52-22 40 0 73 33 73 73 0 39-33 73-73 73zm0-114c-11 0-22 4-29 12-8 8-12 18-12 29 0 22 19 41 41 41s41-19 41-41-19-41-41-41zm-183 114c-40 0-73-33-73-73s33-73 73-73 73 33 73 73c0 39-34 73-73 73zm0-114c-23 0-42 18-42 41 0 22 19 41 42 41 22 0 41-19 41-41s-19-41-41-41z"/></svg>