<svg xmlns="http://www.w3.org/2000/svg" viewBox="0 0 512 512"><path d="M485 41v-12c0-6-6-11-13-11h-6v-5c0-7-6-13-12-13h-396c-7 0-13 6-13 13v28c-2 1-5 1-8 2-8 2-15 7-20 12-10 10-16 23-16 38v14h-1v274c0 37 31 67 68 67h352c14 0 26-11 26-26v-40h40c14 0 26-12 26-26v-289c0-14-12-26-27-26zm-19-15h6c3 0 5 1 5 3v28h-11zm0 31h11v150-6-6h-11zm-412-44c0-3 2-5 4-5h396c2 0 4 2 4 5v44h-27c0-12-10-21-22-21-3 0-7 1-10 3-3-2-7-3-10-3-12 0-21 9-22 21h-100c1 0 1-1 1-1 1-1 1-2 1-3 0-2-1-3-2-5-2-1-4-1-6-1s-4 0-6 1c-2 2-2 3-2 5 0 1 0 2 1 3v1h-9c0-3-1-5-2-7-2-3-4-4-7-4s-5 1-7 4c-1 1-2 4-2 7h-7c0-3-1-5-2-7-2-3-4-4-7-4s-5 1-7 4c-1 1-2 4-2 7h-9c0-1 1-2 1-4s-1-3-2-5c-2-1-4-1-6-1h-4c-1 0-2 1-3 2 0 0-1 0-1 1v3c1 1 1 1 2 1l2-2c0-1 1-1 1-1 1-1 1-1 2-1l3 1v5l-1 1h-22l3-8v-1s0-1-1-1h-15v5h3v-1h8l-2 6h-16c0-3-1-6-2-8-2-2-4-3-7-3s-5 1-7 3c-1 2-2 5-2 8h-6c-1-3-1-6-3-8s-4-3-7-3c-2 0-5 1-6 3-2 2-3 5-3 8h-13v-10c0-1 0-1-1-1h-1l-5 2h-2v3h3l2-1v6h-31v-43zm368 44c0 7-6 13-13 13h-3c2-4 4-8 4-13zm-20 0c0 3-1 6-3 8-2-2-3-5-3-8zm-10 13h-3c-8 0-13-6-13-13h12c0 5 2 9 4 13zm-4-13h-13c0-7 6-13 13-13h4c-2 4-4 8-4 13zm8 0c0-3 1-6 3-8 2 2 3 5 3 8zm14 0c0-5-2-9-4-13h4c7 0 13 6 13 13zm-153-4c0-1 1-2 1-2 1-1 2-1 3-1s2 0 2 1c1 1 1 1 1 2s0 2-1 2c0 1-1 1-2 1s-2 0-3-1l-1-2zm-17 6c0 2 0 4-1 5-1 2-2 3-3 3s-2-1-3-3c-1-1-1-3-1-5v-2h8v2zm-8-2c0-2 0-3 1-4 1-2 2-2 3-2s2 0 3 2c0 1 1 2 1 4zm-17 2c0 2 0 4-1 5-1 2-2 3-3 3-2 0-3-1-3-3-1-1-1-3-1-5v-2h8v2zm-8-2c0-2 0-3 1-4 0-2 1-2 3-2 1 0 2 0 3 2 0 1 1 2 1 4zm-67 2c0 2 0 4-1 5-1 2-2 3-3 3s-2-1-3-3c-1-1-1-3-1-5v-2h8v2zm-8-2c0-2 0-3 1-4 0-2 1-2 3-2 1 0 2 0 3 2 0 1 1 2 1 4zm-17 2c0 2 0 4-1 5-1 2-2 3-3 3s-2-1-3-3c-1-1-1-3-1-5v-2h8v2zm-9-2c1-2 1-3 2-4 0-2 1-2 3-2 1 0 2 0 3 2 0 1 1 2 1 4zm-78 10c4-4 8-6 13-8h5v48c-13-1-23-12-23-25-1-6 2-11 5-15zm392 365h-352c-16 0-31-8-40-20h12c2 0 3-1 3-3s-1-4-3-4h-17c-4-7-6-16-6-24v-229h8c2 0 3-2 3-4s-1-4-3-4h-8v-21h403c5 0 10 5 10 10v290c-1 5-5 9-10 9zm0-325h-366v-50h30v9h-3c-1 0-2 1-2 1v3s1 1 2 1h11l2-1v-3l-2-1h-3v-9h13v2c0 4 1 7 2 9 2 2 4 3 7 3s5-1 7-3c2-3 3-5 3-9v-2h6v2c0 4 1 7 3 9s4 3 6 3c3 0 6-1 7-3 2-3 3-5 3-9v-2h16l-6 13h1v1h3c1 0 1 0 1-1l4-13h22l-1 1-8 8-1 1v3l2 1h13c1 0 1 0 1-1v-1l1-3-1-1-1-1-2 1v1h-7l6-4c2-2 3-3 3-4 0 0 1 0 1-1h9v2c0 4 1 7 2 9 2 2 4 3 7 3s5-1 7-3 2-5 2-9v-2h7v2c0 4 1 7 3 9 1 2 4 3 6 3 3 0 5-1 7-3s3-5 3-9v-2h9l3 2c-2 0-3 1-4 2s-1 2-1 3c0 2 1 4 2 5 2 2 4 2 7 2 2 0 4-1 6-2 1-1 2-3 2-5 0-1 0-2-1-3s-2-2-3-2c0 0 1-1 2-1h100c0 11 10 21 21 21 4 0 8-1 11-3 3 2 7 3 10 3 12 0 21-10 21-21h28v137h-13v-62c0-14-12-26-26-26zm-155-43c0 1-1 2-1 2-1 1-2 1-3 1s-2 0-3-1c-1 0-1-1-1-2s0-2 1-3l3-1 3 1 1 3zm230 292c0 5-4 10-10 10h-40v-112h50v102zm0-110h-49v-43h49zm0-51h-10v-138h1c5 0 10 4 10 10v128zm-301 60c0 5-4 9-9 9-6 0-10-4-10-9 0-6 4-10 10-10 5 0 9 4 9 10zm82 0c0 5-4 9-9 9s-10-4-10-9c0-6 5-10 10-10s9 4 9 10zm-13 42c2-2 2-4 0-6-1-1-3-1-5 0-8 8-19 13-31 13s-23-4-31-12c-1-2-4-1-5 0-2 1-1 4 0 5 9 9 22 15 36 15 14-1 27-6 36-15zm-83 108h-23c-2 0-3 2-3 4s1 3 3 3h23c2 0 3-1 3-3s-1-4-3-4zm-105-257c0-2-1-4-4-4h-22c-2 0-4 2-4 4s2 3 4 3h22c2 1 4-1 4-3zm151 257h-22c-2 0-4 2-4 4s2 3 4 3h22c2 0 4-1 4-3s-2-4-4-4zm-58-257c0-2-1-4-3-4h-23c-2 0-3 2-3 4s1 3 3 3h23c2 1 3-1 3-3zm68 4h22c2 0 3-2 3-4s-1-4-3-4h-22c-2 0-4 2-4 4s2 4 4 4zm-103 253h-22c-2 0-4 2-4 4s2 3 4 3h22c2 0 3-1 3-3 1-2-1-4-3-4zm-47 0h-22c-2 0-4 2-4 4s2 3 4 3h22c2 0 4-1 4-3s-2-4-4-4zm36-257c0-2-2-4-4-4h-22c-2 0-4 2-4 4s2 3 4 3h22c2 1 4-1 4-3zm67 4h22c2 0 4-2 4-4s-2-4-4-4h-22c-2 0-4 2-4 4s2 4 4 4zm212-4c0-2-2-4-4-4h-22c-2 0-3 2-3 4s1 3 3 3h22c2 1 4-1 4-3zm6 154c-2 0-4 2-4 4v22c0 2 2 4 4 4s4-2 4-4v-22c0-2-2-4-4-4zm0-46c-2 0-4 1-4 3v23c0 2 2 3 4 3s4-1 4-3v-23c0-2-2-3-4-3zm0-93c-2 0-4 1-4 3v23c0 2 2 3 4 3s4-1 4-3v-23c0-2-2-3-4-3zm0 46c-2 0-4 2-4 4v22c0 2 2 4 4 4s4-2 4-4v-22c0-2-2-4-4-4zm0 140c-2 0-4 2-4 4v22c0 2 2 3 4 3s4-1 4-3v-22c0-2-2-4-4-4zm-41 56h-22c-2 0-4 2-4 4s2 3 4 3h22c2 0 3-1 3-3s-1-4-3-4zm-58-257c0-2-2-4-4-4h-22c-2 0-4 2-4 4s2 3 4 3h22c2 1 4-1 4-3zm11 257h-22c-2 0-3 2-3 4s1 3 3 3h22c2 0 4-1 4-3s-2-4-4-4zm35-257c0-2-1-4-3-4h-22c-2 0-4 2-4 4s2 3 4 3h22c2 1 3-1 3-3zm53 248c-2 0-4 1-4 3 0 4-2 6-5 6h-8c-2 0-3 2-3 4s1 3 3 3h8c7 0 13-6 13-13 0-2-2-3-4-3zm-134 9h-23c-2 0-3 2-3 4s1 3 3 3h23c2 0 3-1 3-3s-1-4-3-4z"/></svg>