<svg xmlns="http://www.w3.org/2000/svg" viewBox="0 0 512 512"><path d="M251 479c-7 0-14-3-19-8-15-17-140-158-146-167-14-18-25-37-32-58-8-23-12-46-12-69 0-29 6-58 18-85 12-25 28-48 49-68 20-19 44-34 71-43 27-10 56-15 86-12 51 3 98 25 134 62 36 36 58 84 60 135 2 32-4 64-16 93-2 4-8 7-12 5-5-2-7-8-5-12 11-27 16-56 15-85-2-46-22-90-55-123-32-34-76-54-122-57-27-2-54 1-79 11-24 8-46 22-65 40-19 17-34 38-44 62-11 24-17 50-17 77 0 21 4 42 11 62s16 38 29 54c4 6 89 102 145 165 2 2 4 3 6 3 5 0 9 4 9 10 0 4-4 8-9 8zm0-211c-50 0-91-41-91-91 0-51 41-91 91-91 51 0 92 40 92 91 0 50-41 91-92 91zm0-164c-40 0-73 33-73 73s33 73 73 73c41 0 73-33 73-73s-32-73-73-73zm208 366c-13 13-35 13-48 0l-43-43-43 43c-14 13-35 13-49-1-13-13-13-35 0-48l44-43-43-43c-13-13-13-35 0-48 14-14 35-14 49 0l42 43 43-43c14-13 35-13 49 0 13 14 13 36 0 49l-43 43 42 43c14 13 14 35 0 48zm-169-36c-7 6-7 16 0 22 6 6 16 7 22 0l49-49c4-4 10-4 13 0l49 50c7 6 17 6 23 0s6-16 0-23l-49-49c-4-4-4-10 0-13l49-49c6-6 7-16 0-22-6-7-16-7-22 0l-50 49c-3 3-9 3-13 0l-49-50c-6-6-16-6-22 0s-6 16 0 22l49 50c4 4 4 9 0 13z"/></svg>