<svg xmlns="http://www.w3.org/2000/svg" viewBox="0 0 512 512"><path d="M75 105c-4 0-7 4-7 8v59c0 11-8 21-18 24v-83c0-5-4-8-8-8s-8 4-8 8v83c-10-3-18-13-18-24v-59c0-5-3-8-7-8-5 0-8 4-8 8v59c0 20 14 37 33 40v144c0 4 4 8 8 8s8-4 8-8v-144c19-3 33-20 33-40v-59c0-4-3-8-8-8zm395 0c-23 0-41 19-41 41v26c0 20 14 37 33 40v144c0 4 4 8 8 8s7-4 7-8v-144c20-3 34-20 34-40v-26c0-22-18-41-41-41zm26 67c0 14-12 25-26 25s-26-11-26-25v-26c0-14 12-26 26-26s26 12 26 26zm-238-104c-86 0-156 70-156 156s70 156 156 156 156-70 156-156c1-86-70-156-156-156zm0 297c-77 0-140-63-140-141s63-141 140-141c78 0 141 63 141 141s-63 141-141 141zm0-241c-55 0-99 45-99 100s44 100 99 100 100-45 100-100-45-100-100-100zm0 184c-46 0-84-38-84-84 0-47 38-84 84-84 47 0 85 37 85 84 0 46-38 84-85 84zm-24-100c-3 0-5-2-5-5 0-5-4-8-8-8-5 0-9 3-9 8 0 3-2 5-5 5s-5-2-5-5c0-10 8-19 19-19 10 0 18 9 18 19 0 3-2 5-5 5zm81 0c-3 0-5-2-5-5 0-5-4-8-9-8s-8 3-8 8c0 3-3 5-6 5-2 0-5-2-5-5 0-10 9-19 19-19 11 0 19 9 19 19 0 3-2 5-5 5zm-55 74c-14 0-28-8-35-22-1-2 0-5 2-7 3-1 6 0 7 3 5 10 15 16 26 16 12 0 23-7 27-17 1-3 4-4 7-3 2 1 3 4 2 6-6 15-20 24-36 24z"/></svg>