<svg xmlns="http://www.w3.org/2000/svg" viewBox="0 0 512 512"><path d="M160 75h4c6 0 13-5 15-12l16-71c2-8-3-17-11-18-8-2-17 3-19 11l-16 71c-2 8 3 17 11 19zm213 0h4c6 0 13-5 15-12l16-71c2-8-3-17-11-18-8-2-17 3-19 11l-16 71c-2 8 3 17 11 19zm-150-26h106c8 0 15-7 15-15 0-9-7-16-15-16h-106c-9 0-16 7-16 16 0 8 7 15 16 15zm-20 147c-16 0-32 5-46 14l7 15c7-5 14-7 18-9 5-1 10-2 15-2 8 0 13 2 16 5s4 7 2 13c-3 14-15 22-36 22h-12l-4 17h11c12 0 21 2 26 5 4 4 6 9 4 16-1 8-5 14-11 18-6 3-14 5-25 5-6 0-11-1-17-2-6-2-12-4-17-6l-4 18c9 5 21 8 36 8 16 0 30-4 40-11 11-7 18-17 21-30 2-8 1-15-3-21-5-5-12-8-22-10 10-3 17-6 23-12 6-5 11-12 13-21 2-10 0-18-6-23-6-6-16-9-29-9zm62 33l7 13 25-16c2-2 4-4 6-5-2 6-4 14-7 24l-19 86h21l30-133h-18zm246-198c0-1 0-2-1-2 0-2-1-3-1-4-1 0-1-1-1-1s0-1-1-1c-1-1-2-2-3-2l-1-1c-2-1-5-2-7-2h-54c-8 0-15 7-15 16 0 8 7 15 15 15h37c-4 24-7 47-11 69h-379c3-23 6-45 9-69h24c8 0 15-7 15-15 0-9-7-16-15-16h-38c-8 0-14 6-15 14-16 140-37 248-68 350-2 4 0 10 2 13 3 4 8 7 13 7h39l-1 3v54c0 9 7 16 16 16h426c9 0 15-7 15-16v-428zm-427 117h379c-18 98-38 170-64 223h-362c19-68 35-140 47-223zm1 296v-42h323c6 0 11-4 14-9 23-45 42-102 59-177v228h-396z"/></svg>