<svg xmlns="http://www.w3.org/2000/svg" viewBox="0 0 512 512"><path d="M431 38c0-1 0-1-1-2l-3-2c-45-41-105-66-171-66-141 0-256 115-256 256 0 66 26 126 67 172 1 1 1 1 1 2 1 0 1 0 2 1 46 50 113 81 186 81 141 0 256-115 256-256 0-73-31-139-81-186zm-175-39c53 0 102 18 141 49l-74 74h-12c2-3 4-6 4-10v-20c0-41-35-76-77-76-40 0-70 33-70 76v20c0 4 1 7 4 10h-36c-7 0-14 5-15 13l-33 201c-1 4 0 9 3 12l3 2-14 14c-31-38-49-87-49-140 0-124 101-225 225-225zm88 154l28 170h-207l170-170zm-223 170l28-170h143l-171 170zm167-201h-94c3-2 4-6 4-10v-20c0-22 13-45 40-45 25 0 46 21 46 45v20c0 4 2 8 4 10zm-32 327c-60 0-115-24-155-62l33-33h256c9 0 16-7 16-16 0-2 0-3-1-5l-33-198c-1-5-4-9-8-11l55-55c38 40 62 95 62 155 0 124-101 225-225 225z"/></svg>