<svg xmlns="http://www.w3.org/2000/svg" viewBox="0 0 512 512"><path d="M467 442h-418c-10 0-19 9-19 19 0 11 8 19 19 19h418c11 0 19-8 19-19 0-10-9-19-19-19zm21-375c-7-3-16-1-21 6l-102 133-94-133c-4-5-9-8-15-8-7 1-12 3-15 8l-95 133-101-133c-5-7-14-9-21-6-8 2-13 10-12 18l11 300c1 10 9 18 19 18h425c10 0 18-8 18-18l15-300c1-8-4-16-12-18zm-27 75l-10 187-64-91zm-338 96l-65 90-7-186zm-46 128l70-98 73 98zm92-129l87-121 85 121-86 112zm194 31l69 97h-143zm-328-239c4 0 7-2 9-4l18-18c2-2 3-5 3-8 0-4-1-7-3-9l-18-18c-5-4-13-4-18 0l-17 18c-3 2-4 5-4 8 0 4 1 7 4 9l17 18c3 2 6 4 9 4zm212-4c3 2 6 4 9 4s6-2 9-4l17-18c3-2 4-5 4-8 0-4-1-7-4-9l-17-18c-5-4-13-4-18 0l-18 18c-2 2-3 5-3 9 0 3 1 6 3 8zm256-35l-18-18c-4-5-12-5-17 0l-18 18c-2 2-3 5-3 8 0 4 1 7 3 9l18 18c2 2 5 3 8 3 4 0 7-1 9-3l18-18c2-2 3-5 3-9 1-3 0-6-3-8z"/></svg>