<?xml version="1.0" encoding="UTF-8" standalone="no"?>
<svg width="26px" height="25px" viewBox="0 0 26 25" version="1.1" xmlns="http://www.w3.org/2000/svg" xmlns:xlink="http://www.w3.org/1999/xlink">
    <!-- Generator: Sketch 3.7.2 (28276) - http://www.bohemiancoding.com/sketch -->
    <title>favourite-orders--new-ui</title>
    <desc>Created with Sketch.</desc>
    <defs></defs>
    <g id="Page-1" stroke="none" stroke-width="1" fill="none" fill-rule="evenodd">
        <g id="577-585" transform="translate(-523.000000, -159.000000)" fill="#000000">
            <path d="M536.042603,161.02394 C535.942756,161.02394 535.760601,161.054974 535.656705,161.264115 L532.746279,167.160528 C532.599206,167.458722 532.314505,167.665164 531.985277,167.713738 L525.477634,168.659593 C525.246905,168.693326 525.16055,168.857939 525.129516,168.95239 C525.099832,169.046841 525.072846,169.230345 525.238809,169.393609 L529.405428,173.453634 C529.982926,174.017638 530.247387,174.829913 530.111108,175.627346 L529.127473,181.360494 C529.088344,181.589874 529.217876,181.722105 529.297484,181.781474 C529.381141,181.840843 529.545754,181.921801 529.750847,181.813857 L535.5717,178.753659 C535.865846,178.59984 536.216662,178.59849 536.513507,178.753659 L542.33436,181.813857 C542.539452,181.921801 542.705415,181.839494 542.787722,181.781474 C542.86868,181.722105 542.998212,181.589874 542.957733,181.360494 L541.847265,174.879837 C541.790594,174.550609 541.899887,174.215985 542.138712,173.982557 L546.846398,169.393609 C547.01371,169.231694 546.986724,169.046841 546.95569,168.95239 C546.924657,168.857939 546.838302,168.693326 546.608922,168.659593 L540.101279,167.713738 C539.772051,167.665164 539.486001,167.458722 539.338928,167.160528 L536.428501,161.264115 C536.324606,161.054974 536.142451,161.02394 536.042603,161.02394 M529.548453,183.89042 C529.042468,183.89042 528.539181,183.731203 528.108757,183.419517 C527.347755,182.864957 526.972651,181.946088 527.131868,181.017774 L528.115503,175.284625 C528.13979,175.144299 528.093914,175.002623 527.992717,174.904124 L523.826099,170.84275 C523.152801,170.186994 522.913976,169.222249 523.204074,168.327667 C523.495522,167.433085 524.255174,166.792171 525.186187,166.657242 L531.167605,165.786947 L533.841905,160.368184 C534.258837,159.523526 535.102146,159 536.042603,159 C536.983061,159 537.82637,159.523526 538.243301,160.368184 L540.918951,165.786947 L546.89902,166.657242 C547.830033,166.792171 548.589685,167.433085 548.881133,168.327667 C549.171231,169.222249 548.933755,170.185644 548.259108,170.84275 L543.931923,175.060642 L544.953339,181.017774 C545.112555,181.946088 544.738801,182.864957 543.97645,183.419517 C543.215448,183.972727 542.225067,184.04424 541.392553,183.60437 L536.042603,180.792442 L530.694003,183.605719 C530.331043,183.79597 529.939748,183.89042 529.548453,183.89042" id="favourite-orders--new-ui"></path>
        </g>
    </g>
</svg>