<svg xmlns="http://www.w3.org/2000/svg" viewBox="0 0 512 512"><path d="M471 480h-430c-23 0-41-18-41-41v-430c0-23 18-41 41-41h429c24 0 41 18 42 41v429c0 24-18 42-41 42zm-430-481c-6 0-10 4-10 10v429c0 7 4 11 10 11h429c7 0 11-4 11-11v-429c0-6-4-11-11-11h-429zm120 393h-80c-19 0-33-14-33-32v-77c0-18 14-32 33-32h80c19 0 33 14 33 32v77c0 18-14 32-33 32zm-80-110c-2 0-2 0-2 2v76c0 1 1 2 2 2h80c2 0 2-1 2-2v-77c0-1-1-2-2-2h-80zm363 93h-209c-8 0-15-7-15-15 0-9 7-16 15-16h209c9 0 16 7 16 16 0 8-7 15-16 15zm-28-78h-180c-9 0-16-7-16-16 0-8 7-15 16-15h180c9 0 16 7 16 15 0 9-8 16-16 16zm-255-100h-80c-19 0-33-15-33-33v-76c0-19 14-33 33-33h80c19 0 33 14 33 33v76c0 18-14 33-33 33zm-80-111c-2 0-2 1-2 2v76c0 2 1 2 2 2h80c2 0 2-1 2-2v-76c0-2-1-2-2-2zm363 93h-209c-8 0-15-7-15-15 0-9 7-16 15-16h209c9 0 16 7 16 16s-7 15-16 15zm-28-78h-180c-9 0-16-7-16-15 0-9 7-16 16-16h180c9 0 16 7 16 16-1 8-8 15-16 15z"/></svg>