<svg xmlns="http://www.w3.org/2000/svg" viewBox="0 0 512 512"><path d="M463 134h-34v-109c0-5-3-10-7-13-5-3-10-3-15 0-13 6-24 12-35 18-66 35-118 62-274 62h-25c-41 0-73 36-73 82v41c0 44 30 74 73 74h25c19 0 36 0 52 1 3 64 37 121 89 147 2 1 4 1 6 1 6 0 12-3 14-8 4-8 1-17-7-21-40-20-68-66-71-117 91 9 136 33 185 60 13 7 27 14 41 22 2 1 4 1 6 1 3 0 6-1 9-2 4-3 7-8 7-13v-113h34c28 0 49-19 49-44v-21c0-26-23-48-49-48zm-390 124c-26 0-42-16-42-43v-41c0-25 16-51 42-51h25c19 0 35 0 51-1v138c-16-1-33-2-51-2h-25zm325 77c-5-4-11-6-17-9-51-29-100-55-201-65v-141c104-9 152-35 206-63 4-2 8-5 13-7v285zm83-132c0 9-9 14-18 14h-34v-53h34c9 0 18 9 18 18z"/></svg>