<svg xmlns="http://www.w3.org/2000/svg" viewBox="0 0 512 512"><path d="M488 17h-232v-24c0-12-11-23-24-23s-24 11-24 23v24h-184c-13 0-13 48 0 48h184v24c0 13 11 24 24 24s24-11 24-24v-24h232c13 0 13-48 0-48zm-153 167c0-12-11-24-23-24-13 0-24 12-24 24v8h-264c-13 0-13 48 0 48h264v8c0 13 11 24 24 24 12 0 23-11 23-24v-8h64l48-48h-112zm-311 183c-13 0-13 48 0 48h137l-48-48zm227 111c-6 0-12-3-17-6l-107-108c-9-10-9-24 0-33 10-10 24-10 34 0l90 90 212-213c9-9 24-9 33 0 10 10 10 24 0 33l-227 229c-5 5-11 8-18 8z"/></svg>