<svg xmlns="http://www.w3.org/2000/svg" viewBox="0 0 512 512"><path d="M305 397v-140l192-211c4-4 5-8 4-13l1-3c0-58-205-61-246-61s-246 3-246 61v3c0 4 1 9 4 12l193 211v47l32 31v-84c0-4-2-7-4-10l-148-162c62 13 144 14 169 14 24 0 107-1 169-14l-148 162c-2 2-4 6-4 10v115zm-49-397c124 0 196 19 212 30-16 12-88 31-212 31s-196-19-212-31c16-11 88-30 212-30zm-43 360c-5 0-9 2-12 5s-5 7-5 11 2 8 5 11l87 88c3 2 7 4 12 4 4 0 8-2 11-5l186-187c3-3 5-7 5-11 0-5-2-9-5-12s-7-4-11-4c-5 0-9 2-12 5l-175 176-75-76c-3-3-7-5-11-5z"/></svg>