<svg xmlns="http://www.w3.org/2000/svg" viewBox="0 0 512 512"><path d="M263 383c-14-15-49-50-115-50h-34v-1c0-9-7-16-16-16h-83c-8 0-15 7-15 16v133c0 8 7 15 15 15h83c9 0 16-7 16-15v-2h300c8 0 15-7 15-15 0-47-85-64-166-65zm-214 57c-5 0-9-4-9-9 0-4 4-8 9-8 4 0 8 4 8 8 0 5-4 9-8 9zm65-7v-69h34c30 0 52 9 67 19h-67c-8 0-15 7-15 15 0 9 7 16 15 16h108c60 0 102 9 124 19zm383-200h-27c-7-96-78-175-171-194 4-7 6-14 6-23 0-26-22-48-49-48s-49 22-49 49c0 8 2 15 6 22-93 19-164 98-171 194h-27c-8 0-15 7-15 16 0 8 7 15 15 15h10l42 45c3 3 7 5 11 5h353c4 0 8-2 10-5l46-45h10c8 0 15-7 15-15 0-9-7-16-15-16zm-241-234c10 0 18 8 18 18s-8 18-18 18c-10-1-18-9-18-18 0-10 8-18 18-18zm-137 158c31-45 82-73 137-73 8 0 15 7 15 15 0 9-7 16-15 16-45 0-87 22-112 59-3 5-8 7-12 7-3 0-6-1-9-2-7-5-9-14-4-22zm305 126h-339l-18-19h376z"/></svg>