<?xml version="1.0" encoding="UTF-8" standalone="no"?>
<svg width="32px" height="22px" viewBox="0 0 32 22" version="1.1" xmlns="http://www.w3.org/2000/svg" xmlns:xlink="http://www.w3.org/1999/xlink">
    <!-- Generator: Sketch 3.7.1 (28215) - http://www.bohemiancoding.com/sketch -->
    <title>fine dine icon_outline</title>
    <desc>Created with Sketch.</desc>
    <defs></defs>
    <g id="Page-1" stroke="none" stroke-width="1" fill="none" fill-rule="evenodd">
        <g id="577-585" transform="translate(-416.000000, -156.000000)" fill="#0C0C0C">
            <g id="fine-dine-icon_outline" transform="translate(416.000000, 156.000000)">
                <g id="Layer_1">
                    <g id="Group" transform="translate(2.871795, 0.000000)">
                        <path d="M0.0820512821,15.3435897 L0.0820512821,15.0564103 C0.287179487,14.6461538 0.656410256,14.7692308 1.02564103,14.7282051 C1.18974359,11.6102564 2.33846154,8.9025641 4.55384615,6.72820513 C6.76923077,4.51282051 9.43589744,3.40512821 12.5538462,3.2 L12.5538462,2.74871795 L12.3076923,2.74871795 C11.6102564,2.70769231 11.1589744,2.13333333 11.2410256,1.43589744 C11.3230769,0.861538462 11.6923077,0.574358974 12.1846154,0.41025641 L13.9897436,0.41025641 C14.0307692,0.451282051 14.0717949,0.451282051 14.1128205,0.492307692 C14.6871795,0.738461538 15.0153846,1.23076923 14.8923077,1.76410256 C14.8102564,2.33846154 14.3589744,2.70769231 13.7435897,2.74871795 C13.7025641,2.74871795 13.6205128,2.74871795 13.5384615,2.78974359 L13.5384615,3.24102564 C13.6205128,3.24102564 13.7025641,3.24102564 13.7846154,3.28205128 C14.7282051,3.44615385 15.7128205,3.52820513 16.6564103,3.81538462 C21.374359,5.25128205 24.7794872,9.55897436 25.025641,14.4410256 C25.025641,14.7692308 25.1897436,14.8102564 25.4358974,14.8102564 C25.8051282,14.8102564 25.9692308,14.974359 25.9692308,15.2615385 C25.9692308,15.5487179 25.8051282,15.7538462 25.4358974,15.7128205 C25.025641,15.6717949 24.8615385,15.8358974 24.7794872,16.2051282 C24.5333333,17.1076923 23.9179487,17.5589744 22.974359,17.5589744 L3.07692308,17.5589744 C2.91282051,17.5589744 2.74871795,17.5589744 2.58461538,17.5179487 C1.84615385,17.3128205 1.43589744,16.8205128 1.27179487,16.0820513 C1.18974359,15.7948718 1.06666667,15.6307692 0.738461538,15.7128205 C0.451282051,15.7128205 0.246153846,15.5897436 0.0820512821,15.3435897 L0.0820512821,15.3435897 Z M2.13333333,15.6717949 C2.21538462,16.3282051 2.46153846,16.574359 3.07692308,16.574359 L8.86153846,16.574359 L22.9333333,16.574359 C23.5487179,16.574359 23.8769231,16.2871795 23.8769231,15.6307692 L22.3179487,15.6307692 C21.9487179,15.6307692 21.7025641,15.3435897 21.8666667,15.0564103 C21.9487179,14.8923077 22.1948718,14.7692308 22.3589744,14.7282051 C22.9333333,14.6871795 23.5076923,14.7282051 24.1230769,14.7282051 C23.7948718,10.7076923 22.0307692,7.58974359 18.5846154,5.62051282 C14.4820513,3.36410256 10.4205128,3.56923077 6.56410256,6.23589744 C3.65128205,8.24615385 2.17435897,11.1589744 1.92820513,14.7692308 L2.42051282,14.7692308 L19.9794872,14.7692308 L20.3487179,14.7692308 C20.6358974,14.7692308 20.8410256,14.8923077 20.8410256,15.2205128 C20.8410256,15.5076923 20.6358974,15.6717949 20.3487179,15.6717949 L19.9794872,15.6717949 L2.58461538,15.6717949 L2.13333333,15.6717949 L2.13333333,15.6717949 Z M13.0051282,1.35384615 C12.8,1.35384615 12.5538462,1.31282051 12.3487179,1.35384615 C12.2666667,1.35384615 12.1846154,1.51794872 12.1025641,1.6 C12.1846154,1.68205128 12.2666667,1.80512821 12.3487179,1.80512821 C12.8,1.84615385 13.2512821,1.84615385 13.6615385,1.80512821 C13.7435897,1.80512821 13.825641,1.64102564 13.9076923,1.6 C13.825641,1.51794872 13.7435897,1.39487179 13.6205128,1.39487179 C13.4564103,1.35384615 13.2102564,1.35384615 13.0051282,1.35384615 L13.0051282,1.35384615 Z" id="Shape"></path>
                        <path d="M15.6717949,17.6410256 L3.07692308,17.6410256 C2.91282051,17.6410256 2.74871795,17.6410256 2.54358974,17.6 C1.76410256,17.3948718 1.31282051,16.9025641 1.10769231,16.0820513 C1.06666667,15.8358974 0.984615385,15.7538462 0.738461538,15.7948718 C0.41025641,15.8358974 0.164102564,15.7128205 0,15.425641 L0,15.3846154 L0,15.0153846 C0.164102564,14.6461538 0.533333333,14.6461538 0.779487179,14.6051282 L0.902564103,14.6051282 C1.10769231,11.4461538 2.2974359,8.77948718 4.47179487,6.64615385 C6.60512821,4.47179487 9.27179487,3.28205128 12.4307692,3.07692308 L12.4307692,2.87179487 L12.2666667,2.87179487 C11.8974359,2.83076923 11.5692308,2.66666667 11.3230769,2.42051282 C11.1179487,2.13333333 10.9948718,1.80512821 11.0358974,1.43589744 C11.1179487,0.738461538 11.6512821,0.451282051 12.0615385,0.328205128 L12.1025641,0.328205128 L13.9487179,0.328205128 L14.0307692,0.369230769 L14.0717949,0.41025641 C14.6871795,0.656410256 15.0564103,1.23076923 14.9333333,1.80512821 C14.8102564,2.46153846 14.3589744,2.83076923 13.6615385,2.91282051 L13.5794872,2.91282051 L13.5794872,3.11794872 L13.7025641,3.11794872 C13.9897436,3.15897436 14.3179487,3.2 14.6051282,3.28205128 C15.2615385,3.36410256 15.9179487,3.48717949 16.574359,3.69230769 C21.374359,5.12820513 24.7794872,9.47692308 25.0666667,14.4410256 C25.0666667,14.6461538 25.1076923,14.6871795 25.3538462,14.6871795 C25.5589744,14.6871795 25.7230769,14.7282051 25.8461538,14.8512821 C25.9692308,14.9333333 26.0102564,15.0974359 26.0102564,15.2615385 C26.0102564,15.425641 25.9692308,15.5897436 25.8461538,15.7128205 C25.7641026,15.7948718 25.6,15.8769231 25.3538462,15.8358974 C25.025641,15.7948718 24.9435897,15.8769231 24.8615385,16.2461538 C24.6564103,17.1487179 23.9589744,17.6410256 22.974359,17.6410256 L15.6717949,17.6410256 L15.6717949,17.6410256 Z M0.861538462,15.5076923 C1.14871795,15.5076923 1.31282051,15.6717949 1.39487179,16 C1.55897436,16.6974359 1.96923077,17.1487179 2.62564103,17.3128205 C2.78974359,17.3538462 2.95384615,17.3538462 3.07692308,17.3538462 L22.974359,17.3538462 C23.8358974,17.3538462 24.4102564,16.9025641 24.6153846,16.0820513 C24.6974359,15.7538462 24.8615385,15.425641 25.3948718,15.4666667 C25.5179487,15.4666667 25.6410256,15.4666667 25.6820513,15.3846154 C25.7641026,15.3025641 25.7641026,15.2205128 25.7641026,15.1384615 C25.7641026,15.0564103 25.7230769,14.974359 25.6820513,14.9333333 C25.6,14.8512821 25.5179487,14.8512821 25.3538462,14.8512821 C25.1076923,14.8512821 24.8205128,14.8102564 24.7794872,14.3589744 C24.574359,9.55897436 21.2512821,5.33333333 16.574359,3.8974359 C15.9589744,3.69230769 15.3025641,3.61025641 14.6461538,3.52820513 C14.3589744,3.48717949 14.0307692,3.44615385 13.7435897,3.36410256 L13.6205128,3.36410256 L13.4153846,3.32307692 L13.4153846,2.62564103 L13.5794872,2.58461538 L13.7025641,2.58461538 C14.2769231,2.54358974 14.6461538,2.21538462 14.7282051,1.72307692 C14.8102564,1.27179487 14.5230769,0.820512821 14.0307692,0.615384615 C13.9897436,0.615384615 13.9487179,0.574358974 13.9076923,0.574358974 L13.9076923,0.574358974 L12.1846154,0.574358974 C11.6512821,0.779487179 11.4051282,1.02564103 11.3641026,1.47692308 C11.3230769,1.76410256 11.4051282,2.05128205 11.5692308,2.25641026 C11.7333333,2.46153846 11.9794872,2.58461538 12.3076923,2.62564103 L12.6769231,2.66666667 L12.6769231,3.36410256 L12.5538462,3.36410256 C9.43589744,3.52820513 6.76923077,4.71794872 4.63589744,6.85128205 C2.5025641,8.98461538 1.31282051,11.6512821 1.14871795,14.7692308 L1.14871795,14.8923077 L1.02564103,14.8923077 L0.738461538,14.8923077 C0.451282051,14.8923077 0.287179487,14.9333333 0.205128205,15.0974359 L0.205128205,15.3025641 C0.328205128,15.4666667 0.492307692,15.5487179 0.697435897,15.5076923 L0.861538462,15.5076923 L0.861538462,15.5076923 Z M5.66153846,16.7384615 L3.11794872,16.7384615 C2.46153846,16.7384615 2.13333333,16.4102564 2.05128205,15.7128205 L2.05128205,15.5487179 L20.1435897,15.5487179 L20.4307692,15.5487179 C20.8,15.5487179 20.8,15.3025641 20.8,15.2205128 C20.8,15.0974359 20.7589744,14.8923077 20.4307692,14.8923077 L20.1435897,14.8923077 L1.88717949,14.8923077 L1.88717949,14.7692308 C2.13333333,11.0358974 3.73333333,8.16410256 6.56410256,6.15384615 C10.4205128,3.44615385 14.6051282,3.24102564 18.6666667,5.53846154 C22.0717949,7.46666667 23.9589744,10.5435897 24.2871795,14.7692308 L24.2871795,14.8923077 L24.1641026,14.8923077 L23.6307692,14.8923077 L22.4,14.8923077 C22.2769231,14.8923077 22.0717949,15.0153846 21.9897436,15.1384615 C21.9487179,15.2205128 21.9487179,15.3025641 21.9897436,15.3435897 C22.0307692,15.4666667 22.1948718,15.5076923 22.3589744,15.5076923 L23.4666667,15.5076923 L24.0820513,15.5076923 L24.0820513,15.6307692 C24.0820513,16.3282051 23.7128205,16.6974359 23.0153846,16.6974359 L7.34358974,16.6974359 C6.72820513,16.7384615 6.19487179,16.7384615 5.66153846,16.7384615 L5.66153846,16.7384615 Z M2.2974359,15.7948718 C2.37948718,16.2871795 2.58461538,16.4512821 3.07692308,16.4512821 L7.26153846,16.4512821 L22.9333333,16.4512821 C23.4666667,16.4512821 23.7128205,16.2461538 23.7538462,15.7948718 L23.425641,15.7948718 L22.3179487,15.7948718 C22.0717949,15.7948718 21.8666667,15.6717949 21.7435897,15.4666667 C21.6615385,15.3025641 21.6615385,15.1384615 21.7435897,15.0153846 C21.8666667,14.8102564 22.1128205,14.6461538 22.3589744,14.6461538 C22.7692308,14.6051282 23.1794872,14.6051282 23.6307692,14.6461538 L24,14.6461538 C23.5897436,10.5846154 21.7435897,7.63076923 18.5025641,5.74358974 C14.4410256,3.48717949 10.4615385,3.69230769 6.64615385,6.35897436 C3.8974359,8.28717949 2.37948718,11.0769231 2.09230769,14.6461538 L20.0615385,14.6461538 L20.3487179,14.6461538 C20.7179487,14.6461538 20.9641026,14.8512821 20.9641026,15.2205128 C20.9641026,15.5897436 20.7589744,15.7948718 20.3487179,15.8358974 L20.0615385,15.8358974 L19.9794872,15.8358974 L2.2974359,15.8358974 L2.2974359,15.7948718 Z M13.0461538,1.96923077 L12.3487179,1.96923077 C12.225641,1.96923077 12.1435897,1.88717949 12.1025641,1.80512821 C12.0615385,1.76410256 12.0615385,1.76410256 12.0205128,1.72307692 L11.8974359,1.6 L12.0205128,1.51794872 C12.0615385,1.47692308 12.0615385,1.47692308 12.1025641,1.43589744 C12.1846154,1.35384615 12.2666667,1.27179487 12.3487179,1.23076923 C12.5128205,1.23076923 12.6769231,1.23076923 12.8410256,1.23076923 L13.2102564,1.23076923 L13.7025641,1.23076923 C13.825641,1.23076923 13.9076923,1.31282051 13.9487179,1.39487179 L14.0307692,1.47692308 L14.1538462,1.55897436 L14.0307692,1.68205128 C13.9897436,1.72307692 13.9897436,1.72307692 13.9487179,1.76410256 C13.8666667,1.84615385 13.7846154,1.92820513 13.6615385,1.92820513 C13.4564103,1.96923077 13.2512821,1.96923077 13.0461538,1.96923077 L13.0461538,1.96923077 Z M12.3076923,1.6 C12.3076923,1.64102564 12.3487179,1.68205128 12.3897436,1.68205128 L13.7025641,1.68205128 C13.7025641,1.68205128 13.7435897,1.64102564 13.7846154,1.6 C13.7435897,1.55897436 13.7025641,1.51794872 13.6615385,1.51794872 C13.5384615,1.47692308 13.374359,1.51794872 13.2102564,1.51794872 L13.0051282,1.51794872 L13.0051282,1.51794872 L12.8,1.51794872 L12.3897436,1.51794872 C12.3897436,1.51794872 12.3076923,1.55897436 12.3076923,1.6 L12.3076923,1.6 Z" id="Shape"></path>
                    </g>
                    <path d="M27.2410256,21.3333333 L5.04615385,21.3333333 C3.93846154,21.3333333 2.87179487,20.8820513 2.13333333,20.0615385 L0.656410256,18.4615385 C0.369230769,18.0923077 0.287179487,17.6410256 0.451282051,17.2307692 C0.656410256,16.8205128 1.06666667,16.5333333 1.55897436,16.5333333 L30.6051282,16.5333333 C31.0564103,16.5333333 31.5076923,16.7794872 31.6717949,17.2307692 C31.8358974,17.6410256 31.7948718,18.0923077 31.5076923,18.4205128 L30.1948718,19.9794872 C29.4974359,20.8410256 28.3897436,21.3333333 27.2410256,21.3333333 L27.2410256,21.3333333 Z M1.92820513,17.8461538 L3.11794872,19.1589744 C3.61025641,19.6923077 4.30769231,19.9794872 5.04615385,19.9794872 L27.2410256,19.9794872 C28.0205128,19.9794872 28.7589744,19.6512821 29.2102564,19.1179487 L30.2769231,17.8871795 L1.92820513,17.8871795 L1.92820513,17.8461538 Z" id="Shape"></path>
                    <path d="M22.974359,9.64102564 C22.8102564,9.64102564 22.6461538,9.55897436 22.5641026,9.43589744 C21.6615385,8.16410256 20.7589744,7.87692308 20.7179487,7.87692308 C20.4307692,7.79487179 20.2666667,7.50769231 20.3487179,7.22051282 C20.4307692,6.93333333 20.7179487,6.76923077 21.0051282,6.85128205 C21.0461538,6.85128205 22.2769231,7.22051282 23.425641,8.82051282 C23.5897436,9.06666667 23.5487179,9.39487179 23.3025641,9.55897436 C23.1794872,9.6 23.0974359,9.64102564 22.974359,9.64102564 L22.974359,9.64102564 Z" id="Shape"></path>
                </g>
            </g>
        </g>
    </g>
</svg>