<svg xmlns="http://www.w3.org/2000/svg" viewBox="0 0 512 512"><path d="M448 284c-5-5-13-5-18 0l-46 45-19-24c-4-5-12-6-18-2-5 5-6 13-2 19l37 46 66-66c5-5 5-14 0-18zm-51-75c-64 0-115 51-115 115 0 63 51 115 115 115s115-52 115-115c0-64-51-115-115-115zm0 199c-46 0-84-38-84-84 0-47 38-85 84-85s84 38 84 85c0 46-38 84-84 84zm-134-144v-32c11-8 27-28 29-63 3-2 6-5 8-10 3-6 5-13 5-21 0-12-4-22-9-29 5-13 12-35 7-58-8-31-50-42-83-42-29 0-63 8-78 29-13 0-21 6-26 10-15 17-8 45-3 62-2 2-4 4-5 7-3 6-5 13-5 21 0 14 5 25 13 32 3 37 23 60 34 70v23c-12 5-25 9-38 13-51 17-92 30-101 57-10 32-11 88-11 90 0 4 2 8 5 11 2 3 6 5 10 5h282v-31h-266c1-20 4-49 9-66 4-12 51-27 82-37l48-17c6-3 10-8 10-15v-41c0-5-2-10-6-13 0 0-28-19-28-60 0-7-5-13-11-15-1-3-1-9 0-12 2-1 5-2 7-4 2-3 4-6 4-11 0-3-1-6-2-12-8-27-6-34-5-35 0-1 3-2 10 0 8 1 16-4 18-12s23-18 53-18 51 10 53 18c4 16-4 35-7 45-3 5-4 9-4 13 0 7 5 13 12 15 1 3 1 10 0 13-7 2-12 8-12 15 0 39-20 51-21 51-5 3-8 8-8 14v49c0 7 4 12 10 15 2 0 4 1 6 2 7 2 14-2 14-9z"/></svg>