<?xml version="1.0" encoding="UTF-8" standalone="no"?>
<svg width="32px" height="32px" viewBox="0 0 32 32" version="1.1" xmlns="http://www.w3.org/2000/svg" xmlns:xlink="http://www.w3.org/1999/xlink">
    <!-- Generator: Sketch 3.7.2 (28276) - http://www.bohemiancoding.com/sketch -->
    <title>follow-new-ui</title>
    <desc>Created with Sketch.</desc>
    <defs>
        <polygon id="path-1" points="10.2372473 2.61798996 10.2372473 0.733316129 0.244620126 0.733316129 0.244620126 2.61798996 10.2372473 2.61798996"></polygon>
    </defs>
    <g id="Page-1" stroke="none" stroke-width="1" fill="none" fill-rule="evenodd">
        <g id="577-585" transform="translate(-312.000000, -104.000000)">
            <g id="follow-new-ui" transform="translate(312.000000, 104.000000)">
                <path d="M21.8585462,31.6916989 L21.8585462,31.6916989 L3.59170753,31.6770179 C2.5658724,31.6770179 1.58408029,31.2108961 0.90141362,30.3997706 C0.169198566,29.5317563 -0.137267384,28.3811326 0.057255914,27.2470251 C1.38038136,19.5762007 7.31334194,14.0965161 14.0739441,14.3277419 C19.9848832,14.4873978 21.9136,16.9244444 23.4624459,18.8843584 L23.6991771,19.1816487 C24.1744746,19.7743943 24.0772129,20.6424086 23.4844674,21.115871 C22.8917219,21.5930036 22.0255427,21.4957419 21.5502452,20.9011613 L21.3043384,20.5910251 C19.9261591,18.849491 18.6250552,17.2033835 13.9987039,17.078595 C8.70620215,16.9427957 3.84128459,21.5085878 2.77140645,27.7149821 C2.71268244,28.0471398 2.79893333,28.3811326 3.00630251,28.6270394 C3.09989391,28.7389821 3.29992258,28.9243297 3.59170753,28.9243297 L21.8585462,28.9390108 C22.6201233,28.9390108 23.2348903,29.5556129 23.2348903,30.3153548 C23.2348903,31.0769319 22.6182882,31.6916989 21.8585462,31.6916989" id="Fill-1" fill="#000000"></path>
                <path d="M13.8979556,2.75268817 C11.8260989,2.75268817 10.1396186,4.43916846 10.1396186,6.51102509 C10.1396186,8.58471685 11.8260989,10.269362 13.8979556,10.269362 C15.9698122,10.269362 17.6562925,8.58471685 17.6562925,6.51102509 C17.6562925,4.43916846 15.9698122,2.75268817 13.8979556,2.75268817 M13.8979556,13.0220502 C10.3066151,13.0220502 7.38693047,10.1005305 7.38693047,6.51102509 C7.38693047,2.92151971 10.3066151,0 13.8979556,0 C17.4874609,0 20.4089806,2.92151971 20.4089806,6.51102509 C20.4089806,10.1005305 17.4874609,13.0220502 13.8979556,13.0220502" id="Fill-3" fill="#000000"></path>
                <path d="M26.5592201,30.529514 C25.7994781,30.529514 25.6416573,29.914747 25.6416573,29.1531699 L25.6416573,20.9886968 C25.6416573,20.2289548 25.797643,19.6123527 26.5592201,19.6123527 C27.318962,19.6123527 27.4767828,20.2271197 27.4767828,20.9886968 L27.4767828,29.1531699 C27.4767828,29.9129118 27.3207971,30.529514 26.5592201,30.529514" id="Fill-5" fill="#000000"></path>
                <g id="Group-9" transform="translate(21.218638, 23.548330)">
                    <mask id="mask-2" fill="white">
                        <use xlink:href="#path-1"></use>
                    </mask>
                    <g id="Clip-8"></g>
                    <path d="M1.58940215,2.59046308 C0.888384229,2.59046308 0.297473835,2.41979642 0.247925448,1.66372473 C0.196541935,0.905817921 0.750749821,0.781029391 1.45727312,0.733316129 L8.88219068,0.755337634 L8.89136631,0.755337634 C9.59238423,0.755337634 10.1832946,0.937015054 10.2346781,1.69308674 C10.2842265,2.45099355 9.73001864,2.5702767 9.02349534,2.61798996 L1.59857778,2.59046308 L1.58940215,2.59046308 Z" id="Fill-7" fill="#000000" mask="url(#mask-2)"></path>
                </g>
            </g>
        </g>
    </g>
</svg>