<?xml version="1.0" encoding="UTF-8" standalone="no"?>
<svg width="30px" height="32px" viewBox="0 0 30 32" version="1.1" xmlns="http://www.w3.org/2000/svg" xmlns:xlink="http://www.w3.org/1999/xlink">
    <!-- Generator: Sketch 3.7.2 (28276) - http://www.bohemiancoding.com/sketch -->
    <title>following-new-ui</title>
    <desc>Created with Sketch.</desc>
    <defs>
        <polygon id="path-1" points="13.1047969 0.55193985 0.274116564 0.55193985 0.274116564 13.3824394 13.1047969 13.3824394 13.1047969 0.55193985"></polygon>
    </defs>
    <g id="Page-1" stroke="none" stroke-width="1" fill="none" fill-rule="evenodd">
        <g id="577-585" transform="translate(-364.000000, -104.000000)">
            <g id="following-new-ui" transform="translate(364.000000, 104.000000)">
                <path d="M21.5373167,31.6560332 L21.5373167,31.6560332 L3.5389244,31.6415679 C2.52816478,31.6415679 1.56080091,31.1822961 0.888166598,30.3830908 C0.166712053,29.5278327 -0.135250125,28.3941184 0.0564144908,27.2766775 C1.36009551,19.7185823 7.2058663,14.3194262 13.8671158,14.547254 C19.6911887,14.7045636 21.5915614,17.1057958 23.1176458,19.0369072 L23.350898,19.3298286 C23.8192106,19.9138632 23.7233783,20.7691213 23.1393436,21.2356258 C22.555309,21.7057465 21.701859,21.6099142 21.2335464,21.0240715 L20.9912534,20.718493 C19.6333277,19.0025522 18.3513445,17.3806356 13.7929814,17.2576809 C8.57825728,17.1238773 3.78483372,21.6225713 2.73067833,27.7377575 C2.67281732,28.0650339 2.75780068,28.3941184 2.9621224,28.6364114 C3.05433839,28.746709 3.25142748,28.9293328 3.5389244,28.9293328 L21.5373167,28.943798 C22.2877018,28.943798 22.8934343,29.5513387 22.8934343,30.2999156 C22.8934343,31.0503007 22.2858936,31.6560332 21.5373167,31.6560332" id="Fill-1" fill="#000000"></path>
                <g id="Group-5" transform="translate(7.232627, 0.182805)">
                    <mask id="mask-2" fill="white">
                        <use xlink:href="#path-1"></use>
                    </mask>
                    <g id="Clip-4"></g>
                    <path d="M6.68945673,3.26399417 C4.64804776,3.26399417 2.9863517,4.92569023 2.9863517,6.9670992 C2.9863517,9.01031634 4.64804776,10.6702042 6.68945673,10.6702042 C8.73086571,10.6702042 10.3925618,9.01031634 10.3925618,6.9670992 C10.3925618,4.92569023 8.73086571,3.26399417 6.68945673,3.26399417 M6.68945673,13.3824394 C3.15089396,13.3824394 0.274116564,10.5038538 0.274116564,6.9670992 C0.274116564,3.43034459 3.15089396,0.551759034 6.68945673,0.551759034 C10.2262113,0.551759034 13.1047969,3.43034459 13.1047969,6.9670992 C13.1047969,10.5038538 10.2262113,13.3824394 6.68945673,13.3824394" id="Fill-3" fill="#000000" mask="url(#mask-2)"></path>
                </g>
                <path d="M22.1777659,27.2797514 C21.9390892,27.2797514 21.7076451,27.1766864 21.5376784,27.0067197 L18.2486412,23.7122581 C17.8942425,23.3596675 17.8942425,22.7864818 18.2486412,22.4320831 C18.6012318,22.0794925 19.1726093,22.0794925 19.5270081,22.4320831 L22.1614925,25.0665675 L27.7306153,19.2189886 C28.0777814,18.8573572 28.6491589,18.8465083 29.0089821,19.1864417 C29.3706134,19.5317997 29.3850787,20.1049854 29.0397208,20.4648086 L22.8323186,26.9922545 C22.66416,27.1676457 22.432716,27.2797514 22.1886148,27.2797514 L22.1777659,27.2797514 Z" id="Fill-6" fill="#000000"></path>
            </g>
        </g>
    </g>
</svg>