<svg xmlns="http://www.w3.org/2000/svg" viewBox="0 0 512 512"><path d="M397 209c-64 0-115 51-115 114 0 64 51 115 115 115 63 0 115-51 115-115-1-63-52-114-115-114zm0 199c-46 0-84-38-84-85 0-46 38-84 84-84s84 38 84 84c0 47-38 85-84 85zm52-100h-37v-37c0-8-7-15-15-15-9 0-16 7-16 15v37h-36c-9 0-16 7-16 16 0 8 7 15 16 15h36v37c0 8 7 15 16 15 8 0 15-7 15-15v-37h37c8 0 16-7 16-16 0-8-7-15-16-15zm-186-45v-31c10-8 26-27 29-62 3-3 5-6 8-10 3-7 4-14 4-22 0-12-3-22-9-28 5-13 12-36 7-58-8-31-49-42-83-42-28 0-62 8-77 29-13 0-21 5-26 10-15 16-8 44-4 61-1 2-3 4-5 7-3 6-4 14-4 22 0 13 4 25 12 31 3 37 23 60 34 70v23l-37 13c-51 17-92 30-101 56-10 32-11 88-11 91 0 4 2 8 5 11 2 2 6 4 11 4h280v-30l-265-1c1-19 4-48 10-65 3-12 50-27 81-38 16-5 32-10 48-16 6-3 10-8 10-15v-41c0-5-2-10-6-13-1 0-28-19-28-60 0-7-5-13-11-14-1-3-1-9 0-12 2-1 5-3 6-5 3-2 5-6 5-10s-1-7-2-12c-8-28-6-35-5-36 1 0 4-1 10 0 8 2 16-3 18-11 2-9 23-18 53-18s50 9 53 18c4 16-4 34-7 44-3 6-4 9-4 13 0 8 5 13 11 15 1 4 1 11 0 14-7 1-11 7-11 15 0 38-20 50-21 50-5 3-8 8-8 14v49c0 7 3 12 10 15 1 0 3 1 6 2 6 2 14-2 14-9z"/></svg>