<svg xmlns="http://www.w3.org/2000/svg" viewBox="0 0 512 512"><path d="M220 205v195c0 8 7 15 15 15s15-7 15-15v-195c27-7 47-31 47-59v-81c0-9-7-15-15-15-9 0-16 7-16 15v81c0 11-6 21-15 26v-107c0-9-7-15-15-15-9 0-16 7-16 15v107c-9-5-15-15-15-26v-81c0-9-7-15-15-15-9 0-16 7-16 15v81c0 28 20 52 46 59zm139 0v195c0 8 6 15 15 15 8 0 15-7 15-15v-195c26-7 46-31 46-59v-35c0-34-28-61-61-61-34 0-62 27-62 61v35c0 28 20 52 47 59zm-16-94c0-17 14-31 31-31s31 14 31 31v35c0 17-14 31-31 31s-31-14-31-31zm153-140h-481c-8 0-15 6-15 15 0 8 7 15 15 15h83v412c0 35 28 64 64 64h285c35 0 64-29 64-64v-427c1-9-6-15-15-15zm-15 442c0 19-15 34-34 34h-285c-19 0-34-15-34-34v-412h353v412z"/></svg>