<svg xmlns="http://www.w3.org/2000/svg" viewBox="0 0 512 512"><path d="M493 71h-85c12-17 14-38 8-58-10-27-35-45-64-45-23 0-43 11-55 31l-41 61-40-61c-13-20-33-31-56-31-29 0-54 18-63 45-7 20-4 41 7 58h-85c-8 0-15 7-15 15v106c0 8 7 15 15 15h36v257c0 9 7 16 15 16h372c8 0 15-7 15-16v-257h36c9 0 15-7 15-15v-106c0-8-6-15-15-15zm-171-56c7-10 18-16 30-16s28 6 34 24c4 12 2 23-5 33s-17 15-29 15h-67zm-191 41c-7-10-9-21-5-33 6-18 22-24 34-24s23 6 30 16l36 56h-66c-12 0-23-5-29-15zm-96 46h206v74h-206zm51 105h155v242h-155zm341 242h-156v-242h156zm51-273h-207v-74h206v74z"/></svg>