<svg xmlns="http://www.w3.org/2000/svg" viewBox="0 0 512 512"><path d="M58 183h181v115h-181zm215 0h181v115h-181zm-34 280h-132c-27 0-49-22-49-49v-83h181zm166 0h-132v-132h181v83c0 27-22 49-49 49zm66-313h-430v-17c0-27 22-49 50-49h330c28 0 50 22 50 49zm-214-42c-5 0-11-1-17-3-15-5-30-15-44-28-13-13-23-29-28-43-5-16-3-30 5-39 9-8 22-10 39-4 14 4 29 14 43 28 13 13 23 28 28 43 5 16 4 30-5 38-5 6-12 8-21 8zm-63-104c-4 0-7 1-9 3-4 4-4 12-1 22 4 12 13 25 24 36 12 12 25 21 37 25 10 3 18 3 22-1 3-4 4-12 0-22-4-12-12-25-24-37-11-11-24-20-36-24-5-1-9-2-13-2zm77 104c-8 0-16-2-21-8-9-8-10-22-5-38 5-15 15-30 28-43 30-30 65-40 82-24 17 17 7 52-23 82-21 20-43 31-61 31zm14-78c-12 12-20 25-24 37-3 10-3 18 1 22 3 4 12 4 21 1 12-4 25-13 37-25 23-23 32-50 23-58-8-8-35 0-58 23z"/></svg>