<svg xmlns="http://www.w3.org/2000/svg" viewBox="0 0 512 512"><path d="M447 54c-1-2-2-3-4-4-30-33-69-58-113-71h-1c-23-7-48-11-73-11-141 0-256 115-256 256s115 256 256 256 256-115 256-256c0-65-25-125-65-170zm-30 13c-4 13-15 43-38 57-36-6-73 12-83 24-7 9-4 17-3 19 2 4 6 7 10 9 3 5 8 19 12 31 0 3 2 5 4 7 9 9 21 10 31 8-4 11-20 28-27 36-12 13-19 20-19 29 0 11 7 18 12 22h1c-12 12-24 16-24 16-6 2-10 8-10 14 0 9 0 36-44 37-7-7-19-30-20-37l4-9c3-6 7-13 7-22 0-13-12-28-21-38-1-13-5-23-13-31-13-12-32-11-50-10h-15c-16 0-16-25-16-26s0-61 40-69c23-4 32-2 34-1 1 3 2 5 4 8 21 20 52 13 75 8 7-2 15-4 20-4 8 0 14-5 15-13 6-42 3-68-10-77-6-5-14-5-22-1-7 3-12 3-15 1-4-2-5-7-5-10-1-8 34-26 75-35 34 11 66 31 91 57zm-161 382c-124 0-225-101-225-225s101-225 225-225h5c-24 11-43 27-41 49 1 15 8 28 20 34 10 6 22 6 34 3 1 7 1 19-1 31-4 1-8 2-13 3-15 4-33 8-43 2-2-3-4-7-8-11-12-9-32-11-61-6-64 13-64 95-64 99 0 20 9 57 46 57h17c11-1 24-2 28 2 2 2 3 7 3 14 0 4 1 8 5 11 7 8 15 18 16 20 0 2-2 6-4 9-3 6-7 14-7 23 0 12 22 67 47 67 45 0 73-21 78-57 7-4 17-10 27-20 7-7 10-14 10-21-1-11-7-17-13-22 3-2 5-5 7-7 20-20 56-58 27-87-4-5-11-6-17-3-4 2-9 3-12 3-4-14-8-24-12-31 12-5 30-11 48-6 3 1 7 0 10-1 27-14 43-40 52-60 26 37 41 82 41 130 0 124-101 225-225 225z"/></svg>