<svg xmlns="http://www.w3.org/2000/svg" viewBox="0 0 512 512"><path d="M256-32c-141 0-256 115-256 256s115 256 256 256 256-115 256-256-115-256-256-256zm-225 256c0-124 101-225 225-225 57 0 109 21 149 56l-72 72-58 51c2-3 4-6 7-9 14-11 22-29 22-47v-27c0-15-6-30-17-42-7-8-12-18-16-30-2-6-8-10-14-11-7 0-13 4-15 10-4 13-10 23-17 31-11 12-16 26-16 41v28c0 18 8 36 22 47 3 3 5 6 7 10l-62-55c-5-4-12-5-17-2-6 2-9 8-9 14l3 47c1 30 14 57 35 77l6 6-6 6-16-14c-5-5-12-6-17-3-6 3-9 9-9 15l2 42-61 61c-35-40-56-92-56-149zm179 14c-16-15-26-35-27-57v-10l38 34c6 6 10 14 11 23l-16 16zm63-116c0 9-4 18-11 24l-6 6-6-6c-7-6-11-14-11-24v-28c0-7 3-15 8-20 3-4 6-7 8-11 3 4 6 8 9 11 6 6 9 14 9 21v27zm-33 193c0 1 1 1 1 1v2l-30-26 4-3zm-17 29c7 6 12 16 13 26l2 45-29-28c-18-17-28-39-29-63l9-10zm-70 7c6 22 18 42 35 58l39 38c-45-5-85-24-118-52zm127-123v-5l49-49v7c-2 22-11 42-28 57l-23 25zm4 219l39-38c24-21 38-51 40-83l3-56c0-6-3-12-9-15s-12-2-17 3l-69 60v-3l51-55c22-20 36-47 37-77l2-41 65-65c35 39 55 91 55 147 0 115-86 209-197 223zm-10-32l2-45c0-10 5-20 13-26l44-39-1 19c-1 24-12 47-30 63z"/></svg>