<svg xmlns="http://www.w3.org/2000/svg" viewBox="0 0 512 512"><path d="M223-32c-9 0-16 7-16 15v117c0 22-15 42-35 48v-165c0-8-7-15-15-15-9 0-16 7-16 15v165c-21-7-36-26-36-48v-117c0-8-7-15-15-15s-15 7-15 15v117c0 40 28 73 66 80v285c0 8 7 15 15 15 9 0 16-7 16-15v-285c37-7 66-41 66-80v-117c0-8-7-15-15-15zm132 0c-45 0-81 37-81 82v49c0 40 28 73 66 80v286c0 8 7 15 15 15 9 0 16-7 16-15v-285c37-7 66-41 66-80v-50c0-45-36-82-82-82zm52 132c0 28-23 51-51 51s-51-23-51-51v-50c0-28 23-51 51-51s51 23 51 51z"/></svg>