<svg xmlns="http://www.w3.org/2000/svg" viewBox="0 0 512 512"><path d="M256 456c-3 0-7-1-9-3-10-7-245-179-245-314 0-92 68-147 134-147 42 0 91 23 120 84 29-61 79-84 120-84 66 0 134 55 134 147 0 135-234 307-244 314-3 2-7 3-10 3zm-120-432c-50 0-101 43-101 115 0 105 178 247 221 281 44-33 222-176 222-281 0-72-52-115-102-115-49 0-88 39-104 104-2 7-8 13-15 13-8 0-15-6-16-13-16-65-55-104-105-104zm-56 150c-9 0-16-8-16-17 0-57 24-80 45-88 32-13 71 1 80 10 6 6 6 16 0 23-6 6-15 6-22 1-5-3-30-13-48-3-15 8-22 27-22 58-1 8-8 16-17 16z"/></svg>