<svg xmlns="http://www.w3.org/2000/svg" viewBox="0 0 512 512"><path d="M238 2l-177-32c-6-1-12 2-14 8l-44 125c-1 1-1 2-1 2-12 64 26 124 87 141l-24 132-35-7c-7-1-14 4-15 10-1 7 3 14 10 15l95 18h3c6 0 11-5 12-11 1-7-3-13-10-14l-35-7 24-132 11 1c60 0 109-42 120-102v-2l4-133c-1-5-5-11-11-12zm-171-5l156 28-2 38h-177zm58 228c-6 0-13 0-19-2-55-9-88-58-79-112l8-23h186l-2 58c-8 47-47 79-94 79zm357 211l-35 6-24-131c61-18 98-77 87-141l-1-2-44-125c-2-6-8-10-14-9l-177 33c-6 1-11 6-10 13l3 133v2c11 59 60 101 120 101 4 0 7 0 11-1l24 132-35 7c-7 1-11 8-10 15 1 6 7 10 13 10h2l95-18c7-1 12-7 10-14-1-8-8-12-15-11zm-37-375l23 66h-178l-1-37zm-153 150l-1-58h185l8 23c10 54-24 103-78 112-7 2-13 2-19 2-47 0-86-32-95-79z"/></svg>