<svg xmlns="http://www.w3.org/2000/svg" viewBox="0 0 512 512"><path d="M454 306c-14-14-31-24-49-32l-18-180h46c7 0 13-4 16-10l7-15c3-5-1-10-6-10h-67c40-10 68-39 68-73 0-10-7-18-17-18h-166c-9 0-17 8-17 18 0 34 29 63 68 73h-69c-5 0-8 6-6 10l8 15c2 6 8 10 15 10h46l-10 96c-28-27-73-36-118-6-15 10-25 26-28 44-4 24-22 44-46 47-33 4-61-22-61-54 0-10-8-17-18-17-9 0-17 7-17 17 0 49 40 89 89 89 41 0 76-27 86-66l1-3c6-24 27-41 52-41 30 0 54 25 54 54 0 1 0 2 1 3l-2 17c-19 8-36 18-50 33-39 38-53 95-37 147 3 10 8 26 122 26h23c130-2 135-20 138-30 14-51 0-106-38-144zm-162-303h118c-10 15-33 25-59 25s-49-10-59-25zm168 432c-31 11-186 14-219 4-9-39 2-80 30-108 12-12 26-21 42-26 12-4 19-16 17-29l18-182h4l18 182c-2 13 6 24 17 28 16 6 31 15 43 27 27 27 38 67 30 104z"/></svg>