<?xml version="1.0" encoding="UTF-8" standalone="no"?>
<svg width="28px" height="32px" viewBox="0 0 28 32" version="1.1" xmlns="http://www.w3.org/2000/svg" xmlns:xlink="http://www.w3.org/1999/xlink">
    <!-- Generator: Sketch 3.7.1 (28215) - http://www.bohemiancoding.com/sketch -->
    <title>ic-content-copy-24px</title>
    <desc>Created with Sketch.</desc>
    <defs></defs>
    <g id="Page-1" stroke="none" stroke-width="1" fill="none" fill-rule="evenodd">
        <g id="577-585" transform="translate(-468.000000, -104.000000)" fill="#000000">
            <g id="ic-content-copy-24px" transform="translate(468.250000, 104.000000)">
                <path d="M5.70667318,8.77125994 C5.70667318,7.28491632 6.91477,6.07999674 8.40855459,6.07999674 L24.3381251,6.07999674 C25.830333,6.07999674 27.0400065,7.28040148 27.0400065,8.77125994 L27.0400065,28.9887335 C27.0400065,30.4750772 25.8319097,31.6799967 24.3381251,31.6799967 L8.40855459,31.6799967 C6.91634669,31.6799967 5.70667318,30.479592 5.70667318,28.9887335 L5.70667318,8.77125994 Z M8.55465495,8.8639974 L24.1599884,8.8639974 L24.1599884,21.4336614 L24.1599884,28.8106649 L8.55465495,28.8106649 L8.55465495,8.8639974 Z" id="Rectangle-613"></path>
                <path d="M2.70722921,0.319277944 C1.2120678,0.319678523 0,1.5322582 0,3.0119283 L0,23.7866699 L2.82666677,23.7866699 L2.82666677,3.19466642 L19.9199874,3.19466642 L19.9199874,0.314666367 L2.70722921,0.319277944 Z" id="Combined-Shape"></path>
            </g>
        </g>
    </g>
</svg>