<svg xmlns="http://www.w3.org/2000/svg" viewBox="0 0 512 512"><path d="M425 425h-1c-7-10-18-15-33-15-4-29-17-56-36-78 0-3 1-6 1-8 0-11-6-20-14-25 0-3 0-6-2-8l-232-310c-6-8-16-13-26-13-8 0-17 4-23 10s-9 14-9 23v1l30 387c0 3 2 6 4 8 2 1 4 2 6 2 1 0 2 0 2-1l9-2c-1 3-1 5-2 7h-2c-25 0-46 20-46 45 0 4 2 7 5 9 3 1 45 23 187 23 53 0 122-3 207-12 7-1 12-6 12-13-1-12-24-30-37-30zm-110-130c-6 1-11 4-15 8-31 15-69 30-103 42l69-119 51 68s-1 1-2 1zm-232-125l59-111 51 68-100 165zm-10-178c3-2 6-4 9-4s7 1 10 5l37 48-49 92-10-133c0-3 1-6 3-8zm22 334l111-182 48 65-86 146c-30 9-55 17-69 21zm48 129c-40-4-62-10-71-13 3-11 13-19 25-19 3 0 5 0 8 1s6 0 9-1c2-2 4-4 4-7 1-11 3-20 5-27 46-13 137-42 198-75h1c5 0 14 1 14 10 0 2 0 4-1 6-2 4-2 8 1 11 22 22 34 51 36 81 0 3 2 6 4 7 3 2 6 3 9 2l6-1c12 0 16 4 20 11 2 4 7 6 11 5 1-1 2-1 3-1 2 0 6 3 9 5-149 14-240 11-291 5zm111-40c-10 0-20 5-27 14-1 1-1 4 0 5 0 1 1 1 2 1s2 0 2-1c7-7 15-8 23-8 9 0 17 1 23 8 2 2 3 2 5 0 1-2 1-4-1-5-8-9-17-14-27-14zm-27-15c2 0 3 0 4-2 3-2 3-6 1-8l-7-7 7-7c2-2 2-6 0-8s-6-2-8 0l-7 6-7-7c-2-2-6-2-8 0-3 2-3 6-1 9l7 6-7 7c-2 2-2 6 0 9 1 1 3 1 4 1 2 0 3 0 4-1l7-7 7 7c1 2 3 2 4 2zm73-32c-3-2-6-2-9 0l-7 6-6-7c-3-2-6-2-9 0-2 2-2 6 0 9l7 6-7 7c-3 2-3 6 0 9 1 1 2 1 4 1 1 0 3 0 4-1l7-7 7 7c1 1 2 2 4 2 1 0 3-1 4-2 2-2 2-6 0-9l-6-7 7-6c2-2 2-6 0-8z"/></svg>