<?xml version="1.0" encoding="UTF-8" standalone="no"?>
<svg width="31px" height="25px" viewBox="0 0 31 25" version="1.1" xmlns="http://www.w3.org/2000/svg" xmlns:xlink="http://www.w3.org/1999/xlink">
    <!-- Generator: Sketch 3.7.1 (28215) - http://www.bohemiancoding.com/sketch -->
    <title>icons-credits</title>
    <desc>Created with Sketch.</desc>
    <defs></defs>
    <g id="Page-1" stroke="none" stroke-width="1" fill="none" fill-rule="evenodd">
        <g id="577-585" transform="translate(-521.000000, -104.000000)" fill="#000000">
            <g id="icons-credits" transform="translate(520.000000, 104.000000)">
                <path d="M9.79490909,10.0916364 C9.79490909,8.38690909 10.1352727,6.68218182 10.8174545,5.18254545 C5.49963636,5.31927273 1.20436364,9.68290909 1.20436364,15.0007273 C1.20436364,20.4552727 5.568,24.8189091 11.0225455,24.8189091 C13.8181818,24.8189091 16.3403636,23.6596364 18.1818182,21.7512727 C13.2727273,20.1149091 9.79490909,15.5461818 9.79490909,10.0916364 L9.79490909,10.0916364 Z M31.8865455,10.0916364 C31.8865455,15.5461818 27.4545455,19.9098182 22.0683636,19.9098182 C16.6138182,19.9098182 12.2501818,15.5461818 12.2501818,10.0916364 C12.2501818,4.70545455 16.6138182,0.273454545 22.0683636,0.273454545 C27.4545455,0.273454545 31.8865455,4.70545455 31.8865455,10.0916364 L31.8865455,10.0916364 Z" id="Shape"></path>
            </g>
        </g>
    </g>
</svg>