<svg xmlns="http://www.w3.org/2000/svg" viewBox="0 0 512 512"><path d="M511 193c-6 41-30 64-58 70v217h-382v-215c-32-2-64-25-70-72 0-5-1-10-1-17v-4l102-204h308l102 204v4c0 7-1 12-1 17zm-94 251v-181c-17-3-31-12-42-25-14 17-35 27-60 27h-6l-12-1-6-2c-2-1-5-2-8-3l-6-3c-3-2-6-4-8-6-2 0-3-1-4-2l-9-9v-1c0 1-1 1-1 1l-9 9-3 3-9 5-6 3c-2 1-5 2-8 3l-6 2c-4 1-7 1-11 1l-3 1v-1c-1 0-2 1-4 1-24 0-45-11-60-28-7 10-18 17-29 22v184zm-29-440h-264l-88 176c0 6 1 10 2 14h-1c5 23 19 36 40 36 23 0 42-19 42-42h36c0 23 18 42 41 42 9 0 17-3 24-7 1-1 3-2 4-4 1 0 2-1 2-1 1-1 1-2 2-2 4-6 8-12 9-19l1-9h35l1 9c2 7 5 13 9 19 1 0 1 1 2 2l2 1 4 4c7 4 15 7 24 7 23 0 41-19 41-42h36c0 23 18 42 42 42 21 0 35-13 40-36h-1c1-4 2-8 2-14z"/></svg>