<svg xmlns="http://www.w3.org/2000/svg" viewBox="0 0 512 512"><path d="M408 365c8 0 15-7 15-15v-104c0-8-7-15-15-15h-119c-8 0-15 7-15 15v104c0 8 7 15 15 15zm-103-103h87v73h-87zm207-150l-1-3c0-1 0-2-1-3v-1l-45-74c-2-5-7-7-13-7h-340c-6 0-11 2-13 7l-45 74v1c-1 1-1 2-1 3-1 1-1 2-1 3v12c0 23 12 45 30 59v63c0 9 7 16 15 16s15-7 15-16v-49c5 1 10 2 15 2 12 0 28-3 41-10 15 17 37 25 64 25 22 0 42-6 57-17 14 11 31 17 52 17 28 0 44-9 56-25 17 8 39 10 48 10l7-1v196h-206v-148c0-8-7-15-16-15h-89c-8 0-15 7-15 15 0 9 7 16 15 16h74v132h-118c-9 0-16 7-16 15 0 9 7 15 16 15h370c9 0 16-6 16-15v-222l-1-1c18-13 30-36 30-62v-12zm-430 12v-7l38-63h53l-17 55c0 1-1 2-1 4v48c-7 4-18 7-29 7-22 0-44-21-44-44zm104 39v-48l19-61h69v115c-10 9-24 14-42 14-22 0-36-7-46-20zm155 20c-16 0-27-4-36-14v-115h54l19 61v49c-10 14-17 19-37 19zm67-22v-52l-17-55h53l37 63v7c0 22-13 44-36 44-13 0-28-3-37-7zm-275 188c-7 6-8 15-2 22 3 4 7 6 12 6 3 0 6-1 9-3l45-35c3-3 5-8 5-12 0-5-2-10-5-12l-45-35c-7-5-16-4-21 2-6 7-5 17 2 22l10 7h-128c-8 0-15 7-15 16 0 8 7 15 15 15h127z"/></svg>