<?xml version="1.0" encoding="UTF-8" standalone="no"?>
<svg width="30px" height="30px" viewBox="0 0 30 30" version="1.1" xmlns="http://www.w3.org/2000/svg" xmlns:xlink="http://www.w3.org/1999/xlink">
    <!-- Generator: Sketch 3.7.2 (28276) - http://www.bohemiancoding.com/sketch -->
    <title>leaderboard-new-ui</title>
    <desc>Created with Sketch.</desc>
    <defs>
        <polygon id="path-1" points="19.6246338 0.567039848 0.536607211 0.567039848 0.536607211 20.5960361 19.6246338 20.5960361 19.6246338 0.567039848"></polygon>
        <polygon id="path-3" points="5.09184132e-20 0.736297913 5.09184132e-20 9.31567173 6.55293625 9.31567173 6.55293625 0.736297913 0 0.736297913"></polygon>
    </defs>
    <g id="Page-1" stroke="none" stroke-width="1" fill="none" fill-rule="evenodd">
        <g id="577-585" transform="translate(-314.000000, -211.000000)">
            <g id="leaderboard-new-ui" transform="translate(314.000000, 211.000000)">
                <path d="M14.6860019,29.433148 L14.6747306,29.433148 C14.1562486,29.433148 13.7410873,28.7286888 13.746723,28.2083283 L13.8293795,20.6753112 C13.8350152,20.1568292 14.2802334,19.6815541 14.7799298,19.677797 C15.2984118,19.6834326 15.7135731,20.0760512 15.7079374,20.5945332 L15.6252808,28.247778 C15.6196452,28.7625028 15.1988482,29.433148 14.6860019,29.433148" id="Fill-1" fill="#000000"></path>
                <path d="M23.3194782,15.1651252 C22.8723814,15.1651252 22.4760057,14.8457704 22.3952277,14.3892808 C22.3050569,13.8783131 22.6469545,13.3917666 23.1579222,13.3015958 C26.5543548,12.7004573 27.1799146,9.80559962 27.2494213,8.13368311 L23.7252467,8.18628273 C23.2048861,8.18628273 22.7859677,7.76548577 22.7859677,7.2470038 C22.7859677,6.72664326 23.2048861,6.30772486 23.7252467,6.30772486 L27.127315,6.30772486 C27.7021537,6.30772486 28.2506926,6.5331518 28.6320398,6.92952751 C28.9701803,7.28269639 29.1467647,7.73918596 29.1261006,8.21070398 C29.0509583,10.012241 28.3502562,14.2897173 23.4829127,15.1500968 C23.4284345,15.1613681 23.3739564,15.1651252 23.3194782,15.1651252" id="Fill-3" fill="#000000"></path>
                <path d="M19.4806452,29.433148 L10.0878558,29.433148 C9.56937381,29.433148 9.14857685,29.012351 9.14857685,28.4938691 C9.14857685,27.9753871 9.56937381,27.5545901 10.0878558,27.5545901 L19.4806452,27.5545901 C19.9991271,27.5545901 20.4199241,27.9753871 20.4199241,28.4938691 C20.4199241,29.012351 19.9991271,29.433148 19.4806452,29.433148" id="Fill-5" fill="#000000"></path>
                <g id="Group-9" transform="translate(4.724858, 0.343964)">
                    <mask id="mask-2" fill="white">
                        <use xlink:href="#path-1"></use>
                    </mask>
                    <g id="Clip-8"></g>
                    <path d="M3.22106641,2.44540987 C2.7758482,2.44540987 2.41516509,2.80609298 2.41516509,3.2513112 L2.41516509,11.052962 C2.41516509,15.2797173 5.852926,18.7174782 10.0796812,18.7174782 C14.3064364,18.7174782 17.7460759,15.2797173 17.7460759,11.052962 L17.7460759,3.2513112 C17.7460759,2.80609298 17.3853928,2.44540987 16.9401746,2.44540987 L3.22106641,2.44540987 Z M10.0796812,20.5960361 C4.81784061,20.5960361 0.536607211,16.3148027 0.536607211,11.052962 L0.536607211,3.2513112 C0.536607211,1.77100759 1.74076281,0.566851992 3.22106641,0.566851992 L16.9401746,0.566851992 C18.4204782,0.566851992 19.6246338,1.77100759 19.6246338,3.2513112 L19.6246338,11.052962 C19.6246338,16.3148027 15.3434004,20.5960361 10.0796812,20.5960361 L10.0796812,20.5960361 Z" id="Fill-7" fill="#000000" mask="url(#mask-2)"></path>
                </g>
                <g id="Group-12" transform="translate(0.000000, 5.979638)">
                    <mask id="mask-4" fill="white">
                        <use xlink:href="#path-3"></use>
                    </mask>
                    <g id="Clip-11"></g>
                    <path d="M5.61425806,9.31567173 C5.55977989,9.31567173 5.50530171,9.31191461 5.45082353,9.30064326 C0.748793169,8.46844213 0.0743908918,4.34125047 0.00112713473,2.60358444 C-0.0195370019,2.1414592 0.153290323,1.69248387 0.485795066,1.34682922 C0.857749526,0.957967742 1.39501708,0.736297913 1.95858444,0.736297913 L5.22539658,0.736297913 C5.74387856,0.736297913 6.16467552,1.15521632 6.16467552,1.67557685 C6.16467552,2.19405882 5.74387856,2.61485579 5.22539658,2.61485579 L1.95858444,2.61485579 C1.94355598,4.11958065 2.53905882,6.87918216 5.77581404,7.45214231 C6.28678178,7.54231309 6.62867932,8.02885958 6.53850854,8.53982732 C6.45773055,8.99631689 6.06135484,9.31567173 5.61425806,9.31567173" id="Fill-10" fill="#000000" mask="url(#mask-4)"></path>
                </g>
            </g>
        </g>
    </g>
</svg>