<svg xmlns="http://www.w3.org/2000/svg" viewBox="0 0 512 512"><path d="M471 46c-27-29-64-45-104-45-38 0-74 15-101 41l-10 10-10-10c-27-26-63-41-101-41-40 0-77 16-104 45-27 28-42 64-41 103s16 75 44 102l198 191c3 3 7 5 11 5 1 0 2 0 3-1 1 1 2 1 3 1 4 0 7-2 11-5l198-191c28-27 43-63 44-102 1-38-14-75-41-103zm-25 183l-190 184-190-184c-22-21-35-50-35-80-1-31 10-60 32-82 21-23 51-35 82-35 30 0 58 12 80 32l20 20c6 6 16 6 21 0l21-20c21-21 50-32 80-32 31 0 60 13 82 35 21 22 33 51 32 82 0 30-13 59-35 80z"/></svg>