<?xml version="1.0" encoding="UTF-8" standalone="no"?>
<svg width="32px" height="30px" viewBox="0 0 32 30" version="1.1" xmlns="http://www.w3.org/2000/svg" xmlns:xlink="http://www.w3.org/1999/xlink">
    <!-- Generator: Sketch 3.7.2 (28276) - http://www.bohemiancoding.com/sketch -->
    <title>like-new-ui</title>
    <desc>Created with Sketch.</desc>
    <defs></defs>
    <g id="Page-1" stroke="none" stroke-width="1" fill="none" fill-rule="evenodd">
        <g id="577-585" transform="translate(-468.000000, -55.000000)" fill="#060606">
            <path d="M476.829529,57.5529387 C474.42466,57.5529387 471.378153,59.5578465 470.648013,62.7983767 C470.362084,64.0731441 470.753534,65.5351269 471.698122,66.7094787 L483.341224,81.1846411 C483.569287,81.4688682 483.86713,81.5131192 484.025412,81.5131192 L484.027114,81.5131192 C484.185396,81.5131192 484.481537,81.4705702 484.711301,81.1897469 L496.299941,67.0243412 C497.038591,66.1240048 497.445359,64.9853942 497.447061,63.8195522 C497.447061,60.4513751 494.718821,57.7231346 491.367663,57.7231346 C488.617297,57.7231346 486.122225,59.6072033 485.334218,62.2367302 C485.421018,62.7388081 485.461865,63.1898273 485.461865,63.6323367 C485.461865,64.3369477 484.890007,64.908806 484.185396,64.908806 C483.480785,64.908806 482.908927,64.3369477 482.908927,63.6323367 C482.908927,63.2732233 482.866378,62.8936864 482.774472,62.4341574 C482.774472,62.4324555 482.77277,62.4290516 482.77277,62.4273496 C482.767664,62.4069261 482.754048,62.3388477 482.754048,62.3371458 C482.720009,62.1635459 482.687672,61.9916481 482.636613,61.8248561 C481.841798,59.2685135 479.508412,57.5529387 476.829529,57.5529387 M484.028816,84.0660578 L484.0152,84.0660578 C482.973601,84.0626539 482.003484,83.5946152 481.351634,82.7844826 L469.708532,68.3093203 C468.260164,66.5086476 467.695114,64.2943988 468.158047,62.2367302 C469.071999,58.1792596 472.880983,55 476.829529,55 C479.848804,55 482.561727,56.538571 484.115616,58.9893922 C485.747794,56.6696219 488.455611,55.1701959 491.367663,55.1701959 C496.126341,55.1701959 500,59.0421529 500,63.8025326 C499.996596,65.575974 499.383891,67.2881448 498.275915,68.6429043 L486.687276,82.8066081 C486.032022,83.6082308 485.063607,84.0660578 484.028816,84.0660578" id="like-new-ui"></path>
        </g>
    </g>
</svg>