<svg xmlns="http://www.w3.org/2000/svg" viewBox="0 0 512 512"><path d="M401 152v-39c0-80-65-145-145-145s-145 65-145 145v39c-25 2-45 23-45 48v232c0 26 21 48 48 48h284c27 0 48-22 48-48v-232c0-25-20-46-45-48zm-145-171c73 0 132 59 132 132v39h-51v-43c0-45-36-81-81-81s-81 36-81 81v43h-51v-39c0-73 59-132 132-132zm68 171h-135v-43c0-38 30-68 67-68 38 0 68 30 68 68v43zm-210 17h284c17 0 31 14 31 31v212h-346v-212c0-17 14-31 31-31zm315 270h-345c-1-3-1-5-1-7v-7h346v14zm-31 24h-284c-10 0-18-5-24-11h332c-6 6-14 11-24 11zm-181-86c2 2 3 2 5 2h68c2 0 4 0 5-2 1-1 2-3 1-5l-14-84c8-7 12-17 12-27 0-21-17-38-38-38s-38 17-38 38c0 10 4 20 12 27l-14 84c0 2 0 4 1 5zm24-97c-6-4-9-11-9-19 0-13 11-24 24-24 14 0 24 11 24 24 0 8-3 14-9 19-2 2-3 4-2 6l13 80h-52l13-80c1-2 0-4-2-6z"/></svg>