<svg xmlns="http://www.w3.org/2000/svg" viewBox="0 0 512 512"><path d="M368 17c17 0 33 3 46 10v-1l4 3c7 3 12 6 16 9l1 1 3 3c7 6 18 17 22 24l1 1v1c2 2 4 6 6 10l1 2c0 1 1 2 2 3 7 16 10 31 10 48 0 77-51 122-111 176-37 32-78 69-113 117-35-48-76-85-113-117-60-54-111-99-111-176 0-17 4-33 11-48l3-7 6-9v-1l1-1c4-7 15-18 22-24 1 0 2-1 3-2 6-4 11-8 16-10l5-3h1c14-7 29-10 45-10 28 0 54 10 75 29 1 1 2 2 3 2l4 4c9 9 19 14 30 14 16 0 26-10 30-14l4-3 3-3c20-18 46-28 74-28m0-32c-36 0-70 13-96 37l-3 3-5 5c-3 3-5 4-8 4-2 0-5-1-7-4l-5-5-3-3c-27-24-61-37-97-37-21 0-42 5-60 13-2 1-3 1-4 3-7 3-14 8-21 12l-4 4s-21 17-30 33c-3 5-7 11-10 17l-1 2c-9 19-14 40-14 62 0 91 59 143 122 199 40 36 82 72 116 123 4 6 10 10 18 10 7 0 14-4 18-10 34-51 76-87 116-123 63-56 122-108 122-199 0-22-5-43-14-62 0-1 0-1-1-2-3-6-6-12-10-17-8-15-29-33-29-33l-5-4c-7-5-14-9-21-12l-3-3c-19-8-39-13-61-13z"/></svg>