<svg xmlns="http://www.w3.org/2000/svg" viewBox="0 0 512 512"><path d="M256 176c10 0 18-8 18-18s-8-18-18-18-18 8-18 18 8 18 18 18zm241 61c-64-14-101 32-101 69v63l-24-18s-30-19-116-19-115 19-116 19l-23 17-1-62c-3-39-28-90-106-62-7 10-10 21-10 30 0 24 14 47 34 55l4 1c11 5 12 7 12 10v41c0 47 26 78 66 82v2c0 8 7 15 15 15 9 0 16-7 16-15v-2h218v2c0 8 7 15 16 15 8 0 15-7 15-15v-2c40-4 66-35 66-82v-41c0-3 1-5 12-10l4-1c20-8 34-31 34-55 0-12-6-26-15-37zm-373 10c15 16 23 37 23 59v10c21-7 55-14 109-14 55 0 89 7 109 14v-10c0-22 9-43 23-59 15-16 35-25 35-25l14-95c6-40-5-80-31-110-26-31-66-49-108-49h-83c-43 0-83 18-109 49-26 30-37 70-31 110l14 95s21 9 35 25zm63-125c6-6 16-6 22 0l7 7c9-12 23-20 40-20 16 0 30 8 39 20l8-7c6-6 16-6 21 0 6 6 6 15 0 21l-14 14 14 15c6 6 6 15 0 21-2 3-6 5-10 5s-8-2-11-5l-8-7c-8 12-23 20-39 20s-31-8-40-20l-7 7c-3 3-7 5-11 5s-8-2-11-5c-6-6-6-15 0-21l14-15-14-14c-6-6-6-16 0-21z"/></svg>