<svg xmlns="http://www.w3.org/2000/svg" viewBox="0 0 512 512"><path d="M511 278l-1-100c1-4 0-7 0-11-3-13-12-24-25-30l-196-83-1-1c-1 0-21-6-47-6-23 0-43 5-59 15-12 7-19 15-19 25v4l-153 70c-5 3-9 8-9 14v107c0 6 3 11 9 14l226 103c2 1 4 2 7 2 2 0 4-1 6-2l170-76c15 3 58 9 80-12 13-14 13-28 12-33zm-480-79l206 93c2 1 4 1 6 1s4 0 6-1l170-76c7 1 18 3 31 3 12 0 22-1 30-4v19c-5 4-13 8-22 8-18 0-39-5-39-5-3 0-7 0-10 1l-169 77-209-96zm158-87c4-2 7-6 8-12 1-3 0-7-2-11 0 0 1-1 2-1 12-7 27-10 44-10 19 0 34 4 37 4l195 83c4 2 6 5 7 8 0 2 0 5-3 9-4 4-14 7-27 7-15 0-29-4-29-4-3-1-7 0-10 1l-168 76-190-87zm288 177c-9 9-39 7-56 3-4 0-7 0-10 1l-168 76-212-97v-19l203 93c2 1 4 2 6 2s4-1 6-2l171-77c8 1 25 5 41 5 8 0 16-3 22-5v10c0 1 0 1 1 3 0-1 0 3-4 7z"/></svg>