<svg xmlns="http://www.w3.org/2000/svg" viewBox="0 0 512 512"><path d="M447 153v-5l-31-135c-1-4-5-7-9-7h-304c-4 0-8 3-9 8l-29 134v5c0 26 14 48 35 60 0 1-1 1-1 1v219c0 5 4 9 9 9h296c5 0 9-4 9-9v-219s-1 0-1-1c21-12 35-34 35-60zm-52 223h-278v-26h278zm-278 48v-30h278v30zm278-92h-278v-111c6 1 11 2 17 2 27 0 49-15 61-36 12 21 35 36 61 36s49-15 61-36c12 21 34 36 61 36 6 0 11-1 17-2zm-17-127c-29 0-52-23-52-52 0-5-4-9-9-9s-9 4-9 9c0 29-23 52-52 52s-52-23-52-52c0-5-4-9-9-9s-9 4-9 9c0 29-23 52-52 52-28 0-51-23-51-52l-1-1 28-128h290l30 128-1 1c0 29-23 52-51 52z"/></svg>