<svg xmlns="http://www.w3.org/2000/svg" viewBox="0 0 512 512"><path d="M256-13c-131 0-238 106-238 237s107 238 238 238 238-107 238-238-107-237-238-237zm6 462v-45c52-3 93-46 93-99v-96c0-4-2-7-6-7-3 0-6 3-6 7v6h-7c-4 0-7 3-7 7 0 3 3 6 7 6h7v77c0 48-39 87-87 87s-87-39-87-87v-77h7c3 0 6-3 6-6 0-4-3-7-6-7h-7v-6c0-4-3-7-6-7-4 0-7 3-7 7v96c0 53 42 96 94 99v45c-121-4-219-103-219-225 0-124 101-224 225-224s225 100 225 224c0 122-98 221-219 225zm61-279c-2-35-31-64-67-64s-65 29-67 64v132c0 37 30 67 67 67s67-30 67-67v-132zm-67 187c-30 0-54-25-54-55v-94h28c3 0 6-3 6-6 0-4-3-7-6-7h-28v-18h28c3 0 6-3 6-6 0-4-3-6-6-6h-27c4-26 26-46 53-46s49 20 53 46h-27c-3 0-6 2-6 6 0 3 3 6 6 6h28v18h-28c-3 0-6 3-6 7 0 3 3 6 6 6h28v94c0 30-24 55-54 55z"/></svg>