<svg xmlns="http://www.w3.org/2000/svg" viewBox="0 0 512 512"><path d="M256 480c-4 0-9-2-12-5l-140-157h-1c-36-38-55-89-52-145 2-55 25-108 63-146s88-59 142-59 105 21 143 59c81 81 84 215 7 292 0 1 0 1-1 1l-138 155c-2 3-6 5-11 5zm-127-179l127 141 128-145c1-1 2-1 2-2 62-65 58-179-9-247-32-32-75-49-121-49-45 0-88 17-121 50-32 32-52 78-54 125-2 49 14 93 46 124 1 1 2 2 2 3zm127-26c-54 0-99-44-99-99 0-54 45-98 99-98s98 44 98 99c0 54-44 98-98 98zm0-166c-38 0-68 30-68 68 0 37 30 67 68 67 37 0 68-30 68-67 0-38-31-68-68-68z"/></svg>