<svg xmlns="http://www.w3.org/2000/svg" viewBox="0 0 512 512"><path d="M436 218v213c0 27-22 49-49 49-28 0-49-22-49-49v-213c-31-3-55-28-55-59v-175h33v93h55v-93h32v93h55v-93h33v175c-1 31-25 56-55 59zm-66 213c0 10 7 16 17 16 9 0 16-6 16-16v-212h-33zm87-321h-141v48c0 16 12 28 27 28h87c15 0 27-13 27-28v-48zm-283 96v225c0 27-21 49-49 49-27 0-48-22-48-49v-225c-33-17-55-52-55-91v-44c0-57 46-103 103-103s104 46 104 103v44c0 39-22 74-55 91zm-65 225c0 10 7 16 16 16 10 0 17-6 17-16v-214c-6 1-11 2-17 2-5 0-11-1-16-2zm87-360c0-39-32-70-71-70s-70 32-70 70v44c0 39 31 71 70 71 40 0 71-32 71-71v-44z"/></svg>