<svg xmlns="http://www.w3.org/2000/svg" viewBox="0 0 512 512"><path d="M461 453l-51-64c12-7 21-21 21-35v-229c0-49-42-91-91-91h-168c-49 0-91 42-91 91v229c0 14 9 27 21 35l-51 64c-4 5-5 11-2 17s8 9 14 9h51c5 0 9-2 13-6l62-78h135l62 78c3 4 7 6 13 6h50c6 0 12-3 14-9 3-5 2-12-2-17zm-339-90c-3 0-8-6-9-9v-70h286v70c-1 3-6 9-9 9zm277-221v109h-285v-109zm-227-76h168c26 0 49 19 56 44h-280c7-25 30-44 56-44zm-66 381h-8l41-51h8zm300 0l-41-51h9l41 51zm-208-137h-34c-9 0-16 7-16 16s7 17 16 17h34c8 0 16-8 16-17s-8-16-16-16zm150 0h-33c-9 0-17 7-17 16s8 17 17 17h33c9 0 17-8 17-17s-8-16-17-16zm-192-307h33c5 0 9-4 9-8v-18c0-5-4-8-9-8h-33c-5 0-9 3-9 8v18c0 4 4 8 9 8zm167 0h33c5 0 9-4 9-8v-18c0-5-4-8-9-8h-33c-5 0-9 3-9 8v18c1 4 4 8 9 8z"/></svg>