<svg xmlns="http://www.w3.org/2000/svg" viewBox="0 0 512 512"><path d="M256 479c-39 0-73-26-83-63-2-3-3-6-3-9v-14c0-4 0-12 1-21-7 6-14 9-18 12-13 7-28 11-43 11-31 0-59-16-74-43-19-32-14-73 10-101 1-3 4-7 7-8l14-9c4-2 10-6 19-9-9-4-15-8-19-10-41-24-56-77-32-118 15-27 44-44 74-44 8 0 15 1 23 3 2 0 5 0 8 2l12 7c4 2 11 6 19 12-1-10-2-18-1-22 0-48 38-86 86-86 39 0 73 26 83 63 2 3 3 6 3 9v14c0 4 0 12-1 21 7-6 14-9 18-12 13-7 28-11 43-11 31 0 59 16 74 43 12 19 15 43 9 65-4 14-11 27-21 38-1 3-3 5-6 7l-13 7c-4 3-10 6-19 10 9 4 15 8 19 10 41 24 56 77 32 118-15 27-44 43-75 43-8 0-15-1-23-3-3 0-6 0-8-1l-12-7c-3-2-10-7-18-12 1 10 1 17 1 22 0 48-38 86-86 86zm-56-78c0 1 0 2 1 3 5 27 28 46 55 46 31 0 57-26 57-57 0-8-1-30-7-50l-5-12c-2-7 0-15 7-18 6-4 14-2 19 3 2 3 5 7 8 10 14 16 32 27 39 31l7 4h3c25 9 54-2 68-25 15-27 6-62-21-77-7-4-26-14-47-19-4 0-8-1-13-2-7-1-12-7-12-15 0-7 5-13 12-14 4-1 9-2 13-2 21-5 39-15 46-19l8-4c0-1 1-2 2-3 8-7 14-17 17-27 3-15 1-30-6-43-11-18-29-29-49-29-10 0-20 3-29 8-7 4-25 15-39 31-3 3-5 6-7 9-5 6-13 7-19 3-7-3-9-11-7-18 1-3 3-7 4-11 6-20 7-41 7-49v-8c-1-1-1-2-1-3-5-27-28-46-55-46-31 0-57 25-57 57 0 8 1 29 7 49 2 5 3 9 5 13 2 7 0 14-7 18-6 4-14 2-18-3-3-4-6-7-9-10-14-16-32-27-40-31l-6-4h-4c-25-9-54 2-67 25-16 27-6 62 21 78 7 4 26 14 47 18 4 1 8 1 13 2 7 1 12 8 12 15s-5 13-12 14c-5 1-9 2-13 3-21 4-40 14-46 19l-8 4-3 3c-19 18-23 47-10 70 10 17 29 28 49 28 10 0 20-3 28-8 7-4 25-15 40-31l7-9c5-5 13-7 19-3s9 11 6 18c-1 4-2 7-4 11-6 20-7 41-7 50z"/></svg>