<svg xmlns="http://www.w3.org/2000/svg" viewBox="0 0 512 512"><path d="M76 224c0-40 6-78 15-113h-72c-8 36-12 74-12 114s4 80 13 118h72c-9-37-16-77-16-119zm-44 160c10 31 24 60 40 85 3 5 8 7 14 8h62c-12-21-29-54-43-93zm115-414l-60 1c-6 0-10 2-13 7-18 27-33 58-44 92h73c14-42 31-77 44-100zm155 100c-16-46-36-82-47-101h-25v101zm-100 0v-100h-23c-11 19-29 55-46 100h69zm-66 314c16 43 35 77 45 94h21v-94zm268-314c-11-35-26-67-45-95-3-4-8-7-13-7l-59 1c13 23 30 58 45 101zm99 202l-12-35c3-4 6-9 6-15s-3-11-7-16l12-76c1-3 0-7-3-10-2-3-6-4-9-4h-42c-4 0-8 1-10 4s-3 7-3 10l12 73c-5-4-11-6-17-6l-3 1c-1-30-5-59-12-87h-71c9 35 16 73 16 113 0 42-7 82-17 119h72c7-31 11-63 13-96 1 0 1 1 3 1 7 0 14-3 19-7 1 1 3 2 5 3v2l13 37c2 5 7 8 12 8h13c7 0 12-5 12-12 0-3-1-5-2-7zm-34-91l-7-40h14zm-239-70v232h83c11-36 18-77 18-119 0-40-6-78-16-113zm56 368l61 1c6 0 11-3 14-7 17-27 31-57 42-89h-73c-15 40-32 74-44 95zm-56-95v94l24 1c10-17 29-51 46-95zm-126-160c0 42 7 82 18 119h80v-232h-82c-10 35-16 73-16 113z"/></svg>