<svg xmlns="http://www.w3.org/2000/svg" viewBox="0 0 512 512"><path d="M503 272l-12-34c4-5 6-10 6-16s-2-11-7-15l13-77c0-3-1-7-3-10-3-2-6-4-10-4h-42c-4 0-7 2-9 4-3 3-4 7-3 10l11 73c-4-4-10-6-17-6-1 0-2 1-2 1-5-84-28-163-69-223-3-4-8-7-13-7l-259 3c-5 0-10 2-13 7-44 66-67 154-67 247 0 91 23 178 65 245 3 4 8 7 14 7l261 3h1c5 0 10-3 13-7 40-61 64-140 67-225h3c8 0 14-3 19-7 2 1 4 2 5 3 0 1 0 1 1 2l13 37c2 5 6 9 12 9h12c7 0 13-6 13-13-1-3-1-5-3-7zm-123 81c-1 0-1-1-1-1h-323c-4-12-7-24-9-36h341c-2 13-5 25-8 37zm-147 31h50c-9 23-19 44-31 63h-19zm-31 62h-22c-12-19-22-39-30-62h52zm108-221c0 20-1 40-4 59h-73v-137h71c4 25 6 51 6 78zm-272 0c0-27 3-53 7-78h52c-4 25-6 51-6 78 0 20 1 40 3 59h-52c-2-19-4-39-4-59zm89 59c-3-19-4-39-4-59 0-27 2-53 6-78h73v138h-75zm106-237v-46h18c9 14 17 29 24 46zm-31 0h-45c7-16 15-31 24-45l21-1zm172 32c4 12 7 24 10 36h-333c3-12 6-24 10-36zm19 205h-55c3-19 4-39 4-59 0-27-2-53-6-78h54c4 25 7 51 7 78 0 20-1 40-4 59zm-31-237h-52c-6-17-14-32-21-46l49-1c9 15 17 30 24 47zm-266-44l48-1c-8 14-14 29-21 45h-50c7-16 15-31 23-44zm-30 381h50c8 22 17 42 27 61h-48c-12-19-21-39-29-61zm273 64l-50-1c11-19 20-40 27-62h53c-8 22-18 44-30 63zm137-307l-6 41-7-41z"/></svg>