<?xml version="1.0" encoding="UTF-8" standalone="no"?>
<svg width="23px" height="31px" viewBox="0 0 23 31" version="1.1" xmlns="http://www.w3.org/2000/svg" xmlns:xlink="http://www.w3.org/1999/xlink">
    <!-- Generator: Sketch 3.7.2 (28276) - http://www.bohemiancoding.com/sketch -->
    <title>minimum-time-new-ui</title>
    <desc>Created with Sketch.</desc>
    <defs>
        <polygon id="path-1" points="22.1317647 22.2803137 22.1317647 0.14854902 2.12588661e-20 0.14854902 0 22.2803137 22.1317647 22.2803137"></polygon>
    </defs>
    <g id="Page-1" stroke="none" stroke-width="1" fill="none" fill-rule="evenodd">
        <g id="577-585" transform="translate(-576.000000, -105.000000)">
            <g id="minimum-time-new-ui" transform="translate(576.000000, 105.000000)">
                <path d="M4.88282353,7.7014902 L4.87968627,7.7014902 C4.4467451,7.69992157 4.09694118,7.34698039 4.0985098,6.91403922 L4.11419608,3.13992157 C4.11419608,1.40972549 5.63733333,-0.000470588236 7.51184314,-0.000470588236 L14.8326275,-0.000470588236 C16.7055686,-0.000470588236 18.2302745,1.40972549 18.2302745,3.14305882 L18.2302745,6.81521569 C18.2302745,7.24815686 17.878902,7.59952941 17.4459608,7.59952941 C17.011451,7.59952941 16.6616471,7.24815686 16.6616471,6.81521569 L16.6616471,3.14305882 C16.6616471,2.27560784 15.8412549,1.56815686 14.8326275,1.56815686 L7.51184314,1.56815686 C6.50321569,1.56815686 5.68282353,2.27560784 5.68282353,3.14305882 L5.66713725,6.92031373 C5.66556863,7.35168627 5.31419608,7.7014902 4.88282353,7.7014902" id="Fill-1" fill="#000000"></path>
                <g id="Group-5" transform="translate(0.000000, 4.044863)">
                    <mask id="mask-2" fill="white">
                        <use xlink:href="#path-1"></use>
                    </mask>
                    <g id="Clip-4"></g>
                    <path d="M11.0661961,1.71717647 C5.83011765,1.71717647 1.56815686,5.97756863 1.56815686,11.2152157 C1.56815686,16.4512941 5.83011765,20.7116863 11.0661961,20.7116863 C16.3022745,20.7116863 20.5642353,16.4512941 20.5642353,11.2152157 C20.5642353,5.97756863 16.3022745,1.71717647 11.0661961,1.71717647 M11.0661961,22.2803137 C4.96423529,22.2803137 -0.000470588233,17.3171765 -0.000470588233,11.2152157 C-0.000470588233,5.1132549 4.96423529,0.14854902 11.0661961,0.14854902 C17.1681569,0.14854902 22.1328627,5.1132549 22.1328627,11.2152157 C22.1328627,17.3171765 17.1681569,22.2803137 11.0661961,22.2803137" id="Fill-3" fill="#000000" mask="url(#mask-2)"></path>
                </g>
                <path d="M14.7043137,30.7115294 L7.38352941,30.7115294 C5.51058824,30.7115294 3.98588235,29.2432941 3.98588235,27.4409412 L3.98588235,24.3946667 C3.98588235,23.9617255 4.3372549,23.6103529 4.77019608,23.6103529 C5.20470588,23.6103529 5.5545098,23.9617255 5.5545098,24.3946667 L5.5545098,27.4409412 C5.5545098,28.3789804 6.37490196,29.142902 7.38352941,29.142902 L14.7043137,29.142902 C15.7129412,29.142902 16.534902,28.3789804 16.534902,27.4409412 L16.534902,24.2519216 C16.534902,23.8189804 16.8847059,23.4676078 17.3192157,23.4676078 C17.7521569,23.4676078 18.1035294,23.8189804 18.1035294,24.2519216 L18.1035294,27.4409412 C18.1035294,29.2432941 16.5788235,30.7115294 14.7043137,30.7115294" id="Fill-6" fill="#000000"></path>
                <path d="M13.7331765,18.1250196 C13.6123922,18.1250196 13.4916078,18.0967843 13.377098,18.0387451 L9.64533333,16.1297255 C9.44454902,16.0261961 9.29709804,15.841098 9.24219608,15.6230588 C9.18729412,15.403451 9.22807843,15.1712941 9.35670588,14.9846275 L13.2625882,9.34227451 C13.5088627,8.98619608 13.9967059,8.89678431 14.3543529,9.14462745 C14.7104314,9.39090196 14.7998431,9.88031373 14.552,10.2363922 L11.1574902,15.1414902 L14.0908235,16.6426667 C14.4767059,16.8403137 14.6288627,17.3124706 14.4327843,17.6983529 C14.2931765,17.9697255 14.0186667,18.1250196 13.7331765,18.1250196" id="Fill-8" fill="#000000"></path>
            </g>
        </g>
    </g>
</svg>