<svg xmlns="http://www.w3.org/2000/svg" viewBox="0 0 512 512"><path d="M256 465c-141 0-256-27-256-59 0-27 64-48 170-56 3 0 5 1 6 3 6 9 12 16 19 25 4 3 0 10-5 10-61 2-95 10-123 18 37 10 101 20 190 20 88 0 152-10 189-20-30-8-62-15-123-18-6 0-8-6-6-10 7-8 13-16 19-25 2-1 4-3 6-3 106 8 169 29 169 56 1 32-114 59-255 59zm-173-327c0-91 78-165 173-165 96 0 173 74 173 165 0 75-117 220-158 270-7 10-21 10-29 0-42-50-159-195-159-270zm232-5c0-31-26-55-59-55-32 0-59 24-59 55s26 55 59 55c32 0 59-24 59-55z"/></svg>