<svg xmlns="http://www.w3.org/2000/svg" viewBox="0 0 512 512"><path d="M405 340c-31 0-56 25-56 56s25 56 56 56 56-25 56-56-25-56-56-56zm0 81c-14 0-25-12-25-26 0-13 11-25 25-25s26 11 26 25-12 26-26 26zm-213-81c-31 0-56 25-56 56s25 56 56 56 56-25 56-56-25-56-56-56zm0 81c-14 0-26-12-26-26 0-13 12-25 26-25s25 11 25 25-11 26-25 26zm305-346h-365l-12-66c-1-7-8-12-15-12h-90c-8 0-15 6-15 15 0 8 7 15 15 15h77l44 244v1c0 9 7 16 15 16h295c8 0 15-7 15-16 0-8-7-15-15-15h-281l-6-29h302c8 0 15-7 15-15 0-9-7-16-15-16h-303c-1 0-2 1-4 1l-6-31h328c9 0 16-7 16-15 0-9-7-16-16-16h-333l-5-30h359c8 0 15-7 15-15 0-9-7-16-15-16z"/></svg>