<svg xmlns="http://www.w3.org/2000/svg" viewBox="0 0 512 512"><path d="M387 18h-39v-9c0-3-2-5-4-5-3 0-5 3-5 5v1l-30-4c-7-22-28-38-52-38-25 0-45 16-53 37l-31 5v-1c0-3-2-5-5-5-2 0-4 3-4 5v9h-39c-3 0-5 2-5 5v18c0 3 3 5 5 5h38v8c0 3 3 5 5 5 3 0 5-2 5-5v-1l41 7c4 5 8 9 14 12-53 8-93 54-93 109v146c0 26 16 47 39 55 6 1 12 3 18 3h26v58c0 20 17 37 37 37h1c21 0 38-17 38-37v-58h25c32 0 58-26 58-58v-146c0-55-40-101-92-109 5-4 10-8 14-13l40-6v1c0 3 2 5 5 5 2 0 4-2 4-5v-8h39c2 0 4-3 4-5v-18c1-3-2-5-4-5zm-257 18v-8h33v8zm43 7v-23l28-4v8c0 9 2 17 6 25zm-28 284v-146c0-56 45-101 101-101h6v8c-55 2-100 47-100 102v141c0 1 1 16 7 30-9-8-14-21-14-34zm59 29h105c0 1 0 3 1 5h-107c0-2 0-4 1-5zm2-10c8-20 27-34 49-34h2c22 0 41 14 49 34zm78 97c0 15-13 27-28 27h-1c-15 0-27-12-27-27v-73h56zm10-68v-5h20c3 0 5-2 5-5 0-35-28-62-62-62h-2c-34 0-62 27-62 63 0 2 2 4 5 4h20v5h-25c-5 0-10-1-14-2-16-16-17-42-17-42v-141c0-50 40-91 90-92v52c0 2 2 4 5 4 2 0 4-2 4-4v-52c49 2 88 43 88 92v139c0 1 0 28-17 43v1c-5 1-9 2-13 2zm73-194v146c0 14-6 27-16 35 7-13 8-26 8-31v-141c0-55-43-100-98-102v-8h5c56 0 101 45 101 101zm-104-111h-13c-22-3-40-23-40-46 0-26 21-47 47-47 25 0 46 21 46 47 0 24-17 43-40 46zm43-22c4-7 6-15 6-24v-8l27 4v23zm76-12h-33v-8h33zm-125-47c-20 0-36 16-36 35 0 20 16 36 36 36 19 0 35-16 35-35 0-20-16-36-35-36zm0 62c-15 0-27-12-27-27s12-27 27-27c14 0 26 12 26 27s-12 27-26 27zm-30 153c0 5-4 9-9 9s-10-4-10-9c0-6 5-10 10-10s9 4 9 10zm74 0c0 5-5 9-10 9s-9-4-9-9c0-6 4-10 9-10s10 4 10 10zm-45 57c-12 0-23 4-32 12-2 1-2 4-1 5s2 2 3 2l3-1c8-7 18-11 28-11s20 4 28 11c1 1 4 1 5 0 1-2 1-4 0-6-10-8-22-12-34-12zm-17 192l2-1 14-8 14 8c2 1 5 1 7-2 1-2 0-5-2-6l-16-10h-5l-17 10c-2 1-3 4-2 6s3 3 5 3zm0-27l2-1 14-8 14 8c2 1 5 1 7-2 1-2 0-5-2-6l-16-9c-2-1-4-1-5 0l-17 9c-2 1-3 4-2 6s3 3 5 3zm0-27c1 0 1 0 2-1l14-8 14 8c2 2 5 1 7-1 1-3 0-6-2-7l-16-9c-2-1-4-1-5 0l-17 9c-2 1-3 4-2 7 1 1 3 2 5 2z"/></svg>