<svg xmlns="http://www.w3.org/2000/svg" viewBox="0 0 512 512"><path d="M438 401c-20-9-34-15-34-27v-91c0-58-30-107-82-131-5-34-33-58-66-58s-61 24-66 58c-52 24-82 73-82 131v91c0 11-14 18-34 27-7 3-10 10-10 16 1 7 8 12 14 12h122c3 28 28 49 56 49s53-21 56-49h122c6 0 13-5 14-14 2-4-1-11-10-14zm-182 49c-11 0-21-8-25-18h50c-4 10-14 18-25 18zm-126-49c5-7 8-15 8-27v-91c0-50 27-88 71-108 5-2 10-8 10-15 0-20 17-36 37-36s36 16 36 36c0 7 4 12 10 15 45 18 72 58 72 108v91c0 10 3 20 8 27zm-52-225c9 0 15-6 15-14 0-55 45-100 100-100 8 0 15-7 15-15s-7-15-15-15c-71 0-131 58-131 131 2 7 8 13 16 13zm115-177c8 0 15-6 15-15 0-8-7-14-15-14-106-1-192 85-192 192 0 8 6 14 14 14 9 0 15-6 15-14 0-90 73-163 163-163zm126 32c-8 0-15 6-15 14 0 9 7 15 15 15 55 0 100 45 100 100 0 8 6 15 15 15 8 0 14-7 14-15 0-70-58-129-129-129zm0-62c-8 0-15 7-15 15s7 15 15 15c90 0 163 73 163 162 0 9 6 15 14 15 9 0 15-6 15-15 0-106-86-192-192-192z"/></svg>