<?xml version="1.0" encoding="UTF-8" standalone="no"?>
<svg width="25px" height="32px" viewBox="0 0 25 32" version="1.1" xmlns="http://www.w3.org/2000/svg" xmlns:xlink="http://www.w3.org/1999/xlink">
    <!-- Generator: Sketch 3.7.1 (28215) - http://www.bohemiancoding.com/sketch -->
    <title>notifications-new-account</title>
    <desc>Created with Sketch.</desc>
    <defs></defs>
    <g id="Page-1" stroke="none" stroke-width="1" fill="none" fill-rule="evenodd">
        <g id="577-585" transform="translate(-625.000000, -104.000000)" fill="#000000">
            <g id="notifications-new-account" transform="translate(624.000000, 104.000000)">
                <path d="M13.3333333,26.312 C6.83333333,26.312 3.58266667,25.124 2.14533333,24.3746667 C1.52,24.0626667 1.14533333,23.4373333 1.208,22.7493333 L1.208,22.6866667 C1.208,22.312 1.396,21.8746667 1.64533333,21.5613333 C2.396,20.8106667 3.708,19.0613333 3.708,16.7493333 C3.708,12.6866667 4.64533333,9.43733333 6.45866667,7.18666667 C8.20933333,5.124 10.6466667,3.936 13.3333333,3.936 C16.02,3.936 18.5213333,5.124 20.208,7.18666667 C22.02,9.43733333 22.9586667,12.6866667 22.9586667,16.7493333 C22.9586667,19.0613333 24.2706667,20.812 25.0213333,21.5613333 C25.272,21.8733333 25.4586667,22.312 25.4586667,22.7493333 C25.5213333,23.3746667 25.1466667,24.0613333 24.5213333,24.3746667 C23.084,25.1253333 19.8333333,26.312 13.3333333,26.312 L13.3333333,26.312 Z M16.1453333,28 C16.708,27.8746667 17.1453333,28.3746667 16.9573333,28.8746667 C16.3946667,30.312 15.02,31.5 13.332,31.5 C11.644,31.5 10.2693333,30.312 9.70666667,28.8746667 C9.51866667,28.3746667 9.95733333,27.8746667 10.5186667,28 C11.2066667,28.188 12.2066667,28.3746667 13.3306667,28.3746667 C14.4546667,28.3746667 15.456,28.1866667 16.1426667,28 L16.1453333,28 Z M13.3333333,0.5 L13.3333333,0.5 L13.3333333,0.5 C13.0826667,0.5 11.5826667,0.5 10.4586667,1.06266667 C10.0213333,1.31333333 9.95866667,1.87466667 10.2706667,2.188 L10.2706667,2.188 C10.5213333,2.376 10.8333333,2.43866667 11.0826667,2.31333333 C11.7706667,2.00133333 12.708,1.876 13.3333333,1.876 C13.708,1.876 14.8333333,1.93866667 15.584,2.31333333 C15.8346667,2.43866667 16.1466667,2.376 16.396,2.188 C16.708,1.876 16.6466667,1.31333333 16.208,1.06266667 C15.0826667,0.5 13.5826667,0.5 13.3333333,0.5 L13.3333333,0.5 Z" id="Shape"></path>
            </g>
        </g>
    </g>
</svg>