<svg xmlns="http://www.w3.org/2000/svg" viewBox="0 0 512 512"><path d="M256-22c-136 0-246 110-246 246s110 246 246 246 246-110 246-246-110-246-246-246zm61 348c-15 14-36 21-64 21s-49-8-62-23c-12-16-19-35-19-57h32c1 16 4 27 8 34 8 12 22 19 43 19 16 0 28-4 38-13 9-8 14-19 14-33 0-16-5-28-15-34-10-7-24-10-42-10h-12v-26h14c12 0 21-1 28-5 13-6 19-17 19-33 0-12-4-22-12-28-9-7-19-10-30-10-20 0-34 7-42 20-4 8-6 18-7 32h-30c0-18 4-33 11-46 12-22 34-33 65-33 24 0 43 5 56 16 14 11 21 27 21 47 0 15-4 27-12 36-5 6-12 10-19 13 12 4 22 11 29 21 7 9 11 21 11 36 0 23-8 41-23 56z"/></svg>