<svg xmlns="http://www.w3.org/2000/svg" viewBox="0 0 512 512"><path d="M256 480c-141 0-256-115-256-256s115-256 256-256 256 115 256 256-115 256-256 256zm0-474c-120 0-218 98-218 218s98 218 218 218 218-98 218-218-98-218-218-218zm76 355c-34 0-61-27-61-61s27-61 61-61 61 27 61 61-27 61-61 61zm0-84c-13 0-23 10-23 23s10 24 23 24 24-11 24-24-11-23-24-23zm-187 31l195-195 27 27-195 195zm35-99c-34 0-61-27-61-61s27-61 61-61 61 27 61 61-27 61-61 61zm0-85c-13 0-24 11-24 24s11 24 24 24 23-11 23-24-10-24-23-24z"/></svg>