<?xml version="1.0" encoding="UTF-8" standalone="no"?>
<svg width="27px" height="31px" viewBox="0 0 27 31" version="1.1" xmlns="http://www.w3.org/2000/svg" xmlns:xlink="http://www.w3.org/1999/xlink">
    <!-- Generator: Sketch 3.7.2 (28276) - http://www.bohemiancoding.com/sketch -->
    <title>online-delivery-new-ui</title>
    <desc>Created with Sketch.</desc>
    <defs>
        <polygon id="path-1" points="26.8976101 0.729105289 0 0.729105289 0 20.7544027 26.8976101 20.7544027 26.8976101 0.729105289"></polygon>
    </defs>
    <g id="Page-1" stroke="none" stroke-width="1" fill="none" fill-rule="evenodd">
        <g id="577-585" transform="translate(-626.000000, -53.000000)">
            <g id="online-delivery-new-ui" transform="translate(626.000000, 52.000000)">
                <g id="Group-3" transform="translate(0.000000, 0.673581)">
                    <mask id="mask-2" fill="white">
                        <use xlink:href="#path-1"></use>
                    </mask>
                    <g id="Clip-2"></g>
                    <path d="M5.38121502,7.64593087 L6.25160517,16.4638985 C6.33529653,17.3093802 7.03551425,17.9613686 7.88079699,17.9809984 L21.695451,18.300683 C22.5449183,18.3469531 23.2102646,17.7566583 23.3748576,16.9602509 L24.4321584,10.4628011 C24.4865578,10.1949951 24.4419224,9.97626355 24.3149905,9.79538935 C24.1894535,9.61311303 23.9997531,9.49533448 23.7821555,9.46308559 L5.38121502,7.64593087 Z M21.7359018,20.7544027 L21.6382619,20.7544027 L7.82500275,20.4347181 C5.74806215,20.3856437 4.02680983,18.7830142 3.82176599,16.7050641 L2.56081616,3.884028 C2.52594476,3.51106261 2.28323981,3.14791209 1.27894348,3.1871716 C0.605228024,3.21240986 0.0333370587,2.69642766 0.00125537041,2.01920101 C-0.0308263179,1.3433765 0.489454975,0.768505018 1.16317043,0.73625613 C2.36135175,0.675964731 3.32101268,0.981628102 4.01983555,1.63361649 C4.93625595,2.48891308 4.99205019,3.60640714 4.9948399,3.73119632 L5.13572036,5.15715801 L24.077865,7.02899563 C25.0124186,7.16500181 25.8088813,7.65855 26.3166089,8.38905742 C26.8243365,9.11956483 27.0112472,10.0393592 26.8299159,10.9114813 L25.7740099,17.4089311 C25.366712,19.3831239 23.6803311,20.7544027 21.7359018,20.7544027 L21.7359018,20.7544027 Z" id="Fill-1" fill="#000000" mask="url(#mask-2)"></path>
                </g>
                <path d="M23.6185389,25.0848675 L23.6115647,25.0848675 L5.04184655,24.9853166 C3.3498862,24.9755017 1.95642504,23.5859953 1.93410735,21.8866191 C1.92155364,21.0355289 2.24376538,20.2349152 2.84076376,19.6305991 C3.43776213,19.026283 4.22585578,18.7276302 5.07950766,18.702392 L7.83155857,18.6547197 C8.54572485,18.6589261 9.06182158,19.183321 9.07298043,19.8605477 C9.08553413,20.5377743 8.54711971,21.0972224 7.87340425,21.1084394 L5.09206136,21.1561117 C4.84935642,21.137884 4.70289654,21.2276201 4.57317493,21.3594199 C4.44205846,21.4912197 4.37231566,21.6664854 4.37510537,21.8529681 C4.37928994,22.2245313 4.68476341,22.5287926 5.05440025,22.5315968 L23.6255132,22.6311478 C24.2992287,22.633952 24.8418277,23.1863895 24.8390379,23.8650183 C24.8362482,24.5394406 24.2894647,25.0848675 23.6185389,25.0848675" id="Fill-4" fill="#000000"></path>
                <path d="M8.93112357,26.7669975 C8.30064865,26.7669975 7.78734164,27.2829797 7.78734164,27.9167405 C7.78734164,28.5505012 8.30064865,29.0664834 8.93112357,29.0664834 C9.56159849,29.0664834 10.0749055,28.5505012 10.0749055,27.9167405 C10.0749055,27.2829797 9.56159849,26.7669975 8.93112357,26.7669975 M8.93112357,31.5202032 C6.9546126,31.5202032 5.34634361,29.9035524 5.34634361,27.9167405 C5.34634361,25.9299286 6.9546126,24.3132778 8.93112357,24.3132778 C10.9076345,24.3132778 12.5159035,25.9299286 12.5159035,27.9167405 C12.5159035,29.9035524 10.9076345,31.5202032 8.93112357,31.5202032" id="Fill-6" fill="#000000"></path>
                <path d="M19.6730492,26.7546588 C19.0425743,26.7546588 18.5292673,27.270641 18.5292673,27.9044018 C18.5292673,28.5381625 19.0425743,29.0541447 19.6730492,29.0541447 C20.3035241,29.0541447 20.8168311,28.5381625 20.8168311,27.9044018 C20.8168311,27.270641 20.3035241,26.7546588 19.6730492,26.7546588 M19.6730492,31.5078644 C17.6965382,31.5078644 16.0882693,29.8912137 16.0882693,27.9044018 C16.0882693,25.9175899 17.6965382,24.3009391 19.6730492,24.3009391 C21.6495602,24.3009391 23.2578292,25.9175899 23.2578292,27.9044018 C23.2578292,29.8912137 21.6495602,31.5078644 19.6730492,31.5078644" id="Fill-8" fill="#000000"></path>
            </g>
        </g>
    </g>
</svg>