<?xml version="1.0" encoding="UTF-8" standalone="no"?>
<svg width="29px" height="29px" viewBox="0 0 29 29" version="1.1" xmlns="http://www.w3.org/2000/svg" xmlns:xlink="http://www.w3.org/1999/xlink">
    <!-- Generator: Sketch 3.7.2 (28276) - http://www.bohemiancoding.com/sketch -->
    <title>order-history-new-ui</title>
    <desc>Created with Sketch.</desc>
    <defs></defs>
    <g id="Page-1" stroke="none" stroke-width="1" fill="none" fill-rule="evenodd">
        <g id="577-585" transform="translate(-366.000000, -158.000000)" fill="#000000">
            <g id="order-history-new-ui" transform="translate(366.000000, 157.000000)">
                <g id="Group-3" transform="translate(0.000000, 0.613355)">
                    <path d="M14.1770323,29.0322581 C12.8725161,29.0322581 11.5602581,28.8522581 10.2692903,28.4903226 C6.58412903,27.4509677 3.52412903,25.0393548 1.65251613,21.7006452 C0.835741935,20.2432258 0.284129032,18.6754839 0.0131612903,17.0419355 C-0.0739354839,16.5135484 0.282193548,16.0141935 0.808645161,15.9270968 C1.34283871,15.8303226 1.83445161,16.1980645 1.92154839,16.7245161 C2.15767742,18.1374194 2.63380645,19.4922581 3.34025806,20.7541935 C4.96025806,23.6419355 7.60606452,25.7283871 10.7938065,26.6264516 C13.9815484,27.5264516 17.328,27.1277419 20.2157419,25.5077419 C23.1054194,23.8896774 25.1899355,21.2419355 26.088,18.0541935 C26.9860645,14.8683871 26.5892903,11.5219355 24.9712258,8.63225806 C23.3512258,5.74451613 20.7054194,3.65806452 17.5176774,2.76 C14.331871,1.86580645 10.9854194,2.26064516 8.09574194,3.87870968 C6.18154839,4.95096774 4.58477419,6.51096774 3.4796129,8.3883871 C3.20670968,8.84903226 2.61251613,9 2.15380645,8.73096774 C1.69316129,8.46 1.54025806,7.86774194 1.81122581,7.40709677 C3.09058065,5.23354839 4.93703226,3.42967742 7.14929032,2.19096774 C10.491871,0.319354839 14.3570323,-0.141290323 18.0421935,0.898064516 C21.7273548,1.93548387 24.7873548,4.34709677 26.6589677,7.68580645 C28.5305806,11.0264516 28.9892903,14.8954839 27.951871,18.5806452 C26.9144516,22.263871 24.5028387,25.323871 21.1621935,27.1954839 C18.9925161,28.4129032 16.5983226,29.0322581 14.1770323,29.0322581" id="Fill-1"></path>
                </g>
                <path d="M17.2983871,19.6354839 C17.0854839,19.6354839 16.8687097,19.563871 16.6887097,19.4187097 L13.1467742,16.5425806 C12.9203226,16.3567742 12.7867742,16.08 12.7887097,15.7858065 L12.8312903,7.21548387 C12.8351613,6.67935484 13.2725806,6.26322581 13.8048387,6.2516129 C14.3390323,6.25354839 14.7706452,6.69096774 14.7667742,7.22322581 L14.726129,15.3309677 L17.91,17.9167742 C18.3241935,18.2535484 18.386129,18.8632258 18.0512903,19.2774194 C17.8596774,19.5135484 17.5809677,19.6354839 17.2983871,19.6354839" id="Fill-4"></path>
                <path d="M2.64522581,9.47903226 C2.41103226,9.47903226 2.18458065,9.39387097 2.00651613,9.23709677 C1.80135484,9.05903226 1.68329032,8.8016129 1.67748387,8.53064516 L1.55941935,2.77645161 C1.54974194,2.24225806 1.9736129,1.80096774 2.50780645,1.78935484 C3.02264516,1.78354839 3.48522581,2.20354839 3.49490323,2.73774194 L3.59167742,7.43322581 L7.74716129,6.9783871 C8.28135484,6.91451613 8.75554839,7.3016129 8.81554839,7.83387097 C8.8736129,8.36419355 8.4903871,8.84225806 7.95812903,8.90225806 L2.75167742,9.47322581 C2.71490323,9.47709677 2.68006452,9.47903226 2.64522581,9.47903226" id="Fill-6"></path>
            </g>
        </g>
    </g>
</svg>