<?xml version="1.0" encoding="UTF-8" standalone="no"?>
<svg width="28px" height="29px" viewBox="0 0 28 29" version="1.1" xmlns="http://www.w3.org/2000/svg" xmlns:xlink="http://www.w3.org/1999/xlink">
    <!-- Generator: Sketch 3.7.2 (28276) - http://www.bohemiancoding.com/sketch -->
    <title>overall-rating-active-new-ui</title>
    <desc>Created with Sketch.</desc>
    <defs>
        <polygon id="path-1" points="11.9993544 29.0322581 0 29.0322581 0 0.0735483871 11.9993544 0.0735483871 23.9987088 0.0735483871 23.9987088 29.0322581 11.9993544 29.0322581"></polygon>
    </defs>
    <g id="Page-1" stroke="none" stroke-width="1" fill="none" fill-rule="evenodd">
        <g id="577-585" transform="translate(-54.000000, -271.000000)">
            <g id="overall-rating-active-new-ui" transform="translate(54.000000, 270.000000)">
                <path d="M21.3669049,19.4493481 L21.3983226,9.99096774 C21.4002581,9.1916129 22.0486452,8.87419355 22.8499355,8.87419355 L22.8538065,8.87419355 C23.6550968,8.87419355 24.3034839,9.24580645 24.3015484,10.0470968 L24.2716917,19.1125215 L24.6901935,18.7021935 C25.2611613,18.1409032 26.1824516,18.1505806 26.7418065,18.7215484 C27.3050323,19.2925161 27.2953548,20.211871 26.7224516,20.7731613 L23.7708387,23.6686452 C23.4901935,23.9454194 23.1224516,24.0847742 22.7547097,24.0847742 C22.4101935,24.0847742 22.0637419,23.9628387 21.7869677,23.7170323 L18.7018065,20.9628387 C18.1037419,20.4286452 18.0514839,19.5112258 18.5856774,18.9131613 C19.119871,18.3150968 20.0372903,18.2628387 20.6353548,18.7970323 L21.3669049,19.4493481 Z" id="Fill-1" fill="#000000"></path>
                <g id="Group-7" transform="translate(0.000000, 0.894968)">
                    <mask id="mask-2" fill="white">
                        <use xlink:href="#path-1"></use>
                    </mask>
                    <g id="Clip-6"></g>
                    <path d="M22.545871,29.0322581 C22.3136129,29.0322581 22.0774839,28.976129 21.8587742,28.8580645 L15.0032903,25.1670968 L8.53877419,28.5677419 C7.65812903,29.0283871 6.61683871,28.9509677 5.81167742,28.3703226 C5.00845161,27.7858065 4.61167742,26.816129 4.78006452,25.8387097 L6.01490323,18.6348387 L0.783290323,13.5367742 C0.0729677419,12.843871 -0.178645161,11.8258065 0.129096774,10.8812903 C0.43683871,9.93677419 1.23812903,9.26129032 2.22135484,9.11806452 L9.44845161,8.06709677 L12.6826452,1.51741935 C13.1200645,0.627096774 14.0103871,0.0735483871 15.0032903,0.0735483871 L15.0052258,0.0735483871 C15.998129,0.0735483871 16.8884516,0.62516129 17.3278065,1.51548387 L20.4052258,8.04387097 C20.745871,8.76967742 20.4361935,9.63483871 19.7103871,9.97548387 C18.9826452,10.32 18.1213548,10.0064516 17.7787742,9.28064516 L14.9994194,3.38322581 L11.9800645,9.50129032 C11.6026452,10.263871 10.8729677,10.7941935 10.0290968,10.9180645 L3.26458065,11.9012903 L8.15941935,16.6722581 C8.76909677,17.2664516 9.04780645,18.123871 8.90458065,18.963871 L7.74716129,25.7032258 L13.7994194,22.5212903 C14.5542581,22.1264516 15.4523226,22.1245161 16.2090968,22.5193548 L23.2349032,26.3032258 C23.9413548,26.6825806 24.2045806,27.5632258 23.8252258,28.2677419 C23.562,28.7554839 23.0626452,29.0322581 22.545871,29.0322581" id="Fill-5" fill="#000000" mask="url(#mask-2)"></path>
                </g>
            </g>
        </g>
    </g>
</svg>