<?xml version="1.0" encoding="UTF-8" standalone="no"?>
<svg width="28px" height="29px" viewBox="0 0 28 29" version="1.1" xmlns="http://www.w3.org/2000/svg" xmlns:xlink="http://www.w3.org/1999/xlink">
    <!-- Generator: Sketch 3.7.2 (28276) - http://www.bohemiancoding.com/sketch -->
    <title>overall-rating-new-ui</title>
    <desc>Created with Sketch.</desc>
    <defs>
        <polygon id="path-1" points="9.062 5.9628 9.062 0.971511155 0.824884128 0.971511155 0.824884128 5.9628 9.062 5.9628"></polygon>
        <polygon id="path-3" points="11.8992845 29 0 29 0 0.076 11.8992845 0.076 23.798569 0.076 23.798569 29 11.8992845 29"></polygon>
    </defs>
    <g id="Page-1" stroke="none" stroke-width="1" fill="none" fill-rule="evenodd">
        <g id="577-585" transform="translate(-625.000000, -211.000000)">
            <g id="overall-rating-new-ui" transform="translate(625.000000, 210.000000)">
                <path d="M23.0736,22.6698 L23.0716,22.6698 C22.5176,22.6698 22.0716,22.0678 22.0736,21.5138 L22.1116,9.6998 C22.1136,9.1498 22.5596,8.6698 23.1116,8.6698 L23.1136,8.6698 C23.6656,8.6698 24.1136,9.0798 24.1116,9.6318 L24.0736,21.5438 C24.0716,22.0938 23.6236,22.6698 23.0736,22.6698" id="Fill-1" fill="#000000"></path>
                <g id="Group-5" transform="translate(18.000000, 17.923800)">
                    <mask id="mask-2" fill="white">
                        <use xlink:href="#path-1"></use>
                    </mask>
                    <g id="Clip-4"></g>
                    <path d="M5.013,5.9628 C4.775,5.9628 4.537,5.8788 4.347,5.7088 L1.159,2.8648 C0.747,2.4988 0.711,1.8648 1.079,1.4528 C1.447,1.0428 2.077,1.0068 2.491,1.3728 L4.981,3.5928 L7.363,1.2568 C7.755,0.8728 8.389,0.8748 8.777,1.2728 C9.163,1.6668 9.157,2.3008 8.763,2.6868 L5.713,5.6768 C5.519,5.8668 5.265,5.9628 5.013,5.9628" id="Fill-3" fill="#000000" mask="url(#mask-2)"></path>
                </g>
                <g id="Group-8" transform="translate(0.000000, 0.923800)">
                    <mask id="mask-4" fill="white">
                        <use xlink:href="#path-3"></use>
                    </mask>
                    <g id="Clip-7"></g>
                    <path d="M22.3252,28.88 L15.0792,24.982 L8.0912,28.578 C7.3492,28.97 6.4732,28.902 5.7992,28.412 C5.1232,27.922 4.7912,27.106 4.9312,26.284 L6.2372,18.674 L0.6592,13.132 C0.0612,12.548 -0.1508,11.694 0.1092,10.9 C0.3672,10.108 1.0392,9.54 1.8652,9.418 L9.5052,8.308 L13.0532,1.29 C13.4232,0.542 14.1692,0.076 15.0052,0.076 C15.8392,0.076 16.5872,0.542 16.9572,1.29 L20.1312,8.026 C20.3672,8.524 20.1532,9.122 19.6552,9.356 C19.1572,9.59 18.5572,9.378 18.3232,8.876 L15.1572,2.158 L14.8452,2.176 L11.4292,9.098 C11.1152,9.736 10.5032,10.184 9.7952,10.288 L2.1532,11.398 L2.05520001,11.5372598 C2.05520001,11.5372598 2.02665276,11.729283 2.05520001,11.6999996 L7.5832,17.086 C8.0952,17.59 8.3292,18.308 8.2072,19.014 L6.9032,26.622 L7.6252,27.694 L7.1592,26.808 L13.9912,23.216 C14.6252,22.88 15.3832,22.88 16.0192,23.216 L23.2712,27.12 C23.7572,27.38 23.9412,27.988 23.6792,28.474 C23.4992,28.808 23.1532,29 22.7972,29 C22.6372,29 22.4752,28.96 22.3252,28.88 Z" id="Fill-6" fill="#000000" mask="url(#mask-4)"></path>
                </g>
            </g>
        </g>
    </g>
</svg>