<svg xmlns="http://www.w3.org/2000/svg" viewBox="0 0 512 512"><path d="M46 212c-1 0-3 1-5 2 2-1 4-2 5-2zm462-230l-2-3-2-4c-2-1-4-2-6-2-3-2-9-4-15-4-10 0-21 3-36 10h-1l-13 8-406 214c-8 4-14 8-18 12-10 9-10 18-8 23 1 5 5 14 18 18 5 1 9 1 16 2h188v185c0 9 2 16 3 21 2 4 4 8 6 11 5 4 10 6 16 6 13 0 22-12 28-22v-1l6-10v-1l218-409c1 0 1-1 1-1 8-17 16-38 7-53zm-473 235l406-215 14-7c7-3 16-7 24-8l-251 251h-193c-14-1-30-5 0-21zm450-190l-137 256v-72c0-5-4-9-9-9s-9 4-9 9v105l-30 57v-101c0-5-4-9-9-9s-9 5-9 9v135l-16 30-6 11c-3 6-8 13-12 13s-6-5-6-21v-190l252-252c0 6-3 15-9 29zm-438 184l1-1-1 1z"/></svg>