<svg xmlns="http://www.w3.org/2000/svg" viewBox="0 0 512 512"><path d="M234 148c0 12-9 22-22 22-12 0-22-10-22-22s10-22 22-22c13 0 22 10 22 22zm89 0c0 12-10 22-22 22-13 0-22-10-22-22s9-22 22-22c12 0 22 10 22 22zm169-2c-7-70-58-139-84-165-9-8-20-13-33-13-19 0-35 10-37 12l-35 26c-16-5-32-7-49-7-15 0-31 3-45 7l-36-26c-1-2-17-12-36-12-13 0-24 5-33 13-26 26-77 95-84 165 0 2-6 55 43 86 10 6 21 9 33 9 3 0 6 0 9-1-10 22-15 46-15 70 0 93 76 169 170 169 93 1 170-75 170-168 0-25-5-48-15-70h1c12 0 22-3 33-9 49-30 43-84 43-86zm-413 60c-31-20-28-55-28-57 6-62 52-123 75-146 3-3 7-4 11-4 8 0 17 4 19 6l20 15c-40 24-67 64-67 110 0 23 7 46 20 66-9 8-21 16-34 16-5-1-11-3-16-6zm320 105c0 76-62 138-139 138-78 0-140-62-140-138 0-38 16-74 43-100l10-10-5-6-4-7c-20-37-24-68-13-95 15-39 60-55 61-55l18-6c8-2 16-3 25-3 13 0 25 2 37 6l9 3c32 12 56 37 65 67 6 23 0 51-16 82l-8 10 10 9c2 3 7 9 15 15 20 25 32 56 32 90zm34-105c-6 3-11 5-17 5-10 0-21-5-28-12-2-2-4-4-7-6 12-19 18-41 18-63 0-12-1-23-5-34-1-5-3-10-4-14-13-31-37-50-56-61l22-16c2-1 11-6 19-6 4 0 7 1 11 4 23 23 69 84 75 146 0 1 4 37-28 57zm-134 169c-5 2-14-2-24-10v-82c17-4 29-14 29-26 0-16-20-28-44-28-25 0-44 12-44 28 0 12 12 22 28 26v82c-10 7-19 11-24 9s-9-9-12-15c-2-7-9-11-16-10-10 1-15 12-12 20 5 13 14 28 30 34 5 1 9 2 14 2 11 0 23-4 36-13 12 9 24 13 35 13 5 0 10 0 14-2 16-6 25-21 30-34 4-9-2-19-12-20-8-1-14 3-17 10-2 7-5 14-11 16z"/></svg>