<svg xmlns="http://www.w3.org/2000/svg" viewBox="0 0 512 512"><path d="M137-1c13 0 31 20 51 43l1 2 2 2c19 22 33 38 35 50 1 7-1 18-27 41-17 14-31 18-37 19-9 2-17 8-21 17-4 8-5 18-1 27 28 64 71 112 127 145 5 2 10 4 16 4 4 0 7-1 11-2 9-4 16-11 19-20 2-8 8-19 24-32 10-9 19-15 26-19 5-2 9-4 12-4 13 0 32 22 52 45 22 25 34 40 36 52 2 8-1 19-27 41l-3 3c-11 9-23 19-37 26-13 6-26 9-41 9-20 0-43-5-70-16-56-23-99-55-144-107s-70-99-85-157c-23-89 9-117 43-146 10-9 19-15 26-19 5-2 9-4 12-4m0-31c-8 0-16 2-26 7-9 5-20 12-33 23-36 31-80 70-53 178 17 63 44 114 93 170 48 56 95 90 155 115 30 13 57 19 82 19 20 0 38-4 55-13 19-9 33-22 47-33 22-19 42-41 37-70-4-21-19-40-43-68-27-31-49-55-76-55-8 0-16 2-26 7s-20 12-33 23c-18 15-28 32-33 46-53-30-90-74-114-129 15-4 33-12 51-27 22-20 42-42 37-70-4-21-20-40-44-68-27-31-48-55-76-55z"/></svg>