<svg xmlns="http://www.w3.org/2000/svg" viewBox="0 0 512 512"><path d="M214 301h-16c-4 0-6 3-6 6v17c0 3 2 5 6 5h16c4 0 6-2 6-5v-17c0-3-2-6-6-6zm50 0h-16c-4 0-6 3-6 6v17c0 3 2 5 6 5h16c4 0 6-2 6-5v-17c0-3-3-6-6-6zm50 0h-17c-3 0-6 3-6 6v17c0 3 3 5 6 5h17c3 0 6-2 6-5v-17c0-3-3-6-6-6zm-100 50h-16c-4 0-6 2-6 6v16c0 4 2 6 6 6h16c4 0 6-2 6-6v-16c0-3-2-6-6-6zm50 0h-16c-4 0-6 2-6 6v16c0 4 2 6 6 6h16c4 0 6-2 6-6v-16c0-3-3-6-6-6zm50 0h-17c-3 0-6 2-6 6v16c0 4 3 6 6 6h17c3 0 6-2 6-6v-16c0-3-3-6-6-6zm-100 50h-16c-4 0-6 2-6 6v16c0 3 2 6 6 6h16c4 0 6-3 6-6v-16c0-4-2-6-6-6zm50 0h-16c-4 0-6 2-6 6v16c0 3 2 6 6 6h16c4 0 6-3 6-6v-16c0-4-3-6-6-6zm50 0h-17c-3 0-6 2-6 6v16c0 3 3 6 6 6h17c3 0 6-3 6-6v-16c0-4-3-6-6-6zm42-367h-168v-51c0-8-7-15-15-15-9 0-15 7-15 15v51h-2c-27 0-48 22-48 49v348c0 27 21 49 48 49h199c27 0 49-22 49-49v-348c0-27-22-49-48-49zm17 397c0 10-8 18-18 18h-198c-10 0-18-8-18-18v-348c0-10 8-18 18-18h199c9 0 18 8 18 18v348zm-34-347h-166c-9 0-15 7-15 15v166c0 9 6 16 15 16h166c8 0 15-7 15-16v-166c0-8-6-15-15-15zm-15 166h-136v-135h135v135z"/></svg>