<?xml version="1.0" encoding="UTF-8" standalone="no"?>
<svg width="32px" height="29px" viewBox="0 0 32 29" version="1.1" xmlns="http://www.w3.org/2000/svg" xmlns:xlink="http://www.w3.org/1999/xlink">
    <!-- Generator: Sketch 3.7.1 (28215) - http://www.bohemiancoding.com/sketch -->
    <title>photos-camera-srp2</title>
    <desc>Created with Sketch.</desc>
    <defs></defs>
    <g id="Page-1" stroke="none" stroke-width="1" fill="none" fill-rule="evenodd">
        <g id="577-585" transform="translate(-52.000000, -156.000000)" fill="#000000">
            <g id="photos-camera-srp2" transform="translate(52.000000, 156.000000)">
                <path d="M30,4.66666667 L22,4.66666667 L22,2.66666667 C22,1.54133333 21.1253333,0.666666667 20,0.666666667 L12,0.666666667 C10.8746667,0.666666667 10,1.54133333 10,2.66666667 L10,4.66666667 L2,4.66666667 C0.874666667,4.66666667 0,5.54133333 0,6.66666667 L0,26.6666667 C0,27.792 0.874666667,28.6666667 2,28.6666667 L30,28.6666667 C31.1253333,28.6666667 32,27.792 32,26.6666667 L32,6.66666667 C32,5.54133333 31.1253333,4.66666667 30,4.66666667 L30,4.66666667 Z M16,24.6666667 C11.6253333,24.6666667 8,21.0413333 8,16.6666667 C8,12.292 11.6253333,8.66666667 16,8.66666667 C20.3746667,8.66666667 24,12.292 24,16.6666667 C24,21.0413333 20.3746667,24.6666667 16,24.6666667 L16,24.6666667 Z M16,12.6666667 C13.812,12.6666667 12,14.4786667 12,16.6666667 C12,18.8546667 13.812,20.6666667 16,20.6666667 C18.188,20.6666667 20,18.8546667 20,16.6666667 L16,16.6666667 L16,12.6666667 Z" id="Shape"></path>
            </g>
        </g>
    </g>
</svg>