<svg xmlns="http://www.w3.org/2000/svg" viewBox="0 0 512 512"><path d="M0-32v512h512v-512zm481 31v408l-70-137c-16-32-33-48-51-48-23 0-39 27-49 45l-64 109c-21-24-61-63-111-63-43 0-81 51-105 92v-406zm-13 450h-426c23-47 61-105 94-105 53 0 99 67 100 68 3 4 8 7 13 7s10-3 13-8l76-130c13-23 19-28 22-29 0 0 9 2 24 32zm-346-284h68c17 0 34-7 46-20 12-12 19-29 19-46 0-38-30-68-68-68-28 0-52 17-62 42-26 0-47 21-47 47 0 24 20 45 44 45zm2-62l6 1 18 7 3-18c3-18 18-32 36-32 21 0 37 17 37 37 0 10-4 19-10 26-7 6-15 10-25 10h-67c-8 0-14-7-14-15s7-16 16-16z"/></svg>