<svg xmlns="http://www.w3.org/2000/svg" viewBox="0 0 512 512"><path d="M342 54c-94 0-170 76-170 170s76 170 170 170c93 0 170-76 170-170s-76-170-170-170zm0 326c-86 0-156-70-156-156s70-156 156-156 156 70 156 156-70 156-156 156zm0-296c-77 0-140 63-140 140s63 140 140 140 140-63 140-140-63-140-140-140zm0 266c-70 0-126-56-126-126s56-126 126-126 126 56 126 126-56 126-126 126zm-72-126c0-12-10-22-22-22s-21 10-21 22 10 21 21 21c12 1 22-9 22-21zm-22 7c-4 0-7-3-7-7s3-8 7-8 7 4 7 8-3 7-7 7zm94-29c-12 0-21 10-21 22s9 21 21 21 22-9 22-21-10-22-22-22zm0 29c-4 0-7-3-7-7s3-8 7-8 7 4 7 8-3 7-7 7zm-67 38c-5 0-11 2-15 6-8 9-8 22 0 31 4 4 10 6 15 6 6 0 11-2 16-6 8-9 8-22 0-31-4-4-10-6-16-6zm6 27c-1 1-3 2-6 2-2 0-3-1-5-2-3-3-3-8 0-11 1-1 3-2 5-2 3 0 4 1 6 2 3 3 3 8 0 11zm61 0c-12 0-21 10-21 22s9 21 21 21 22-9 22-21-10-22-22-22zm0 29c-4 0-7-3-7-7s3-8 7-8 7 4 7 8-3 7-7 7zm66-56c-5 0-11 2-15 6-8 9-8 22 0 31 4 4 10 6 15 6 6 0 11-2 16-6 8-9 8-22 0-31-5-4-10-6-16-6zm5 27c-1 1-3 2-5 2s-4-1-5-2c-2-2-3-4-3-6s1-4 3-5c1-2 3-3 5-3s4 1 5 3c4 3 4 8 0 11zm23-94c-12 0-22 10-22 22s10 21 22 21 21-9 21-21-9-22-21-22zm0 29c-4 0-8-3-8-7s4-8 8-8 7 4 7 8-3 7-7 7zm-28-52c6 0 11-2 16-6 8-9 8-22 0-31-4-4-10-6-16-6-5 0-11 2-15 6-8 9-8 22 0 31 4 4 10 6 15 6zm-5-27c1-1 3-2 5-2s4 1 6 2c3 3 3 8 0 11-2 1-4 2-6 2s-4-1-5-2-2-3-2-5 1-4 2-6zm-61 0c12 0 22-10 22-22s-10-21-22-21-21 9-21 21c-1 12 9 22 21 22zm0-29c4 0 7 3 7 7s-3 8-7 8-7-4-7-8 3-7 7-7zm-67 56c6 0 11-2 16-6 8-9 8-22 0-31-4-4-10-6-16-6-5 0-11 2-15 6-8 9-8 22 0 31 4 4 10 6 15 6zm-5-27c2-1 4-2 6-2s4 1 5 2c3 3 3 8 0 11-1 1-3 2-5 2s-4-1-6-2c-2-3-2-8 0-11zm-122 72c0-4-3-7-7-7h-134c-4 0-7 3-7 7s3 7 7 7h134c4 0 7-3 7-7zm0-52h-81c-4 0-7 3-7 7s3 7 7 7h81c4 0 7-3 7-7s-3-7-7-7zm0 90h-81c-4 0-7 3-7 7s3 7 7 7h81c4 0 7-3 7-7s-3-7-7-7zm149-16c0 5-4 9-9 9s-9-4-9-9 4-9 9-9 9 4 9 9zm18-58c0 5-4 9-9 9s-9-4-9-9 4-9 9-9 9 4 9 9zm57-9c0 5-4 9-8 9-5 0-9-4-9-9s4-9 9-9c4 0 8 4 8 9zm24 67c0 5-4 9-9 9s-9-4-9-9 4-9 9-9 9 4 9 9zm-45 23c0 5-4 9-9 9s-9-4-9-9 4-9 9-9 9 4 9 9z"/></svg>