<svg xmlns="http://www.w3.org/2000/svg" viewBox="0 0 512 512"><path d="M448 55c-127-93-257-93-384 0-4 3-5 8-3 12l124 256c1 6 3 11 7 15l51 107c2 3 5 5 9 5s7-2 9-5l190-378c2-4 1-9-3-12zm-18 11l-11 22c-114-85-213-85-327 0l-10-22c117-83 231-83 348 0zm-107 182c2-5 5-8 10-9 3-2 7-1 10 0l-15 29c-6-4-9-13-5-20zm29-26c-8-3-17-4-26-1s-16 10-20 19c-8 16-2 36 14 45l-68 134-32-67c20 0 36-16 36-36s-16-36-36-36c-12 0-22 5-28 14l-92-189c110-83 201-83 311 0zm-150 94c0-10 8-18 18-18 9 0 17 8 17 18 0 9-8 17-17 17-5 0-8-2-11-4l-6-13h-1zm-9-209c-20 0-36 17-36 36 0 20 16 36 36 36s36-16 36-36c0-19-16-36-36-36zm0 54c-9 0-17-8-17-18 0-9 8-17 17-17 10 0 17 8 17 17 0 10-7 18-17 18zm119-14c20 0 36-16 36-36s-16-36-36-36-36 16-36 36 16 36 36 36zm0-54c10 0 17 8 17 18 0 9-7 17-17 17s-17-8-17-17c0-10 7-18 17-18z"/></svg>