<?xml version="1.0" encoding="UTF-8" standalone="no"?>
<svg width="26px" height="32px" viewBox="0 0 26 32" version="1.1" xmlns="http://www.w3.org/2000/svg" xmlns:xlink="http://www.w3.org/1999/xlink">
    <!-- Generator: Sketch 3.7.1 (28215) - http://www.bohemiancoding.com/sketch -->
    <title>pizza-slice-filled</title>
    <desc>Created with Sketch.</desc>
    <defs></defs>
    <g id="Page-1" stroke="none" stroke-width="1" fill="none" fill-rule="evenodd">
        <g id="577-585" transform="translate(-105.000000, -156.000000)" fill="#000000">
            <g id="pizza-slice-filled" transform="translate(104.000000, 156.000000)">
                <path d="M13.9130435,6.32626087 C10.0646957,6.19547826 5.56521739,8.67478261 2.89113043,10.1746087 L8.76104348,22.1746087 C8.89182609,21.1965217 9.93530435,20.3478261 11.0441739,20.3478261 C12.4132174,20.3478261 13.3926957,21.3913043 13.3926957,22.6963478 C13.3926957,24.0653913 12.4146087,25.0448696 11.0441739,25.0448696 C10.7186087,25.0448696 10.3916522,24.8486957 10.066087,24.7193043 L13.0657391,31.0455652 C13.261913,31.2417391 13.3913043,31.3711304 13.5874783,31.3711304 C13.7182609,31.3711304 14.1092174,31.2403478 14.1092174,31.0455652 L18.413913,22.3721739 C17.5666087,22.0466087 17.1088696,21.197913 17.1088696,20.2198261 C17.1088696,18.8507826 18.0869565,17.8713043 19.392,17.8713043 C19.7829565,17.8713043 20.2393043,18.002087 20.5662609,18.1968696 L24.7401739,10.0452174 C22.2622609,8.67617391 17.5666087,6.32765217 13.9144348,6.32765217 L13.9130435,6.32626087 Z M10.5864348,14.2177391 C9.2173913,14.2177391 8.23791304,13.1742609 8.23791304,11.8692174 C8.23791304,10.5001739 9.216,9.52069565 10.5864348,9.52069565 C11.8914783,9.52069565 12.9349565,10.4987826 12.9349565,11.8692174 C12.9349565,13.1742609 11.7606957,14.2177391 10.5864348,14.2177391 L10.5864348,14.2177391 Z M18.6086957,13.0434783 C17.4344348,13.0434783 16.5871304,12 16.5871304,11.021913 C16.5871304,9.84765217 17.5652174,9.00034783 18.6086957,9.00034783 C19.7829565,9.00034783 20.5648696,10.0438261 20.5648696,11.021913 C20.5648696,12 19.7815652,13.0434783 18.6086957,13.0434783 L18.6086957,13.0434783 Z M2.56556522,9.19513043 C4.91408696,7.82608696 9.93530435,5.02121739 13.9130435,5.152 C17.8907826,5.34817391 22.7826087,7.82608696 25.2605217,9.19513043 L26.6295652,6.32486957 C26.7603478,5.99930435 26.6295652,5.67234783 26.4333913,5.47756522 C18.0855652,-0.652521739 9.73773913,-0.652521739 1.38991304,5.47756522 C1.06434783,5.86852174 1.06434783,6.19547826 1.19373913,6.52104348 L2.56556522,9.19513043 Z M12.0876522,11.8692174 C12.0876522,12.6525217 11.4351304,13.3690435 10.5878261,13.3690435 C9.74052174,13.3690435 9.088,12.6511304 9.088,11.8692174 C9.088,11.021913 9.74052174,10.3693913 10.5878261,10.3693913 C11.4351304,10.3693913 12.0876522,11.021913 12.0876522,11.8692174 L12.0876522,11.8692174 Z M12.4132174,22.6963478 C12.4132174,23.4142609 11.826087,24.0653913 11.0441739,24.0653913 C10.3262609,24.0653913 9.73913043,23.4128696 9.73913043,22.6963478 C9.73913043,21.9798261 10.3262609,21.3913043 11.0441739,21.3913043 C11.8274783,21.3913043 12.4132174,21.9784348 12.4132174,22.6963478 L12.4132174,22.6963478 Z M18.7394783,21.7168696 C18.0869565,21.3913043 17.5652174,20.3478261 18.0869565,19.5645217 C18.6086957,18.7172174 19.392,18.3902609 20.2393043,18.8466087 L18.7394783,21.7168696 Z M19.7829565,11.021913 C19.7829565,11.6744348 19.2612174,12.1961739 18.6086957,12.1961739 C17.9561739,12.1961739 17.4344348,11.6744348 17.4344348,11.021913 C17.4344348,10.3693913 17.9561739,9.84765217 18.6086957,9.84765217 C19.2612174,9.84765217 19.7829565,10.3693913 19.7829565,11.021913 L19.7829565,11.021913 Z" id="Shape"></path>
            </g>
        </g>
    </g>
</svg>