<svg xmlns="http://www.w3.org/2000/svg" viewBox="0 0 512 512"><path d="M103 305c-1-9-1-21-2-36 0-8-7-15-15-15-9 0-16 7-15 16 0 14 0 26 1 35-36 7-65 36-71 74-4 23 2 46 16 65s35 31 58 35c4 1 9 1 13 1 44 0 81-32 87-75 4-23-2-47-16-66-14-18-34-30-56-34zm42 95c-4 31-34 53-65 49-15-3-29-11-38-23s-13-28-11-43c5-28 29-49 57-49l9 1c15 2 29 11 38 23s12 27 10 42zm321-364l42-42c6-6 6-16 0-22s-16-6-22 0l-42 42-41-41c-6-6-16-6-22 0-6 5-6 15 0 21l42 42-42 41c-5 6-5 16 0 22 4 3 7 4 11 4s8-1 11-4l41-42 42 42c3 3 7 4 11 4 3 0 8-1 10-4 6-6 6-16 0-22zm-29 137c0 16 0 32-1 47-1 8 6 16 14 16h1c8 0 15-6 16-14 1-16 1-33 1-51 0 0 0-16-16-16s-15 18-15 18zm9 99c-8-2-16 4-17 12-4 17-8 33-12 46-3 8 1 17 9 19 2 1 4 1 5 1 7 0 13-4 15-10 5-15 9-32 13-51 1-8-4-16-13-17zm-359-54h1c8 0 15-6 15-14 1-17 3-34 5-49 1-8-5-16-13-17-9-1-16 5-17 13-2 16-4 33-5 51-1 8 5 16 14 16zm99-217c-9-1-16 6-17 14 0 9 6 16 15 16 14 2 25 6 35 15 3 2 7 4 10 4 4 0 9-2 11-5 6-7 6-16-1-22-14-14-32-21-53-22zm-85 102l5 1c7 0 13-4 15-11 5-16 12-30 19-40 5-7 4-16-3-22-6-5-16-3-21 4-10 12-18 29-24 48-3 8 1 17 9 20zm199 217c-2-8-9-14-18-12-8 1-14 9-12 18 4 21 9 38 16 51 3 6 8 9 14 9 2 0 4-1 6-2 8-4 11-13 7-21-5-10-10-25-13-43zm87 59c-10 8-20 12-32 12h-4c-8 0-15 6-16 14 0 9 7 16 15 16 1 0 3 0 5 1 19 0 36-7 52-19 6-5 7-15 2-22-6-6-16-7-22-2zm-116-223c9-1 15-9 14-17-3-20-6-37-10-51-2-9-11-14-19-11-8 2-13 11-10 19 3 13 6 28 8 47 1 7 8 13 15 13h2zm8 116c8 0 15-8 14-16-1-12-1-24-2-35l-1-15c0-8-8-15-16-14-8 0-15 7-14 16l1 14c0 12 1 24 2 36 0 8 7 14 15 14h1z"/></svg>