<svg xmlns="http://www.w3.org/2000/svg" viewBox="0 0 512 512"><path d="M236 300h-43c-15 0-27 13-27 29v28c0 16 12 29 27 29h43c15 0 26-13 26-29v-28c0-16-11-29-26-29zm0 70h-43c-6 0-10-6-10-13v-28c0-6 4-12 10-12h43c5 0 10 6 10 12v28c0 7-5 13-10 13zm182-180l-1-1v-1l-30-58c-3-5-8-8-14-8h-228c-6 0-11 3-14 8l-30 58v1l-1 1c0 1 0 3-1 4v12c0 21 8 38 20 49v169c0 9 7 16 16 16h248c9 0 16-7 16-16v-171c12-12 19-28 19-46v-17zm-54 47c-5 0-11-2-15-4v-23h39c-2 14-13 27-24 27zm-214 0c-11 0-18-13-19-27h38v23c-4 2-12 4-19 4zm50-27h39v31c-5 5-11 7-20 7s-13-1-19-12zm39-57v26h-34l6-26zm68 0l7 26h-44v-26zm-37 57h48v26c-5 8-13 12-25 12-7 0-17-2-23-8zm108-31h-32l-7-26h25zm-224-26h26l-7 26h-33zm138 250v-74c0-6 5-12 10-12h24c5 0 9 6 9 12v74c0 2 0 4-1 6h-41l-1-6zm76 6h-17c1-2 1-4 1-6v-74c0-16-12-29-26-29h-24c-14 0-26 13-26 29v80h-126v-142c8 0 19-1 30-6 9 11 20 18 39 18 14 0 26-4 36-11 10 7 23 11 38 11 18 0 33-6 44-17 9 4 19 5 27 5h4v142zm128-154h-35c-9 0-16 7-16 16 0 8 7 15 16 15h35c9 0 16-7 16-15 0-9-7-16-16-16zm-12 88l-32-18c-7-4-16-1-20 6-5 7-2 17 5 21l32 17c2 1 5 2 7 2 6 0 11-3 14-8 4-7 1-16-6-20zm-29-130c2 0 4-1 5-2l33-14c8-3 12-12 9-20-4-8-13-11-21-8l-33 14c-7 3-11 12-8 20 3 6 8 10 15 10zm-388 58c0-9-7-16-16-16h-35c-9 0-16 7-16 16 0 8 7 15 16 15h35c9 0 16-7 16-15zm-7 54l-32 18c-7 4-10 13-6 20 3 5 8 8 14 8 3 0 5 0 7-2l32-17c7-4 10-13 5-21-4-7-13-10-20-6zm-41-128l33 14c2 1 4 2 5 2 6 0 12-4 15-10 3-8-1-17-9-20l-33-14c-8-3-17 0-20 8s1 17 9 20zm241-122c8 0 15-6 15-15v-36c0-8-7-15-15-15-9 0-16 7-16 15v36c0 9 7 15 16 15zm-82 3c3 5 8 8 14 8 2 0 5-1 7-2 8-4 10-13 6-21l-17-31c-4-7-13-10-21-6-7 4-10 13-6 21zm149 8l6 1c6 0 12-4 14-9l14-33c3-8 0-17-8-21-8-3-17 1-20 8l-14 34c-3 7 0 16 8 20z"/></svg>