<svg xmlns="http://www.w3.org/2000/svg" viewBox="0 0 512 512"><path d="M254 479c-120 0-205-83-205-198 0-61 36-127 38-130 3-6 9-9 16-8 6 1 11 5 13 12 0 0 10 37 23 58 8 14 17 23 27 30-6-29-12-73-3-118 23-124 120-154 125-155 5-2 11-1 15 3s6 10 5 15c-1 1-17 88 17 162l12 22c2-10 4-22 7-33 13-44 45-59 46-59 6-3 12-2 17 2 4 3 7 9 6 15-1 1-5 31 20 74 23 38 30 63 30 110 0 115-88 198-209 198zm-156-277c-8 22-17 51-17 79 0 96 71 166 173 166 103 0 177-70 177-166 0-42-5-61-25-95-13-22-20-42-23-58-3 6-6 12-8 19-9 34-7 74-7 75 1 7-4 13-10 16-7 2-15 0-19-6-1-2-29-42-42-69-26-56-25-117-23-152-26 15-67 50-80 119-12 68 12 136 13 137 2 5 1 11-3 16-4 4-10 6-16 5-2 0-47-12-76-58-5-9-10-19-14-28z"/></svg>