<svg xmlns="http://www.w3.org/2000/svg" viewBox="0 0 512 512"><path d="M165-9l6-17m316 189v-3c0-1 0-2-1-3v-2l-2-3-1-2c-1-1-2-1-2-2l-3-1v-1h-78l12-30 6 1c22 0 42-14 51-34 11-28-2-60-30-72-6-3-13-4-21-4-22 0-42 13-50 34-10 23-2 49 17 63l-18 41h-327l-3 1h-2c-1 0-1 1-1 1-1 0-2 1-2 1-1 1-2 1-2 2-1 1-2 1-2 2-1 1-1 2-2 2v3c-1 1-1 2-1 3v3l1 2 102 285h-54c-8 0-15 7-15 15s7 15 15 15h355c9 0 15-7 15-15s-6-15-15-15h-46l103-285c0-1 0-2 1-2zm-93-111c4-9 13-16 24-16 3 0 6 1 9 2 13 6 19 20 14 33s-20 19-33 14-19-20-14-33zm57 123l-24 67h-67l27-67zm-123 67h-243l-24-67h294zm-170 208c1-2 0-4 0-6l-63-173h220l-57 141c-4 7 0 16 8 19 2 1 4 1 6 1 5 0 11-3 13-9l62-152h69l-62 173c-1 2-1 4-1 6z"/></svg>