<svg xmlns="http://www.w3.org/2000/svg" viewBox="0 0 512 512"><path d="M485 327h-461c-5 0-9 4-9 8v26c0 28 23 51 51 51h376c29 0 52-23 52-51v-26c0-4-4-8-9-8zm9-79h-476c-10 0-18 9-18 19v17c0 10 8 18 18 18h476c10 0 18-8 18-18v-17c0-10-8-19-18-19zm-470-24h461c5 0 9-4 9-8v-35c0-80-66-145-146-145h-188c-80 0-145 65-145 145v35c0 4 4 8 9 8zm331-102c9 0 16 7 16 16 0 8-7 15-16 15-8 0-16-7-16-15 1-9 8-16 16-16zm-48-39c9 0 16 7 16 16 0 8-7 16-16 16s-16-8-16-16c0-9 7-16 16-16zm-53 39c9 0 16 7 16 16 0 8-7 15-16 15-8 0-16-7-16-15 1-9 8-16 16-16zm-53-39c9 0 16 7 16 16 0 8-7 16-16 16-8 0-15-8-15-16 0-9 7-16 15-16zm-58 39c9 0 16 7 16 16 0 8-7 15-16 15s-16-7-16-15c0-9 7-16 16-16z"/></svg>