<svg xmlns="http://www.w3.org/2000/svg" viewBox="0 0 512 512"><path d="M404 92c-4 0-8 0-13 1-20-70-85-119-159-119h-3c-89 1-161 72-163 161-39 10-66 44-66 85 0 48 39 87 87 87 9 0 16-7 16-16 0-8-7-15-16-15-31 0-56-25-56-56 0-30 22-54 51-57l13-1c15 2 29 10 38 23 3 4 8 7 13 7 3 0 6-1 9-3 7-5 8-15 3-22-14-20-37-33-61-36 4-70 62-126 134-127 74 1 135 62 135 136 0 16-3 31-8 45-2 8 2 17 10 19 2 1 3 1 5 1 6 0 12-4 15-10 6-18 9-36 9-55 0-6 0-12-1-17 3-1 6-1 8-1 43 0 78 35 78 77 0 43-35 77-78 77-8 0-15 7-15 15 0 9 7 16 15 16 60 0 108-49 108-108s-48-107-108-107zm-196 268c-5-7-14-9-21-5-8 4-10 13-6 21l28 48c3 4 8 7 13 7 3 0 6-1 8-2 7-4 10-13 6-21zm133-76c-4-8-14-10-21-6-7 5-9 14-5 21l50 86c3 5 8 8 14 8 2 0 5-1 7-2 7-5 10-14 6-21zm-29 106c-5-7-14-10-21-5-8 4-10 13-6 21l36 61c3 5 8 7 14 7 2 0 5-1 7-2 7-4 10-14 6-21zm-28-47l-35-59c-5-7-14-10-21-6-7 5-10 14-6 21l36 60c2 4 7 7 13 7 2 0 5-1 8-2 7-4 9-14 5-21zm-102-23l-20-34c-4-7-14-10-21-5-7 4-10 14-5 21l20 33c3 5 8 8 13 8 3 0 6-1 8-3 7-4 10-13 5-20z"/></svg>