<svg xmlns="http://www.w3.org/2000/svg" viewBox="0 0 512 512"><path d="M390 437l-109-88c-7-6-16-9-26-9-5 0-17 1-27 9l-103 88 42-132c1-4 2-9 2-14 0-14-7-31-20-39l-104-69h131c9 0 19-4 27-10 6-6 12-13 14-20v-1l1-1 37-135 37 135v1l1 1c2 7 7 14 14 20l20-24c-2-2-4-5-4-6l-42-150c-1-4-3-9-6-13-3-5-9-11-20-12-12 1-18 7-21 12-3 4-4 9-6 13l-41 150c-1 1-2 3-5 5-2 3-5 4-7 4h-142c-6 0-11 0-18 3-3 1-7 3-9 7-4 4-6 10-6 15 0 8 4 13 7 17s6 6 10 8l115 77c2 1 6 7 6 12 0 0 0 2-1 2l-46 147c-1 4-2 9-2 13 0 5 1 10 5 16s12 10 19 10h1c12-1 16-5 22-10l113-96c1-1 3-2 6-2s5 1 6 2l118 97c6 4 11 8 23 9 6 0 15-3 19-9s4-12 5-16c0-6-1-10-3-15zm115-154c-7-5-17-3-22 4l-42 59v-289c0-9-7-16-16-16-8 0-15 7-15 16v290l-44-60c-5-7-15-9-22-3-7 5-8 14-3 22l72 99c3 4 8 6 13 6s10-2 13-7l70-99c5-7 4-16-4-22z"/></svg>