<svg xmlns="http://www.w3.org/2000/svg" viewBox="0 0 512 512"><path d="M256 480c-107 0-194-87-194-194s87-194 194-194 194 87 194 194-87 194-194 194zm0-358c-90 0-164 74-164 164s74 163 164 163 163-73 163-163c0-91-73-164-163-164zm136-14l-24-16c-34-22-72-33-112-33s-79 11-112 33l-24 16v-97c0-24 19-43 43-43h186c23 0 43 19 43 43zm-136-80c36 0 72 8 105 25v-42c0-7-6-12-12-12h-186c-7 0-12 5-12 12v42c32-17 68-25 105-25zm86 243l-35 37c-1 2-1 3-1 5l6 51c1 4-4 7-8 6l-46-22c-2-1-3-1-5 0l-46 22c-4 2-9-2-8-6l6-51c0-2 0-3-2-5l-34-37c-3-3-2-9 3-9l50-10c2 0 3-1 4-3l25-44c2-4 8-4 10 0l24 45c1 1 2 2 4 2l50 10c5 0 6 6 3 9z"/></svg>