<?xml version="1.0" encoding="UTF-8" standalone="no"?>
<svg width="25px" height="32px" viewBox="0 0 25 32" version="1.1" xmlns="http://www.w3.org/2000/svg" xmlns:xlink="http://www.w3.org/1999/xlink">
    <!-- Generator: Sketch 3.7.1 (28215) - http://www.bohemiancoding.com/sketch -->
    <title>rate-us-new-fab</title>
    <desc>Created with Sketch.</desc>
    <defs></defs>
    <g id="Page-1" stroke="none" stroke-width="1" fill="none" fill-rule="evenodd">
        <g id="577-585" transform="translate(-261.000000, -156.000000)" fill="#000000">
            <g id="rate-us-new-fab" transform="translate(260.000000, 156.000000)">
                <path d="M19.7706667,14.312 C19.3333333,14.7493333 19.0826667,15.5 19.208,16.124 C19.2706667,16.5613333 19.6453333,16.812 20.02,16.7493333 C20.4573333,16.6866667 20.708,16.312 20.6453333,15.8746667 C20.6453333,15.7493333 20.708,15.4373333 20.8333333,15.3746667 L24.896,11.4373333 C25.8333333,10.5 25.7706667,9.62533333 25.6466667,9.24933333 C25.5213333,8.812 25.084,8.06133333 23.7093333,7.87466667 L18.1466667,7.06266667 C18.0213333,7.06266667 17.772,6.87466667 17.7093333,6.75066667 L15.2093333,1.688 C14.584,0.437333333 13.772,0.250666667 13.3346667,0.250666667 C12.8973333,0.250666667 12.084,0.438666667 11.46,1.688 L8.96,6.75066667 C8.89733333,6.876 8.648,7.06266667 8.52266667,7.06266667 L2.96,7.87466667 C1.58533333,8.06266667 1.148,8.812 1.02266667,9.24933333 C0.897333333,9.624 0.834666667,10.5 1.77333333,11.4373333 L6.08533333,15.5626667 L5.02266667,21.4373333 C4.83466667,22.812 5.39733333,23.4373333 5.71066667,23.688 C5.96133333,23.8133333 6.27333333,24 6.77333333,24 C7.08533333,24 7.524,23.9373333 8.08533333,23.6253333 L13.0853333,21 C13.2106667,20.9373333 13.46,20.9373333 13.5853333,21 L18.5853333,23.6253333 C19.836,24.2506667 20.5853333,23.9373333 20.96,23.688 C21.272,23.4373333 21.8346667,22.8133333 21.5853333,21.4373333 C21.5226667,21.0626667 21.148,20.7493333 20.7733333,20.812 C20.336,20.9373333 20.0853333,21.312 20.148,21.6866667 C20.2106667,22.1866667 20.148,22.4373333 20.0853333,22.4986667 C19.96,22.5613333 19.7106667,22.5613333 19.2733333,22.3106667 L14.336,19.6853333 C13.7733333,19.3733333 12.8986667,19.3733333 12.336,19.6853333 L7.39866667,22.3106667 C6.96133333,22.5613333 6.71066667,22.5613333 6.58666667,22.4986667 C6.524,22.436 6.46133333,22.1866667 6.524,21.6866667 L7.58666667,15.436 C7.64933333,15.1853333 7.58666667,14.936 7.39866667,14.8106667 L2.836,10.3733333 C2.524,9.99866667 2.39866667,9.748 2.46133333,9.68533333 C2.46133333,9.56 2.712,9.43466667 3.14933333,9.37333333 L8.77466667,8.56133333 C9.4,8.436 10.0253333,7.99866667 10.3373333,7.436 L12.8373333,2.37333333 C13.0253333,1.936 13.212,1.748 13.3373333,1.748 C13.4,1.748 13.6493333,1.936 13.8373333,2.37333333 L16.3373333,7.436 C16.6493333,7.99866667 17.2746667,8.436 17.9,8.56133333 L23.5253333,9.37333333 C23.9626667,9.436 24.2133333,9.56133333 24.2133333,9.68533333 C24.276,9.748 24.1506667,9.99733333 23.8386667,10.3733333 L19.7706667,14.312 Z M13.3333333,24.0626667 C12.896,24.0626667 12.5826667,24.4373333 12.5826667,24.8133333 L12.5826667,31.0013333 C12.5826667,31.376 12.8946667,31.752 13.3333333,31.752 C13.772,31.752 14.084,31.3773333 14.084,31.0013333 L14.084,24.8133333 C14.084,24.4386667 13.772,24.0626667 13.3333333,24.0626667 L13.3333333,24.0626667 Z M5.83333333,26.312 C5.396,26.312 5.08266667,26.6866667 5.08266667,27.0626667 L5.08266667,29.5 C5.08266667,29.8746667 5.39466667,30.2506667 5.83333333,30.2506667 C6.272,30.2506667 6.584,29.876 6.584,29.5 L6.584,27.0626667 C6.584,26.688 6.272,26.312 5.83333333,26.312 L5.83333333,26.312 Z M20.584,26.312 C20.1466667,26.312 19.8333333,26.6866667 19.8333333,27.0626667 L19.8333333,29.5 C19.8333333,29.8746667 20.1453333,30.2506667 20.584,30.2506667 C21.0226667,30.2506667 21.3346667,29.876 21.3346667,29.5 L21.3346667,27.0626667 C21.3346667,26.688 21.0226667,26.312 20.584,26.312 L20.584,26.312 Z" id="Shape"></path>
            </g>
        </g>
    </g>
</svg>