<svg xmlns="http://www.w3.org/2000/svg" viewBox="0 0 512 512"><path d="M466 182c-4-25-26-43-51-43h-115c-2 0-2-1-3-1v-3c3-6 6-13 9-21 16-44 16-93 0-119-9-15-21-19-29-20h-11c-39 0-49 52-52 69-17 90-76 117-119 138-7 3-13 6-19 9-17 9-27 27-27 46v154c0 29 23 52 52 52h293c26 0 48-19 51-45l22-214zm-73 233h-292c-14 0-25-11-25-24v-154c0-9 5-17 13-21 5-3 12-6 18-9 43-20 115-54 134-158 3-17 11-46 25-46h8c3 1 6 3 8 6 10 16 13 55-2 95-3 7-6 13-8 18-4 10-4 20 1 29 5 10 16 16 27 16h115c11 0 21 8 24 18l-5 48h-135c-8 0-14 6-14 14s6 14 14 14h132l-7 63h-125c-8 0-14 6-14 14s6 14 14 14h123l-5 42c-1 12-11 21-24 21z"/></svg>