<svg xmlns="http://www.w3.org/2000/svg" viewBox="0 0 512 512"><path d="M354 293l-45-85 30-16 45 86zm-155-139l29 17-44 78-30-16zm-11 190h85v34h-85zm-86 119c-56 0-102-46-102-103 0-56 46-102 102-102 57 0 103 46 103 102 0 57-46 103-103 103zm0-171c-37 0-68 31-68 69 0 37 31 68 68 68 38 0 69-31 69-69 0-37-31-68-69-68zm308 171c-57 0-103-46-103-103 0-56 46-102 103-102 56 0 102 46 102 102 0 57-46 103-102 103zm0-171c-38 0-69 31-69 69 0 37 31 68 69 68 37 0 68-31 68-68 0-38-31-69-68-69zm-154-102c-57 0-102-46-102-102 0-57 45-103 102-103s102 46 102 103c0 56-45 102-102 102zm0-171c-38 0-68 31-68 69 0 37 30 68 68 68s68-31 68-68c0-38-30-69-68-69z"/></svg>