<?xml version="1.0" encoding="UTF-8" standalone="no"?>
<svg width="22px" height="32px" viewBox="0 0 22 32" version="1.1" xmlns="http://www.w3.org/2000/svg" xmlns:xlink="http://www.w3.org/1999/xlink">
    <!-- Generator: Sketch 3.7.1 (28215) - http://www.bohemiancoding.com/sketch -->
    <title>review-new-fab</title>
    <desc>Created with Sketch.</desc>
    <defs></defs>
    <g id="Page-1" stroke="none" stroke-width="1" fill="none" fill-rule="evenodd">
        <g id="577-585" transform="translate(-313.000000, -156.000000)" fill="#000000">
            <g id="review-new-fab" transform="translate(312.000000, 156.000000)">
                <path d="M22.8746667,18 L19.124,9.688 C18.9986667,9.43733333 18.812,9.31333333 18.4986667,9.31333333 L5.49866667,9.31333333 C5.18666667,9.31333333 4.936,9.43866667 4.87333333,9.688 L1.12266667,18 L1.12266667,18.1253333 C1.12266667,18.1253333 1.12266667,18.188 1.06,18.2506667 C1.06,18.2506667 1.06,18.3133333 1.12266667,18.376 L1.12266667,18.5013333 C1.12266667,18.564 1.12266667,18.564 1.18533333,18.6266667 L1.18533333,18.6893333 L2.18533333,20.064 C2.31066667,20.252 2.56,20.3146667 2.748,20.3146667 C2.87333333,20.3146667 2.99866667,20.252 3.12266667,20.1893333 C3.43466667,20.0013333 3.49733333,19.564 3.31066667,19.252 L2.56,18.1893333 L5.93466667,10.6266667 L18.06,10.6266667 L21.4346667,18.1893333 L12.684,29.8146667 L12.684,20.252 C13.7466667,19.94 14.5586667,18.94 14.5586667,17.752 C14.5586667,16.3146667 13.4333333,15.1266667 11.996,15.1266667 C10.5586667,15.1266667 9.37066667,16.3146667 9.37066667,17.752 C9.37066667,18.94 10.1826667,19.94 11.308,20.252 L11.308,29.6893333 L5.496,22.064 C5.24533333,21.752 4.87066667,21.6893333 4.55866667,21.9386667 C4.24666667,22.188 4.184,22.6266667 4.43333333,22.876 L10.684,31.064 C10.996,31.4386667 11.4346667,31.6893333 11.996,31.752 L11.996,31.752 L11.996,31.752 L12.0586667,31.752 L12.0586667,31.752 C12.6213333,31.752 13.1213333,31.5013333 13.4333333,31.064 L22.7453333,18.6893333 C22.9333333,18.5013333 22.9333333,18.252 22.8706667,18.0013333 L22.8746667,18 Z M10.7506667,17.7506667 C10.7506667,17.0626667 11.3133333,16.5 12.0013333,16.5 C12.6893333,16.5 13.252,17.0626667 13.252,17.7506667 C13.252,18.4386667 12.6893333,18.9386667 12.0013333,18.9386667 C11.3133333,18.9386667 10.7506667,18.4386667 10.7506667,17.7506667 L10.7506667,17.7506667 Z M5.43733333,6.812 L18.5626667,6.812 C19.1253333,6.812 19.6253333,6.312 19.6253333,5.68666667 L19.6253333,1.37466667 C19.6253333,0.812 19.1253333,0.312 18.5626667,0.312 L5.43733333,0.312 C4.87466667,0.312 4.37466667,0.812 4.37466667,1.37466667 L4.37466667,5.68666667 C4.37466667,6.312 4.87466667,6.812 5.43733333,6.812 L5.43733333,6.812 Z M5.75066667,1.688 L18.2506667,1.688 L18.2506667,5.43866667 L5.75066667,5.43866667 L5.75066667,1.688 Z" id="Shape"></path>
            </g>
        </g>
    </g>
</svg>