<svg xmlns="http://www.w3.org/2000/svg" viewBox="0 0 512 512"><path d="M487 244l-145-1h-1c-5 0-9 3-11 7l-1 2c-12 24-41 38-65 30-12-4-22-13-30-24-10-18-10-41 1-58 13-20 36-28 59-23 14 3 27 13 35 25 3 4 7 6 11 6l147 2c13 0 24-11 24-25 0-13-15-25-22-27-15-6-52-32-110-75-25-21-45-42-57-55l-11-11c-10-9-21-12-33-11h-2l-171 51c-5 1-11 4-15 9-6-7-14-11-23-12h-29c-22 0-37 22-37 42l-1 248c0 20 15 42 36 42h29c9 0 18-5 24-11 4 5 9 8 13 9l175 57c3 0 5 1 7 1 10 0 20-4 27-12 12-13 43-47 69-67 39-30 88-59 107-66 8-3 23-15 23-28 0-14-11-25-23-25zm-422 116h-29c-5 0-11-9-11-16l1-248c0-8 6-17 12-17h28c3 0 8 5 11 11v258c-3 6-8 12-12 12zm414-88c-22 8-73 38-114 70-27 21-57 53-72 70-2 2-6 3-9 3v1l-175-57c-1-1-5-5-7-12v-252c2-8 7-13 10-14l171-50c4 0 8 2 11 4 3 3 6 6 10 11 13 14 33 34 59 57 62 46 99 71 118 79l4 3-138-2c-12-15-28-26-46-30-34-8-68 5-86 33-17 26-17 59-1 85 10 16 25 28 43 34 34 12 74-5 93-37l133 1c-2 2-4 3-4 3z"/></svg>