<svg xmlns="http://www.w3.org/2000/svg" viewBox="0 0 512 512"><path d="M135 404l-8-6c-4-4-6-10-2-14s10-6 14-2l17 10c6 2 6 8 4 14-2 4-8 6-15 4-4-2-8-4-10-6zm-65-63c-2 0-2-2-4-4-5-7-9-13-11-19-2-4 0-10 4-14 4-2 11 0 15 4 2 6 6 12 10 16 2 4 2 11-4 15-2 4-6 4-10 2zm151 90c-4-2-6-6-4-10 0-7 6-11 10-11h19c6 0 10 4 10 11 0 6-4 10-10 10h-21c-2 2-4 2-4 0zm-180-187c-2-2-4-4-4-8v-20c0-6 6-10 10-10 6 0 10 6 10 10v18c0 6-4 10-10 10-2 3-4 3-6 0zm278 168c-2 0-2-2-4-4-2-4 0-10 4-14 7-2 13-6 17-10 4-2 10-2 14 4 2 4 2 10-4 14s-12 8-18 10c-2 2-6 2-9 0zm76-65c-6-4-6-10-4-14 2-3 4-7 6-9s4-6 4-8c2-4 9-6 15-4s6 8 4 14l-6 11-6 8c-2 2-9 4-13 2zm-323-195c-4-2-6-8-4-14 53-90 165-123 258-82l-11-35c-2-6 2-10 7-12 6-2 10 2 12 8l16 57c2 5 0 9-4 11s-8 2-12 0c-86-51-199-25-252 63 0 6-6 8-10 4zm213-37c-2 0-2-2-4-4-2-4 0-10 4-14l53-29c4-2 10 0 14 4 2 5 0 11-4 15l-53 28c-4 3-8 3-10 0z"/></svg>