<svg xmlns="http://www.w3.org/2000/svg" viewBox="0 0 512 512"><path d="M88 385c5-7 17-7 21-3 5 5 12 10 17 14 7 5 9 14 2 21-5 7-14 9-21 2-7-4-12-9-19-16-7-2-7-14 0-18zm-48-35c-5-7-10-14-12-21-5-7 0-17 7-21 7-5 16 0 21 7l9 18c5 7 2 17-4 21-5 5-14 3-19-2 0 0 0-2-2-2zm125 86c3-7 12-12 19-10 7 3 14 5 21 5 9 2 14 9 11 19-2 9-9 14-18 11-7-2-16-2-26-4-2 0-4-3-4-3-3-7-5-14-3-18zm-156-179c0-10-2-19 0-26 0-9 7-14 17-14 9 0 14 7 14 16v21c0 10-5 17-14 17-5 0-10 0-12-5-2-2-5-7-5-9zm7-66c3 3 5 3 7 3 10 2 17-5 17-12 9-51 34-95 76-126 42-30 93-44 142-34 49 9 96 34 124 76 30 42 42 93 35 145 0 7 2 11 7 16 4 2 11 2 16-2l58-54c7-5 7-16 0-21-5-7-16-7-21 0l-30 28c0-44-16-88-42-126-33-53-84-83-142-93-58-9-116 5-165 40-47 35-79 88-89 146 0 5 3 10 7 14zm405 63c7 5 17 5 21-2 5-7 5-16-2-21l-54-49c-4-5-14-2-21 2-4 7-4 17 3 21z"/></svg>