<svg xmlns="http://www.w3.org/2000/svg" viewBox="0 0 512 512"><path d="M178 419h-6c-4-2-10-5-12-7 0 0-2-2-4-2-2-2-4-2-4-4-7-6-9-14-2-20 4-4 8-6 12-6s6 2 8 4 4 2 8 4l8 6c2 0 4 2 7 6 2 4 2 8 0 14-5 3-11 5-15 5zm-16-11l-8-6c-4-4-7-10-2-14 4-4 10-6 14-2l16 10c6 2 6 8 4 14-2 4-8 7-14 4-4-2-8-4-10-6zm-60-59c-2 0-4 0-6-2-2 0-2-2-4-4l-2-2c-4-6-8-13-10-19-2-4 0-12 4-18 2-2 4-2 6-2 4 0 10 2 14 6 2 6 7 12 11 16 4 6 4 15-4 21-2 4-7 4-9 4zm-6-4c-2 0-2-2-4-4-4-6-8-13-10-19-2-4 0-10 4-14 4-2 10 0 14 4 2 6 6 12 11 16 2 5 2 11-5 15-2 4-6 4-10 2zm152 92c-6-2-10-8-6-14 0-6 8-13 14-13h18c9 0 15 7 15 15s-6 14-15 14h-18l-4 2zm0-2c-4-2-6-6-4-10 0-6 6-11 10-11h18c7 0 11 5 11 11s-4 10-11 10h-20c-2 2-4 2-4 0zm-176-180c-2 0-4 0-6-2-3-2-7-6-7-11v-20c0-8 9-14 15-14 8 0 14 8 14 14v18c0 9-6 15-12 15-2-2-2 0-4 0zm-4-6c-2-2-5-5-5-9v-20c0-6 7-10 11-10 6 0 10 6 10 10v18c0 6-4 11-10 11-2 2-4 2-6 0zm282 174c-2 0-4 0-6-2-2 0-4-2-4-4l-2-3c-2-6 0-14 4-18 6-2 12-6 16-10 4-2 7-2 9-2 4 0 10 2 12 6 4 6 2 14-6 20-6 4-13 9-19 11 2 0 0 2-4 2zm-4-6c-2 0-2-3-4-5-2-4 0-10 4-14 6-2 12-6 16-10 5-2 11-2 15 4 2 4 2 10-4 14s-13 8-19 11c-2 2-6 2-8 0zm80-62h-4c-8-6-8-14-6-20 2-2 2-5 4-5 2-2 2-4 4-4 2-2 2-4 2-6 2-6 8-8 14-8h6c3 0 13 4 7 21l-4 6-3 4c-2 2-2 4-4 4-2 2-2 4-4 4-4 2-8 4-12 4zm-4-4c-6-4-6-10-4-14l6-9c2-2 4-6 4-8 2-4 8-6 14-4 7 2 7 8 4 14-2 5-4 7-6 11l-6 8c-2 2-8 4-12 2zm-318-188c-2 0-6-2-8-5-4-2-8-10-4-18 37-63 107-102 180-102 27 0 52 4 76 14l-8-27c-2-6 0-14 8-16h4c6 0 10 4 13 12l16 58c2 6 0 12-6 14-2 2-6 2-8 2s-7 0-9-2c-28-16-59-25-92-25-63 0-121 33-153 86 0 2-2 4-2 7l-7 2zm-6-7c-4-2-6-8-4-14 53-90 166-123 258-82l-10-35c-2-6 2-10 6-12 6-2 10 2 12 8l17 58c2 4 0 8-4 10s-8 2-13 0c-86-51-198-25-251 63 0 6-7 9-11 4zm217-30c-2 0-4 0-6-2-2 0-4-2-4-4l-2-2c-4-7 0-15 4-19l53-29 7-2c4 0 10 2 14 6 4 7 2 15-4 21l-53 29c-2 0-5 2-9 2zm-4-6c-2 0-2-2-4-5-2-4 0-10 4-14l54-29c4-2 10 0 14 5 2 4 0 10-4 14l-53 29c-5 2-9 2-11 0z"/></svg>