<svg xmlns="http://www.w3.org/2000/svg" viewBox="0 0 512 512"><path d="M158 216c0-55 44-99 98-99s98 44 98 99c0 54-44 98-98 98s-98-44-98-98zm240 264h99c8 0 15-7 15-15v-482c0-8-7-15-15-15h-98l-1 31v69h-284v-100h-32c-4 0-8 2-11 5l-66 66c-3 3-5 7-5 11v415c0 8 7 15 15 15h98l1-31v-35h284v35zm-135-264c0-4-3-7-7-7s-7 2-7 7c0 4 3 7 7 7s7-3 7-7zm61 0c0-38-31-68-68-68s-68 31-68 68 31 67 68 67 68-30 68-67zm-92 0c0-14 11-24 24-24s24 10 24 24c0 13-11 23-24 23s-24-10-24-23zm-101 217h250v47h-250zm3-465h244v81h-244z"/></svg>