<svg xmlns="http://www.w3.org/2000/svg" viewBox="0 0 512 512"><path d="M497-29h-414c-4 0-8 2-11 5l-66 66c-3 3-5 6-5 11v414c0 8 7 15 16 15h480c8 0 15-7 15-15v-481c0-8-7-15-15-15zm-98 31v68h-284v-68zm-284 449v-35h284v35zm367 0h-53v-50c0-9-6-16-15-16h-315c-8 0-15 7-15 16v50h-52v-392l52-52v79c0 8 7 15 15 15h315c9 0 15-7 15-15v-84h53zm-225-331c-54 0-98 44-98 98s44 98 98 98 98-44 98-98-44-98-98-98zm0 166c-38 0-68-31-68-68s30-67 68-67c37 0 67 30 67 67s-30 68-67 68zm0-91c-13 0-24 10-24 23s11 24 24 24 23-11 23-24-10-23-23-23zm0 30c-4 0-7-3-7-7s3-7 7-7 7 3 7 7-3 7-7 7z"/></svg>