<?xml version="1.0" encoding="UTF-8" standalone="no"?>
<svg width="24px" height="30px" viewBox="0 0 24 30" version="1.1" xmlns="http://www.w3.org/2000/svg" xmlns:xlink="http://www.w3.org/1999/xlink">
    <!-- Generator: Sketch 3.7.2 (28276) - http://www.bohemiancoding.com/sketch -->
    <title>saved-offers-new-ui</title>
    <desc>Created with Sketch.</desc>
    <defs></defs>
    <g id="Page-1" stroke="none" stroke-width="1" fill="none" fill-rule="evenodd">
        <g id="577-585" transform="translate(-160.000000, -211.000000)" fill="#000000">
            <g id="saved-offers-new-ui" transform="translate(160.000000, 211.000000)">
                <path d="M7.48556047,25.6416334 C7.65261302,25.6416334 7.81966557,25.6930342 7.95941145,25.797442 L9.94637302,27.2527267 L11.8016201,25.6946405 C12.093962,25.4488805 12.5196248,25.4440616 12.8183918,25.680184 L14.5933252,27.0937056 L15.9056515,25.7717416 C16.2140562,25.4633369 16.710395,25.4553056 17.0268311,25.7540726 L18.4499903,27.0953118 L19.7366162,25.715522 C20.0353832,25.3974797 20.531722,25.3733856 20.8577958,25.662515 C21.2224201,25.9869824 21.5404624,26.2680805 21.8119228,26.5122342 L21.853686,3.19394713 L20.7758758,4.07739811 C20.4706836,4.32637065 20.0289581,4.31833928 19.7334036,4.05651654 L17.9954146,2.51128046 L16.3698648,4.03563497 C16.0518224,4.33440203 15.5506648,4.32155183 15.2454726,4.00993458 L13.8753205,2.59962556 L12.3734538,3.89588909 C12.0602303,4.16734948 11.5895918,4.15449928 11.2908248,3.8637636 L9.95761694,2.57071262 L8.30154792,3.91195183 C8.01402478,4.14486163 7.60603106,4.15128673 7.30887027,3.9264083 L5.46165459,2.51770556 L3.74133459,3.91195183 C3.457024,4.14164909 3.0538491,4.15128673 2.75990086,3.93443967 L1.60659576,3.08632673 L1.60659576,26.6584052 L2.73580675,25.9339754 C3.02332988,25.7492538 3.39277302,25.7653165 3.66262714,25.9741322 L5.26247655,27.2141761 L6.979584,25.8215361 C7.12575498,25.7026718 7.30565773,25.6416334 7.48556047,25.6416334 M22.6134538,29.1834687 C22.5652656,29.1834687 22.5170773,29.1802561 22.4688891,29.1706185 C22.2488295,29.1304616 22.0641079,29.0035659 21.9468499,28.8300883 C21.7557032,28.6341228 21.0907056,28.0253448 20.3759134,27.3860475 L19.0748311,28.7819001 C18.9286601,28.9377087 18.7262695,29.0292663 18.512635,29.0356914 C18.2941816,29.0485416 18.0917911,28.9634091 17.9359824,28.8172381 L16.4951542,27.4583299 L15.2261973,28.7369244 C14.9370679,29.0260538 14.4760671,29.0549667 14.1548122,28.7995691 L12.3316907,27.3474969 L10.4973252,28.8879142 C10.2146209,29.1272491 9.80341459,29.1400993 9.5062538,28.9216459 L7.51126086,27.4583299 L5.77969694,28.8622138 C5.49056753,29.0983361 5.07775498,29.103155 4.78220047,28.875064 L3.12613145,27.5916507 L1.23715263,28.8043879 C0.989786353,28.9618028 0.674956549,28.9714405 0.417952627,28.8333009 C0.159342431,28.6919487 0.000321254902,28.4204883 0.000321254902,28.1281463 L0.000321254902,1.49772124 C0.000321254902,1.19413536 0.170586353,0.91624987 0.440440471,0.779716537 C0.710294588,0.643183204 1.03636831,0.672096145 1.27891576,0.850392615 L3.21287027,2.27355183 L4.93961537,0.872880459 C5.22713851,0.639970655 5.63673851,0.635151831 5.93229302,0.858423988 L7.78111498,2.26712673 L9.49982871,0.872880459 C9.81626478,0.619089086 10.274053,0.63836438 10.5647887,0.921068694 L11.8803275,2.1996632 L13.3982569,0.888943204 C13.7179056,0.612663988 14.2013942,0.631939282 14.498555,0.937131439 L15.8478256,2.32334634 L17.4332185,0.839148694 C17.7351981,0.554838106 18.2058365,0.548413008 18.5158475,0.824692223 L20.2891746,2.40044752 L22.1508467,0.876093008 C22.3917879,0.676914968 22.7226805,0.63836438 23.0053848,0.771685164 C23.2848765,0.905005949 23.4647793,1.18771026 23.463173,1.49932752 L23.4165911,28.1570593 C23.4904797,28.3385683 23.4406852,28.4686765 23.3667965,28.664642 C23.246326,28.9810781 22.9427401,29.1834687 22.6134538,29.1834687" id="Fill-1"></path>
                <path d="M7.86512314,20.3341812 C7.68040157,20.3341812 7.49568,20.2699302 7.34308392,20.1414282 C7.00576627,19.8539051 6.96560941,19.3463223 7.25473882,19.0090047 L15.7181992,9.09347214 C16.0073286,8.7561545 16.5149114,8.71921018 16.8506227,9.00352077 C17.1879404,9.29104391 17.2280973,9.79862665 16.9405741,10.1359443 L8.47550745,20.0530831 C8.31648627,20.2378047 8.09160784,20.3341812 7.86512314,20.3341812" id="Fill-4"></path>
                <path d="M8.54746855,10.7389398 C8.16838776,10.7389398 7.85998306,11.0473445 7.85998306,11.4264252 C7.85998306,11.8038998 8.16838776,12.1123045 8.54746855,12.1123045 C8.92494306,12.1123045 9.23334776,11.8038998 9.23334776,11.4264252 C9.23334776,11.0473445 8.92494306,10.7389398 8.54746855,10.7389398 M8.54746855,13.718579 C7.28333051,13.718579 6.25370855,12.6905633 6.25370855,11.4264252 C6.25370855,10.1622872 7.28333051,9.13266524 8.54746855,9.13266524 C9.81160659,9.13266524 10.8396223,10.1622872 10.8396223,11.4264252 C10.8396223,12.6905633 9.81160659,13.718579 8.54746855,13.718579" id="Fill-6"></path>
                <path d="M15.5309076,17.1270935 C15.1534331,17.1270935 14.8450284,17.4354982 14.8450284,17.8129727 C14.8450284,18.1920535 15.1534331,18.5004582 15.5309076,18.5004582 C15.9099884,18.5004582 16.2183931,18.1920535 16.2183931,17.8129727 C16.2183931,17.4354982 15.9099884,17.1270935 15.5309076,17.1270935 M15.5309076,20.1067327 C14.2667696,20.1067327 13.2387539,19.0771107 13.2387539,17.8129727 C13.2387539,16.5488347 14.2667696,15.520819 15.5309076,15.520819 C16.7950456,15.520819 17.8246676,16.5488347 17.8246676,17.8129727 C17.8246676,19.0771107 16.7950456,20.1067327 15.5309076,20.1067327" id="Fill-8"></path>
            </g>
        </g>
    </g>
</svg>