<svg xmlns="http://www.w3.org/2000/svg" viewBox="0 0 512 512"><path d="M337 385c3 2 6 3 9 3 4 0 9-2 12-7 5-7 3-17-4-21-2-2-211-143-298-362-4-8-12-11-20-8s-12 12-9 20c91 227 301 370 310 375zm166 41c-40-16-80-80-92-108 10-4 21-10 28-14 4-3 6-7 7-13 0-4-2-9-6-12-20-16-48-43-64-58 25-14 65-27 81-31 6-1 10-6 11-11 2-6 0-12-4-16-75-64-170-75-209-77l2-10c1-9-5-16-14-18-64-7-97 21-98 22-6 5-7 15-1 21 5 7 15 7 21 2 1-1 20-16 60-15l-2 11c0 5 1 9 4 12 3 4 8 6 12 6 1 0 100-2 182 52-25 9-60 22-79 37-3 3-5 7-5 11-1 4 1 8 4 12 2 2 34 34 63 60-4 1-6 2-8 2-8-1-16 5-18 13-4 18 27 65 33 74 11 16 25 35 42 50-44 2-112-1-164-28-7-3-16-1-20 5l-12 18c-24-13-75-44-103-86-4-6-12-8-19-6-1 1-36 15-62 65-22-23-58-77-33-161 0 0 9-36 32-67 5-7 4-16-3-21-7-6-17-4-22 3-27 35-38 76-38 77-39 133 58 206 59 206 3 3 8 4 13 3 5-2 8-5 10-9 14-35 33-53 45-62 43 55 115 90 118 92 7 3 15 1 19-5l12-19c49 21 105 26 148 26 37 0 63-3 66-4 7-1 12-6 13-13s-3-14-9-16z"/></svg>