<svg xmlns="http://www.w3.org/2000/svg" viewBox="0 0 512 512"><path d="M492 202c0-11-9-20-20-20h-24c-5-26-15-49-29-70l17-17c8-8 8-21 0-29l-28-27c-8-8-20-8-28 0l-17 17c-21-14-44-24-70-29v-24c0-11-9-20-20-20h-38c-12 0-21 9-21 20v23c-25 5-50 15-71 29l-16-16c-8-7-21-7-28 0l-27 28c-8 7-8 20 0 28l15 16c-14 21-25 46-30 72h-22c-11 0-20 9-20 20v39c0 11 9 20 21 20h21c6 26 16 50 31 71l-16 16c-8 8-8 21 0 29l27 27c8 8 21 8 29 0l16-16c21 13 45 23 70 28v23c0 11 10 21 21 21h38c11 0 20-10 20-21v-23c26-5 50-16 71-30l16 17c8 8 21 8 29 0l27-27c8-8 8-21 0-29l-17-17c14-21 24-45 29-70l24-1c12 0 21-9 21-20zm-238 136c-64 0-116-52-116-116s52-116 116-116 116 52 116 116-52 116-116 116zm53-116c0 29-24 53-53 53s-53-24-53-53 24-53 53-53 53 24 53 53z"/></svg>