<svg xmlns="http://www.w3.org/2000/svg" viewBox="0 0 512 512"><path d="M485 275c-3-9-11-13-19-11l-75 20-56-32c3-9 5-18 5-28s-2-19-5-28l56-32 75 20c1 1 3 1 4 1 7 0 13-5 15-11 2-9-3-17-11-19l-45-12 43-25c7-5 10-14 6-21-4-8-14-10-21-6l-44 25 12-45c3-9-2-17-10-19-9-2-17 2-19 11l-20 75-56 32c-13-14-29-24-48-28v-65l55-55c5-5 5-15 0-21-6-6-16-6-22 0l-34 33v-50c0-9-7-16-15-16s-15 7-15 16v50l-34-33c-6-6-15-6-22 0-5 6-5 15 0 21l55 55v65c-19 3-35 14-48 28l-55-32-20-76c-3-8-11-13-19-11-8 3-13 11-11 19l13 46-44-25c-8-5-17-2-21 5-5 8-2 17 5 21l44 25-46 13c-8 2-13 10-11 18 2 7 8 12 15 12 2 0 3-1 4-1l75-20 56 32c-3 9-5 18-5 28 0 9 2 19 5 28l-56 32-75-20c-8-2-17 2-19 11-2 8 3 16 11 18l46 13-44 25c-7 4-10 13-6 21 3 5 8 8 14 8 2 0 5-1 7-3l44-25-12 46c-3 8 2 16 10 18 2 1 3 1 5 1 6 0 13-5 14-11l21-76 56-32c12 14 28 24 47 28v64l-55 55c-5 6-5 16 0 22 6 6 16 6 22 0l34-34v51c0 9 7 16 15 16s15-7 15-16v-50l34 33c3 3 7 5 11 5 3 0 8-2 10-5 6-6 6-15 0-21l-55-55v-65c20-3 36-14 48-28l56 33 20 75c2 7 8 11 15 11h4c8-3 13-11 11-19l-12-46 43 26c3 1 6 2 8 2 6 0 11-3 13-8 5-7 2-17-5-21l-44-25 46-12c8-3 13-11 11-19zm-229 2c-29 0-53-24-53-53s24-53 53-53 53 24 53 53-24 53-53 53z"/></svg>