<svg xmlns="http://www.w3.org/2000/svg" viewBox="0 0 512 512"><path d="M75 242c108-9 177-61 180-138h76c8 0 15-7 15-15 0-9-7-16-15-16h-79c-7-33-26-57-47-74h130c8 0 15-7 15-15 0-9-7-16-15-16h-307c-8 0-15 7-15 16 0 8 7 15 15 15h115c2 2 4 3 6 4 1 1 57 18 71 71h-186c-9 0-16 7-16 15s7 15 16 15h190c-3 80-95 108-181 108-6 0-12 4-14 9-3 6-2 12 2 17l202 236c3 4 7 6 11 6s8-2 10-4c7-5 8-15 2-22zm421-59l-77-95c-3-4-7-6-12-6-4 0-9 3-12 6l-75 96c-5 6-4 16 3 21 3 2 6 3 9 3 5 0 9-2 12-5l48-61v255c0 9 7 16 15 16 9 0 15-7 15-16v-256l50 62c5 6 15 7 21 2 7-6 8-15 3-22z"/></svg>