<svg xmlns="http://www.w3.org/2000/svg" viewBox="0 0 512 512"><path d="M349 445h-260c32-27 55-68 55-107v-91h164c9 0 15-7 15-15 0-9-6-15-15-15h-164v-115c0-54 46-99 99-99 54 0 99 45 99 99 0 8 7 15 15 15 9 0 15-7 15-15 0-71-58-129-129-129s-129 58-129 129v115h-98c-9 0-15 6-15 15 0 8 6 15 15 15h98v91c0 50-52 107-98 107-9 0-15 6-15 15 0 8 6 15 15 15h333c8 0 15-7 15-15s-7-15-15-15zm157-150c-7-5-16-4-21 3l-47 59v-250c0-9-6-15-15-15-8 0-15 6-15 15v251l-48-60c-5-7-15-8-21-2-7 5-8 14-3 21l75 93c3 4 7 6 12 6s9-2 12-6l73-94c5-6 4-16-2-21z"/></svg>