<svg xmlns="http://www.w3.org/2000/svg" viewBox="0 0 512 512"><path d="M219 141c0 9 7 16 16 16 8 0 15-7 15-16 0-49-36-89-83-97v-60c0-9-7-16-15-16-9 0-15 7-15 16v60c-47 8-83 48-83 97s36 90 83 97v134c-30-6-53-33-53-65 0-9-6-16-15-16-8 0-15 7-15 16 0 49 36 89 83 97v60c0 9 6 16 15 16 8 0 15-7 15-16v-60c47-8 83-48 83-97s-36-90-83-97v-134c30 6 52 33 52 65zm-135 0c0-32 23-58 53-65v131c-30-7-53-34-53-66zm135 166c0 32-22 58-52 65v-131c30 7 52 34 52 66zm233-14c-6-5-16-4-21 3l-48 60v-255c0-8-7-15-15-15s-15 7-15 15v256l-50-61c-5-7-14-8-21-3-7 6-8 15-2 22l76 95c3 4 7 6 12 6s9-3 12-6l75-96c5-6 4-16-3-21z"/></svg>