<svg xmlns="http://www.w3.org/2000/svg" viewBox="0 0 512 512"><path d="M217 140c0 8 7 15 16 15 8 0 15-7 15-15 0-49-36-90-83-97v-60c0-9-7-16-15-16-9 0-15 7-15 16v60c-48 7-84 48-84 97s36 89 83 97v134c-30-7-52-33-52-65 0-9-7-16-15-16-9 0-16 7-16 16 0 48 36 89 83 97v60c0 9 7 15 16 15 8 0 15-6 15-15v-60c47-8 83-48 83-97s-36-90-83-97v-135c30 7 52 34 52 66zm-135 0c0-32 23-59 52-66v132c-29-7-52-34-52-66zm135 166c0 32-22 58-52 66v-132c30 7 52 34 52 66zm236-120l-77-96c-2-3-7-6-12-5-4 0-9 2-12 6l-75 95c-5 6-4 16 3 21 3 2 6 3 10 3s8-2 12-5l47-61v255c0 9 7 16 15 16 9 0 16-7 16-16v-256l49 62c6 6 15 7 22 2 6-5 7-15 2-21z"/></svg>