<svg xmlns="http://www.w3.org/2000/svg" viewBox="0 0 512 512"><path d="M496 134c-24-64-72-115-134-143-34-15-69-23-106-23-100 0-191 59-233 150-59 128-2 280 127 339 33 15 69 23 106 23 100 0 191-59 233-150 28-62 31-132 7-196zm-58 224l-68 6-46-58 34-73 76-7 40 56c-3 12-7 24-12 36-7 14-15 27-24 40zm-38 34c-12 10-24 18-38 26l11-24zm-230 21l14 20c-7-2-14-5-20-8s-13-6-19-10zm-3-30l-65 6c-22-20-39-44-51-71l27-58 74-4 44 63zm-98-286l69-6 45 62-34 73-74 4-39-56c3-15 8-29 14-44 6-11 12-22 19-33zm80-67l-14 31-32 3c14-13 30-24 46-34zm193 6l-16-22c8 3 15 5 22 9 7 3 13 6 20 10zm3 30l66-7c21 20 38 44 50 70l-28 61-76 7-44-62zm132 168l-19-26 14-30c4 18 6 37 5 56zm-269-64l76-7 44 62-29 64-76 7-44-62 23-52zm-157 77l-11 23c-3-15-5-30-5-45zm228-248l38 54-32 70-76 7-44-62 28-61c20-5 41-9 63-9 8 0 15 0 23 1zm-47 450l-38-53 30-65 76-7 46 58-27 59c-21 6-42 9-63 9-8 0-16 0-24-1z"/></svg>