<svg xmlns="http://www.w3.org/2000/svg" viewBox="0 0 512 512"><path d="M407 308v-81c0-8-7-15-15-15h-144v-87h144c8 0 15-7 15-16 0-78-79-141-176-141-98 0-177 63-177 141 0 9 7 16 15 16h148v87h-123l-33-32c-5-6-15-6-21 0-6 5-6 15 0 21l32 33v140c-19 9-32 28-32 50 0 31 25 56 56 56 30 0 55-25 55-56 0-2 0-5-1-8h156c11 37 44 64 84 64 48 0 87-39 87-87 0-42-30-77-70-85zm-311 141c-14 0-25-11-25-25 0-13 11-24 25-24s25 11 25 24c0 14-11 25-25 25zm294 0c-23 0-43-14-51-33h53c8 0 15-7 15-15v-61c23 7 39 28 39 53 0 31-25 56-56 56z"/></svg>