<?xml version="1.0" encoding="UTF-8" standalone="no"?>
<svg width="31px" height="30px" viewBox="0 0 31 30" version="1.1" xmlns="http://www.w3.org/2000/svg" xmlns:xlink="http://www.w3.org/1999/xlink">
    <!-- Generator: Sketch 3.7.2 (28276) - http://www.bohemiancoding.com/sketch -->
    <title>suggest-a-restaurant-new-ui</title>
    <desc>Created with Sketch.</desc>
    <defs>
        <polygon id="path-1" points="0 29.3641854 30.8665595 29.3641854 30.8665595 0.431288009 0 0.431288009"></polygon>
    </defs>
    <g id="Page-1" stroke="none" stroke-width="1" fill="none" fill-rule="evenodd">
        <g id="577-585" transform="translate(-416.000000, -211.000000)">
            <g id="suggest-a-restaurant-new-ui" transform="translate(416.000000, 211.000000)">
                <path d="M24.5365217,29.3641854 L17.8626223,29.3641854 C17.3641941,29.3641854 16.9629325,28.9477243 16.9629325,28.4345846 C16.9629325,27.9214449 17.3641941,27.5049837 17.8626223,27.5049837 L24.5365217,27.5049837 C25.6791278,27.5049837 26.6076077,26.5437764 26.6076077,25.3650425 L26.6076077,14.2581713 L4.50582673,14.2581713 L4.50582673,25.3650425 C4.50582673,26.5437764 5.43610604,27.5049837 6.57871215,27.5049837 L13.3821668,27.5049837 C13.8787956,27.5049837 14.2818567,27.9214449 14.2818567,28.4345846 C14.2818567,28.9477243 13.8787956,29.3641854 13.3821668,29.3641854 L6.57871215,29.3641854 C4.44284844,29.3641854 2.70644702,27.5700558 2.70644702,25.3650425 L2.70644702,13.6074507 C2.70644702,12.9418565 3.2318659,12.3989696 3.87784321,12.3989696 L27.5072976,12.3989696 C28.0039264,12.3989696 28.4069874,12.8154308 28.4069874,13.3285705 L28.4069874,25.3650425 C28.4069874,27.5700558 26.670586,29.3641854 24.5365217,29.3641854 L24.5365217,29.3641854 Z" id="Fill-1" fill="#000000"></path>
                <g id="Group-5" transform="translate(0.000000, 4.368694)" fill="#000000">
                    <path d="M4.40326209,1.99604998 C4.11896009,2.03137481 3.88863949,2.10946128 3.52696417,3.27889918 L2.11625048,8.05704764 L28.7776596,7.96036915 L27.6386523,3.79947566 C27.5576802,3.28633598 27.2931714,1.99604998 26.2765218,1.99604998 L4.40326209,1.99604998 Z M0.899869793,9.91996778 C0.615567798,9.91996778 0.347460222,9.78052765 0.176519149,9.54626823 C0.00737745681,9.30829041 -0.0448045548,9.00152212 0.0397662916,8.71892346 L1.81035593,2.72485706 C2.07126598,1.87892027 2.55170037,0.324627615 4.3132931,0.140566643 L26.2765218,0.13684824 C27.8851673,0.13684824 29.1087455,1.42155664 29.3948469,3.4109025 L30.8325513,8.63340018 C30.9081252,8.91228044 30.8541438,9.21347112 30.6850021,9.44587134 C30.5158604,9.67827155 30.2513516,9.81585248 29.968849,9.81585248 L0.903468552,9.91996778 L0.899869793,9.91996778 Z" id="Fill-3"></path>
                </g>
                <mask id="mask-2" fill="white">
                    <use xlink:href="#path-1"></use>
                </mask>
                <g id="Clip-7"></g>
                <path d="M4.50744617,4.63308393 L26.1036014,4.63308393 L26.1036014,2.29048975 L4.50744617,2.29048975 L4.50744617,4.63308393 Z M26.4454836,6.49228567 L4.16556403,6.49228567 C3.36304068,6.49228567 2.70806646,5.81739544 2.70806646,4.98633226 L2.70806646,1.93910062 C2.70806646,1.10803744 3.36304068,0.431288009 4.16556403,0.431288009 L26.4454836,0.431288009 C27.2480069,0.431288009 27.9029811,1.10803744 27.9029811,1.93910062 L27.9029811,4.98633226 C27.9029811,5.81739544 27.2480069,6.49228567 26.4454836,6.49228567 L26.4454836,6.49228567 Z" id="Fill-6" fill="#000000" mask="url(#mask-2)"></path>
                <path d="M17.8178178,29.3641854 C17.321189,29.3641854 16.9181279,28.9477243 16.9181279,28.4345846 L16.9181279,20.2020393 L14.6671039,20.0923464 L14.5357492,28.4066965 C14.5357492,28.9216954 14.1326881,29.3362974 13.6360593,29.3362974 C13.1376311,29.3362974 12.7363695,28.9216954 12.7363695,28.4066965 L12.7363695,20.2020393 C12.7363695,19.1162655 13.6018711,18.2331446 14.6671039,18.2331446 L16.7867732,18.2331446 C17.852006,18.2331446 18.7175076,19.1162655 18.7175076,20.2020393 L18.7175076,28.4345846 C18.7175076,28.9477243 18.3144466,29.3641854 17.8178178,29.3641854" id="Fill-8" fill="#000000" mask="url(#mask-2)"></path>
            </g>
        </g>
    </g>
</svg>