<svg xmlns="http://www.w3.org/2000/svg" viewBox="0 0 512 512"><path d="M256 68c-86 0-156 70-156 156s70 156 156 156 156-70 156-156-70-156-156-156zm0 281c-69 0-125-56-125-125s56-125 125-125 125 56 125 125-56 125-125 125zm0-311c8 0 15-7 15-15v-40c0-8-7-15-15-15s-15 7-15 15v40c0 8 7 15 15 15zm147 54c4 0 8-1 11-4l28-28c6-6 6-16 0-22s-16-6-22 0l-28 28c-6 6-6 16 0 22 3 3 7 4 11 4zm94 117h-40c-8 0-15 7-15 15s7 15 15 15h40c8 0 15-7 15-15s-7-15-15-15zm-83 151c-6-6-16-6-22 0s-6 16 0 22l28 28c3 3 7 4 11 4s8-1 11-4c5-6 5-16 0-22zm-158 50c-8 0-15 7-15 15v40c0 8 7 15 15 15s15-7 15-15v-40c0-8-7-15-15-15zm-158-50l-28 28c-6 6-6 16 0 22 3 3 7 4 11 4s8-1 11-4l28-28c6-6 6-16 0-22s-16-6-22 0zm-28-136c0-8-7-15-15-15h-40c-8 0-15 7-15 15s7 15 15 15h40c8 0 15-7 15-15zm28-136c3 3 7 5 11 5s8-2 11-5c6-6 6-16 0-22l-28-28c-6-6-16-6-22 0s-6 16 0 22z"/></svg>