<svg xmlns="http://www.w3.org/2000/svg" viewBox="0 0 512 512"><path d="M468 295c-5-35-18-67-38-94 9-9 14-21 14-35 0-27-22-49-49-49-6 0-12 1-18 3-3-24-24-42-49-42-14 0-27 6-36 16-9-13-24-22-41-22-20 0-37 12-45 29-9-11-22-18-37-18-28 0-50 22-50 50v1c-5-2-10-3-16-3-27 0-49 22-49 50 0 15 7 28 17 37-14 23-23 49-27 77-2 11 1 21 8 29s17 13 28 13h352c11 0 21-5 28-13s10-18 8-29zm-73-157c15 0 28 13 28 28 0 7-3 13-7 17-12-13-26-25-41-35 5-6 12-10 20-10zm-67-39c16 0 28 13 28 28l-1 9c-17-9-34-15-52-19 4-10 14-18 25-18zm-77-5c12 0 22 8 26 18l-21-1c-11 0-21 1-31 3 3-12 13-20 26-20zm-82 11c11 0 20 6 25 16-18 5-35 13-50 23-2-4-3-7-3-11 0-16 12-28 28-28zm-94 76c0-16 13-28 28-28 7 0 13 3 18 7-14 11-27 25-38 39-4-5-8-11-8-18zm369 129c-3 3-8 5-12 5h-352c-5 0-9-2-12-5-2-3-4-8-3-12 13-94 96-165 191-165s178 71 191 165c1 4-1 9-3 12zm-260-130c-4-4-12-4-15 0-2 3-3 5-3 8s1 6 3 8 4 3 7 3 6-1 8-3 3-5 3-8-1-5-3-8zm-66 83c-2 2-4 5-4 7 0 3 2 6 4 8 1 2 4 3 7 3s6-1 8-3 3-5 3-8c0-2-1-5-3-7-4-4-11-4-15 0zm72 3c-2 2-4 5-4 8 0 2 2 5 4 7s4 3 7 3 6-1 8-3 3-5 3-7c0-3-1-6-3-8-4-4-12-4-15 0zm147-68c-2 2-3 5-3 8 0 2 1 5 3 7s4 3 8 3c2 0 5-1 7-3s3-5 3-7c0-3-1-6-3-8-4-4-12-4-15 0zm-115 18c-2 2-3 5-3 8s1 6 3 8 5 3 8 3 5-1 7-3c3-2 4-5 4-8s-1-6-4-8c-3-4-11-4-15 0zm54 47c-2 2-3 5-3 7 0 3 1 6 3 8s5 3 8 3c2 0 5-1 7-3s3-5 3-8c0-2-1-5-3-7-4-4-11-4-15 0zm84 3c-2 2-3 5-3 8 0 2 1 5 3 7s5 3 8 3 5-1 7-3 3-5 3-7c0-3-1-6-3-8-4-4-11-4-15 0zm-78-88c2-2 3-5 3-8s-1-5-3-7c-4-5-12-5-16 0-2 1-3 4-3 7s1 6 3 8 5 3 8 3 5-1 8-3z"/></svg>