<svg xmlns="http://www.w3.org/2000/svg" viewBox="0 0 512 512"><path d="M482-3c-4-4-11-4-15 0l-78 79-56-55c-4-4-11-4-15 0l-32 31c-4 5-4 11 0 16l56 56-17 17c-14-12-33-19-53-19-47 0-86 38-86 86 0 19 7 37 18 52l-24 24-54-54c-4-4-11-4-15 0-17 16-25 39-23 64 1 21 10 41 24 58l-73 74c-4 4-4 11 0 15 2 2 5 3 8 3 2 0 5-1 7-3l73-74c17 14 37 23 58 25h7c22 0 43-8 58-23 4-5 4-11 0-16l-54-54 24-24c14 12 32 19 52 19 47 0 86-39 86-86 0-20-7-39-19-53l17-18 55 56c2 2 5 3 8 3s6-1 8-3l31-32c5-4 5-11 0-15l-54-55 78-79c4-4 4-11 0-15zm-295 373c-19-1-38-10-53-25-14-14-23-33-24-52-1-15 2-29 9-40l107 107c-11 8-24 11-39 10zm85-97c-36 0-66-29-66-65 0-37 30-66 66-66s66 29 66 66c0 36-30 65-66 65zm147-103l-110-110 17-16 109 109z"/></svg>