<svg xmlns="http://www.w3.org/2000/svg" viewBox="0 0 512 512"><path d="M430 184c-11 0-22 2-33 7-23-33-58-58-99-68 4-7 7-15 7-23 0-27-22-49-49-49-26 0-48 22-48 49 0 8 2 16 6 23-69 17-122 77-130 149-20-7-36-27-36-48v-34c0-23-13-40-32-40-9 0-16 7-16 15 0 9 6 15 15 15 0 1 2 5 2 10v34c0 37 31 72 67 80 3 31 13 60 31 86 3 4 8 6 13 6h257c4 0 9-2 12-6 10-14 17-29 23-44h11c45 0 81-36 81-81s-37-81-82-81zm-80 0h-187c25-22 57-36 94-36 35 0 68 14 93 36zm-112-84c0-10 8-18 18-18s18 8 18 18-8 18-18 18c-9 0-18-9-18-18zm138 266h-240c-14-23-22-49-22-76 0-28 8-53 22-75h240c14 22 22 47 22 75 0 27-7 53-22 76zm54-50h-3c1-8 2-17 2-26 0-26-6-50-16-72 6-2 11-4 17-4 28 0 51 23 51 51s-23 51-51 51z"/></svg>