<svg xmlns="http://www.w3.org/2000/svg" viewBox="0 0 512 512"><path d="M256-32c-116 0-211 94-211 211 0 46 16 91 44 128l18 21 124 141c6 7 16 11 25 11s19-4 25-11l124-142c6-5 36-48 38-51 17-33 25-71 23-109-5-106-89-192-195-199h-15zm0 478l-125-142c-5-5-10-11-16-17-24-32-36-69-36-108 0-98 79-178 177-178 4 0 8 0 13 1 89 6 159 78 164 167 2 42-11 83-36 117h-1c-5 7-10 12-15 18zm0-364c-53 0-96 44-96 97s43 96 96 96 96-43 96-96-43-97-96-97zm0 160c-35 0-63-29-63-63 0-35 28-63 63-63s63 28 63 63c0 34-28 63-63 63z"/></svg>