<svg xmlns="http://www.w3.org/2000/svg" viewBox="0 0 512 512"><path d="M507 271l-49-50c-6-5-16-5-22 0l-158 158c-1 2-3 4-3 6h-1l-24 75c-2 5-1 11 3 15 3 3 7 5 11 5 1 0 3 0 5-1l75-25c2-1 4-2 5-3l158-158c3-3 5-7 5-11s-2-8-5-11zm-168 147l-28-28 94-95 28 29zm-43 0l15 15-22 7zm159-116l-28-28 20-20 28 28zm-240 28c8 0 15-6 15-15 0-8-7-15-15-15-106 0-184-36-184-68v-31c37 28 103 47 184 47 20 0 40-2 59-4 8-1 14-9 13-17-1-9-8-15-17-13-18 2-37 3-55 3-106 0-184-36-184-68v-31c37 28 103 47 184 47 80 0 146-19 183-47v31c0 9 7 16 16 16 8 0 15-7 15-16v-83c0-56-92-98-214-98-123 0-215 42-215 98v249c0 56 92 98 215 98 8 0 15-6 15-15 0-8-7-15-15-15-106 0-184-36-184-68v-31c37 29 103 46 184 46zm0-331c105 0 183 36 183 67 0 32-78 68-183 68-106 0-184-36-184-68s78-67 184-67z"/></svg>