<svg xmlns="http://www.w3.org/2000/svg" viewBox="0 0 512 512"><path d="M409 30l-46-56c-3-4-7-6-12-6-4 0-9 2-12 6l-34 42-37-43c-3-3-8-5-12-5-5 0-9 2-12 5l-39 44-35-43c-3-4-7-6-12-6s-9 2-12 6l-44 56c-2 3-3 6-3 10v425c0 8 7 15 16 15h283c8 0 15-7 15-15v-425c0-4-1-7-4-10zm-27 419h-252v-404l28-37 34 43c3 4 7 6 12 6 4 0 8-2 11-5l41-46 38 44c3 3 7 5 12 5 4 0 8-2 11-6l34-42 31 38v404zm-150-223c0-8-7-15-15-15-9 0-16 7-16 15 0 25 17 46 39 52v23c0 8 7 15 16 15 8 0 15-7 15-15v-23c23-6 40-27 40-52s-17-46-40-52v-45c5 5 9 11 9 18 0 9 7 16 15 16 9 0 16-7 16-16 0-24-17-45-40-52v-22c0-9-7-16-15-16-9 0-16 7-16 16v22c-22 7-39 28-39 52 0 25 17 46 39 53v44c-4-4-8-11-8-18zm48 0c0 7-4 14-9 18v-36c5 4 9 11 9 18zm-48-79c0-7 3-13 9-18v37c-5-5-9-11-9-19zm101 188h-154c-9 0-16 7-16 15 0 9 7 16 16 16h154c9 0 16-7 16-16 0-8-7-15-16-15zm0 56h-154c-9 0-16 7-16 16 0 8 7 15 16 15h154c9 0 16-7 16-15 0-9-7-16-16-16z"/></svg>