<svg xmlns="http://www.w3.org/2000/svg" viewBox="0 0 512 512"><path d="M195 112h125c2 0 4 2 5 2v14l-1 1c-3 3-5 7-5 12 0 4 2 9 5 12l25 85c0 1-1 2-2 3s-3 3-4 5c-7 5-18 16-29 29l-1 1c-19 26-29 40-34 49l1-53c7-7 13-15 15-24 4-19-3-38-19-48-7-4-15-7-24-7-8 0-16 2-23 6-9 6-15 15-19 24-6 18 2 39 19 50v50c-8-13-20-32-31-47-10-13-27-28-35-36l-1-1 28-87c4-3 5-7 5-11 1-5-1-9-5-13v-14c1-1 4-2 5-2m0-17c-10 0-21 8-21 18v15c0 5 2 9 5 12-2 2-3 4-4 7l-29 88v3c0 5 2 10 6 14 6 6 23 21 34 34 14 20 29 45 33 54 1 4 7 12 14 12s12-5 12-12l1-73c0-3-2-5-4-6h-1c-12-7-19-21-15-33 2-6 7-11 12-15 5-2 10-4 14-4 6 0 11 2 15 5 10 6 14 18 12 29-2 7-7 14-13 18-2 1-3 3-3 5l-1 75c0 6 6 12 12 12 7 0 13-8 14-11 4-8 16-27 38-56 11-12 21-22 28-28l5-6c5-5 6-11 6-16v-2l-26-86c-1-3-2-5-4-7 3-3 5-7 5-12v-15c0-10-11-18-21-18zm61 385l-6-1c-9-4-218-99-218-223v-273c0-5 3-10 8-13s11-3 16 0l7 5c56 34 130 32 184-4 5-4 12-4 17 0 55 36 129 38 185 4l7-5c5-3 11-3 16 0 4 3 7 8 7 13v273c0 124-208 218-217 222-2 1-4 2-6 2zm-193-470v246c0 83 134 164 193 192 34-17 193-98 193-192v-246c-61 29-135 26-193-8-58 34-133 37-193 8z"/></svg>