<svg xmlns="http://www.w3.org/2000/svg" viewBox="0 0 512 512"><path d="M488 34h-134v-51c0-8-6-15-15-15h-166c-9 0-15 7-15 15v51h-134c-9 0-16 7-16 16 0 8 7 15 16 15h51v400c0 8 7 15 15 15h332c8 0 15-7 15-15v-400h51c9 0 16-7 16-15 0-9-7-16-16-16zm-300-35h135v35h-135zm219 450h-302v-384h301v384zm-234-323c-9 0-15 7-15 15v233c0 8 6 15 15 15 8 0 15-7 15-15v-233c0-8-6-15-15-15zm83 0c-8 0-15 7-15 15v233c0 8 7 15 15 15 9 0 15-7 15-15v-233c0-8-6-15-15-15zm68 15v233c0 8 7 15 15 15 9 0 15-7 15-15v-233c0-8-6-15-15-15-8 0-15 7-15 15z"/></svg>