<?xml version="1.0" encoding="UTF-8" standalone="no"?>
<svg width="32px" height="26px" viewBox="0 0 32 26" version="1.1" xmlns="http://www.w3.org/2000/svg" xmlns:xlink="http://www.w3.org/1999/xlink">
    <!-- Generator: Sketch 3.7.1 (28215) - http://www.bohemiancoding.com/sketch -->
    <title>twitr-20px</title>
    <desc>Created with Sketch.</desc>
    <defs></defs>
    <g id="Page-1" stroke="none" stroke-width="1" fill="none" fill-rule="evenodd">
        <g id="577-585" transform="translate(-364.000000, -156.000000)" fill="#000000">
            <g id="twitr-20px" transform="translate(364.000000, 156.000000)">
                <path d="M6.864,23.2494545 C8.432,23.8632727 10.1367273,24.2036364 11.7730909,24.2036364 C20.7054545,24.2036364 26.0916364,16.3621818 26.0916364,8.79418182 L26.0916364,7.70327273 L26.3650909,7.42981818 C26.6385455,7.22472727 26.9105455,6.95272727 27.1156364,6.74763636 C26.9789091,6.74763636 26.7752727,6.816 26.6385455,6.816 L22.752,7.36145455 L26.0247273,5.31636364 C26.2981818,5.11127273 26.5701818,4.90763636 26.7752727,4.70254545 C26.4349091,4.83927273 26.0247273,4.976 25.616,5.04290909 L25.1389091,5.17963636 L24.7985455,4.77090909 C23.9796364,3.81672727 22.8218182,3.27127273 21.5941818,3.27127273 C19.1389091,3.27127273 17.1621818,5.45309091 17.1621818,8.112 C17.1621818,8.52072727 17.1621818,8.93090909 17.2305455,9.33963636 L17.3672727,10.2938182 L16.3447273,10.2938182 C12.2530909,10.0887273 8.50327273,8.18036364 5.64072727,4.976 C5.70909091,5.38472727 5.64072727,5.79490909 5.64072727,6.34036364 C5.64072727,8.04509091 6.39127273,9.54472727 7.61745455,10.432 L9.936,12.1367273 L7.072,11.9316364 C6.52654545,11.9316364 6.04945455,11.8632727 5.64072727,11.7265455 C5.98109091,13.3629091 7.41381818,14.7941818 9.18690909,15.2043636 L12.8,16.0901818 L9.18690909,16.9090909 C8.77818182,16.9774545 8.368,17.0458182 7.89090909,17.1141818 C8.64145455,18.4101818 10.0727273,19.2276364 11.5723636,19.2276364 L13.8225455,19.2276364 L12.1178182,20.7272727 C10.6181818,22.0232727 8.77672727,22.9090909 6.86836364,23.2494545 L6.864,23.2494545 Z M11.7730909,25.9098182 C8.77236364,25.9098182 5.84145455,24.9556364 3.18254545,23.1825455 L0.318545455,21.2058182 L3.79636364,21.6145455 C5.77309091,21.888 7.75127273,21.4778182 9.456,20.5236364 C8.02472727,19.9781818 6.86545455,18.8189091 6.11490909,17.3876364 C5.97818182,16.8421818 5.97818182,16.3650909 6.25163636,15.9563636 C6.32,15.888 6.38836364,15.8196364 6.45672727,15.7512727 C4.88872727,14.592 3.86618182,12.7505455 3.86618182,10.8421818 C4.00290909,10.0916364 4.41163636,9.81963636 4.82036364,9.75127273 C4.27490909,8.72872727 3.93454545,7.56945455 3.93454545,6.34181818 C3.93454545,5.65963636 4.00290909,5.11418182 4.208,4.56872727 C4.34472727,3.88654545 5.02690909,3.34109091 5.776,3.34109091 C6.18472727,3.34109091 6.59490909,3.54618182 6.93527273,3.88654545 C9.18545455,6.47709091 12.1847273,8.11345455 15.4574545,8.52363636 L15.4574545,8.11490909 C15.4574545,4.50181818 18.1847273,1.56945455 21.5941818,1.56945455 C23.0938182,1.56945455 24.5949091,2.18327273 25.6858182,3.27418182 C26.7083636,3.00072727 27.5956364,2.592 28.3447273,2.11490909 L30.2545455,0.887272727 L29.6407273,3.06909091 C29.504,3.54618182 29.3003636,3.95490909 29.0952727,4.36509091 L29.1636364,4.36509091 L31.6858182,3.13745455 L30.2545455,5.52436364 C29.6407273,6.54690909 28.8232727,7.50109091 27.7323636,8.45672727 L27.7323636,8.79709091 C27.7323636,17.184 21.8007273,25.9112727 11.7774545,25.9112727 L11.7730909,25.9098182 Z" id="Shape"></path>
            </g>
        </g>
    </g>
</svg>