<svg xmlns="http://www.w3.org/2000/svg" viewBox="0 0 512 512"><path d="M397 250c-63 0-115 52-115 115 0 64 52 115 115 115 64 0 115-51 115-115 0-63-51-115-115-115zm0 199c-46 0-84-38-84-84s38-84 84-84 84 38 84 84-38 84-84 84zm50-99h-100c-8 0-15 7-15 15 0 9 7 15 15 15h100c8 0 15-6 15-15 0-8-7-15-15-15zm-145-114c-11-3-21-7-32-11l-7-3v-32c10-8 26-27 29-62 3-3 6-6 8-10 3-6 4-14 4-22 0-12-3-22-9-28 6-13 13-35 7-58-7-31-49-42-83-42-28 0-62 8-77 29-13 0-21 5-26 10-15 17-8 44-4 61-1 2-3 5-4 8-4 5-5 13-5 21 0 14 5 25 12 31 4 38 23 60 34 70v24l-37 12c-51 17-92 30-101 57-10 32-11 88-11 90 0 5 2 8 4 11 3 3 7 5 11 5h216v-31h-200c1-19 4-48 9-65 4-12 51-28 82-38l48-16c6-3 10-8 10-15v-41c0-5-2-10-6-13-1 0-28-19-28-60 0-7-5-13-11-15-1-3-1-9 0-12 2-1 5-2 7-4 2-3 4-7 4-11 0-3-1-6-2-12-8-28-6-34-5-36 1 0 3-1 10 0 8 2 16-3 18-11 2-9 23-18 53-18s51 9 53 18c4 16-4 34-8 44-2 6-3 10-3 14 0 7 5 13 11 15 1 3 1 10 0 13-7 2-11 8-11 15 0 39-20 51-21 51-5 3-8 8-8 14v49c0 7 4 12 10 15l16 6c12 4 22 9 34 12z"/></svg>