<svg xmlns="http://www.w3.org/2000/svg" viewBox="0 0 512 512"><path d="M256 16l37 135 1 1v1c2 7 7 14 14 20 8 6 18 10 27 10h132l-105 69c-12 8-20 24-19 39 0 4 1 9 2 13l46 134-109-89c-7-6-16-9-26-9-5 0-17 1-27 10l-103 88 42-133c1-4 2-9 2-14 0-13-7-30-20-39l-105-69h132c9 0 19-4 27-10 6-6 12-13 14-20v-2l38-135m0-48c-12 1-18 7-21 12-3 4-4 8-5 13l-42 150c0 1-2 3-5 5-2 3-5 4-6 4h-144c-5 0-11 0-17 3-3 1-7 3-10 7s-5 10-5 15c0 8 3 13 7 17 3 4 6 6 10 8l115 77c2 1 6 7 6 12 0 1 0 2-1 2l-46 148c-1 4-2 8-2 13 0 4 1 10 5 16s12 9 19 9h1c12 0 16-5 22-9l113-97c1-1 4-2 6-2 3 0 5 1 6 2l119 98c6 4 11 8 22 9h1c6 0 14-3 18-10 5-6 5-11 5-16s-1-9-2-14l-50-148c-1 0-1-2-1-2 0-4 3-10 5-11l115-76c4-3 7-5 10-9 3-3 7-9 7-17 0-6-2-11-6-15-5-6-10-8-14-9s-9-1-12-1h-144c-1 0-4-1-7-3-2-2-4-5-4-6l-42-150c-1-5-3-9-6-13-3-5-9-11-20-12z"/></svg>