<svg xmlns="http://www.w3.org/2000/svg" viewBox="0 0 512 512"><path d="M256-32c-12 1-17 7-20 12-4 4-5 8-6 13l-42 150c0 1-2 3-4 5-3 3-6 4-7 4h-144c-5 0-10 0-17 3-3 1-7 3-10 7s-5 10-5 15c0 8 4 13 7 17s6 6 10 8l115 77c2 1 6 7 6 12 0 1 0 2-1 2l-46 148c-1 4-2 8-2 13 0 4 1 10 5 16s12 9 19 9h1c12 0 16-5 22-9l113-97c1-1 4-2 6-2 3 0 5 1 6 2l119 98c6 4 11 8 22 9h1c6 0 14-3 18-10 5-6 5-11 6-16 0-5-2-9-3-14l-50-148c-1 0-1-2-1-2 0-4 3-10 5-11l115-76c4-3 7-5 10-9 3-3 7-9 7-17 0-6-2-11-5-15-6-6-11-8-15-9s-8-1-12-1h-144c-1 0-4-1-7-3-2-2-4-5-4-6l-42-150c-1-5-3-9-6-13-3-5-8-11-20-12z"/></svg>