<svg xmlns="http://www.w3.org/2000/svg" viewBox="0 0 512 512"><path d="M256 337c63 0 114-51 114-114v-141c0-63-51-114-114-114s-114 51-114 114v141c0 63 51 114 114 114zm0-338c46 0 82 37 83 82h-47c-7 0-12 6-12 13s5 12 12 12h47v34h-46c-7 0-13 5-13 12s6 13 13 13h46v34h-47c-7 0-12 6-12 13s5 12 12 12h47c-1 45-38 81-83 81s-82-36-83-81h46c7 0 13-5 13-12s-6-13-13-13h-46v-34h46c7 0 13-6 13-12 0-7-6-13-13-13h-46v-33h46c7 0 13-6 13-13s-6-12-13-12h-46c1-46 37-83 83-83zm191 212h-36c-9 0-16 7-16 16 0 77-62 139-139 139s-139-62-140-138v-1c0-9-6-16-15-16h-36c-9 0-16 7-16 16s7 15 16 15h21c7 82 73 147 154 155v52h-88c-9 0-16 7-16 15 0 9 7 16 16 16h208c9 0 16-7 16-16 0-8-7-15-16-15h-88v-52c81-8 147-73 154-155h21c9 0 16-6 16-15s-7-16-16-16z"/></svg>