<svg xmlns="http://www.w3.org/2000/svg" viewBox="0 0 512 512"><path d="M184 88c32 0 59-27 59-60s-27-60-59-60c-33 0-60 27-60 60s27 60 60 60zm0-102c23 0 42 19 42 42 0 24-19 43-42 43-24 0-43-19-43-43 0-23 19-42 43-42zm231 143h-59c-2 0-4 1-6 3l-33 35-28-40c-1-2-2-3-4-3l-56-19c-4-2-9 0-11 5l-35 76-34-76c-2-4-7-6-11-5l-77 25c-3 2-6 5-6 9v161c0 5 4 9 9 9h35l25 163c0 4 4 7 8 7h103c4 0 7-3 8-7l35-235 21 33c2 2 4 4 7 4s6-1 7-3l108-128c2-2 3-6 2-9-2-3-5-5-8-5zm-107 122l-27-42c-2-3-6-5-9-4-4 1-6 4-7 7l-37 250h-88l-24-163c-1-4-5-7-9-7h-34v-147l64-21 39 86c1 3 4 6 8 6 3 0 6-2 8-6l39-86 46 15 32 47c2 2 4 3 7 3 2 1 5 0 6-2l38-41h36zm140-161h-9c1-1 1-2 1-3 0-29-24-53-54-53-29 0-53 23-53 53v3h-9c-4 0-8 4-8 9 0 4 4 8 8 8h123c5 0 9-4 9-8 0-5-3-9-8-9zm-98-3c0-20 16-36 36-36s37 16 37 36v3h-73v-3z"/></svg>