<svg xmlns="http://www.w3.org/2000/svg" viewBox="0 0 512 512"><path d="M318 347c-9 0-18-2-26-4-10-3-21-7-35-13-51-22-88-67-105-92-1-1-1-1-1-2-8-10-26-38-26-67 0-32 15-49 22-56l1-1c9-10 20-11 24-11h12c7 0 16 2 22 17 2 4 4 10 7 16 4 11 10 25 11 27 4 7 4 14 1 20l-1 2c-2 3-3 6-7 10 0 1-1 2-2 4-3 2-5 5-7 7l-1 1c5 7 16 24 31 37 18 16 33 23 41 27 2 0 3 1 5 2h1c4-6 14-17 17-22 9-13 21-8 26-7 7 3 41 20 41 20 2 1 3 1 4 2 5 2 9 4 12 9 5 7 2 24-2 37-4 11-14 19-22 24-9 6-20 10-27 11-5 1-11 2-16 2zm-146-225c-1 0-5 0-8 4-1 1-1 1-2 1-6 7-17 18-17 42s17 48 23 55c0 0 0 1 1 2 16 23 50 65 96 85 13 5 24 9 33 12 13 4 25 3 33 2 4-1 11-3 19-8 6-5 12-10 13-14 3-8 4-15 4-19l-3-2-4-1c-8-4-35-18-39-19l-2-1c-5 8-19 24-19 24-7 8-15 9-26 4 0 0-1-1-3-1-8-4-26-12-47-30-18-16-30-36-35-44-7-13 2-21 4-24l6-6c1-2 2-3 3-4 1-2 2-3 3-6 1-1 1-1 1-2v-1c-1-2-5-10-12-29-3-6-5-12-7-16-1-2-1-3-2-4h-13zm84 331c-39 0-78-10-112-30l-96 27c-3 1-7 0-10-3-2-2-3-6-2-10l26-93c-23-36-35-77-35-120 0-31 6-61 18-89 12-27 28-52 49-73s46-37 73-49c28-12 58-18 89-18s61 6 89 18c27 12 52 28 73 49s37 46 49 73c12 28 18 58 18 89s-6 61-18 89c-12 27-28 52-49 73s-46 37-73 49c-28 12-58 18-89 18zm-111-51c2 0 3 0 5 1 32 19 69 29 106 29 56 0 108-22 147-61s61-92 61-147c0-56-22-108-61-147s-91-61-147-61-108 21-147 61c-39 39-61 91-61 147 0 40 12 79 33 113 2 3 3 6 1 9l-21 79 80-23h4zm171-59c-9 0-17-1-25-4-10-3-21-6-34-12-50-22-85-65-102-90-1 0-1-1-1-1-8-10-26-37-26-66 0-30 16-47 22-54l1-1c9-9 19-10 23-10h12c7 0 16 1 21 16 2 4 4 9 7 15 4 11 10 25 11 27 3 7 4 13 1 19-1 1-1 1-1 2-2 3-3 6-7 10 0 1-1 2-2 4-3 2-5 5-7 7 4 8 15 24 29 37 18 16 33 22 40 26 2 0 4 1 5 2h1c4-5 14-17 17-21 8-13 20-9 25-7 6 2 40 19 40 19l3 2c6 2 10 4 13 9 4 7 2 23-3 36-4 10-14 18-21 23-9 6-19 10-26 11-5 1-11 1-16 1zm-142-218c-1 0-4 0-8 4l-1 1c-6 6-16 18-16 40 0 23 16 47 21 54 0 0 1 1 1 2 16 22 49 63 94 82 13 6 23 9 32 12 13 4 24 3 32 2 4-1 11-3 18-8 7-4 12-9 13-13 3-8 4-15 4-19l-3-1-4-2c-8-4-34-17-38-18l-2-1c-5 8-18 23-19 24-6 7-14 8-24 3-1 0-2 0-4-1-8-4-25-11-45-29-18-16-30-35-34-42-8-13 1-21 4-24 1-2 3-4 5-6l3-4c2-2 2-3 4-6v-3c-1-2-4-10-12-28-2-6-4-11-6-15-1-2-2-3-2-4h-13zm82 321c-38 0-76-10-109-28l-93 26c-3 1-7 0-10-3-2-3-3-6-2-10l25-90c-22-35-33-75-33-117 0-30 5-59 17-87 11-26 27-50 48-70 20-21 44-37 70-48 28-12 57-17 87-17s59 5 87 17c26 11 50 27 70 48 21 20 37 44 48 70 12 28 17 57 17 87s-5 59-17 87c-11 26-27 50-48 70-20 21-44 37-70 48-28 12-57 17-87 17zm-108-49c2 0 3 0 5 1 31 18 67 28 103 28 54 0 105-21 143-59s59-89 59-143-21-105-59-143-89-59-143-59-105 21-143 59-59 89-59 143c0 39 11 77 32 110 2 3 2 6 1 9l-21 76 78-22h4z"/></svg>