<svg xmlns="http://www.w3.org/2000/svg" viewBox="0 0 512 512"><path d="M504 201c-1-24-6-46-14-69-26-73-84-129-156-153-13-4-27-7-40-9l-22-2h-23c-54 3-102 22-144 57-41 36-68 80-81 134-3 13-5 25-6 38-1 11-1 22-1 32 2 42 13 80 34 116 1 1 1 2 0 3l-42 129c0 1-1 2-1 2 0 1 1 1 1 1l9-3 123-40c1-1 3-1 4 0 23 13 47 21 73 26 18 4 36 5 55 4 62-4 116-28 160-73 33-33 55-73 65-119 3-11 4-23 5-34 1-2 1-4 1-6v-34zm-122 112c-2 4-4 6-6 9-9 9-20 15-32 18-2 1-3 1-5 1s-4 1-5 1c-6 1-12 1-18 0-8-2-15-5-23-8-11-4-22-9-32-14-17-8-32-19-46-31-20-19-37-40-51-64-4-6-8-13-12-20-5-9-9-20-11-30-1-6-2-12-2-18 0-15 4-30 14-43 3-4 7-9 11-12 5-5 11-7 17-6 5 0 10 0 14 1 3 0 5 2 7 4 1 2 3 4 3 7 3 6 5 12 7 18 4 11 8 21 11 31 2 4 2 7 0 10-2 5-5 9-8 12-3 4-6 7-10 10 0 1-1 2-1 2-2 3-2 5-1 7 0 1 0 2 1 3 8 16 18 30 31 43 13 14 28 25 45 33 2 1 4 2 7 3 0 1 1 1 2 1 4 2 7 1 10-2l6-7c5-6 11-12 15-18 3-4 6-5 11-4 2 1 4 2 7 3l36 20c3 1 6 3 9 5 4 2 5 5 5 9-1 9-3 18-6 26z"/></svg>