<svg xmlns="http://www.w3.org/2000/svg" viewBox="0 0 512 512"><path d="M256 475c-38 0-69-31-69-69s31-69 69-69 69 30 69 69c0 38-31 69-69 69zm0-101c-17 0-32 14-32 32 0 17 15 32 32 32s32-15 32-32c0-18-15-32-32-32zm80-100c-49-27-111-27-160 0-9 5-19 2-24-5v-1c-7-9-4-21 5-27 30-16 64-26 99-26s69 9 98 26c10 6 13 18 6 27v1c-5 7-15 10-24 5zm-255-105c-6-8-4-21 6-26 51-32 109-49 170-49 60 0 118 17 169 49 9 5 11 18 5 26v1c-6 7-17 9-25 4-46-28-97-43-151-43-53 0-104 15-149 43-8 5-19 3-25-5zm420-99c-6 9-17 11-25 5-66-42-141-65-220-65s-154 23-220 65c-8 5-19 3-25-5-6-9-4-21 5-26 72-47 154-71 240-71s168 25 240 71c9 5 11 18 5 26z"/></svg>