<svg xmlns="http://www.w3.org/2000/svg" viewBox="0 0 512 512"><path d="M256-32c-129 0-236 95-253 219-2 9-3 18-3 27v10c0 141 115 256 256 256s256-115 256-256-115-256-256-256zm0 31c124 0 225 101 225 225 0 58-47 110-100 110-91 0-99-50-110-113-10-61-23-138-141-138-22 0-43 6-61 15 40-60 109-99 187-99zm0 450c-124 0-225-101-225-225 0-10 0-21 2-31 9-45 49-79 98-79 91 0 99 49 110 112 10 62 23 139 141 139 23 0 45-7 64-20-40 63-110 104-190 104zm116-152c31 0 57-25 57-56 0-32-26-57-57-57s-57 25-57 57c0 31 26 56 57 56zm0-82c15 0 26 11 26 26 0 14-11 26-26 26-14 0-26-12-26-26 0-15 12-26 26-26zm-183-7c0 28-22 50-49 50-28 0-50-22-50-50 0-27 22-50 50-50 27 0 49 23 49 50z"/></svg>