<?xml version="1.0" encoding="UTF-8" standalone="no"?>
<svg width="27px" height="27px" viewBox="0 0 27 27" version="1.1" xmlns="http://www.w3.org/2000/svg" xmlns:xlink="http://www.w3.org/1999/xlink">
    <!-- Generator: Sketch 3.7.2 (28276) - http://www.bohemiancoding.com/sketch -->
    <title>your-location-new-ui</title>
    <desc>Created with Sketch.</desc>
    <defs>
        <polygon id="path-1" points="26.8140375 27 0 27 0 0.1846125 26.8140375 0.1846125 26.8140375 27"></polygon>
    </defs>
    <g id="Page-1" stroke="none" stroke-width="1" fill="none" fill-rule="evenodd">
        <g id="577-585" transform="translate(-107.000000, -159.000000)">
            <g id="your-location-new-ui" transform="translate(107.000000, 159.000000)">
                <g id="Group-3">
                    <mask id="mask-2" fill="white">
                        <use xlink:href="#path-1"></use>
                    </mask>
                    <g id="Clip-2"></g>
                    <path d="M13.40685,1.8721125 C6.943725,1.8721125 1.6871625,7.1303625 1.6871625,13.5918 C1.6871625,20.054925 6.943725,25.313175 13.40685,25.313175 C19.869975,25.313175 25.1265375,20.054925 25.1265375,13.5918 C25.1265375,7.1303625 19.869975,1.8721125 13.40685,1.8721125 M13.40685,27.000675 C6.0139125,27.000675 -0.000337499999,20.9847375 -0.000337499999,13.5918 C-0.000337499999,6.1988625 6.0139125,0.1846125 13.40685,0.1846125 C20.7997875,0.1846125 26.8140375,6.1988625 26.8140375,13.5918 C26.8140375,20.9847375 20.7997875,27.000675 13.40685,27.000675" id="Fill-1" fill="#000000" mask="url(#mask-2)"></path>
                </g>
                <path d="M9.4583996,19.9733143 C9.31646173,19.9733143 9.1728924,19.9357905 9.04726923,19.8623743 C8.82865228,19.7351197 8.68018854,19.5116083 8.64919061,19.260362 L8.17606439,15.5096131 C8.14669794,15.27305 8.06838739,15.0495386 7.94439569,14.8456049 L6.70284723,12.8095307 C6.49565057,12.470185 6.35208124,12.0998414 6.27703363,11.7082886 L5.81859064,9.30839667 L5.19863214,9.32634283 C4.58683099,9.3279743 4.05497186,9.14361823 3.61447504,8.76838019 L3.09077325,8.43392889 C2.71390375,8.1859455 2.60785822,7.68182135 2.85421014,7.30495184 C3.10056207,6.92808234 3.60794916,6.8220368 3.98318719,7.06838873 L4.58846246,7.46483588 C4.80381647,7.63940314 4.97185785,7.72097662 5.15295099,7.69487311 L6.46628412,7.65898077 C6.88557184,7.67203253 7.21512872,7.92817328 7.29017633,8.31972601 L7.88076837,11.4015723 C7.91829218,11.6006116 7.99007684,11.7882307 8.09449091,11.9579035 L9.33603937,13.9972407 C9.5823913,14.3985822 9.73574945,14.8407105 9.79448236,15.3073109 L10.1305651,17.968238 C10.2757659,17.8556666 10.3785485,17.6925196 10.4177038,17.5081635 L11.0768176,14.3496381 C11.1583911,13.9564539 11.3541674,13.599162 11.6413061,13.3185493 L14.127666,10.8778705 C14.23208,10.775088 14.2581835,10.611941 14.1896618,10.4814234 L13.7654797,9.66568854 C13.72143,9.57922064 13.641488,9.51722479 13.5468627,9.49438422 L8.62471857,8.26915045 C8.36857782,8.20552313 8.15811823,8.01953558 8.06186151,7.77318365 C7.96397333,7.5284632 7.99497125,7.25111334 8.13854059,7.02923346 L9.72106622,4.61955267 L9.43229608,2.62263373 C9.36703729,2.17724249 9.67538507,1.76284918 10.1224078,1.69922186 C10.5645361,1.62580573 10.9805609,1.94231085 11.0458196,2.38933356 L11.3802709,4.69133734 C11.4080059,4.88874518 11.3639562,5.08941595 11.2546478,5.25582587 L10.1338281,6.9623432 L13.9416784,7.91022711 C14.4882208,8.0456391 14.9515582,8.41108832 15.2125933,8.91194952 L15.6367755,9.72768439 C16.0413799,10.501001 15.8929162,11.4325703 15.2696948,12.0427399 L12.7817034,14.4850501 C12.7262335,14.5388886 12.6887097,14.6057789 12.6740264,14.6824579 L12.0132812,17.8409833 C11.8501342,18.6289832 11.3052233,19.2832026 10.5596417,19.5882874 L9.76674738,19.9129499 C9.66722772,19.9537366 9.56281366,19.9733143 9.4583996,19.9733143" id="Fill-4" fill="#000000"></path>
                <path d="M16.7879405,26.1184081 C16.466541,26.1184081 16.1614561,25.9275262 16.03257,25.6093896 L15.4436094,24.1622759 C14.9655888,22.9892492 15.4827647,21.6367608 16.623162,21.085324 L18.4128843,20.2173821 L19.0948387,17.8599084 C19.3966606,16.8173992 20.1813975,15.9592462 21.1929088,15.566062 L25.6158232,13.8464929 C26.0351109,13.6817144 26.5082371,13.8905425 26.6713841,14.3114617 C26.8345311,14.7307495 26.6257029,15.2038757 26.2064152,15.3670226 L21.7851323,17.0865917 C21.2418528,17.2970513 20.8241966,17.7571258 20.6626811,18.3150884 L19.8795756,21.0200652 C19.8143168,21.2419451 19.6593272,21.4263012 19.4504991,21.5274523 L17.3344828,22.5520153 C16.9674022,22.731477 16.7993608,23.1687109 16.9543504,23.5472119 L17.543311,24.995957 C17.7129838,25.4119818 17.512313,25.8883709 17.0946568,26.0580438 C16.9951371,26.0988305 16.8907231,26.1184081 16.7879405,26.1184081" id="Fill-6" fill="#000000"></path>
            </g>
        </g>
    </g>
</svg>