<?xml version="1.0" encoding="UTF-8" standalone="no"?>
<svg width="30px" height="28px" viewBox="0 0 30 28" version="1.1" xmlns="http://www.w3.org/2000/svg" xmlns:xlink="http://www.w3.org/1999/xlink">
    <!-- Generator: Sketch 3.7.2 (28276) - http://www.bohemiancoding.com/sketch -->
    <title>zomato-credits-new-ui</title>
    <desc>Created with Sketch.</desc>
    <defs></defs>
    <g id="Page-1" stroke="none" stroke-width="1" fill="none" fill-rule="evenodd">
        <g id="577-585" transform="translate(-418.000000, -159.000000)" fill="#000000">
            <g id="zomato-credits-new-ui" transform="translate(418.000000, 159.000000)">
                <path d="M19.8625,27.0735 L7.18916667,27.0735 C3.22583333,27.0735 0.000833333332,24.1418333 0.000833333332,20.5385 L0.000833333332,10.1835 C0.000833333332,6.58016667 3.22583333,3.6485 7.18916667,3.6485 L19.8608333,3.6485 C23.8241667,3.6485 27.0491667,6.58016667 27.0491667,10.1835 L27.0491667,10.9701667 C27.0491667,11.4318333 26.6775,11.8035 26.2175,11.8035 C25.7558333,11.8035 25.3841667,11.4318333 25.3841667,10.9701667 L25.3841667,10.1835 C25.3841667,7.4985 22.9058333,5.31516667 19.8608333,5.31516667 L7.18916667,5.31516667 C4.14416667,5.31516667 1.6675,7.4985 1.6675,10.1835 L1.6675,20.5385 C1.6675,23.2218333 4.14416667,25.4068333 7.18916667,25.4068333 L19.8608333,25.4068333 C25.0925,25.3935 25.1675,22.6185 25.1925,21.7051667 L25.1925,19.6018333 C25.1925,19.1418333 25.5641667,18.7685 26.0258333,18.7685 C26.4858333,18.7685 26.8591667,19.1418333 26.8591667,19.6018333 L26.8591667,21.7285 C26.8058333,23.7318333 25.8241667,27.0568333 19.8625,27.0735" id="Fill-1"></path>
                <path d="M16.7733333,12.3331667 C16.4366667,12.3331667 16.2033333,12.5415 16.2033333,12.7298333 L16.2033333,17.7815 C16.2033333,17.9698333 16.4366667,18.1781667 16.7733333,18.1781667 L27.7166667,18.1781667 C28.0233333,18.1781667 28.2383333,17.9915 28.2383333,17.8231667 L28.2383333,12.8065 C28.2383333,12.5498333 27.9383333,12.3331667 27.5816667,12.3331667 L16.7733333,12.3331667 Z M27.7166667,19.8448333 L16.7733333,19.8448333 C15.54,19.8448333 14.5366667,18.9198333 14.5366667,17.7815 L14.5366667,12.7298333 C14.5366667,11.5931667 15.54,10.6665 16.7733333,10.6665 L27.5816667,10.6665 C28.8633333,10.6665 29.905,11.6265 29.905,12.8065 L29.905,17.8231667 C29.905,18.9381667 28.9233333,19.8448333 27.7166667,19.8448333 L27.7166667,19.8448333 Z" id="Fill-3"></path>
                <path d="M20.3916667,15.171 C20.3916667,15.8393333 19.85,16.381 19.1816667,16.381 C18.5116667,16.381 17.97,15.8393333 17.97,15.171 C17.97,14.5026667 18.5116667,13.961 19.1816667,13.961 C19.85,13.961 20.3916667,14.5026667 20.3916667,15.171" id="Fill-5"></path>
                <path d="M26.4078333,11.0171667 C25.9478333,11.0171667 25.5745,10.6438333 25.5745,10.1838333 L25.5745,6.5355 C25.5745,3.8505 23.0961667,1.66716667 20.0511667,1.66716667 L7.38116667,1.66716667 C4.33616667,1.66716667 1.85783333,3.8505 1.85783333,6.5355 L1.85783333,8.8705 C1.85783333,9.3305 1.4845,9.70383333 1.0245,9.70383333 C0.5645,9.70383333 0.191166667,9.3305 0.191166667,8.8705 L0.191166667,6.5355 C0.191166667,2.93216667 3.41616667,0.0005 7.38116667,0.0005 L20.0511667,0.0005 C24.0161667,0.0005 27.2411667,2.93216667 27.2411667,6.5355 L27.2411667,10.1838333 C27.2411667,10.6438333 26.8678333,11.0171667 26.4078333,11.0171667" id="Fill-7"></path>
            </g>
        </g>
    </g>
</svg>