<svg xmlns="http://www.w3.org/2000/svg" viewBox="0 0 512 512"><path d="M256-32c-141 0-256 115-256 256s115 256 256 256 256-115 256-256-115-256-256-256zm-141 230c-9 0-15-7-15-15 0-31 29-58 62-58 32 0 59 26 59 58 0 8-6 15-15 15-8 0-15-7-15-15 0-15-14-27-29-27-16 0-32 13-32 27 0 8-7 15-15 15zm141 215c-69 0-127-59-127-129 0-6 5-12 11-12h231c7 0 12 6 12 12 0 70-58 129-127 129zm141-215c-8 0-15-7-15-15 0-14-16-27-32-27-15 0-29 12-29 27 0 8-7 15-15 15-9 0-15-7-15-15 0-32 27-58 59-58 33 0 62 27 62 58 0 8-6 15-15 15z"/></svg>