<?xml version="1.0" encoding="UTF-8" standalone="no"?>
<svg width="32px" height="32px" viewBox="0 0 32 32" version="1.1" xmlns="http://www.w3.org/2000/svg" xmlns:xlink="http://www.w3.org/1999/xlink">
    <!-- Generator: Sketch 3.7.1 (28215) - http://www.bohemiancoding.com/sketch -->
    <title>acceptance-rate-3</title>
    <desc>Created with Sketch.</desc>
    <defs></defs>
    <g id="Page-1" stroke="none" stroke-width="1" fill="none" fill-rule="evenodd">
        <g id="577-585" transform="translate(-520.000000, -52.000000)" fill="#000000">
            <g id="acceptance-rate-3" transform="translate(520.000000, 52.000000)">
                <path d="M14.8746667,22.188 L7.56266667,14.876 L8.93733333,13.5013333 L14.8746667,19.5013333 L29.2493333,5.68933333 L30.5613333,7.064 L14.8746667,22.188 Z M16.0626667,32 C7.25066667,32 0.0626666667,24.812 0.0626666667,16 C0.0626666667,7.188 7.25066667,0 16.0626667,0 C19,0 21.8746667,0.812 24.688,2.37466667 L23.7506667,4.06266667 C21.188,2.62533333 18.6253333,1.93733333 16.0626667,1.93733333 C8.312,1.93733333 2,8.24933333 2,16 C2,23.7506667 8.312,30.0626667 16.0626667,30.0626667 C23.3133333,30.0626667 29.3133333,24.6253333 30,17.4373333 L31.9373333,17.6253333 C31.1253333,25.8133333 24.312,32 16.0626667,32 L16.0626667,32 Z" id="Shape"></path>
            </g>
        </g>
    </g>
</svg>