<?xml version="1.0" encoding="UTF-8" standalone="no"?>
<svg width="25px" height="23px" viewBox="0 0 25 23" version="1.1" xmlns="http://www.w3.org/2000/svg" xmlns:xlink="http://www.w3.org/1999/xlink">
    <!-- Generator: Sketch 3.8.1 (29687) - http://www.bohemiancoding.com/sketch -->
    <title>add-to-collection-line</title>
    <desc>Created with Sketch.</desc>
    <defs>
        <polygon id="path-1" points="19.62 19.7971538 19.62 0.1472625 0.5555 0.1472625 0.5555 19.7971538 19.62 19.7971538"></polygon>
        <polygon id="path-3" points="7.29732305 20.2875 0 20.2875 0 0.34884943 14.5946461 0.34884943 14.5946461 20.2875 7.29732305 20.2875"></polygon>
    </defs>
    <g id="Page-1" stroke="none" stroke-width="1" fill="none" fill-rule="evenodd">
        <g id="577-585" transform="translate(-368.000000, -331.000000)">
            <g id="add-to-collection-line" transform="translate(368.000000, 331.000000)">
                <g id="Group-3" transform="translate(5.000000, 0.340609)">
                    <mask id="mask-2" fill="white">
                        <use xlink:href="#path-1"></use>
                    </mask>
                    <g id="Clip-2"></g>
                    <path d="M6.623,2.00314125 C4.3105,2.00314125 2.4305,3.86557875 2.4305,6.15371625 L2.4305,13.7890912 C2.4305,16.0784662 4.3105,17.9409037 6.623,17.9409037 L13.55175,17.9409037 C15.86425,17.9409037 17.7455,16.0784662 17.7455,13.7890912 L17.7455,6.15371625 C17.7455,3.86557875 15.86425,2.00314125 13.55175,2.00314125 L6.623,2.00314125 Z M13.55175,19.7971537 L6.623,19.7971537 C3.27675,19.7971537 0.5555,17.1018787 0.5555,13.7890912 L0.5555,6.15371625 C0.5555,2.84216625 3.27675,0.14689125 6.623,0.14689125 L13.55175,0.14689125 C16.898,0.14689125 19.6205,2.84216625 19.6205,6.15371625 L19.6205,13.7890912 C19.6205,17.1018787 16.898,19.7971537 13.55175,19.7971537 L13.55175,19.7971537 Z" id="Fill-1" fill="#000000" mask="url(#mask-2)"></path>
                </g>
                <g id="Group-6" transform="translate(0.000000, 2.328109)">
                    <mask id="mask-4" fill="white">
                        <use xlink:href="#path-3"></use>
                    </mask>
                    <g id="Clip-5"></g>
                    <path d="M7.414625,20.2875 C5.102125,20.2875 3.048375,18.7629 2.482125,16.4945625 L0.148375,7.147725 C-0.521625,4.464825 1.138375,1.7435625 3.847125,1.0802625 L6.917125,0.37365 C7.420875,0.2560875 7.924625,0.5679375 8.042125,1.06665 C8.159625,1.5666 7.845875,2.0653125 7.340875,2.1816375 L4.284625,2.885775 C2.592125,3.2991 1.547125,5.0130375 1.968375,6.702225 L4.302125,16.0490625 C4.725875,17.73825 6.459625,18.7715625 8.160875,18.354525 L13.344625,16.5391125 C13.833375,16.3708125 14.368375,16.622025 14.540875,17.1058875 C14.713375,17.58975 14.457125,18.1194 13.968375,18.290175 L8.697125,20.131575 C8.265875,20.2367625 7.835875,20.2875 7.414625,20.2875" id="Fill-4" fill="#000000" mask="url(#mask-4)"></path>
                </g>
                <polygon id="Fill-7" fill="#000000" points="15.6835 13.9023713 14.146 13.9023713 14.146 5.23987125 15.641 5.23987125"></polygon>
                <polygon id="Fill-9" fill="#000000" points="19.145625 10.1898712 10.395625 10.1898712 10.395625 8.72838375 19.145625 8.77788375"></polygon>
            </g>
        </g>
    </g>
</svg>