<svg xmlns="http://www.w3.org/2000/svg" viewBox="0 0 512 512"><path d="M433 294v62h62v31h-62v93h-171v-155h-46v155h-155v-280c-26-9-47-32-47-74v-5l100-153h265l101 153v5c0 42-21 66-47 74v47h-31v-43c-19-2-36-9-47-22-12 14-32 23-55 23s-41-8-53-22c-12 14-31 22-53 22-23 0-43-9-56-23-11 13-27 20-47 22v245h94v-155h108v155h109v-62h-62v-31h62v-62h31zm-310-153h31c0 22 21 32 40 32 18 0 37-8 37-32h31c0 24 20 32 38 32 19 0 40-10 40-32h31c0 22 20 32 39 32 23 0 37-16 39-43l-78-131h-248l-78 131c2 27 16 43 39 43 19 0 39-10 39-32z"/></svg>