<svg xmlns="http://www.w3.org/2000/svg" viewBox="0 0 512 512"><path d="M256 103c-55 0-106 28-137 73-4 7-2 17 4 21 3 2 6 3 9 3 5 0 10-2 13-7 25-37 66-59 111-59 8 0 15-7 15-16 0-8-7-15-15-15zm240 149h-27c-3-51-25-99-62-136-30-30-67-50-108-58 3-7 6-14 6-23 0-26-22-48-49-48s-49 22-49 48c0 8 3 16 6 23-92 19-163 98-170 194h-27c-9 0-15 7-15 15 0 9 6 16 15 16h10l36 39-34 119c-3 8 2 17 10 19 2 1 3 1 4 1 7 0 13-5 15-11l31-107c55 39 112 59 167 59 54 0 108-19 161-56l29 103c2 7 8 11 15 11h4c8-3 13-11 11-19l-33-115 44-44h10c9 0 15-7 15-15 0-9-6-15-15-15zm-253-229c4-3 8-5 13-5 10 0 18 8 18 18 0 9-8 18-18 18-5 0-9-2-13-5-3-4-5-8-5-13s2-10 5-13zm-170 229c8-94 87-168 183-168 49 0 95 19 130 54 31 31 49 71 53 114h-203zm16 54l-1-1-21-22h375l-22 22c-109 87-219 88-331 1z"/></svg>