<svg xmlns="http://www.w3.org/2000/svg" viewBox="0 0 512 512"><path d="M501 170c0-56-45-101-100-101-23-60-80-100-145-100-64 0-122 40-144 100-56 0-100 45-100 101 0 45 30 84 71 96l33 170c1 4 4 8 7 10s54 32 131 34h5c25-1 48-4 66-9h2c3 0 5-1 7-2 34-10 54-22 55-22 4-3 6-6 7-10l35-171c40-13 70-51 70-96zm-134 253c-5 3-14 7-26 11 0-38 4-80 13-125 1-8-4-16-12-18-9-1-17 4-18 12-10 51-14 97-13 140-12 2-24 4-38 5v-142c0-8-7-15-15-15s-15 7-15 15v142c-14 0-26-2-38-5 2-47-2-94-13-140-2-8-10-13-19-12-8 2-13 11-11 19 9 41 14 83 13 125-14-4-25-9-30-12l-31-152c27-1 52-12 70-30 19 19 44 30 72 30 27 0 53-11 72-30 18 19 43 29 70 30zm33-183c-24 0-46-12-59-32-3-4-8-7-13-7s-10 3-13 7c-13 20-35 32-59 32s-46-12-59-32c-6-9-20-9-26 0-13 20-35 32-59 32-39 0-70-31-70-70s31-70 70-70h9c7 1 14-4 16-11 15-53 64-90 119-90s103 37 118 90c2 7 9 12 17 11h8c39 0 71 31 71 70s-32 70-70 70zm-155-87c-7-5-17-3-21 4-5 7-3 17 4 22l25 16c2 2 5 2 8 2 5 0 10-2 13-6 4-8 3-17-4-22zm148-29l-17 24c-5 7-3 17 4 22 2 2 6 3 9 3 4 0 9-3 12-7l17-24c5-7 4-16-3-21-8-5-17-4-22 3zm-266 34l-34 1c-8 0-15 7-15 16 0 8 7 15 16 15l34-2c8 0 15-7 15-16 0-8-8-15-16-14zm100-97c-6-7-15-7-22-2l-25 21c-6 6-7 15-2 22 3 3 8 5 12 5s7-1 10-4l25-21c6-5 7-15 2-21zm80-20l-27 21c-6 6-7 15-2 22 3 4 7 5 12 5 3 0 7-1 9-3l27-21c7-6 8-15 2-22-5-6-15-7-21-2z"/></svg>