<svg xmlns="http://www.w3.org/2000/svg" viewBox="0 0 512 512"><path d="M156 272c2 0 4 0 7-1 8-4 11-12 8-20-8-20-13-47-15-70h202c-2 23-7 50-15 70-4 8 0 16 8 20 8 3 16 0 20-9 13-31 18-71 18-98 0-8-7-14-15-14h-233c-8 0-14 6-14 14 0 25 4 67 18 98 0 7 5 10 11 10zm300 12h-399c-8 0-15 7-15 15s7 15 15 15h113l23 166h127l23-166h113c8 0 15-7 15-15s-7-15-15-15zm-163 166h-73l-20-136h111zm-37-303c50 0 90-39 90-89s-40-90-90-90-90 40-90 90 40 89 90 89zm0-149c33 0 60 27 60 60s-27 60-60 60-60-27-60-60 27-60 60-60zm46 216c-3-8-12-12-20-9l-24 9-24-9c-8-4-17 1-20 8-2 6 0 13 4 17-4 4-6 11-4 17 3 6 9 10 15 10 2 0 3 0 5-1l24-9 24 9c2 1 4 1 6 1 6 0 12-4 14-10s0-13-4-17c4-4 6-11 4-16z"/></svg>