<svg xmlns="http://www.w3.org/2000/svg" viewBox="0 0 512 512"><path d="M339 92c-7 0-14 1-20 1 45-14 77-58 77-110 0-8-7-15-16-15-58 0-106 51-106 115 0 8 7 15 15 15h6c-10 3-18 7-24 11v-18c0-31-25-56-56-56h-42c-8 0-15 6-15 15 0 8 7 15 15 15h42c14 0 26 12 26 26v18c-12-8-30-17-68-17-73 0-132 74-132 165 0 86 64 223 140 223 40 0 53-9 63-20 5-4 5-5 12-5s7 1 12 5c10 10 23 20 63 20 76 0 140-137 140-223 0-91-60-165-132-165zm24-91c-6 32-29 57-57 65 7-32 29-58 57-65zm-32 448c-31 0-37-6-42-11-7-7-15-14-33-14s-26 7-33 14c-5 6-11 11-41 11-52 0-110-114-110-192 0-74 46-134 101-134 35 0 47 8 56 15 7 5 15 10 27 10 13 0 20-5 27-10 9-7 21-15 56-15 55 0 101 60 101 134 0 78-58 192-109 192z"/></svg>