<svg xmlns="http://www.w3.org/2000/svg" viewBox="0 0 512 512"><path d="M376 269c-26 0-49 14-63 34l-164-67c1-4 1-8 1-12v-7l164-72c13 20 36 34 62 34 42 0 75-34 75-75 0-42-33-76-75-76s-75 34-75 76c0 4 1 8 1 13l-161 71c-13-23-37-39-66-39-41 0-75 34-75 75s34 75 75 75c27 0 50-13 63-34l164 68c0 4-1 8-1 11 0 42 34 76 75 76 42 0 75-34 75-76 0-41-33-75-75-75zm0-211c25 0 45 21 45 46s-20 45-45 45-45-20-45-45 20-46 45-46zm-301 211c-25 0-45-20-45-45s20-45 45-45 45 20 45 45-20 45-45 45zm301 121c-25 0-45-21-45-46s20-45 45-45 45 20 45 45-20 46-45 46z"/></svg>