<svg xmlns="http://www.w3.org/2000/svg" viewBox="0 0 512 512"><path d="M256-32c-141 0-256 115-256 256s115 256 256 256 256-115 256-256-115-256-256-256zm0 481c-124 0-225-101-225-225s101-225 225-225 225 101 225 225-101 225-225 225zm120-306h-47l-23-33c-3-4-7-7-12-7h-77c-5 0-9 2-12 6l-24 33h-45c-14 0-26 12-26 26v150c0 15 12 26 26 26h240c7 0 14-2 18-7 5-5 8-12 8-19v-149c0-15-12-26-26-26zm-3 29v143h-234v-143h49c5 0 9-3 12-6l24-33h63l23 33c3 3 7 6 12 6h51zm-117 2c-37 0-66 29-66 66 0 36 29 66 66 66s66-30 66-66c0-37-29-66-66-66zm0 26c22 0 40 18 40 40s-18 40-40 40-40-18-40-40 18-40 40-40z"/></svg>