<svg xmlns="http://www.w3.org/2000/svg" viewBox="0 0 512 512"><path d="M463 38h-414c-27 0-49 22-49 49v274c0 27 22 49 49 49h414c27 0 49-22 49-49v-274c0-27-22-49-49-49zm18 323c0 10-8 18-18 18h-414c-10 0-18-8-18-18v-274c0-10 8-18 18-18h414c10 0 18 8 18 18zm-40-133h-230c-8 0-14 6-15 14l-17 104c-1 4 1 9 4 12 2 4 7 6 11 6h247c8 0 15-7 15-16v-104c0-9-7-16-15-16zm-15 105h-214l12-74h202zm-232-129h140c9 0 16-7 16-16v-81c0-8-7-15-16-15h-140c-8 0-15 7-15 15v81c0 9 7 16 15 16zm16-81h109v50h-109zm176 81h55c8 0 15-7 15-16v-81c0-8-7-15-15-15h-55c-8 0-15 7-15 15v81c0 9 7 16 15 16zm16-81h24v50h-24zm-301 80c31 0 56-25 56-55 0-31-25-56-56-56-30 0-55 25-55 56 0 30 25 55 55 55zm0-80c14 0 26 11 26 25 0 13-12 24-26 24-13 0-25-11-25-24 1-14 12-25 25-25zm58 105h-98c-8 0-15 7-15 16v104c0 9 7 16 15 16h81c7 0 14-6 15-13l17-105c0-4-1-9-4-12-3-4-7-6-11-6zm-30 105h-52v-74h64z"/></svg>