<svg xmlns="http://www.w3.org/2000/svg" viewBox="0 0 512 512"><path d="M268-16l-252 252c-21 22-21 57 0 79l149 149c22 22 57 22 79 0l252-252c22-22 22-57 0-79l-149-149c-22-21-57-21-79 0zm-231 273l252-251c11-11 26-11 36 0l19 18-288 287-19-18c-10-10-10-26 0-36zm437-67l-252 252c-10 10-25 10-36 0l-109-110 288-287 109 109c10 10 10 26 0 36zm-313 160c-4 3-5 6-4 10 0 4 3 9 7 13 9 8 16 9 23 3 2-3 5-7 8-12l6 7c-1 5-4 9-8 13-6 5-12 8-18 7-7 0-13-4-19-10-4-4-7-8-9-13-1-4-2-9-1-13s4-9 8-12c3-4 8-7 14-9l4 9-6 3c-2 1-4 2-5 4zm74-10l-12-6-14 14 6 12-9 9-25-53 10-10 53 25zm-21-11c-11-6-17-9-19-10l-3-2c2 3 6 10 12 22zm46-36c4 4 5 7 5 12-1 5-3 9-7 14-5 4-9 7-14 8l-7-7c3-2 6-3 9-4 2-2 4-3 5-5 2-2 3-3 3-5 0-1 0-3-1-5l-3-1h-3c-2 1-4 1-8 3-4 1-7 2-9 2s-4 0-6-1-4-2-6-4c-3-3-5-7-4-11 0-4 2-9 6-13 2-2 4-3 7-5 2-1 4-2 7-4l4 9c-3 2-5 3-7 4s-3 2-4 3c-2 2-3 3-3 5 0 1 1 3 2 4 0 1 1 1 2 1 1 1 2 1 3 0 1 0 4-1 8-2 5-2 9-3 12-3 4 1 7 2 9 5zm50-28l-8 8-17-16-15 15 16 17-8 8-39-39 9-8 15 15 15-15-15-15 8-9zm10-10l-39-38 8-8 32 32 16-16 7 7zm52-53l-22 23-38-39 22-22 6 6-14 14 9 9 13-13 7 6-13 14 9 10 15-15zm21-41c3 3 5 7 4 12 0 5-3 9-7 13-4 5-9 7-14 9l-7-7c3-2 7-3 9-5 2-1 4-2 5-4 2-2 3-4 3-5 1-2 0-3-1-5l-3-1h-3c-2 1-4 1-8 3-4 1-6 2-9 2-2 0-4 0-6-1s-4-2-6-4c-3-3-5-7-4-11 0-5 2-9 6-13 2-2 4-3 7-5 2-1 5-2 7-4l4 9c-3 2-5 3-7 4s-3 2-4 3c-2 2-3 3-3 5 0 1 1 3 2 4 0 1 1 1 2 1h3c1 0 4-1 8-2 5-2 9-3 12-3 4 1 7 2 10 5zm29-30c4 4 5 7 5 12-1 5-3 9-8 14-4 4-8 6-13 8l-8-7c4-2 7-3 9-5 3-1 4-2 6-4s3-3 3-5 0-3-2-5c0 0-1-1-2-1h-4c-1 1-4 1-7 3-4 1-7 2-9 2s-4 0-6-1-4-2-6-4c-3-3-5-7-5-11 1-5 3-9 7-13l6-5c3-1 5-2 8-4l4 9c-3 2-5 3-7 4l-5 3c-1 2-2 3-2 5 0 1 0 3 1 4s2 1 3 1h3c1 0 4-1 8-2 5-2 9-3 12-3 4 1 7 2 9 5z"/></svg>