<svg xmlns="http://www.w3.org/2000/svg" viewBox="0 0 512 512"><path d="M287 263c0 50-40 91-90 91s-91-41-91-91 41-90 91-90 90 40 90 90zm-90 197c-109 0-196-89-196-197s87-196 196-196c108 0 196 88 196 196 0 109-88 197-196 197zm0-332c-75 0-136 60-136 136 0 74 61 135 136 135s136-60 136-135c-1-76-61-136-136-136zm97-61h198c11 0 20-9 20-20v-38c0-11-9-21-20-21h-321c-11 0-20 9-20 21v38c0 3 1 5 1 7 17-4 34-7 51-7 33 0 63 7 91 20zm112 121h85c11 0 20-9 20-20v-39c0-11-8-20-20-20h-136c22 22 39 49 51 79zm9 121h77c11 0 20-9 20-21v-38c0-11-9-20-20-20h-75c2 11 3 22 3 33 0 16-2 31-5 46zm-102 140h178c11 0 20-9 20-20v-38c0-11-8-21-20-21h-100c-19 33-46 60-78 79z"/></svg>