<svg xmlns="http://www.w3.org/2000/svg" viewBox="0 0 512 512"><path d="M267 262l19 11c2 1 5 2 7 2 5 0 11-2 13-7 4-7 2-16-5-21l-19-10c3-8 5-17 5-25 0-9-2-17-5-25l19-11c7-4 9-13 5-20s-13-10-20-6l-19 11c-11-12-26-22-43-25v-57l50-50c6-6 6-15 0-21s-15-6-21 0l-28 29v-44c0-8-7-15-15-15s-15 7-15 15v44l-29-29c-6-6-15-6-21 0s-6 15 0 21l50 50v57c-18 3-32 13-43 25l-50-29-18-68c-2-8-11-13-19-10-7 2-12 10-10 18l10 39-38-22c-7-4-16-2-20 6-4 7-2 16 5 20l38 22-39 11c-8 2-13 10-10 18 2 7 7 11 14 11 1 0 3 0 4-1l68-18 50 29c-3 8-5 16-5 25s2 17 5 25l-50 28-68-18c-8-2-16 3-18 11s2 16 10 18l40 10-38 22c-8 4-10 14-6 21 3 5 8 7 13 7 3 0 5 0 7-2l38-22-10 39c-2 8 2 16 10 19h4c7 0 13-4 14-11l19-68 49-29c11 13 26 22 43 25v58l-50 50c-6 5-6 15 0 21 3 2 7 4 11 4s7-2 10-4l29-29v43c0 9 7 15 15 15s15-6 15-15v-43l28 28c6 6 16 6 21 0 6-6 6-15 0-21l-48-49v-58c16-3 31-12 42-25zm-105-50c0-26 21-48 47-48 27 0 48 22 48 48s-21 47-48 47c-26 0-47-21-47-47zm309 62v-178c0-39-31-71-70-71s-70 32-70 71v178c-26 21-41 52-41 85 0 61 50 111 111 111s111-50 111-111c0-33-15-64-41-85zm-70 166c-44 0-81-36-81-81 0-26 13-50 33-65 2-2 4-4 5-6l1-2c1-2 1-4 1-6v-184c0-22 18-41 41-41s41 18 41 41v186c0 5 3 11 8 13h1c20 16 31 39 31 64 0 45-36 81-81 81zm15-131v-48c0-8-7-15-15-15s-15 7-15 15v48c-22 7-38 27-38 52 0 29 24 53 53 53s53-24 53-53c0-25-16-45-38-52z"/></svg>