<svg xmlns="http://www.w3.org/2000/svg" viewBox="0 0 512 512"><path d="M0 480v-389h512v389zm491-368h-470v346h470zm-339 116h58l18-56c4-12 15-20 28-20s24 8 27 20l18 56h59c12 0 23 8 27 20s0 25-10 33l-47 34 18 55c3 12-1 26-11 33-5 4-11 6-17 6s-12-2-17-6l-47-34-47 34c-10 7-24 7-34 0-11-7-15-21-11-33l18-55-47-35c-10-7-15-20-11-32s15-20 28-20zm-5 35l60 43-23 71c-1 3 0 6 3 8s7 2 9 0l60-43 59 43c3 2 7 2 10 0 2-2 3-5 2-8l-22-71 59-43c3-2 4-5 3-9-1-3-4-5-7-5h-74l-23-70c-1-3-4-5-7-5-4 0-7 2-8 5l-22 70h-74c-4 0-7 2-8 5-1 4 0 7 3 9zm-34-243h286v21h-286zm61-52h164v21h-164z"/></svg>