<?xml version="1.0" encoding="UTF-8" standalone="no"?>
<svg width="29px" height="32px" viewBox="0 0 29 32" version="1.1" xmlns="http://www.w3.org/2000/svg" xmlns:xlink="http://www.w3.org/1999/xlink">
    <!-- Generator: Sketch 3.7.1 (28215) - http://www.bohemiancoding.com/sketch -->
    <title>copy-32</title>
    <desc>Created with Sketch.</desc>
    <defs></defs>
    <g id="Page-1" stroke="none" stroke-width="1" fill="none" fill-rule="evenodd">
        <g id="577-585" transform="translate(-208.000000, -104.000000)" fill="#000000">
            <g id="copy-32" transform="translate(208.000000, 104.000000)">
                <path d="M27.792,0.750666667 L7.104,0.750666667 C6.66666667,0.750666667 6.35333333,1.12533333 6.35333333,1.50133333 L6.35333333,5.68933333 L1.54133333,5.68933333 C1.104,5.68933333 0.729333333,6.064 0.729333333,6.50133333 L0.729333333,30.5013333 C0.729333333,30.876 1.104,31.252 1.54133333,31.252 L22.2293333,31.252 C22.6666667,31.252 22.98,30.8773333 22.98,30.5013333 L22.98,26.3133333 L27.792,26.3133333 C28.2293333,26.3133333 28.604,25.9386667 28.604,25.5013333 L28.604,1.50133333 C28.604,1.12666667 28.2293333,0.750666667 27.792,0.750666667 L27.792,0.750666667 Z M21.4173333,29.688 L2.292,29.688 L2.292,7.25066667 L21.4173333,7.25066667 L21.4173333,29.688 L21.4173333,29.688 Z M27.0413333,24.7506667 L22.9786667,24.7506667 L22.9786667,6.5 C22.9786667,6.06266667 22.6666667,5.688 22.228,5.688 L7.916,5.688 L7.916,2.31333333 L27.0413333,2.31333333 L27.0413333,24.7506667 L27.0413333,24.7506667 Z" id="Shape"></path>
            </g>
        </g>
    </g>
</svg>