<svg xmlns="http://www.w3.org/2000/svg" viewBox="0 0 512 512"><path d="M282 224c0-39-17-76-47-100-7-6-16-5-22 2-5 6-4 16 2 21 23 19 36 47 36 77 0 55-44 100-99 100s-100-45-100-100c0-52 39-95 90-99 9-1 15-9 14-17s-8-15-16-14c-68 6-119 62-119 130 0 64 47 118 108 128v47h-27c-8 0-15 7-15 16 0 8 7 15 15 15h27v35c0 8 6 15 15 15 8 0 15-7 15-15v-35h26c9 0 16-7 16-15 0-9-7-16-16-16h-26v-45c69-4 123-61 123-130zm209-242c0-1 0-3-1-4-2-4-5-7-8-8-2-1-4-2-6-2h-83c-8 0-15 7-15 16 0 8 7 15 15 15h46l-81 81c-23-18-51-28-81-28-72 0-131 59-131 131 0 39 18 75 48 100 6 6 16 4 21-2 6-7 5-16-2-21-23-19-36-48-36-77 0-56 45-100 100-100s100 44 100 100c0 51-39 94-91 99-8 1-15 8-14 16s8 15 15 15h2c67-7 118-62 118-130 0-31-10-59-28-81l81-81v46c0 8 7 15 16 15 8 0 15-7 15-15v-85z"/></svg>