<svg xmlns="http://www.w3.org/2000/svg" viewBox="0 0 512 512"><path d="M489 334h-466c-5 0-10-5-10-10v-146c0-3 1-4 2-6l94-126c1-2 5-4 7-4h208c4 0 6 2 9 4l73 109 87 41c4 1 6 5 6 9v119c0 5-5 10-10 10zm-456-20h446v-103l-85-39c-1-2-2-3-4-4l-71-107h-197l-89 119zm163 21c0 34-27 61-60 61-34 0-60-27-60-61 0-33 26-60 60-60 33 0 60 27 60 60zm-60 72c-39 0-71-32-71-70 0-39 32-71 71-71 38 0 70 32 70 71 0 38-32 70-70 70zm0-122c-28 0-50 23-50 50s23 50 50 50 50-23 50-50-22-50-50-50zm290 50c0 34-27 61-60 61s-60-27-60-61c0-33 27-60 60-60s60 27 60 60zm-60 72c-38 0-70-32-70-70 0-39 32-71 70-71s70 32 70 71c0 38-30 70-70 70zm0-122c-28 0-50 23-50 50s23 50 50 50 50-23 50-50-22-50-50-50zm-78-99c-5 0-10-6-10-11v-73c0-5 5-10 10-10s10 5 10 10v73c0 5-5 11-10 11zm49 0h-49c-5 0-10-6-10-11s5-10 10-10h49c5 0 10 5 10 10s-5 11-10 11z"/></svg>