<svg xmlns="http://www.w3.org/2000/svg" viewBox="0 0 512 512"><path d="M499 117c-5-10-15-17-26-18-22-4-41 15-45 39-1 8 0 16 2 24h-96l130-165h18c8 0 15-6 15-14 0-9-7-15-15-15h-25c-4 0-8 2-11 6l-149 188-228-1c3-7 3-15 2-23-3-24-23-42-45-39-9 1-18 6-23 14-8 10-11 23-9 37 2 16 12 30 26 36 21 74 115 126 229 126s209-52 230-126c13-6 23-19 26-36 2-13 0-24-6-33zm-30 10c3 0 5 3 5 5 2 3 3 8 3 13-2 9-7 15-12 15h-1c-2 0-3-2-4-3-3-4-4-9-3-15 1-9 7-15 12-15zm-443 3c1-1 3-3 5-3 5 0 11 6 12 15 1 5 0 10-2 14-1 1-3 3-6 4-5 0-10-6-12-15 0-6 1-11 3-15zm273 214c-5 1-10 4-12 8l-4 7-18-31c-5-9-20-9-25 0l-18 31-4-7c-2-5-7-8-12-8-6 0-10 3-13 7-10 18-34 60-34 79 0 24 22 46 46 46h95c12 0 23-5 32-14s14-21 14-32c0-19-23-61-34-79-2-4-7-7-13-7zm1 103h-95c-8 0-17-9-17-17 1-6 8-22 17-40l3 7c2 5 7 8 13 8 5 0 10-3 13-7l19-33 19 33c2 4 7 7 13 7 5 0 10-3 12-8l4-7c9 18 16 34 16 40"/></svg>