<svg xmlns="http://www.w3.org/2000/svg" viewBox="0 0 512 512"><path d="M127 346h-30l-12-112c-3-24-23-43-47-43h-23c-8 0-15 7-15 15v251c0 9 7 15 15 15h161c8 0 14-6 14-15v-48c0-35-28-63-63-63zm34 97h-131v-222h8c9 0 16 7 17 16l13 126c1 7 7 13 15 13h44c19 0 34 15 34 33zm336-252h-24c-24 0-44 19-46 43l-12 112h-31c-35 0-63 29-63 63v48c0 8 7 15 15 15h161c8 0 15-7 15-15v-251c0-8-7-15-15-15zm-15 252h-131v-34c0-18 15-33 33-33h44c8 0 15-6 15-13l13-126c1-9 9-16 17-16h9zm-185-16v-108h87c9 0 15-7 15-15v-41c0-8-6-15-15-15h-249c-8 0-14 7-14 15v41c0 8 6 15 14 15h86v107l-14 23c-3 4-3 10 0 15 2 4 8 8 13 8h78c9 0 15-7 15-15 0-4-1-8-4-11zm-30-123v127c0 3 1 6 3 8l1 3h-24l2-4c1-2 2-5 2-8v-126c0-8-7-15-15-15h-85v-11h219v11h-88c-8 0-15 7-15 15zm-246-141h315c9 0 15-7 15-15v-157c0-9-6-15-15-15h-315c-8 0-15 6-15 15v157c0 8 7 15 15 15zm15-158h286v128h-286zm461-29h-105c-8 0-15 6-15 15v104c0 9 7 15 15 15h105c8 0 15-6 15-15v-104c0-9-7-15-15-15zm-15 105h-75v-76h75z"/></svg>