<svg xmlns="http://www.w3.org/2000/svg" viewBox="0 0 512 512"><path d="M316 403c-109 0-197-88-197-196 0-109 88-196 197-196 108 0 196 88 196 196s-88 196-196 196zm-28-225c0-35-32-80-32-80-2 0-2-1-3-1-5-2-9-2-12 3 0 0-27 44-27 65v190c18 12 38 21 59 26v-95l11-9c3-1 4-4 4-7v-92zm121-54c-2-4-6-3-6 2v73c0 11-4 18-11 18s-11-7-11-18c0-3 1-77-10-77s-10 74-10 77c0 10-4 18-11 18s-11-7-11-18v-73c0-5-4-6-6-2-18 44-17 95-17 95 0 39 40 72 45 86 3 9 3 49 2 75l17-5c-1-25-2-62 1-70 4-14 45-47 45-86 1 0 1-51-17-95zm-156 148h-21v-108c0-11 10-31 18-45 9 14 22 39 22 59v88l-7 6zm-99 80c0 28-23 51-52 51-28 0-51-23-51-51s23-51 51-51c29 0 52 23 52 51zm-128 85c-14 0-26-11-26-25s12-26 26-26 25 12 25 26-11 25-25 25z"/></svg>