<svg xmlns="http://www.w3.org/2000/svg" viewBox="0 0 512 512"><path d="M172 31c0 9-5 17-13 24-10 9-21 23-21 41 0 15 5 23 12 30s23 8 30 1c4-3 4-8 1-12s-7-8-7-18c0-11 6-20 15-27 8-8 19-22 19-38 0-30-33-43-34-44-8-4-19-3-25 2-7 3-5 10 2 15 0 0 21 7 21 26zm81 0c0 9-5 17-14 24-9 9-20 23-20 41 0 15 6 23 12 30s23 8 30 1c4-3 4-8 1-13-3-4-6-7-6-18s6-20 15-27c8-8 19-22 19-38 0-31-33-43-34-44-9-4-21-3-27 1-6 5-4 12 4 17 0 0 20 7 20 26zm82 0c0 9-5 17-14 24-9 9-21 23-21 41 0 15 6 23 13 30 6 7 23 8 30 1 4-3 4-8 1-12s-7-8-7-18c0-11 6-20 14-27 9-8 20-22 20-38 0-30-33-43-34-44-8-5-20-4-26 0-6 5-4 12 3 17 0 0 21 7 21 26zm177 164c0-8-7-14-15-14h-482c-8 0-15 7-15 14 7 116 90 211 200 235h-7c-9 0-17 7-17 17 0 9 7 16 17 16h127c9 0 17-7 17-16s-7-17-17-17h-8c110-24 193-119 200-235z"/></svg>