<svg xmlns="http://www.w3.org/2000/svg" viewBox="0 0 512 512"><path d="M508 20c0-8-7-15-15-15-63-4-92-14-119-22-24-8-47-15-90-15h-158c-19 0-44 17-44 44 0 10 1 19 5 26-22 7-35 25-35 51 0 7 2 13 4 19-18 8-33 28-33 49 0 10 5 20 12 29-18 9-31 28-31 48 0 29 25 54 54 54h174c-5 29-16 84-16 120 0 22 6 41 17 53 9 12 23 19 38 19 25 0 44-18 44-43 0-104 97-187 177-187 5 0 8-2 11-5s5-7 5-11zm-224 417c0 9-8 12-13 12s-11-3-15-7c-4-6-9-16-9-34 0-47 19-131 19-132 1-5 0-9-3-13s-7-6-12-6h-193c-12 0-23-11-23-23s11-23 23-23h29c9 0 16-7 16-16 0-8-7-15-16-15-13 0-33-14-33-23 0-12 12-24 23-24h29c9 0 16-7 16-15s-7-15-16-15c-1 0-23-1-23-14 0-20 12-23 23-23h29c9 0 16-7 16-16 0-8-7-15-16-15-20 0-23-12-23-23 0-10 12-14 14-14h158c38 0 57 6 81 14 25 7 54 17 112 22v185c-92 10-193 102-193 218z"/></svg>