<svg xmlns="http://www.w3.org/2000/svg" viewBox="0 0 512 512"><path d="M150 292c-4-15-4-17-4-34 0-74 53-197 110-197 22 0 48 25 69 58l22-23c-27-43-58-65-91-65-83 0-141 147-141 227 0 20 3 39 9 58zm295-240s0-1-1-2h-1c-47-51-113-82-187-82-141 0-256 115-256 256 0 74 31 140 82 187v1c1 1 2 1 2 1 46 42 106 67 172 67 141 0 256-115 256-256 0-66-25-126-67-172zm-414 172c0-124 101-225 225-225 60 0 115 24 156 62l-319 319c-38-41-62-96-62-156zm335 35c0 70-49 128-110 128-32 0-62-16-83-44l175-175c11 32 18 64 18 91zm-110 190c-53 0-101-18-140-49l36-35c26 33 64 52 104 52 78 0 141-71 141-159 0-33-9-75-25-114l60-60c31 38 50 87 50 140-1 124-102 225-226 225z"/></svg>