<svg xmlns="http://www.w3.org/2000/svg" viewBox="0 0 512 512"><path d="M491 31c-1-4-4-7-8-7h-139c-25 0-46 15-55 38l-28 71c-2 5-7 9-14 9h-16v-3c-1-10-14-19-29-19h-35c-14 0-28 11-31 25l-4 16v1c-3 38-3 78 0 118v1l4 16 1 4c-1 6-2 15-2 22 1 8 1 15 7 16h1c10 0 15-5 15-17 0-1 0-3-1-4 3 1 6 1 9 1 10-1 25-1 35 0h4c13 0 24-7 25-17v-3h17c6 0 11 4 13 9l27 71c10 23 31 38 55 38h135c6 0 12-4 14-10 13-56 20-121 20-187 2-67-5-133-20-189zm-15 369h-132c-17 0-32-11-38-26l-28-71c-6-13-17-21-30-21h-29s-1 0-1 1l-2 1-2 2c0 1 0 1-1 2v1l-1 11c-1 1-4 3-9 2-11-1-27-1-38 0-5 1-11-4-13-10l-4-15c-3-38-3-75 0-113l4-16c1-6 8-11 15-11h34c6 0 11 3 12 3l1 11v1c0 1 0 1 1 2l1 1 1 1 1 1 2 1h28c13 0 25-8 30-20l28-71c7-16 22-26 39-26h131c13 54 20 116 20 180s-8 125-20 179zm-317-11c-115 0-115 15-115 21 0 4 3 9 8 9 0 0 50 5 108 5s106-5 107-5c4 0 9-5 9-9-2-6-2-21-117-21zm-145 16c-7 0-14 4-14 9 0 2 0 3 1 3 0 0 7 3 13 3 7 0 12-3 12-3 1 0 1-1 1-3 1-5-5-9-13-9zm360-228c0 6-5 11-11 11-7 0-12-5-12-11 0-7 5-12 12-12 6 0 11 5 11 12zm0 94c0 7-5 12-11 12-7 0-12-5-12-12 0-6 5-11 12-11 6 0 11 5 11 11zm46-82c-2-1-4 1-5 3 0 0-3 14-3 36s3 35 3 35c1 2 2 3 4 3h1c2 0 3-2 3-4 0 0-3-13-3-34 0-22 3-34 3-35 0-2-1-4-3-4z"/></svg>