<svg xmlns="http://www.w3.org/2000/svg" viewBox="0 0 512 512"><path d="M220 162c0 10-9 18-19 18-11 0-19-8-19-18 0-11 8-19 19-19 10 0 19 8 19 19zm114 0c0 10-9 18-19 18-11 0-19-8-19-18 0-11 8-19 19-19 10 0 19 8 19 19zm-116 83c44-27 77-2 78-1 3 3 8 2 10-1 3-3 2-7-1-10 0 0-11-8-27-12-6-1-12-2-19-2-14 0-30 3-48 14-4 2-5 6-3 10 2 3 7 4 10 2zm280-276h-484v24h68c-1 2-1 5-1 8v445c0 17 14 32 32 32 8 0 16-3 22-9l116-139c3-2 7-2 10 0l116 138 1 1c6 6 13 9 21 9 18 0 32-15 32-32v-445c0-3 0-5-1-8h68zm-90 32v445c0 6-5 8-9 8-1 0-3 0-5-2l-115-137-1-1c-6-6-14-9-22-9s-16 3-22 9l-116 138c-2 1-3 2-5 2-4 0-9-3-9-9v-444c0-4 4-8 9-8h65v68h24v-68h109v68h23v-68h65c5 0 9 4 9 8z"/></svg>