<svg xmlns="http://www.w3.org/2000/svg" viewBox="0 0 512 512"><path d="M512 392c0-12-9-23-21-25l-1-249c12-2 22-13 22-25v-1c0-14-12-25-26-25h-55v-23c0-8-7-15-17-15l-71 1c-10 0-17 7-17 15v22h-55c-7 0-13 3-18 8s-7 11-7 18c0 13 9 23 21 26v16h-242c-7 0-13 2-18 7-4 4-7 11-7 17v89c0 10 8 17 17 17h67c24 0 43 20 43 44v25c0 10 9 19 19 19h121v14c-5 1-10 4-14 8-5 4-7 11-7 18 0 14 11 26 25 26h215c7 0 14-3 18-8 5-5 8-11 8-18zm-169-347h71c1 0 2 0 2 1v21h-75v-21c0-1 1-1 2-1zm-197 292v8-8c-2 0-3-2-3-3v-25c0-33-27-59-59-59h-67c-1 0-1-1-1-2v-89c0-2 1-4 2-6 2-2 5-3 7-3h241v187zm115-244c0-3 1-6 3-8 2-1 4-3 7-3h215c6 0 10 5 10 11s-4 10-10 10h-215c-6 0-10-4-10-10zm21 128v-102h193v248h-193v-14zm211 179c-2 2-4 3-7 3h-215v8-8c-6 0-10-4-10-10 0-3 1-6 3-7 2-2 4-4 7-4h215c6 0 10 5 10 11 0 3-1 5-3 7zm-454-240c-6 0-11 5-11 11v5c0 6 5 12 11 12s11-6 11-12v-5c0-6-5-11-11-11zm34 0c-6 0-11 5-11 11v5c0 6 5 12 11 12s11-6 11-12v-5c0-6-5-11-11-11zm34 0c-6 0-11 5-11 11v5c0 6 5 12 11 12s11-6 11-12v-5c0-6-5-11-11-11zm34 0c-6 0-11 5-11 11v5c0 6 5 12 11 12s11-6 11-12v-5c0-6-5-11-11-11zm34 27c7 0 12-5 12-11v-5c0-6-5-11-12-11-6 0-11 5-11 11v5c0 6 5 11 11 11zm34 0c7 0 12-5 12-11v-5c0-6-5-11-12-11-6 0-11 5-11 11v5c0 6 5 11 11 11zm35 0c6 0 11-5 11-11v-5c0-6-5-11-11-11s-12 5-12 11v5c0 6 5 11 12 11zm-69 112c-6 0-11 5-11 11v5c0 6 5 11 11 11 7 0 12-5 12-11v-5c0-6-5-11-12-11zm35 0c-6 0-12 5-12 11v5c0 6 6 11 12 11s11-5 11-11v-5c0-6-5-11-11-11zm36 0c-6 0-11 5-11 11v5c0 6 5 11 11 11s11-5 11-11v-5c0-6-5-11-11-11zm188-81c0 6-5 10-11 10s-10-4-10-10 4-11 10-11 11 5 11 11zm-88 0c0 6-4 10-10 10s-11-4-11-10 5-11 11-11 10 5 10 11zm-7 53c1 3 4 5 8 5 0 0 11-3 31-3 19 0 30 3 30 3h2c3 0 5-2 6-5 1-4-2-7-5-8 0 0-13-2-33-2-21 0-33 2-34 2-4 1-6 4-5 8z"/></svg>