<svg xmlns="http://www.w3.org/2000/svg" viewBox="0 0 512 512"><path d="M484 191c-17-28-41-52-70-72v-4c8-1 13-10 13-19v-18c0-3 0-5-1-7 1-3-1-7-4-9-2-1-60-38-130-48 1-2 1-5 1-8 0-21-17-37-37-37s-37 16-37 36c0 3 0 6 1 9-38 5-86 21-127 44-3 2-5 5-5 8-2 3-3 7-3 12v18c0 9 5 18 13 19v4c-29 20-53 44-70 72-19 31-28 64-28 99 0 38 9 76 25 106 17 33 43 57 73 68l1 1 1-1c2 1 4 2 6 2 32 10 126 13 136 14h2c32 0 123-2 162-14 34-9 62-33 81-69 16-31 25-69 25-107 0-35-9-68-28-99zm-97-69l13 8 1 1c29 19 52 42 69 69 16 28 25 59 25 90 0 35-8 70-23 98-17 32-41 53-71 61 0 1-1 1-2 1-35-20-73-32-112-36-29-4-59-3-89 2 1-1 2-3 2-5 0-6-5-8-11-8s-12 2-12 8c0 3 2 6 5 8-16 4-29 8-41 12 1-2 2-4 2-6 0-7-5-12-11-12-7 0-8 5-8 12 0 5 1 9 5 10-11 5-20 9-26 12-26-10-48-30-63-59-15-28-23-63-23-98 0-32 9-62 25-90 17-27 40-51 69-69l14-8zm-209 312l-6 5c-2 2-1 6 2 8 2 3 6 3 8 2l5-6c2-2 1-5-1-8-1-1-3-2-4-2 3-1 7-2 11-3 31-6 62-7 92-3 32 3 63 13 93 27-39 6-99 8-134 8-1 0-81-3-121-10 13-5 32-13 55-18zm56-403c3-1 6-3 8-6 1-3 1-6-1-9s-4-7-4-10c0-11 9-19 19-19s19 8 19 19c0 4-2 7-4 11-2 2-2 6-1 9s4 5 8 5c62 5 119 37 132 45v20c0 4-5 7-8 9h-292c-3-1-8-4-8-9v-22c43-24 95-41 132-43zm-18 194c0 10-8 18-18 18s-18-8-18-18 8-19 18-19 18 9 18 19zm116 0c0 10-8 18-18 18s-18-8-18-18 8-19 18-19 18 9 18 19zm-120 105c1 1 3 2 4 2s3-1 4-2c10-9 24-14 39-14 14 0 28 5 39 14 2 2 5 2 7 0s2-6 0-7c-13-12-30-17-46-17-17 0-34 6-46 17-3 1-3 5-1 7zm44 109h5c4 0 7-3 7-7 0-3-3-6-7-6h-5c-3 0-6 3-6 6 0 4 3 7 6 7zm-20 8c0 5-4 10-9 10s-9-5-9-10 4-9 9-9 9 4 9 9z"/></svg>