<?xml version="1.0" encoding="UTF-8" standalone="no"?>
<svg width="25px" height="23px" viewBox="0 0 25 23" version="1.1" xmlns="http://www.w3.org/2000/svg" xmlns:xlink="http://www.w3.org/1999/xlink">
    <!-- Generator: Sketch 3.7.2 (28276) - http://www.bohemiancoding.com/sketch -->
    <title>explore-new-tab</title>
    <desc>Created with Sketch.</desc>
    <defs>
        <polygon id="path-1" points="19.010765 0.354583333 0.372331667 0.354583333 0.372331667 19.7546233 19.010765 19.7546233 19.010765 0.354583333"></polygon>
    </defs>
    <g id="Page-1" stroke="none" stroke-width="1" fill="none" fill-rule="evenodd">
        <g id="577-585" transform="translate(-263.000000, -331.000000)">
            <g id="explore-new-tab" transform="translate(263.083333, 331.000000)">
                <g id="Group-3" transform="translate(5.750000, 0.028827)">
                    <mask id="mask-2" fill="white">
                        <use xlink:href="#path-1"></use>
                    </mask>
                    <g id="Clip-2"></g>
                    <path d="M5.34224833,2.27117333 C3.65864833,2.27117333 2.28899833,3.64082333 2.28899833,5.32442333 L2.28899833,14.7847067 C2.28899833,16.4683067 3.65864833,17.8379567 5.34224833,17.8379567 L14.0408483,17.8379567 C15.7244483,17.8379567 17.0940983,16.4683067 17.0940983,14.7847067 L17.0940983,5.32442333 C17.0940983,3.64082333 15.7244483,2.27117333 14.0408483,2.27117333 L5.34224833,2.27117333 Z M14.0408483,19.7546233 L5.34224833,19.7546233 C2.60218167,19.7546233 0.372331667,17.5251567 0.372331667,14.7847067 L0.372331667,5.32442333 C0.372331667,2.58397333 2.60218167,0.354506667 5.34224833,0.354506667 L14.0408483,0.354506667 C16.7812983,0.354506667 19.010765,2.58397333 19.010765,5.32442333 L19.010765,14.7847067 C19.010765,17.5251567 16.7812983,19.7546233 14.0408483,19.7546233 L14.0408483,19.7546233 Z" id="Fill-1" fill="#000000" mask="url(#mask-2)"></path>
                </g>
                <path d="M7.233845,22.6454933 C6.33952833,22.6454933 5.459395,22.40246 4.673945,21.92866 C3.53736167,21.2424933 2.73657833,20.1549767 2.41802833,18.86621 L0.147545,9.68269333 C-0.171388333,8.39392667 0.0310116667,7.05839333 0.717178333,5.92142667 C1.40296167,4.78484333 2.49047833,3.98367667 3.779245,3.66512667 L5.882595,3.14532667 C6.39626167,3.01691 6.91567833,3.33162667 7.04256167,3.84567667 C7.16982833,4.35934333 6.85626167,4.87876 6.34221167,5.00564333 L4.239245,5.52582667 C3.44727833,5.72171 2.77951167,6.21391 2.357845,6.91196 C1.93656167,7.61001 1.81197833,8.43072667 2.00786167,9.22231 L4.278345,18.40621 C4.47422833,19.1981767 4.96642833,19.8663267 5.66447833,20.2879933 C6.35026167,20.7008433 7.15411167,20.8277267 7.933045,20.6479433 L13.013745,18.8562433 C13.5124617,18.6791433 14.060245,18.94211 14.236195,19.4415933 C14.412145,19.94031 14.1503283,20.48771 13.650845,20.66366 L8.52376167,22.4718433 C8.49501167,22.4821933 8.46511167,22.49101 8.43521167,22.4982933 C8.03692833,22.59681 7.63366167,22.6454933 7.233845,22.6454933" id="Fill-4" fill="#000000"></path>
            </g>
        </g>
    </g>
</svg>