<?xml version="1.0" encoding="UTF-8" standalone="no"?>
<svg width="21px" height="22px" viewBox="0 0 21 22" version="1.1" xmlns="http://www.w3.org/2000/svg" xmlns:xlink="http://www.w3.org/1999/xlink">
    <!-- Generator: Sketch 3.7.2 (28276) - http://www.bohemiancoding.com/sketch -->
    <title>feed-app-bar</title>
    <desc>Created with Sketch.</desc>
    <defs>
        <polygon id="path-1" points="20.5708462 10.8710885 20.5708462 0.165423077 0 0.165423077 0 10.8710885 0 21.5767538 20.5708462 21.5767538 20.5708462 10.8710885"></polygon>
    </defs>
    <g id="Page-1" stroke="none" stroke-width="1" fill="none" fill-rule="evenodd">
        <g id="577-585" transform="translate(-474.000000, -331.000000)">
            <g id="feed-app-bar" transform="translate(474.000000, 331.000000)">
                <g id="Group-3" transform="translate(0.000000, 0.257823)">
                    <mask id="mask-2" fill="white">
                        <use xlink:href="#path-1"></use>
                    </mask>
                    <g id="Clip-2"></g>
                    <path d="M2.11538462,2.28063846 L2.11538462,16.0919846 C2.11538462,17.9497154 3.62703846,19.4613692 5.48519231,19.4613692 L15.0856538,19.4613692 C16.9438077,19.4613692 18.4554615,17.9497154 18.4554615,16.0919846 L18.4554615,2.28063846 L2.11538462,2.28063846 Z M15.0856538,21.5767538 L5.48519231,21.5767538 C2.46061538,21.5767538 0,19.1161385 0,16.0919846 L0,2.20702308 C0,1.08121538 0.915961538,0.165253846 2.04176923,0.165253846 L18.5290769,0.165253846 C19.6548846,0.165253846 20.5708462,1.08121538 20.5708462,2.20702308 L20.5708462,16.0919846 C20.5708462,19.1161385 18.1102308,21.5767538 15.0856538,21.5767538 L15.0856538,21.5767538 Z" id="Fill-1" fill="#000000" mask="url(#mask-2)"></path>
                </g>
                <path d="M14.5065038,8.47393462 L5.62188846,8.47393462 C5.03761923,8.47393462 4.56419615,8.00051154 4.56419615,7.41624231 C4.56419615,6.83197308 5.03761923,6.35855 5.62188846,6.35855 L14.5065038,6.35855 C15.0907731,6.35855 15.5641962,6.83197308 15.5641962,7.41624231 C15.5641962,8.00051154 15.0907731,8.47393462 14.5065038,8.47393462" id="Fill-4" fill="#000000"></path>
                <path d="M14.5065038,12.7047038 L5.62188846,12.7047038 C5.03761923,12.7047038 4.56419615,12.2312808 4.56419615,11.6470115 C4.56419615,11.0627423 5.03761923,10.5893192 5.62188846,10.5893192 L14.5065038,10.5893192 C15.0907731,10.5893192 15.5641962,11.0627423 15.5641962,11.6470115 C15.5641962,12.2312808 15.0907731,12.7047038 14.5065038,12.7047038" id="Fill-6" fill="#000000"></path>
                <path d="M14.5065038,16.9354731 L5.62188846,16.9354731 C5.03761923,16.9354731 4.56419615,16.46205 4.56419615,15.8777808 C4.56419615,15.2935115 5.03761923,14.8200885 5.62188846,14.8200885 L14.5065038,14.8200885 C15.0907731,14.8200885 15.5641962,15.2935115 15.5641962,15.8777808 C15.5641962,16.46205 15.0907731,16.9354731 14.5065038,16.9354731" id="Fill-8" fill="#000000"></path>
            </g>
        </g>
    </g>
</svg>