<svg xmlns="http://www.w3.org/2000/svg" viewBox="0 0 512 512"><path d="M339 256v-31c10-8 26-28 28-63 3-2 6-5 8-9 3-6 5-13 5-21-1-11-4-21-10-27 5-13 12-36 7-58-7-30-48-41-81-41-28 0-61 8-75 28-13 0-21 5-26 10-14 16-8 43-3 60-2 2-4 4-5 7-3 6-5 13-5 21 0 14 5 24 13 30 3 36 22 55 32 64v30l-30 10c-60 21-97 35-105 61-10 31-10 98-10 102 0 8 6 15 15 15h247v-30h-232c1-24 3-60 9-78 4-13 53-30 86-41 14-5 28-10 41-15 6-2 10-7 10-14v-48c0-6-4-11-8-14-2 0-26-13-26-51 0-7-5-13-11-15-1-3-1-8 0-11 7-2 11-8 11-15 0-3 0-6-2-12-8-27-6-34-5-35 1 0 4-1 10 0 8 2 15-3 17-11s22-18 52-18 50 10 52 18c4 16-3 35-7 45-2 6-4 9-4 13 0 7 5 13 12 15 1 3 1 8 0 11-3 1-5 2-7 4-3 3-4 7-4 11 0 38-21 52-21 52-5 2-8 7-8 13v48c0 7 4 12 10 15m-171-268c-14-10-32-12-49-5-18 7-33 23-37 38-5 18 0 38 6 54-5 6-8 14-8 24 0 8 2 14 5 20 2 4 4 6 6 8 3 31 19 47 29 55v9l-4 1c-66 25-77 44-86 71-2 7-10 42-9 50 0 5 0 14-1 23 0 26 0 27 1 28l1 1h7c4 1 8 1 11 1s8 0 10-4c-6-111 36-126 72-139l18-8c7-2 10-8 10-14v-28c0-7-3-12-9-15 0 0-20-9-20-41 0-6-4-12-10-14-1-2-1-5 0-7 6-3 10-8 10-15 0-3-1-6-3-10v-2c-4-10-10-28-7-42 1-3 8-11 19-16 7-3 14-2 21 2 2 1 5 2 8 2 5 0 10-2 13-6 2-4 3-8 2-12 0-4-2-7-6-9zm284 322v-67c0-8-6-15-15-15-8 0-15 7-15 15v67h-66c-8 0-15 6-15 15 0 8 7 15 15 15h67v64c0 8 6 15 15 15 8 0 15-7 15-15v-64h63c9 0 15-7 15-15 0-9-6-16-15-16h-64z"/></svg>