<svg xmlns="http://www.w3.org/2000/svg" viewBox="0 0 512 512"><path d="M468 14c-29-30-56-45-83-46h-3c-11 0-22 3-32 8-8 4-16 9-24 16-8 8-18 22-16 45 1 9 4 18 6 25l-3 3-16 16c-3 3-6 6-9 8-4 4-9 9-14 13-9 7-43 13-59 15-38 0-99 30-134 60-78 76-120 162-32 252 34 36 70 51 105 51 51 0 101-31 147-76 41-42 56-94 58-145-1-13 15-49 24-59 2-1 3-2 3-3 7-6 15-14 23-21 5-4 9-7 11-10 8 2 16 4 26 5h4c20 0 33-8 41-16 15-15 23-37 21-60-3-26-18-54-44-81zm-189 367c-46 45-88 68-125 68-28 0-55-14-82-42-44-45-74-104 31-207 33-27 86-52 112-52h3c2 0 36-4 61-14 8 3 56 19 56 74 0 4 1 7 3 9-6 15-10 30-10 42-2 49-18 90-49 122zm190-248c-5 4-11 7-19 7h-2c-7-1-14-3-19-4l-16-4-12 10c-4 2-8 6-13 11-9 7-17 16-24 22 0 1-1 1-2 2-9-32-32-53-53-64l1-1 2-2 6-6 18-17c1-2 2-3 3-4l13-14-6-18c-2-5-4-11-4-17-1-8 1-14 6-19s10-9 16-11c6-3 12-5 18-5h2c18 1 38 14 61 37 21 22 33 43 35 62 2 14-3 26-11 35z"/></svg>