<svg xmlns="http://www.w3.org/2000/svg" viewBox="0 0 512 512"><path d="M341 354c-26 17-56 26-88 26-67 0-126-43-148-106-2-8-11-12-19-10-8 3-12 12-10 20 26 76 97 127 177 127 38 0 74-11 105-32 7-5 9-15 4-22-5-6-14-8-21-3zm64-49l6 1c6 0 12-4 14-9 10-23 15-48 15-73 0-17-2-33-7-50-2-8-10-13-19-10-8 2-13 10-10 19 3 13 5 27 5 41 0 21-4 42-12 61-3 7 1 16 8 20zm-323-101c1 1 2 1 3 1 7 0 14-5 15-13 15-72 79-124 153-124 42 0 81 16 110 45 6 6 16 6 22 0s6-16 0-22c-36-35-82-54-132-54-88 0-165 63-183 149-2 9 4 17 12 18zm414 109h-331c-9 0-16 7-16 15 0 9 7 16 16 16h331c9 0 16-7 16-16 0-8-7-15-16-15zm-313-172c0 8 6 15 15 15h298c9 0 16-7 16-15s-7-15-16-15h-298c-9 0-15 7-15 15zm213 92c0-8-7-15-16-15h-364c-9 0-16 7-16 15 0 9 7 16 16 16h364c9 0 16-7 16-16z"/></svg>