<?xml version="1.0" encoding="UTF-8" standalone="no"?>
<svg width="23px" height="23px" viewBox="0 0 23 23" version="1.1" xmlns="http://www.w3.org/2000/svg" xmlns:xlink="http://www.w3.org/1999/xlink">
    <!-- Generator: Sketch 3.7.2 (28276) - http://www.bohemiancoding.com/sketch -->
    <title>home</title>
    <desc>Created with Sketch.</desc>
    <defs>
        <polygon id="path-1" points="22.7413443 22.6229131 22.7413443 0.162561149 3.11240782e-05 0.162561149 3.11240782e-05 22.6229131"></polygon>
    </defs>
    <g id="Page-1" stroke="none" stroke-width="1" fill="none" fill-rule="evenodd">
        <g id="577-585" transform="translate(-420.000000, -330.000000)">
            <g id="home" transform="translate(420.000000, 330.000000)">
                <g id="Group-3" transform="translate(0.000000, 0.214390)">
                    <mask id="mask-2" fill="white">
                        <use xlink:href="#path-1"></use>
                    </mask>
                    <g id="Clip-2"></g>
                    <path d="M19.0214902,10.5399951 C18.5019164,10.5399951 18.0803754,10.9144049 18.0788672,11.4339787 L18.0585066,18.7159295 C18.0566213,19.2992246 17.8277525,19.7645033 17.4129984,20.1743557 C17.0027689,20.5796836 16.4609492,20.720323 15.8851951,20.720323 L15.8659656,20.720323 L7.14406393,20.7146672 C5.94580164,20.7044869 4.97942459,19.7562082 4.98922787,18.5579459 L5.04955574,11.3804377 C5.05181803,11.129323 4.95303115,10.9423066 4.77657213,10.7635852 C4.59935902,10.585618 4.35842459,10.5399951 4.10693279,10.5399951 L3.24952295,10.5399951 L11.4231951,2.52204426 L19.5093918,10.5399951 L19.0214902,10.5399951 Z M22.462441,10.7206016 L12.0905721,0.436208197 C11.7244574,0.0727327869 11.1347525,0.0712245902 10.7663754,0.432437705 L0.282522951,10.7172082 C0.00916229508,10.9856672 -0.074542623,11.4385033 0.0698672131,11.7929295 C0.215031148,12.1473557 0.559654098,12.425241 0.942736066,12.425241 L3.1563918,12.425241 L3.10398197,18.6239295 C3.08512951,20.8613393 4.89044098,22.6036836 7.12785082,22.6229131 L15.8497525,22.6055689 L15.8855721,22.6055689 C16.9605393,22.6055689 17.9725393,22.2601918 18.7383262,21.5034541 C19.5124082,20.7376672 19.9407361,19.7984377 19.9437525,18.7095197 L19.9614738,12.425241 L21.7988344,12.425241 C22.1807852,12.425241 22.5250311,12.1484869 22.6705721,11.7955689 C22.8157361,11.4418967 22.7339164,10.9898148 22.462441,10.7206016 L22.462441,10.7206016 Z" id="Fill-1" fill="#000000" mask="url(#mask-2)"></path>
                </g>
                <path d="M13.0032197,16.4471115 C12.7505967,17.3418492 11.8200393,17.862177 10.9253016,17.6095541 C10.0305639,17.3569311 9.51023607,16.4263738 9.76285902,15.5316361 C10.015859,14.6368984 10.9460393,14.1165705 11.840777,14.3691934 C12.7355148,14.6221934 13.2558426,15.5523738 13.0032197,16.4471115" id="Fill-4" fill="#000000"></path>
            </g>
        </g>
    </g>
</svg>