<svg xmlns="http://www.w3.org/2000/svg" viewBox="0 0 512 512"><path d="M246 332c-66 0-119-53-119-119 0-65 53-119 119-119 13 0 27 3 40 7 8 3 17-1 20-9s-1-16-9-20c-17-5-34-8-51-8-83 0-150 67-150 149 0 83 67 150 150 150 8 0 15-7 15-16 0-8-7-15-15-15zm0-295c8 0 15-7 15-16v-38c0-8-7-15-15-15-9 0-16 7-16 15v38c0 9 7 16 16 16zm0 353c-9 0-16 7-16 15v38c0 9 7 15 16 15 8 0 15-6 15-15v-38c0-8-7-15-15-15zm-152-47l-27 27c-5 6-5 15 0 21 4 3 7 5 11 5s8-2 11-5l27-26c6-6 6-16 0-22s-16-6-22 0zm-25-130c0-8-7-15-16-15h-38c-8 0-15 7-15 15 0 9 7 16 15 16h38c9 0 16-7 16-16zm25-129c3 3 7 4 11 4s8-1 11-4c6-6 6-16 0-22l-27-27c-6-6-16-6-22 0s-6 16 0 22zm376 194v-184c0-39-32-72-72-72s-72 33-72 72v184c-27 22-42 54-42 88 0 63 51 114 114 114s114-51 114-114c0-35-15-66-42-88zm-72 171c-46 0-84-37-84-83 0-27 13-52 35-68 2-1 4-3 5-6v-2c1-2 2-4 2-6v-190c0-23 18-41 41-41s42 18 42 41v192c0 6 3 11 9 14 21 16 33 40 33 66 0 46-37 83-83 83zm15-135v-215c0-9-7-16-15-16s-15 7-15 16v215c-23 7-40 28-40 53 0 31 25 55 55 55s55-24 55-55c0-25-17-46-40-53z"/></svg>