<svg xmlns="http://www.w3.org/2000/svg" viewBox="0 0 512 512"><path d="M492 265h-26v-153h26c9 0 15-7 15-15 0-3-1-6-2-8l-48-112c-2-5-8-9-14-9h-375c-6 0-12 4-14 9l-49 114c-2 5-1 10 2 15 2 4 7 6 12 6h26v153h-26c-8 0-15 7-15 15v185c0 8 7 15 15 15h473c9 0 15-7 15-15v-185c0-8-6-15-15-15zm-23-183h-86l-20-84h70zm-230-84v84h-88l20-84zm30 0h63l20 84h-83zm-191 0h62l-20 84h-78zm-3 114h361v153h-361zm402 338h-443v-155h443v155zm-392-35h338c8 0 15-7 15-15v-57c0-9-7-16-15-16h-338c-9 0-16 7-16 16v57c0 9 7 15 16 15zm15-57h308v27h-308z"/></svg>