<svg xmlns="http://www.w3.org/2000/svg" viewBox="0 0 512 512"><path d="M445 154v-2l-29-133c-1-3-4-5-7-5h-306c-3 0-6 2-7 5l-29 133v2c0 25 14 47 35 59v215c0 3 3 6 6 6h296c3 0 6-3 6-6v-215c21-12 35-34 35-59zm-48 223h-282v-31h282v31zm-282 44v-31h282v31zm282-88h-282v-115c6 2 12 3 19 3 27 0 50-16 61-39 11 23 34 39 61 39s50-16 61-39c11 23 34 39 61 39 7 0 13-1 19-3zm-19-125c-30 0-55-24-55-54 0-4-2-7-6-7s-6 3-6 7c0 30-25 54-55 54s-55-24-55-54c0-4-2-7-6-7s-6 3-6 7c0 30-25 54-55 54s-54-24-55-54l29-127h296l28 127c0 30-24 54-54 54z"/></svg>