<svg xmlns="http://www.w3.org/2000/svg" viewBox="0 0 512 512"><path d="M256 321c48 0 88-39 88-88v-166c0-49-40-88-88-88s-88 39-88 88v166c0 49 40 88 88 88zm-70-224h38c5 0 9-4 9-9s-4-9-9-9h-38v-12l1-9h37c5 0 9-4 9-9s-4-9-9-9h-33c11-25 36-43 65-43s54 18 65 43h-33c-5 0-9 4-9 9s4 9 9 9h37l1 9v12h-38c-5 0-9 4-9 9s4 9 9 9h38v136c0 39-32 70-70 70s-70-31-70-70v-136zm201-1c-5 0-9 4-9 9v6h-14c-5 0-9 4-9 9s4 9 9 9h14v107c0 67-55 122-122 122s-122-55-122-122v-107h14c5 0 9-4 9-9s-4-9-9-9h-14v-9c0-5-4-9-9-9s-9 4-9 9v134c0 74 58 135 131 139v85c0 5 4 9 9 9s9-4 9-9v-85c73-5 131-65 131-139v-131c0-5-4-9-9-9z"/></svg>