<svg xmlns="http://www.w3.org/2000/svg" viewBox="0 0 512 512"><path d="M497 213l-147-41-2-1h-3c-1 0-2 0-3 1-1 0-2 0-3 1l-2 1-3 2-1 3-2 2v3l-1 2v225l-149 34v-219c0-1 0-2-1-3v-3c-1 0-1-1-2-2 0-1-1-1-2-2 0-1-1-1-2-2l-3-1-1-1-146-41c-5-1-10 0-14 3s-6 8-6 12v237c0 7 4 13 11 15l147 41h7l176-40 144 40h4c3 0 6-1 9-3 4-2 6-7 6-12v-237c0-7-4-13-11-14zm-463-6l117 32v205l-117-32zm444 237l-117-32v-205l117 32zm-321-275l76 85c3 3 7 5 12 5 4 0 8-2 11-5l74-84h1c44-44 42-121-4-168-22-21-51-33-82-33s-60 12-82 33c-46 47-49 122-6 167zm27-145c17-16 38-25 61-25 22 0 44 9 60 25 34 34 36 91 5 123l-1 2-64 72-63-70c-1-1-1-2-2-2-32-32-30-91 4-125zm105 64c0 25-20 45-44 45-25 0-45-20-45-45s20-45 45-45c24 0 44 20 44 45z"/></svg>