<svg xmlns="http://www.w3.org/2000/svg" viewBox="0 0 512 512"><path d="M508 461l-50-220c-1-6-6-11-12-12l-114-24h-5c-1 0-2 0-3 1-1 0-1 0-2 1-1 0-2 1-2 1-1 1-2 2-3 2 0 1 0 2-1 3l-1 3v1c-1 0 0 1 0 2l-1 2 16 191-147 33 16-200v-1l-1-3c0-1 0-1-1-2l-1-3c-1-1-1-2-2-2l-2-2-3-2h-1l-114-41c-4-2-9-1-12 1-4 2-7 6-8 10l-50 220c-2 8 3 16 11 18l147 41h7l176-40 143 40h4c4 0 8-1 11-4 4-3 6-9 5-14zm-428-238l87 31-15 190-115-31zm280 189l-14-173 84 18 42 186zm-203-243l76 85c3 3 7 5 12 5 4 0 8-2 11-5l74-84h1c44-44 42-121-4-168-22-21-51-33-82-33s-60 12-82 33c-46 47-49 122-6 167zm27-145c17-16 38-25 61-25 22 0 44 9 60 25 34 34 36 91 5 123l-1 2-64 72-63-70c-1-1-1-2-2-2-32-32-30-91 4-125zm61 124c33 0 60-27 60-60s-27-60-60-60c-34 0-61 27-61 60s27 60 61 60zm0-90c16 0 29 14 29 30s-13 30-29 30c-17 0-30-14-30-30s13-30 30-30z"/></svg>