<svg xmlns="http://www.w3.org/2000/svg" viewBox="0 0 512 512"><path d="M471 95c-4-3-10-3-14 0l-55 25c-2 1-3 2-4 3l-73 104-75-108c-1-2-2-4-4-5l-52-19c-2-1-4-2-7-2-2 0-5 1-8 3l-140 79c-3 3-6 7-6 12v271c0 5 3 9 7 12 5 2 10 2 14 0l133-64 130 72h1c1 0 1 1 1 1 2 0 4 1 5 1 2 0 4-1 5-1l1-1c1 0 2-1 2-1l140-80c4-2 6-7 6-11v-279c1-5-2-10-7-12zm-270 136l110 54v156l-110-59zm28-94l78 113-106-52v-69zm-168 297v-240l112-61v66l-71 45c-7 4-8 13-4 19 4 7 13 8 19 4l56-35v149zm390-55l-112 61v-155l72-33c7-4 9-12 6-19-4-7-13-10-19-6l-56 25 83-111 26-10v248zm-100-331c0 15-12 27-26 27-15 0-27-12-27-27 0-14 12-26 27-26 14 0 26 12 26 26zm-26 134c4 0 8-2 11-5 7-9 69-88 69-128 0-45-36-81-80-81s-81 36-81 80c0 41 63 120 70 129 2 3 7 5 11 5zm0-186c29 0 52 23 52 52 0 20-29 65-52 97-24-32-53-77-53-97 0-29 24-52 53-52z"/></svg>