<svg xmlns="http://www.w3.org/2000/svg" viewBox="0 0 512 512"><path d="M472-32h-432c-8 0-15 7-15 15v482c0 5 3 11 8 13 5 3 11 3 16-1l62-43 64 43c2 2 5 3 8 3s6-1 9-3l63-43 63 43c5 4 12 4 17 0l64-43 64 43c4 4 10 4 15 1 6-2 9-7 9-13v-482c0-8-7-15-15-15zm-16 467l-48-33c-5-3-12-3-17 0l-64 44-62-44c-5-3-13-3-18 0l-63 44-64-44c-3-2-6-3-9-3s-6 1-9 3l-46 33v-436h400zm-349-175h206c9 0 15-7 15-15 0-9-6-16-15-16h-206c-8 0-15 7-15 16 0 8 6 15 15 15zm298-31h-28c-9 0-16 7-16 16 0 8 7 15 16 15h28c8 0 15-7 15-15 0-9-7-16-15-16zm-298-50h206c9 0 15-7 15-15 0-9-6-16-15-16h-206c-8 0-15 7-15 16 0 8 6 15 15 15zm298-31h-28c-9 0-16 7-16 16 0 8 7 15 16 15h28c8 0 15-7 15-15 0-9-7-16-15-16zm-298 195h206c9 0 15-7 15-15 0-9-6-16-15-16h-206c-8 0-15 7-15 16 0 8 6 15 15 15zm298-31h-28c-9 0-16 7-16 16 0 8 7 15 16 15h28c8 0 15-7 15-15 0-9-7-16-15-16zm-298-228h298c8 0 15-6 15-15 0-8-7-15-15-15h-298c-8 0-15 7-15 15 0 9 6 15 15 15z"/></svg>