<svg xmlns="http://www.w3.org/2000/svg" viewBox="0 0 512 512"><path d="M489 373c-16-32-63-49-134-76l-26-9v-46c8-9 23-31 26-63 4-4 8-12 10-21 4-15 2-33-7-45v-2c9-20 24-59 18-90-8-39-62-53-106-53-34 0-73 8-87 31-16 2-25 10-30 17-19 26-6 72 2 96v1c-10 11-12 30-9 45 2 9 6 17 11 21 2 31 17 51 25 60v49c-8 4-17 7-25 9-71 27-119 44-135 76-22 45-22 90-22 92 0 8 7 15 15 15h481c9 0 16-7 16-15 0-2 0-47-23-92zm-457 76c2-15 6-39 18-62 10-22 58-39 118-61 11-4 23-8 35-13 6-2 10-8 10-14v-67c0-4-2-9-6-12 0 0-19-16-19-49 0-4-2-8-5-11-1-1-3-3-5-3-2-4-4-12-2-19 0-2 1-5 3-6 5-2 8-8 8-13 0-4-1-8-3-16-5-15-17-54-6-68 1-2 4-6 15-6 7 0 13-5 15-11 1-8 25-19 62-19 39 0 72 13 75 28 4 22-9 57-16 73-3 10-5 14-5 19 0 6 3 11 9 14 1 0 2 3 3 5 1 7-1 15-3 19-5 2-9 8-9 14 0 34-20 54-21 54-3 3-5 7-5 11v63c0 6 5 12 10 14 13 5 25 9 36 13 60 22 107 40 118 61 12 23 16 47 18 63h-448z"/></svg>