<svg xmlns="http://www.w3.org/2000/svg" viewBox="0 0 512 512"><path d="M497 200h-166c-9 0-16 7-16 16 0 8 7 15 16 15h18v52h-101c-9 0-16 7-16 16 0 8 7 15 16 15h249c8 0 15-7 15-15v-83c0-9-7-16-15-16zm-16 83h-102v-52h102zm-431-67v83c0 8 7 15 15 15h50c8 0 15-7 15-15 0-9-7-16-15-16h-35v-52h118c8 0 15-7 15-15 0-9-7-16-15-16h-133c-8 0-15 7-15 16zm-35 98c9 0 16-7 16-15v-83c0-9-7-16-16-16-8 0-15 7-15 16v83c0 8 7 15 15 15zm0-149c9 0 16-7 16-16v-41c0-27 25-51 51-51 43 0 73-30 73-74 0-8-7-15-15-15-9 0-16 7-16 15 0 27-16 43-42 43-43 0-82 39-82 82v41c0 9 7 16 15 16zm100-97c-43 0-82 38-82 81 0 9 7 16 16 16 8 0 15-7 15-16 0-26 25-51 51-51 43 0 73-30 73-73 0-9-6-16-15-16-8 0-15 7-15 16 0 26-17 43-43 43zm392-95c-5-6-15-6-21 0l-482 481c-6 6-6 16 0 22 3 3 7 4 11 4s8-1 11-4l481-482c7-6 7-16 0-21z"/></svg>