<svg xmlns="http://www.w3.org/2000/svg" viewBox="0 0 512 512"><path d="M403 385c-27 0-48 21-48 47 0 27 21 48 48 48 26 0 47-22 47-48s-21-47-47-47zm0 65c-10 0-18-8-18-18 0-9 8-17 18-17 9 0 17 8 17 17 0 10-8 18-17 18zm-204-65c-26 0-48 21-48 47 0 27 22 48 48 48s48-22 48-48-22-47-48-47zm0 65c-10 0-17-8-17-18 0-9 8-17 17-17 10 0 17 8 17 17 0 10-8 18-17 18zm305-304c-3-4-7-6-12-6h-361l-25-102c-1-7-7-12-14-12h-72c-8 0-15 7-15 15 0 9 6 16 15 16h60l71 290c0 2 0 3 1 4 0 8 6 15 15 15h264c7 0 12-4 14-10l62-196c1-5 0-10-3-14zm-135-36h4c7 0 13-4 14-11 3-8-2-17-10-19-4-1-6-4-6-6-2-3-2-7-1-12 1-3 3-7 8-11 9-6 16-16 18-27 3-11 3-23-2-33-5-11-14-20-26-23-8-2-16 3-18 11s2 17 11 19c3 1 5 4 6 6 1 3 1 8 1 12-1 3-3 6-5 8l-4 4c-7 6-15 14-18 26-3 11-2 23 2 32 5 12 14 20 26 24zm-68 0h4c6 0 12-4 14-11 2-8-2-17-11-19-3-1-5-4-6-6-1-3-2-7 0-12 1-3 3-7 7-11 10-6 16-16 19-27s2-23-2-33c-5-11-15-20-26-23-8-2-17 3-19 11s3 17 11 19c4 1 5 4 6 6 2 3 2 8 1 12-1 3-2 6-4 8l-5 4c-6 6-14 14-18 26-2 11-2 23 3 32 5 12 14 20 26 24zm-69 0h4c7 0 13-4 14-11 3-8-2-17-10-19-4-1-6-4-6-6-2-3-2-8-1-12 1-3 3-7 7-11 10-6 16-16 19-27s2-23-2-33c-5-11-15-20-26-23-8-2-16 3-19 11-2 8 3 17 11 19 4 1 6 4 6 6 2 3 2 8 1 12-1 3-2 6-4 9l-5 3c-6 6-14 14-17 27-3 11-3 22 2 32 5 11 15 19 26 23z"/></svg>