<svg xmlns="http://www.w3.org/2000/svg" viewBox="0 0 512 512"><path d="M411 259c-4 0-8 0-12 1-15-50-54-88-102-103-1-1-2-1-3-1-3-1-7-2-11-3l-4-1-11-2h-4c-4-1-9-1-14-1h-1c-84 0-153 67-156 151-35 9-61 41-61 79 0 46 37 83 83 83h295c56 0 102-46 102-102s-46-101-101-101zm0 172h-296c-28 0-52-23-52-52 0-27 21-49 48-51l11-1c14 2 27 9 35 21 3 4 8 6 13 6 3 0 6-1 9-3 7-5 8-14 3-21-13-19-34-31-57-34 5-65 59-116 125-116h12l2 1c4 0 7 0 10 1l3 1c3 0 6 1 9 2 0 0 1 0 2 1l9 3 2 1c45 19 76 64 76 115 0 14-2 28-7 41-3 8 2 17 10 20 1 0 3 1 5 1 6 0 12-4 14-11 6-16 9-33 9-51 0-5 0-10-1-15l6-1c39 0 70 32 70 71s-31 71-70 71zm-333-266c8-1 14-7 14-16v-7c0-69 56-125 125-125 60 0 112 43 123 101 1 4 4 8 7 10 4 2 8 3 12 2 8-2 13-3 19-3 39 0 71 32 71 71 0 8 6 15 15 15 8 0 15-7 15-15 0-56-45-102-101-102-4 0-8 0-11 1-20-65-81-111-150-111-84 0-153 67-156 151-36 10-61 42-61 79 0 9 7 16 15 16 9 0 16-7 16-16 0-26 20-48 47-51z"/></svg>