<svg xmlns="http://www.w3.org/2000/svg" viewBox="0 0 512 512"><path d="M512 298c0-2-1-4-1-5-1-2-2-3-3-4v-1l-148-149c2-8 3-15 3-23 0-36-19-67-48-84 4-14 12-24 24-29 22-10 50-3 66 9 6 5 16 3 21-3 5-7 4-17-3-22-22-17-63-27-96-13-19 9-33 25-40 46-7-2-15-3-22-3-29 0-54 12-72 32-112 28-192 132-192 249v133c0 25 23 48 48 48h448c9 0 16-7 16-15v-166h-1zm-481 16h450v52h-450zm233-266c38 0 68 31 68 68s-31 67-68 67-67-30-67-67 30-68 67-68zm-94 41c-3 9-4 18-4 27 0 54 44 98 98 98 35 0 65-18 83-45l113 114h-429c6-85 61-161 139-194zm-121 360c-9 0-18-10-18-18v-34h450v52h-432z"/></svg>