<?xml version="1.0" encoding="UTF-8" standalone="no"?>
<svg width="20px" height="22px" viewBox="0 0 20 22" version="1.1" xmlns="http://www.w3.org/2000/svg" xmlns:xlink="http://www.w3.org/1999/xlink">
    <!-- Generator: Sketch 3.7.2 (28276) - http://www.bohemiancoding.com/sketch -->
    <title>profile-1</title>
    <desc>Created with Sketch.</desc>
    <defs>
        <polygon id="path-1" points="19.206968 21.6332 0 21.6332 0 4e-05 19.206968 4e-05 19.206968 21.6332"></polygon>
    </defs>
    <g id="Page-1" stroke="none" stroke-width="1" fill="none" fill-rule="evenodd">
        <g id="577-585" transform="translate(-370.000000, -330.000000)">
            <g id="profile-1" transform="translate(370.000000, 330.000000)">
                <mask id="mask-2" fill="white">
                    <use xlink:href="#path-1"></use>
                </mask>
                <g id="Clip-2"></g>
                <path d="M17.0350253,19.47364 C16.980172,19.53844 16.8623987,19.63324 16.6938053,19.63324 L2.51260533,19.63324 C2.344012,19.63324 2.226642,19.53844 2.17178867,19.47364 C2.04473867,19.32404 1.99230533,19.12844 2.02779867,18.92524 C2.74290867,14.81164 5.92883867,11.82964 9.60320533,11.82964 C13.277572,11.82964 16.463502,14.81004 17.1790153,18.92324 C17.2145087,19.12684 17.1620753,19.32404 17.0350253,19.47364 M6.338222,5.32204 C6.338222,3.49044 7.84063867,2.00004 9.687502,2.00004 C11.5347687,2.00004 13.0375887,3.49044 13.0375887,5.32204 C13.0375887,7.15404 11.5347687,8.64404 9.687502,8.64404 C7.84063867,8.64404 6.338222,7.15404 6.338222,5.32204 M19.166642,18.59204 C18.4349953,14.38564 15.5447087,11.14284 11.9251953,10.15324 C13.768832,9.30964 15.0542553,7.46404 15.0542553,5.32204 C15.0542553,2.38764 12.6467587,4e-05 9.687502,4e-05 C6.72864867,4e-05 4.32155533,2.38764 4.32155533,5.32204 C4.32155533,7.44124 5.57995533,9.27004 7.39253533,10.12524 C3.72139533,11.07884 0.779078667,14.34284 0.040172,18.59204 C-0.096558,19.37804 0.118418667,20.16044 0.629038667,20.76204 C1.10698867,21.32444 1.793462,21.63324 2.51260533,21.63324 L16.6938053,21.63324 C17.413352,21.63324 18.1002287,21.32444 18.5777753,20.76204 C19.0887987,20.16004 19.303372,19.37804 19.166642,18.59204" id="Fill-1" fill="#000000" mask="url(#mask-2)"></path>
            </g>
        </g>
    </g>
</svg>