<svg xmlns="http://www.w3.org/2000/svg" viewBox="0 0 512 512"><path d="M231 65c9 0 16-7 16-15 0-9-7-15-16-15-134 0-231 107-231 255 0 68 55 123 123 123s123-55 123-123c0-67-55-123-123-123-28 0-54 10-75 26 30-78 97-128 183-128zm-108 133c51 0 93 41 93 92s-42 93-93 93-92-41-92-93c0-51 41-92 92-92zm266-31c-29 0-55 10-75 26 29-78 97-128 183-128 8 0 15-7 15-15 0-9-7-15-15-15-134 0-231 107-231 255 0 68 55 123 123 123s123-55 123-123c0-67-55-123-123-123zm0 216c-51 0-93-41-93-92s42-93 93-93 92 41 92 92-41 93-92 93z"/></svg>