<svg xmlns="http://www.w3.org/2000/svg" viewBox="0 0 512 512"><path d="M390 437l-109-88c-7-6-16-9-26-9-5 0-17 1-27 9l-103 88 42-132c1-4 2-9 2-14 0-14-7-31-20-39l-104-69h131c9 0 19-4 27-10 6-6 12-13 14-20v-1l1-1 37-135 37 135 1 1v1c2 7 8 14 14 20l20-24c-2-2-4-5-4-6l-42-149c-1-5-3-9-6-14-3-4-9-11-20-11-12 0-18 7-21 11-3 5-4 9-6 14l-41 149c0 1-2 4-4 6-3 2-6 3-7 3h-143c-6 0-11 0-18 3-3 1-7 3-9 7-4 4-6 10-6 15 0 8 4 13 7 17s6 6 10 8l115 77c2 1 6 7 6 12 0 0 0 2-1 2l-46 147c-1 4-2 9-2 13 0 5 1 10 5 16s12 10 19 10h1c12-1 16-5 22-10l113-96c1-1 3-2 6-2s5 1 6 2l118 97c6 4 11 8 23 9 6 0 15-3 19-9s4-12 5-16c0-6-1-10-3-15zm119-273l-72-99c-3-5-8-7-13-7s-10 3-13 7l-70 99c-5 7-3 17 4 22 2 2 5 3 9 3 5 0 10-3 13-7l42-59v289c0 9 7 16 15 16 9 0 16-7 16-16v-290l44 60c5 7 15 8 22 3s8-15 3-21z"/></svg>