<svg xmlns="http://www.w3.org/2000/svg" viewBox="0 0 512 512"><path d="M254-32c-91 0-174 48-220 125v-53c0-9-7-16-16-16s-15 7-15 16v114c0 5 3 10 7 13 3 2 6 3 8 3 3 0 5-1 7-2l96-50c8-4 11-13 7-21s-13-11-21-7l-51 27c39-73 115-118 197-118 124 0 225 101 225 225s-101 225-225 225c-106 0-198-76-220-179-2-9-10-14-18-12-9 1-14 9-12 18 24 118 130 204 251 204 141 0 255-115 255-256s-114-256-255-256zm-220 160h1zm301 188c-3 0-7-1-9-3l-79-59c-4-3-7-8-7-13v-149c0-9 7-16 16-16s16 7 16 16v141l72 55c7 5 9 15 4 22-4 4-8 6-13 6z"/></svg>