<?xml version="1.0" encoding="UTF-8" standalone="no"?>
<svg width="26px" height="33px" viewBox="0 0 26 33" version="1.1" xmlns="http://www.w3.org/2000/svg" xmlns:xlink="http://www.w3.org/1999/xlink">
    <!-- Generator: Sketch 3.8.1 (29687) - http://www.bohemiancoding.com/sketch -->
    <title>recent search@2x</title>
    <desc>Created with Sketch.</desc>
    <defs>
        <polygon id="path-1" points="6.23741037e-20 0.368137302 6.23741037e-20 16.6240698 17.2232416 16.6240698 17.2232416 0.368137302 0 0.368137302"></polygon>
        <polygon id="path-3" points="19.2825073 31.9838071 19.2825073 0.31984127 0.778878903 0.31984127 0.778878903 31.9838071"></polygon>
    </defs>
    <g id="Page-1" stroke="none" stroke-width="1" fill="none" fill-rule="evenodd">
        <g id="577-585" transform="translate(-313.000000, -326.000000)">
            <g id="recent-search" transform="translate(313.057692, 326.000000)">
                <g id="Group-3" transform="translate(0.000000, 9.275077)">
                    <mask id="mask-2" fill="white">
                        <use xlink:href="#path-1"></use>
                    </mask>
                    <g id="Clip-2"></g>
                    <path d="M15.3592711,13.8606413 C15.3439297,13.84305 15.3224519,13.835054 15.3040423,13.8190619 C16.496063,12.3925698 17.2232416,10.5326929 17.2232416,8.49530397 C17.2232416,4.01432778 13.7254203,0.368137302 9.42678195,0.368137302 C5.51627905,0.368137302 2.27772603,3.38743889 1.72237019,7.30389524 L1.0887736,6.53307778 C0.867858569,6.2628119 0.476654866,6.23082778 0.215852397,6.4627127 C-0.0434159405,6.69299841 -0.0740985839,7.10079603 0.148350581,7.37266111 L1.81595225,9.40365317 C1.93714869,9.55078016 2.11203976,9.62914127 2.28693083,9.62914127 C2.41579793,9.62914127 2.54619916,9.5859627 2.65819081,9.49960556 L4.57125363,8.00274841 C4.84432916,7.79005397 4.89955792,7.38545476 4.6939842,7.10079603 C4.48994463,6.8161373 4.10334332,6.75696667 3.82719953,6.97126032 L2.91745915,7.68290714 C3.30559459,4.29418889 6.07470316,1.65869683 9.42678195,1.65869683 C13.0442656,1.65869683 15.985197,4.7259746 15.985197,8.49530397 C15.985197,12.2662325 13.0442656,15.3335103 9.42678195,15.3335103 C7.9509468,15.3335103 6.55642066,14.8345579 5.39508261,13.8910262 C5.12660948,13.6719349 4.73847404,13.7215103 4.5267638,14.0013714 C4.31658769,14.2828317 4.36414579,14.6890302 4.63415305,14.9081214 C6.014872,16.0307643 7.67173475,16.6240698 9.42678195,16.6240698 C11.3337082,16.6240698 13.0826189,15.9028278 14.4387918,14.7130183 C14.4449283,14.7226135 14.4479966,14.7338079 14.4556672,14.741804" id="Fill-1" fill="#000000" mask="url(#mask-2)"></path>
                </g>
                <path d="M11.7130991,20.4778373 C11.5995733,20.4778373 11.4860476,20.4458532 11.3832607,20.3786865 L8.50983115,18.6419484 C8.33033769,18.5236071 7.98515795,18.3189087 7.98515795,18.096619 L7.98515795,13.996254 C7.98515795,13.639631 8.4116467,13.3501746 8.75222404,13.3501746 C9.09433551,13.3501746 9.51929012,13.639631 9.51929012,13.996254 L9.51929012,17.7415952 L11.9570261,19.2864286 C12.2469771,19.4767341 12.3758442,19.8749365 12.1932825,20.1771865 C12.0751543,20.3706905 11.9186728,20.4778373 11.7130991,20.4778373" id="Fill-4" fill="#000000"></path>
                <g id="Group-8" transform="translate(6.136529, 0.159601)">
                    <mask id="mask-4" fill="white">
                        <use xlink:href="#path-3"></use>
                    </mask>
                    <g id="Clip-7"></g>
                    <path d="M2.31301107,26.3306127 L2.31301107,28.8621563 C2.31301107,29.7017397 2.96808551,30.3846008 3.7735049,30.3846008 L16.287421,30.3846008 C17.0928404,30.3846008 17.749449,29.7017397 17.749449,28.8621563 L17.749449,26.1035254 L2.31301107,26.3306127 Z M16.287421,31.9838071 L3.7735049,31.9838071 C2.12124455,31.9838071 0.778878903,30.5845016 0.778878903,28.8621563 L0.778878903,24.7537952 L17.749449,24.504319 L17.749449,3.44117222 C17.749449,2.6031881 17.0928404,1.91872778 16.287421,1.91872778 L3.7735049,1.91872778 C2.96808551,1.91872778 2.31301107,2.6031881 2.31301107,3.44117222 L2.31301107,10.0762794 C2.31301107,10.5176603 1.96936547,10.8758825 1.54594499,10.8758825 C1.12252451,10.8758825 0.778878903,10.5176603 0.778878903,10.0762794 L0.778878903,3.44117222 C0.778878903,1.72042619 2.12124455,0.319521429 3.7735049,0.319521429 L16.287421,0.319521429 C17.9396814,0.319521429 19.2835812,1.72042619 19.2835812,3.44117222 L19.2835812,28.8621563 C19.2835812,30.5845016 17.9396814,31.9838071 16.287421,31.9838071 L16.287421,31.9838071 Z" id="Fill-6" fill="#000000" mask="url(#mask-4)"></path>
                </g>
                <path d="M7.98592502,7.5066746 C7.56250454,7.5066746 7.21885893,7.14845238 7.21885893,6.70707143 C7.21885893,6.26569048 7.56250454,5.90746825 7.98592502,5.90746825 L24.1648829,5.8930754 L24.166417,5.8930754 C24.5898375,5.8930754 24.931949,6.24969841 24.9334831,6.69107937 C24.9334831,7.13405952 24.5898375,7.49068254 24.166417,7.49228175 L7.98592502,7.5066746 L7.98592502,7.5066746 Z" id="Fill-9" fill="#000000"></path>
            </g>
        </g>
    </g>
</svg>