<svg xmlns="http://www.w3.org/2000/svg" viewBox="0 0 512 512"><path d="M327 253l-9 10c-8-28-34-48-64-48-37 0-67 30-67 67 0 38 30 68 67 68 5 0 9-4 9-9s-4-9-9-9c-27 0-49-22-49-50 0-27 22-49 49-49 23 0 42 15 48 37l-17-6c-4-1-9 1-11 6-1 5 1 10 6 11l30 10h3c1 0 3 0 5-1v-1c1 0 1 0 1-1l22-22c3-4 3-10-1-13-3-4-9-3-13 0zm119 127l-40-275c-1-5-5-8-9-8h-49c-3-65-43-117-92-117s-89 52-92 117h-44c-5 0-9 3-9 8l-44 275c-3 22 3 44 18 61 14 17 35 27 58 27h227c22 0 43-10 58-27 14-16 21-39 18-61zm-190-382c39 0 71 44 74 99h-148c3-55 35-99 74-99zm158 432c-11 12-27 20-44 20h-227c-17 0-33-8-45-21-11-13-16-30-13-47l42-267h262l39 268c2 17-3 34-14 47z"/></svg>