<svg xmlns="http://www.w3.org/2000/svg" viewBox="0 0 512 512"><path d="M325 251l-5 5c-11-26-36-45-66-45-39 0-71 32-71 71 0 40 32 72 71 72 7 0 13-6 13-13s-6-13-13-13c-25 0-46-21-46-46s21-45 46-45c18 0 34 11 41 26l-8-2c-7-3-14 1-16 8-3 7 1 14 8 16l29 10h8l3-2h1c0-1 0-1 1-1 0 0 0-1 1-1l21-23c5-5 5-13 0-18s-13-5-18 1zm125 129l-40-276c-1-6-7-11-13-11h-45c-5-65-46-117-96-117s-91 52-96 117h-40c-7 0-12 5-13 11l-43 275c-4 23 3 47 18 64 15 18 37 29 61 29h227c23 0 46-11 61-28 15-18 22-41 19-64zm-194-378c36 0 66 40 70 91h-140c4-51 34-91 70-91zm155 425c-10 12-25 19-41 19h-227c-16 0-31-7-42-19-10-12-15-28-12-44l41-264h256l38 265c2 15-2 31-13 43z"/></svg>