<svg xmlns="http://www.w3.org/2000/svg" viewBox="0 0 512 512"><path d="M480 160h-43l-8-19 31-30c12-13 12-33 0-45l-46-46c-12-12-33-12-45 0l-31 31c-6-3-18-6-18-8v-43c0-18-14-32-32-32h-64c-18 0-32 14-32 32v43c0 3-13 5-19 8l-30-31c-13-12-33-12-45 0l-46 46c-12 12-12 32 0 45l31 30-8 19h-43c-18 0-32 14-32 32v64c0 18 14 32 32 32h43l8 19-31 30c-12 13-12 33 0 45l46 46c12 12 33 12 45 0l31-31c6 3 18 6 18 8v43c0 18 15 32 32 32h64c18 0 32-14 32-32v-43c0-2 13-5 19-8l30 31c13 12 33 12 46 0l45-46c13-12 13-32 0-45l-30-30 7-19h44c17 0 32-14 32-32v-64c-1-18-15-32-33-32zm-224 192c-71 0-128-57-128-128s57-128 128-128 128 57 128 128-57 128-128 128zm0-192c-35 0-64 29-64 64s29 64 64 64 64-29 64-64-29-64-64-64z"/></svg>