<svg xmlns="http://www.w3.org/2000/svg" viewBox="0 0 512 512"><path d="M496 283h-431c-8 0-15 7-15 16v82c0 9 7 16 15 16h431c9 0 16-7 16-16v-82c0-9-7-16-16-16zm-415 31h267v52h-267zm400 52h-102v-52h102zm-465-83c-9 0-16 7-16 16v82c0 9 7 16 16 16 8 0 15-7 15-16v-82c0-9-7-16-15-16zm66-143c43 0 73-30 73-73 0-9-7-16-15-16s-15 7-15 16c0 26-17 42-43 42-43 0-82 39-82 82v41c0 9 7 16 16 16 8 0 15-7 15-16v-41c0-26 25-51 51-51zm-18 92c0-26 25-51 51-51 43 0 74-30 74-73 0-8-7-15-16-15-8 0-15 7-15 15 0 26-17 43-43 43-43 0-81 38-81 81 0 9 7 16 15 16s15-7 15-16z"/></svg>