<svg xmlns="http://www.w3.org/2000/svg" viewBox="0 0 512 512"><path d="M349 445h-260c32-27 55-68 55-107v-91h164c9 0 15-7 15-15 0-9-6-15-15-15h-164v-115c0-54 46-99 99-99 54 0 99 45 99 99 0 8 7 15 15 15 9 0 15-7 15-15 0-71-58-129-129-129s-129 58-129 129v115h-98c-9 0-15 6-15 15 0 8 6 15 15 15h98v91c0 50-52 107-98 107-9 0-15 6-15 15 0 8 6 15 15 15h333c8 0 15-7 15-15s-7-15-15-15zm159-254l-75-93c-3-4-7-6-12-6-4 0-9 2-11 6l-74 93c-5 7-4 16 3 21 3 2 6 4 9 4 4 0 9-2 12-6l46-59v250c0 8 7 15 15 15 9 0 15-7 15-15v-251l49 60c5 6 14 7 21 2 6-5 7-15 2-21z"/></svg>