<svg xmlns="http://www.w3.org/2000/svg" viewBox="0 0 512 512"><path d="M497 329c-2-6-7-11-14-12-6-1-12 3-15 9-10 21-58 54-99 54-31 0-62-30-86-82-7-16-13-42-19-70-9-42-19-86-37-114l-2-2c3-3 5-6 5-10s-2-8-5-11c0-1-1-1-2-2-15-17-55-43-79-48-19-3-37-3-52 0-3-16-14-48-56-71-7-4-16-1-21 6-4 7-1 16 6 21 40 22 41 51 41 53v1c-9 5-16 12-21 22-14 27-24 80-22 103 0 8 6 13 13 14 0 1 1 1 2 1 3 0 6-1 8-2 4 30 14 61 32 89 27 44 107 140 172 175 19 10 63 27 108 27 32 0 60-8 82-25 15-11 23-20 32-31 25-33 35-66 29-95zm-53 76c-7 9-14 16-27 25-16 13-37 20-63 20-40 0-79-16-94-24-59-32-136-124-160-164-19-31-29-65-29-98 0-7 0-13 1-19 2-2 4-4 6-5h2c10 0 29 7 38 10 2 1 5 2 6 2 5 2 10 1 14-3 4-3 7-8 6-13-1-13 7-28 12-28 7-1 15 1 24 2 9 6 16 13 21 21 15 23 25 66 33 103 6 30 12 57 21 76 29 64 70 100 114 100 31 0 66-14 91-33-4 11-10 20-16 28z"/></svg>