<svg xmlns="http://www.w3.org/2000/svg" viewBox="0 0 512 512"><path d="M184-5c-8 0-16 3-22 9l-95 81c-8 7-12 16-12 27 0 4 1 9 3 14l1 4-3 2c-4 5-7 9-9 14l-44 116c-4 10-3 21 2 30 6 10 15 16 26 18l7 1 1 4c9 36 44 156 119 156h4c12 0 23-6 31-16 24-27 24-89 23-114v-4l3-1c12-4 21-13 24-25l6-23v-10l4-1c3-2 7-4 10-7l45-38c1-1 2-2 3-4l4-5 3 1c1 0 2 1 4 1h2l24-2c14-1 26-9 31-21l2-4 4 1c18 6 44 12 66 12 39 0 52-18 57-33 21-75-82-141-115-159l-2-2v-3c0-9-3-18-10-25-8-9-20-13-32-11l-123 19c-5 1-10 3-14 6l-2 2-3-2c-6-5-15-8-23-8zm-24 445h-1c-46 0-74-81-85-116l-2-8 112 18 1 5c0 12 2 75-16 96-3 4-5 5-9 5zm52-133l-158-25c-2-1-4-1-5 0h-1l-18-3 48-129 142 126zm29-58l-158-136 103-90 105 183zm79-56l-4-6-91-158 136-22-9 169s0 2 1 3l-1 13zm133-13c-17 0-39-5-65-13l-4-2 2-25 4-87 8 5c35 23 93 68 81 111-2 7-11 11-26 11z"/></svg>