<svg xmlns="http://www.w3.org/2000/svg" viewBox="0 0 512 512"><path d="M133 470h-4c-5-2-7-7-7-13v-54c-65-4-118-60-118-125v-95c0-60 42-109 98-121 17-52 64-87 118-87h164c68 0 124 56 124 124v95c0 58-42 109-98 122-16 50-63 87-119 87h-12c-47 0-91 18-124 51l-13 13c-2 2-6 3-9 3zm5-84v60l5-4c36-36 84-56 136-56h12c48 0 88-31 102-74l1-6c3-9 4-19 4-28v-95c0-59-48-107-107-107h-163c-5 0-11 0-17 1l-6 1c-48 11-84 54-84 105v95c0 56 45 104 101 108v-26h16zm277-108c0 7 0 13-1 19 45-14 77-56 77-103v-95c0-59-48-107-107-107h-163c-44 0-84 27-100 67h171c68 0 124 55 124 124v95h-1zm-282 197c-2 0-4-1-6-2-6-2-9-8-9-16v-50c-66-7-118-64-118-129v-95c0-59 41-112 99-125 18-52 66-87 122-87h163c71 0 128 57 128 128v95c0 59-41 111-99 125-17 53-66 88-121 88h-12c-47 0-90 18-122 50l-13 13c-3 3-7 5-12 5zm88-496c-53 0-99 34-115 84v2l-3 1c-55 12-95 61-95 117v95c0 62 51 116 114 121h4v58c0 4 2 7 5 9 3 1 6 0 8-2l13-13c34-34 79-52 127-52h12c53 0 99-34 115-84v-3h3c55-13 94-62 94-118v-95c0-66-53-120-120-120zm-87 478v-93h-8v26h-5c-57-4-104-55-104-112v-95c0-52 37-98 87-109l6-1c6-1 12-1 18-1h163c62 0 112 50 112 111v95c0 10-2 20-4 30l-2 6c-15 46-58 77-106 77h-12c-51 0-98 19-133 54zm-16-101h25v80c36-35 84-54 136-54h12c45 0 84-28 98-71l2-5c2-10 3-19 3-27v-96c0-57-46-103-103-103h-163c-5 0-11 1-17 2h-5c-47 11-81 53-81 101v95c0 52 41 97 93 103zm291-53l1-6c1-6 1-13 1-19v-95c0-66-54-120-120-120h-177l3-6c17-42 58-69 104-69h163c61 0 111 50 111 111v95c0 48-32 92-80 107zm-118-248c71 0 129 57 129 128v96l-1 12c40-15 68-54 68-96v-96c0-57-46-103-103-103h-163c-40 0-76 23-93 59zm-178 214c-18 0-33-15-33-34 0-18 15-33 33-33 19 0 34 15 34 33 0 19-15 34-34 34zm0-51c-9 0-16 8-16 17s7 17 16 17c10 0 17-7 17-17 0-9-7-17-17-17zm0 55c-20 0-37-17-37-38s16-38 37-38 38 18 38 38c0 21-17 38-38 38zm0-67c-16 0-29 13-29 29 0 17 13 30 29 30 17 0 30-13 30-30 0-16-13-29-30-29zm0 50c-11 0-21-9-21-21 0-11 10-21 21-21 12 0 21 10 21 21 0 12-9 21-21 21zm0-33c-7 0-12 5-12 12s5 13 12 13 13-6 13-13-6-12-13-12zm101 46c-18 0-34-15-34-34 0-18 16-33 34-33s34 15 34 33c0 19-16 34-34 34zm0-51c-9 0-17 8-17 17s8 17 17 17 17-7 17-17c0-9-8-17-17-17zm0 55c-21 0-38-17-38-38s17-38 38-38 38 17 38 38-17 38-38 38zm0-67c-16 0-29 13-29 29 0 17 13 30 29 30s29-13 29-30c0-16-13-29-29-29zm0 50c-12 0-21-9-21-21 0-11 9-21 21-21s21 10 21 21c0 12-9 21-21 21zm0-33c-7 0-13 5-13 12s6 13 13 13 13-6 13-13-6-12-13-12zm101 46c-19 0-34-15-34-34 0-18 15-33 34-33 18 0 33 15 33 33 0 19-15 34-33 34zm0-51c-9 0-17 8-17 17s7 17 17 17c9 0 17-7 17-17 0-9-8-17-17-17zm0 55c-21 0-38-17-38-38s17-38 38-38 38 17 38 38-17 38-38 38zm0-67c-16 0-30 13-30 29 0 17 13 30 30 30 16 0 29-13 29-30 0-16-13-29-29-29zm0 50c-12 0-21-9-21-21 0-11 9-21 21-21 11 0 21 10 21 21 0 12-10 21-21 21zm0-33c-7 0-13 5-13 12s6 13 13 13 12-6 12-13-5-12-12-12z"/></svg>