<svg xmlns="http://www.w3.org/2000/svg" viewBox="0 0 512 512"><path d="M489 465h-193c-5 0-11-5-11-11v-239h-262c-4 0-8-3-9-6-1-4-1-8 3-12l97-98c1-2 4-3 6-3h276c2 0 5 1 7 3l94 93c1 1 2 5 2 8v254c0 6-5 11-10 11zm-183-21h173v-239l-83-83-89 88v234zm-259-249h245l78-79h-246zm249 270h-273c-5 0-10-5-10-11v-249c0-5 5-10 10-10s10 5 10 10v239h264c5 0 10 5 10 10-1 6-5 11-11 11zm100-349h-274c-6 0-11-5-11-10v-55c0-37 30-66 67-66h160c37 0 66 29 66 66v55c2 5-3 10-8 10zm-264-20h253v-45c0-25-20-46-46-46h-160c-25 0-46 21-46 46v45z"/></svg>