<svg xmlns="http://www.w3.org/2000/svg" viewBox="0 0 512 512"><path d="M343 102l-20 20c-9 9-13 20-13 32 0 10 3 19 8 26l-64 64-53-53c11-17 9-40-6-55l-40-41c-3-3-8-3-12 0-3 3-3 8 0 11l40 42c5 5 8 12 8 19 0 4-1 8-3 12l-58-59c-3-3-8-3-12 0-3 3-3 8 0 12l59 59c-10 5-23 4-32-5l-40-41c-3-3-8-3-12 0-3 3-3 8 0 12l40 41c9 8 20 13 31 13 9 0 18-3 25-8l53 53-52 53c-4 3-4 8 0 11 1 2 4 3 6 3s4-1 5-3l53-52 52 52c2 2 4 3 6 3s5-1 6-3c4-3 4-8 0-11l-52-53 64-64c7 5 16 8 26 8 12 0 23-5 32-13l20-20c18-18 18-47 0-65-17-17-48-17-65 0zm53 53l-20 20c-11 11-30 11-41 0-6-6-9-13-9-21 0-7 3-15 9-20l20-20c5-6 13-9 21-9 7 0 15 3 20 9 12 11 12 29 0 41zm75-109c-27-29-64-45-104-45-38 0-74 15-101 41l-10 10-10-10c-27-26-63-41-101-41-40 0-77 16-104 45-27 28-42 64-41 103s16 75 44 102l198 191c3 3 7 5 11 5 1 0 2 0 3-1 1 1 2 1 3 1 4 0 7-2 11-5l198-191c28-27 43-63 44-102 1-38-14-75-41-103zm-25 183l-190 184-190-184c-22-21-35-50-35-80-1-31 10-60 32-82 21-23 51-35 82-35 30 0 58 12 80 32l20 20c6 6 16 6 21 0l21-20c21-21 50-32 80-32 31 0 60 13 82 35 21 22 33 51 32 82 0 30-13 59-35 80z"/></svg>