<svg xmlns="http://www.w3.org/2000/svg" viewBox="0 0 512 512"><path d="M83 351c-1 0-3 0-6-1-5-2-10-9-10-15v-68h-51c-8 0-15-7-15-15v-248c0-8 7-15 15-15h397c8 0 14 7 14 15v119c0 8-6 15-14 15-9 0-15-7-15-15v-104h-366v217h51c8 0 15 6 15 14v47l56-57c4-3 7-4 12-4h8c8 0 15 6 15 14 0 9-7 15-15 15h-2l-77 78c-3 7-8 8-12 8zm364 108c-5 0-8-2-11-5l-78-86h-126c-8 0-15-7-15-15v-165c0-9 7-15 15-15h265c8 0 15 6 15 15v165c0 8-7 15-15 15h-35v76c0 6-3 11-10 15h-5zm-200-121h118c4 0 8 2 11 5l56 61v-51c0-8 7-15 15-15h35v-136h-235v136z"/></svg>