<?xml version="1.0" encoding="UTF-8" standalone="no"?>
<svg width="32px" height="32px" viewBox="0 0 32 32" version="1.1" xmlns="http://www.w3.org/2000/svg" xmlns:xlink="http://www.w3.org/1999/xlink">
    <!-- Generator: Sketch 3.7.1 (28215) - http://www.bohemiancoding.com/sketch -->
    <title>add-plus-thick</title>
    <desc>Created with Sketch.</desc>
    <defs></defs>
    <g id="Page-1" stroke="none" stroke-width="1" fill="none" fill-rule="evenodd">
        <g id="1-56" transform="translate(-52.000000, -52.000000)" fill="#000000">
            <g id="add-plus-thick" transform="translate(52.000000, 52.000000)">
                <path d="M18,14 L18,2 C18,0.937 17.125,0.062 16,0 C14.937,0 14,0.875 14,2 L14,14 L2,14 C0.937,14 0.062,14.938 0,16 L0,16.313 L0.063,16.313 C0.188,17.251 1.001,18.001 2.001,18.001 L14.001,18.001 L14.001,30.001 C14.001,31.064 14.876,32.001 16.001,32.001 C16.564,32.001 17.064,31.751 17.439,31.376 C17.814,31.001 18.002,30.501 18.002,30.001 L18.002,18.001 L30.002,18.001 C30.502,18.001 31.002,17.813 31.377,17.438 C31.752,17.063 32.002,16.5 31.94,16 C31.94,14.937 31.065,14.062 30.002,14 L18,14 Z" id="Shape"></path>
            </g>
        </g>
    </g>
</svg>