<?xml version="1.0" encoding="UTF-8" standalone="no"?>
<svg width="26px" height="32px" viewBox="0 0 26 32" version="1.1" xmlns="http://www.w3.org/2000/svg" xmlns:xlink="http://www.w3.org/1999/xlink">
    <!-- Generator: Sketch 3.7.1 (28215) - http://www.bohemiancoding.com/sketch -->
    <title>afternoon-tea</title>
    <desc>Created with Sketch.</desc>
    <defs></defs>
    <g id="Page-1" stroke="none" stroke-width="1" fill="none" fill-rule="evenodd">
        <g id="1-56" transform="translate(-104.000000, -52.000000)" fill="#000000">
            <g id="afternoon-tea" transform="translate(104.000000, 51.000000)">
                <path d="M21.439,7.125 L14.876,7.125 C14.939,5.562 14.751,3.687 13.876,1.562 C13.626,1.124 13.063,0.874 12.626,1.062 C12.126,1.312 11.876,1.875 12.063,2.375 C12.876,4.188 13.001,5.813 12.938,7.125 L3.688,7.125 L-5.55111512e-17,12 L-5.55111512e-17,30.438 C-5.55111512e-17,31.876 1.188,33.001 2.563,33.001 L22.563,33.001 C23.938,33.001 25.126,31.876 25.126,30.438 L25.126,11.875 L21.439,7.125 Z M23.189,30.438 C23.189,30.813 22.876,31.063 22.564,31.063 L2.564,31.063 C2.251,31.063 1.939,30.813 1.939,30.438 L1.939,19.438 L23.189,19.438 L23.189,30.438 Z M1.939,17.5 L1.939,12.687 L4.689,9.062 L12.627,9.062 C12.502,9.437 12.377,9.75 12.314,10 C10.689,10.313 9.501,11.75 9.501,13.438 C9.501,15.313 11.064,16.876 12.939,16.876 C14.877,16.876 16.439,15.313 16.439,13.438 C16.439,11.938 15.564,10.688 14.314,10.188 C14.377,9.875 14.502,9.5 14.627,9.063 L20.502,9.063 L23.19,12.563 L23.19,17.501 L1.94,17.501 L1.939,17.5 Z M12.939,11.875 C13.814,11.875 14.502,12.563 14.502,13.438 C14.502,14.251 13.814,15.001 12.939,15.001 C12.126,15.001 11.376,14.251 11.376,13.438 C11.376,12.563 12.126,11.875 12.939,11.875 L12.939,11.875 Z" id="Shape"></path>
            </g>
        </g>
    </g>
</svg>