<?xml version="1.0" encoding="UTF-8" standalone="no"?>
<svg width="18px" height="32px" viewBox="0 0 18 32" version="1.1" xmlns="http://www.w3.org/2000/svg" xmlns:xlink="http://www.w3.org/1999/xlink">
    <!-- Generator: Sketch 3.7 (28169) - http://www.bohemiancoding.com/sketch -->
    <title>back-arrow-thick</title>
    <desc>Created with Sketch.</desc>
    <defs></defs>
    <g id="Page-1" stroke="none" stroke-width="1" fill="none" fill-rule="evenodd">
        <g id="1-10" transform="translate(-52.000000, -52.000000)" fill="#000000">
            <g id="back-arrow-thick" transform="translate(52.000000, 52.000000)">
                <path d="M16.7272727,28.6671515 L4.84848485,16.4848485 L16.7272727,4.30254545 C17.5156364,3.51418182 17.4545455,2.24193939 16.7272727,1.51466667 C16.3636364,1.1510303 15.8787879,0.968727273 15.3328485,0.968727273 C14.7869091,0.968727273 14.3020606,1.1510303 13.9384242,1.57478788 L0.72630303,15.1505455 C-0.00096969697,15.8778182 -0.00096969697,17.0899394 0.72630303,17.8172121 L13.9384242,31.3929697 C14.3020606,31.7566061 14.7869091,31.9990303 15.3328485,31.9990303 C15.8787879,31.9990303 16.3636364,31.8167273 16.7272727,31.4530909 C17.0909091,31.0894545 17.2732121,30.6046061 17.2732121,30.0586667 C17.2732121,29.5738182 17.0909091,29.0889697 16.7272727,28.6642424 L16.7272727,28.6671515 Z" id="Shape"></path>
            </g>
        </g>
    </g>
</svg>