<?xml version="1.0" encoding="UTF-8" standalone="no"?>
<svg width="24px" height="32px" viewBox="0 0 24 32" version="1.1" xmlns="http://www.w3.org/2000/svg" xmlns:xlink="http://www.w3.org/1999/xlink">
    <!-- Generator: Sketch 3.7.1 (28215) - http://www.bohemiancoding.com/sketch -->
    <title>beverage</title>
    <desc>Created with Sketch.</desc>
    <defs></defs>
    <g id="Page-1" stroke="none" stroke-width="1" fill="none" fill-rule="evenodd">
        <g id="1-56" transform="translate(-208.000000, -52.000000)" fill="#000000">
            <g id="beverage" transform="translate(208.000000, 52.000000)">
                <path d="M23.6373333,5.93744336 C23.4550303,5.6874668 23.2126061,5.56247852 22.9100606,5.56247852 L8.90957576,5.56247852 L8.72727273,4.18760741 C8.48484848,1.81283005 6.24193939,0 3.63636364,0 L0.96969697,0 C0.423757576,0 0,0.437958941 0,0.999906259 C0,1.56185358 0.424727273,2.06280661 0.96969697,2.06280661 L3.63636364,2.06280661 C5.21212121,2.06280661 6.66666667,3.12570696 6.78787879,4.37558979 L6.90909091,5.56347842 L4.12121212,5.56347842 C3.81769697,5.56347842 3.51515152,5.68846671 3.33284848,5.87644908 C3.15054545,6.12642565 3.09042424,6.43939631 3.09042424,6.68937287 L6.3030303,31.125082 C6.42424242,31.6250352 6.8489697,32 7.33381818,32 L19.6974545,32 C20.182303,32 20.6070303,31.6250352 20.6671515,31.125082 L23.8797576,6.68937287 C23.9408485,6.43939631 23.8186667,6.12642565 23.6373333,5.93944318 L23.6373333,5.93744336 Z M21.7580606,7.62428522 L21.3333333,11.1239571 L9.45454545,11.1239571 L9.09090909,7.62428522 L21.7580606,7.62428522 L21.7580606,7.62428522 Z M7.09139394,7.62428522 L7.4550303,11.1239571 L5.6969697,11.1239571 L5.21212121,7.62428522 L7.09139394,7.62428522 L7.09139394,7.62428522 Z M18.7888485,29.9351936 L8.18230303,29.9351936 L5.93939394,13.1237696 L7.63636364,13.1237696 L9.09090909,27.6854045 C9.152,28.1853576 9.63684848,28.6233166 10.121697,28.6233166 L10.2429091,28.6233166 C10.7888485,28.5603225 11.1524848,27.9983752 11.0913939,27.498422 L9.63684848,13.1867637 L21.0307879,13.1867637 L18.7888485,29.9351936 Z M14.304,25.4976096 C13.7580606,25.4976096 13.334303,25.9355685 13.334303,26.56051 C13.334303,27.1234572 13.7590303,27.5604162 14.304,27.5604162 C14.8489697,27.5604162 15.273697,27.1224573 15.273697,26.56051 C15.273697,25.9355685 14.8489697,25.4976096 14.304,25.4976096 L14.304,25.4976096 Z M17.5156364,21.0610255 C16.969697,21.0610255 16.5459394,21.5609787 16.5459394,22.1239259 C16.5459394,22.6868731 16.9706667,23.1238321 17.5156364,23.1238321 C18.0615758,23.1238321 18.5464242,22.6858732 18.5464242,22.1239259 C18.5464242,21.5619786 18.0615758,21.0610255 17.5156364,21.0610255 L17.5156364,21.0610255 Z M14.2429091,18.7482424 C14.2429091,18.1852951 13.7580606,17.7483361 13.2121212,17.7483361 C12.6661818,17.7483361 12.2424242,18.186295 12.2424242,18.7482424 C12.2424242,19.3111896 12.6671515,19.8111427 13.2121212,19.8111427 C13.7570909,19.8111427 14.2429091,19.3111896 14.2429091,18.7482424 L14.2429091,18.7482424 Z M17.5156364,15.5615411 C16.969697,15.5615411 16.5459394,15.9995 16.5459394,16.5614474 C16.5459394,17.1233947 16.9706667,17.5613536 17.5156364,17.5613536 C18.0615758,17.5613536 18.5464242,17.1233947 18.5464242,16.5614474 C18.5464242,15.9995 18.0615758,15.5615411 17.5156364,15.5615411 L17.5156364,15.5615411 Z" id="Shape"></path>
            </g>
        </g>
    </g>
</svg>