<?xml version="1.0" encoding="UTF-8" standalone="no"?>
<svg width="33px" height="33px" viewBox="0 0 33 33" version="1.1" xmlns="http://www.w3.org/2000/svg" xmlns:xlink="http://www.w3.org/1999/xlink">
    <!-- Generator: Sketch 3.7.1 (28215) - http://www.bohemiancoding.com/sketch -->
    <title>bill</title>
    <desc>Created with Sketch.</desc>
    <defs></defs>
    <g id="Page-1" stroke="none" stroke-width="1" fill="none" fill-rule="evenodd">
        <g id="1-56" transform="translate(-260.000000, -52.000000)" fill="#000000">
            <g id="bill" transform="translate(260.000000, 52.000000)">
                <path d="M18.4658193,6.82762398 L6.07095428,6.82762398 C5.5012964,6.82762398 5.12186176,7.20705862 5.12186176,7.7767165 C5.12186176,8.28262936 5.5012964,8.72580902 6.07095428,8.72580902 L18.4658193,8.72580902 C18.9717321,8.72580902 19.4149118,8.28262936 19.4149118,7.7767165 C19.4149118,7.20705862 18.9717321,6.82762398 18.4658193,6.82762398 L18.4658193,6.82762398 Z M18.4658193,13.7211926 L6.07095428,13.7211926 C5.5012964,13.7211926 5.12186176,14.1643722 5.12186176,14.6702851 C5.12186176,15.239943 5.5012964,15.6821108 6.07095428,15.6821108 L18.4658193,15.6821108 C18.9717321,15.6821108 19.4149118,15.2389311 19.4149118,14.6702851 C19.4149118,14.1643722 18.9717321,13.7211926 18.4658193,13.7211926 L18.4658193,13.7211926 Z M18.4658193,20.6774943 L6.07095428,20.6774943 C5.5012964,20.6774943 5.12186176,21.120674 5.12186176,21.6265869 C5.12186176,22.1962447 5.5012964,22.5756794 6.07095428,22.5756794 L18.4658193,22.5756794 C18.9717321,22.5756794 19.4149118,22.1962447 19.4149118,21.6265869 C19.4149118,21.120674 18.9717321,20.6774943 18.4658193,20.6774943 L18.4658193,20.6774943 Z M26.1809903,6.82762398 L24.5367735,6.82762398 C24.0308607,6.82762398 23.587681,7.20705862 23.587681,7.7767165 C23.587681,8.28262936 24.0308607,8.72580902 24.5367735,8.72580902 L26.1809903,8.72580902 C26.7506482,8.72580902 27.1300828,8.28262936 27.1300828,7.7767165 C27.1300828,7.20705862 26.7506482,6.82762398 26.1809903,6.82762398 L26.1809903,6.82762398 Z M28.8370328,0.188023651 L3.41491178,0.188023651 C1.51773857,0.188023651 0,1.70576222 0,3.60293543 L0,30.4163168 C0,31.0487079 0.316701448,31.5546208 0.822614305,31.8075772 C1.32852716,31.9978004 1.96091823,31.9340554 2.40409789,31.5546208 L5.69253146,28.5818768 L9.36039967,31.7438322 C10.119269,32.31349 11.1948397,32.31349 11.953709,31.6800871 L15.4323658,28.580865 L19.2904572,31.7428203 C19.6071587,32.0595218 20.0493265,32.186 20.4925062,32.186 C20.9356858,32.186 21.3778537,32.0595218 21.7572883,31.7428203 L25.5516347,28.580865 L29.9783722,31.7428203 C30.4215519,32.0595218 30.9901979,32.122255 31.4961108,31.8692986 C32.0020237,31.6163421 32.2549801,31.1104293 32.2549801,30.5407714 L32.2549801,3.60091178 C32.2549801,1.70373857 30.7372415,0.186 28.8400683,0.186 L28.8370328,0.188023651 Z M30.3547714,29.6574475 L26.3702017,26.8111818 C25.8642889,26.4317472 25.1054196,26.4317472 24.5995067,26.8749268 L20.4884589,30.2898386 L16.377411,26.8749268 C16.0607095,26.6219704 15.7450199,26.4954922 15.4283185,26.4954922 C15.111617,26.4954922 14.7321824,26.6219704 14.479226,26.8749268 L10.6211345,30.2271054 L6.63656485,26.8749268 C6.130652,26.369014 5.30803769,26.4317472 4.73939164,26.8749268 L1.89312591,29.4044911 L1.89312591,3.60293543 C1.89312591,2.78032113 2.589262,2.08519686 3.41086448,2.08519686 L28.8329855,2.08519686 C29.6555998,2.08519686 30.3507241,2.78133295 30.3507241,3.60293543 L30.3547714,29.6574475 Z M26.1809903,13.7211926 L24.5367735,13.7211926 C24.0308607,13.7211926 23.587681,14.1643722 23.587681,14.6702851 C23.587681,15.239943 24.0308607,15.6821108 24.5367735,15.6821108 L26.1809903,15.6821108 C26.7506482,15.6821108 27.1300828,15.2389311 27.1300828,14.6702851 C27.1300828,14.1643722 26.7506482,13.7211926 26.1809903,13.7211926 L26.1809903,13.7211926 Z M26.1809903,20.6774943 L24.5367735,20.6774943 C24.0308607,20.6774943 23.587681,21.120674 23.587681,21.6265869 C23.587681,22.1962447 24.0308607,22.5756794 24.5367735,22.5756794 L26.1809903,22.5756794 C26.7506482,22.5756794 27.1300828,22.1962447 27.1300828,21.6265869 C27.1300828,21.120674 26.7506482,20.6774943 26.1809903,20.6774943 L26.1809903,20.6774943 Z" id="Shape"></path>
            </g>
        </g>
    </g>
</svg>