<?xml version="1.0" encoding="UTF-8" standalone="no"?>
<svg width="31px" height="21px" viewBox="0 0 31 21" version="1.1" xmlns="http://www.w3.org/2000/svg" xmlns:xlink="http://www.w3.org/1999/xlink">
    <!-- Generator: Sketch 3.7.1 (28215) - http://www.bohemiancoding.com/sketch -->
    <title>buffet</title>
    <desc>Created with Sketch.</desc>
    <defs></defs>
    <g id="Page-1" stroke="none" stroke-width="1" fill="none" fill-rule="evenodd">
        <g id="1-56" transform="translate(-312.000000, -62.000000)" fill="#000000">
            <g id="buffet" transform="translate(312.000000, 62.000000)">
                <path d="M30.1246061,16.1221818 L28.4877576,16.1221818 C28.0630303,10.2429091 23.7604848,5.45551515 18.1236364,4.30351515 C18.3059394,3.87878788 18.4872727,3.4550303 18.4872727,2.97018182 C18.4872727,1.33333333 17.1539394,1.77635684e-15 15.5170909,1.77635684e-15 C13.8802424,1.77635684e-15 12.5469091,1.33333333 12.5469091,2.97018182 C12.5469091,3.4550303 12.7292121,3.87975758 12.9105455,4.30351515 C7.27369697,5.45551515 2.97115152,10.2429091 2.54642424,16.1221818 L0.909575758,16.1221818 C0.424727273,16.1221818 0,16.4858182 0,17.0317576 C0,17.5166061 0.424727273,17.9413333 0.909575758,17.9413333 L1.51563636,17.9413333 L4.06109091,20.6690909 C4.24339394,20.8513939 4.48581818,20.9726061 4.72824242,20.9726061 L26.0615758,20.9726061 C26.304,20.9726061 26.5464242,20.8513939 26.7287273,20.6690909 L29.4564848,17.9413333 L30.1236364,17.9413333 C30.6084848,17.9413333 31.0332121,17.5166061 31.0332121,17.0317576 C31.0332121,16.4858182 30.6084848,16.1221818 30.1236364,16.1221818 L30.1246061,16.1221818 Z M14.4271515,2.97018182 C14.4271515,2.36412121 14.912,1.87927273 15.5180606,1.87927273 C16.1241212,1.87927273 16.6089697,2.36412121 16.6089697,2.97018182 C16.6089697,3.51612121 16.1241212,4.0009697 15.5180606,4.0009697 C14.912,4.0009697 14.4271515,3.51612121 14.4271515,2.97018182 L14.4271515,2.97018182 Z M15.5180606,5.87927273 C21.3362424,5.87927273 26.1246061,10.3641212 26.6094545,16.1221818 L4.42763636,16.1221818 C4.91248485,10.3641212 9.70084848,5.87927273 15.5190303,5.87927273 L15.5180606,5.87927273 Z M25.6998788,19.0913939 L5.15393939,19.0913939 L4.0630303,17.9393939 L26.8509091,17.9393939 L25.6998788,19.0913939 Z M15.5180606,7.03127273 C12.1842424,7.03127273 9.09381818,8.66812121 7.21454545,11.456 C6.9110303,11.8807273 7.03224242,12.4867879 7.4569697,12.7893333 C7.63927273,12.8504242 7.82060606,12.9105455 8.00290909,12.9105455 C8.30642424,12.9105455 8.6089697,12.7893333 8.79127273,12.4858182 C10.3069091,10.2429091 12.7912727,8.90957576 15.5190303,8.90957576 C16.0649697,8.90957576 16.4286061,8.48484848 16.4286061,7.93987879 C16.4286061,7.4550303 16.0649697,7.03030303 15.5190303,7.03030303 L15.5180606,7.03127273 Z" id="Shape"></path>
            </g>
        </g>
    </g>
</svg>