<?xml version="1.0" encoding="UTF-8" standalone="no"?>
<svg width="30px" height="32px" viewBox="0 0 30 32" version="1.1" xmlns="http://www.w3.org/2000/svg" xmlns:xlink="http://www.w3.org/1999/xlink">
    <!-- Generator: Sketch 3.7 (28169) - http://www.bohemiancoding.com/sketch -->
    <title>butcher-shop</title>
    <desc>Created with Sketch.</desc>
    <defs></defs>
    <g id="Page-1" stroke="none" stroke-width="1" fill="none" fill-rule="evenodd">
        <g id="1-10" transform="translate(-104.000000, -52.000000)" fill="#000000">
            <g id="butcher-shop" transform="translate(104.000000, 52.000000)">
                <path d="M29.5294118,8 L18.0583529,1.05882353 C17.8814118,0.941176471 17.6461176,0.881882353 17.4108235,0.941176471 C17.1755294,1.00047059 16.9402353,1.17647059 16.8225882,1.41176471 C13.3515294,7.64705882 9.93976471,13.4117647 6.70494118,18.5298824 C4.528,21.9416471 2.41035294,25.2357647 0.292705882,28.2362353 C0.175058824,28.4131765 0.115764706,28.7068235 0.175058824,28.9421176 C0.234352941,29.1774118 0.352,29.3543529 0.587294118,29.5303529 L2.82258824,30.8837647 C2.99952941,31.0014118 3.17552941,31.0607059 3.29317647,31.0607059 C3.58776471,31.0607059 3.88141176,30.8837647 4.05835294,30.6484706 L4.176,30.5308235 C6.11764706,27.7072941 8.11764706,24.8244706 9.94070588,21.5896471 L17.1764706,26.0018824 C17.4710588,26.2371765 17.9416471,26.1788235 18.2352941,25.9425882 C22.1769412,22.2362353 27.5887059,14.9421176 29.8823529,9.05976471 C30.0592941,8.64752941 29.8823529,8.17694118 29.5294118,8.00094118 L29.5294118,8 Z M3.05882353,28.9411765 L2.35294118,28.4705882 C4.11764706,25.8823529 5.94164706,23.1171765 7.76470588,20.2352941 L8.41223529,20.6475294 C6.76517647,23.5887059 4.88282353,26.2945882 3.05882353,28.9421176 L3.05882353,28.9411765 Z M17.5294118,24.1176471 L8.70588235,18.7058824 C11.7063529,13.9407059 14.7651765,8.70588235 17.9416471,3.05882353 L27.9416471,9.11811765 C25.7063529,14.4122353 21.0588235,20.6475294 17.5294118,24.1185882 L17.5294118,24.1176471 Z M19.8823529,6.64752941 C19.8823529,7.11811765 19.4701176,7.53035294 18.9411765,7.53035294 C18.4705882,7.53035294 18.0583529,7.11811765 18.0583529,6.64752941 C18.0583529,6.11764706 18.4705882,5.70635294 18.9411765,5.70635294 C19.4710588,5.70635294 19.8823529,6.11858824 19.8823529,6.64752941 L19.8823529,6.64752941 Z" id="Shape"></path>
            </g>
        </g>
    </g>
</svg>