<?xml version="1.0" encoding="UTF-8" standalone="no"?>
<svg width="32px" height="27px" viewBox="0 0 32 27" version="1.1" xmlns="http://www.w3.org/2000/svg" xmlns:xlink="http://www.w3.org/1999/xlink">
    <!-- Generator: Sketch 3.7.1 (28215) - http://www.bohemiancoding.com/sketch -->
    <title>camera-line</title>
    <desc>Created with Sketch.</desc>
    <defs></defs>
    <g id="Page-1" stroke="none" stroke-width="1" fill="none" fill-rule="evenodd">
        <g id="1-56" transform="translate(-468.000000, -57.000000)" fill="#000000">
            <g id="camera-line" transform="translate(468.000000, 57.000000)">
                <path d="M29.75,26.126 L2.25,26.126 C1,26.126 0,25.126 0,23.938 L0,6.75 C0,5.5 1,4.5 2.25,4.5 L7.75,4.5 L10.75,0.375 C10.938,0.125 11.188,0 11.5,0 L20.375,0 C20.625,0 20.938,0.188 21.125,0.438 L24.063,4.501 L29.751,4.501 C31.001,4.501 32.001,5.501 32.001,6.751 L32.001,23.939 C32.001,25.189 31.001,26.127 29.751,26.127 L29.75,26.126 Z M2.25,6.313 C2,6.313 1.812,6.501 1.812,6.751 L1.812,23.939 C1.812,24.127 2,24.314 2.25,24.314 L29.75,24.314 C30,24.314 30.188,24.126 30.188,23.939 L30.188,6.751 C30.188,6.501 30,6.313 29.75,6.313 L23.562,6.313 C23.249,6.313 22.999,6.188 22.812,5.938 L19.874,1.813 L11.936,1.813 L8.998,5.938 C8.81,6.188 8.498,6.313 8.248,6.313 L2.25,6.313 Z M16,22.501 C11.5,22.501 7.875,18.813 7.875,14.376 C7.875,9.876 11.563,6.251 16,6.251 C20.5,6.251 24.125,9.876 24.125,14.376 C24.125,18.814 20.5,22.501 16,22.501 L16,22.501 Z M16,8.063 C12.5,8.063 9.687,10.876 9.687,14.376 C9.687,17.814 12.5,20.689 16,20.689 C19.5,20.689 22.313,17.814 22.313,14.376 C22.313,10.876 19.5,8.063 16,8.063 L16,8.063 Z" id="Shape"></path>
            </g>
        </g>
    </g>
</svg>