<?xml version="1.0" encoding="UTF-8" standalone="no"?>
<svg width="32px" height="32px" viewBox="0 0 32 32" version="1.1" xmlns="http://www.w3.org/2000/svg" xmlns:xlink="http://www.w3.org/1999/xlink">
    <!-- Generator: Sketch 3.7.1 (28215) - http://www.bohemiancoding.com/sketch -->
    <title>camera-circle</title>
    <desc>Created with Sketch.</desc>
    <defs></defs>
    <g id="Page-1" stroke="none" stroke-width="1" fill="none" fill-rule="evenodd">
        <g id="1-56" transform="translate(-416.000000, -52.000000)" fill="#000000">
            <g id="camera-circle" transform="translate(416.000000, 52.000000)">
                <path d="M16,0 C7.187,0 0,7.188 0,16 C0,24.812 7.188,32 16,32 C24.813,32 32,24.812 32,16 C32,7.188 24.812,0 16,0 L16,0 Z M16,30.063 C8.25,30.063 1.937,23.75 1.937,16 C1.937,8.25 8.25,1.937 16,1.937 C23.75,1.937 30.063,8.25 30.063,16 C30.063,23.75 23.75,30.063 16,30.063 L16,30.063 Z M23.5,10.938 L20.562,10.938 L19.124,8.875 C18.936,8.625 18.686,8.437 18.374,8.437 L13.561,8.437 C13.248,8.437 12.998,8.562 12.811,8.812 L11.311,10.875 L8.498,10.875 C7.623,10.875 6.873,11.625 6.873,12.5 L6.873,21.875 C6.873,22.813 7.623,23.5 8.498,23.5 L23.498,23.5 C23.936,23.5 24.373,23.375 24.623,23.062 C24.936,22.749 25.123,22.312 25.123,21.874 L25.123,12.561 C25.123,11.623 24.373,10.936 23.498,10.936 L23.5,10.938 Z M23.313,12.75 L23.313,21.688 L8.688,21.688 L8.688,12.75 L11.751,12.75 C12.064,12.75 12.314,12.562 12.501,12.375 L14.001,10.312 L17.939,10.312 L19.377,12.375 C19.565,12.563 19.815,12.75 20.127,12.75 L23.315,12.75 L23.313,12.75 Z M16,12.875 C13.687,12.875 11.875,14.688 11.875,17 C11.875,19.25 13.688,21.125 16,21.125 C18.312,21.125 20.125,19.25 20.125,17 C20.125,14.687 18.312,12.875 16,12.875 L16,12.875 Z M16,14.5 C17.375,14.5 18.5,15.625 18.5,17 C18.5,18.375 17.375,19.5 16,19.5 C14.625,19.5 13.5,18.375 13.5,17 C13.5,15.625 14.625,14.5 16,14.5 L16,14.5 Z" id="Shape"></path>
            </g>
        </g>
    </g>
</svg>