<?xml version="1.0" encoding="UTF-8" standalone="no"?>
<svg width="32px" height="32px" viewBox="0 0 32 32" version="1.1" xmlns="http://www.w3.org/2000/svg" xmlns:xlink="http://www.w3.org/1999/xlink">
    <!-- Generator: Sketch 3.7.1 (28215) - http://www.bohemiancoding.com/sketch -->
    <title>car-pune</title>
    <desc>Created with Sketch.</desc>
    <defs></defs>
    <g id="Page-1" stroke="none" stroke-width="1" fill="none" fill-rule="evenodd">
        <g id="1-56" transform="translate(-520.000000, -52.000000)" fill="#000000">
            <g id="car-pune" transform="translate(519.000000, 52.000000)">
                <path d="M29.75,14.063 L29.75,8.25 C29.75,3.625 25.187,0 19.437,0 L14.187,0 C8.437,0 3.874,3.625 3.874,8.25 L3.874,14.063 C1.999,15.751 0.999,18.188 0.999,20.876 L0.999,24.376 C0.999,25.564 1.749,26.501 2.812,26.814 L2.812,29.064 C2.812,32.752 8.937,32.752 8.937,29.064 L8.937,26.939 L24.625,26.939 L24.625,29.064 C24.625,30.877 26.188,31.877 27.688,31.877 C28.438,31.877 29.188,31.627 29.751,31.189 C30.439,30.689 30.751,29.876 30.751,29.001 L30.751,26.876 C32.001,26.751 33.001,25.688 33.001,24.376 L33.001,20.876 C33.001,18.376 31.813,15.876 29.751,14.063 L29.75,14.063 Z M7,29.063 C7,29.876 6,29.876 5.937,29.876 C5.812,29.876 4.812,29.876 4.812,29.063 L4.812,26.938 L7,26.938 L7,29.063 Z M28.813,29.063 C28.813,29.313 28.75,29.501 28.563,29.626 C28.313,29.814 28,29.876 27.688,29.876 C27.563,29.876 26.625,29.876 26.625,29.063 L26.625,26.938 L28.813,26.938 L28.813,29.063 Z M31.063,24.376 C31.063,24.626 30.875,24.876 30.625,24.939 L3.437,24.939 C3.187,24.876 2.999,24.689 2.999,24.376 L2.999,20.876 C2.999,18.563 3.874,16.626 5.499,15.251 L5.874,15.001 L5.874,8.251 C5.874,4.813 9.624,2.001 14.249,2.001 L19.437,2.001 C24.062,2.001 27.812,4.814 27.812,8.251 L27.812,15.001 L28.187,15.314 C30.062,16.814 31.062,18.814 31.062,20.877 L31.062,24.377 L31.063,24.376 Z M26.313,8.938 C26.313,5.563 22.688,3.813 19.063,3.813 L14.938,3.813 C11.375,3.813 7.75,5.563 7.75,8.938 L7.75,13.063 C7.75,14.188 8.625,15.126 9.75,15.126 L24.25,15.126 C25.375,15.126 26.25,14.188 26.25,13.063 L26.25,8.938 L26.313,8.938 Z M24.25,13.126 L9.687,13.063 L9.687,8.938 C9.687,6.875 12.437,5.813 14.937,5.813 L19.062,5.813 C21.625,5.813 24.312,7.001 24.312,8.938 L24.25,13.126 Z M6.25,18.188 C5.125,18.188 4.187,19.126 4.187,20.251 C4.187,21.376 5.125,22.314 6.25,22.314 C7.375,22.314 8.25,21.376 8.25,20.251 C8.25,19.126 7.375,18.188 6.25,18.188 L6.25,18.188 Z M25.813,20.251 C25.813,21.376 26.688,22.314 27.813,22.314 C28.938,22.314 29.876,21.376 29.876,20.251 C29.876,19.126 28.938,18.188 27.813,18.188 C26.688,18.188 25.813,19.126 25.813,20.251 L25.813,20.251 Z" id="Shape"></path>
            </g>
        </g>
    </g>
</svg>