<?xml version="1.0" encoding="UTF-8" standalone="no"?>
<svg width="32px" height="32px" viewBox="0 0 32 32" version="1.1" xmlns="http://www.w3.org/2000/svg" xmlns:xlink="http://www.w3.org/1999/xlink">
    <!-- Generator: Sketch 3.7.1 (28215) - http://www.bohemiancoding.com/sketch -->
    <title>credit-cards</title>
    <desc>Created with Sketch.</desc>
    <defs></defs>
    <g id="Page-1" stroke="none" stroke-width="1" fill="none" fill-rule="evenodd">
        <g id="1-56" transform="translate(-624.000000, -52.000000)" fill="#000000">
            <g id="credit-cards" transform="translate(624.000000, 52.000000)">
                <path d="M16.7480157,0.984227129 L1.02920767,16.7258644 C-0.343069222,18.1001343 -0.343069222,20.2869725 1.02920767,21.6612425 L10.3237638,30.9692976 C11.6960407,32.3435675 13.8797075,32.3435675 15.2519843,30.9692976 L30.9707923,15.2276603 C32.3430692,13.8533904 32.3430692,11.6665521 30.9707923,10.2922822 L21.6762362,0.984227129 C20.3039593,-0.32807571 18.1202925,-0.32807571 16.7480157,0.984227129 L16.7480157,0.984227129 Z M2.33960734,18.1001343 L18.1212906,2.2955305 C18.7450528,1.67086235 19.6811951,1.67086235 20.3668346,2.2955305 L21.4896066,3.48289971 L3.52525457,21.4733423 L2.33960734,20.2859731 C1.71584512,19.6613049 1.71584512,18.723803 2.33960734,18.0991348 L2.33960734,18.1001343 Z M29.6603927,13.8523909 L13.8787094,29.6569947 C13.2549472,30.2816629 12.3188049,30.2816629 11.6331654,29.6569947 L4.83365821,22.7856451 L22.7980102,4.79520255 L29.6593946,11.6045851 C30.2831569,12.2922198 30.2831569,13.2287222 29.6593946,13.8533904 L29.6603927,13.8523909 Z" id="Shape"></path>
            </g>
        </g>
    </g>
</svg>