<?xml version="1.0" encoding="UTF-8" standalone="no"?>
<svg width="32px" height="29px" viewBox="0 0 32 29" version="1.1" xmlns="http://www.w3.org/2000/svg" xmlns:xlink="http://www.w3.org/1999/xlink">
    <!-- Generator: Sketch 3.7.1 (28215) - http://www.bohemiancoding.com/sketch -->
    <title>credit-card-srp</title>
    <desc>Created with Sketch.</desc>
    <defs></defs>
    <g id="Page-1" stroke="none" stroke-width="1" fill="none" fill-rule="evenodd">
        <g id="1-10" transform="translate(-264.000000, -105.000000)" fill="#000000">
            <g id="credit-card-srp" transform="translate(264.000000, 105.000000)">
                <path d="M27.9375,0 L4.0625,0 C1.8125,0 0,1.8125 0,4.0625 L0,24.5 C0,26.75 1.8125,28.5625 4.0625,28.5625 L27.9375,28.5625 C30.1875,28.5625 32,26.75 32,24.5 L32,4.0625 C32,1.8125 30.1875,0 27.9375,0 L27.9375,0 Z M4.0625,1.9375 L27.9375,1.9375 C29.125,1.9375 30.0625,2.875 30.0625,4.125 L30.0625,7.4375 L1.9375,7.4375 L1.9375,4.0625 C1.9375,2.875 2.875,1.9375 4.0625,1.9375 L4.0625,1.9375 Z M30.0625,9.375 L30.0625,13.375 L1.9375,13.375 L1.9375,9.375 L30.0625,9.375 Z M27.9375,26.6875 L4.0625,26.6875 C2.875,26.6875 1.875,25.75 1.875,24.5 L1.875,15.25 L30.0625,15.25 L30.0625,24.5 C30.0625,25.75 29.125,26.6875 27.9375,26.6875 L27.9375,26.6875 Z M4.4375,20.25 L11.3125,20.25 L11.3125,22.1875 L4.4375,22.1875 L4.4375,20.25 Z M14.3125,20.25 L18.9375,20.25 L18.9375,22.1875 L14.3125,22.1875 L14.3125,20.25 Z" id="Shape"></path>
            </g>
        </g>
    </g>
</svg>