<?xml version="1.0" encoding="UTF-8" standalone="no"?>
<svg width="32px" height="32px" viewBox="0 0 32 32" version="1.1" xmlns="http://www.w3.org/2000/svg" xmlns:xlink="http://www.w3.org/1999/xlink">
    <!-- Generator: Sketch 3.7 (28169) - http://www.bohemiancoding.com/sketch -->
    <title>cross-thick</title>
    <desc>Created with Sketch.</desc>
    <defs></defs>
    <g id="Page-1" stroke="none" stroke-width="1" fill="none" fill-rule="evenodd">
        <g id="1-10" transform="translate(-156.000000, -52.000000)" fill="#000000">
            <g id="cross-thick" transform="translate(156.000000, 52.000000)">
                <path d="M18.4122353,16 L30.5891765,3.82305882 C31.2367059,3.17552941 31.2367059,2.11670588 30.5891765,1.47011765 L30.5891765,1.41082353 C30.2362353,1.11623529 29.824,0.940235294 29.3534118,0.940235294 C28.8828235,0.940235294 28.4705882,1.11717647 28.1769412,1.41082353 L16,13.5877647 L3.82305882,1.47011765 C3.52847059,1.11717647 3.11717647,0.940235294 2.64658824,0.940235294 C2.176,0.940235294 1.76376471,1.11717647 1.41082353,1.41082353 L1.41082353,1.47011765 C0.763294118,2.11764706 0.763294118,3.17647059 1.41082353,3.82305882 L13.5877647,16 L1.47011765,28.1769412 C0.822588235,28.8244706 0.764235294,29.8832941 1.41082353,30.5298824 L1.47011765,30.5891765 C1.76470588,30.8837647 2.23529412,31.0597647 2.64658824,31.0597647 C3.11717647,31.0597647 3.58776471,30.8828235 3.88235294,30.5891765 L16,18.4122353 L28.1769412,30.5891765 C28.4715294,30.8837647 28.8828235,31.0597647 29.3534118,31.0597647 C29.824,31.0597647 30.2362353,30.8828235 30.5891765,30.5891765 C31.1774118,29.9416471 31.1774118,28.8244706 30.5891765,28.1769412 L18.4122353,16 Z" id="Shape"></path>
            </g>
        </g>
    </g>
</svg>