<?xml version="1.0" encoding="UTF-8" standalone="no"?>
<svg width="32px" height="32px" viewBox="0 0 32 32" version="1.1" xmlns="http://www.w3.org/2000/svg" xmlns:xlink="http://www.w3.org/1999/xlink">
    <!-- Generator: Sketch 3.7.1 (28215) - http://www.bohemiancoding.com/sketch -->
    <title>cross-in-circle</title>
    <desc>Created with Sketch.</desc>
    <defs></defs>
    <g id="Page-1" stroke="none" stroke-width="1" fill="none" fill-rule="evenodd">
        <g id="1-56" transform="translate(-52.000000, -104.000000)" fill="#000000">
            <g id="cross-in-circle" transform="translate(52.000000, 104.000000)">
                <path d="M16,0 C7.187,0 0,7.188 0,16 C0,24.812 7.188,32 16,32 C24.813,32 32,24.812 32,16 C32,7.188 24.812,0 16,0 L16,0 Z M16,30 C8.25,30 2,23.75 2,16 C2,8.25 8.25,2 16,2 C23.75,2 30,8.25 30,16 C30,23.75 23.75,30 16,30 L16,30 Z M17.438,16 L22.063,11.375 C22.438,10.937 22.438,10.312 22.063,9.937 C21.688,9.562 21.063,9.562 20.625,9.937 L16,14.562 L11.375,9.937 C10.937,9.562 10.312,9.562 9.937,9.937 C9.562,10.312 9.562,10.937 9.937,11.375 L14.562,16 L9.374,21.188 C8.999,21.563 8.999,22.188 9.374,22.626 C9.562,22.814 9.812,22.876 10.124,22.876 C10.374,22.876 10.624,22.813 10.812,22.626 L16,17.438 L21.188,22.626 C21.376,22.814 21.626,22.876 21.876,22.876 C22.189,22.876 22.439,22.813 22.626,22.626 C23.001,22.251 23.001,21.626 22.626,21.188 L17.438,16 Z" id="Shape"></path>
            </g>
        </g>
    </g>
</svg>