<?xml version="1.0" encoding="UTF-8" standalone="no"?>
<svg width="27px" height="32px" viewBox="0 0 27 32" version="1.1" xmlns="http://www.w3.org/2000/svg" xmlns:xlink="http://www.w3.org/1999/xlink">
    <!-- Generator: Sketch 3.7.1 (28215) - http://www.bohemiancoding.com/sketch -->
    <title>cuisine</title>
    <desc>Created with Sketch.</desc>
    <defs></defs>
    <g id="Page-1" stroke="none" stroke-width="1" fill="none" fill-rule="evenodd">
        <g id="1-56" transform="translate(-208.000000, -104.000000)" fill="#000000">
            <g id="cuisine" transform="translate(208.000000, 104.000000)">
                <path d="M19.002,0 C18.502,0 18.064,0.438 18.064,0.938 L18.064,31.063 C18.064,31.563 18.502,32.001 19.002,32.001 C19.565,32.001 19.94,31.563 19.94,31.063 L19.94,22.875 L25.253,22.875 C25.816,22.875 26.253,22.437 26.253,21.875 C26.253,10.312 22.19,0 19.003,0 L19.002,0 Z M19.94,20.938 L19.94,2.875 C21.628,5.25 24.128,11.75 24.315,20.938 L19.94,20.938 L19.94,20.938 Z M11.44,0 C10.94,0 10.502,0.438 10.502,0.938 L10.502,7.501 C10.502,9.564 9.064,11.189 7.189,11.689 L7.189,0.939 C7.189,0.439 6.751,0.001 6.189,0.001 C5.689,0.001 5.251,0.439 5.251,0.939 L5.251,11.627 C3.376,11.189 1.938,9.502 1.938,7.502 L1.938,0.939 C1.938,0.439 1.5,0.001 1,0.001 C0.437,0.001 -8.8817842e-16,0.439 -8.8817842e-16,0.939 L-8.8817842e-16,7.502 C-8.8817842e-16,10.565 2.313,13.127 5.25,13.627 L5.25,31.065 C5.25,31.565 5.688,32.003 6.188,32.003 C6.751,32.003 7.188,31.565 7.188,31.065 L7.188,13.627 C10.126,13.127 12.376,10.564 12.376,7.502 L12.376,0.939 C12.376,0.439 11.938,0.001 11.438,0.001 L11.44,0 Z" id="Shape"></path>
            </g>
        </g>
    </g>
</svg>