<?xml version="1.0" encoding="UTF-8" standalone="no"?>
<svg width="32px" height="32px" viewBox="0 0 32 32" version="1.1" xmlns="http://www.w3.org/2000/svg" xmlns:xlink="http://www.w3.org/1999/xlink">
    <!-- Generator: Sketch 3.7.1 (28215) - http://www.bohemiancoding.com/sketch -->
    <title>current-location</title>
    <desc>Created with Sketch.</desc>
    <defs></defs>
    <g id="Page-1" stroke="none" stroke-width="1" fill="none" fill-rule="evenodd">
        <g id="1-56" transform="translate(-260.000000, -104.000000)" fill="#000000">
            <g id="current-location" transform="translate(260.000000, 104.000000)">
                <path d="M16,0 C7.187,0 0,7.188 0,16 C0,24.812 7.188,32 16,32 C24.813,32 32,24.812 32,16 C32,7.188 24.812,0 16,0 L16,0 Z M17.313,29.375 L17.313,23.437 C17.313,22.687 16.75,22.124 16,22.124 C15.25,22.124 14.687,22.687 14.687,23.437 L14.687,29.375 C8.312,28.75 3.249,23.687 2.624,17.312 L8.562,17.312 C9.312,17.312 9.875,16.749 9.875,15.999 C9.875,15.249 9.312,14.686 8.562,14.686 L2.624,14.686 C3.249,8.311 8.374,3.248 14.687,2.623 L14.687,7.873 C14.687,8.623 15.25,9.186 16,9.186 C16.75,9.186 17.313,8.623 17.313,7.873 L17.313,2.623 C23.688,3.248 28.751,8.373 29.376,14.686 L24.126,14.686 C23.376,14.686 22.813,15.249 22.813,15.999 C22.813,16.749 23.376,17.312 24.126,17.312 L29.376,17.312 C28.751,23.687 23.688,28.75 17.313,29.375 L17.313,29.375 Z" id="Shape"></path>
            </g>
        </g>
    </g>
</svg>