<?xml version="1.0" encoding="UTF-8" standalone="no"?>
<svg width="32px" height="32px" viewBox="0 0 32 32" version="1.1" xmlns="http://www.w3.org/2000/svg" xmlns:xlink="http://www.w3.org/1999/xlink">
    <!-- Generator: Sketch 3.7.1 (28215) - http://www.bohemiancoding.com/sketch -->
    <title>delivery-experience</title>
    <desc>Created with Sketch.</desc>
    <defs></defs>
    <g id="Page-1" stroke="none" stroke-width="1" fill="none" fill-rule="evenodd">
        <g id="1-10" transform="translate(-53.000000, -104.000000)" fill="#000000">
            <g id="delivery-experience" transform="translate(53.000000, 104.000000)">
                <path d="M30.7475538,11.5851272 C30.4344423,11.5225049 30.2465753,11.4598826 29.9334638,11.4598826 L20.9784736,11.4598826 C20.853229,11.4598826 20.665362,11.3972603 20.5401174,11.2720157 C20.3522505,11.146771 20.2270059,11.0215264 20.2270059,10.8962818 L17.6594912,1.56555773 C17.5342466,1.25244618 17.4716243,1.00195695 17.2837573,0.688845401 C17.0958904,0.438356164 16.7201566,0 15.9686888,0 C15.2798434,0 14.9041096,0.438356164 14.7162427,0.688845401 C14.5283757,1.00195695 14.4031311,1.25244618 14.3405088,1.56555773 L11.7103718,10.8962818 C11.7103718,11.0215264 11.5851272,11.146771 11.4598826,11.2720157 C11.2720157,11.3972603 11.0841487,11.4598826 11.0215264,11.4598826 L2.00391389,11.4598826 C1.62818004,11.4598826 1.31506849,11.5225049 0.939334638,11.6477495 C0.75146771,11.7103718 0.500978474,11.8982387 0.313111546,12.148728 C0.125244618,12.3365949 0,12.7123288 0,13.0880626 C0,13.5890411 0.250489237,13.9021526 0.438356164,14.1526419 C0.626223092,14.3405088 0.81409002,14.5283757 1.06457926,14.6536204 L8.26614481,19.4755382 C8.39138943,19.5381605 8.64187867,19.9138943 8.64187867,20.1643836 C8.64187867,20.2270059 8.64187867,20.2896282 8.57925636,20.3522505 L5.82387476,29.5577299 C5.69863014,29.8082192 5.63600783,30.1213307 5.63600783,30.37182 C5.63600783,30.6223092 5.69863014,30.9980431 5.94911937,31.3737769 C6.19960861,31.8121331 6.8258317,32 7.20156556,32 C7.89041096,32 8.2035225,31.6868885 8.57925636,31.4363992 L15.6555773,25.3620352 C15.7181996,25.2994129 15.9060665,25.2367906 16.0313112,25.2367906 C16.2191781,25.2367906 16.3444227,25.2994129 16.407045,25.3620352 L23.8590998,31.4363992 C24.2348337,31.7495108 24.5479452,32 25.2367906,32 C25.6751468,32 26.2387476,31.8121331 26.4892368,31.4363992 C26.739726,31.0606654 26.8023483,30.6849315 26.8023483,30.4344423 C26.8023483,30.1213307 26.739726,29.8082192 26.6144814,29.5577299 L23.4207436,20.2270059 L23.4207436,20.1017613 C23.4207436,19.851272 23.6086106,19.4755382 23.7338552,19.4129159 L30.9354207,14.6536204 C31.1232877,14.5283757 31.3737769,14.3405088 31.5616438,14.1526419 C31.6868885,13.9021526 31.9373777,13.5890411 31.9373777,13.0254403 C31.9373777,12.7749511 31.8121331,12.3992172 31.6242661,12.148728 C31.3111546,11.7729941 30.9980431,11.6477495 30.7475538,11.5851272 Z M27.553816,14.4031311 C27.553816,14.4031311 27.3033268,14.4657534 27.1154599,14.590998 L20.4148728,18.7240705 C20.2896282,18.7866928 20.1643836,19.037182 20.1643836,19.2250489 L20.1643836,19.4129159 L23.5459883,27.553816 C23.6086106,27.8043053 23.6086106,28.1174168 23.6086106,28.1174168 L23.5459883,28.1800391 C23.5459883,28.1800391 23.2328767,27.9295499 22.9823875,27.741683 L15.9686888,21.6046967 L15.9686888,3.00587084 C15.9686888,2.50489237 16.2191781,2.44227006 16.2818004,2.88062622 C17.0332681,5.94911937 18.4735812,13.7142857 18.4735812,13.7142857 C18.5362035,13.776908 18.5988258,13.9021526 18.7240705,13.964775 C18.8493151,14.0900196 18.9745597,14.1526419 19.037182,14.1526419 L26.9902153,14.1526419 C27.2407045,14.1526419 27.6164384,14.2152642 27.6164384,14.2152642 L27.553816,14.4031311 Z" id="Shape"></path>
            </g>
        </g>
    </g>
</svg>