<?xml version="1.0" encoding="UTF-8" standalone="no"?>
<svg width="20px" height="32px" viewBox="0 0 20 32" version="1.1" xmlns="http://www.w3.org/2000/svg" xmlns:xlink="http://www.w3.org/1999/xlink">
    <!-- Generator: Sketch 3.7.1 (28215) - http://www.bohemiancoding.com/sketch -->
    <title>delivery-rating-star-half</title>
    <desc>Created with Sketch.</desc>
    <defs></defs>
    <g id="Page-1" stroke="none" stroke-width="1" fill="none" fill-rule="evenodd">
        <g id="1-56" transform="translate(-312.000000, -104.000000)" fill="#000000">
            <g id="delivery-rating-star-half" transform="translate(312.000000, 103.000000)">
                <path d="M16.188,22.938 L16,22.938 C15.875,22.938 15.75,23.001 15.75,23.001 L10.625,27.376 C10.312,27.626 10.125,27.814 9.562,27.876 L9.562,27.876 C9.249,27.876 8.874,27.688 8.687,27.376 C8.499,27.126 8.499,26.876 8.499,26.688 C8.499,26.438 8.499,26.25 8.562,26.063 L10.687,19.375 L10.687,19.25 C10.687,19.062 10.499,18.75 10.437,18.75 L5.187,15.25 C4.999,15.125 4.874,15.062 4.749,14.875 C4.561,14.687 4.374,14.437 4.374,14.062 C4.374,13.812 4.499,13.562 4.624,13.374 C4.812,13.249 4.937,13.124 5.124,13.061 C5.374,12.936 5.624,12.936 5.874,12.936 L12.374,12.936 C12.437,12.936 12.562,12.873 12.749,12.811 C12.874,12.686 12.937,12.561 12.937,12.498 L14.812,5.748 C14.875,5.498 14.937,5.31 15.062,5.123 C15.25,4.873 15.5,4.623 16,4.56 L16.188,4.56 L16.188,0.997 L16.438,0.997 L16,0.997 L15.562,0.997 C14.749,0.997 13.937,1.122 13.187,1.247 C13.437,1.184 13.625,1.184 13.812,1.122 C12.374,1.31 10.999,1.747 9.687,2.31 C9.687,2.247 9.75,2.247 9.75,2.247 C8.812,2.622 7.875,3.122 7.062,3.747 C7.125,3.684 7.125,3.622 7.187,3.622 C7.124,3.685 6.999,3.747 6.937,3.81 C6.937,3.81 7,3.747 7.062,3.747 C6.187,4.31 5.437,4.935 4.687,5.685 C4.75,5.622 4.812,5.56 4.812,5.497 C4.749,5.622 4.624,5.747 4.562,5.81 C4.562,5.747 4.625,5.747 4.687,5.685 C3.937,6.373 3.312,7.185 2.749,8.06 C2.749,7.997 2.812,7.935 2.812,7.872 C2.749,7.997 2.687,8.06 2.624,8.185 C2.687,8.122 2.687,8.06 2.749,8.06 C2.186,8.873 1.686,9.81 1.249,10.748 L1.312,10.685 C0.749,11.935 0.374,13.373 0.187,14.81 C0.187,14.622 0.25,14.372 0.25,14.185 C0.125,14.935 0.062,15.748 1.77635684e-15,16.56 L1.77635684e-15,16.998 L1.77635684e-15,17.436 C0.063,18.249 0.125,19.061 0.25,19.811 C0.25,19.623 0.187,19.373 0.187,19.186 C0.375,20.624 0.75,22.061 1.312,23.311 L1.249,23.248 C1.687,24.186 2.187,25.123 2.749,25.936 C2.686,25.936 2.686,25.873 2.624,25.811 C2.687,25.936 2.749,25.999 2.812,26.124 C2.812,26.061 2.749,25.999 2.749,25.936 C3.312,26.811 3.937,27.624 4.687,28.311 C4.624,28.248 4.562,28.248 4.562,28.186 C4.625,28.249 4.75,28.374 4.812,28.499 C4.812,28.436 4.749,28.374 4.687,28.311 C5.437,29.061 6.187,29.686 7.062,30.249 C6.999,30.249 6.937,30.186 6.937,30.186 C7,30.249 7.125,30.311 7.187,30.374 C7.124,30.374 7.124,30.311 7.062,30.249 C7.875,30.874 8.812,31.374 9.75,31.749 C9.75,31.749 9.687,31.749 9.687,31.686 C11,32.249 12.375,32.686 13.812,32.874 C13.624,32.811 13.437,32.811 13.187,32.749 C14,32.874 14.812,32.999 15.625,32.999 L16,32.999 L16.438,32.999 L16.188,32.999 L16.188,22.936 L16.188,22.938 Z M15.188,1 L15.251,1 L15.188,1 L15.188,1 Z M14.125,1.125 L13.937,1.125 L14.125,1.125 L14.125,1.125 Z M14.438,1.063 L14.375,1.063 L14.438,1.063 L14.438,1.063 Z M7.813,3.25 C7.75,3.313 7.688,3.375 7.563,3.375 C7.688,3.375 7.751,3.312 7.813,3.25 L7.813,3.25 Z M9.188,2.5 C9.125,2.563 9.063,2.563 8.938,2.625 C9.063,2.625 9.126,2.562 9.188,2.5 L9.188,2.5 Z M8.5,2.875 C8.437,2.938 8.312,2.938 8.25,3 C8.313,2.937 8.438,2.875 8.5,2.875 L8.5,2.875 Z M6.313,4.313 C6.376,4.188 6.501,4.125 6.563,4.063 C6.5,4.126 6.375,4.188 6.313,4.313 L6.313,4.313 Z M5.688,4.75 C5.751,4.687 5.876,4.625 5.938,4.562 C5.875,4.625 5.75,4.687 5.688,4.75 L5.688,4.75 Z M5.375,5.063 C5.312,5.126 5.187,5.188 5.125,5.313 C5.188,5.188 5.313,5.125 5.375,5.063 L5.375,5.063 Z M3.313,7.313 C3.188,7.376 3.125,7.501 3.063,7.563 C3.126,7.5 3.188,7.375 3.313,7.313 L3.313,7.313 Z M4.313,6.125 C4.188,6.188 4.125,6.313 4.063,6.375 C4.126,6.312 4.188,6.187 4.313,6.125 L4.313,6.125 Z M3.75,6.688 C3.687,6.751 3.625,6.876 3.562,6.938 C3.625,6.875 3.687,6.75 3.75,6.688 L3.75,6.688 Z M1.625,9.938 C1.625,10.063 1.562,10.126 1.5,10.188 C1.563,10.125 1.625,10.063 1.625,9.938 L1.625,9.938 Z M2.375,8.563 C2.375,8.626 2.312,8.751 2.25,8.813 C2.313,8.75 2.375,8.688 2.375,8.563 L2.375,8.563 Z M2,9.25 C1.937,9.313 1.937,9.438 1.875,9.5 C1.875,9.437 1.938,9.312 2,9.25 L2,9.25 Z M2.22044605e-15,16.188 C2.22044605e-15,16.188 2.22044605e-15,16.188 2.22044605e-15,16.251 L2.22044605e-15,16.188 L2.22044605e-15,16.188 Z M0.125,14.938 L0.125,15.063 L0.125,14.938 L0.125,14.938 Z M0.125,18.938 L0.125,19.063 L0.125,18.938 L0.125,18.938 Z M2.22044605e-15,17.75 L2.22044605e-15,17.813 C2.22044605e-15,17.813 2.22044605e-15,17.813 2.22044605e-15,17.75 L2.22044605e-15,17.75 Z M2.25,25.188 C2.313,25.251 2.375,25.313 2.375,25.438 C2.375,25.313 2.312,25.25 2.25,25.188 L2.25,25.188 Z M1.5,23.813 C1.563,23.876 1.563,23.938 1.625,24.063 C1.625,23.938 1.562,23.875 1.5,23.813 L1.5,23.813 Z M1.875,24.5 C1.938,24.563 1.938,24.688 2,24.75 C1.937,24.687 1.875,24.562 1.875,24.5 L1.875,24.5 Z M4.063,27.625 C4.126,27.688 4.188,27.813 4.313,27.875 C4.188,27.812 4.125,27.687 4.063,27.625 L4.063,27.625 Z M3.063,26.438 C3.126,26.501 3.188,26.626 3.251,26.688 C3.188,26.625 3.126,26.5 3.063,26.438 L3.063,26.438 Z M3.563,27.063 C3.626,27.126 3.688,27.251 3.751,27.313 C3.688,27.25 3.626,27.125 3.563,27.063 L3.563,27.063 Z M8.5,31.125 C8.437,31.062 8.312,31.062 8.25,31 C8.313,31.063 8.438,31.125 8.5,31.125 L8.5,31.125 Z M5.375,28.938 C5.312,28.875 5.187,28.813 5.125,28.688 C5.188,28.813 5.313,28.876 5.375,28.938 L5.375,28.938 Z M6.313,29.688 C6.376,29.813 6.501,29.876 6.563,29.938 C6.5,29.875 6.375,29.813 6.313,29.688 L6.313,29.688 Z M5.688,29.25 C5.751,29.313 5.876,29.375 5.938,29.438 C5.875,29.375 5.75,29.313 5.688,29.25 L5.688,29.25 Z M7.813,30.75 C7.75,30.687 7.688,30.625 7.563,30.625 C7.688,30.625 7.751,30.688 7.813,30.75 L7.813,30.75 Z M8.938,31.375 C9.063,31.375 9.126,31.438 9.188,31.5 C9.125,31.437 9.063,31.375 8.938,31.375 L8.938,31.375 Z M15.188,33 L15.251,33 L15.188,33 L15.188,33 Z M13.938,32.875 L14.063,32.875 L13.938,32.875 L13.938,32.875 Z M1.25,23.25 C1.187,23.125 1.187,23 1.125,22.875 C1.125,23 1.188,23.125 1.25,23.25 L1.25,23.25 Z M0.438,20.625 C0.375,20.562 0.375,20.5 0.375,20.437 C0.375,20.5 0.375,20.562 0.438,20.625 L0.438,20.625 Z M1.125,22.875 C0.812,22.125 0.562,21.375 0.375,20.625 C0.563,21.375 0.813,22.125 1.125,22.875 L1.125,22.875 Z M9.75,2.25 C9.875,2.187 10,2.187 10.125,2.125 C10,2.125 9.875,2.188 9.75,2.25 L9.75,2.25 Z M1.25,10.75 L1.25,10.813 L1.25,10.75 L1.25,10.75 Z M10.125,31.875 C10,31.875 9.875,31.812 9.75,31.75 C9.875,31.813 10,31.875 10.125,31.875 L10.125,31.875 Z M1.125,11.125 C1.125,11.062 1.188,10.937 1.25,10.812 C1.187,10.875 1.125,11 1.125,11.125 L1.125,11.125 Z M0.375,13.563 C0.375,13.5 0.375,13.438 0.438,13.375 C0.375,13.438 0.375,13.5 0.375,13.563 L0.375,13.563 Z M0.438,13.375 C0.563,12.625 0.813,11.875 1.126,11.125 C0.813,11.875 0.563,12.625 0.438,13.375 L0.438,13.375 Z M10.125,2.125 C10.875,1.812 11.625,1.562 12.375,1.375 C11.625,1.563 10.875,1.813 10.125,2.125 L10.125,2.125 Z M29.25,25.938 C28.687,26.813 28.062,27.563 27.312,28.313 C28.062,27.563 28.687,26.813 29.25,25.938 L29.25,25.938 Z M24.938,30.25 C24.125,30.813 23.188,31.313 22.25,31.75 C23.188,31.312 24.125,30.812 24.938,30.25 L24.938,30.25 Z M22.188,31.75 C22.125,31.813 22,31.875 21.875,31.875 C22,31.875 22.125,31.812 22.188,31.75 L22.188,31.75 Z M27.313,28.313 C26.563,29.063 25.813,29.688 24.938,30.251 C25.813,29.688 26.563,29.063 27.313,28.313 L27.313,28.313 Z M12.375,1.438 C12.5,1.375 12.625,1.375 12.75,1.313 C12.625,1.376 12.5,1.376 12.375,1.438 L12.375,1.438 Z M30.875,22.875 C30.875,23 30.812,23.125 30.75,23.25 C30.813,23.125 30.875,23 30.875,22.875 L30.875,22.875 Z M30.75,23.25 C30.312,24.188 29.812,25.063 29.25,25.938 C29.813,25.125 30.313,24.188 30.75,23.25 L30.75,23.25 Z M22.25,31.75 L22.187,31.75 L22.25,31.75 L22.25,31.75 Z M12.563,32.625 L12.375,32.625 L12.563,32.625 L12.563,32.625 Z M12.375,32.563 C11.625,32.438 10.875,32.188 10.125,31.875 C10.875,32.188 11.625,32.438 12.375,32.563 L12.375,32.563 Z M19.625,32.563 C19.562,32.626 19.5,32.626 19.437,32.626 C19.5,32.626 19.562,32.626 19.625,32.563 L19.625,32.563 Z M21.875,31.875 C21.125,32.188 20.375,32.438 19.625,32.625 C20.375,32.437 21.125,32.187 21.875,31.875 L21.875,31.875 Z M18.813,32.75 C18.063,32.875 17.188,33 16.438,33 C17.251,32.937 18.063,32.875 18.813,32.75 L18.813,32.75 Z M32,17.438 C32,18.188 31.875,19.001 31.75,19.813 C31.875,19 31.938,18.188 32,17.438 L32,17.438 Z M31.75,14.188 C31.875,15.001 32,15.813 32,16.563 C31.937,15.813 31.875,15 31.75,14.188 L31.75,14.188 Z M31.688,13.75 C31.688,13.875 31.751,14 31.751,14.188 C31.751,14.063 31.688,13.938 31.688,13.75 L31.688,13.75 Z M31.563,13.375 C31.626,13.5 31.626,13.625 31.688,13.75 C31.625,13.625 31.625,13.5 31.563,13.375 L31.563,13.375 Z M31.563,20.625 C31.438,21.375 31.188,22.125 30.875,22.875 C31.188,22.125 31.438,21.375 31.563,20.625 L31.563,20.625 Z M18.813,32.75 C19.001,32.687 19.251,32.687 19.438,32.625 C19.375,32.625 19.313,32.688 19.25,32.688 C19.062,32.688 18.937,32.751 18.812,32.751 L18.813,32.75 Z M31.75,19.813 C31.75,19.938 31.687,20.126 31.687,20.251 C31.687,20.063 31.75,19.938 31.75,19.813 L31.75,19.813 Z M0.25,19.813 C0.313,20.063 0.313,20.251 0.375,20.438 C0.375,20.375 0.375,20.313 0.312,20.25 C0.312,20.062 0.249,19.937 0.249,19.812 L0.25,19.813 Z M12.75,1.313 C12.875,1.313 13,1.25 13.188,1.25 C13.063,1.25 12.938,1.313 12.75,1.313 L12.75,1.313 Z M31.688,20.25 C31.625,20.375 31.625,20.5 31.625,20.625 C31.625,20.5 31.625,20.375 31.688,20.25 L31.688,20.25 Z M0.375,13.563 C0.312,13.751 0.312,14.001 0.25,14.188 C0.25,14.063 0.313,13.875 0.313,13.75 C0.313,13.687 0.376,13.625 0.376,13.562 L0.375,13.563 Z M30.875,11.125 C31.188,11.875 31.438,12.625 31.625,13.375 C31.437,12.625 31.187,11.875 30.875,11.125 L30.875,11.125 Z M12.563,32.625 C12.751,32.688 13.001,32.688 13.188,32.75 C13.063,32.75 12.938,32.687 12.813,32.687 C12.688,32.687 12.625,32.624 12.563,32.624 L12.563,32.625 Z M18.813,1.25 C18.938,1.25 19.126,1.313 19.251,1.313 C19.063,1.313 18.938,1.25 18.813,1.25 L18.813,1.25 Z M19.25,1.313 C19.375,1.376 19.5,1.376 19.625,1.376 C19.5,1.376 19.375,1.376 19.25,1.313 L19.25,1.313 Z M19.625,1.438 C20.375,1.563 21.125,1.813 21.875,2.126 C21.125,1.813 20.375,1.563 19.625,1.438 L19.625,1.438 Z M16.438,1 C17.188,1 18.001,1.125 18.813,1.25 C18,1.125 17.188,1.062 16.438,1 L16.438,1 Z M21.875,2.125 C21.938,2.125 22.063,2.188 22.188,2.25 C22.125,2.187 22,2.125 21.875,2.125 L21.875,2.125 Z M30.75,10.75 L30.75,10.813 L30.75,10.75 L30.75,10.75 Z M30.75,10.813 C30.813,10.876 30.875,11.001 30.875,11.126 C30.875,11.001 30.812,10.876 30.75,10.813 L30.75,10.813 Z M27.313,5.688 C28.063,6.438 28.688,7.188 29.251,8.063 C28.688,7.188 28.063,6.438 27.313,5.688 L27.313,5.688 Z M29.25,8.063 C29.813,8.876 30.313,9.813 30.75,10.751 C30.312,9.813 29.812,8.876 29.25,8.063 L29.25,8.063 Z M22.25,2.25 L22.187,2.25 L22.25,2.25 L22.25,2.25 Z M24.938,3.75 C25.813,4.313 26.563,4.938 27.313,5.688 C26.563,4.938 25.813,4.313 24.938,3.75 L24.938,3.75 Z M22.25,2.25 C23.188,2.688 24.063,3.188 24.938,3.75 C24.125,3.187 23.188,2.687 22.25,2.25 L22.25,2.25 Z" id="Shape"></path>
            </g>
        </g>
    </g>
</svg>