<?xml version="1.0" encoding="UTF-8" standalone="no"?>
<svg width="32px" height="32px" viewBox="0 0 32 32" version="1.1" xmlns="http://www.w3.org/2000/svg" xmlns:xlink="http://www.w3.org/1999/xlink">
    <!-- Generator: Sketch 3.7.1 (28215) - http://www.bohemiancoding.com/sketch -->
    <title>delivery-rating-star</title>
    <desc>Created with Sketch.</desc>
    <defs></defs>
    <g id="Page-1" stroke="none" stroke-width="1" fill="none" fill-rule="evenodd">
        <g id="1-56" transform="translate(-364.000000, -104.000000)" fill="#000000">
            <g id="delivery-rating-star" transform="translate(364.000000, 104.000000)">
                <path d="M16,0 C7.187,0 0,7.188 0,16 C0,24.812 7.188,32 16,32 C24.813,32 32,24.812 32,16 C32,7.188 24.812,0 16,0 L16,0 Z M27.25,13.875 C27.125,14 27,14.125 26.812,14.25 L21.562,17.688 C21.499,17.751 21.374,18.063 21.374,18.188 L21.374,18.313 L23.687,25.063 C23.75,25.251 23.812,25.438 23.812,25.688 C23.749,25.876 23.749,26.126 23.562,26.438 C23.374,26.688 22.999,26.876 22.749,26.876 L22.686,26.876 C22.186,26.813 21.936,26.626 21.686,26.438 L16.248,22 C16.248,21.937 16.123,21.937 15.998,21.937 C15.873,21.937 15.748,22 15.748,22 L10.623,26.375 C10.31,26.625 10.123,26.813 9.56,26.875 L9.56,26.875 C9.247,26.875 8.872,26.687 8.685,26.375 C8.497,26.125 8.497,25.875 8.497,25.687 C8.497,25.437 8.497,25.249 8.56,25.062 L10.685,18.374 L10.685,18.249 C10.685,18.061 10.497,17.749 10.435,17.749 L5.185,14.249 C4.997,14.124 4.872,14.061 4.747,13.874 C4.559,13.686 4.372,13.436 4.372,13.061 C4.372,12.811 4.497,12.561 4.622,12.373 C4.81,12.248 4.935,12.123 5.122,12.06 C5.372,11.935 5.622,11.935 5.872,11.935 L12.372,11.935 C12.435,11.935 12.56,11.872 12.747,11.81 C12.872,11.685 12.935,11.56 12.935,11.497 L14.81,4.747 C14.873,4.497 14.935,4.309 15.06,4.122 C15.248,3.872 15.498,3.622 15.998,3.559 C16.561,3.559 16.811,3.872 16.936,4.122 C17.061,4.31 17.124,4.497 17.186,4.747 L19.124,11.497 C19.124,11.56 19.187,11.685 19.312,11.81 C19.437,11.873 19.562,11.935 19.625,11.935 L26.125,11.935 C26.313,11.935 26.5,11.935 26.688,11.998 C26.876,12.061 27.126,12.123 27.376,12.373 C27.501,12.561 27.626,12.811 27.626,13.061 C27.563,13.499 27.438,13.749 27.251,13.874 L27.25,13.875 Z" id="Shape"></path>
            </g>
        </g>
    </g>
</svg>