<?xml version="1.0" encoding="UTF-8" standalone="no"?>
<svg width="32px" height="24px" viewBox="0 0 32 24" version="1.1" xmlns="http://www.w3.org/2000/svg" xmlns:xlink="http://www.w3.org/1999/xlink">
    <!-- Generator: Sketch 3.7.1 (28215) - http://www.bohemiancoding.com/sketch -->
    <title>delivery-truck</title>
    <desc>Created with Sketch.</desc>
    <defs></defs>
    <g id="Page-1" stroke="none" stroke-width="1" fill="none" fill-rule="evenodd">
        <g id="1-56" transform="translate(-416.000000, -112.000000)" fill="#000000">
            <g id="delivery-truck" transform="translate(416.000000, 112.000000)">
                <path d="M26.875,20 C26.375,22.313 24.375,24 22,24 C19.625,24 17.625,22.312 17.125,20 L14,20 L14,0 L24.688,0 L27.813,8.313 L32.001,10.376 L32.001,20.001 L26.875,20 Z M22,22 C23.688,22 25,20.687 25,19 C25,17.25 23.687,16 22,16 C20.313,16 19,17.25 19,19 C19,20.688 20.313,22 22,22 L22,22 Z M30,11.625 L26.187,9.687 L23.312,1.999 L15.999,1.999 L15.999,17.999 L17.124,17.999 C17.624,15.686 19.624,13.999 21.999,13.999 C24.374,13.999 26.374,15.687 26.874,17.999 L29.999,17.999 L30,11.625 Z M18,4 L20,4 L20,8 L24,8 L24,10 L18,10 L18,4 Z M6,10 L12,10 L12,12 L6,12 L6,10 Z M3,5 L12,5 L12,7 L3,7 L3,5 Z M0,0 L12,0 L12,2 L0,2 L0,0 Z" id="Shape"></path>
            </g>
        </g>
    </g>
</svg>