<?xml version="1.0" encoding="UTF-8" standalone="no"?>
<svg width="29px" height="32px" viewBox="0 0 29 32" version="1.1" xmlns="http://www.w3.org/2000/svg" xmlns:xlink="http://www.w3.org/1999/xlink">
    <!-- Generator: Sketch 3.7.1 (28215) - http://www.bohemiancoding.com/sketch -->
    <title>dish</title>
    <desc>Created with Sketch.</desc>
    <defs></defs>
    <g id="Page-1" stroke="none" stroke-width="1" fill="none" fill-rule="evenodd">
        <g id="1-56" transform="translate(-468.000000, -104.000000)" fill="#000000">
            <g id="dish" transform="translate(468.000000, 104.000000)">
                <path d="M17.4279936,32 L10.8453554,32 C10.2184852,32 9.52842652,31.4985039 9.52842652,30.1193895 C9.52842652,29.9940155 9.52842652,29.8054529 9.59161503,29.6800789 C4.13734309,27.6109058 0.313936579,22.1576369 -1.77635684e-15,15.7003727 C-1.77635684e-15,14.6973804 0.752244199,13.8819477 1.69305094,13.8819477 L26.5171095,13.8819477 C27.5201018,13.8819477 28.272346,14.6341919 28.272346,15.6371842 C27.8962239,22.0944484 24.1350029,27.6109058 18.7439194,29.6790759 L18.7439194,30.180572 C18.7439194,30.3681316 18.7439194,30.7452567 18.6185454,31.1213788 C18.3046088,31.9368115 17.6155531,31.998997 17.4269906,31.998997 L17.4279936,32 Z M11.4722255,30.1193895 L16.8011234,30.1193895 L16.8011234,29.930827 C16.6757494,29.8054529 16.5503754,29.6800789 16.4871869,29.4915163 C16.4239983,29.2407683 16.4871869,28.9268317 16.5503754,28.6760836 C16.6757494,28.4875211 16.8643119,28.236773 17.3026196,28.111399 C22.3175809,26.5437221 25.9534278,21.5919493 26.3295499,15.7615552 L1.88161349,15.7615552 C2.19555007,21.5919493 5.83139703,26.6069106 10.9085439,28.111399 C11.4732285,28.2999615 11.7239766,28.6760836 11.7861621,28.9890172 C11.8483476,29.3019508 11.7861621,29.5537019 11.5975996,29.8044499 C11.534411,29.8676384 11.534411,29.8676384 11.4722255,29.929824 L11.4722255,30.1183865 L11.4722255,30.1193895 Z M18.932482,10.4356663 L18.6817339,10.4356663 C17.8663012,10.1849182 17.1772455,9.62023359 16.8633089,8.80580387 C16.5493724,8.05355968 16.4871869,7.23812696 16.6747464,6.42369725 C16.9254945,5.54607901 17.4901791,4.91920885 17.9916752,4.54308675 L18.2424233,4.29233868 C18.4931714,4.10377614 18.6185454,3.85302807 18.6817339,3.54009448 C18.807108,3.16397238 18.807108,2.78785029 18.6185454,2.47391371 C18.5553569,2.28535116 18.3677973,1.97241757 18.0538608,1.90922906 C17.5523646,1.72066652 17.2384281,1.21917038 17.3638021,0.71767425 C17.4891761,0.216178118 18.0538608,-0.0977584609 18.5553569,0.0276155722 C19.3707896,0.278363638 20.0598453,0.843048284 20.3737819,1.72066652 C20.6877185,2.41072519 20.749904,3.22515491 20.5623444,4.04058762 C20.3115964,4.85602034 19.8722857,5.54507602 19.1832301,6.04657215 C18.807108,6.36050873 18.6185454,6.67344232 18.5563599,6.92419039 C18.4309859,7.30031248 18.4309859,7.67643458 18.6195484,8.05255668 C18.6827369,8.17793072 18.8702965,8.4918673 19.1842331,8.55405282 C19.6857292,8.74261536 19.9996658,9.24411149 19.8742917,9.74560763 C19.7489177,10.1849182 19.3727956,10.4356663 18.933485,10.4356663 L18.932482,10.4356663 Z M13.7289581,10.4356663 L13.4782101,10.4356663 C12.6627773,10.1849182 11.9737217,9.62023359 11.5975996,8.80580387 C11.283663,8.05355968 11.283663,7.23812696 11.4722255,6.42369725 C11.7229736,5.54607901 12.2876582,4.91920885 12.7891544,4.54308675 L13.0399024,4.29233868 C13.228465,4.10377614 13.4160245,3.85302807 13.479213,3.54009448 C13.6045871,3.16397238 13.5424016,2.78785029 13.4160245,2.47391371 C13.352836,2.28535116 13.1652765,1.97241757 12.8513399,1.90922906 C12.2866552,1.72066652 12.0359072,1.21917038 12.1612812,0.71767425 C12.2866552,0.216178118 12.8513399,-0.0977584609 13.2896475,0.0276155722 C14.1672657,0.278363638 14.7941359,0.843048284 15.170258,1.72066652 C15.4841946,2.41072519 15.5463801,3.22515491 15.3588206,4.04058762 C15.1080725,4.85602034 14.6065764,5.54507602 13.9797062,6.04657215 C13.6035841,6.36050873 13.4150215,6.67344232 13.2896475,6.92419039 C13.226459,7.30031248 13.226459,7.67643458 13.4150215,8.05255668 C13.4782101,8.17793072 13.6657696,8.4918673 13.9797062,8.55405282 C14.4812023,8.74261536 14.7951389,9.24411149 14.6697649,9.74560763 C14.5443908,10.1849182 14.1682687,10.4356663 13.7289581,10.4356663 L13.7289581,10.4356663 Z M8.52643724,10.4356663 L8.27568918,10.4356663 C7.46025647,10.1849182 6.77120078,9.62023359 6.39507868,8.80580387 C6.0811421,8.05355968 6.01895658,7.23812696 6.26970465,6.42369725 C6.45826719,5.54607901 7.08513736,4.91920885 7.52344498,4.47989824 L7.83738156,4.29133569 C8.0259441,4.10277314 8.15131814,3.78983956 8.27669217,3.53909149 C8.33988068,3.16296939 8.33988068,2.78684729 8.21350366,2.41072519 C8.08812962,2.28535116 7.96275559,1.97141458 7.58663349,1.84604055 C7.08513736,1.72066652 6.83438929,1.21917038 6.95976333,0.71767425 C7.08513736,0.216178118 7.58663349,-0.0977584609 8.08812962,0.0276155722 C8.90356234,0.278363638 9.59261802,0.843048284 9.96874012,1.657478 C10.2826767,2.4097222 10.3448622,3.22515491 10.0941142,4.03958463 C9.90555161,4.85501734 9.40405548,5.54407303 8.71499979,5.98338364 C8.40106321,6.35950574 8.15031514,6.61025381 8.08812962,6.92419039 C7.96275559,7.30031248 8.02494111,7.67643458 8.15131814,7.99037116 C8.21450665,8.17893371 8.4020662,8.4918673 8.71600278,8.55505581 C9.28068743,8.74361835 9.53143549,9.24511449 9.40606146,9.74661062 C9.34287295,10.1859212 8.96675085,10.4366693 8.52844323,10.4366693 L8.52643724,10.4356663 Z" id="Shape"></path>
            </g>
        </g>
    </g>
</svg>