<?xml version="1.0" encoding="UTF-8" standalone="no"?>
<svg width="32px" height="18px" viewBox="0 0 32 18" version="1.1" xmlns="http://www.w3.org/2000/svg" xmlns:xlink="http://www.w3.org/1999/xlink">
    <!-- Generator: Sketch 3.7.1 (28215) - http://www.bohemiancoding.com/sketch -->
    <title>down-arrow-thick</title>
    <desc>Created with Sketch.</desc>
    <defs></defs>
    <g id="Page-1" stroke="none" stroke-width="1" fill="none" fill-rule="evenodd">
        <g id="1-56" transform="translate(-520.000000, -118.000000)" fill="#000000">
            <g id="down-arrow-thick" transform="translate(520.000000, 118.000000)">
                <path d="M28.563,0.813 L16,13.001 L3.437,0.813 C2.687,2.66453526e-15 1.374,0.063 0.624,0.813 C0.249,1.188 0.061,1.688 0.061,2.188 C0.061,2.751 0.249,3.251 0.624,3.626 L14.624,17.251 C15.374,18.001 16.624,18.001 17.374,17.251 L31.312,3.626 C31.687,3.251 31.937,2.751 31.937,2.188 C31.937,1.688 31.749,1.188 31.374,0.813 C30.999,0.438 30.499,0.25 29.999,0.188 C29.436,0.188 28.936,0.438 28.561,0.813 L28.563,0.813 Z" id="Shape"></path>
            </g>
        </g>
    </g>
</svg>