<?xml version="1.0" encoding="UTF-8" standalone="no"?>
<svg width="32px" height="32px" viewBox="0 0 32 32" version="1.1" xmlns="http://www.w3.org/2000/svg" xmlns:xlink="http://www.w3.org/1999/xlink">
    <!-- Generator: Sketch 3.7.1 (28215) - http://www.bohemiancoding.com/sketch -->
    <title>empty-radio-button</title>
    <desc>Created with Sketch.</desc>
    <defs></defs>
    <g id="Page-1" stroke="none" stroke-width="1" fill="none" fill-rule="evenodd">
        <g id="1-56" transform="translate(-156.000000, -260.000000)" fill="#000000">
            <g id="empty-radio-button" transform="translate(156.000000, 260.000000)">
                <path d="M16,32 C7.187,32 0,24.812 0,16 C0,7.188 7.188,0 16,0 C24.813,0 32,7.188 32,16 C32,24.812 24.812,32 16,32 L16,32 Z M16,1.938 C8.25,1.938 1.937,8.251 1.937,16.001 C1.937,23.751 8.25,30.064 16,30.064 C23.75,30.064 30.063,23.751 30.063,16.001 C30.063,8.251 23.75,1.938 16,1.938 L16,1.938 Z" id="Shape"></path>
            </g>
        </g>
    </g>
</svg>