<?xml version="1.0" encoding="UTF-8" standalone="no"?>
<svg width="32px" height="32px" viewBox="0 0 32 32" version="1.1" xmlns="http://www.w3.org/2000/svg" xmlns:xlink="http://www.w3.org/1999/xlink">
    <!-- Generator: Sketch 3.7 (28169) - http://www.bohemiancoding.com/sketch -->
    <title>empty-coookie-jar</title>
    <desc>Created with Sketch.</desc>
    <defs></defs>
    <g id="Page-1" stroke="none" stroke-width="1" fill="none" fill-rule="evenodd">
        <g id="1-10" transform="translate(-209.000000, -52.000000)" fill="#000000">
            <g id="empty-coookie-jar" transform="translate(208.000000, 52.000000)">
                <path d="M31.25,13.938 C30.187,12.188 28.687,10.688 26.875,9.438 L26.875,9.188 C27.375,9.125 27.688,8.563 27.688,8 L27.688,6.875 C27.688,6.687 27.688,6.562 27.625,6.437 C27.688,6.249 27.562,5.999 27.375,5.874 C27.25,5.811 23.625,3.499 19.25,2.874 C19.313,2.749 19.313,2.561 19.313,2.374 C19.313,1.061 18.25,0.061 17,0.061 C15.75,0.061 14.687,1.061 14.687,2.311 C14.687,2.499 14.687,2.686 14.75,2.874 C12.375,3.187 9.375,4.187 6.812,5.624 C6.624,5.749 6.499,5.937 6.499,6.124 C6.374,6.312 6.311,6.562 6.311,6.874 L6.311,7.999 C6.311,8.562 6.624,9.124 7.124,9.187 L7.124,9.437 C5.311,10.687 3.811,12.187 2.749,13.937 C1.561,15.875 0.999,17.937 0.999,20.125 C0.999,22.5 1.562,24.875 2.562,26.75 C3.625,28.813 5.25,30.313 7.125,31 L7.188,31.063 L7.251,31 C7.376,31.063 7.501,31.125 7.626,31.125 C9.626,31.75 15.501,31.938 16.126,32 L16.189,32 L16.252,32 C18.252,32 23.94,31.875 26.377,31.125 C28.502,30.562 30.252,29.062 31.44,26.812 C32.44,24.874 33.003,22.499 33.003,20.124 C33.003,17.936 32.44,15.874 31.253,13.936 L31.25,13.938 Z M25.188,9.625 L26.001,10.125 L26.064,10.188 C27.877,11.376 29.314,12.813 30.377,14.501 C31.377,16.251 31.94,18.189 31.94,20.126 C31.94,22.314 31.44,24.501 30.502,26.251 C29.439,28.251 27.939,29.564 26.064,30.064 C26.064,30.127 26.001,30.127 25.939,30.127 C23.751,28.877 21.376,28.127 18.939,27.877 C17.126,27.627 15.251,27.689 13.376,28.002 C13.439,27.939 13.501,27.814 13.501,27.689 C13.501,27.314 13.188,27.189 12.813,27.189 C12.438,27.189 12.063,27.314 12.063,27.689 C12.063,27.877 12.188,28.064 12.376,28.189 C11.376,28.439 10.563,28.689 9.813,28.939 C9.876,28.814 9.938,28.689 9.938,28.564 C9.938,28.126 9.625,27.814 9.25,27.814 C8.812,27.814 8.75,28.127 8.75,28.564 C8.75,28.877 8.813,29.127 9.063,29.189 C8.375,29.502 7.813,29.752 7.438,29.939 C5.813,29.314 4.438,28.064 3.5,26.251 C2.562,24.501 2.062,22.313 2.062,20.126 C2.062,18.126 2.625,16.251 3.625,14.501 C4.688,12.813 6.125,11.313 7.938,10.188 L8.813,9.688 L25.188,9.625 Z M12.125,29.125 L12.125,29.125 L11.75,29.438 C11.625,29.563 11.687,29.813 11.875,29.938 C12,30.126 12.25,30.126 12.375,30.063 L12.688,29.688 C12.813,29.563 12.751,29.375 12.625,29.188 C12.562,29.125 12.437,29.063 12.375,29.063 C12.563,29 12.813,28.938 13.063,28.875 C15.001,28.5 16.938,28.437 18.813,28.687 C20.813,28.875 22.751,29.5 24.626,30.375 C22.188,30.75 18.438,30.875 16.251,30.875 C16.188,30.875 11.188,30.687 8.688,30.25 C9.501,29.937 10.688,29.437 12.126,29.125 L12.125,29.125 Z M15.625,3.938 C15.813,3.875 16,3.75 16.125,3.563 C16.188,3.375 16.188,3.188 16.062,3 C15.936,2.812 15.812,2.562 15.812,2.375 C15.812,1.687 16.375,1.187 17,1.187 C17.625,1.187 18.188,1.687 18.188,2.375 C18.188,2.625 18.063,2.813 17.938,3.063 C17.813,3.188 17.813,3.438 17.875,3.626 C17.937,3.814 18.125,3.939 18.375,3.939 C22.25,4.252 25.813,6.252 26.625,6.752 L26.625,6.877 L26.625,8.002 C26.625,8.252 26.312,8.44 26.125,8.565 L7.875,8.565 C7.687,8.502 7.375,8.315 7.375,8.002 L7.375,6.877 L7.375,6.627 C10.063,5.127 13.313,4.064 15.625,3.939 L15.625,3.938 Z M14.5,16.063 C14.5,16.688 14,17.188 13.375,17.188 C12.75,17.188 12.25,16.688 12.25,16.063 C12.25,15.438 12.75,14.875 13.375,14.875 C14,14.875 14.5,15.438 14.5,16.063 L14.5,16.063 Z M21.75,16.063 C21.75,16.688 21.25,17.188 20.625,17.188 C20,17.188 19.5,16.688 19.5,16.063 C19.5,15.438 20,14.875 20.625,14.875 C21.25,14.875 21.75,15.438 21.75,16.063 L21.75,16.063 Z M14.25,22.625 C14.313,22.688 14.438,22.75 14.5,22.75 C14.562,22.75 14.688,22.687 14.75,22.625 C15.375,22.062 16.25,21.75 17.188,21.75 C18.063,21.75 18.938,22.063 19.626,22.625 C19.751,22.75 19.939,22.75 20.064,22.625 C20.189,22.5 20.189,22.25 20.064,22.187 C19.251,21.437 18.189,21.124 17.189,21.124 C16.126,21.124 15.064,21.499 14.314,22.187 C14.126,22.25 14.126,22.5 14.251,22.625 L14.25,22.625 Z M17,29.438 L17.313,29.438 C17.563,29.438 17.751,29.25 17.751,29 C17.751,28.812 17.563,28.625 17.313,28.625 L17,28.625 C16.812,28.625 16.625,28.813 16.625,29 C16.625,29.25 16.813,29.438 17,29.438 L17,29.438 Z M15.75,29.938 C15.75,30.251 15.5,30.563 15.187,30.563 C14.874,30.563 14.624,30.25 14.624,29.938 C14.624,29.625 14.874,29.375 15.187,29.375 C15.5,29.375 15.75,29.625 15.75,29.938 L15.75,29.938 Z" id="Shape"></path>
            </g>
        </g>
    </g>
</svg>