<?xml version="1.0" encoding="UTF-8" standalone="no"?>
<svg width="32px" height="32px" viewBox="0 0 32 32" version="1.1" xmlns="http://www.w3.org/2000/svg" xmlns:xlink="http://www.w3.org/1999/xlink">
    <!-- Generator: Sketch 3.7.1 (28215) - http://www.bohemiancoding.com/sketch -->
    <title>error</title>
    <desc>Created with Sketch.</desc>
    <defs></defs>
    <g id="Page-1" stroke="none" stroke-width="1" fill="none" fill-rule="evenodd">
        <g id="1-56" transform="translate(-52.000000, -156.000000)" fill="#000000">
            <g id="error" transform="translate(52.000000, 156.000000)">
                <path d="M15.016,11.34375 L15.016,21.84375 C15.016,22.34375 15.454,22.78175 16.016,22.78175 C16.516,22.78175 16.954,22.34375 16.954,21.84375 L16.954,11.34375 C16.954,10.84375 16.516,10.40575 16.016,10.40575 C15.453,10.40575 15.016,10.84375 15.016,11.34375 L15.016,11.34375 Z M16.016,25.09375 C15.266,25.09375 14.703,25.65675 14.703,26.40675 C14.703,27.09475 15.266,27.71975 16.016,27.71975 C16.704,27.71975 17.329,27.09475 17.329,26.40675 C17.329,25.65675 16.704,25.09375 16.016,25.09375 L16.016,25.09375 Z M31.829,30.40675 L16.829,0.46875 C16.516,-0.15625 15.454,-0.15625 15.141,0.46875 L0.141,30.53175 C-0.047,30.84475 -0.047,31.21975 0.141,31.46975 C0.329,31.78275 0.641,31.90775 0.954,31.90775 L31.017,31.90775 L31.08,31.90775 C31.58,31.90775 32.018,31.46975 32.018,30.96975 C32.018,30.78175 31.955,30.53175 31.83,30.40675 L31.829,30.40675 Z M2.516,30.03175 L16.016,3.03175 L29.516,30.03175 L2.516,30.03175 Z" id="Shape"></path>
            </g>
        </g>
    </g>
</svg>