<?xml version="1.0" encoding="UTF-8" standalone="no"?>
<svg width="32px" height="32px" viewBox="0 0 32 32" version="1.1" xmlns="http://www.w3.org/2000/svg" xmlns:xlink="http://www.w3.org/1999/xlink">
    <!-- Generator: Sketch 3.7.1 (28215) - http://www.bohemiancoding.com/sketch -->
    <title>filters-icon</title>
    <desc>Created with Sketch.</desc>
    <defs></defs>
    <g id="Page-1" stroke="none" stroke-width="1" fill="none" fill-rule="evenodd">
        <g id="1-56" transform="translate(-208.000000, -156.000000)" fill="#000000">
            <g id="filters-icon" transform="translate(208.000000, 156.000000)">
                <path d="M0.61075,6 L12.61075,6 L12.61075,7.5 C12.61075,8.313 13.29875,9 14.11075,9 C14.92275,9 15.61075,8.312 15.61075,7.5 L15.61075,6 L30.61075,6 C31.42375,6 31.42375,3 30.61075,3 L15.61075,3 L15.61075,1.5 C15.61075,0.687 14.92275,0 14.11075,0 C13.29875,0 12.61075,0.688 12.61075,1.5 L12.61075,3 L0.61075,3 C-0.20225,3 -0.20225,6 0.61075,6 L0.61075,6 Z M30.61075,14 L21.67275,14 L21.67275,13.5 C21.67275,12.687 20.98475,12 20.17275,12 C19.36075,12 18.67275,12.688 18.67275,13.5 L18.67275,14 L0.60975,14 C-0.20325,14 -0.20325,17 0.60975,17 L18.67275,17 L18.67275,17.5 C18.67275,18.313 19.42275,19 20.17275,19 C20.98575,19 21.73575,18.312 21.73575,17.5 L21.73575,17 L30.61075,17 C31.42375,17 31.42375,14 30.61075,14 L30.61075,14 Z M30.61075,26 L18.61075,26 L18.61075,24.5 C18.61075,23.687 17.92275,23 17.11075,23 C16.29875,23 15.61075,23.688 15.61075,24.5 L15.61075,26 L0.61075,26 C-0.20225,26 -0.20225,29 0.61075,29 L15.61075,29 L15.61075,30.5 C15.61075,31.313 16.29875,32 17.11075,32 C17.92275,32 18.61075,31.312 18.61075,30.5 L18.61075,29 L30.61075,29 C31.42375,29 31.42375,26 30.61075,26 L30.61075,26 Z" id="Shape"></path>
            </g>
        </g>
    </g>
</svg>