<?xml version="1.0" encoding="UTF-8" standalone="no"?>
<svg width="31px" height="32px" viewBox="0 0 31 32" version="1.1" xmlns="http://www.w3.org/2000/svg" xmlns:xlink="http://www.w3.org/1999/xlink">
    <!-- Generator: Sketch 3.7.1 (28215) - http://www.bohemiancoding.com/sketch -->
    <title>filter</title>
    <desc>Created with Sketch.</desc>
    <defs></defs>
    <g id="Page-1" stroke="none" stroke-width="1" fill="none" fill-rule="evenodd">
        <g id="1-56" transform="translate(-104.000000, -156.000000)" fill="#000000">
            <g id="filter" transform="translate(104.000000, 156.000000)">
                <path d="M30.867683,3.8275927 C30.867683,0.188719493 18.0056465,0 15.4338415,0 C12.8620365,0 -1.77635684e-15,0.188719493 -1.77635684e-15,3.8275927 L-1.77635684e-15,4.01631219 C-1.77635684e-15,4.26726896 0.0632411067,4.58146684 0.250956773,4.76918251 L12.360123,18.0076542 L12.360123,30.9951691 C12.360123,31.4348453 12.6110797,31.7480394 12.9875149,31.9367589 C13.1129933,32 13.2384717,32 13.3639501,32 C13.6149068,32 13.8658636,31.9367589 14.0545831,31.7490432 L18.1331326,27.8592133 C18.3218521,27.6704938 18.5095677,27.419537 18.5095677,27.1685802 L18.5095677,18.008658 L30.5554928,4.77018634 C30.8064496,4.58146684 30.8696907,4.26827279 30.8064496,4.01731602 C30.8696907,3.95407491 30.8696907,3.89183763 30.8696907,3.82859652 L30.867683,3.8275927 Z M15.4338415,1.9454169 C23.2135015,1.9454169 27.7307234,3.13796349 28.7345505,3.8275927 C27.7307234,4.58046302 23.2135015,5.7730096 15.4338415,5.7730096 C7.65418157,5.7730096 3.13695966,4.58046302 2.13313257,3.8275927 C3.13695966,3.13695966 7.65418157,1.9454169 15.4338415,1.9454169 L15.4338415,1.9454169 Z M16.7518665,17.0028233 C16.6263881,17.1915428 16.5009097,17.3792584 16.5009097,17.6934563 L16.5009097,26.7279001 L14.3677772,28.7355543 L14.3677772,17.6302152 C14.3677772,17.3792584 14.304536,17.1905389 14.1168204,17.0028233 L4.83141979,6.83907397 C8.72124976,7.65518539 13.8658636,7.71742267 15.4348453,7.71742267 C16.940586,7.71742267 22.1484409,7.65418157 26.0382709,6.83907397 L16.7518665,17.0028233 Z" id="Shape"></path>
            </g>
        </g>
    </g>
</svg>