<?xml version="1.0" encoding="UTF-8" standalone="no"?>
<svg width="31px" height="32px" viewBox="0 0 31 32" version="1.1" xmlns="http://www.w3.org/2000/svg" xmlns:xlink="http://www.w3.org/1999/xlink">
    <!-- Generator: Sketch 3.7.1 (28215) - http://www.bohemiancoding.com/sketch -->
    <title>filters-icon-applied</title>
    <desc>Created with Sketch.</desc>
    <defs></defs>
    <g id="Page-1" stroke="none" stroke-width="1" fill="none" fill-rule="evenodd">
        <g id="1-56" transform="translate(-156.000000, -156.000000)" fill="#000000">
            <g id="filters-icon-applied" transform="translate(156.000000, 156.000000)">
                <path d="M29.8428976,2.96113386 L15.2287244,2.96113386 L15.2287244,1.44932283 C15.2287244,0.693417323 14.5353071,0 13.7169134,0 C12.8985197,0 12.2051024,0.693417323 12.2051024,1.44932283 L12.2051024,2.96113386 L0.614551181,2.96113386 C-0.204850394,2.96113386 -0.204850394,5.98475591 0.614551181,5.98475591 L12.2051024,5.98475591 L12.2051024,7.49656693 C12.2051024,8.3159685 12.8985197,9.00837795 13.7169134,9.00837795 C14.5353071,9.00837795 15.2287244,8.31496063 15.2287244,7.49656693 L15.2287244,5.98475591 L29.8428976,5.98475591 C30.6622992,5.98475591 30.6622992,2.96113386 29.8428976,2.96113386 L29.8428976,2.96113386 Z M20.2056063,13.480315 C20.2056063,12.7244094 19.512189,11.9685039 18.7562835,11.9685039 C17.9368819,11.9685039 17.2444724,12.7244094 17.2444724,13.480315 L17.2444724,13.984252 L0.614551181,13.984252 C-0.204850394,13.984252 -0.204850394,17.007874 0.614551181,17.007874 L17.2444724,17.007874 L17.2444724,17.511811 C17.2444724,18.3312126 17.9378898,19.023622 18.7562835,19.023622 C19.512189,19.023622 20.2056063,18.3302047 20.2056063,17.511811 L20.2056063,17.007874 L24.2371024,17.007874 L27.2607244,13.984252 L20.2056063,13.984252 L20.2056063,13.480315 Z M0.614551181,25.008378 C-0.204850394,25.008378 -0.204850394,28.032 0.614551181,28.032 L9.24497638,28.032 L6.22135433,25.008378 L0.614551181,25.008378 Z M14.9142677,32 C14.536315,32 14.1583622,31.8105197 13.8428976,31.6220472 L7.10223622,24.8188976 C6.53480315,24.1889764 6.53480315,23.3070866 7.10223622,22.7396535 C7.73215748,22.1097323 8.61404724,22.1097323 9.2439685,22.7396535 L14.9132598,28.4089449 L28.2675906,14.9911181 C28.8350236,14.423685 29.7794016,14.423685 30.3468346,14.9911181 C30.9767559,15.6210394 30.9767559,16.5029291 30.3468346,17.0703622 L16.0471181,31.496063 C15.7316535,31.8115276 15.3537008,32 14.9132598,32 L14.9142677,32 Z" id="Shape"></path>
            </g>
        </g>
    </g>
</svg>