<?xml version="1.0" encoding="UTF-8" standalone="no"?>
<svg width="32px" height="27px" viewBox="0 0 32 27" version="1.1" xmlns="http://www.w3.org/2000/svg" xmlns:xlink="http://www.w3.org/1999/xlink">
    <!-- Generator: Sketch 3.7.1 (28215) - http://www.bohemiancoding.com/sketch -->
    <title>follow</title>
    <desc>Created with Sketch.</desc>
    <defs></defs>
    <g id="Page-1" stroke="none" stroke-width="1" fill="none" fill-rule="evenodd">
        <g id="1-56" transform="translate(-260.000000, -161.000000)" fill="#000000">
            <g id="follow" transform="translate(259.000000, 161.000000)">
                <path d="M25.813,12.438 C21.813,12.438 18.625,15.626 18.625,19.563 C18.625,23.563 21.813,26.751 25.813,26.751 C29.751,26.751 33.001,23.563 33.001,19.563 C32.938,15.625 29.751,12.438 25.813,12.438 L25.813,12.438 Z M25.813,24.875 C22.938,24.875 20.563,22.5 20.563,19.562 C20.563,16.687 22.938,14.312 25.813,14.312 C28.688,14.312 31.063,16.687 31.063,19.562 C31.063,22.5 28.688,24.875 25.813,24.875 L25.813,24.875 Z M29.063,18.625 L26.75,18.625 L26.75,16.312 C26.75,15.812 26.312,15.374 25.812,15.374 C25.249,15.374 24.812,15.812 24.812,16.312 L24.812,18.625 L22.562,18.625 C21.999,18.625 21.562,19.063 21.562,19.625 C21.562,20.125 22,20.563 22.562,20.563 L24.812,20.563 L24.812,22.876 C24.812,23.376 25.25,23.814 25.812,23.814 C26.312,23.814 26.75,23.376 26.75,22.876 L26.75,20.563 L29.063,20.563 C29.563,20.563 30.063,20.125 30.063,19.563 C30.063,19.063 29.625,18.625 29.063,18.625 L29.063,18.625 Z M17.438,15.813 L17.438,13.875 C18.063,13.375 19.063,12.187 19.251,10 C19.439,9.812 19.564,9.625 19.751,9.375 C19.939,8.937 20.001,8.5 20.001,8 C20.001,7.25 19.813,6.625 19.438,6.25 C19.751,5.437 20.188,4 19.876,2.625 C19.376,0.687 16.813,0 14.688,0 C12.938,0 10.813,0.5 9.875,1.813 C9.062,1.813 8.562,2.126 8.25,2.438 C7.312,3.438 7.75,5.188 8,6.251 C7.937,6.376 7.812,6.501 7.687,6.689 C7.499,7.064 7.437,7.564 7.437,8.064 C7.437,8.877 7.687,9.627 8.187,10.002 C8.375,12.315 9.625,13.752 10.312,14.377 L10.312,15.815 C9.562,16.065 8.749,16.378 7.999,16.628 C4.811,17.691 2.249,18.503 1.686,20.128 C1.061,22.128 0.998,25.628 0.998,25.816 C0.998,26.066 1.123,26.316 1.311,26.504 C1.436,26.629 1.686,26.754 1.999,26.754 L19.499,26.754 L19.499,24.879 L2.936,24.816 C2.999,23.628 3.186,21.816 3.561,20.753 C3.749,20.003 6.686,19.065 8.624,18.378 C9.624,18.065 10.624,17.753 11.624,17.378 C11.999,17.19 12.249,16.878 12.249,16.44 L12.249,13.877 C12.249,13.564 12.124,13.252 11.874,13.064 C11.811,13.064 10.124,11.876 10.124,9.314 C10.124,8.876 9.811,8.501 9.436,8.439 C9.373,8.251 9.373,7.876 9.436,7.689 C9.561,7.626 9.749,7.501 9.811,7.376 C9.999,7.251 10.124,7.001 10.124,6.751 C10.124,6.501 10.061,6.313 9.999,6.001 C9.499,4.251 9.624,3.813 9.686,3.751 C9.749,3.751 9.936,3.688 10.311,3.751 C10.811,3.876 11.311,3.563 11.436,3.063 C11.561,2.5 12.874,1.938 14.749,1.938 C16.624,1.938 17.874,2.501 18.062,3.063 C18.312,4.063 17.812,5.188 17.624,5.813 C17.436,6.188 17.374,6.376 17.374,6.626 C17.374,7.126 17.687,7.439 18.062,7.564 C18.125,7.814 18.125,8.252 18.062,8.439 C17.624,8.502 17.374,8.877 17.374,9.377 C17.374,11.752 16.124,12.502 16.061,12.502 C15.748,12.69 15.561,13.002 15.561,13.377 L15.561,16.44 C15.561,16.878 15.749,17.19 16.186,17.378 C16.249,17.378 16.374,17.441 16.561,17.503 C16.936,17.628 17.436,17.378 17.436,16.94 L17.438,15.813 Z" id="Shape"></path>
            </g>
        </g>
    </g>
</svg>