<?xml version="1.0" encoding="UTF-8" standalone="no"?>
<svg width="32px" height="23px" viewBox="0 0 32 23" version="1.1" xmlns="http://www.w3.org/2000/svg" xmlns:xlink="http://www.w3.org/1999/xlink">
    <!-- Generator: Sketch 3.7.1 (28215) - http://www.bohemiancoding.com/sketch -->
    <title>forward-arrow</title>
    <desc>Created with Sketch.</desc>
    <defs></defs>
    <g id="Page-1" stroke="none" stroke-width="1" fill="none" fill-rule="evenodd">
        <g id="1-56" transform="translate(-312.000000, -162.000000)" fill="#000000">
            <g id="forward-arrow" transform="translate(312.000000, 162.000000)">
                <path d="M31.688,10.40625 L21.563,0.28125 C21.188,-0.09375 20.563,-0.09375 20.188,0.28125 C19.813,0.65625 19.813,1.28125 20.188,1.65625 L28.751,10.15625 L0.938,10.15625 C0.438,10.15625 0,10.59425 0,11.09425 C0,11.65725 0.438,12.09425 0.938,12.09425 L28.751,12.09425 L20.188,20.59425 C19.813,20.96925 19.813,21.53225 20.188,21.96925 C20.376,22.15725 20.626,22.21925 20.876,22.21925 C21.126,22.21925 21.376,22.15625 21.564,21.96925 L31.689,11.78125 C31.877,11.59325 32.002,11.40625 32.002,11.15625 C32.002,10.84325 31.877,10.59325 31.689,10.40625 L31.688,10.40625 Z" id="Shape"></path>
            </g>
        </g>
    </g>
</svg>