<?xml version="1.0" encoding="UTF-8" standalone="no"?>
<svg width="24px" height="32px" viewBox="0 0 24 32" version="1.1" xmlns="http://www.w3.org/2000/svg" xmlns:xlink="http://www.w3.org/1999/xlink">
    <!-- Generator: Sketch 3.7.1 (28215) - http://www.bohemiancoding.com/sketch -->
    <title>free-delivery</title>
    <desc>Created with Sketch.</desc>
    <defs></defs>
    <g id="Page-1" stroke="none" stroke-width="1" fill="none" fill-rule="evenodd">
        <g id="1-10" transform="translate(-211.000000, -101.000000)" fill="#000000">
            <g id="free-delivery" transform="translate(211.000000, 101.000000)">
                <path d="M22,32 L2,32 C0.875,32 0,31.125 0,30 L0,8 C0,6.875 0.875,6 2,6 L6,6 L6,5 C6,2.25 8.25,0 11,0 L13,0 C15.75,0 18,2.25 18,5 L18,6 L22,6 C23.0625,6 24,6.875 24,8 L24,30 C24,31.125 23.125,32 22,32 L22,32 Z M16,5 C16,3.375 14.625,2 13,2 L11,2 C9.375,2 8,3.375 8,5 L8,6 L16,6 L16,5 Z M22,9 C22,8.4375 21.5625,8 21,8 L18,8 L18,12 L16,12 L16,8 L8,8 L8,12 L6,12 L6,8 L3,8 C2.4375,8 2,8.4375 2,9 L2,24 L22,24 L22,9 L22,9 Z M22,26 L2,26 L2,29 C2,29.5625 2.4375,30 3,30 L21,30 C21.5625,30 22,29.5625 22,29 L22,26 L22,26 Z" id="Shape"></path>
            </g>
        </g>
    </g>
</svg>