<?xml version="1.0" encoding="UTF-8" standalone="no"?>
<svg width="32px" height="32px" viewBox="0 0 32 32" version="1.1" xmlns="http://www.w3.org/2000/svg" xmlns:xlink="http://www.w3.org/1999/xlink">
    <!-- Generator: Sketch 3.7.1 (28215) - http://www.bohemiancoding.com/sketch -->
    <title>globe</title>
    <desc>Created with Sketch.</desc>
    <defs></defs>
    <g id="Page-1" stroke="none" stroke-width="1" fill="none" fill-rule="evenodd">
        <g id="1-56" transform="translate(-416.000000, -156.000000)" fill="#000000">
            <g id="globe" transform="translate(415.000000, 155.000000)">
                <path d="M28.938,6.375 C28.875,6.25 28.813,6.187 28.688,6.125 C26.813,4.062 24.375,2.5 21.625,1.687 L21.562,1.687 C20.124,1.249 18.562,0.999 16.999,0.999 C8.186,0.999 0.999,8.187 0.999,16.999 C0.999,25.811 8.187,32.999 16.999,32.999 C25.812,32.999 32.999,25.811 32.999,16.999 C32.999,12.936 31.436,9.186 28.936,6.374 L28.938,6.375 Z M27.063,7.188 C26.813,8.001 26.125,9.876 24.688,10.751 C22.438,10.376 20.125,11.501 19.5,12.251 C19.062,12.814 19.25,13.314 19.312,13.439 C19.437,13.689 19.687,13.877 19.937,14.002 C20.125,14.315 20.437,15.19 20.687,15.94 C20.687,16.128 20.812,16.253 20.937,16.378 C21.5,16.941 22.25,17.003 22.875,16.878 C22.625,17.566 21.625,18.628 21.187,19.128 C20.437,19.941 19.999,20.378 19.999,20.941 C19.999,21.629 20.437,22.066 20.749,22.316 L20.812,22.316 C20.062,23.066 19.312,23.316 19.312,23.316 C18.937,23.441 18.687,23.816 18.687,24.191 C18.687,24.754 18.687,26.441 15.937,26.504 C15.499,26.066 14.749,24.629 14.687,24.191 C14.687,24.128 14.875,23.816 14.937,23.628 C15.125,23.253 15.375,22.815 15.375,22.253 C15.375,21.44 14.625,20.503 14.062,19.878 C13.999,19.065 13.749,18.44 13.249,17.94 C12.436,17.19 11.249,17.252 10.124,17.315 L9.186,17.315 C8.186,17.315 8.186,15.752 8.186,15.69 C8.186,15.628 8.186,11.877 10.686,11.377 C12.124,11.127 12.686,11.252 12.811,11.314 C12.874,11.502 12.936,11.627 13.061,11.814 C14.374,13.064 16.311,12.627 17.749,12.314 C18.187,12.189 18.687,12.064 18.999,12.064 C19.499,12.064 19.874,11.751 19.937,11.251 C20.312,8.626 20.125,7.001 19.312,6.438 C18.937,6.125 18.437,6.125 17.937,6.375 C17.499,6.563 17.187,6.563 16.999,6.438 C16.749,6.313 16.686,6 16.686,5.813 C16.623,5.313 18.811,4.188 21.374,3.625 C23.499,4.313 25.499,5.563 27.062,7.188 L27.063,7.188 Z M17,31.063 C9.25,31.063 2.937,24.75 2.937,17 C2.937,9.25 9.25,2.937 17,2.937 L17.313,2.937 C15.813,3.625 14.625,4.625 14.75,6 C14.813,6.938 15.25,7.75 16,8.125 C16.625,8.5 17.375,8.5 18.125,8.313 C18.188,8.751 18.188,9.501 18.062,10.251 C17.812,10.314 17.562,10.376 17.249,10.439 C16.311,10.689 15.186,10.939 14.561,10.564 C14.436,10.376 14.311,10.126 14.061,9.876 C13.311,9.313 12.061,9.188 10.248,9.501 C6.248,10.314 6.248,15.439 6.248,15.689 C6.248,16.939 6.811,19.252 9.123,19.252 L10.186,19.252 C10.874,19.189 11.686,19.127 11.936,19.377 C12.061,19.502 12.124,19.815 12.124,20.252 C12.124,20.502 12.187,20.752 12.437,20.94 C12.875,21.44 13.375,22.065 13.437,22.19 C13.437,22.315 13.312,22.565 13.187,22.753 C12.999,23.128 12.749,23.628 12.749,24.191 C12.749,24.941 14.124,28.379 15.687,28.379 C18.5,28.379 20.25,27.066 20.562,24.816 C21,24.566 21.625,24.191 22.25,23.566 C22.688,23.128 22.875,22.691 22.875,22.253 C22.812,21.565 22.437,21.19 22.062,20.878 C22.25,20.753 22.375,20.565 22.5,20.44 C23.75,19.19 26,16.815 24.188,15.002 C23.938,14.689 23.5,14.627 23.125,14.814 C22.875,14.939 22.562,15.002 22.375,15.002 C22.125,14.127 21.875,13.502 21.625,13.064 C22.375,12.751 23.5,12.376 24.625,12.689 C24.813,12.752 25.063,12.689 25.25,12.626 C26.938,11.751 27.938,10.126 28.5,8.876 C30.125,11.189 31.063,14.001 31.063,17.001 C31.063,24.751 24.75,31.064 17,31.064 L17,31.063 Z" id="Shape"></path>
            </g>
        </g>
    </g>
</svg>