<?xml version="1.0" encoding="UTF-8" standalone="no"?>
<svg width="25px" height="32px" viewBox="0 0 25 32" version="1.1" xmlns="http://www.w3.org/2000/svg" xmlns:xlink="http://www.w3.org/1999/xlink">
    <!-- Generator: Sketch 3.7 (28169) - http://www.bohemiancoding.com/sketch -->
    <title>icerror</title>
    <desc>Created with Sketch.</desc>
    <defs></defs>
    <g id="Page-1" stroke="none" stroke-width="1" fill="none" fill-rule="evenodd">
        <g id="1-10" transform="translate(-260.000000, -52.000000)" fill="#000000">
            <g id="icerror" transform="translate(260.000000, 52.000000)">
                <path d="M22.1769412,27.824 L22.1176471,27.824 C21.7054118,27.2357647 21.0588235,26.9411765 20.176,26.9411765 C19.9407059,25.2348235 19.1755294,23.6470588 18.0583529,22.3529412 C18.0583529,22.176 18.1176471,22 18.1176471,21.8823529 C18.1176471,21.2348235 17.7647059,20.7058824 17.2941176,20.4112941 L17.2941176,20.4112941 C17.2941176,20.2343529 17.2941176,20.0583529 17.1764706,19.9407059 L3.52941176,1.70541176 C3.17647059,1.23482353 2.58823529,0.940235294 2,0.940235294 C1.52941176,0.940235294 0.999529412,1.17552941 0.646588235,1.52847059 C0.293647059,1.88141176 0.116705882,2.352 0.116705882,2.88188235 C0.116705882,2.88188235 0.116705882,2.88188235 0.116705882,2.94117647 L1.88141176,25.7063529 C1.88141176,25.8832941 1.99905882,26.0592941 2.11670588,26.1769412 C2.23435294,26.2362353 2.352,26.2945882 2.46964706,26.2945882 C2.52894118,26.2945882 2.58729412,26.2945882 2.58729412,26.2352941 C2.64658824,26.2352941 2.82258824,26.176 3.11717647,26.1176471 C3.05788235,26.2945882 3.05788235,26.4122353 2.99952941,26.5298824 L2.88188235,26.5298824 C1.41082353,26.5298824 0.176,27.7063529 0.176,29.1774118 C0.176,29.4127059 0.293647059,29.5896471 0.470588235,29.7072941 C0.647529412,29.7665882 3.11811765,31.0607059 11.4710588,31.0607059 C14.5891765,31.0607059 18.6475294,30.8837647 23.648,30.3548235 C24.0602353,30.2955294 24.3538824,30.0018824 24.3538824,29.5896471 C24.2945882,28.8837647 22.9421176,27.8249412 22.1769412,27.8249412 L22.1769412,27.824 Z M15.7063529,20.1769412 C15.3534118,20.2362353 15.0588235,20.4122353 14.8235294,20.6475294 C12.9995294,21.5303529 10.7642353,22.4122353 8.76423529,23.1181176 L12.8235294,16.1176471 L15.824,20.1176471 C15.824,20.1176471 15.7647059,20.1769412 15.7063529,20.1769412 L15.7063529,20.1769412 Z M2.05929412,12.8235294 L5.53035294,6.29364706 L8.53082353,10.2936471 L2.64847059,20 L2.05929412,12.8235294 Z M1.47105882,2.35294118 C1.648,2.23529412 1.824,2.11764706 2.00094118,2.11764706 C2.17788235,2.11764706 2.41317647,2.17694118 2.58917647,2.41223529 L4.76611765,5.23576471 L1.88329412,10.6475294 L1.29505882,2.82352941 C1.29505882,2.64658824 1.35435294,2.47058824 1.472,2.35294118 L1.47105882,2.35294118 Z M2.76517647,22 L9.29505882,11.2941176 L12.1185882,15.1181176 L7.05976471,23.7063529 C5.29505882,24.2362353 3.824,24.7068235 3.00047059,24.9421176 L2.76517647,22 Z M5.58870588,29.5887059 C3.23576471,29.3534118 1.94164706,29.0004706 1.41176471,28.8235294 C1.58870588,28.176 2.17694118,27.7054118 2.88282353,27.7054118 C3.05976471,27.7054118 3.17741176,27.7054118 3.35341176,27.7647059 C3.52941176,27.824 3.70635294,27.7647059 3.88329412,27.7054118 C4.00094118,27.5877647 4.11858824,27.4701176 4.11858824,27.2931765 C4.17788235,26.6456471 4.29552941,26.1167059 4.41317647,25.7044706 C7.11905882,24.9392941 12.4724706,23.2338824 16.0602353,21.2922353 L16.1195294,21.2922353 C16.4141176,21.2922353 16.9430588,21.3515294 16.9430588,21.8804706 C16.9430588,21.9981176 16.9430588,22.1157647 16.8837647,22.2334118 C16.7661176,22.4687059 16.7661176,22.704 16.9430588,22.8809412 C18.2371765,24.1750588 18.9430588,25.8814118 19.0607059,27.6461176 C19.0607059,27.8230588 19.1783529,27.9990588 19.296,28.0583529 C19.4729412,28.176 19.6489412,28.2352941 19.8258824,28.176 C19.9435294,28.176 20.0611765,28.1167059 20.1788235,28.1167059 C20.8847059,28.1167059 21.12,28.352 21.3552941,28.7642353 C21.4729412,28.9995294 21.7675294,29.1171765 22.0028235,29.0588235 C22.0621176,28.9995294 22.1204706,28.9995294 22.1797647,28.9995294 C22.2974118,28.9995294 22.5327059,29.1764706 22.7096471,29.2941176 C13.9444706,30.1176471 8.592,29.9416471 5.59152941,29.5887059 L5.58870588,29.5887059 Z M12.1176471,27.2357647 C11.5294118,27.2357647 10.9411765,27.5303529 10.5289412,28.0592941 C10.4696471,28.1185882 10.4696471,28.2945882 10.5289412,28.3538824 C10.5289412,28.4131765 10.5882353,28.4131765 10.6465882,28.4131765 C10.7049412,28.4131765 10.7642353,28.4131765 10.7642353,28.3538824 C11.1764706,27.9416471 11.6470588,27.8832941 12.1176471,27.8832941 C12.6475294,27.8832941 13.1181176,27.9425882 13.4710588,28.3538824 C13.5887059,28.4715294 13.648,28.4715294 13.7656471,28.3538824 C13.8249412,28.2362353 13.8249412,28.1185882 13.7063529,28.0592941 C13.2357647,27.5294118 12.7058824,27.2357647 12.1176471,27.2357647 L12.1176471,27.2357647 Z M10.5298824,26.3529412 C10.6475294,26.3529412 10.7068235,26.3529412 10.7651765,26.2352941 C10.9421176,26.1176471 10.9421176,25.8823529 10.8244706,25.7647059 L10.4122353,25.3524706 L10.8244706,24.9402353 C10.9421176,24.8225882 10.9421176,24.5872941 10.8244706,24.4696471 C10.7068235,24.352 10.4715294,24.352 10.3538824,24.4696471 L9.94164706,24.8225882 L9.52941176,24.4103529 C9.41176471,24.2927059 9.17647059,24.2927059 9.05882353,24.4103529 C8.88188235,24.528 8.88188235,24.7632941 8.99952941,24.9402353 L9.41176471,25.2931765 L8.99952941,25.7054118 C8.88188235,25.8230588 8.88188235,26.0583529 8.99952941,26.2352941 C9.05882353,26.2945882 9.17647059,26.2945882 9.23482353,26.2945882 C9.35247059,26.2945882 9.41176471,26.2945882 9.47011765,26.2352941 L9.88235294,25.8230588 L10.2945882,26.2352941 C10.3538824,26.3529412 10.4715294,26.3529412 10.5298824,26.3529412 L10.5298824,26.3529412 Z M14.8235294,24.4705882 C14.6465882,24.3529412 14.4705882,24.3529412 14.2936471,24.4705882 L13.8814118,24.8235294 L13.5284706,24.4112941 C13.3515294,24.2936471 13.1755294,24.2936471 12.9985882,24.4112941 C12.8809412,24.5289412 12.8809412,24.7642353 12.9985882,24.9411765 L13.4108235,25.2941176 L12.9985882,25.7063529 C12.8216471,25.824 12.8216471,26.0592941 12.9985882,26.2362353 C13.0578824,26.2955294 13.1162353,26.2955294 13.2338824,26.2955294 C13.2931765,26.2955294 13.4108235,26.2955294 13.4691765,26.2362353 L13.8814118,25.824 L14.2936471,26.2362353 C14.3529412,26.2955294 14.4112941,26.3538824 14.5289412,26.3538824 C14.5882353,26.3538824 14.7058824,26.2945882 14.7642353,26.2362353 C14.8818824,26.1185882 14.8818824,25.8832941 14.7642353,25.7063529 L14.4112941,25.2941176 L14.8235294,24.9411765 C14.9411765,24.8235294 14.9411765,24.5882353 14.8235294,24.4705882 L14.8235294,24.4705882 Z" id="Shape"></path>
            </g>
        </g>
    </g>
</svg>