<?xml version="1.0" encoding="UTF-8" standalone="no"?>
<svg width="27px" height="28px" viewBox="0 0 27 28" version="1.1" xmlns="http://www.w3.org/2000/svg" xmlns:xlink="http://www.w3.org/1999/xlink">
    <!-- Generator: Sketch 3.7.1 (28215) - http://www.bohemiancoding.com/sketch -->
    <title>level-fill</title>
    <desc>Created with Sketch.</desc>
    <defs></defs>
    <g id="Page-1" stroke="none" stroke-width="1" fill="none" fill-rule="evenodd">
        <g id="1-10" transform="translate(-308.000000, -105.000000)" fill="#000000">
            <g id="level-fill" transform="translate(308.000000, 105.000000)">
                <path d="M27,1.58823529 L27,25.5176471 C27,26.3647059 26.2588235,27.1058824 25.3588235,27.1058824 L1.64117647,27.1058824 C0.741176471,27.1058824 0,26.3647059 0,25.5176471 L0,19.6941176 C0,18.7941176 0.741176471,18.0529412 1.64117647,18.0529412 L8.1,18.0529412 L8.1,10.6411765 C8.1,9.74117647 8.84117647,9 9.68823529,9 L16.1470588,9.05294118 L16.1470588,1.58823529 C16.1470588,0.741176471 16.8882353,0 17.7882353,0 L25.3588235,0 C26.2588235,0 27,0.741176471 27,1.58823529 Z" id="Shape"></path>
            </g>
        </g>
    </g>
</svg>