<?xml version="1.0" encoding="UTF-8" standalone="no"?>
<svg width="32px" height="32px" viewBox="0 0 32 32" version="1.1" xmlns="http://www.w3.org/2000/svg" xmlns:xlink="http://www.w3.org/1999/xlink">
    <!-- Generator: Sketch 3.7.1 (28215) - http://www.bohemiancoding.com/sketch -->
    <title>like-restaurant</title>
    <desc>Created with Sketch.</desc>
    <defs></defs>
    <g id="Page-1" stroke="none" stroke-width="1" fill="none" fill-rule="evenodd">
        <g id="1-56" transform="translate(-520.000000, -156.000000)" fill="#000000">
            <g id="like-restaurant" transform="translate(520.000000, 156.000000)">
                <path d="M31.501,15.375 C31.501,13.562 29.938,12 28.126,12 L17.251,12 C17.564,10.187 18.189,6.75 18.189,4.5 C18.189,1.437 16.439,0 14.814,0 C13.251,0 12.064,1.125 12.064,2.688 C12.064,9.188 6.001,14.376 1.001,14.376 C0.688,14.376 0.501,14.501 0.313,14.689 C0.125,14.877 0,15.127 0,15.377 L0,28.752 C0,29.252 0.438,29.69 0.938,29.69 C4.876,29.94 6.688,30.565 8.376,31.065 C9.876,31.565 11.314,32.003 14.001,32.003 L23.876,32.003 C25.064,32.003 26.626,30.94 26.626,29.253 C26.626,28.628 26.563,28.065 26.313,27.628 C27.688,27.19 28.438,26.065 28.438,24.44 C28.438,24.002 28.375,23.627 28.188,23.252 C29.376,22.752 30.251,21.564 30.251,20.189 C30.251,19.564 30.001,18.939 29.563,18.376 C30.688,17.813 31.501,16.626 31.501,15.376 L31.501,15.375 Z M28.126,16.813 L26.313,16.813 C25.75,16.813 25.313,17.251 25.313,17.751 C25.313,18.314 25.751,18.751 26.313,18.751 C27.126,18.751 28.376,19.564 28.376,20.189 C28.376,20.939 27.626,21.627 26.938,21.627 L25.125,21.627 C24.562,21.627 24.125,22.065 24.125,22.627 C24.125,23.127 24.563,23.565 25.125,23.565 C25.188,23.565 26.563,23.565 26.563,24.44 C26.563,25.69 25.813,25.878 25.125,25.878 L23.312,25.878 C22.749,25.878 22.312,26.316 22.312,26.816 C22.312,27.379 22.75,27.816 23.312,27.816 C24.562,27.816 24.75,28.504 24.75,29.254 C24.75,29.879 24,30.129 23.875,30.129 L14,30.129 C11.625,30.129 10.437,29.691 8.937,29.254 C7.374,28.754 5.562,28.191 1.937,27.879 L1.937,16.316 C7.687,15.691 14,9.941 14,2.691 C14,2.128 14.5,1.941 14.813,1.941 C15.563,1.941 16.313,2.754 16.313,4.504 C16.313,7.442 15.125,12.692 15.125,12.754 C15.062,13.067 15.125,13.317 15.313,13.567 C15.501,13.817 15.751,13.942 16.063,13.942 L28.126,13.942 C28.876,13.942 29.564,14.63 29.564,15.38 C29.564,16.13 28.876,16.818 28.126,16.818 L28.126,16.813 Z" id="Shape"></path>
            </g>
        </g>
    </g>
</svg>