<?xml version="1.0" encoding="UTF-8" standalone="no"?>
<svg width="32px" height="28px" viewBox="0 0 32 28" version="1.1" xmlns="http://www.w3.org/2000/svg" xmlns:xlink="http://www.w3.org/1999/xlink">
    <!-- Generator: Sketch 3.7.1 (28215) - http://www.bohemiancoding.com/sketch -->
    <title>liked-heart-fill-new</title>
    <desc>Created with Sketch.</desc>
    <defs></defs>
    <g id="Page-1" stroke="none" stroke-width="1" fill="none" fill-rule="evenodd">
        <g id="1-56" transform="translate(-572.000000, -158.000000)" fill="#000000">
            <g id="liked-heart-fill-new" transform="translate(571.000000, 158.000000)">
                <path d="M30.4307563,2.81230791 C28.7431716,0.999753967 26.4317405,1.77635684e-15 23.9323555,1.77635684e-15 C21.5579399,1.77635684e-15 19.3084934,0.937769221 17.6209087,2.56236942 L16.9960625,3.18721565 L16.3712163,2.56236942 C14.6836316,0.937769221 12.4341852,1.77635684e-15 10.0597695,1.77635684e-15 C7.56038458,1.77635684e-15 5.24795365,0.999753967 3.56136871,2.81230791 C1.87378401,4.56187735 0.937014542,6.81132378 0.998999288,9.24872395 C1.06098403,11.6861241 1.99875326,13.9355706 3.7483227,15.6221555 L16.120278,27.5572184 C16.3082318,27.7451721 16.5581703,27.8701413 16.8081088,27.8701413 C16.8710933,27.8701413 16.933078,27.8701413 16.9960625,27.8071568 C17.059047,27.8701413 17.1210318,27.8701413 17.1840163,27.8701413 C17.4339548,27.8701413 17.6219085,27.7451721 17.871847,27.5572184 L30.2438023,15.6221555 C31.9933718,13.9345708 32.931141,11.6851244 32.9931257,9.24872395 C33.0561102,6.87430828 32.118341,4.56187735 30.4307563,2.81230791 L30.4307563,2.81230791 Z" id="Shape"></path>
            </g>
        </g>
    </g>
</svg>