<?xml version="1.0" encoding="UTF-8" standalone="no"?>
<svg width="32px" height="33px" viewBox="0 0 32 33" version="1.1" xmlns="http://www.w3.org/2000/svg" xmlns:xlink="http://www.w3.org/1999/xlink">
    <!-- Generator: Sketch 3.7.1 (28215) - http://www.bohemiancoding.com/sketch -->
    <title>my-stored-addresses</title>
    <desc>Created with Sketch.</desc>
    <defs></defs>
    <g id="Page-1" stroke="none" stroke-width="1" fill="none" fill-rule="evenodd">
        <g id="1-56" transform="translate(-624.000000, -156.000000)" fill="#000000">
            <g id="my-stored-addresses" transform="translate(623.000000, 156.000000)">
                <path d="M32.063,0 L5.063,0 C4.563,0 4.125,0.438 4.125,0.938 L4.125,7.126 L1.937,7.126 C1.437,7.126 0.999,7.564 0.999,8.064 C0.999,8.627 1.437,9.064 1.937,9.064 L4.125,9.064 L4.125,15.439 L1.937,15.439 C1.437,15.439 0.999,15.877 0.999,16.377 C0.999,16.94 1.437,17.377 1.937,17.377 L4.125,17.377 L4.125,23.752 L1.937,23.752 C1.437,23.752 0.999,24.19 0.999,24.69 C0.999,25.19 1.437,25.628 1.937,25.628 L4.125,25.628 L4.125,31.066 C4.125,31.566 4.563,32.004 5.063,32.004 L32.063,32.004 C32.563,32.004 33.001,31.566 33.001,31.066 L33.001,0.941 C33.001,0.441 32.563,0.003 32.063,0.003 L32.063,0 Z M31.063,30.063 L6,30.063 L6,25.625 L8.188,25.625 C8.688,25.625 9.126,25.187 9.126,24.687 C9.126,24.124 8.688,23.687 8.188,23.687 L6,23.687 L6,17.312 L8.188,17.312 C8.688,17.312 9.126,16.874 9.126,16.374 C9.126,15.811 8.688,15.436 8.188,15.436 L6,15.436 L6,8.998 L8.188,8.998 C8.688,8.998 9.126,8.56 9.126,8.06 C9.126,7.56 8.688,7.122 8.188,7.122 L6,7.122 L6,1.934 L31.063,1.934 L31.063,30.063 Z M24.438,15.938 C23.875,15.938 23.438,16.376 23.438,16.938 L23.438,22.001 L22.125,22.001 L22.125,18.313 C22.125,17.813 21.75,17.375 21.187,17.375 L17.999,17.375 C17.436,17.375 16.999,17.813 16.999,18.313 L16.999,22.001 L15.749,22.001 L15.749,16.938 C15.749,16.375 15.311,15.938 14.749,15.938 C14.249,15.938 13.811,16.376 13.811,16.938 L13.811,23.001 C13.811,23.501 14.249,23.939 14.749,23.939 L17.999,23.939 C18.499,23.939 18.937,23.501 18.937,23.001 L18.937,19.251 L20.25,19.251 L20.25,23.001 C20.25,23.501 20.688,23.939 21.188,23.939 L24.438,23.939 C24.938,23.939 25.376,23.501 25.376,23.001 L25.376,16.938 C25.376,16.375 24.938,15.938 24.438,15.938 L24.438,15.938 Z M12.813,17.125 L19.563,10.375 L26.376,17.125 C26.564,17.313 26.814,17.438 27.064,17.438 C27.252,17.438 27.502,17.313 27.689,17.125 C28.064,16.75 28.064,16.187 27.689,15.75 L20.251,8.312 C19.938,7.999 19.251,7.999 18.876,8.312 L15.876,11.375 L15.876,10.875 C15.876,10.375 15.438,9.937 14.938,9.937 C14.438,9.937 14,10.375 14,10.875 L14,13.188 L14,13.251 L11.5,15.814 C11.125,16.189 11.125,16.752 11.5,17.127 C11.875,17.502 12.438,17.502 12.813,17.127 L12.813,17.125 Z" id="Shape"></path>
            </g>
        </g>
    </g>
</svg>