<?xml version="1.0" encoding="UTF-8" standalone="no"?>
<svg width="32px" height="32px" viewBox="0 0 32 32" version="1.1" xmlns="http://www.w3.org/2000/svg" xmlns:xlink="http://www.w3.org/1999/xlink">
    <!-- Generator: Sketch 3.7.1 (28215) - http://www.bohemiancoding.com/sketch -->
    <title>new-search</title>
    <desc>Created with Sketch.</desc>
    <defs></defs>
    <g id="Page-1" stroke="none" stroke-width="1" fill="none" fill-rule="evenodd">
        <g id="1-10" transform="translate(-312.000000, -52.000000)" fill="#000000">
            <g id="new-search" transform="translate(312.000000, 52.000000)">
                <path d="M31.688,30.25 L26.063,24.625 C28.313,22 29.688,18.625 29.688,14.937 C29.688,6.749 23,0.062 14.813,0.062 C6.626,0.062 0,6.75 0,14.937 C0,23.125 6.625,29.75 14.813,29.75 C18.626,29.75 22.063,28.312 24.688,26 L30.376,31.625 C30.564,31.813 30.751,31.938 31.001,31.938 C31.251,31.938 31.501,31.813 31.689,31.625 C32.064,31.25 32.064,30.687 31.689,30.25 L31.688,30.25 Z M1.938,14.938 C1.938,7.813 7.688,2 14.876,2 C21.939,2 27.751,7.813 27.751,14.938 C27.751,22.063 22.001,27.813 14.876,27.813 C7.688,27.813 1.938,22.063 1.938,14.938 L1.938,14.938 Z" id="Shape"></path>
            </g>
        </g>
    </g>
</svg>