<?xml version="1.0" encoding="UTF-8" standalone="no"?>
<svg width="28px" height="19px" viewBox="0 0 28 19" version="1.1" xmlns="http://www.w3.org/2000/svg" xmlns:xlink="http://www.w3.org/1999/xlink">
    <!-- Generator: Sketch 3.7.1 (28215) - http://www.bohemiancoding.com/sketch -->
    <title>offer</title>
    <desc>Created with Sketch.</desc>
    <defs></defs>
    <g id="Page-1" stroke="none" stroke-width="1" fill="none" fill-rule="evenodd">
        <g id="1-10" transform="translate(-418.000000, -110.000000)" fill="#000000">
            <g id="offer" transform="translate(418.000000, 110.000000)">
                <path d="M27.6725146,8.2962963 L19.8128655,0.436647173 C19.5945419,0.272904483 19.3762183,0.16374269 19.1033138,0.16374269 L0.98245614,0 C0.65497076,0 0.49122807,0.109161793 0.272904483,0.32748538 C0.109161793,0.49122807 0,0.764132554 0,0.98245614 L0,17.0292398 C0,17.2475634 0.109161793,17.5204678 0.272904483,17.6842105 C0.49122807,17.9025341 0.709551657,18.0116959 0.98245614,18.0116959 L19.1033138,17.8479532 C19.3762183,17.8479532 19.5945419,17.7387914 19.8128655,17.5750487 L27.6725146,9.71539961 C28.0545809,9.33333333 28.0545809,8.67836257 27.6725146,8.2962963 L27.6725146,8.2962963 Z M18.7212476,15.8830409 L1.96491228,16.0467836 L1.96491228,1.96491228 L18.7212476,2.12865497 L25.5984405,9.00584795 L18.7212476,15.8830409 Z M14.9551657,6.44054581 C14.245614,7.09551657 13.8635478,8.02339181 13.8635478,9.00584795 C13.8635478,9.98830409 14.245614,10.9161793 14.9551657,11.5711501 C15.6647173,12.2807018 16.5380117,12.662768 17.5204678,12.662768 C18.502924,12.662768 19.4307992,12.2807018 20.08577,11.5711501 C21.5048733,10.1520468 21.5048733,7.85964912 20.08577,6.44054581 C18.7212476,5.07602339 16.3196881,5.07602339 14.9551657,6.44054581 L14.9551657,6.44054581 Z M18.7212476,7.80506823 C19.3762183,8.46003899 19.3762183,9.55165692 18.7212476,10.2066277 C18.0662768,10.8615984 16.9746589,10.8615984 16.3196881,10.2066277 C15.9922027,9.8791423 15.82846,9.44249513 15.82846,9.00584795 C15.82846,8.56920078 16.0467836,8.13255361 16.3196881,7.80506823 C16.6471735,7.47758285 17.0838207,7.31384016 17.5204678,7.31384016 C17.957115,7.31384016 18.3937622,7.47758285 18.7212476,7.80506823 L18.7212476,7.80506823 Z" id="Shape"></path>
            </g>
        </g>
    </g>
</svg>