<?xml version="1.0" encoding="UTF-8" standalone="no"?>
<svg width="32px" height="21px" viewBox="0 0 32 21" version="1.1" xmlns="http://www.w3.org/2000/svg" xmlns:xlink="http://www.w3.org/1999/xlink">
    <!-- Generator: Sketch 3.7 (28169) - http://www.bohemiancoding.com/sketch -->
    <title>offer</title>
    <desc>Created with Sketch.</desc>
    <defs></defs>
    <g id="Page-1" stroke="none" stroke-width="1" fill="none" fill-rule="evenodd">
        <g id="1-10" transform="translate(-364.000000, -52.000000)" fill="#000000">
            <g id="offer" transform="translate(364.000000, 52.000000)">
                <path d="M30.7651765,9.58870588 L22.2945882,1.11811765 C22.0592941,0.941176471 21.824,0.823529412 21.5294118,0.823529412 L2,0.646588235 C1.64705882,0.646588235 1.47011765,0.764235294 1.23482353,0.999529412 C1.05788235,1.17647059 0.940235294,1.47011765 0.940235294,1.70541176 L0.940235294,18.9995294 C0.940235294,19.2348235 1.05788235,19.5294118 1.23482353,19.7054118 C1.47011765,19.9407059 1.70541176,20.0583529 2,20.0583529 L2,20.0583529 L21.5294118,19.8814118 C21.824,19.8814118 22.0592941,19.7637647 22.2945882,19.5868235 L30.7651765,11.1162353 C31.1774118,10.704 31.1774118,9.99811765 30.7651765,9.58682353 L30.7651765,9.58870588 Z M21.1181176,17.7647059 L3.05882353,17.9416471 L3.05882353,2.76517647 L21.1181176,2.94211765 L28.5298824,10.3538824 L21.1181176,17.7647059 Z M17.0588235,7.58870588 C16.2936471,8.29458824 15.8823529,9.29505882 15.8823529,10.3538824 C15.8823529,11.4127059 16.2945882,12.4131765 17.0588235,13.1190588 C17.824,13.8842353 18.7651765,14.2955294 19.824,14.2955294 C20.8828235,14.2955294 21.8832941,13.8832941 22.5891765,13.1190588 C24.1185882,11.5896471 24.1185882,9.11905882 22.5891765,7.58964706 C21.1181176,6.11858824 18.5298824,6.11858824 17.0597647,7.58964706 L17.0588235,7.58870588 Z M21.1181176,9.05882353 C21.824,9.76470588 21.824,10.9411765 21.1181176,11.6470588 C20.4122353,12.3529412 19.2357647,12.3529412 18.5298824,11.6470588 C18.1769412,11.2941176 18,10.8235294 18,10.3529412 C18,9.88235294 18.2352941,9.41176471 18.5298824,9.05882353 C18.8828235,8.70588235 19.3534118,8.52894118 19.824,8.52894118 C20.2945882,8.52894118 20.7651765,8.70588235 21.1181176,9.05882353 L21.1181176,9.05882353 Z" id="Shape"></path>
            </g>
        </g>
    </g>
</svg>