<?xml version="1.0" encoding="UTF-8" standalone="no"?>
<svg width="32px" height="32px" viewBox="0 0 32 32" version="1.1" xmlns="http://www.w3.org/2000/svg" xmlns:xlink="http://www.w3.org/1999/xlink">
    <!-- Generator: Sketch 3.7.1 (28215) - http://www.bohemiancoding.com/sketch -->
    <title>open-now</title>
    <desc>Created with Sketch.</desc>
    <defs></defs>
    <g id="Page-1" stroke="none" stroke-width="1" fill="none" fill-rule="evenodd">
        <g id="1-56" transform="translate(-156.000000, -208.000000)" fill="#000000">
            <g id="open-now" transform="translate(156.000000, 208.000000)">
                <path d="M16,0 C7.187,0 0,7.188 0,16 C0,24.812 7.188,32 16,32 C24.813,32 32,24.812 32,16 C32,7.188 24.812,0 16,0 L16,0 Z M16,30.063 C8.25,30.063 1.937,23.75 1.937,16 C1.937,8.25 8.25,1.937 16,1.937 C23.75,1.937 30.063,8.25 30.063,16 C30.063,23.75 23.75,30.063 16,30.063 L16,30.063 Z M17,5.375 C17,4.875 16.562,4.437 16.062,4.437 C15.749,4.437 15.562,4.562 15.374,4.75 C15.186,4.938 15.124,5.125 15.124,5.375 L15.124,15.938 C15.124,16.188 15.187,16.438 15.437,16.626 L20.687,21.564 C21.062,21.877 21.687,21.877 22.062,21.501 C22.375,21.126 22.375,20.501 21.999,20.126 L17.061,15.501 L17,5.375 Z" id="Shape"></path>
            </g>
        </g>
    </g>
</svg>