<?xml version="1.0" encoding="UTF-8" standalone="no"?>
<svg width="32px" height="32px" viewBox="0 0 32 32" version="1.1" xmlns="http://www.w3.org/2000/svg" xmlns:xlink="http://www.w3.org/1999/xlink">
    <!-- Generator: Sketch 3.7.1 (28215) - http://www.bohemiancoding.com/sketch -->
    <title>overall-rating</title>
    <desc>Created with Sketch.</desc>
    <defs></defs>
    <g id="Page-1" stroke="none" stroke-width="1" fill="none" fill-rule="evenodd">
        <g id="1-10" transform="translate(-575.000000, -54.000000)" fill="#000000">
            <g id="overall-rating" transform="translate(575.000000, 54.000000)">
                <path d="M27.3125,32 L4.6875,32 C2.125,32 0,29.875 0,27.3125 L0,4.6875 C0,2.125 2.125,0 4.6875,0 L27.3125,0 C29.875,0 32,2.125 32,4.6875 L32,27.3125 C32,29.875 29.875,32 27.3125,32 L27.3125,32 Z M4.6875,1.875 C3.125,1.875 1.875,3.1875 1.875,4.6875 L1.875,27.3125 C1.875,28.875 3.1875,30.125 4.6875,30.125 L27.3125,30.125 C28.875,30.125 30.125,28.8125 30.125,27.3125 L30.125,4.6875 C30.125,3.125 28.8125,1.875 27.3125,1.875 L4.6875,1.875 Z M8.5,24 L10.5,24 L10.5,14 L8.5,14 L8.5,24 Z M15.5,24 L17.5,24 L17.5,8 L15.5,8 L15.5,24 Z M22.5,12 L22.5,24 L24.5,24 L24.5,12 L22.5,12 Z" id="Shape"></path>
            </g>
        </g>
    </g>
</svg>