<?xml version="1.0" encoding="UTF-8" standalone="no"?>
<svg width="30px" height="32px" viewBox="0 0 30 32" version="1.1" xmlns="http://www.w3.org/2000/svg" xmlns:xlink="http://www.w3.org/1999/xlink">
    <!-- Generator: Sketch 3.7.1 (28215) - http://www.bohemiancoding.com/sketch -->
    <title>phone-fill</title>
    <desc>Created with Sketch.</desc>
    <defs></defs>
    <g id="Page-1" stroke="none" stroke-width="1" fill="none" fill-rule="evenodd">
        <g id="1-56" transform="translate(-209.000000, -208.000000)" fill="#000000">
            <g id="phone-fill" transform="translate(209.000000, 208.000000)">
                <path d="M29.8513861,25.1587038 C29.6626606,23.9661198 28.7842844,22.900022 27.1530142,21.0177871 C25.521744,19.1355523 24.2036777,17.6297644 22.6356506,17.6297644 C22.1959605,17.6297644 21.7572743,17.7552467 21.1921019,18.0062114 L21.1921019,18.0694545 C20.6269296,18.3204191 19.9372787,18.8223484 19.1843848,19.44976 C18.1805262,20.3281363 17.4898715,21.2697556 17.2389068,22.2103711 C17.1756638,22.3990965 17.0501814,22.5245788 16.8624599,22.5245788 C16.6737345,22.6500612 16.5482521,22.6500612 16.4227698,22.5245788 C13.0347471,20.5791009 10.4618576,17.6930075 8.83058737,13.8662986 C8.76734428,13.6775732 8.76734428,13.5520908 8.83058737,13.3643693 C8.89383046,13.238887 9.01931278,13.1756439 9.20703434,13.1134046 C9.64672439,12.9879223 10.9015476,12.6737146 12.2186101,11.4821345 C13.5989156,10.3527936 14.7914996,9.09797032 14.4772919,7.46670013 C14.2885665,6.33735922 13.4101902,5.27025755 11.8421631,3.4512658 L11.5911985,3.13705807 C9.95992827,1.38030555 8.70510505,1.77635684e-15 7.2615564,1.77635684e-15 C6.82186635,1.77635684e-15 6.38318015,0.0632430906 5.81800776,0.314207736 L5.75476467,0.377450827 C5.18959229,0.691658563 4.49994145,1.13034476 3.74704751,1.75775638 C1.42512261,3.76547354 -1.14676307,6.02415535 0.546746354,12.8002008 C1.55060494,16.8156351 3.30735745,20.0159363 6.38217629,23.5294413 C9.45699512,27.1061894 12.4053278,29.3016281 16.2330405,30.8706591 C18.1785185,31.623553 19.8097887,32 21.3155765,32 C22.5081605,32 23.6375014,31.7490354 24.64136,31.3093453 C25.7084617,30.807416 26.5235949,30.0545221 27.2764888,29.4271105 L27.5906965,29.1761458 C28.9087629,28.0468049 30.100343,26.7919817 29.8493783,25.1607115 L29.8513861,25.1587038 Z" id="Shape"></path>
            </g>
        </g>
    </g>
</svg>