<?xml version="1.0" encoding="UTF-8" standalone="no"?>
<svg width="20px" height="32px" viewBox="0 0 20 32" version="1.1" xmlns="http://www.w3.org/2000/svg" xmlns:xlink="http://www.w3.org/1999/xlink">
    <!-- Generator: Sketch 3.7 (28169) - http://www.bohemiancoding.com/sketch -->
    <title>phone-number</title>
    <desc>Created with Sketch.</desc>
    <defs></defs>
    <g id="Page-1" stroke="none" stroke-width="1" fill="none" fill-rule="evenodd">
        <g id="1-10" transform="translate(-416.000000, -52.000000)" fill="#000000">
            <g id="phone-number" transform="translate(416.000000, 51.000000)">
                <path d="M7.375,21.813 L6.375,21.813 C6.125,21.813 6,22.001 6,22.188 L6,23.251 C6,23.439 6.125,23.564 6.375,23.564 L7.375,23.564 C7.625,23.564 7.75,23.439 7.75,23.251 L7.75,22.188 C7.75,22 7.625,21.813 7.375,21.813 L7.375,21.813 Z M10.5,21.813 L9.5,21.813 C9.25,21.813 9.125,22.001 9.125,22.188 L9.125,23.251 C9.125,23.439 9.25,23.564 9.5,23.564 L10.5,23.564 C10.75,23.564 10.875,23.439 10.875,23.251 L10.875,22.188 C10.875,22 10.687,21.813 10.5,21.813 L10.5,21.813 Z M13.625,21.813 L12.562,21.813 C12.374,21.813 12.187,22.001 12.187,22.188 L12.187,23.251 C12.187,23.439 12.375,23.564 12.562,23.564 L13.625,23.564 C13.813,23.564 14,23.439 14,23.251 L14,22.188 C14,22 13.812,21.813 13.625,21.813 L13.625,21.813 Z M7.375,24.938 L6.375,24.938 C6.125,24.938 6,25.063 6,25.313 L6,26.313 C6,26.563 6.125,26.688 6.375,26.688 L7.375,26.688 C7.625,26.688 7.75,26.563 7.75,26.313 L7.75,25.313 C7.75,25.125 7.625,24.938 7.375,24.938 L7.375,24.938 Z M10.5,24.938 L9.5,24.938 C9.25,24.938 9.125,25.063 9.125,25.313 L9.125,26.313 C9.125,26.563 9.25,26.688 9.5,26.688 L10.5,26.688 C10.75,26.688 10.875,26.563 10.875,26.313 L10.875,25.313 C10.875,25.125 10.687,24.938 10.5,24.938 L10.5,24.938 Z M13.625,24.938 L12.562,24.938 C12.374,24.938 12.187,25.063 12.187,25.313 L12.187,26.313 C12.187,26.563 12.375,26.688 12.562,26.688 L13.625,26.688 C13.813,26.688 14,26.563 14,26.313 L14,25.313 C14,25.125 13.812,24.938 13.625,24.938 L13.625,24.938 Z M7.375,28.063 L6.375,28.063 C6.125,28.063 6,28.188 6,28.438 L6,29.438 C6,29.626 6.125,29.813 6.375,29.813 L7.375,29.813 C7.625,29.813 7.75,29.625 7.75,29.438 L7.75,28.438 C7.75,28.188 7.625,28.063 7.375,28.063 L7.375,28.063 Z M10.5,28.063 L9.5,28.063 C9.25,28.063 9.125,28.188 9.125,28.438 L9.125,29.438 C9.125,29.626 9.25,29.813 9.5,29.813 L10.5,29.813 C10.75,29.813 10.875,29.625 10.875,29.438 L10.875,28.438 C10.875,28.188 10.687,28.063 10.5,28.063 L10.5,28.063 Z M13.625,28.063 L12.562,28.063 C12.374,28.063 12.187,28.188 12.187,28.438 L12.187,29.438 C12.187,29.626 12.375,29.813 12.562,29.813 L13.625,29.813 C13.813,29.813 14,29.625 14,29.438 L14,28.438 C14,28.188 13.812,28.063 13.625,28.063 L13.625,28.063 Z M16.25,5.125 L5.75,5.125 L5.75,1.937 C5.75,1.437 5.312,0.999 4.812,0.999 C4.249,0.999 3.874,1.437 3.874,1.937 L3.874,5.125 L3.749,5.125 C2.061,5.125 0.749,6.5 0.749,8.188 L0.749,29.938 C0.749,31.626 2.062,33.001 3.749,33.001 L16.187,33.001 C17.875,33.001 19.25,31.626 19.25,29.938 L19.25,8.188 C19.25,6.5 17.875,5.125 16.25,5.125 L16.25,5.125 Z M17.313,29.938 C17.313,30.563 16.813,31.063 16.188,31.063 L3.813,31.063 C3.188,31.063 2.688,30.563 2.688,29.938 L2.688,8.188 C2.688,7.563 3.188,7.063 3.813,7.063 L16.251,7.063 C16.814,7.063 17.376,7.563 17.376,8.188 L17.376,29.938 L17.313,29.938 Z M15.188,8.25 L4.813,8.25 C4.25,8.25 3.875,8.688 3.875,9.188 L3.875,19.563 C3.875,20.126 4.25,20.563 4.813,20.563 L15.188,20.563 C15.688,20.563 16.126,20.125 16.126,19.563 L16.126,9.188 C16.126,8.688 15.751,8.25 15.188,8.25 L15.188,8.25 Z M14.25,18.625 L5.75,18.625 L5.75,10.187 L14.188,10.187 L14.188,18.625 L14.25,18.625 Z" id="Shape"></path>
            </g>
        </g>
    </g>
</svg>