<?xml version="1.0" encoding="UTF-8" standalone="no"?>
<svg width="32px" height="32px" viewBox="0 0 32 32" version="1.1" xmlns="http://www.w3.org/2000/svg" xmlns:xlink="http://www.w3.org/1999/xlink">
    <!-- Generator: Sketch 3.7.1 (28215) - http://www.bohemiancoding.com/sketch -->
    <title>plus</title>
    <desc>Created with Sketch.</desc>
    <defs></defs>
    <g id="Page-1" stroke="none" stroke-width="1" fill="none" fill-rule="evenodd">
        <g id="1-56" transform="translate(-312.000000, -208.000000)" fill="#000000">
            <g id="plus" transform="translate(312.000000, 208.000000)">
                <path d="M31.0039221,15.0039221 L16.9960779,15.0039221 L16.9960779,0.996077943 C16.9960779,0.435286061 16.5597958,-1.77635684e-15 16,-1.77635684e-15 C15.501961,-1.77635684e-15 15.0039221,0.436282139 15.0039221,0.996077943 L15.0039221,15.0039221 L0.996077943,15.0039221 C0.435286061,15.0039221 -1.77635684e-15,15.501961 -1.77635684e-15,16 C-1.77635684e-15,16.5607919 0.436282139,16.9960779 0.996077943,16.9960779 L15.0039221,16.9960779 L15.0039221,31.0039221 C15.0039221,31.5647139 15.501961,32 16,32 C16.5607919,32 16.9960779,31.5637179 16.9960779,31.0039221 L16.9960779,16.9960779 L31.0039221,16.9960779 C31.5647139,16.9960779 32,16.5597958 32,16 C32,15.4402042 31.5637179,15.0039221 31.0039221,15.0039221 L31.0039221,15.0039221 Z" id="Shape"></path>
            </g>
        </g>
    </g>
</svg>