<?xml version="1.0" encoding="UTF-8" standalone="no"?>
<svg width="26px" height="32px" viewBox="0 0 26 32" version="1.1" xmlns="http://www.w3.org/2000/svg" xmlns:xlink="http://www.w3.org/1999/xlink">
    <!-- Generator: Sketch 3.7.1 (28215) - http://www.bohemiancoding.com/sketch -->
    <title>popularity</title>
    <desc>Created with Sketch.</desc>
    <defs></defs>
    <g id="Page-1" stroke="none" stroke-width="1" fill="none" fill-rule="evenodd">
        <g id="1-10" transform="translate(-628.000000, -53.000000)" fill="#000000">
            <g id="popularity" transform="translate(628.000000, 53.000000)">
                <path d="M12.8627451,32 C5.33333333,32 0,26.7921569 0,19.5764706 C0,15.7490196 2.25882353,11.6078431 2.38431373,11.4196078 C2.57254902,11.0431373 2.94901961,10.854902 3.38823529,10.9176471 C3.76470588,10.9803922 4.07843137,11.2313725 4.20392157,11.6705882 C4.20392157,11.6705882 4.83137255,13.9921569 5.64705882,15.3098039 C6.14901961,16.1882353 6.71372549,16.7529412 7.34117647,17.1921569 C6.96470588,15.372549 6.58823529,12.6117647 7.15294118,9.78823529 C8.59607843,2.00784314 14.6823529,0.125490196 14.9960784,0.062745098 C15.3098039,-0.062745098 15.6862745,0 15.9372549,0.250980392 C16.1882353,0.501960784 16.3137255,0.878431373 16.2509804,1.19215686 C16.1882353,1.25490196 15.1843137,6.71372549 17.3176471,11.3568627 L18.0705882,12.7372549 C18.1960784,12.1098039 18.3215686,11.3568627 18.5098039,10.6666667 C19.3254902,7.90588235 21.3333333,6.96470588 21.3960784,6.96470588 C21.772549,6.77647059 22.1490196,6.83921569 22.4627451,7.09019608 C22.7137255,7.27843137 22.9019608,7.65490196 22.8392157,8.03137255 C22.7764706,8.09411765 22.5254902,9.97647059 24.0941176,12.6745098 C25.5372549,15.0588235 25.9764706,16.627451 25.9764706,19.5764706 C25.9764706,26.7921569 20.454902,32 12.8627451,32 L12.8627451,32 Z M3.0745098,14.6196078 C2.57254902,16 2.00784314,17.8196078 2.00784314,19.5764706 C2.00784314,25.6 6.4627451,29.9921569 12.8627451,29.9921569 C19.3254902,29.9921569 23.9686275,25.6 23.9686275,19.5764706 C23.9686275,16.9411765 23.654902,15.7490196 22.4,13.6156863 C21.5843137,12.2352941 21.145098,10.9803922 20.9568627,9.97647059 C20.7686275,10.3529412 20.5803922,10.7294118 20.454902,11.1686275 C19.8901961,13.3019608 20.0156863,15.8117647 20.0156863,15.8745098 C20.0784314,16.3137255 19.7647059,16.6901961 19.3882353,16.8784314 C18.9490196,17.0039216 18.4470588,16.8784314 18.1960784,16.5019608 C18.1333333,16.3764706 16.3764706,13.8666667 15.5607843,12.172549 C13.9294118,8.65882353 13.9921569,4.83137255 14.1176471,2.63529412 C12.4862745,3.57647059 9.91372549,5.77254902 9.09803922,10.1019608 C8.34509804,14.3686275 9.85098039,18.6352941 9.91372549,18.6980392 C10.0392157,19.0117647 9.97647059,19.3882353 9.7254902,19.7019608 C9.4745098,19.9529412 9.09803922,20.0784314 8.72156863,20.0156863 C8.59607843,20.0156863 5.77254902,19.2627451 3.95294118,16.3764706 C3.63921569,15.8117647 3.3254902,15.1843137 3.0745098,14.6196078 L3.0745098,14.6196078 Z" id="Shape"></path>
            </g>
        </g>
    </g>
</svg>