<?xml version="1.0" encoding="UTF-8" standalone="no"?>
<svg width="32px" height="32px" viewBox="0 0 32 32" version="1.1" xmlns="http://www.w3.org/2000/svg" xmlns:xlink="http://www.w3.org/1999/xlink">
    <!-- Generator: Sketch 3.7.1 (28215) - http://www.bohemiancoding.com/sketch -->
    <title>pure-veg</title>
    <desc>Created with Sketch.</desc>
    <defs></defs>
    <g id="Page-1" stroke="none" stroke-width="1" fill="none" fill-rule="evenodd">
        <g id="1-10" transform="translate(-102.000000, -103.000000)" fill="#000000">
            <g id="pure-veg" transform="translate(102.000000, 103.000000)">
                <path d="M31.6875,0.3125 C31.4375,0.125 31.125,0 30.8125,0 C29.8125,0.125 6.4375,2.8125 1.0625,14.125 C-0.8125,18.125 -0.1875,22.6875 2.875,27.625 L1.75,28.75 C1.3125,29.1875 1.3125,29.875 1.75,30.25 C1.9375,30.4375 2.1875,30.5625 2.5,30.5625 C2.75,30.5625 3,30.4375 3.25,30.25 L4.375,29.125 C7.375,30.9375 10.25,31.875 12.9375,31.875 C28.375,31.875 31.8125,2.4375 32,1.1875 C32,0.875 31.875,0.5625 31.6875,0.3125 L31.6875,0.3125 Z M12.9375,29.75 C10.75,29.75 8.375,29 5.875,27.625 L8.625,24.875 L15,24.875 C15.5625,24.875 16.0625,24.4375 16.0625,23.8125 C16.0625,23.25 15.5625,22.8125 15,22.8125 L10.6875,22.8125 L14.3125,19.1875 L19.5625,19.1875 C20.125,19.1875 20.5625,18.75 20.5625,18.125 C20.5625,17.5625 20.125,17.125 19.5625,17.125 L16.375,17.125 L20,13.5 L21.8125,13.5 C22.375,13.5 22.875,13.0625 22.875,12.4375 C22.875,11.875 22.375,11.4375 21.8125,11.4375 L20.5625,11.4375 L20.5625,10.1875 C20.5625,9.625 20.125,9.125 19.5625,9.125 C19,9.125 18.5,9.625 18.5,10.1875 L18.5,12.0625 L14.9375,15.625 L14.9375,12.4375 C14.9375,11.875 14.4375,11.375 13.875,11.375 C13.3125,11.375 12.8125,11.875 12.8125,12.4375 L12.8125,17.6875 L9.25,21.3125 L9.25,17 C9.25,16.4375 8.75,15.9375 8.1875,15.9375 C7.625,15.9375 7.125,16.4375 7.125,17 L7.125,23.375 L4.375,26.125 C2,22 1.5,18.25 3,15 C7.125,6.25 24.6875,3.0625 29.6875,2.3125 C28.8125,8 24.8125,29.75 12.9375,29.75 L12.9375,29.75 Z" id="Shape"></path>
            </g>
        </g>
    </g>
</svg>