<?xml version="1.0" encoding="UTF-8" standalone="no"?>
<svg width="32px" height="28px" viewBox="0 0 32 28" version="1.1" xmlns="http://www.w3.org/2000/svg" xmlns:xlink="http://www.w3.org/1999/xlink">
    <!-- Generator: Sketch 3.7 (28169) - http://www.bohemiancoding.com/sketch -->
    <title>refresh</title>
    <desc>Created with Sketch.</desc>
    <defs></defs>
    <g id="Page-1" stroke="none" stroke-width="1" fill="none" fill-rule="evenodd">
        <g id="1-10" transform="translate(-468.000000, -52.000000)" fill="#000000">
            <g id="refresh" transform="translate(468.000000, 52.000000)">
                <path d="M31.5762424,9.152 C31.1515152,8.84848485 30.5454545,8.90957576 30.2429091,9.39442424 L28.0610909,12.4247273 C27.8186667,9.63684848 26.7277576,6.97018182 24.9095758,4.84848485 C22.4242424,1.93939394 18.8489697,0.181333333 15.030303,0.0601212121 C7.51515152,-0.243393939 1.27224242,5.63587879 0.96969697,13.0909091 C0.848484848,16.6671515 2.12169697,20.1212121 4.60606061,22.7878788 C7.03030303,25.3944242 10.4242424,26.9701818 14.0004848,27.0913939 L14.5464242,27.0913939 C19.7585455,27.0913939 24.5469091,24.0610909 26.7888485,19.2727273 C27.0312727,18.7878788 26.7888485,18.1818182 26.304,17.9995152 C25.8191515,17.7570909 25.2732121,17.9384242 25.0307879,18.4242424 C23.030303,22.6666667 18.7277576,25.3333333 14.0606061,25.152 C10.9692121,25.0307879 8.12121212,23.7575758 5.99951515,21.4545455 C3.87781818,19.2116364 2.78690909,16.2424242 2.90812121,13.1510303 C3.15054545,6.72678788 8.5449697,1.75709091 14.9692121,1.99951515 C18.2419394,2.12072727 21.3333333,3.57527273 23.4540606,6.12072727 C25.0909091,8 25.9995152,10.3030303 26.1818182,12.8484848 L23.3939394,9.33333333 C23.0904242,8.90860606 22.4843636,8.78739394 22.0606061,9.1510303 C21.6358788,9.45454545 21.5757576,10.0606061 21.878303,10.5454545 L26.3030303,16.1212121 C26.4853333,16.3636364 26.7878788,16.4848485 27.0913939,16.4848485 L27.0913939,16.4848485 C27.3949091,16.4848485 27.6974545,16.3636364 27.8797576,16.1212121 L31.8196364,10.4843636 C32.1231515,10.0596364 32.0019394,9.45357576 31.5772121,9.1510303 L31.5762424,9.152 Z" id="Shape"></path>
            </g>
        </g>
    </g>
</svg>