<?xml version="1.0" encoding="UTF-8" standalone="no"?>
<svg width="32px" height="32px" viewBox="0 0 32 32" version="1.1" xmlns="http://www.w3.org/2000/svg" xmlns:xlink="http://www.w3.org/1999/xlink">
    <!-- Generator: Sketch 3.7.1 (28215) - http://www.bohemiancoding.com/sketch -->
    <title>res-veg-nonveg-1</title>
    <desc>Created with Sketch.</desc>
    <defs></defs>
    <g id="Page-1" stroke="none" stroke-width="1" fill="none" fill-rule="evenodd">
        <g id="1-56" transform="translate(-416.000000, -208.000000)" fill="#000000">
            <g id="res-veg-nonveg-1" transform="translate(416.000000, 208.000000)">
                <path d="M23.5465221,15.8342058 C23.5465221,20.019204 20.1819831,23.3824302 15.9982976,23.3824302 C11.8960017,23.3824302 8.53146273,20.0178912 8.53146273,15.8342058 C8.53146273,11.7319099 11.8960017,8.36737089 15.9982976,8.36737089 C20.1832958,8.36737089 23.5465221,11.7319099 23.5465221,15.8342058 L23.5465221,15.8342058 Z M26.7469692,-6.1041422e-16 L5.25093875,-6.1041422e-16 C2.2972857,-6.1041422e-16 0,2.37998799 0,5.25093875 L0,26.4187856 C0,29.3724386 2.37998799,31.7524266 5.25093875,31.7524266 L26.7469692,31.7524266 C29.6192327,31.7524266 31.997908,29.3724386 31.997908,26.4187856 L31.997908,5.25093875 C32.0806103,2.37867525 29.7006223,-1.77635684e-15 26.7469692,-1.77635684e-15 L26.7469692,-6.1041422e-16 Z M30.1101955,26.4187856 C30.1101955,28.306498 28.633369,29.7833246 26.7456565,29.7833246 L5.24962601,29.7833246 C3.44461582,29.7833246 1.9677893,28.306498 1.9677893,26.4187856 L1.9677893,5.25093875 C1.9677893,3.44592855 3.44461582,1.96910203 5.24962601,1.96910203 L26.7456565,1.96910203 C28.633369,1.96910203 30.1101955,3.44592855 30.1101955,5.25093875 L30.1101955,26.4187856 Z" id="Shape"></path>
            </g>
        </g>
    </g>
</svg>