<?xml version="1.0" encoding="UTF-8" standalone="no"?>
<svg width="32px" height="32px" viewBox="0 0 32 32" version="1.1" xmlns="http://www.w3.org/2000/svg" xmlns:xlink="http://www.w3.org/1999/xlink">
    <!-- Generator: Sketch 3.7.1 (28215) - http://www.bohemiancoding.com/sketch -->
    <title>sports</title>
    <desc>Created with Sketch.</desc>
    <defs></defs>
    <g id="Page-1" stroke="none" stroke-width="1" fill="none" fill-rule="evenodd">
        <g id="1-56" transform="translate(-468.000000, -208.000000)" fill="#000000">
            <g id="sports" transform="translate(468.000000, 207.000000)">
                <path d="M30.9889317,11.3650362 C29.4903722,7.3688773 26.493253,4.18393865 22.621974,2.43561913 C20.4990146,1.49851986 18.3131157,0.999 16.0033358,0.999 C9.75933754,0.999 4.07679957,4.68345852 1.45432028,10.3649974 C-2.23013823,18.3573153 1.32944032,27.8481927 9.38469764,31.5326512 C11.4457166,32.4697505 13.693556,32.9692703 16.0033358,32.9692703 C22.2473341,32.9692703 27.9298721,29.2848118 30.5523514,23.6032729 C32.3006709,19.7319939 32.4884904,15.3611951 30.9899308,11.3650362 L30.9889317,11.3650362 Z M27.3674127,25.3515924 L23.1214939,25.7262323 L20.2492547,22.1047133 L22.3722141,17.546095 L27.1176528,17.1085156 L29.6152521,20.6051547 C29.4274327,21.3544344 29.1776727,22.1037142 28.8659723,22.852994 C28.4283929,23.7271538 27.9288731,24.5393731 27.3674127,25.3505934 L27.3674127,25.3515924 Z M24.9946934,27.4745518 C24.2454136,28.0989517 23.4961338,28.5984715 22.621974,29.0979914 L23.3093134,27.5994318 L24.9946934,27.4745518 Z M10.6334973,28.786291 L11.5076571,30.0350906 C11.0700777,29.9102107 10.6334973,29.7223912 10.2588574,29.5355708 C9.8842175,29.3487503 9.4466381,29.1609309 9.07199821,28.9111709 L10.6334973,28.786291 Z M10.4466769,26.9130915 L6.38757846,27.2877314 C5.01389883,26.0389317 3.9519196,24.5403721 3.20263981,22.8539931 L4.88901887,19.2324741 L9.50957761,18.9827141 L12.2569369,22.9169326 L10.4466769,26.9130915 Z M4.32755854,9.05525636 L8.63641688,8.68061647 L11.4467156,12.5518954 L9.32375622,17.1105137 L4.70319748,17.3602736 L2.26753862,13.8636346 C2.45535809,12.9265353 2.76705848,12.0523755 3.14169838,11.1162753 C3.51633828,10.428936 3.89097818,9.7425957 4.32855758,9.05525636 L4.32755854,9.05525636 Z M9.32275718,4.87127798 L8.44859742,6.80741698 L6.45051796,6.99523644 C7.32467772,6.18301715 8.32371745,5.49667685 9.32275718,4.87227702 L9.32275718,4.87127798 Z M21.3731744,5.24591788 L20.3741346,3.87223826 C20.8736545,4.06005773 21.3112339,4.18493769 21.7478143,4.43469762 C22.1853937,4.62251709 22.5600336,4.80933752 22.9966139,5.05909745 L21.3731744,5.24591788 Z M21.5609938,7.11911737 L25.6820327,6.68153797 C26.9937719,7.93033763 28.0547521,9.42889722 28.8040319,11.0523368 L27.0557123,14.8616753 L22.3102736,15.2992547 L19.5629144,11.4279757 L21.5609938,7.11911737 Z M29.8030716,17.6090345 L28.6162124,15.985595 L29.4903722,14.1123955 C29.7401321,15.2363152 29.8650121,16.4231744 29.8030716,17.6090345 L29.8030716,17.6090345 Z M13.0062167,13.6128756 L17.7516554,13.1752962 L20.4990146,17.0465751 L18.6877556,21.0427341 L13.9423169,21.4803135 L11.1949576,17.6090345 L12.6315768,14.3621554 L13.0062167,13.6128756 Z M3.20363885,18.4212538 L2.51629951,19.8578729 C2.32848004,18.9207737 2.20360008,17.9846734 2.20360008,17.0475742 L3.20363885,18.4212538 Z M17.439955,2.93613803 L19.8126743,6.30789711 L17.8145949,10.6786959 L13.0691562,11.1162753 L10.3217969,7.24499638 L12.0701164,3.4356579 C13.3189161,3.12295846 14.6306552,2.87319853 16.0043349,2.87319853 C16.5038547,2.87319853 16.9414341,2.87319853 17.440954,2.93613803 L17.439955,2.93613803 Z M14.5047762,31.0341304 L12.1320569,27.7243118 L14.0052564,23.6652133 L18.7506951,23.2276339 L21.6229343,26.849153 L19.9365552,30.5336115 C18.6248161,30.9082514 17.314076,31.0960708 16.0023368,31.0960708 C15.5028169,31.0960708 15.0032971,31.0960708 14.5037772,31.0331313 L14.5047762,31.0341304 Z" id="Shape"></path>
            </g>
        </g>
    </g>
</svg>