<?xml version="1.0" encoding="UTF-8" standalone="no"?>
<svg width="32px" height="32px" viewBox="0 0 32 32" version="1.1" xmlns="http://www.w3.org/2000/svg" xmlns:xlink="http://www.w3.org/1999/xlink">
    <!-- Generator: Sketch 3.7.1 (28215) - http://www.bohemiancoding.com/sketch -->
    <title>takeaway-new-1</title>
    <desc>Created with Sketch.</desc>
    <defs></defs>
    <g id="Page-1" stroke="none" stroke-width="1" fill="none" fill-rule="evenodd">
        <g id="1-56" transform="translate(-520.000000, -208.000000)" fill="#000000">
            <g id="takeaway-new-1" transform="translate(520.000000, 208.000000)">
                <path d="M31.75,13.813 L25.75,7.813 L25.75,3.938 C25.75,1.75 23.937,0 21.75,0 L10.25,0 C8.062,0 6.25,1.75 6.25,3.938 L6.25,7.813 L0.25,13.813 C0.125,13.938 0,14.188 0,14.438 L0,31.126 C0,31.626 0.375,32.001 0.875,32.001 L31.125,32.001 C31.625,32.001 32,31.626 32,31.126 L32,14.438 C32,14.188 31.937,13.938 31.75,13.813 L31.75,13.813 Z M18.25,13.563 L2.937,13.563 L7.5,9 L22.813,9 L18.25,13.563 Z M10.25,1.688 L21.75,1.688 C23,1.688 24,2.688 24,3.938 L24,7.313 L8,7.313 L8,3.938 C8,2.688 9,1.688 10.25,1.688 L10.25,1.688 Z M1.688,15.25 L17.751,15.25 L17.751,30.25 L1.688,30.25 L1.688,15.25 Z M30.313,30.25 L19.438,30.25 L19.438,14.75 L24.876,9.375 L30.314,14.75 L30.313,30.25 Z" id="Shape"></path>
            </g>
        </g>
    </g>
</svg>