<?xml version="1.0" encoding="UTF-8" standalone="no"?>
<svg width="33px" height="33px" viewBox="0 0 33 33" version="1.1" xmlns="http://www.w3.org/2000/svg" xmlns:xlink="http://www.w3.org/1999/xlink">
    <!-- Generator: Sketch 3.7 (28169) - http://www.bohemiancoding.com/sketch -->
    <title>takeaway-new</title>
    <desc>Created with Sketch.</desc>
    <defs></defs>
    <g id="Page-1" stroke="none" stroke-width="1" fill="none" fill-rule="evenodd">
        <g id="1-10" transform="translate(-520.000000, -52.000000)" fill="#000000">
            <g id="takeaway-new" transform="translate(520.000000, 52.000000)">
                <path d="M31.7265882,14.3161765 L25.9632353,8.55282353 L25.9632353,4.91311765 C25.9632353,2.72929412 24.2035588,0.969617647 22.0197353,0.969617647 L10.9792941,0.969617647 C8.79547059,0.969617647 7.03579412,2.72929412 7.03579412,4.91311765 L7.03579412,8.55282353 L1.27244118,14.3161765 C1.08997059,14.4986471 0.968647059,14.7412941 0.968647059,14.9839412 L0.968647059,31.1199706 C0.968647059,31.6052647 1.39376471,32.0303824 1.87905882,32.0303824 L31.1180294,32.0303824 C31.6033235,32.0303824 32.0284412,31.6052647 32.0284412,31.1199706 L32.0284412,14.9839412 C32.0284412,14.7412941 31.9071176,14.4986471 31.7246471,14.3161765 L31.7265882,14.3161765 Z M4.125,14.0735294 L8.31114706,9.88738235 L22.8097941,9.88738235 L18.6236471,14.0735294 L4.125,14.0735294 Z M25.0537941,10.2523235 L28.8759706,14.0745 L21.2325882,14.0745 L25.0537941,10.2523235 Z M10.9802647,2.85158824 L22.0207059,2.85158824 C23.1737647,2.85158824 24.1443529,3.762 24.1443529,4.91408824 L24.1443529,8.00832353 L8.85758824,8.00832353 L8.85758824,4.91408824 C8.85758824,3.76102941 9.82817647,2.85158824 10.9812353,2.85158824 L10.9802647,2.85158824 Z M2.85158824,15.9545294 L18.0781765,15.9545294 L18.0781765,30.1493824 L2.85158824,30.1493824 L2.85158824,15.9545294 Z M19.9582059,30.1493824 L19.9582059,15.9545294 L30.1493824,15.9545294 L30.1493824,30.1493824 L19.9582059,30.1493824 Z M14.9839412,18.0772059 L4.91408824,18.0772059 C4.42879412,18.0772059 4.00367647,18.5023235 4.00367647,18.9876176 L4.00367647,24.0230294 C4.00367647,24.5694706 4.42879412,24.9936176 4.91408824,24.9936176 L14.9839412,24.9936176 C15.4692353,24.9936176 15.8943529,24.5685 15.8943529,24.0230294 L15.8943529,18.9876176 C15.9555,18.5023235 15.5303824,18.0772059 14.9839412,18.0772059 L14.9839412,18.0772059 Z M14.0735294,23.1126176 L5.82352941,23.1126176 L5.82352941,19.9582059 L14.0735294,19.9582059 L14.0735294,23.1126176 L14.0735294,23.1126176 Z" id="Shape"></path>
            </g>
        </g>
    </g>
</svg>