<?xml version="1.0" encoding="UTF-8" standalone="no"?>
<svg width="29px" height="32px" viewBox="0 0 29 32" version="1.1" xmlns="http://www.w3.org/2000/svg" xmlns:xlink="http://www.w3.org/1999/xlink">
    <!-- Generator: Sketch 3.7.1 (28215) - http://www.bohemiancoding.com/sketch -->
    <title>thin-search</title>
    <desc>Created with Sketch.</desc>
    <defs></defs>
    <g id="Page-1" stroke="none" stroke-width="1" fill="none" fill-rule="evenodd">
        <g id="1-56" transform="translate(-260.000000, -312.000000)" fill="#000000">
            <g id="thin-search" transform="translate(260.000000, 312.000000)">
                <path d="M28.2278978,29.8624754 L21.1237721,21.0609037 C23.2612967,18.8605108 24.518664,15.9056974 24.6444008,12.8880157 C24.9587426,6.09823183 19.6149312,0.314341847 12.8251473,0.0628683694 C6.03536346,-0.251473477 0.314341847,5.02946955 0.0628683694,11.8192534 C-0.251473477,18.6719057 5.09233792,24.3929273 11.8821218,24.7072692 C14.3968566,24.7701375 16.9115914,24.0785855 19.0491159,22.6954813 L26.21611,31.497053 C26.4675835,31.8113949 26.7819253,31.9371316 27.1591356,32 C27.4734774,32 27.8506876,31.8742633 28.0392927,31.6856582 C28.2907662,31.497053 28.4793713,31.1827112 28.5422397,30.8683694 C28.5422397,30.4911591 28.4793713,30.1139489 28.2278978,29.8624754 L28.2278978,29.8624754 Z M22.0667976,12.762279 C21.8153242,18.1060904 17.2888016,22.3182711 11.9449902,22.0667976 C6.60117878,21.8781925 2.4518664,17.2888016 2.64047151,11.9449902 C2.89194499,6.60117878 7.41846758,2.4518664 12.762279,2.70333988 C18.1060904,2.89194499 22.2554028,7.41846758 22.0667976,12.762279 L22.0667976,12.762279 Z" id="Shape"></path>
            </g>
        </g>
    </g>
</svg>