<?xml version="1.0" encoding="UTF-8" standalone="no"?>
<svg width="27px" height="32px" viewBox="0 0 27 32" version="1.1" xmlns="http://www.w3.org/2000/svg" xmlns:xlink="http://www.w3.org/1999/xlink">
    <!-- Generator: Sketch 3.7.1 (28215) - http://www.bohemiancoding.com/sketch -->
    <title>thin-location-line</title>
    <desc>Created with Sketch.</desc>
    <defs></defs>
    <g id="Page-1" stroke="none" stroke-width="1" fill="none" fill-rule="evenodd">
        <g id="1-10" transform="translate(-159.000000, -104.000000)" fill="#000000">
            <g id="thin-location-line" transform="translate(159.000000, 104.000000)">
                <path d="M13.1875,0 C5.9375,0 0,5.875 0,13.1875 C0,16.0625 1,18.875 2.75,21.1875 L3.875,22.5 L11.625,31.3125 C12,31.75 12.625,32 13.1875,32 C13.75,32 14.375,31.75 14.75,31.3125 L22.5,22.4375 C22.875,22.125 24.75,19.4375 24.875,19.25 C25.9375,17.1875 26.4375,14.8125 26.3125,12.4375 C26,5.8125 20.75,0.4375 14.125,0 L13.1875,0 L13.1875,0 Z M13.1875,29.875 L5.375,21 C5.0625,20.6875 4.75,20.3125 4.375,19.9375 C2.875,17.9375 2.125,15.625 2.125,13.1875 C2.125,7.0625 7.0625,2.0625 13.1875,2.0625 C13.4375,2.0625 13.6875,2.0625 14,2.125 C19.5625,2.5 23.9375,7 24.25,12.5625 C24.375,15.1875 23.5625,17.75 22,19.875 L21.9375,19.875 C21.625,20.3125 21.3125,20.625 21,21 L13.1875,29.875 Z M13.1875,7.125 C9.875,7.125 7.1875,9.875 7.1875,13.1875 C7.1875,16.5 9.875,19.1875 13.1875,19.1875 C16.5,19.1875 19.1875,16.5 19.1875,13.1875 C19.1875,9.875 16.5,7.125 13.1875,7.125 L13.1875,7.125 Z M13.1875,17.125 C11,17.125 9.25,15.3125 9.25,13.1875 C9.25,11 11,9.25 13.1875,9.25 C15.375,9.25 17.125,11 17.125,13.1875 C17.125,15.3125 15.375,17.125 13.1875,17.125 L13.1875,17.125 Z" id="Shape"></path>
            </g>
        </g>
    </g>
</svg>