<?xml version="1.0" encoding="UTF-8" standalone="no"?>
<svg width="32px" height="25px" viewBox="0 0 32 25" version="1.1" xmlns="http://www.w3.org/2000/svg" xmlns:xlink="http://www.w3.org/1999/xlink">
    <!-- Generator: Sketch 3.7.1 (28215) - http://www.bohemiancoding.com/sketch -->
    <title>tick</title>
    <desc>Created with Sketch.</desc>
    <defs></defs>
    <g id="Page-1" stroke="none" stroke-width="1" fill="none" fill-rule="evenodd">
        <g id="1-56" transform="translate(-104.000000, -263.000000)" fill="#000000">
            <g id="tick" transform="translate(104.000000, 263.000000)">
                <path d="M31.6864839,0.282616717 C31.3719629,-0.0942055723 30.7439257,-0.0942055723 30.3671034,0.282616717 L8.19688965,22.4528305 L1.60199716,15.857938 C1.22517487,15.4811157 0.659439006,15.4811157 0.282616717,15.857938 C-0.0942055723,16.172459 -0.0942055723,16.8004961 0.282616717,17.1773184 L7.44224021,24.4002481 C7.50554635,24.4635542 7.50554635,24.4635542 7.56784764,24.5258555 C7.75676121,24.6514629 7.94466993,24.7770704 8.19588479,24.7770704 C8.44709965,24.7770704 8.69831451,24.6514629 8.88722808,24.4625494 L31.685479,1.60199716 C31.8743926,1.41308358 32,1.22517487 32,0.97396001 C32,0.72274515 31.8743926,0.471530291 31.685479,0.282616717 L31.6864839,0.282616717 Z" id="Shape"></path>
            </g>
        </g>
    </g>
</svg>