<?xml version="1.0" encoding="UTF-8" standalone="no"?>
<svg width="32px" height="32px" viewBox="0 0 32 32" version="1.1" xmlns="http://www.w3.org/2000/svg" xmlns:xlink="http://www.w3.org/1999/xlink">
    <!-- Generator: Sketch 3.7.1 (28215) - http://www.bohemiancoding.com/sketch -->
    <title>tick-in-the-box-new</title>
    <desc>Created with Sketch.</desc>
    <defs></defs>
    <g id="Page-1" stroke="none" stroke-width="1" fill="none" fill-rule="evenodd">
        <g id="1-56" transform="translate(-52.000000, -260.000000)" fill="#000000">
            <g id="tick-in-the-box-new" transform="translate(52.000000, 260.000000)">
                <path d="M7.813,13.875 C7.375,13.437 6.625,13.437 6.125,13.875 C5.687,14.313 5.687,15.063 6.125,15.563 L13.875,23.251 C14.125,23.501 14.375,23.626 14.75,23.626 L14.813,23.626 C15.126,23.626 15.438,23.438 15.626,23.188 L31.751,3.563 C32.126,3.063 32.064,2.313 31.563,1.875 C31.063,1.5 30.313,1.562 29.875,2.063 L14.625,20.688 L7.813,13.875 Z M30.813,11.75 C30.188,11.75 29.625,12.313 29.625,12.938 L29.625,29.626 L2.375,29.626 L2.375,2.376 L22.313,2.376 C22.938,2.376 23.501,1.876 23.501,1.188 C23.501,0.563 22.938,3.55271368e-15 22.313,3.55271368e-15 L1.188,3.55271368e-15 C0.5,3.55271368e-15 0,0.5 0,1.188 L0,30.813 C0,31.438 0.5,32.001 1.188,32.001 L30.813,32.001 C31.438,32.001 32.001,31.438 32.001,30.813 L32.001,12.938 C32.001,12.313 31.501,11.75 30.813,11.75 L30.813,11.75 Z" id="Shape"></path>
            </g>
        </g>
    </g>
</svg>