<?xml version="1.0" encoding="UTF-8" standalone="no"?>
<svg width="32px" height="32px" viewBox="0 0 32 32" version="1.1" xmlns="http://www.w3.org/2000/svg" xmlns:xlink="http://www.w3.org/1999/xlink">
    <!-- Generator: Sketch 3.7.1 (28215) - http://www.bohemiancoding.com/sketch -->
    <title>tick-in-circle</title>
    <desc>Created with Sketch.</desc>
    <defs></defs>
    <g id="Page-1" stroke="none" stroke-width="1" fill="none" fill-rule="evenodd">
        <g id="1-56" transform="translate(-624.000000, -208.000000)" fill="#000000">
            <g id="tick-in-circle" transform="translate(624.000000, 208.000000)">
                <path d="M21.875,10.75 L12.75,19.25 L10.125,16.625 C9.75,16.25 9.187,16.25 8.812,16.625 C8.437,17 8.437,17.625 8.812,18 L12.062,21.25 C12.25,21.438 12.5,21.563 12.75,21.563 C12.938,21.563 13.188,21.5 13.375,21.313 L23.188,12.125 C23.563,11.75 23.626,11.187 23.251,10.75 C22.876,10.375 22.251,10.375 21.876,10.75 L21.875,10.75 Z M16,0 C7.187,0 0,7.188 0,16 C0,24.812 7.188,32 16,32 C24.813,32 32,24.812 32,16 C32,7.188 24.812,0 16,0 L16,0 Z M16,30.063 C8.25,30.063 1.937,23.75 1.937,16 C1.937,8.25 8.25,1.937 16,1.937 C23.75,1.937 30.063,8.25 30.063,16 C30.063,23.75 23.75,30.063 16,30.063 L16,30.063 Z" id="Shape"></path>
            </g>
        </g>
    </g>
</svg>