<?xml version="1.0" encoding="UTF-8" standalone="no"?>
<svg width="32px" height="32px" viewBox="0 0 32 32" version="1.1" xmlns="http://www.w3.org/2000/svg" xmlns:xlink="http://www.w3.org/1999/xlink">
    <!-- Generator: Sketch 3.7.1 (28215) - http://www.bohemiancoding.com/sketch -->
    <title>unfollow</title>
    <desc>Created with Sketch.</desc>
    <defs></defs>
    <g id="Page-1" stroke="none" stroke-width="1" fill="none" fill-rule="evenodd">
        <g id="1-56" transform="translate(-208.000000, -260.000000)" fill="#000000">
            <g id="unfollow" transform="translate(207.000000, 259.000000)">
                <path d="M25.813,18.625 C21.875,18.625 18.625,21.875 18.625,25.813 C18.625,29.813 21.875,33.001 25.813,33.001 C29.813,33.001 33.001,29.813 33.001,25.813 C33.001,21.875 29.813,18.625 25.813,18.625 L25.813,18.625 Z M25.813,31.063 C22.938,31.063 20.563,28.688 20.563,25.813 C20.563,22.938 22.938,20.563 25.813,20.563 C28.688,20.563 31.063,22.938 31.063,25.813 C31.063,28.688 28.688,31.063 25.813,31.063 L25.813,31.063 Z M28.938,24.875 L22.688,24.875 C22.188,24.875 21.75,25.313 21.75,25.813 C21.75,26.376 22.188,26.751 22.688,26.751 L28.938,26.751 C29.438,26.751 29.876,26.376 29.876,25.813 C29.876,25.313 29.438,24.875 28.938,24.875 L28.938,24.875 Z M19.875,17.75 C19.187,17.562 18.562,17.312 17.875,17.062 C17.75,16.999 17.562,16.937 17.437,16.874 L17.437,14.874 C18.062,14.374 19.062,13.186 19.25,10.999 C19.438,10.811 19.625,10.624 19.75,10.374 C19.938,9.999 20,9.499 20,8.999 C20,8.249 19.812,7.624 19.437,7.249 C19.812,6.436 20.25,5.061 19.875,3.624 C19.437,1.686 16.812,0.999 14.687,0.999 C12.937,0.999 10.812,1.499 9.874,2.812 C9.061,2.812 8.561,3.125 8.249,3.437 C7.311,4.5 7.749,6.187 7.999,7.25 C7.936,7.375 7.811,7.563 7.749,7.75 C7.499,8.063 7.436,8.563 7.436,9.063 C7.436,9.938 7.749,10.626 8.186,11.001 C8.436,13.376 9.624,14.751 10.311,15.376 L10.311,16.876 C9.561,17.126 8.748,17.376 7.998,17.626 C4.81,18.689 2.248,19.501 1.685,21.189 C1.06,23.189 0.997,26.689 0.997,26.814 C0.997,27.127 1.122,27.314 1.247,27.502 C1.435,27.69 1.685,27.815 1.935,27.815 L15.435,27.815 L15.435,25.877 L2.935,25.877 C2.998,24.689 3.185,22.877 3.498,21.814 C3.748,21.064 6.686,20.064 8.623,19.439 C9.623,19.126 10.623,18.751 11.623,18.439 C11.998,18.251 12.248,17.939 12.248,17.501 L12.248,14.938 C12.248,14.625 12.123,14.313 11.873,14.125 C11.81,14.125 10.123,12.937 10.123,10.375 C10.123,9.937 9.81,9.562 9.435,9.437 C9.372,9.249 9.372,8.874 9.435,8.687 C9.56,8.624 9.748,8.562 9.873,8.437 C9.998,8.249 10.123,7.999 10.123,7.749 C10.123,7.561 10.06,7.374 9.998,6.999 C9.498,5.249 9.623,4.874 9.685,4.749 C9.748,4.749 9.873,4.686 10.31,4.749 C10.81,4.874 11.31,4.561 11.435,4.061 C11.56,3.498 12.873,2.936 14.748,2.936 C16.623,2.936 17.936,3.499 18.061,4.061 C18.311,5.061 17.811,6.186 17.561,6.811 C17.436,7.186 17.373,7.436 17.373,7.686 C17.373,8.124 17.686,8.499 18.061,8.624 C18.124,8.812 18.124,9.249 18.061,9.437 C17.623,9.562 17.373,9.937 17.373,10.375 C17.373,12.813 16.123,13.563 16.06,13.563 C15.747,13.751 15.56,14.063 15.56,14.438 L15.56,17.501 C15.56,17.939 15.81,18.251 16.185,18.439 C16.498,18.564 16.873,18.689 17.185,18.814 C17.935,19.064 18.56,19.377 19.31,19.564 L19.875,17.75 Z" id="Shape"></path>
            </g>
        </g>
    </g>
</svg>