<?xml version="1.0" encoding="UTF-8" standalone="no"?>
<svg width="32px" height="32px" viewBox="0 0 32 32" version="1.1" xmlns="http://www.w3.org/2000/svg" xmlns:xlink="http://www.w3.org/1999/xlink">
    <!-- Generator: Sketch 3.7.1 (28215) - http://www.bohemiancoding.com/sketch -->
    <title>veg-non-veg-circle</title>
    <desc>Created with Sketch.</desc>
    <defs></defs>
    <g id="Page-1" stroke="none" stroke-width="1" fill="none" fill-rule="evenodd">
        <g id="1-56" transform="translate(-260.000000, -260.000000)" fill="#000000">
            <g id="veg-non-veg-circle" transform="translate(260.000000, 260.000000)">
                <path d="M16,0 C7.187,0 0,7.188 0,16 C0,24.812 7.188,32 16,32 C24.813,32 32,24.812 32,16 C32,7.188 24.812,0 16,0 L16,0 Z M16,30.063 C8.25,30.063 1.937,23.75 1.937,16 C1.937,8.25 8.25,1.937 16,1.937 C23.75,1.937 30.063,8.25 30.063,16 C30.063,23.75 23.75,30.063 16,30.063 L16,30.063 Z M24.375,16 C24.375,20.625 20.625,24.375 16,24.375 C11.375,24.375 7.625,20.625 7.625,16 C7.625,11.375 11.375,7.625 16,7.625 C20.625,7.625 24.375,11.375 24.375,16 L24.375,16 Z" id="Shape"></path>
            </g>
        </g>
    </g>
</svg>