<?xml version="1.0" encoding="UTF-8" standalone="no"?>
<svg width="32px" height="32px" viewBox="0 0 32 32" version="1.1" xmlns="http://www.w3.org/2000/svg" xmlns:xlink="http://www.w3.org/1999/xlink">
    <!-- Generator: Sketch 3.7.1 (28215) - http://www.bohemiancoding.com/sketch -->
    <title>verified-star</title>
    <desc>Created with Sketch.</desc>
    <defs></defs>
    <g id="Page-1" stroke="none" stroke-width="1" fill="none" fill-rule="evenodd">
        <g id="1-56" transform="translate(-364.000000, -260.000000)" fill="#000000">
            <g id="verified-star" transform="translate(364.000000, 260.000000)">
                <path d="M15.94,3 L18.253,11.438 L18.316,11.501 L18.316,11.564 C18.441,12.002 18.754,12.439 19.191,12.814 C19.691,13.189 20.316,13.439 20.879,13.439 L29.129,13.439 L22.566,17.752 C21.816,18.252 21.316,19.252 21.378,20.19 C21.378,20.44 21.441,20.753 21.503,21.003 L24.378,29.378 L17.565,23.815 C17.127,23.44 16.565,23.252 15.94,23.252 C15.627,23.252 14.877,23.315 14.252,23.877 L7.814,29.377 L10.439,21.064 C10.502,20.814 10.564,20.501 10.564,20.189 C10.564,19.376 10.126,18.314 9.314,17.751 L2.751,13.438 L11.001,13.438 C11.564,13.438 12.189,13.188 12.689,12.813 C13.064,12.438 13.439,12 13.564,11.563 L13.564,11.438 L15.939,3 L15.94,3 Z M15.94,0 C15.19,0.063 14.815,0.438 14.627,0.75 C14.439,1 14.377,1.25 14.314,1.563 L11.689,10.938 C11.689,11.001 11.564,11.126 11.376,11.251 C11.251,11.439 11.063,11.501 11.001,11.501 L2.001,11.501 C1.688,11.501 1.313,11.501 0.938,11.689 C0.75,11.752 0.5,11.877 0.313,12.127 C0.126,12.377 0,12.752 0,13.065 C0,13.565 0.188,13.878 0.438,14.128 C0.626,14.378 0.813,14.503 1.063,14.628 L8.251,19.441 C8.376,19.504 8.626,19.879 8.626,20.191 C8.626,20.254 8.626,20.316 8.563,20.316 L5.688,29.566 C5.625,29.816 5.563,30.066 5.563,30.379 C5.563,30.629 5.626,31.004 5.876,31.379 C6.126,31.754 6.626,31.942 7.064,31.942 L7.127,31.942 C7.877,31.942 8.127,31.629 8.502,31.379 L15.565,25.316 C15.628,25.253 15.815,25.191 15.94,25.191 C16.128,25.191 16.253,25.254 16.315,25.316 L23.753,31.441 C24.128,31.691 24.441,31.941 25.128,32.004 L25.191,32.004 C25.566,32.004 26.066,31.816 26.316,31.379 C26.629,31.004 26.629,30.691 26.629,30.379 C26.629,30.067 26.566,29.816 26.504,29.504 L23.379,20.254 C23.316,20.254 23.316,20.129 23.316,20.129 C23.316,19.879 23.504,19.504 23.629,19.441 L30.817,14.691 C31.067,14.503 31.255,14.378 31.442,14.128 C31.63,13.94 31.88,13.565 31.88,13.065 C31.88,12.69 31.755,12.377 31.505,12.127 C31.192,11.752 30.88,11.627 30.63,11.564 C30.38,11.501 30.067,11.501 29.88,11.501 L20.88,11.501 C20.817,11.501 20.63,11.438 20.442,11.313 C20.317,11.188 20.192,11 20.192,10.938 L17.567,1.563 C17.504,1.25 17.379,1 17.192,0.75 C17.004,0.437 16.629,0.062 15.942,2.44249065e-15 L15.94,0 Z" id="Shape"></path>
            </g>
        </g>
    </g>
</svg>