<?xml version="1.0" encoding="UTF-8" standalone="no"?>
<svg width="29px" height="29px" viewBox="0 0 29 29" version="1.1" xmlns="http://www.w3.org/2000/svg" xmlns:xlink="http://www.w3.org/1999/xlink">
    <!-- Generator: Sketch 3.7.1 (28215) - http://www.bohemiancoding.com/sketch -->
    <title>wishlist</title>
    <desc>Created with Sketch.</desc>
    <defs></defs>
    <g id="Page-1" stroke="none" stroke-width="1" fill="none" fill-rule="evenodd">
        <g id="1-10" transform="translate(-365.000000, -105.000000)" fill="#000000">
            <g id="wishlist" transform="translate(365.000000, 105.000000)">
                <path d="M28.09375,0 L0.90625,0 C0.396484375,0 0,0.396484375 0,0.90625 C0,1.41601562 0.396484375,1.8125 0.90625,1.8125 L4.92773438,1.8125 L4.92773438,28.09375 C4.92773438,28.4335938 5.15429688,28.7734375 5.49414062,28.9433594 C5.83398438,29.0566406 6.23046875,29 6.51367188,28.7734375 L14.5,21.296875 L22.5429688,28.7734375 C22.7128906,28.8867188 22.9394531,29 23.1660156,29 L23.5058594,28.9433594 C23.8457031,28.7734375 24.0722656,28.4335938 24.0722656,28.09375 L24.0722656,1.75585938 L28.09375,1.75585938 C28.6035156,1.75585938 29,1.359375 29,0.90625 C29,0.396484375 28.6035156,0 28.09375,0 L28.09375,0 Z M22.203125,25.9980469 L15.1230469,19.3710938 C14.7832031,19.03125 14.2167969,19.03125 13.8769531,19.3710938 L6.74023438,25.9980469 L6.74023438,1.75585938 L22.203125,1.75585938 L22.203125,25.9980469 Z" id="Shape"></path>
            </g>
        </g>
    </g>
</svg>